<?xml version="1.0" encoding="UTF-8" standalone="no"?>
<!-- Created with Inkscape (http://www.inkscape.org/) -->

<svg
   xmlns:dc="http://purl.org/dc/elements/1.1/"
   xmlns:cc="http://creativecommons.org/ns#"
   xmlns:rdf="http://www.w3.org/1999/02/22-rdf-syntax-ns#"
   xmlns:svg="http://www.w3.org/2000/svg"
   xmlns="http://www.w3.org/2000/svg"
   xmlns:xlink="http://www.w3.org/1999/xlink"
   version="1.1"
   width="200.02678"
   height="196.21823"
   id="svg6864">
  <defs
     id="defs6866">
    <linearGradient
       x1="72.832001"
       y1="20.394878"
       x2="72.832001"
       y2="36.658333"
       id="linearGradient6369"
       xlink:href="#linearGradient9462"
       gradientUnits="userSpaceOnUse" />
    <linearGradient
       id="linearGradient9462">
      <stop
         id="stop9464"
         style="stop-color:#a40000;stop-opacity:1"
         offset="0" />
      <stop
         id="stop9466"
         style="stop-color:#ef2929;stop-opacity:1"
         offset="1" />
    </linearGradient>
    <linearGradient
       x1="72.832001"
       y1="20.394878"
       x2="72.832001"
       y2="36.658333"
       id="linearGradient6371"
       xlink:href="#linearGradient9462"
       gradientUnits="userSpaceOnUse" />
    <linearGradient
       x1="72.832001"
       y1="20.394878"
       x2="72.832001"
       y2="36.658333"
       id="linearGradient6373"
       xlink:href="#linearGradient9462"
       gradientUnits="userSpaceOnUse" />
    <radialGradient
       cx="103.59114"
       cy="94.287537"
       r="25.809397"
       fx="103.59114"
       fy="94.287537"
       id="radialGradient6375"
       xlink:href="#linearGradient9498"
       gradientUnits="userSpaceOnUse"
       gradientTransform="matrix(1,0,0,0.84931512,0,14.207706)" />
    <linearGradient
       id="linearGradient9498">
      <stop
         id="stop9500"
         style="stop-color:#ffffff;stop-opacity:1"
         offset="0" />
      <stop
         id="stop9502"
         style="stop-color:#ffffff;stop-opacity:0"
         offset="1" />
    </linearGradient>
    <filter
       color-interpolation-filters="sRGB"
       id="filter9518">
      <feGaussianBlur
         id="feGaussianBlur9520"
         stdDeviation="0.71376063" />
    </filter>
    <radialGradient
       cx="103.59114"
       cy="94.287537"
       r="25.809397"
       fx="103.59114"
       fy="94.287537"
       id="radialGradient6377"
       xlink:href="#linearGradient9498"
       gradientUnits="userSpaceOnUse"
       gradientTransform="matrix(1,0,0,0.84931512,0,14.207706)" />
    <linearGradient
       x1="264.28571"
       y1="573.26208"
       x2="264.28571"
       y2="649.31946"
       id="linearGradient6299"
       xlink:href="#linearGradient9356"
       gradientUnits="userSpaceOnUse"
       gradientTransform="matrix(2.5064773,0,0,2.5064773,-377.02695,-945.11669)" />
    <linearGradient
       id="linearGradient9356">
      <stop
         id="stop9358"
         style="stop-color:#f9f8f8;stop-opacity:1"
         offset="0" />
      <stop
         id="stop9364"
         style="stop-color:#ececec;stop-opacity:1"
         offset="0.07006675" />
      <stop
         id="stop9366"
         style="stop-color:#e8e7e7;stop-opacity:1"
         offset="0.93328261" />
      <stop
         id="stop9360"
         style="stop-color:#b4b3b4;stop-opacity:1"
         offset="1" />
    </linearGradient>
    <linearGradient
       x1="248.757"
       y1="634.69067"
       x2="249.81441"
       y2="664.505"
       id="linearGradient6301"
       xlink:href="#linearGradient9376"
       gradientUnits="userSpaceOnUse"
       gradientTransform="matrix(2.5064773,0,0,2.5064773,-377.02695,-945.11669)" />
    <linearGradient
       id="linearGradient9376">
      <stop
         id="stop9378"
         style="stop-color:#dad9d9;stop-opacity:1"
         offset="0" />
      <stop
         id="stop9384"
         style="stop-color:#dad9d9;stop-opacity:1"
         offset="0.27966022" />
      <stop
         id="stop9380"
         style="stop-color:#000000;stop-opacity:1"
         offset="1" />
    </linearGradient>
    <filter
       color-interpolation-filters="sRGB"
       id="filter10343">
      <feGaussianBlur
         id="feGaussianBlur10345"
         stdDeviation="0.74285713" />
    </filter>
  </defs>
  <g
     transform="translate(-190.41347,-492.71337)"
     id="layer1">
    <rect
       width="74.285713"
       height="74.285713"
       rx="14.818748"
       ry="14.818748"
       x="-3.8928561"
       y="783.7193"
       transform="matrix(2.5064773,0,0,2.5064773,208.95161,-1466.6429)"
       id="rect10609"
       style="opacity:0.72244903;fill:#888a85;fill-opacity:1;stroke:#888a85;stroke-width:0.44291338;stroke-miterlimit:4;stroke-opacity:1;stroke-dasharray:none;filter:url(#filter10343)" />
    <rect
       width="186.19545"
       height="186.19545"
       rx="37.142857"
       ry="37.142857"
       x="192.30144"
       y="493.97189"
       id="rect10611"
       style="fill:url(#linearGradient6299);fill-opacity:1;stroke:url(#linearGradient6301);stroke-width:1.11015236;stroke-miterlimit:4;stroke-opacity:1;stroke-dasharray:none" />
    <path
       d="m 129.40054,94.287537 a 25.809397,21.920311 0 1 1 -51.618796,0 25.809397,21.920311 0 1 1 51.618796,0 z"
       transform="matrix(2.1486036,0,0,1.3746515,26.971952,396.27929)"
       id="path10613"
       style="opacity:0.76326533;fill:url(#radialGradient6377);fill-opacity:1;stroke:none;filter:url(#filter9518)" />
    <path
       d="m 129.40054,94.287537 a 25.809397,21.920311 0 1 1 -51.618796,0 25.809397,21.920311 0 1 1 51.618796,0 z"
       transform="matrix(0.89287219,0,0,1.1016891,258.96457,550.75923)"
       id="path10615"
       style="opacity:0.76326533;fill:url(#radialGradient6375);fill-opacity:1;stroke:none;filter:url(#filter9518)" />
    <path
       d="m 80.963729,28.526606 a 8.1317282,8.1317282 0 1 1 -16.263456,0 8.1317282,8.1317282 0 1 1 16.263456,0 z"
       transform="matrix(2.1975726,0,0,2.1975726,125.34556,524.38044)"
       id="path10617"
       style="fill:url(#linearGradient6373);fill-opacity:1;stroke:none" />
    <path
       d="m 80.963729,28.526606 a 8.1317282,8.1317282 0 1 1 -16.263456,0 8.1317282,8.1317282 0 1 1 16.263456,0 z"
       transform="matrix(2.1975726,0,0,2.1975726,180.48805,464.22498)"
       id="path10625"
       style="fill:url(#linearGradient6371);fill-opacity:1;stroke:none" />
    <path
       d="m 80.963729,28.526606 a 8.1317282,8.1317282 0 1 1 -16.263456,0 8.1317282,8.1317282 0 1 1 16.263456,0 z"
       transform="matrix(2.1975726,0,0,2.1975726,70.203058,579.52294)"
       id="path10627"
       style="fill:url(#linearGradient6369);fill-opacity:1;stroke:none" />
    <path
       d="m 267.60738,589.04051 c -0.0609,0.60075 -0.0596,1.17127 -0.0596,1.78812 0,9.86935 7.95222,17.88118 17.82158,17.88118 9.86938,0 17.88123,-8.01183 17.88123,-17.88118 0,-0.61685 0.001,-1.18737 -0.0594,-1.78812 -0.9953,8.92691 -8.6291,15.85464 -17.82163,15.85464 -9.19251,0 -16.76671,-6.92773 -17.76198,-15.85464 z"
       id="path10631"
       style="fill:#ffffff;fill-opacity:1;stroke:none" />
    <path
       d="m 212.46488,644.18301 c -0.0609,0.60075 -0.0597,1.17127 -0.0597,1.78812 0,9.86935 7.95223,17.88118 17.82158,17.88118 9.86938,0 17.88123,-8.01183 17.88123,-17.88118 0,-0.61685 0.001,-1.18737 -0.0594,-1.78812 -0.9953,8.92692 -8.6291,15.85464 -17.82163,15.85464 -9.1925,0 -16.7667,-6.92772 -17.76197,-15.85464 z"
       id="path10639"
       style="fill:#ffffff;fill-opacity:1;stroke:none" />
    <path
       d="m 322.74988,528.88505 c -0.0609,0.60075 -0.0597,1.17128 -0.0597,1.78812 0,9.86936 7.95222,17.88119 17.82158,17.88119 9.86938,0 17.88123,-8.01183 17.88123,-17.88119 0,-0.61684 10e-4,-1.18737 -0.0594,-1.78812 -0.9953,8.92692 -8.6291,15.85465 -17.82163,15.85465 -9.19251,0 -16.76671,-6.92773 -17.76198,-15.85465 z"
       id="path10643"
       style="fill:#ffffff;fill-opacity:1;stroke:none" />
  </g>

</svg>
