<?xml version="1.0" encoding="UTF-8" standalone="no"?>
<!-- Created with Inkscape (http://www.inkscape.org/) -->

<svg
   xmlns:dc="http://purl.org/dc/elements/1.1/"
   xmlns:cc="http://creativecommons.org/ns#"
   xmlns:rdf="http://www.w3.org/1999/02/22-rdf-syntax-ns#"
   xmlns:svg="http://www.w3.org/2000/svg"
   xmlns="http://www.w3.org/2000/svg"
   xmlns:xlink="http://www.w3.org/1999/xlink"
   version="1.1"
   width="200"
   height="201.38937"
   id="svg3308">
  <defs
     id="defs3310">
    <linearGradient
       x1="371"
       y1="272.36218"
       x2="397"
       y2="272.36218"
       id="linearGradient4131"
       xlink:href="#linearGradient4122"
       gradientUnits="userSpaceOnUse"
       gradientTransform="matrix(1,0,0,0.86398359,0,55.507248)" />
    <linearGradient
       id="linearGradient4122">
      <stop
         id="stop4124"
         style="stop-color:#babdb6;stop-opacity:1"
         offset="0" />
      <stop
         id="stop4126"
         style="stop-color:#d3d7cf;stop-opacity:1"
         offset="1" />
    </linearGradient>
    <linearGradient
       x1="385.54996"
       y1="423.03714"
       x2="385.54996"
       y2="391.21735"
       id="linearGradient4149"
       xlink:href="#linearGradient4143"
       gradientUnits="userSpaceOnUse" />
    <linearGradient
       id="linearGradient4143">
      <stop
         id="stop4145"
         style="stop-color:#2e3436;stop-opacity:1"
         offset="0" />
      <stop
         id="stop4147"
         style="stop-color:#2e3436;stop-opacity:0"
         offset="1" />
    </linearGradient>
    <linearGradient
       x1="296.92764"
       y1="204.41388"
       x2="335.29044"
       y2="246.96756"
       id="linearGradient4467"
       xlink:href="#linearGradient4453"
       gradientUnits="userSpaceOnUse" />
    <linearGradient
       id="linearGradient4453">
      <stop
         id="stop4455"
         style="stop-color:#5c0000;stop-opacity:1"
         offset="0" />
      <stop
         id="stop4457"
         style="stop-color:#cc0000;stop-opacity:1"
         offset="1" />
    </linearGradient>
    <linearGradient
       x1="300.0184"
       y1="282.64255"
       x2="337.61392"
       y2="338.32919"
       id="linearGradient4475"
       xlink:href="#linearGradient4453"
       gradientUnits="userSpaceOnUse" />
    <linearGradient
       id="linearGradient3208">
      <stop
         id="stop3210"
         style="stop-color:#5c0000;stop-opacity:1"
         offset="0" />
      <stop
         id="stop3212"
         style="stop-color:#cc0000;stop-opacity:1"
         offset="1" />
    </linearGradient>
    <linearGradient
       x1="188.05568"
       y1="71.817673"
       x2="224.16241"
       y2="98.558395"
       id="linearGradient4483"
       xlink:href="#linearGradient4453"
       gradientUnits="userSpaceOnUse" />
    <linearGradient
       id="linearGradient3215">
      <stop
         id="stop3217"
         style="stop-color:#5c0000;stop-opacity:1"
         offset="0" />
      <stop
         id="stop3219"
         style="stop-color:#cc0000;stop-opacity:1"
         offset="1" />
    </linearGradient>
    <linearGradient
       x1="196.41675"
       y1="152.35248"
       x2="231.80135"
       y2="204.76431"
       id="linearGradient4485"
       xlink:href="#linearGradient4453"
       gradientUnits="userSpaceOnUse" />
    <linearGradient
       id="linearGradient3222">
      <stop
         id="stop3224"
         style="stop-color:#5c0000;stop-opacity:1"
         offset="0" />
      <stop
         id="stop3226"
         style="stop-color:#cc0000;stop-opacity:1"
         offset="1" />
    </linearGradient>
    <linearGradient
       x1="203.7706"
       y1="227.8766"
       x2="238.44749"
       y2="279.2402"
       id="linearGradient4487"
       xlink:href="#linearGradient4453"
       gradientUnits="userSpaceOnUse" />
    <linearGradient
       id="linearGradient3229">
      <stop
         id="stop3231"
         style="stop-color:#5c0000;stop-opacity:1"
         offset="0" />
      <stop
         id="stop3233"
         style="stop-color:#cc0000;stop-opacity:1"
         offset="1" />
    </linearGradient>
    <linearGradient
       x1="674.68658"
       y1="477.81662"
       x2="688.10907"
       y2="519.5498"
       id="linearGradient4507"
       xlink:href="#linearGradient4501"
       gradientUnits="userSpaceOnUse" />
    <linearGradient
       id="linearGradient4501">
      <stop
         id="stop4503"
         style="stop-color:#a40000;stop-opacity:1"
         offset="0" />
      <stop
         id="stop4505"
         style="stop-color:#d14040;stop-opacity:1"
         offset="1" />
    </linearGradient>
    <linearGradient
       x1="674.01837"
       y1="628.64252"
       x2="711.61395"
       y2="656.48584"
       id="linearGradient4515"
       xlink:href="#linearGradient4501"
       gradientUnits="userSpaceOnUse" />
    <linearGradient
       id="linearGradient3240">
      <stop
         id="stop3242"
         style="stop-color:#a40000;stop-opacity:1"
         offset="0" />
      <stop
         id="stop3244"
         style="stop-color:#d14040;stop-opacity:1"
         offset="1" />
    </linearGradient>
    <linearGradient
       x1="543.40509"
       y1="405.38394"
       x2="575.78461"
       y2="434.96661"
       id="linearGradient4519"
       xlink:href="#linearGradient4501"
       gradientUnits="userSpaceOnUse" />
    <linearGradient
       id="linearGradient3247">
      <stop
         id="stop3249"
         style="stop-color:#a40000;stop-opacity:1"
         offset="0" />
      <stop
         id="stop3251"
         style="stop-color:#d14040;stop-opacity:1"
         offset="1" />
    </linearGradient>
    <linearGradient
       x1="563.33685"
       y1="565.65973"
       x2="598.01379"
       y2="591.34155"
       id="linearGradient4517"
       xlink:href="#linearGradient4501"
       gradientUnits="userSpaceOnUse" />
    <linearGradient
       id="linearGradient3254">
      <stop
         id="stop3256"
         style="stop-color:#a40000;stop-opacity:1"
         offset="0" />
      <stop
         id="stop3258"
         style="stop-color:#d14040;stop-opacity:1"
         offset="1" />
    </linearGradient>
    <linearGradient
       x1="345.76929"
       y1="-213.28308"
       x2="440.00244"
       y2="-223.63782"
       id="linearGradient4438"
       xlink:href="#linearGradient4432"
       gradientUnits="userSpaceOnUse" />
    <linearGradient
       id="linearGradient4432">
      <stop
         id="stop4434"
         style="stop-color:#a40000;stop-opacity:1"
         offset="0" />
      <stop
         id="stop4436"
         style="stop-color:#000000;stop-opacity:1"
         offset="1" />
    </linearGradient>
    <linearGradient
       x1="353.25125"
       y1="-177.82069"
       x2="421"
       y2="-223.63782"
       id="linearGradient4447"
       xlink:href="#linearGradient4441"
       gradientUnits="userSpaceOnUse" />
    <linearGradient
       id="linearGradient4441">
      <stop
         id="stop4443"
         style="stop-color:#cc0000;stop-opacity:1"
         offset="0" />
      <stop
         id="stop4445"
         style="stop-color:#690000;stop-opacity:1"
         offset="1" />
    </linearGradient>
    <linearGradient
       x1="294.53619"
       y1="115.56702"
       x2="333.68192"
       y2="144.5584"
       id="linearGradient4459"
       xlink:href="#linearGradient4453"
       gradientUnits="userSpaceOnUse" />
    <linearGradient
       id="linearGradient3269">
      <stop
         id="stop3271"
         style="stop-color:#5c0000;stop-opacity:1"
         offset="0" />
      <stop
         id="stop3273"
         style="stop-color:#cc0000;stop-opacity:1"
         offset="1" />
    </linearGradient>
    <linearGradient
       x1="394"
       y1="-12.637817"
       x2="384.67792"
       y2="286.36218"
       id="linearGradient4167"
       xlink:href="#linearGradient4161"
       gradientUnits="userSpaceOnUse" />
    <linearGradient
       id="linearGradient4161">
      <stop
         id="stop4163"
         style="stop-color:#eeeeec;stop-opacity:1"
         offset="0" />
      <stop
         id="stop4165"
         style="stop-color:#d3d7cf;stop-opacity:1"
         offset="1" />
    </linearGradient>
    <linearGradient
       x1="394"
       y1="-12.637817"
       x2="384.67792"
       y2="286.36218"
       id="linearGradient3306"
       xlink:href="#linearGradient4161"
       gradientUnits="userSpaceOnUse"
       gradientTransform="matrix(0.45577571,0,0,0.45577571,-17.590162,380.24699)" />
  </defs>
  <metadata
     id="metadata3313">
    <rdf:RDF>
      <cc:Work
         rdf:about="">
        <dc:format>image/svg+xml</dc:format>
        <dc:type
           rdf:resource="http://purl.org/dc/dcmitype/StillImage" />
        <dc:title></dc:title>
      </cc:Work>
    </rdf:RDF>
  </metadata>
  <g
     transform="translate(-57.736692,-366.18888)"
     id="layer1">
    <path
       d="m 150.34043,566.5355 c -1.03631,-0.32421 -3.03198,-1.24618 -4.43483,-2.04881 -3.86175,-2.20947 -69.024698,-49.45074 -71.486994,-51.82602 -2.637273,-2.54408 -3.777278,-5.39134 -4.689964,-11.71357 -0.367952,-2.54884 -3.254995,-24.52887 -6.415649,-48.8445 -6.550609,-50.39531 -6.577668,-50.78447 -3.917871,-56.35291 2.431988,-5.09151 7.715977,-9.32799 13.771874,-11.0417 6.081525,-1.72097 84.527404,-18.51911 86.482634,-18.51911 2.13884,0 77.22587,16.47019 83.04646,18.21607 6.90957,2.07253 12.48423,7.39031 14.31671,13.657 0.39814,1.36156 0.72389,4.1203 0.72389,6.13055 0,5.09264 -9.89993,101.15992 -10.72076,104.03253 -1.32935,4.65222 -1.85962,5.04351 -41.36849,30.52657 -40.76158,26.29106 -40.80438,26.31763 -44.38988,27.55122 -2.98144,1.02577 -8.0377,1.13353 -10.91713,0.23268 z"
       id="path4030"
       style="fill:url(#linearGradient3306);fill-opacity:1;stroke:none;display:inline" />
    <g
       transform="matrix(0.45577571,0,0,0.45577571,-17.590162,380.24699)"
       id="layer2"
       style="display:inline">
      <path
         d="m 370,142.36218 14,144 14,-144 0,262.50736 c -11.5,6.04788 -28,1.72796 -28,1.72796 l 0,-264.23532 z"
         id="rect4120"
         style="fill:url(#linearGradient4131);fill-opacity:1;stroke:none" />
      <path
         d="m 412.24325,396.16709 -31.46625,-4.94975 -21.92031,12.37437 18.38478,7.42462 12.72792,-0.70711 22.27386,-14.14213 z"
         id="path4133"
         style="fill:url(#linearGradient4149);fill-opacity:1;stroke:none" />
      <path
         d="m 335.29045,232.82543 c 0,15.69127 -7.77197,28.41155 -18.36557,28.41155 -10.59359,0 -19.99723,-12.72028 -19.99723,-28.41155 0,-15.69127 5.63339,-28.41155 17.95763,-28.41155 10.5936,0 20.40517,12.72028 20.40517,28.41155 z"
         id="path4353"
         style="fill:url(#linearGradient4467);fill-opacity:1;stroke:none;display:inline" />
      <path
         d="m 337.61393,310.48586 c 0,15.37744 -7.61653,27.84332 -17.99826,27.84332 -10.38171,0 -19.59728,-12.46588 -19.59728,-27.84332 0,-15.37744 5.52072,-27.84332 17.59848,-27.84332 10.38172,0 19.99706,12.46588 19.99706,27.84332 z"
         id="path4355"
         style="fill:url(#linearGradient4475);fill-opacity:1;stroke:none;display:inline" />
      <path
         d="m 224.16242,98.5584 c 0,14.76849 -7.3149,26.74072 -17.28552,26.74072 -9.9706,0 -18.82122,-11.97223 -18.82122,-26.74072 0,-14.768498 5.30209,-26.740726 16.90158,-26.740726 9.97059,0 19.20516,11.972228 19.20516,26.740726 z"
         id="path4357"
         style="fill:url(#linearGradient4483);fill-opacity:1;stroke:none;display:inline" />
      <path
         d="m 231.80135,178.5584 c 0,14.47312 -7.1686,26.20591 -16.93981,26.20591 -9.77118,0 -18.44479,-11.73279 -18.44479,-26.20591 0,-14.47313 5.19605,-26.20592 16.56355,-26.20592 9.77117,0 18.82105,11.73279 18.82105,26.20592 z"
         id="path4359"
         style="fill:url(#linearGradient4485);fill-opacity:1;stroke:none;display:inline" />
      <path
         d="m 238.4475,253.5584 c 0,14.18366 -7.02522,25.68179 -16.60101,25.68179 -9.57576,0 -18.07589,-11.49813 -18.07589,-25.68179 0,-14.18367 5.09212,-25.6818 16.23227,-25.6818 9.57575,0 18.44463,11.49813 18.44463,25.6818 z"
         id="path4361"
         style="fill:url(#linearGradient4487);fill-opacity:1;stroke:none;display:inline" />
      <g
         transform="matrix(-0.94857232,0,0,0.94857232,1096.0729,-308.80654)"
         id="g4383"
         style="display:inline">
        <path
           d="m 707.68191,490.5584 c 0,16.0115 -7.93058,28.99138 -18.74038,28.99138 -10.80979,0 -20.40534,-12.97988 -20.40534,-28.99138 0,-16.0115 5.74836,-28.99138 18.32412,-28.99138 10.80979,0 20.8216,12.97988 20.8216,28.99138 z"
           id="path4371"
           style="fill:url(#linearGradient4507);fill-opacity:1;stroke:none" />
        <path
           d="m 711.61393,656.48586 c 0,15.37744 -7.61653,27.84332 -17.99826,27.84332 -10.38171,0 -19.59728,-12.46588 -19.59728,-27.84332 0,-15.37744 5.52072,-27.84332 17.59848,-27.84332 10.38172,0 19.99706,12.46588 19.99706,27.84332 z"
           id="path4375"
           style="fill:url(#linearGradient4515);fill-opacity:1;stroke:none" />
        <path
           d="m 579.51184,432.12468 c 0,14.76849 -7.3149,26.74072 -17.28552,26.74072 -9.9706,0 -18.82122,-11.97223 -18.82122,-26.74072 0,-14.7685 5.30209,-26.74073 16.90158,-26.74073 9.97059,0 19.20516,11.97223 19.20516,26.74073 z"
           id="path4377"
           style="fill:url(#linearGradient4519);fill-opacity:1;stroke:none" />
        <path
           d="m 598.01378,591.34154 c 0,14.18366 -7.02522,25.68179 -16.60101,25.68179 -9.57576,0 -18.07589,-11.49813 -18.07589,-25.68179 0,-14.18367 5.09212,-25.6818 16.23227,-25.6818 9.57575,0 18.44463,11.49813 18.44463,25.6818 z"
           id="path4381"
           style="fill:url(#linearGradient4517);fill-opacity:1;stroke:none" />
        <path
           d="m 702.63691,494.01431 c 0,15.69127 -7.77197,28.41155 -18.36557,28.41155 -10.59359,0 -19.99723,-12.72028 -19.99723,-28.41155 0,-15.69127 5.63339,-28.41155 17.95763,-28.41155 10.5936,0 20.40517,12.72028 20.40517,28.41155 z"
           id="path4521"
           style="opacity:0.25;fill:#ffffff;fill-opacity:1;stroke:none" />
        <path
           d="m 705.23505,657.26637 c 0,15.37744 -7.61653,27.84332 -17.99826,27.84332 -10.38171,0 -19.59728,-12.46588 -19.59728,-27.84332 0,-15.37744 5.52072,-27.84332 17.59848,-27.84332 10.38172,0 19.99706,12.46588 19.99706,27.84332 z"
           id="path4525"
           style="opacity:0.25;fill:#ffffff;fill-opacity:1;stroke:none" />
        <path
           d="m 592.1852,594.21248 c 0,14.47312 -7.1686,26.20591 -16.93981,26.20591 -9.77119,0 -18.44479,-11.73279 -18.44479,-26.20591 0,-14.47312 5.19605,-26.20591 16.56355,-26.20591 9.77117,0 18.82105,11.73279 18.82105,26.20591 z"
           id="path4527"
           style="opacity:0.25;fill:#ffffff;fill-opacity:1;stroke:none" />
        <path
           d="m 573.66109,434.96662 c 0,15.06989 -7.46419,27.28645 -17.63829,27.28645 -10.17408,0 -19.20533,-12.21656 -19.20533,-27.28645 0,-15.06989 5.4103,-27.28645 17.24651,-27.28645 10.17408,0 19.59711,12.21656 19.59711,27.28645 z"
           id="path4529"
           style="opacity:0.25;fill:#ffffff;fill-opacity:1;stroke:none" />
      </g>
      <path
         d="m 421,-202.63782 a 47,21 0 1 1 -94,0 47,21 0 1 1 94,0 z"
         transform="matrix(0.72036474,0,0,0.57142857,114.72644,141.15522)"
         id="path4395"
         style="fill:url(#linearGradient4438);fill-opacity:1;stroke:none;display:inline" />
      <path
         d="m 421,-202.63782 c 0,11.59798 -21.04262,24.81712 -47,24.81712 -25.95738,0 -47,-13.21914 -47,-24.81712 0,-11.59798 21.04262,-21 47,-21 25.95738,0 47,9.40202 47,21 z"
         transform="matrix(0.68047113,0,0,0.3704919,129.086,103.30397)"
         id="path4409"
         style="fill:url(#linearGradient4447);fill-opacity:1;stroke:none;display:inline" />
      <path
         d="m 333.68191,144.5584 c 0,16.0115 -7.93058,28.99138 -18.74038,28.99138 -10.80979,0 -20.40534,-12.97988 -20.40534,-28.99138 0,-16.0115 5.74836,-28.99138 18.32412,-28.99138 10.80979,0 20.8216,12.97988 20.8216,28.99138 z"
         id="path4348"
         style="fill:url(#linearGradient4459);fill-opacity:1;stroke:none;display:inline" />
      <path
         d="m 333.29507,145.44219 c 2.9121,13.24091 -1.28547,25.41717 -10.22478,27.3832 -8.93929,1.96603 -19.23517,-7.02265 -22.14726,-20.26356 -2.9121,-13.24091 -0.51914,-25.02027 9.88055,-27.30749 8.93928,-1.96603 19.5794,6.94694 22.49149,20.18785 z"
         id="path4489"
         style="opacity:0.25;fill:#ffffff;fill-opacity:1;stroke:none;display:inline" />
      <path
         d="m 335.46903,233.01413 c 2.85386,12.97609 -1.25976,24.90882 -10.02029,26.83553 -8.7605,1.92671 -18.85046,-6.8822 -21.70431,-19.85829 -2.85386,-12.97609 -0.50876,-24.51986 9.68294,-26.76134 8.76049,-1.92671 19.18781,6.808 22.04166,19.7841 z"
         id="path4491"
         style="opacity:0.25;fill:#ffffff;fill-opacity:1;stroke:none;display:inline" />
      <path
         d="m 337.14951,310.08463 c 2.79678,12.71656 -1.23457,24.41064 -9.81989,26.29882 -8.58529,1.88817 -18.47345,-6.74456 -21.27022,-19.46113 -2.79678,-12.71657 -0.49858,-24.02946 9.48928,-26.22611 8.58528,-1.88818 18.80406,6.67184 21.60083,19.38842 z"
         id="path4493"
         style="opacity:0.25;fill:#ffffff;fill-opacity:1;stroke:none;display:inline" />
      <path
         d="m 226.64951,99.79075 c 2.79678,12.71656 -1.23457,24.41064 -9.81989,26.29882 -8.58529,1.88817 -18.47345,-6.74456 -21.27022,-19.46113 -2.79678,-12.71656 -0.49858,-24.029457 9.48928,-26.226104 8.58528,-1.888174 18.80406,6.671841 21.60083,19.388414 z"
         id="path4495"
         style="opacity:0.25;fill:#ffffff;fill-opacity:1;stroke:none;display:inline" />
      <path
         d="m 234.33638,177.85984 c 2.74084,12.46223 -1.20988,23.92242 -9.62349,25.77284 -8.41359,1.85041 -18.10398,-6.60967 -20.84482,-19.07191 -2.74084,-12.46223 -0.48861,-23.54887 9.2995,-25.70158 8.41357,-1.85041 18.42797,6.53841 21.16881,19.00065 z"
         id="path4497"
         style="opacity:0.25;fill:#ffffff;fill-opacity:1;stroke:none;display:inline" />
      <path
         d="m 241.02951,253.92754 c 2.68603,12.21299 -1.18568,23.44398 -9.43102,25.25739 -8.24532,1.8134 -17.7419,-6.47748 -20.42792,-18.69047 -2.68603,-12.21299 -0.47884,-23.0779 9.11351,-25.18755 8.2453,-1.8134 18.05941,6.40764 20.74543,18.62063 z"
         id="path4499"
         style="opacity:0.25;fill:#ffffff;fill-opacity:1;stroke:none;display:inline" />
    </g>
  </g>
</svg>
