<?xml version="1.0" encoding="UTF-8" standalone="no"?>
<!-- Created with Inkscape (http://www.inkscape.org/) -->
<svg xmlns:dc="http://purl.org/dc/elements/1.1/" xmlns:cc="http://creativecommons.org/ns#" xmlns:rdf="http://www.w3.org/1999/02/22-rdf-syntax-ns#" xmlns:svg="http://www.w3.org/2000/svg" xmlns="http://www.w3.org/2000/svg" xmlns:xlink="http://www.w3.org/1999/xlink" xmlns:sodipodi="http://sodipodi.sourceforge.net/DTD/sodipodi-0.dtd" xmlns:inkscape="http://www.inkscape.org/namespaces/inkscape" width="263.82321" height="262.2019" id="svg7428" version="1.1" inkscape:version="0.48.1 " sodipodi:docname="Beach ball.svg">
  <defs id="defs7430">
    <linearGradient inkscape:collect="always" xlink:href="#linearGradient6517" id="linearGradient6551" gradientUnits="userSpaceOnUse" x1="-2174.6682" y1="24.972576" x2="-2335.8132" y2="118.0097"/>
    <linearGradient inkscape:collect="always" id="linearGradient6517">
      <stop style="stop-color:#ffffff;stop-opacity:0.67195767" offset="0" id="stop6519"/>
      <stop style="stop-color:#ffffff;stop-opacity:0;" offset="1" id="stop6521"/>
    </linearGradient>
    <linearGradient y2="118.0097" x2="-2335.8132" y1="24.972576" x1="-2174.6682" gradientUnits="userSpaceOnUse" id="linearGradient7426" xlink:href="#linearGradient6517" inkscape:collect="always"/>
    <linearGradient inkscape:collect="always" xlink:href="#linearGradient6517" id="linearGradient7600" gradientUnits="userSpaceOnUse" x1="-2174.6682" y1="24.972576" x2="-2335.8132" y2="118.0097"/>
  </defs>
  <sodipodi:namedview id="base" pagecolor="#ffffff" bordercolor="#666666" borderopacity="1.0" inkscape:pageopacity="0.0" inkscape:pageshadow="2" inkscape:zoom="0.70710678" inkscape:cx="-86.907548" inkscape:cy="166.15047" inkscape:document-units="px" inkscape:current-layer="layer1" showgrid="false" fit-margin-top="0" fit-margin-left="0" fit-margin-right="0" fit-margin-bottom="0" inkscape:window-width="1190" inkscape:window-height="719" inkscape:window-x="125" inkscape:window-y="125" inkscape:window-maximized="0"/>
  <g inkscape:label="Layer 1" inkscape:groupmode="layer" id="layer1" transform="translate(-255.51705,-401.83268)">
    <path style="color:#000000;fill:#bfbb11;fill-opacity:1;fill-rule:nonzero;stroke:none;stroke-width:1;marker:none;visibility:visible;display:inline;overflow:visible;enable-background:accumulate" d="m 448.61383,452.2534 c -0.38755,-0.29918 -0.55649,-0.1875 -0.67403,-0.18118 -0.11741,0.006 -0.21423,0.02 -0.30115,0.0388 -0.17373,0.0376 -0.3519,0.098 -0.57146,0.16925 -0.43913,0.14244 -1.00556,0.34965 -1.69983,0.62061 -1.38872,0.54187 -3.24688,1.31905 -5.24906,2.18725 -4.00449,1.7363 -8.58079,3.84213 -11.22937,5.23414 -36.54781,19.20806 -77.31882,51.82324 -109.59022,87.62574 -8.90902,8.42558 -24.80952,28.48828 -27.2386,36.82212 -7.44523,13.67797 -10.31248,24.51262 -7.6739,31.37643 0.85159,2.21508 3.42649,5.13679 9.23576,11.09712 0.75358,0.77309 2.56902,2.28026 5.02525,4.2523 2.45622,1.97198 5.49444,4.3696 8.57239,6.68546 9.88054,7.43415 12.17657,8.91061 18.83078,12.19701 13.41612,6.62602 29.633,11.58077 38.66542,11.67303 8.40999,0.0858 19.55722,-3.76772 28.07905,-9.6223 14.65107,-10.06548 29.17567,-28.51902 39.87353,-50.46586 18.58845,-38.13445 26.87581,-87.84273 21.15317,-126.93775 -0.58692,-4.00986 -1.62303,-9.41779 -2.61426,-13.92033 -0.49568,-2.25129 -0.98974,-4.28388 -1.39597,-5.791 -0.20303,-0.75354 -0.37928,-1.36717 -0.54337,-1.84367 -0.0824,-0.23831 -0.15055,-0.4424 -0.23298,-0.62069 -0.0825,-0.17835 -0.0773,-0.33096 -0.42115,-0.59644 z" id="path6129" inkscape:connector-curvature="0" sodipodi:nodetypes="sccscccccsssssssssscccs"/>
    <path style="color:#000000;fill:#6e0143;fill-opacity:1;fill-rule:nonzero;stroke:none;stroke-width:1;marker:none;visibility:visible;display:inline;overflow:visible;enable-background:accumulate" d="m 480.07954,449.5424 c -1.6252,-1.1704 -3.2845,-1.75916 -5.37568,-2.21701 -2.25274,-0.49323 -5.52384,-0.45497 -9.13689,-0.068 -3.60058,0.3855 -7.49956,1.14056 -10.78389,2.15319 -0.0132,0.003 -0.0258,0.001 -0.0377,0.005 l -4.50112,1.30647 c -0.81978,0.22752 -1.05671,1.51431 -0.37173,2.01888 l 10.47872,7.81796 c 0.008,0.007 0.012,0.009 0.0204,0.0163 7.72995,6.0139 11.44675,9.25374 15.98178,13.99899 19.28518,20.17898 30.66966,43.51576 32.88466,67.12839 0.17092,1.82126 0.35779,3.464 0.52555,4.6783 0.0838,0.60709 0.17501,1.10823 0.24782,1.47987 0.19273,2.91148 -0.30028,9.00073 -0.50766,12.1152 1.26451,-2.59765 2.84327,-11.3323 3.05069,-11.98318 0.0659,-0.31669 0.10411,-0.69825 0.15584,-1.16825 0.10338,-0.94004 0.21467,-2.20533 0.29268,-3.67364 0.15622,-2.93646 0.22458,-6.62145 0.18364,-9.72588 -0.35613,-27.04615 -9.57531,-54.09533 -25.86533,-75.78209 -2.82101,-3.7557 -4.68964,-6.02342 -6.54143,-7.55911 -0.23174,-0.19211 -0.46898,-0.37407 -0.70115,-0.54125 z" id="path6140" inkscape:connector-curvature="0" sodipodi:nodetypes="cscccccccsccccccccsssc"/>
    <path style="color:#000000;fill:#c93c00;fill-opacity:1;fill-rule:nonzero;stroke:none;stroke-width:1;marker:none;visibility:visible;display:inline;overflow:visible;enable-background:accumulate" d="m 447.4083,450.91588 c -0.0186,-0.005 -0.0383,-0.009 -0.0581,-0.0113 l -1.46001,-0.78804 c -0.80331,-0.4252 -3.79247,-2.02142 -6.61886,-3.54966 -37.00251,-20.00771 -83.26257,-23.97331 -119.43985,-10.17687 -20.42241,7.78813 -38.53111,21.88173 -48.17658,37.54556 -17.46625,28.36398 -21.01387,67.52535 -9.37384,102.63021 2.72227,8.20985 9.98766,23.0351 14.81635,30.22361 1.03401,1.53921 2.05083,2.98611 2.84221,4.09303 0.39593,0.55353 0.73249,1.03271 1.00094,1.38302 0.40312,0.63859 2.73977,3.55094 3.51803,4.14004 -0.56733,-2.56206 -1.02101,-4.98866 -0.94361,-7.03564 0.23957,-6.959 3.6536,-16.20313 9.88492,-26.68547 6.23137,-10.48229 15.09246,-22.25664 25.7926,-34.37789 21.40023,-24.24257 50.17655,-49.94215 80.08045,-70.08812 15.41423,-10.38433 32.3415,-19.82109 44.03347,-24.53527 l 3.98441,-1.60358 c 0.45932,-0.16219 0.53546,-0.91214 0.11832,-1.16337 z" id="path6134" inkscape:connector-curvature="0" sodipodi:nodetypes="cccsssssccccsssccc"/>
    <path style="color:#000000;fill:#f2c802;fill-opacity:1;fill-rule:evenodd;stroke:none;stroke-width:1;marker:none;visibility:visible;display:inline;overflow:visible;enable-background:accumulate" d="m 424.4358,415.23407 c -0.37694,-0.27954 -0.74705,-0.5389 -1.11645,-0.794 -4.42126,-3.05274 -8.31742,-4.38813 -15.34935,-5.81333 -20.66162,-4.18746 -44.86649,-2.41416 -65.93782,4.81125 -15.65506,5.36801 -31.93675,14.98076 -44.64375,26.33607 -3.46189,3.09382 -8.16939,8.08012 -12.03393,12.51395 -1.93233,2.21684 -3.64869,4.29396 -4.88231,5.9291 -0.61693,0.81747 -1.11968,1.50246 -1.47325,2.08411 -0.17673,0.29082 -0.32267,0.57034 -0.43014,0.82082 -0.33956,0.71067 -4.06289,6.17307 -4.9515,9.44675 0.41773,0.0188 6.23161,-7.71742 6.7295,-7.97241 0.40846,-0.27773 0.83704,-0.68226 1.29983,-1.20068 3.22448,-3.61112 11.64464,-10.64483 16.79582,-14.0261 15.53021,-10.19423 32.09791,-15.9665 52.55249,-18.26394 25.67603,-2.88403 51.35912,1.10385 76.72201,11.92328 2.36217,1.0077 6.65325,3.07641 10.50155,5.02106 1.92418,0.97241 3.72866,1.92167 5.14902,2.68631 1.42023,0.76464 2.52038,1.40378 2.7058,1.54628 0.0883,0.0679 0.19961,0.18503 0.46931,0.22668 0.26971,0.0417 0.70967,-0.13257 0.89101,-0.36342 0.3655,-0.4594 0.23718,-0.62649 0.22556,-0.77533 -0.0234,-0.29777 -0.0927,-0.55604 -0.19171,-0.89395 -0.19763,-0.67566 -0.55187,-1.6082 -0.98213,-2.72493 -0.86057,-2.23347 -2.064,-5.13498 -3.26,-7.63698 -1.00652,-2.10564 -3.48436,-6.27718 -5.59731,-9.44122 -3.29745,-4.9379 -4.73638,-6.49131 -9.58694,-10.55443 -1.29652,-1.08601 -2.47473,-2.04614 -3.60543,-2.8849 z" id="path6136" inkscape:connector-curvature="0" sodipodi:nodetypes="ssssccscccccssccscscccsssss"/>
    <path style="color:#000000;fill:#e88801;fill-opacity:1;fill-rule:nonzero;stroke:none;stroke-width:1;marker:none;visibility:visible;display:inline;overflow:visible;enable-background:accumulate" d="m 462.32128,433.18865 c -4.54341,-3.45746 -9.32825,-6.71929 -12.94015,-8.80253 -6.72646,-3.87958 -16.29236,-8.38963 -21.44803,-10.08048 -0.008,-0.004 -0.0156,-0.014 -0.0204,-0.0163 l -3.29745,-1.08745 c -0.30199,-0.11132 -4.4309,-1.50821 -4.59044,-1.22863 -0.15941,0.27962 3.66948,2.20262 3.91911,2.40584 l 1.98559,1.60069 c 0.008,0.005 0.0144,0.0111 0.0216,0.0163 8.32905,6.66544 16.24868,18.19524 20.83199,30.42541 0.44434,1.18558 0.81164,2.28246 1.12723,3.10817 0.15786,0.41288 0.29654,0.74414 0.43685,1.01543 0.0704,0.13567 0.13305,0.26199 0.24149,0.38992 0.0539,0.0637 0.13868,0.12638 0.25502,0.19682 0.11641,0.0704 0.31051,0.14333 0.53007,0.10402 0.20357,-0.0364 0.38712,-0.0885 0.75975,-0.19345 0.37251,-0.10493 0.85896,-0.24665 1.43929,-0.41483 1.16053,-0.33652 2.66134,-0.77247 4.15077,-1.20396 6.30075,-1.82547 14.93816,-2.71305 18.53446,-2.00241 l 2.7681,0.54313 c 0.23218,0.0416 1.8725,0.90885 2.0149,0.72856 0.20186,-0.26154 -1.16317,-1.6346 -1.39758,-1.87965 l -3.82305,-3.83289 c -2.69475,-2.71853 -6.95499,-6.33461 -11.49804,-9.79172 z" id="path6138" inkscape:connector-curvature="0" sodipodi:nodetypes="sscccscccsccsscscsccsccs"/>
    <path style="color:#000000;fill:#f2c802;fill-opacity:1;fill-rule:evenodd;stroke:none;stroke-width:1;marker:none;visibility:visible;display:inline;overflow:visible;enable-background:accumulate" d="m 456.67503,456.9748 c -1.0252,-0.78061 -1.96204,-1.49233 -2.79488,-2.0898 -0.8329,-0.59748 -1.55311,-1.0774 -2.11697,-1.43076 -0.2818,-0.17666 -0.50837,-0.31333 -0.72422,-0.42346 -0.76329,-0.23016 -1.67299,-0.93245 -2.28309,-1.2857 0.34627,0.76506 0.61142,1.4741 0.49268,2.24333 0.0204,0.39497 0.12311,0.78852 0.26126,1.28677 0.27635,0.99656 0.71248,2.36045 1.12561,3.98864 9.97657,39.31837 4.26891,92.0039 -14.70588,135.10226 -7.2416,16.4477 -12.62337,25.25142 -23.78432,38.98014 -8.22936,10.12286 -10.90323,12.79056 -18.71006,18.48247 -4.05492,2.95654 -13.15097,7.47697 -16.80901,8.42079 -1.52926,0.39464 -3.00809,0.80622 -3.63341,1.06084 -0.2053,0.0837 -0.38413,0.16842 -0.5569,0.28217 -0.17259,0.11391 -0.42762,0.25504 -0.49915,0.73371 -0.036,0.23944 0.0437,0.50771 0.16253,0.668 0.11891,0.16027 0.23879,0.24098 0.34483,0.30007 0.21183,0.11806 0.39773,0.1575 0.61992,0.20726 0.8888,0.19891 2.3977,0.31113 4.93359,0.41759 47.17474,1.98058 91.80064,-21.64536 115.87707,-61.37568 15.38372,-25.38574 19.5666,-48.78754 13.33573,-74.81785 -4.8464,-20.24641 -17.72483,-41.53845 -34.94151,-57.83132 -2.75118,-2.60353 -7.78986,-6.81201 -12.32201,-10.39381 -1.13328,-0.89568 -2.24679,-1.74534 -3.27205,-2.52595 z" id="path6131" inkscape:connector-curvature="0" sodipodi:nodetypes="sscccccssccccscsccssssss"/>
    <path sodipodi:type="arc" style="color:#000000;fill:#ffffff;fill-opacity:1;fill-rule:nonzero;stroke:none;stroke-width:0.7735849;marker:none;visibility:visible;display:inline;overflow:visible;enable-background:accumulate" id="path6145" sodipodi:cx="-1134.5" sodipodi:cy="-46.339996" sodipodi:rx="18.5" sodipodi:ry="10.25" d="m -1116,-46.339996 a 18.5,10.25 0 1 1 -37,0 18.5,10.25 0 1 1 37,0 z" transform="matrix(1.0743477,0.82936217,-0.82936217,1.0743477,1629.6022,1443.2612)"/>
    <path style="color:#000000;fill:#da9c16;fill-opacity:0.3280423;fill-rule:evenodd;stroke:none;stroke-width:1;marker:none;visibility:visible;display:inline;overflow:visible;enable-background:accumulate" d="m 311.89081,428.76845 c -34.00742,23.17624 -56.34106,62.1969 -56.34106,106.45486 0,71.11263 57.64783,128.76046 128.76037,128.76046 31.02897,0 59.47519,-10.97701 81.7067,-29.25764 -20.55043,13.88354 -45.32269,21.98349 -71.98989,21.98349 -71.1126,0 -128.76055,-57.64783 -128.76055,-128.76045 0,-39.89802 18.13447,-75.56268 46.62443,-99.18072 z" id="path6396" inkscape:connector-curvature="0"/>
    <path transform="matrix(0.87082997,0,0,0.87082997,2401.2892,430.30301)" d="m -2418.0152,9.6625631 a 149.90663,149.90663 0 1 1 140.68,255.8862569" sodipodi:ry="149.90663" sodipodi:rx="149.90663" sodipodi:cy="121.23381" sodipodi:cx="-2317.896" id="path6515" style="color:#000000;fill:url(#linearGradient7600);fill-opacity:1;fill-rule:evenodd;stroke:none;stroke-width:1;marker:none;visibility:visible;display:inline;overflow:visible;enable-background:accumulate" sodipodi:type="arc" sodipodi:start="3.9810362" sodipodi:end="7.5799929" sodipodi:open="true"/>
  </g>
  <metadata>
    <rdf:RDF>
      <cc:Work>
        <dc:format>image/svg+xml</dc:format>
        <dc:type rdf:resource="http://purl.org/dc/dcmitype/StillImage"/>
        <cc:license rdf:resource="http://creativecommons.org/licenses/publicdomain/"/>
        <dc:publisher>
          <cc:Agent rdf:about="http://openclipart.org/">
            <dc:title>Open Clip Art Library</dc:title>
          </cc:Agent>
        </dc:publisher>
        <dc:title>Beach Ball</dc:title>
        <dc:date>2011-09-08T13:42:20</dc:date>
        <dc:description>Beach Ball</dc:description>
        <dc:source>http://openclipart.org/detail/159535/beach-ball-by-printerkiller</dc:source>
        <dc:creator>
          <cc:Agent>
            <dc:title>PrinterKiller</dc:title>
          </cc:Agent>
        </dc:creator>
        <dc:subject>
          <rdf:Bag>
            <rdf:li>Beach Ball summer toy summer2010</rdf:li>
            <rdf:li>clip art</rdf:li>
            <rdf:li>clipart</rdf:li>
          </rdf:Bag>
        </dc:subject>
      </cc:Work>
      <cc:License rdf:about="http://creativecommons.org/licenses/publicdomain/">
        <cc:permits rdf:resource="http://creativecommons.org/ns#Reproduction"/>
        <cc:permits rdf:resource="http://creativecommons.org/ns#Distribution"/>
        <cc:permits rdf:resource="http://creativecommons.org/ns#DerivativeWorks"/>
      </cc:License>
    </rdf:RDF>
  </metadata>
</svg>