<?xml version="1.0" encoding="UTF-8" standalone="no"?>
<!-- Created with Inkscape (http://www.inkscape.org/) -->
<svg
   xmlns:dc="http://purl.org/dc/elements/1.1/"
   xmlns:cc="http://creativecommons.org/ns#"
   xmlns:rdf="http://www.w3.org/1999/02/22-rdf-syntax-ns#"
   xmlns:svg="http://www.w3.org/2000/svg"
   xmlns="http://www.w3.org/2000/svg"
   xmlns:xlink="http://www.w3.org/1999/xlink"
   xmlns:sodipodi="http://sodipodi.sourceforge.net/DTD/sodipodi-0.dtd"
   xmlns:inkscape="http://www.inkscape.org/namespaces/inkscape"
   width="248.50639"
   height="452.57474"
   id="svg2"
   sodipodi:version="0.32"
   inkscape:version="0.46"
   version="1.0"
   sodipodi:docname="bratac_tree_04.svg"
   inkscape:output_extension="org.inkscape.output.svg.inkscape"
   inkscape:export-filename="C:\joanna\Gfx\drawings_vector\admin\bratac_trees.png"
   inkscape:export-xdpi="15.479462"
   inkscape:export-ydpi="15.479462">
  <sodipodi:namedview
     id="base"
     pagecolor="#ffffff"
     bordercolor="#666666"
     borderopacity="1.0"
     gridtolerance="10000"
     guidetolerance="10"
     objecttolerance="10"
     inkscape:pageopacity="0.0"
     inkscape:pageshadow="2"
     inkscape:zoom="0.49513127"
     inkscape:cx="735.43461"
     inkscape:cy="415.52553"
     inkscape:document-units="px"
     inkscape:current-layer="capa1"
     showgrid="false"
     inkscape:window-width="1152"
     inkscape:window-height="778"
     inkscape:window-x="44"
     inkscape:window-y="0"
     showguides="true"
     inkscape:guide-bbox="true" />
  <defs
     id="defs4">
    <inkscape:perspective
       id="perspective10"
       inkscape:persp3d-origin="372.04724 : 350.78739 : 1"
       inkscape:vp_z="744.09448 : 526.18109 : 1"
       inkscape:vp_y="0 : 1000 : 0"
       inkscape:vp_x="0 : 526.18109 : 1"
       sodipodi:type="inkscape:persp3d" />
    <inkscape:perspective
       id="perspective8339"
       inkscape:persp3d-origin="372.04724 : 350.78739 : 1"
       inkscape:vp_z="744.09448 : 526.18109 : 1"
       inkscape:vp_y="0 : 1000 : 0"
       inkscape:vp_x="0 : 526.18109 : 1"
       sodipodi:type="inkscape:persp3d" />
    <clipPath
       id="XMLID_35_">
      <use
         xlink:href="#XMLID_5_"
         id="use259"
         x="0"
         y="0"
         width="625.992"
         height="606.15503" />
    </clipPath>
    <defs
       id="defs255">
      <rect
         id="XMLID_5_"
         x="271.81699"
         y="8.0249996"
         width="204.35699"
         height="108.188" />
    </defs>
    <inkscape:perspective
       sodipodi:type="inkscape:persp3d"
       inkscape:vp_x="0 : 526.18109 : 1"
       inkscape:vp_y="0 : 1000 : 0"
       inkscape:vp_z="744.09448 : 526.18109 : 1"
       inkscape:persp3d-origin="372.04724 : 350.78739 : 1"
       id="perspective4387" />
    <inkscape:perspective
       sodipodi:type="inkscape:persp3d"
       inkscape:vp_x="0 : 526.18109 : 1"
       inkscape:vp_y="0 : 1000 : 0"
       inkscape:vp_z="744.09448 : 526.18109 : 1"
       inkscape:persp3d-origin="372.04724 : 350.78739 : 1"
       id="perspective5470" />
    <inkscape:perspective
       id="perspective3090"
       inkscape:persp3d-origin="312.996 : 202.05168 : 1"
       inkscape:vp_z="625.992 : 303.07751 : 1"
       inkscape:vp_y="0 : 1000 : 0"
       inkscape:vp_x="0 : 303.07751 : 1"
       sodipodi:type="inkscape:persp3d" />
    <inkscape:perspective
       id="perspective2446"
       inkscape:persp3d-origin="372.04724 : 350.78739 : 1"
       inkscape:vp_z="744.09448 : 526.18109 : 1"
       inkscape:vp_y="0 : 1000 : 0"
       inkscape:vp_x="0 : 526.18109 : 1"
       sodipodi:type="inkscape:persp3d" />
  </defs>
  <metadata
     id="metadata7">
    <rdf:RDF>
      <cc:Work
         rdf:about="">
        <dc:format>image/svg+xml</dc:format>
        <dc:type
           rdf:resource="http://purl.org/dc/dcmitype/StillImage" />
      </cc:Work>
    </rdf:RDF>
  </metadata>
  <g
     id="capa1"
     inkscape:groupmode="layer"
     inkscape:label="Capa 1"
     transform="translate(-353.88277,-241.92641)">
    <g
       transform="matrix(1.06405,0,0,1.06405,8.71546,49.0509)"
       id="g2800">
      <path
         style="fill:#d38d5f;fill-opacity:1;fill-rule:evenodd;stroke:none;stroke-width:1px;stroke-linecap:butt;stroke-linejoin:miter;stroke-opacity:1"
         d="M 427.77821,436.98275 L 425.37803,488.18646 L 394.97583,459.38437 L 390.97555,468.18501 L 424.17331,510.58277 L 412.57711,606.59501 L 463.78081,606.59767 L 443.77936,434.58258 L 427.77821,436.98275 z"
         id="path2667"
         sodipodi:nodetypes="ccccccccc" />
      <g
         id="g2673"
         transform="matrix(0.912182,-0.409784,0.409784,0.912182,-249.137,364.662)">
        <path
           sodipodi:nodetypes="ccccc"
           id="path2669"
           d="M 613.03022,345.73458 C 612.20224,349.84946 612.66653,358.11614 623.46153,358.78152 C 622.83801,363.08887 629.99375,370.73763 635.65297,368.1171 C 640.72771,366.58841 652.74688,359.35981 647.68179,334.96725 C 628.28705,333.701 614.13919,337.40618 613.03022,345.73458 z"
           style="fill:#abc837;fill-rule:evenodd;stroke:none;stroke-width:1px;stroke-linecap:butt;stroke-linejoin:miter;stroke-opacity:1" />
      </g>
      <g
         id="g2676"
         transform="matrix(0.985131,-0.171803,0.171803,0.985131,-183.216,149.351)">
        <path
           sodipodi:nodetypes="ccccc"
           id="path2678"
           d="M 613.03022,345.73458 C 612.20224,349.84946 612.66653,358.11614 623.46153,358.78152 C 622.83801,363.08887 629.99375,370.73763 635.65297,368.1171 C 640.72771,366.58841 652.74688,359.35981 647.68179,334.96725 C 628.28705,333.701 614.13919,337.40618 613.03022,345.73458 z"
           style="fill:#abc837;fill-rule:evenodd;stroke:none;stroke-width:1px;stroke-linecap:butt;stroke-linejoin:miter;stroke-opacity:1" />
      </g>
      <g
         id="g2680"
         transform="matrix(0.912182,-0.409784,0.409784,0.912182,-261.948,324.988)">
        <path
           sodipodi:nodetypes="ccccc"
           id="path2682"
           d="M 613.03022,345.73458 C 612.20224,349.84946 612.66653,358.11614 623.46153,358.78152 C 622.83801,363.08887 629.99375,370.73763 635.65297,368.1171 C 640.72771,366.58841 652.74688,359.35981 647.68179,334.96725 C 628.28705,333.701 614.13919,337.40618 613.03022,345.73458 z"
           style="fill:#abc837;fill-rule:evenodd;stroke:none;stroke-width:1px;stroke-linecap:butt;stroke-linejoin:miter;stroke-opacity:1" />
      </g>
      <g
         id="g2684"
         transform="matrix(0.305187,-0.952292,0.952292,0.305187,-150.233,792.384)">
        <path
           sodipodi:nodetypes="ccccc"
           id="path2686"
           d="M 613.03022,345.73458 C 612.20224,349.84946 612.66653,358.11614 623.46153,358.78152 C 622.83801,363.08887 629.99375,370.73763 635.65297,368.1171 C 640.72771,366.58841 652.74688,359.35981 647.68179,334.96725 C 628.28705,333.701 614.13919,337.40618 613.03022,345.73458 z"
           style="fill:#abc837;fill-rule:evenodd;stroke:none;stroke-width:1px;stroke-linecap:butt;stroke-linejoin:miter;stroke-opacity:1" />
      </g>
      <g
         id="g2688"
         transform="matrix(0.71932,-0.694679,0.694679,0.71932,-268.963,494.238)">
        <path
           sodipodi:nodetypes="ccccc"
           id="path2690"
           d="M 613.03022,345.73458 C 612.20224,349.84946 612.66653,358.11614 623.46153,358.78152 C 622.83801,363.08887 629.99375,370.73763 635.65297,368.1171 C 640.72771,366.58841 652.74688,359.35981 647.68179,334.96725 C 628.28705,333.701 614.13919,337.40618 613.03022,345.73458 z"
           style="fill:#abc837;fill-rule:evenodd;stroke:none;stroke-width:1px;stroke-linecap:butt;stroke-linejoin:miter;stroke-opacity:1" />
      </g>
      <g
         id="g2692"
         transform="matrix(0.521596,-0.853192,0.853192,0.521596,-227.687,690.281)">
        <path
           sodipodi:nodetypes="ccccc"
           id="path2694"
           d="M 613.03022,345.73458 C 612.20224,349.84946 612.66653,358.11614 623.46153,358.78152 C 622.83801,363.08887 629.99375,370.73763 635.65297,368.1171 C 640.72771,366.58841 652.74688,359.35981 647.68179,334.96725 C 628.28705,333.701 614.13919,337.40618 613.03022,345.73458 z"
           style="fill:#abc837;fill-rule:evenodd;stroke:none;stroke-width:1px;stroke-linecap:butt;stroke-linejoin:miter;stroke-opacity:1" />
      </g>
      <g
         id="g2696"
         transform="matrix(0.912182,-0.409784,0.409784,0.912182,-275.522,284.266)">
        <path
           sodipodi:nodetypes="ccccc"
           id="path2698"
           d="M 613.03022,345.73458 C 612.20224,349.84946 612.66653,358.11614 623.46153,358.78152 C 622.83801,363.08887 629.99375,370.73763 635.65297,368.1171 C 640.72771,366.58841 652.74688,359.35981 647.68179,334.96725 C 628.28705,333.701 614.13919,337.40618 613.03022,345.73458 z"
           style="fill:#abc837;fill-rule:evenodd;stroke:none;stroke-width:1px;stroke-linecap:butt;stroke-linejoin:miter;stroke-opacity:1" />
      </g>
      <g
         id="g2700"
         transform="matrix(0.467268,-0.884116,0.884116,0.467268,-250.849,731.236)">
        <path
           sodipodi:nodetypes="ccccc"
           id="path2702"
           d="M 613.03022,345.73458 C 612.20224,349.84946 612.66653,358.11614 623.46153,358.78152 C 622.83801,363.08887 629.99375,370.73763 635.65297,368.1171 C 640.72771,366.58841 652.74688,359.35981 647.68179,334.96725 C 628.28705,333.701 614.13919,337.40618 613.03022,345.73458 z"
           style="fill:#abc837;fill-rule:evenodd;stroke:none;stroke-width:1px;stroke-linecap:butt;stroke-linejoin:miter;stroke-opacity:1" />
      </g>
      <g
         id="g2704"
         transform="matrix(0.654896,-0.755719,0.755719,0.654896,-261.408,626.77)">
        <path
           sodipodi:nodetypes="ccccc"
           id="path2706"
           d="M 613.03022,345.73458 C 612.20224,349.84946 612.66653,358.11614 623.46153,358.78152 C 622.83801,363.08887 629.99375,370.73763 635.65297,368.1171 C 640.72771,366.58841 652.74688,359.35981 647.68179,334.96725 C 628.28705,333.701 614.13919,337.40618 613.03022,345.73458 z"
           style="fill:#abc837;fill-rule:evenodd;stroke:none;stroke-width:1px;stroke-linecap:butt;stroke-linejoin:miter;stroke-opacity:1" />
      </g>
      <g
         id="g2708"
         transform="matrix(0.450738,-0.892656,0.892656,0.450738,-216.431,776.879)">
        <path
           sodipodi:nodetypes="ccccc"
           id="path2710"
           d="M 613.03022,345.73458 C 612.20224,349.84946 612.66653,358.11614 623.46153,358.78152 C 622.83801,363.08887 629.99375,370.73763 635.65297,368.1171 C 640.72771,366.58841 652.74688,359.35981 647.68179,334.96725 C 628.28705,333.701 614.13919,337.40618 613.03022,345.73458 z"
           style="fill:#abc837;fill-rule:evenodd;stroke:none;stroke-width:1px;stroke-linecap:butt;stroke-linejoin:miter;stroke-opacity:1" />
      </g>
      <g
         id="g2712"
         transform="matrix(0.685867,-0.727727,0.727727,0.685867,-345.901,600.942)">
        <path
           sodipodi:nodetypes="ccccc"
           id="path2714"
           d="M 613.03022,345.73458 C 612.20224,349.84946 612.66653,358.11614 623.46153,358.78152 C 622.83801,363.08887 629.99375,370.73763 635.65297,368.1171 C 640.72771,366.58841 652.74688,359.35981 647.68179,334.96725 C 628.28705,333.701 614.13919,337.40618 613.03022,345.73458 z"
           style="fill:#abc837;fill-rule:evenodd;stroke:none;stroke-width:1px;stroke-linecap:butt;stroke-linejoin:miter;stroke-opacity:1" />
      </g>
      <g
         id="g2716"
         transform="matrix(0.53257,-0.846386,0.846386,0.53257,-258.521,760.541)">
        <path
           sodipodi:nodetypes="ccccc"
           id="path2718"
           d="M 613.03022,345.73458 C 612.20224,349.84946 612.66653,358.11614 623.46153,358.78152 C 622.83801,363.08887 629.99375,370.73763 635.65297,368.1171 C 640.72771,366.58841 652.74688,359.35981 647.68179,334.96725 C 628.28705,333.701 614.13919,337.40618 613.03022,345.73458 z"
           style="fill:#abc837;fill-rule:evenodd;stroke:none;stroke-width:1px;stroke-linecap:butt;stroke-linejoin:miter;stroke-opacity:1" />
      </g>
      <g
         id="g2720"
         transform="matrix(0.303847,-0.952721,0.952721,0.303847,-114.695,917.951)">
        <path
           sodipodi:nodetypes="ccccc"
           id="path2722"
           d="M 613.03022,345.73458 C 612.20224,349.84946 612.66653,358.11614 623.46153,358.78152 C 622.83801,363.08887 629.99375,370.73763 635.65297,368.1171 C 640.72771,366.58841 652.74688,359.35981 647.68179,334.96725 C 628.28705,333.701 614.13919,337.40618 613.03022,345.73458 z"
           style="fill:#abc837;fill-rule:evenodd;stroke:none;stroke-width:1px;stroke-linecap:butt;stroke-linejoin:miter;stroke-opacity:1" />
      </g>
      <g
         id="g2724"
         transform="matrix(0.994444,-0.105267,0.105267,0.994444,-159.561,26.4404)">
        <path
           sodipodi:nodetypes="ccccc"
           id="path2726"
           d="M 613.03022,345.73458 C 612.20224,349.84946 612.66653,358.11614 623.46153,358.78152 C 622.83801,363.08887 629.99375,370.73763 635.65297,368.1171 C 640.72771,366.58841 652.74688,359.35981 647.68179,334.96725 C 628.28705,333.701 614.13919,337.40618 613.03022,345.73458 z"
           style="fill:#abc837;fill-rule:evenodd;stroke:none;stroke-width:1px;stroke-linecap:butt;stroke-linejoin:miter;stroke-opacity:1" />
      </g>
      <g
         id="g2728"
         transform="matrix(0.878915,-0.476979,0.476979,0.878915,-272.971,265.463)">
        <path
           sodipodi:nodetypes="ccccc"
           id="path2730"
           d="M 613.03022,345.73458 C 612.20224,349.84946 612.66653,358.11614 623.46153,358.78152 C 622.83801,363.08887 629.99375,370.73763 635.65297,368.1171 C 640.72771,366.58841 652.74688,359.35981 647.68179,334.96725 C 628.28705,333.701 614.13919,337.40618 613.03022,345.73458 z"
           style="fill:#abc837;fill-rule:evenodd;stroke:none;stroke-width:1px;stroke-linecap:butt;stroke-linejoin:miter;stroke-opacity:1" />
      </g>
      <g
         id="g2732"
         transform="matrix(0.912182,-0.409784,0.409784,0.912182,-253.31,249.715)">
        <path
           sodipodi:nodetypes="ccccc"
           id="path2734"
           d="M 613.03022,345.73458 C 612.20224,349.84946 612.66653,358.11614 623.46153,358.78152 C 622.83801,363.08887 629.99375,370.73763 635.65297,368.1171 C 640.72771,366.58841 652.74688,359.35981 647.68179,334.96725 C 628.28705,333.701 614.13919,337.40618 613.03022,345.73458 z"
           style="fill:#abc837;fill-rule:evenodd;stroke:none;stroke-width:1px;stroke-linecap:butt;stroke-linejoin:miter;stroke-opacity:1" />
      </g>
      <g
         id="g2736"
         transform="matrix(0.912182,-0.409784,0.409784,0.912182,-234.801,287.968)">
        <path
           sodipodi:nodetypes="ccccc"
           id="path2738"
           d="M 613.03022,345.73458 C 612.20224,349.84946 612.66653,358.11614 623.46153,358.78152 C 622.83801,363.08887 629.99375,370.73763 635.65297,368.1171 C 640.72771,366.58841 652.74688,359.35981 647.68179,334.96725 C 628.28705,333.701 614.13919,337.40618 613.03022,345.73458 z"
           style="fill:#abc837;fill-rule:evenodd;stroke:none;stroke-width:1px;stroke-linecap:butt;stroke-linejoin:miter;stroke-opacity:1" />
      </g>
      <g
         id="g2740"
         transform="matrix(0.641918,-0.766773,0.766773,0.641918,-264.933,529.675)">
        <path
           sodipodi:nodetypes="ccccc"
           id="path2742"
           d="M 613.03022,345.73458 C 612.20224,349.84946 612.66653,358.11614 623.46153,358.78152 C 622.83801,363.08887 629.99375,370.73763 635.65297,368.1171 C 640.72771,366.58841 652.74688,359.35981 647.68179,334.96725 C 628.28705,333.701 614.13919,337.40618 613.03022,345.73458 z"
           style="fill:#abc837;fill-rule:evenodd;stroke:none;stroke-width:1px;stroke-linecap:butt;stroke-linejoin:miter;stroke-opacity:1" />
      </g>
      <g
         id="g2744"
         transform="matrix(0.972009,-0.234942,0.234942,0.972009,-204.31,80.254)">
        <path
           sodipodi:nodetypes="ccccc"
           id="path2746"
           d="M 613.03022,345.73458 C 612.20224,349.84946 612.66653,358.11614 623.46153,358.78152 C 622.83801,363.08887 629.99375,370.73763 635.65297,368.1171 C 640.72771,366.58841 652.74688,359.35981 647.68179,334.96725 C 628.28705,333.701 614.13919,337.40618 613.03022,345.73458 z"
           style="fill:#abc837;fill-rule:evenodd;stroke:none;stroke-width:1px;stroke-linecap:butt;stroke-linejoin:miter;stroke-opacity:1" />
      </g>
      <g
         id="g2748"
         transform="matrix(0.992018,-0.126096,0.126096,0.992018,-129.7,116.863)">
        <path
           sodipodi:nodetypes="ccccc"
           id="path2750"
           d="M 613.03022,345.73458 C 612.20224,349.84946 612.66653,358.11614 623.46153,358.78152 C 622.83801,363.08887 629.99375,370.73763 635.65297,368.1171 C 640.72771,366.58841 652.74688,359.35981 647.68179,334.96725 C 628.28705,333.701 614.13919,337.40618 613.03022,345.73458 z"
           style="fill:#abc837;fill-rule:evenodd;stroke:none;stroke-width:1px;stroke-linecap:butt;stroke-linejoin:miter;stroke-opacity:1" />
      </g>
      <g
         id="g2752"
         transform="matrix(0.9996,2.82819e-2,-2.82819e-2,0.9996,-94.3275,-21.4937)">
        <path
           sodipodi:nodetypes="ccccc"
           id="path2754"
           d="M 613.03022,345.73458 C 612.20224,349.84946 612.66653,358.11614 623.46153,358.78152 C 622.83801,363.08887 629.99375,370.73763 635.65297,368.1171 C 640.72771,366.58841 652.74688,359.35981 647.68179,334.96725 C 628.28705,333.701 614.13919,337.40618 613.03022,345.73458 z"
           style="fill:#abc837;fill-rule:evenodd;stroke:none;stroke-width:1px;stroke-linecap:butt;stroke-linejoin:miter;stroke-opacity:1" />
      </g>
      <g
         id="g2760"
         transform="matrix(0.356093,-0.93445,0.93445,0.356093,-162.588,925.054)">
        <path
           sodipodi:nodetypes="ccccc"
           id="path2762"
           d="M 613.03022,345.73458 C 612.20224,349.84946 612.66653,358.11614 623.46153,358.78152 C 622.83801,363.08887 629.99375,370.73763 635.65297,368.1171 C 640.72771,366.58841 652.74688,359.35981 647.68179,334.96725 C 628.28705,333.701 614.13919,337.40618 613.03022,345.73458 z"
           style="fill:#abc837;fill-rule:evenodd;stroke:none;stroke-width:1px;stroke-linecap:butt;stroke-linejoin:miter;stroke-opacity:1" />
      </g>
      <g
         id="g2764"
         transform="matrix(0.912182,-0.409784,0.409784,0.912182,-255.778,141.124)">
        <path
           sodipodi:nodetypes="ccccc"
           id="path2766"
           d="M 613.03022,345.73458 C 612.20224,349.84946 612.66653,358.11614 623.46153,358.78152 C 622.83801,363.08887 629.99375,370.73763 635.65297,368.1171 C 640.72771,366.58841 652.74688,359.35981 647.68179,334.96725 C 628.28705,333.701 614.13919,337.40618 613.03022,345.73458 z"
           style="fill:#abc837;fill-rule:evenodd;stroke:none;stroke-width:1px;stroke-linecap:butt;stroke-linejoin:miter;stroke-opacity:1" />
      </g>
      <g
         id="g2768"
         transform="matrix(0.912182,-0.409784,0.409784,0.912182,-243.438,176.909)">
        <path
           sodipodi:nodetypes="ccccc"
           id="path2770"
           d="M 613.03022,345.73458 C 612.20224,349.84946 612.66653,358.11614 623.46153,358.78152 C 622.83801,363.08887 629.99375,370.73763 635.65297,368.1171 C 640.72771,366.58841 652.74688,359.35981 647.68179,334.96725 C 628.28705,333.701 614.13919,337.40618 613.03022,345.73458 z"
           style="fill:#abc837;fill-rule:evenodd;stroke:none;stroke-width:1px;stroke-linecap:butt;stroke-linejoin:miter;stroke-opacity:1" />
      </g>
      <g
         id="g2772"
         transform="matrix(0.701255,-0.712911,0.712911,0.701255,-257.734,437.998)">
        <path
           sodipodi:nodetypes="ccccc"
           id="path2774"
           d="M 613.03022,345.73458 C 612.20224,349.84946 612.66653,358.11614 623.46153,358.78152 C 622.83801,363.08887 629.99375,370.73763 635.65297,368.1171 C 640.72771,366.58841 652.74688,359.35981 647.68179,334.96725 C 628.28705,333.701 614.13919,337.40618 613.03022,345.73458 z"
           style="fill:#abc837;fill-rule:evenodd;stroke:none;stroke-width:1px;stroke-linecap:butt;stroke-linejoin:miter;stroke-opacity:1" />
      </g>
      <g
         id="g2776"
         transform="matrix(0.981155,-0.193224,0.193224,0.981155,-172.12,198.81)">
        <path
           sodipodi:nodetypes="ccccc"
           id="path2778"
           d="M 613.03022,345.73458 C 612.20224,349.84946 612.66653,358.11614 623.46153,358.78152 C 622.83801,363.08887 629.99375,370.73763 635.65297,368.1171 C 640.72771,366.58841 652.74688,359.35981 647.68179,334.96725 C 628.28705,333.701 614.13919,337.40618 613.03022,345.73458 z"
           style="fill:#abc837;fill-rule:evenodd;stroke:none;stroke-width:1px;stroke-linecap:butt;stroke-linejoin:miter;stroke-opacity:1" />
      </g>
    </g>
  </g>
</svg>
