<?xml version="1.0" encoding="UTF-8" standalone="no"?>
<!-- Created with Inkscape (http://www.inkscape.org/) -->
<svg
   xmlns:dc="http://purl.org/dc/elements/1.1/"
   xmlns:cc="http://web.resource.org/cc/"
   xmlns:rdf="http://www.w3.org/1999/02/22-rdf-syntax-ns#"
   xmlns:svg="http://www.w3.org/2000/svg"
   xmlns="http://www.w3.org/2000/svg"
   xmlns:sodipodi="http://sodipodi.sourceforge.net/DTD/sodipodi-0.dtd"
   xmlns:inkscape="http://www.inkscape.org/namespaces/inkscape"
   version="1.0"
   width="400"
   height="208"
   viewBox="0 0 257.672 133.756"
   id="Layer_1"
   xml:space="preserve"
   sodipodi:version="0.32"
   inkscape:version="0.45.1"
   sodipodi:docname="Cooking Crane 02.svg"
   inkscape:output_extension="org.inkscape.output.svg.inkscape"
   sodipodi:docbase="F:\SVG Uploaded to CC site\Misc\Fires and Cranes"><sodipodi:namedview
   inkscape:window-height="573"
   inkscape:window-width="744"
   inkscape:pageshadow="2"
   inkscape:pageopacity="0.0"
   guidetolerance="10.0"
   gridtolerance="10.0"
   objecttolerance="10.0"
   borderopacity="1.0"
   bordercolor="#666666"
   pagecolor="#ffffff"
   id="base"
   width="400px"
   height="208px"
   inkscape:zoom="1.2787575"
   inkscape:cx="128.836"
   inkscape:cy="66.877998"
   inkscape:window-x="1390"
   inkscape:window-y="225"
   inkscape:current-layer="Layer_1" /><defs
   id="defs176" />

 <metadata
   id="metadata4">
    <rdf:RDF>
      <cc:Work
   rdf:about="">
        <dc:title>Camp Cooking Crane</dc:title>
        <dc:description>Camp Cooking Crane</dc:description>
        <dc:subject>
          <rdf:Bag>
            <rdf:li>camp</rdf:li>
            <rdf:li>cooking</rdf:li>
            <rdf:li>fire</rdf:li>
          </rdf:Bag>
        </dc:subject>
        <dc:publisher>
          <cc:Agent
   rdf:about="http://www.openclipart.org/">
            <dc:title>Open Clip Art Project</dc:title>
          </cc:Agent>
        </dc:publisher>
        <dc:creator>
          <cc:Agent
   rdf:about="http://web.resource.org/cc/PublicDomain">
            <dc:title>Gerald G.</dc:title>
          </cc:Agent>
        </dc:creator>
        <dc:rights>
          <cc:Agent
   rdf:about="http://web.resource.org/cc/PublicDomain">
            <dc:title>Public Domain</dc:title>
          </cc:Agent>
        </dc:rights>
        <dc:date>2005/05/13</dc:date>
        <dc:format>image/svg+xml</dc:format>
        <dc:type
   rdf:resource="http://purl.org/dc/dcmitype/StillImage" />
        <cc:license
   rdf:resource="http://web.resource.org/cc/PublicDomain" />
        <dc:language>en</dc:language>
      </cc:Work>
      <cc:License
   rdf:about="http://web.resource.org/cc/PublicDomain">
        <cc:permits
   rdf:resource="http://web.resource.org/cc/Reproduction" />
        <cc:permits
   rdf:resource="http://web.resource.org/cc/Distribution" />
        <cc:permits
   rdf:resource="http://web.resource.org/cc/DerivativeWorks" />
      </cc:License>
    </rdf:RDF>
  </metadata>

<g
   id="g5">
	<path
   d="M 35.928,111.587 C 35.82,112.379 35.748,116.123 36,117.131 C 36.036,118.067 36.684,117.959 36.828,117.203 C 36.972,116.303 36.972,113.026 36.828,112.091 C 36.612,111.083 36.036,110.723 35.928,111.587 L 35.928,111.587 z "
   style="fill-rule:evenodd;stroke:#000000;stroke-width:0.036;stroke-miterlimit:10"
   id="path7" />
	<path
   d="M 35.892,119.579 C 35.784,120.515 35.748,124.043 35.928,125.159 C 36.072,125.95 36.54,126.095 36.792,125.194 C 36.864,124.186 36.9,121.054 36.756,120.083 C 36.504,119.074 36.036,118.715 35.892,119.579 L 35.892,119.579 z "
   style="fill-rule:evenodd;stroke:#000000;stroke-width:0.036;stroke-miterlimit:10"
   id="path9" />
	<path
   d="M 40.932,111.083 C 40.536,111.911 40.464,115.547 40.428,116.591 C 40.464,117.49 40.968,117.599 41.256,116.771 C 41.58,115.799 41.616,112.667 41.76,111.695 C 41.616,110.65 41.148,110.255 40.932,111.083 L 40.932,111.083 z "
   style="fill-rule:evenodd;stroke:#000000;stroke-width:0.036;stroke-miterlimit:10"
   id="path11" />
	<path
   d="M 40.428,119.398 C 40.032,120.226 39.96,123.862 39.924,124.906 C 39.96,125.806 40.464,125.915 40.752,125.087 C 41.076,124.114 41.112,120.983 41.256,120.011 C 41.112,118.967 40.644,118.57 40.428,119.398 L 40.428,119.398 z "
   style="fill-rule:evenodd;stroke:#000000;stroke-width:0.036;stroke-miterlimit:10"
   id="path13" />
	<path
   d="M 40.32,127.679 C 39.852,128.435 38.988,131.855 38.844,132.935 C 38.7,133.907 39.24,133.943 39.636,133.331 C 39.924,132.503 40.896,129.406 41.004,128.507 C 41.04,127.463 40.68,126.959 40.32,127.679 L 40.32,127.679 z "
   style="fill-rule:evenodd;stroke:#000000;stroke-width:0.036;stroke-miterlimit:10"
   id="path15" />
	<path
   d="M 36.144,127.066 C 36.288,128.003 37.404,131.243 37.98,132.214 C 38.448,132.934 38.808,132.718 38.772,131.854 C 38.52,130.846 37.548,127.966 37.116,127.102 C 36.612,126.274 35.964,126.131 36.144,127.066 L 36.144,127.066 z "
   style="fill-rule:evenodd;stroke:#000000;stroke-width:0.036;stroke-miterlimit:10"
   id="path17" />
	<path
   d="M 23.508,46.75 C 24.228,45.778 25.02,44.914 25.884,44.014 C 26.748,43.078 27.576,42.25 28.512,41.386 L 28.512,41.386 L 34.632,41.206 L 34.632,41.206 C 35.208,40.63 35.604,40.378 36.108,40.306 C 36.468,40.234 36.936,40.486 37.224,40.918 L 37.224,40.918 L 40.356,40.666 L 40.356,40.666 C 40.788,40.018 41.184,39.766 41.544,39.766 C 41.832,39.694 42.12,40.018 42.264,40.594 L 42.264,40.594 L 44.676,40.018 L 44.676,40.018 C 45.324,39.442 45.864,39.19 46.152,39.118 C 46.44,39.046 46.584,39.262 46.584,39.766 L 46.584,39.766 L 48.924,39.838 L 48.924,39.838 C 49.176,39.37 49.392,39.19 49.716,39.154 C 49.968,39.118 50.292,39.226 50.688,39.622 L 50.688,39.622 L 52.74,39.55 L 52.74,39.55 C 51.876,38.866 51.156,37.894 50.724,36.778 C 50.148,35.59 49.356,33.178 49.752,32.458 C 50.112,31.63 52.308,31.486 53.136,32.026 C 54,32.458 54.36,33.502 54.612,35.158 L 54.612,35.158 C 56.34,33.61 57.672,32.674 58.752,32.494 C 59.868,32.314 61.164,32.746 60.84,33.934 C 60.264,34.978 58.824,36.886 55.98,39.262 L 55.98,39.262 C 61.164,38.902 67.32,38.29 74.88,37.426 C 82.368,36.454 92.268,34.87 100.836,34.042 C 109.296,33.178 117.324,32.71 125.352,32.494 L 125.352,32.494 L 120.456,21.73 L 120.456,21.73 C 119.88,19.714 119.844,17.482 119.952,14.746 C 120.024,11.974 120.636,8.986 121.392,5.494 L 121.392,5.494 C 121.356,7.114 121.824,8.878 122.796,10.786 C 123.732,12.658 125.172,14.674 127.116,16.834 L 127.116,16.834 L 132.12,31.198 L 136.044,30.874 L 134.964,8.014 L 134.964,8.014 C 135.432,6.034 136.115,4.45 136.872,3.118 C 137.699,1.786 138.888,-0.086 139.607,0.022 C 140.003,0.058 139.895,1.93 140.255,3.154 C 140.579,4.234 141.083,5.386 141.767,6.61 L 141.767,6.61 C 141.659,11.254 141.623,15.502 141.659,19.498 C 141.624,23.458 141.659,27.022 141.767,30.334 L 141.767,30.334 L 143.819,30.262 L 153.611,14.206 L 153.611,14.206 C 154.368,13.774 155.267,13.306 156.311,12.802 C 157.355,12.226 159.12,9.814 159.659,11.002 C 160.092,12.118 159.731,15.07 158.723,19.714 L 158.723,19.714 L 153.107,30.442 L 153.107,30.442 C 163.187,29.974 172.943,29.614 183.059,29.074 C 193.139,28.426 205.343,27.67 213.011,27.346 C 220.571,26.986 225.611,27.022 228.275,27.31 L 228.275,27.31 C 231.12,28.498 232.847,29.506 233.46,30.334 C 234,31.054 232.92,31.018 231.876,32.026 C 230.76,32.962 229.031,34.366 226.836,36.238 L 226.836,36.238 C 217.872,36.382 207.107,36.706 193.716,37.21 C 180.323,37.642 165.024,38.398 147.239,39.19 L 147.239,39.19 L 141.3,48.73 L 141.3,48.73 C 141.804,49.162 141.912,49.666 141.912,50.242 C 141.767,50.746 141.516,51.358 140.868,51.934 L 140.868,51.934 L 141.912,54.418 L 141.912,54.418 C 143.027,54.778 143.64,55.066 143.891,55.678 C 144.036,56.11 143.783,56.866 143.135,57.55 L 143.135,57.55 C 145.583,64.642 148.391,72.058 151.559,80.482 C 154.655,88.871 158.111,97.583 161.927,107.302 L 161.927,107.302 C 175.859,107.158 188.711,106.942 200.915,106.942 C 213.119,106.871 232.919,106.69 234.467,106.942 C 235.727,107.05 221.507,107.627 209.158,107.986 C 196.631,108.238 174.85,108.526 160.343,108.85 C 145.799,109.102 134.135,109.606 122.435,109.678 C 110.663,109.642 100.763,109.03 90.215,108.958 C 79.451,108.742 68.759,109.102 59.111,109.21 C 49.535,109.317 42.803,109.462 33.083,109.786 C 23.111,110.038 3.635,110.974 0.503,110.937 C -2.485,110.793 9.035,109.786 15.047,109.425 C 20.987,109.065 27.791,108.633 35.891,108.525 L 35.891,108.525 C 35.855,106.797 35.891,105.25 35.999,104.025 C 36.107,102.622 36.575,101.326 36.575,100.965 C 36.431,100.641 35.999,101.001 35.279,102.189 L 35.279,102.189 C 34.919,102.91 34.667,103.414 34.379,103.557 C 34.127,103.665 33.839,103.557 33.659,103.089 L 33.659,103.089 L 31.427,105.825 L 31.427,105.825 C 30.131,105.932 29.267,105.753 28.691,105.285 C 28.115,104.745 27.899,103.917 28.043,102.801 L 28.043,102.801 C 29.087,101.072 29.951,99.597 30.635,98.517 C 31.211,97.365 31.643,96.465 31.787,95.961 L 31.787,95.961 C 31.499,95.565 31.391,94.988 31.463,94.629 C 31.535,94.233 31.787,93.657 32.219,93.297 L 32.219,93.297 L 30.959,49.557 L 28.367,49.485 L 28.367,49.485 C 26.748,48.587 25.128,47.687 23.508,46.75 L 23.508,46.75 z M 32.472,49.667 L 33.876,93.551 L 33.876,93.551 C 34.524,92.759 35.172,91.571 35.532,89.987 C 35.964,88.332 36.108,86.315 36.252,83.796 L 36.252,83.796 C 37.404,83.111 38.772,82.788 40.068,82.968 C 41.328,83.075 42.804,83.688 44.208,84.66 L 44.208,84.66 C 43.74,87.071 43.308,90.311 42.912,94.235 C 42.516,98.195 42.084,102.695 41.76,108.168 L 41.76,108.168 C 50.22,107.844 58.752,107.592 67.5,107.412 C 76.248,107.16 85.068,107.124 94.104,107.016 L 94.104,107.016 C 99.432,98.052 104.112,90.528 108.576,83.76 C 112.896,76.956 116.748,71.736 120.276,66.984 C 123.732,62.16 126.864,58.308 129.527,55.14 L 129.527,55.14 C 129.131,54.132 128.88,53.448 129.168,52.8 C 129.42,52.152 129.815,51.684 130.752,51.396 L 130.752,51.396 C 130.319,50.604 130.212,49.992 130.284,49.416 C 130.355,48.768 130.752,48.3 131.328,47.868 L 131.328,47.868 L 128.628,40.956 L 128.628,40.956 C 122.472,41.136 115.668,41.604 107.82,42.504 C 99.792,43.404 89.568,45.204 81.864,46.104 C 74.124,46.752 67.356,46.572 62.388,46.932 C 57.492,47.256 54.144,47.76 52.488,48.3 L 52.488,48.3 C 51.804,48.912 51.408,49.308 51.156,49.344 C 50.904,49.38 50.796,49.056 50.976,48.516 L 50.976,48.516 L 48.708,49.092 L 48.708,49.092 C 48.168,49.452 47.664,49.632 47.484,49.632 C 47.16,49.596 47.16,49.38 47.196,48.984 L 47.196,48.984 L 44.208,49.092 L 44.208,49.092 C 43.884,49.704 43.524,50.1 43.272,50.136 C 43.02,50.172 42.732,49.956 42.552,49.488 L 42.552,49.488 L 39.816,49.236 L 39.816,49.236 C 39.816,48.948 39.672,48.912 39.42,49.092 C 39.132,49.272 38.628,50.28 38.232,50.28 C 37.836,50.316 37.764,49.128 37.764,49.128 L 37.764,49.128 C 36,49.307 34.236,49.487 32.472,49.667 L 32.472,49.667 z M 102.42,106.871 C 107.712,98.879 112.284,92.255 116.28,86.171 C 120.132,80.159 123.228,75.371 126.144,71.123 C 129.06,66.803 131.615,63.203 133.811,60.323 L 133.811,60.323 C 133.379,67.775 133.055,75.227 132.695,83.255 C 132.336,91.211 131.939,99.311 131.651,107.843 L 131.651,107.843 C 125.892,107.915 121.212,107.915 117.468,107.843 C 113.724,107.735 111.816,107.411 109.404,107.303 C 106.884,107.123 104.508,106.979 102.42,106.871 L 102.42,106.871 z M 140.111,107.555 C 139.752,103.955 139.571,99.059 139.427,92.723 C 139.247,86.244 139.211,78.827 139.319,69.647 L 139.319,69.647 C 142.235,75.983 144.575,81.563 146.483,86.963 C 148.283,92.291 149.58,97.835 150.659,101.362 C 151.739,104.782 152.531,106.619 153.036,107.266 L 153.036,107.266 C 148.607,107.266 145.332,107.23 143.208,107.302 C 140.976,107.375 140.04,107.411 140.111,107.555 L 140.111,107.555 z M 52.812,37.75 C 52.38,37.606 51.48,36.202 51.228,35.482 C 50.832,34.618 50.58,33.466 50.868,33.142 C 51.156,32.71 52.308,32.926 52.92,33.394 C 53.46,33.826 53.856,34.87 53.964,35.698 C 53.928,36.455 53.172,37.643 52.812,37.75 L 52.812,37.75 z M 54.432,37.354 C 54.576,36.778 56.232,35.266 57.06,34.762 C 57.888,34.006 58.968,33.646 59.328,33.682 C 59.436,33.754 59.04,34.258 58.428,35.05 C 57.744,35.734 56.448,37.498 55.8,37.966 C 55.044,38.291 54.216,37.859 54.432,37.354 L 54.432,37.354 z "
   style="fill-rule:evenodd;stroke:#000000;stroke-width:0.036;stroke-miterlimit:10"
   id="path19" />
	<path
   d="M 25.38,46.067 C 26.136,45.347 26.892,44.843 27.504,44.159 C 28.08,43.439 28.656,42.935 29.088,42.251 L 29.088,42.251 L 32.76,42.467 L 32.76,42.467 C 31.896,42.935 31.284,43.727 31.068,44.699 C 30.78,45.743 30.78,46.787 31.068,48.371 L 31.068,48.371 L 29.16,48.263 L 29.16,48.263 C 28.332,47.651 27.684,47.183 27.072,46.859 C 26.424,46.535 25.812,46.139 25.38,46.067 L 25.38,46.067 z "
   style="fill:#a16121;fill-rule:evenodd;stroke:#000000;stroke-width:0.036;stroke-miterlimit:10"
   id="path21" />
	<path
   d="M 36.576,42.179 C 35.892,42.143 35.172,42.539 34.56,43.223 C 33.84,43.871 33.012,45.419 32.76,46.319 C 32.472,47.183 32.544,47.795 32.976,48.299 L 32.976,48.299 L 37.728,48.155 L 37.728,48.155 C 37.548,46.679 37.692,45.491 38.016,44.447 C 38.304,43.403 38.916,42.503 39.708,41.891 L 39.708,41.891 C 38.664,41.963 37.62,42.071 36.576,42.179 L 36.576,42.179 z "
   style="fill:#a16121;fill-rule:evenodd;stroke:#000000;stroke-width:0.036;stroke-miterlimit:10"
   id="path23" />
	<path
   d="M 41.868,41.495 C 41.004,42.215 40.392,43.007 40.032,43.727 C 39.636,44.375 39.384,44.951 39.42,45.743 C 39.312,46.499 39.384,47.183 39.636,48.083 L 39.636,48.083 L 42.516,48.155 L 42.516,48.155 C 41.796,47.075 41.58,45.959 41.868,44.807 C 42.084,43.547 42.948,42.395 44.172,41.063 L 44.172,41.063 C 43.416,41.207 42.66,41.351 41.868,41.495 L 41.868,41.495 z "
   style="fill:#a16121;fill-rule:evenodd;stroke:#000000;stroke-width:0.036;stroke-miterlimit:10"
   id="path25" />
	<path
   d="M 46.224,40.811 C 45.432,41.387 44.82,42.179 44.388,42.899 C 43.956,43.619 43.704,44.411 43.632,45.275 C 43.56,46.067 43.632,46.787 43.992,47.579 L 43.992,47.579 L 47.412,47.291 L 47.412,47.291 C 46.8,46.607 46.584,45.635 46.764,44.663 C 46.872,43.619 47.376,42.431 48.276,41.099 L 48.276,41.099 C 47.592,41.027 46.908,40.919 46.224,40.811 L 46.224,40.811 z "
   style="fill:#a16121;fill-rule:evenodd;stroke:#000000;stroke-width:0.036;stroke-miterlimit:10"
   id="path27" />
	<path
   d="M 50.436,40.667 C 49.788,41.279 49.176,41.927 48.888,42.755 C 48.456,43.511 48.204,44.627 48.276,45.419 C 48.276,46.067 48.528,46.715 49.032,47.075 L 49.032,47.075 L 51.336,47.003 L 51.336,47.003 C 50.544,46.247 50.112,45.491 50.436,44.339 C 50.58,43.187 51.48,41.927 52.74,40.415 L 52.74,40.415 C 51.984,40.487 51.228,40.559 50.436,40.667 L 50.436,40.667 z "
   style="fill:#a16121;fill-rule:evenodd;stroke:#000000;stroke-width:0.036;stroke-miterlimit:10"
   id="path29" />
	<path
   d="M 54.396,40.883 C 53.46,41.675 52.812,42.431 52.452,43.295 C 52.092,44.159 51.984,45.131 52.128,45.815 C 52.128,46.391 52.272,46.607 52.56,46.607 L 52.56,46.607 C 57.564,46.283 62.1,46.067 66.168,45.815 C 70.128,45.599 72.144,45.491 76.788,45.095 C 81.54,44.519 88.164,43.331 94.032,42.647 C 99.684,41.891 105.3,41.207 111.024,40.739 C 116.784,40.199 122.364,39.875 128.16,39.623 L 128.16,39.623 L 125.352,33.395 L 125.352,33.395 C 112.932,34.403 102.78,35.267 94.5,36.131 C 86.184,36.923 81.468,37.823 75.888,38.435 C 70.2,39.083 64.836,39.263 61.2,39.803 C 57.6,40.199 55.332,40.559 54.396,40.883 L 54.396,40.883 z "
   style="fill:#a16121;fill-rule:evenodd;stroke:#000000;stroke-width:0.036;stroke-miterlimit:10"
   id="path31" />
	<path
   d="M 96.012,106.942 L 101.052,106.583 L 101.052,106.583 C 105.444,100.139 109.332,94.45 112.86,89.123 C 116.316,83.759 118.404,79.942 122.04,74.759 C 125.532,69.467 129.563,63.815 133.991,57.659 L 133.991,57.659 C 133.487,57.479 132.803,57.407 132.336,57.047 C 131.688,56.687 131.256,56.255 130.644,55.751 L 130.644,55.751 C 126.757,60.647 123.157,65.219 119.701,70.007 C 116.173,74.614 113.293,78.683 109.945,83.723 C 106.525,88.691 102.241,95.855 99.865,99.779 C 97.524,103.667 96.192,106.007 96.012,106.942 L 96.012,106.942 z "
   style="fill:#a16121;fill-rule:evenodd;stroke:#000000;stroke-width:0.036;stroke-miterlimit:10"
   id="path33" />
	<path
   d="M 132.336,53.015 L 131.688,54.383 L 131.688,54.383 C 131.508,54.131 131.508,54.131 131.688,54.383 C 131.833,54.563 132.121,55.319 132.696,55.679 C 133.2,55.967 133.884,56.003 134.749,55.931 L 134.749,55.931 L 133.561,53.159 L 133.561,53.159 C 133.164,53.123 132.768,53.087 132.336,53.015 L 132.336,53.015 z "
   style="fill:#a16121;fill-rule:evenodd;stroke:#000000;stroke-width:0.036;stroke-miterlimit:10"
   id="path35" />
	<path
   d="M 135.071,53.267 C 136.08,53.051 136.8,52.907 137.628,52.835 C 138.42,52.691 138.924,52.619 139.536,52.619 L 139.536,52.619 L 140.868,55.571 L 140.868,55.571 C 139.752,55.787 138.851,55.931 138.023,56.003 C 137.195,56.039 136.511,56.003 135.971,55.895 L 135.971,55.895 C 135.684,55.031 135.396,54.167 135.071,53.267 L 135.071,53.267 z "
   style="fill:#a16121;fill-rule:evenodd;stroke:#000000;stroke-width:0.036;stroke-miterlimit:10"
   id="path37" />
	<path
   d="M 136.584,58.055 C 137.34,58.127 138.023,58.199 138.924,58.127 C 139.752,58.055 140.652,57.911 141.624,57.695 L 141.624,57.695 C 144.288,64.643 146.556,70.871 148.716,76.523 C 150.768,82.103 152.243,86.171 154.26,91.355 C 156.239,96.503 158.292,101.687 160.56,107.195 L 160.56,107.195 L 154.548,107.051 L 154.548,107.051 C 152.496,101.255 150.624,96.035 148.788,90.707 C 146.88,85.522 145.439,80.986 143.496,75.694 C 141.443,70.114 139.14,64.463 136.584,58.055 L 136.584,58.055 z "
   style="fill:#a16121;fill-rule:evenodd;stroke:#000000;stroke-width:0.036;stroke-miterlimit:10"
   id="path39" />
	<path
   d="M 135.144,59.099 C 135.36,60.035 135.756,61.007 136.332,62.411 C 136.907,63.779 137.556,65.183 138.42,67.019 L 138.42,67.019 C 137.916,72.599 137.664,78.683 137.808,85.415 C 137.844,92.146 138.24,99.383 138.996,107.267 L 138.996,107.267 L 133.128,107.303 L 133.128,107.303 C 133.164,97.979 133.416,89.627 133.596,81.707 C 133.776,73.679 134.028,66.767 134.352,60.143 L 134.352,60.143 C 134.604,59.819 134.855,59.458 135.144,59.099 L 135.144,59.099 z "
   style="fill:#a16121;fill-rule:evenodd;stroke:#000000;stroke-width:0.036;stroke-miterlimit:10"
   id="path41" />
	<path
   d="M 37.512,84.587 C 38.268,85.234 39.06,85.595 40.032,85.811 C 41.004,85.919 41.904,85.883 43.128,85.559 L 43.128,85.559 C 42.156,84.912 41.148,84.443 40.248,84.299 C 39.276,84.119 38.412,84.263 37.512,84.587 L 37.512,84.587 z "
   style="fill:#a16121;fill-rule:evenodd;stroke:#000000;stroke-width:0.036;stroke-miterlimit:10"
   id="path43" />
	<path
   d="M 34.344,95.207 C 35.064,94.738 35.712,93.767 36.288,92.291 C 36.756,90.778 37.188,88.763 37.44,86.243 L 37.44,86.243 C 37.944,86.818 38.592,87.287 39.528,87.358 C 40.356,87.503 41.436,87.251 42.768,86.89 L 42.768,86.89 C 42.12,90.454 41.616,93.802 41.256,97.474 C 40.896,101.038 40.608,104.566 40.536,108.203 L 40.536,108.203 L 37.116,108.167 L 37.116,108.167 C 37.044,105.862 37.296,103.883 37.584,101.938 C 37.872,99.922 38.952,97.583 39.024,96.718 C 38.916,95.854 38.412,95.962 37.656,96.754 C 36.864,97.474 35.964,98.806 34.668,100.894 L 34.668,100.894 C 35.208,99.31 35.388,98.123 35.352,97.186 C 35.28,96.179 34.992,95.566 34.344,95.207 L 34.344,95.207 z "
   style="fill:#a16121;fill-rule:evenodd;stroke:#000000;stroke-width:0.036;stroke-miterlimit:10"
   id="path45" />
	<path
   d="M 32.616,96.791 C 33.3,97.187 33.732,97.906 33.912,98.555 C 34.092,99.204 33.984,99.995 33.732,100.931 L 33.732,100.931 L 31.14,104.675 L 31.14,104.675 C 30.492,104.675 30.024,104.53 29.736,104.243 C 29.412,103.883 29.268,103.486 29.304,102.911 L 29.304,102.911 C 30.384,100.895 31.5,98.843 32.616,96.791 L 32.616,96.791 z "
   style="fill:#a16121;fill-rule:evenodd;stroke:#000000;stroke-width:0.036;stroke-miterlimit:10"
   id="path47" />
	<path
   d="M 134.172,51.323 C 132.192,46.571 130.212,41.819 128.089,36.671 C 125.857,31.523 123.841,26.195 121.501,20.687 L 121.501,20.687 C 121.177,18.563 121.069,16.619 121.033,14.855 C 120.997,13.055 121.033,11.435 121.285,9.995 L 121.285,9.995 C 121.645,11.399 122.329,12.659 123.049,13.775 C 123.769,14.891 124.669,15.863 125.749,16.691 L 125.749,16.691 C 128.665,24.503 131.076,31.019 133.381,36.815 C 135.649,42.539 137.413,47.111 139.069,50.819 L 139.069,50.819 C 138.025,51.215 137.126,51.467 136.37,51.575 C 135.504,51.683 134.819,51.503 134.172,51.323 L 134.172,51.323 z "
   style="fill:#a16121;fill-rule:evenodd;stroke:#000000;stroke-width:0.036;stroke-miterlimit:10"
   id="path49" />
	<path
   d="M 138.168,44.519 C 140.22,40.271 142.128,36.455 144.036,32.927 C 145.979,29.291 147.599,26.339 149.435,23.387 C 151.164,20.435 152.748,17.807 154.331,15.359 L 154.331,15.359 C 155.519,15.035 156.419,14.567 157.175,14.099 C 157.967,13.487 158.399,11.795 158.614,12.371 C 158.543,12.839 158.182,15.503 157.535,17.447 C 156.814,19.283 156.778,20.255 154.906,23.711 C 152.854,27.059 148.858,33.575 146.266,37.715 C 143.674,41.855 141.478,45.239 139.535,48.299 L 139.535,48.299 C 139.104,47.039 138.636,45.779 138.168,44.519 L 138.168,44.519 z "
   style="fill:#a16121;fill-rule:evenodd;stroke:#000000;stroke-width:0.036;stroke-miterlimit:10"
   id="path51" />
	
		<polygon
   points="132.947,32.314 143.172,31.811 139.607,38.759 135.899,38.579 132.947,32.314 "
   style="fill:#a16121;fill-rule:evenodd;stroke:#000000;stroke-width:0.036;stroke-miterlimit:10"
   id="polygon53" />
	
		<polygon
   points="136.8,40.199 138.815,40.127 137.268,42.539 136.8,40.199 "
   style="fill:#a16121;fill-rule:evenodd;stroke:#000000;stroke-width:0.036;stroke-miterlimit:10"
   id="polygon55" />
	<path
   d="M 137.124,30.334 C 136.655,25.654 136.332,21.622 136.151,17.842 C 135.935,13.99 135.863,10.786 135.935,7.834 L 135.935,7.834 C 136.368,6.286 136.872,5.098 137.303,4.27 C 137.771,3.226 138.203,2.506 138.599,2.542 C 138.743,2.65 138.671,3.838 138.959,4.702 C 139.247,5.458 139.822,6.034 140.543,6.826 L 140.543,6.826 C 140.759,11.362 140.902,15.538 140.975,19.498 C 140.939,23.386 141.011,27.058 140.795,30.37 L 140.795,30.37 C 139.571,30.371 138.348,30.371 137.124,30.334 L 137.124,30.334 z "
   style="fill:#a16121;fill-rule:evenodd;stroke:#000000;stroke-width:0.036;stroke-miterlimit:10"
   id="path57" />
	<path
   d="M 152.172,31.487 C 164.772,30.623 176.111,30.047 186.48,29.615 C 196.812,29.111 207.144,28.895 214.02,28.823 C 220.608,28.607 223.812,28.391 226.692,28.715 C 229.572,28.967 231.192,29.579 231.552,30.551 L 231.552,30.551 L 225.72,35.267 L 225.72,35.267 C 222.552,35.087 215.964,35.051 205.38,35.303 C 194.688,35.519 172.368,35.951 162.72,36.455 C 153.036,36.887 148.32,37.391 148.032,37.967 L 148.032,37.967 C 149.399,35.807 150.768,33.646 152.172,31.487 L 152.172,31.487 z "
   style="fill:#a16121;fill-rule:evenodd;stroke:#000000;stroke-width:0.036;stroke-miterlimit:10"
   id="path59" />
	<path
   d="M 108.108,38.291 C 109.656,38.111 105.264,39.659 100.476,40.595 C 95.544,41.459 80.892,43.439 79.308,43.619 C 77.688,43.547 85.932,42.143 90.828,41.207 C 95.652,40.199 106.416,38.435 108.108,38.291 L 108.108,38.291 z "
   style="fill-rule:evenodd;stroke:#000000;stroke-width:0.036;stroke-miterlimit:10"
   id="path61" />
	<path
   d="M 88.884,39.695 C 88.416,39.875 81.936,40.919 77.364,41.711 C 72.648,42.467 62.748,43.979 61.128,44.159 C 59.544,44.123 64.584,43.007 67.788,42.359 C 70.884,41.567 76.176,41.099 79.776,40.559 C 83.268,39.983 89.172,39.515 88.884,39.695 L 88.884,39.695 z "
   style="fill-rule:evenodd;stroke:#000000;stroke-width:0.036;stroke-miterlimit:10"
   id="path63" />
	<path
   d="M 116.46,79.223 C 116.46,79.007 112.248,85.847 110.196,89.447 C 108.036,92.939 104.004,99.779 103.932,100.103 C 103.824,100.283 107.676,94.415 109.8,90.959 C 111.888,87.358 116.28,79.511 116.46,79.223 L 116.46,79.223 z "
   style="fill-rule:evenodd;stroke:#000000;stroke-width:0.036;stroke-miterlimit:10"
   id="path65" />
	<path
   d="M 124.848,23.458 C 124.56,23.098 125.856,27.094 126.792,29.038 C 127.728,30.982 129.779,34.762 130.176,35.122 C 130.32,35.302 129.168,32.674 128.268,30.73 C 127.26,28.606 125.1,23.819 124.848,23.458 L 124.848,23.458 z "
   style="fill-rule:evenodd;stroke:#000000;stroke-width:0.036;stroke-miterlimit:10"
   id="path67" />
	<path
   d="M 180.792,32.207 C 180.359,32.351 173.808,32.963 169.199,33.467 C 164.483,33.971 154.403,34.763 152.855,34.871 C 151.199,34.763 156.419,33.935 159.624,33.503 C 162.756,33.035 168.012,32.639 171.647,32.459 C 175.212,32.207 181.08,31.991 180.792,32.207 L 180.792,32.207 z "
   style="fill-rule:evenodd;stroke:#000000;stroke-width:0.036;stroke-miterlimit:10"
   id="path69" />
	<path
   d="M 198.504,32.243 C 198.071,32.387 191.52,32.999 186.912,33.503 C 182.195,34.007 172.115,34.763 170.567,34.943 C 168.912,34.871 174.131,33.935 177.336,33.539 C 180.468,33.035 185.724,32.747 189.359,32.531 C 192.924,32.314 198.792,31.991 198.504,32.243 L 198.504,32.243 z "
   style="fill-rule:evenodd;stroke:#000000;stroke-width:0.036;stroke-miterlimit:10"
   id="path71" />
	<path
   d="M 225.468,31.775 C 225.036,31.919 218.484,32.531 213.876,33.035 C 209.159,33.539 199.08,34.331 197.531,34.439 C 195.912,34.331 201.023,33.503 204.263,33.071 C 207.395,32.603 212.651,32.207 216.287,32.027 C 219.815,31.775 225.792,31.559 225.468,31.775 L 225.468,31.775 z "
   style="fill-rule:evenodd;stroke:#000000;stroke-width:0.036;stroke-miterlimit:10"
   id="path73" />
	<path
   d="M 130.968,34.547 C 130.68,34.187 131.976,38.183 132.912,40.127 C 133.848,42.071 135.899,45.851 136.296,46.211 C 136.44,46.391 135.288,43.763 134.388,41.819 C 133.38,39.695 131.22,34.907 130.968,34.547 L 130.968,34.547 z "
   style="fill-rule:evenodd;stroke:#000000;stroke-width:0.036;stroke-miterlimit:10"
   id="path75" />
	<path
   d="M 128.052,61.871 C 128.052,61.655 123.84,68.496 121.788,72.095 C 119.664,75.587 115.524,82.427 115.488,82.751 C 115.344,82.931 119.304,77.063 121.392,73.606 C 123.48,70.007 127.872,62.159 128.052,61.871 L 128.052,61.871 z "
   style="fill-rule:evenodd;stroke:#000000;stroke-width:0.036;stroke-miterlimit:10"
   id="path77" />
	<path
   d="M 142.02,69.07 C 141.84,68.854 145.116,76.631 146.844,80.591 C 148.464,84.479 151.74,92.003 151.956,92.327 C 151.991,92.398 149.435,85.667 147.779,81.707 C 146.016,77.675 142.199,69.251 142.02,69.07 L 142.02,69.07 z "
   style="fill-rule:evenodd;stroke:#000000;stroke-width:0.036;stroke-miterlimit:10"
   id="path79" />
	<path
   d="M 147.708,78.574 C 147.527,78.358 150.804,86.135 152.531,90.095 C 154.151,93.947 157.427,101.579 157.643,101.866 C 157.679,101.938 155.123,95.207 153.467,91.247 C 151.704,87.215 147.888,78.827 147.708,78.574 L 147.708,78.574 z "
   style="fill-rule:evenodd;stroke:#000000;stroke-width:0.036;stroke-miterlimit:10"
   id="path81" />
	<path
   d="M 153.071,25.583 C 153.107,25.187 150.659,27.887 149.471,29.651 C 148.175,31.235 146.087,35.195 145.979,35.555 C 145.799,35.843 147.456,33.611 148.715,31.919 C 149.868,30.227 152.892,25.943 153.071,25.583 L 153.071,25.583 z "
   style="fill-rule:evenodd;stroke:#000000;stroke-width:0.036;stroke-miterlimit:10"
   id="path83" />
	<path
   d="M 154.872,19.427 C 154.836,19.031 152.531,21.767 151.308,23.459 C 150.012,25.079 147.924,28.895 147.816,29.363 C 147.6,29.651 149.329,27.419 150.516,25.727 C 151.739,23.999 154.584,19.823 154.872,19.427 L 154.872,19.427 z "
   style="fill-rule:evenodd;stroke:#000000;stroke-width:0.036;stroke-miterlimit:10"
   id="path85" />
	<path
   d="M 139.248,16.151 C 139.103,15.719 138.563,19.823 138.6,22.091 C 138.528,24.359 138.78,28.895 138.96,29.435 C 138.996,29.723 139.067,26.735 139.176,24.503 C 139.14,22.199 139.355,16.547 139.248,16.151 L 139.248,16.151 z "
   style="fill-rule:evenodd;stroke:#000000;stroke-width:0.036;stroke-miterlimit:10"
   id="path87" />
	<path
   d="M 137.52,9.203 C 137.376,8.771 136.836,12.875 136.873,15.143 C 136.801,17.411 137.053,21.947 137.232,22.487 C 137.268,22.811 137.34,19.679 137.448,17.519 C 137.412,15.143 137.628,9.635 137.52,9.203 L 137.52,9.203 z "
   style="fill-rule:evenodd;stroke:#000000;stroke-width:0.036;stroke-miterlimit:10"
   id="path89" />
	<path
   d="M 135.323,68.566 C 135.216,67.919 134.783,75.119 134.855,79.331 C 134.783,83.291 135.359,91.787 135.467,92.614 C 135.503,93.335 135.467,87.574 135.503,83.65 C 135.468,79.475 135.359,69.358 135.323,68.566 L 135.323,68.566 z "
   style="fill-rule:evenodd;stroke:#000000;stroke-width:0.036;stroke-miterlimit:10"
   id="path91" />
	<path
   d="M 136.476,80.051 C 136.369,79.403 135.936,86.603 136.008,90.815 C 135.972,94.775 136.44,103.271 136.584,104.099 C 136.584,104.783 136.655,99.167 136.655,95.171 C 136.62,91.03 136.512,80.807 136.476,80.051 L 136.476,80.051 z "
   style="fill-rule:evenodd;stroke:#000000;stroke-width:0.036;stroke-miterlimit:10"
   id="path93" />
	<path
   d="M 215.243,106.835 C 212.075,105.935 209.304,105.215 206.783,104.675 C 204.227,104.135 201.96,103.775 199.979,103.595 L 199.979,103.595 C 203.292,104.387 206.279,104.999 208.799,105.574 C 211.319,106.079 213.516,106.547 215.243,106.835 L 215.243,106.835 z "
   style="fill-rule:evenodd;stroke:#000000;stroke-width:0.036;stroke-miterlimit:10"
   id="path95" />
	<path
   d="M 235.907,104.135 C 236.88,101.651 237.384,99.599 237.275,97.583 C 237.095,95.639 236.735,94.198 235.223,92.291 C 233.639,90.167 229.823,87.755 228.059,85.343 C 226.043,82.967 224.567,80.519 224.207,77.999 C 223.99,75.227 224.675,72.455 226.547,69.287 L 226.547,69.287 C 224.495,71.303 223.163,73.354 222.406,75.442 C 221.65,77.386 222.335,79.402 221.938,81.49 C 221.398,83.579 220.499,85.631 219.238,87.791 L 219.238,87.791 C 220.463,85.307 220.858,82.858 220.426,80.591 C 219.85,78.215 216.502,76.523 216.358,73.859 C 216.178,71.124 217.222,67.991 219.49,64.463 L 219.49,64.463 C 217.295,64.643 215.53,66.082 213.911,68.927 C 212.182,71.735 210.167,77.567 209.951,81.419 C 209.734,85.271 210.562,88.619 212.579,91.751 L 212.579,91.751 C 210.778,92.327 209.339,91.679 208.259,89.95 C 207.107,88.043 207.359,82.822 205.955,81.095 C 204.442,79.366 202.391,78.899 199.511,79.691 L 199.511,79.691 C 202.139,80.916 203.615,82.391 203.939,84.263 C 204.155,86.063 201.131,87.287 201.239,90.707 C 201.239,94.127 202.248,98.519 204.263,104.423 L 204.263,104.423 C 207.826,107.735 212.039,109.427 217.439,109.355 C 222.768,109.282 228.743,107.591 235.907,104.135 L 235.907,104.135 z "
   style="fill-rule:evenodd;stroke:#000000;stroke-width:0.036;stroke-miterlimit:10"
   id="path97" />
	<path
   d="M 235.728,102.694 C 236.304,100.822 236.556,99.022 236.34,97.438 C 236.016,95.747 235.476,94.378 234.432,92.938 C 233.352,91.462 231.696,90.238 230.292,88.69 C 228.708,86.999 226.907,84.875 225.72,83.146 C 224.604,81.346 223.704,79.871 223.56,78.178 C 223.344,76.378 223.488,74.578 224.28,72.634 L 224.28,72.634 C 223.596,73.93 223.129,75.514 222.732,77.242 C 222.3,78.897 222.84,80.481 221.976,82.966 C 221.004,85.342 219.6,88.222 217.368,91.606 L 217.368,91.606 C 218.484,89.123 219.205,86.926 219.528,85.018 C 219.852,83.039 219.709,81.455 219.24,80.122 C 218.556,78.609 216.936,77.998 216.324,76.63 C 215.64,75.226 215.316,73.714 215.497,71.949 C 215.604,70.185 216.108,68.313 217.009,66.19 L 217.009,66.19 C 215.461,67.989 214.2,70.042 213.229,72.345 C 212.221,74.613 211.465,77.457 211.105,79.905 C 210.601,82.353 210.458,84.405 210.817,86.458 C 211.177,88.186 212.257,89.59 213.086,91.102 C 213.77,92.579 214.777,94.45 214.993,95.747 C 215.138,97.043 214.813,98.087 214.021,98.879 L 214.021,98.879 C 214.561,96.322 214.417,94.486 213.589,93.371 C 212.652,92.327 210.205,92.723 209.017,92.039 C 207.829,91.066 206.929,89.698 206.461,88.079 C 205.921,86.314 206.605,83.291 205.992,82.066 C 205.308,80.77 204.192,80.266 202.501,80.554 L 202.501,80.554 C 203.761,81.634 204.553,82.75 204.732,83.902 C 204.804,84.982 203.94,85.846 203.508,87.178 C 202.968,88.366 202.031,89.338 202.068,91.642 C 201.997,93.946 202.824,99.166 203.581,101.038 C 204.228,102.766 205.633,102.189 206.425,102.226 C 207.109,102.082 207.072,100.606 208.261,100.858 C 209.413,101.074 212.005,103.63 213.265,103.81 C 214.345,103.846 214.057,101.542 215.317,101.758 C 216.505,102.01 218.918,104.242 220.609,104.854 C 222.229,105.106 223.885,104.566 225.002,104.35 C 226.117,104.206 226.909,104.926 226.981,104.134 C 226.909,103.162 224.389,99.274 224.677,98.986 C 224.857,98.663 227.017,101.938 228.385,102.299 C 229.753,102.551 231.337,100.535 232.705,100.679 C 233.892,100.679 234.899,101.398 235.728,102.694 L 235.728,102.694 z "
   style="fill:#ffff00;fill-rule:evenodd;stroke:#000000;stroke-width:0.036;stroke-miterlimit:10"
   id="path99" />
	<path
   d="M 231.048,98.303 C 230.328,95.963 229.464,94.091 228.6,92.831 C 227.556,91.535 226.08,91.535 225.576,90.49 C 225.037,89.339 225.253,87.97 225.829,86.243 L 225.829,86.243 C 223.705,87.251 222.732,88.295 222.768,89.77 C 222.732,91.138 225.936,93.478 226.116,94.558 C 226.152,95.495 224.316,96.61 223.524,96.106 C 222.732,95.602 221.868,94.163 221.22,91.787 L 221.22,91.787 C 220.428,94.415 220.716,96.358 221.688,97.475 C 222.732,98.412 226.044,97.979 227.304,98.412 C 228.42,98.88 227.592,100.5 228.312,100.5 C 228.924,100.463 229.788,99.778 231.048,98.303 L 231.048,98.303 z "
   style="fill:#ff8000;fill-rule:evenodd"
   id="path101" />
	<path
   d="M 216.107,89.375 C 214.775,87.755 213.947,86.026 213.767,83.902 C 213.515,81.814 213.839,79.474 214.739,76.882 L 214.739,76.882 C 216.395,79.006 217.403,81.237 217.62,83.29 C 217.836,85.307 217.332,87.431 216.107,89.375 L 216.107,89.375 z "
   style="fill:#ff8000;fill-rule:evenodd"
   id="path103" />
	<path
   d="M 205.596,96.898 C 204.48,95.747 203.904,94.594 203.724,93.046 C 203.544,91.534 203.832,89.842 204.588,87.97 L 204.588,87.97 C 205.812,89.302 206.531,90.562 206.748,92.146 C 206.928,93.587 206.496,95.171 205.596,96.898 L 205.596,96.898 z "
   style="fill:#ff8000;fill-rule:evenodd"
   id="path105" />
	<path
   d="M 215.928,107.123 C 213.659,105.394 210.96,104.135 207.684,103.343 C 204.3,102.515 200.7,102.155 196.344,102.263 L 196.344,102.263 C 195.444,102.587 194.94,103.163 194.688,104.135 C 194.436,105.107 194.436,106.223 194.833,107.879 L 194.833,107.879 C 193.537,107.879 192.349,108.023 191.125,108.311 C 189.793,108.491 188.784,108.851 187.561,109.248 L 187.561,109.248 C 187.093,110.976 187.021,112.668 187.201,114.468 C 187.309,116.232 187.454,118.068 188.605,119.976 C 189.721,121.776 191.414,123.612 193.825,125.484 L 193.825,125.484 C 194.87,124.512 197.21,122.964 201.386,120.984 C 205.454,118.932 210.998,116.448 218.161,113.388 L 218.161,113.388 C 225.685,114.9 231.806,116.484 237.098,118.284 C 242.318,120.013 246.278,121.885 249.266,123.9 L 249.266,123.9 C 253.19,122.749 255.638,120.913 256.898,118.249 C 258.014,115.549 257.942,112.129 256.394,107.988 L 256.394,107.988 L 250.958,107.844 L 250.958,107.844 C 250.454,105.648 249.374,103.848 247.718,102.444 C 245.989,101.041 243.686,100.032 240.806,99.421 L 240.806,99.421 C 238.106,100.32 234.866,101.364 230.69,102.696 C 226.439,104.026 221.651,105.358 215.928,107.123 L 215.928,107.123 z "
   style="fill-rule:evenodd;stroke:#000000;stroke-width:0.036;stroke-miterlimit:10"
   id="path107" />
	<path
   d="M 195.336,107.698 C 194.832,106.114 194.796,104.963 195.228,104.098 C 195.516,103.162 195.732,102.694 197.82,102.694 C 199.908,102.55 204.408,102.982 207.72,103.99 C 210.96,104.999 214.02,106.583 217.188,108.886 L 217.188,108.886 C 212.256,108.454 208.044,108.166 204.408,108.022 C 200.664,107.771 197.783,107.663 195.336,107.698 L 195.336,107.698 z "
   style="fill:#804000;fill-rule:evenodd;stroke:#000000;stroke-width:0.036;stroke-miterlimit:10"
   id="path109" />
	<path
   d="M 188.352,109.57 C 189.756,110.543 190.873,111.802 192.096,113.35 C 193.319,114.898 194.724,116.698 195.192,118.75 C 195.444,120.586 194.976,122.565 193.789,124.689 L 193.789,124.689 C 195.696,122.889 198.648,121.089 202.789,119.001 C 206.893,116.948 212.041,114.753 218.377,112.413 L 218.377,112.413 C 218.736,111.621 218.845,111.152 218.845,110.612 C 218.809,110.18 218.665,109.676 218.269,109.497 L 218.269,109.497 C 213.877,109.028 209.701,108.633 205.597,108.453 C 201.385,108.201 196.525,107.948 193.645,108.236 C 190.655,108.455 189.071,108.851 188.352,109.57 L 188.352,109.57 z "
   style="fill:#804000;fill-rule:evenodd;stroke:#000000;stroke-width:0.036;stroke-miterlimit:10"
   id="path111" />
	<path
   d="M 255.888,108.347 C 252.288,108.239 248.472,108.203 244.296,108.239 C 240.012,108.275 235.08,108.204 231.012,108.563 C 226.944,108.779 223.38,109.319 220.176,109.895 L 220.176,109.895 C 219.888,110.219 219.816,110.471 219.816,111.047 C 219.816,111.587 219.961,112.055 220.249,112.847 L 220.249,112.847 C 225.612,113.567 230.581,114.755 235.549,116.555 C 240.445,118.319 245.089,120.443 249.625,123.215 L 249.625,123.215 C 248.473,120.406 248.076,117.851 248.293,115.943 C 248.437,113.927 249.589,112.416 250.921,111.263 C 252.18,109.895 253.836,109.066 255.888,108.347 L 255.888,108.347 z "
   style="fill:#804000;fill-rule:evenodd;stroke:#000000;stroke-width:0.036;stroke-miterlimit:10"
   id="path113" />
	<path
   d="M 217.548,107.411 C 221.724,106.114 225.756,104.927 229.644,103.703 C 233.568,102.406 237.205,101.327 240.84,100.066 L 240.84,100.066 C 243.575,100.39 245.592,101.182 247.176,102.442 C 248.688,103.703 249.588,105.358 250.02,107.554 L 250.02,107.554 C 244.908,107.41 239.904,107.302 234.72,107.626 C 229.536,107.77 224.46,108.346 219.204,108.958 L 219.204,108.958 C 218.664,108.455 218.124,107.95 217.548,107.411 L 217.548,107.411 z "
   style="fill:#804000;fill-rule:evenodd;stroke:#000000;stroke-width:0.036;stroke-miterlimit:10"
   id="path115" />
	<path
   d="M 236.771,105.574 C 238.5,104.854 240.299,104.171 242.027,103.919 C 243.683,103.559 245.412,103.45 247.067,103.595 L 247.067,103.595 C 244.259,104.135 242.063,104.639 240.336,104.963 C 238.571,105.251 237.384,105.503 236.771,105.574 L 236.771,105.574 z "
   style="fill-rule:evenodd;stroke:#000000;stroke-width:0.036;stroke-miterlimit:10"
   id="path117" />
	<path
   d="M 187.884,111.047 C 187.704,113.243 187.812,114.899 188.064,116.555 C 188.28,117.995 188.497,119.003 189.396,120.263 C 190.296,121.487 191.448,122.747 193.249,124.043 L 193.249,124.043 C 194.364,122.927 194.761,121.559 194.725,120.083 C 194.509,118.499 193.825,116.411 192.673,114.935 C 191.483,113.387 189.936,112.091 187.884,111.047 L 187.884,111.047 z "
   style="fill:#804000;fill-rule:evenodd;stroke:#000000;stroke-width:0.036;stroke-miterlimit:10"
   id="path119" />
	<path
   d="M 249.012,117.059 C 249.336,119.039 249.659,121.019 250.02,123.036 L 250.02,123.036 C 252.216,122.244 253.908,121.307 255.096,120.084 C 256.104,118.752 256.716,117.456 256.932,115.62 C 257.184,113.712 256.968,111.588 256.428,108.96 L 256.428,108.96 C 253.728,109.644 252,110.688 250.704,112.092 C 249.479,113.387 248.867,115.043 249.012,117.059 L 249.012,117.059 z "
   style="fill:#804000;fill-rule:evenodd;stroke:#000000;stroke-width:0.036;stroke-miterlimit:10"
   id="path121" />
	<path
   d="M 189.036,113.927 C 189.107,115.799 189.432,117.419 190.008,118.787 C 190.512,120.083 191.628,121.738 192.239,121.955 C 192.815,122.026 193.464,120.839 193.355,119.65 C 193.067,118.39 191.519,115.114 191.051,114.682 C 190.475,114.25 190.187,115.366 190.331,116.482 C 190.402,117.382 191.482,120.01 191.77,120.19 C 191.951,120.226 191.878,119.291 191.554,117.094 L 191.554,117.094 C 191.986,118.462 192.418,119.614 192.454,120.154 C 192.454,120.694 192.273,120.73 192.058,120.659 C 191.77,120.551 191.266,120.226 190.978,119.398 C 190.51,118.354 189.646,116.123 189.754,115.222 C 189.826,114.322 190.762,113.746 191.445,114.322 C 192.093,114.898 192.994,117.131 193.462,118.499 C 193.858,119.65 193.894,121.055 193.714,121.738 C 193.39,122.386 192.489,122.711 191.842,122.314 C 191.122,121.774 189.862,120.335 189.466,118.966 C 188.964,117.49 188.819,115.906 189.036,113.927 L 189.036,113.927 z "
   style="fill-rule:evenodd;stroke:#000000;stroke-width:0.036;stroke-miterlimit:10"
   id="path123" />
	<path
   d="M 192.527,110.723 C 198.504,110.219 202.752,110.003 205.811,110.075 C 208.727,110.075 210.239,110.399 210.204,110.903 L 210.204,110.903 C 205.128,110.796 201.239,110.903 198.252,110.832 C 195.3,110.759 193.392,110.723 192.527,110.723 L 192.527,110.723 z "
   style="fill-rule:evenodd;stroke:#000000;stroke-width:0.036;stroke-miterlimit:10"
   id="path125" />
	<path
   d="M 194.184,112.919 C 196.056,113.243 198.54,113.459 201.636,113.171 C 204.768,112.847 208.332,112.415 212.76,111.479 L 212.76,111.479 C 208.512,113.063 204.912,113.819 201.816,114.143 C 198.647,114.431 196.235,113.891 194.184,112.919 L 194.184,112.919 z "
   style="fill-rule:evenodd;stroke:#000000;stroke-width:0.036;stroke-miterlimit:10"
   id="path127" />
	<path
   d="M 196.991,117.059 C 199.187,117.131 201.311,116.987 203.76,116.339 C 206.064,115.619 209.988,113.818 211.248,113.315 C 212.472,112.811 212.472,112.811 211.248,113.315 L 211.248,113.315 C 209.231,114.611 207.18,115.655 205.092,116.447 C 202.896,117.204 199.944,117.851 198.612,117.996 C 197.243,118.103 196.704,117.743 196.991,117.059 L 196.991,117.059 z "
   style="fill-rule:evenodd;stroke:#000000;stroke-width:0.036;stroke-miterlimit:10"
   id="path129" />
	<path
   d="M 228.42,110.435 C 232.164,110.939 235.691,111.551 238.859,111.875 C 242.063,112.307 244.907,112.45 247.536,112.703 L 247.536,112.703 C 242.351,112.486 238.355,112.198 235.115,111.839 C 231.876,111.442 229.644,110.975 228.42,110.435 L 228.42,110.435 z "
   style="fill-rule:evenodd;stroke:#000000;stroke-width:0.036;stroke-miterlimit:10"
   id="path131" />
	<path
   d="M 230.399,113.314 C 235.332,113.674 239.292,114.178 242.135,114.827 C 245.051,115.438 246.671,116.194 247.535,117.095 L 247.535,117.095 C 243.431,115.943 240.083,115.223 237.203,114.539 C 234.323,113.963 232.056,113.423 230.399,113.314 L 230.399,113.314 z "
   style="fill-rule:evenodd;stroke:#000000;stroke-width:0.036;stroke-miterlimit:10"
   id="path133" />
	<path
   d="M 235.584,110.039 C 238.968,109.967 241.848,109.967 244.367,110.039 C 246.779,110.11 248.832,110.255 250.38,110.471 L 250.38,110.471 C 245.232,110.327 241.596,110.291 239.075,110.219 C 236.556,110.146 235.439,110.039 235.584,110.039 L 235.584,110.039 z "
   style="fill-rule:evenodd;stroke:#000000;stroke-width:0.036;stroke-miterlimit:10"
   id="path135" />
	<path
   d="M 210.996,106.654 C 208.872,105.574 206.855,104.926 204.659,104.423 C 202.428,103.99 200.304,103.703 198,103.847 L 198,103.847 C 201.239,104.279 204.012,104.675 206.172,105.179 C 208.296,105.61 209.952,106.15 210.996,106.654 L 210.996,106.654 z "
   style="fill-rule:evenodd;stroke:#000000;stroke-width:0.036;stroke-miterlimit:10"
   id="path137" />
	<path
   d="M 254.808,111.623 C 252.829,112.127 251.712,113.099 250.92,114.539 C 250.164,115.978 249.732,119.255 250.452,120.083 C 251.136,120.767 252.72,120.335 255.204,118.787 L 255.204,118.787 C 253.044,120.119 251.676,120.442 251.1,119.902 C 250.488,119.291 250.74,116.663 251.46,115.331 C 252.071,113.927 253.188,112.738 254.808,111.623 L 254.808,111.623 z "
   style="fill-rule:evenodd;stroke:#000000;stroke-width:0.036;stroke-miterlimit:10"
   id="path139" />
	<path
   d="M 254.592,113.278 C 253.907,114.251 253.404,115.186 253.08,115.942 C 252.647,116.627 252.036,117.455 252.504,117.743 C 253.008,117.959 253.98,117.814 255.816,117.31 L 255.816,117.31 C 254.448,117.67 253.728,117.526 253.512,116.878 C 253.296,116.159 253.655,115.007 254.592,113.278 L 254.592,113.278 z "
   style="fill-rule:evenodd;stroke:#000000;stroke-width:0.036;stroke-miterlimit:10"
   id="path141" />
	<path
   d="M 210.6,118.391 C 210.312,118.679 208.296,119.579 208.296,120.263 C 208.224,120.803 209.052,121.811 210.204,122.315 C 211.212,122.783 214.308,123.323 214.775,122.963 C 215.063,122.423 213.011,120.515 212.796,119.471 C 212.651,118.283 214.308,116.483 213.876,116.303 C 213.264,115.979 210.384,117.743 209.808,118.103 C 209.231,118.354 210.743,117.995 210.6,118.391 L 210.6,118.391 z "
   style="fill-rule:evenodd;stroke:#000000;stroke-width:0.036;stroke-miterlimit:10"
   id="path143" />
	<path
   d="M 215.352,117.095 C 214.776,117.779 215.208,118.607 215.964,119.003 C 216.468,119.183 218.592,119.471 219.132,118.751 C 219.636,117.959 219.996,115.079 219.384,114.827 C 218.664,114.467 215.928,116.375 215.352,117.095 L 215.352,117.095 z "
   style="fill-rule:evenodd;stroke:#000000;stroke-width:0.036;stroke-miterlimit:10"
   id="path145" />
	<path
   d="M 221.615,117.671 C 221.147,118.211 221.328,120.803 222.011,121.415 C 222.551,121.919 223.99,121.27 224.675,120.839 C 225.215,120.191 225.827,118.895 225.395,118.355 C 224.748,117.778 222.191,117.131 221.615,117.671 L 221.615,117.671 z "
   style="fill-rule:evenodd;stroke:#000000;stroke-width:0.036;stroke-miterlimit:10"
   id="path147" />
	<path
   d="M 227.987,117.131 C 227.664,117.815 228.527,120.659 229.464,121.486 C 230.328,122.243 232.739,122.35 233.208,121.667 C 233.567,120.803 232.38,117.778 231.588,117.022 C 230.651,116.159 228.348,116.375 227.987,117.131 L 227.987,117.131 z "
   style="fill-rule:evenodd;stroke:#000000;stroke-width:0.036;stroke-miterlimit:10"
   id="path149" />
	<path
   d="M 235.26,119.471 C 234.972,119.939 235.044,122.423 235.764,122.891 C 236.448,123.251 239.256,122.855 239.472,122.279 C 239.616,121.704 237.492,119.832 236.844,119.435 C 236.016,118.895 235.439,118.858 235.26,119.471 L 235.26,119.471 z "
   style="fill-rule:evenodd;stroke:#000000;stroke-width:0.036;stroke-miterlimit:10"
   id="path151" />
	<path
   d="M 200.231,46.535 C 200.843,46.031 201.851,45.743 203.111,45.275 C 204.372,44.771 205.271,44.339 207.756,43.979 C 210.239,43.547 214.739,43.115 217.512,43.115 C 220.176,43.115 222.156,43.367 223.596,44.015 C 225,44.555 225.828,45.383 226.08,46.499 L 226.08,46.499 C 226.187,47.327 226.367,49.379 226.62,52.799 C 226.836,56.183 227.088,62.303 227.376,66.695 C 227.447,71.015 227.483,74.975 227.34,78.719 L 227.34,78.719 C 226.332,79.403 224.64,80.015 222.12,80.698 C 219.491,81.383 215.676,82.715 212.22,82.606 C 208.692,82.318 205.164,81.382 201.348,79.402 L 201.348,79.402 C 200.484,70.547 199.908,63.671 199.764,58.09 C 199.584,52.583 199.691,48.73 200.231,46.535 L 200.231,46.535 z "
   style="fill-rule:evenodd;stroke:#000000;stroke-width:0.036;stroke-miterlimit:10"
   id="path153" />
	<path
   d="M 200.483,47.039 C 200.483,47.039 203.759,45.419 206.027,44.879 C 208.296,44.375 212.256,44.015 214.307,43.907 C 216.323,43.799 218.123,43.871 219.671,43.979 C 221.219,44.051 222.479,44.087 223.379,44.411 C 224.278,44.771 225.179,46.067 225.179,46.067 C 225.179,46.067 224.963,47.291 223.199,47.939 C 221.435,48.551 217.8,49.523 214.38,49.703 C 210.96,49.919 205.739,49.163 203.436,48.731 C 201.204,48.263 200.483,47.039 200.483,47.039 L 200.483,47.039 z "
   style="fill:#e0e0e0;fill-rule:evenodd;stroke:#000000;stroke-width:0.036;stroke-miterlimit:10"
   id="path155" />
	<path
   d="M 200.34,47.975 C 199.907,51.647 199.836,56.111 200.124,61.367 C 200.412,66.659 200.987,72.527 201.996,79.367 L 201.996,79.367 C 204.3,80.412 206.676,81.059 208.979,81.456 C 211.175,81.779 212.651,82.031 215.748,81.527 C 218.844,80.987 222.624,79.836 227.376,78.215 L 227.376,78.215 C 227.304,74.039 227.088,69.539 226.872,64.283 C 226.584,58.991 226.26,53.375 225.899,47.003 L 225.899,47.003 C 222.947,48.659 219.851,49.847 216.755,50.423 C 213.515,50.891 209.843,50.855 207.143,50.459 C 204.372,50.027 202.104,49.199 200.34,47.975 L 200.34,47.975 z "
   style="fill:#616161;fill-rule:evenodd;stroke:#000000;stroke-width:0.036;stroke-miterlimit:10"
   id="path157" />
	<path
   d="M 205.739,48.515 C 207,48.011 208.655,47.651 210.851,47.435 C 213.047,47.219 216.863,47.075 218.843,47.147 C 220.751,47.183 221.723,47.435 222.047,47.759 L 222.047,47.759 C 217.943,47.651 214.703,47.687 211.931,47.867 C 209.159,47.938 207.144,48.155 205.739,48.515 L 205.739,48.515 z "
   style="fill-rule:evenodd;stroke:#000000;stroke-width:0.036;stroke-miterlimit:10"
   id="path159" />
	<path
   d="M 200.987,54.491 C 203.903,55.607 206.639,56.363 209.483,56.615 C 212.292,56.795 214.92,56.327 217.655,55.895 C 220.248,55.355 222.84,54.671 225.288,53.699 L 225.288,53.699 C 222.155,55.247 219.239,56.183 216.143,56.795 C 213.011,57.191 209.447,57.371 206.963,56.939 C 204.407,56.471 202.464,55.787 200.987,54.491 L 200.987,54.491 z "
   style="fill-rule:evenodd;stroke:#000000;stroke-width:0.036;stroke-miterlimit:10"
   id="path161" />
	<path
   d="M 201.42,60.395 C 204.264,61.511 207.036,62.267 209.88,62.519 C 212.688,62.699 215.316,62.231 218.052,61.799 C 220.752,61.259 223.128,60.575 225.72,59.603 L 225.72,59.603 C 222.624,61.151 219.564,62.087 216.54,62.699 C 213.372,63.095 209.952,63.275 207.395,62.843 C 204.84,62.375 202.896,61.691 201.42,60.395 L 201.42,60.395 z "
   style="fill-rule:evenodd;stroke:#000000;stroke-width:0.036;stroke-miterlimit:10"
   id="path163" />
	<path
   d="M 201.852,66.839 C 204.696,67.99 207.468,68.639 210.312,68.927 C 213.084,69.071 215.82,68.711 218.52,68.243 C 221.22,67.738 223.632,66.946 226.152,66.011 L 226.152,66.011 C 223.056,67.523 219.997,68.567 216.972,69.143 C 213.804,69.647 210.384,69.647 207.827,69.288 C 205.271,68.818 203.328,68.135 201.852,66.839 L 201.852,66.839 z "
   style="fill-rule:evenodd;stroke:#000000;stroke-width:0.036;stroke-miterlimit:10"
   id="path165" />
	<path
   d="M 202.355,74.003 C 205.199,75.119 207.971,75.875 210.815,76.127 C 213.624,76.307 216.252,75.839 218.987,75.406 C 221.687,74.866 224.063,74.182 226.655,73.211 L 226.655,73.211 C 223.559,74.723 220.5,75.767 217.475,76.343 C 214.307,76.847 210.887,76.847 208.331,76.487 C 205.775,76.055 203.832,75.227 202.355,74.003 L 202.355,74.003 z "
   style="fill-rule:evenodd;stroke:#000000;stroke-width:0.036;stroke-miterlimit:10"
   id="path167" />
	<path
   d="M 210.743,53.519 C 210.311,51.791 209.916,49.847 209.699,47.543 C 209.303,45.239 209.088,42.539 209.052,39.839 C 209.052,36.923 209.304,33.143 209.808,30.983 C 210.24,28.787 210.852,27.815 211.644,27.095 C 212.436,26.231 213.444,26.303 214.236,26.483 C 214.812,26.663 215.209,27.311 215.424,28.427 L 215.424,28.427 C 215.064,27.779 214.56,27.527 213.912,27.527 C 213.155,27.455 212.183,27.095 211.536,28.391 C 210.851,29.723 210.204,32.459 209.987,35.231 C 209.699,37.895 209.664,40.883 209.88,44.051 C 209.987,47.146 210.275,50.171 210.743,53.519 L 210.743,53.519 z "
   style="fill-rule:evenodd;stroke:#000000;stroke-width:0.036;stroke-miterlimit:10"
   id="path169" />
	<path
   d="M 215.388,32.314 C 215.604,34.078 215.928,35.77 215.964,37.678 C 216.108,39.55 215.964,41.35 215.928,43.366 L 215.928,43.366 C 216.216,42.934 216.324,41.89 216.396,40.63 C 216.396,39.154 216.252,36.742 216.108,35.338 C 215.964,33.935 215.676,32.927 215.388,32.314 L 215.388,32.314 z "
   style="fill-rule:evenodd;stroke:#000000;stroke-width:0.036;stroke-miterlimit:10"
   id="path171" />
	<path
   d="M 209.987,53.195 C 209.987,53.555 210.383,53.807 210.815,53.771 C 211.248,53.735 211.571,53.411 211.536,53.051 C 211.536,52.727 211.14,52.439 210.708,52.475 C 210.275,52.511 209.952,52.834 209.987,53.195 L 209.987,53.195 z "
   style="fill-rule:evenodd;stroke:#000000;stroke-width:0.036;stroke-miterlimit:10"
   id="path173" />
</g>
</svg>