<?xml version="1.0" encoding="UTF-8" standalone="no"?>
<!-- Created with Inkscape (http://www.inkscape.org/) -->
<svg
   xmlns:dc="http://purl.org/dc/elements/1.1/"
   xmlns:cc="http://web.resource.org/cc/"
   xmlns:rdf="http://www.w3.org/1999/02/22-rdf-syntax-ns#"
   xmlns:svg="http://www.w3.org/2000/svg"
   xmlns="http://www.w3.org/2000/svg"
   xmlns:sodipodi="http://sodipodi.sourceforge.net/DTD/sodipodi-0.dtd"
   xmlns:inkscape="http://www.inkscape.org/namespaces/inkscape"
   version="1.0"
   width="300"
   height="236"
   viewBox="0 0 503.204 396.446"
   id="Layer_1"
   xml:space="preserve"
   sodipodi:version="0.32"
   inkscape:version="0.45.1"
   sodipodi:docname="Reflector Fire.svg"
   inkscape:output_extension="org.inkscape.output.svg.inkscape"
   sodipodi:docbase="F:\SVG Uploaded to CC site\Misc\Fires and Cranes"><sodipodi:namedview
   inkscape:window-height="573"
   inkscape:window-width="744"
   inkscape:pageshadow="2"
   inkscape:pageopacity="0.0"
   guidetolerance="10.0"
   gridtolerance="10.0"
   objecttolerance="10.0"
   borderopacity="1.0"
   bordercolor="#666666"
   pagecolor="#ffffff"
   id="base"
   width="300px"
   height="236px"
   inkscape:zoom="0.95094915"
   inkscape:cx="251.60201"
   inkscape:cy="198.22301"
   inkscape:window-x="1390"
   inkscape:window-y="225"
   inkscape:current-layer="Layer_1" /><defs
   id="defs272" />
<metadata
   id="metadata4">
    <rdf:RDF>
      <cc:Work
   rdf:about="">
        <dc:title>Reflector Fire</dc:title>
        <dc:description>Reflector Fire</dc:description>
        <dc:subject>
          <rdf:Bag>
            <rdf:li>camp</rdf:li>
            <rdf:li>cooking</rdf:li>
            <rdf:li>fire</rdf:li>
          </rdf:Bag>
        </dc:subject>
        <dc:publisher>
          <cc:Agent
   rdf:about="http://www.openclipart.org/">
            <dc:title>Open Clip Art Project</dc:title>
          </cc:Agent>
        </dc:publisher>
        <dc:creator>
          <cc:Agent
   rdf:about="http://web.resource.org/cc/PublicDomain">
            <dc:title>Gerald G.</dc:title>
          </cc:Agent>
        </dc:creator>
        <dc:rights>
          <cc:Agent
   rdf:about="http://web.resource.org/cc/PublicDomain">
            <dc:title>Public Domain</dc:title>
          </cc:Agent>
        </dc:rights>
        <dc:date>2005/05/13</dc:date>
        <dc:format>image/svg+xml</dc:format>
        <dc:type
   rdf:resource="http://purl.org/dc/dcmitype/StillImage" />
        <cc:license
   rdf:resource="http://web.resource.org/cc/PublicDomain" />
        <dc:language>en</dc:language>
      </cc:Work>
      <cc:License
   rdf:about="http://web.resource.org/cc/PublicDomain">
        <cc:permits
   rdf:resource="http://web.resource.org/cc/Reproduction" />
        <cc:permits
   rdf:resource="http://web.resource.org/cc/Distribution" />
        <cc:permits
   rdf:resource="http://web.resource.org/cc/DerivativeWorks" />
      </cc:License>
    </rdf:RDF>
  </metadata>

<g
   id="g3">
	<path
   d="M 156.336,20.575 C 155.22,18.631 153.924,17.803 152.592,18.091 C 151.116,18.343 149.748,19.711 148.056,22.195 L 148.056,22.195 C 148.668,17.947 150.828,14.419 154.68,11.467 C 158.388,8.443 162.636,6.283 170.772,4.447 C 178.908,2.575 192.804,-1.025 203.028,0.307 C 213.108,1.567 226.212,7.363 231.108,12.295 C 235.824,17.155 235.968,22.663 231.54,29.251 L 231.54,29.251 C 229.596,25.291 227.76,24.319 225.744,26.335 C 223.728,28.351 221.712,33.211 219.552,41.203 L 219.552,41.203 C 236.328,41.131 249.324,41.635 259.225,42.859 C 269.053,44.047 267.109,47.935 278.233,48.259 C 289.357,48.439 304.549,47.107 324.924,44.119 L 324.924,44.119 C 327.66,47.503 334.32,49.663 345.193,50.743 C 356.137,51.751 370.681,51.607 389.797,50.311 L 389.797,50.311 C 391.669,44.263 392.461,40.087 391.886,37.099 C 391.274,34.255 389.581,32.743 386.522,32.959 L 386.522,32.959 C 389.402,24.463 395.414,18.667 405.098,15.175 C 414.745,11.647 433.718,9.667 443.942,12.295 C 454.093,14.887 462.734,25.795 465.434,30.871 C 467.846,35.803 460.826,38.035 458.81,42.031 C 456.722,45.919 454.85,50.059 453.05,54.451 L 453.05,54.451 L 487.358,58.591 L 487.358,58.591 C 491.678,60.499 493.334,64.171 492.722,69.751 C 491.894,75.367 486.638,86.419 483.218,91.639 C 479.726,96.715 476.882,98.695 472.453,99.919 C 467.953,100.927 462.949,98.947 456.757,98.263 C 450.529,97.579 443.365,96.751 435.266,95.779 L 435.266,95.779 L 431.953,99.919 L 431.953,99.919 C 442.682,100.711 451.357,101.935 458.413,103.195 C 465.325,104.419 470.474,106.075 473.713,107.767 L 473.713,107.767 C 474.829,115.903 473.533,122.743 469.97,128.827 C 466.369,134.839 460.501,139.699 452.222,143.695 L 452.222,143.695 L 470.797,146.179 L 470.797,146.179 C 472.417,148.195 474.938,150.355 478.646,152.803 C 482.282,155.179 488.545,158.491 492.722,160.651 C 496.753,162.631 504.278,163.639 503.054,165.187 C 501.614,166.663 492.218,167.707 484.873,169.723 C 477.457,171.667 469.105,173.971 459.241,176.779 L 459.241,176.779 L 421.621,175.951 L 419.138,181.711 L 444.77,184.195 L 444.77,184.195 C 448.802,184.951 450.782,187.939 450.566,193.303 C 450.242,198.631 446.93,211.014 443.545,216.018 C 440.018,220.806 436.201,221.491 430.297,222.642 C 424.394,223.794 417.193,223.974 408.409,223.038 L 408.409,223.038 C 409.777,226.89 409.777,231.714 408.409,237.942 C 406.97,244.097 410.317,248.849 400.129,259.83 C 389.762,270.702 372.409,284.922 347.245,302.922 L 347.245,302.922 C 344.474,308.43 342.673,313.614 341.449,319.014 C 340.333,324.342 339.793,329.527 340.225,334.71 L 340.225,334.71 C 332.664,339.246 326.832,341.874 322.441,342.594 C 318.049,343.098 315.853,341.478 314.197,338.85 C 312.505,336.258 311.713,332.407 312.109,327.294 L 312.109,327.294 C 295.153,339.966 280.825,351.27 268.296,361.602 C 255.769,372.006 248.172,382.987 237.732,388.854 C 227.148,394.506 212.784,398.287 205.908,395.478 C 199.068,392.418 196.224,379.422 197.232,371.502 C 198.276,363.618 203.136,355.95 212.1,348.354 L 212.1,348.354 C 207.924,350.119 204.396,349.615 201.371,346.699 C 198.275,343.783 197.087,340.363 193.919,331.003 C 190.643,321.391 186.935,308.035 182.363,290.107 L 182.363,290.107 C 179.591,304.183 177.395,315.559 176.171,324.811 C 174.911,333.956 174.227,340.651 174.515,345.043 L 174.515,345.043 C 167.495,351.019 162.167,353.683 158.387,353.323 C 154.607,352.854 152.447,349.65 151.763,342.594 C 150.935,335.43 151.727,324.918 153.851,310.77 L 153.851,310.77 L 140.207,329.779 L 140.207,329.779 C 127.211,345.438 119.399,353.467 116.231,354.15 C 113.099,354.583 120.443,338.995 121.595,333.487 C 122.639,328.014 123.107,324.018 122.855,321.499 L 122.855,321.499 L 134.015,302.491 L 134.015,302.491 C 125.231,308.539 118.067,314.875 112.091,321.499 C 106.079,328.195 101.687,334.891 98.483,342.163 L 98.483,342.163 C 92.147,342.883 88.187,341.551 86.063,338.022 C 83.975,334.531 83.975,328.842 86.063,321.102 L 86.063,321.102 L 55.067,345.474 L 55.067,345.474 C 40.631,347.454 29.111,349.65 19.967,351.666 C 10.751,353.718 2.651,359.946 0.527,357.857 C -1.669,355.589 3.731,348.282 7.151,338.849 C 10.535,329.345 15.035,317.177 20.795,301.661 L 20.795,301.661 L 62.519,271.493 L 62.915,258.677 L 62.915,258.677 C 63.383,254.645 65.183,251.801 68.315,249.605 C 71.447,247.41 78.899,244.494 81.527,245.862 C 84.011,247.158 84.515,250.973 83.183,257.454 L 83.183,257.454 L 116.231,233.082 L 79.871,233.478 L 79.871,233.478 C 73.355,224.334 70.511,216.487 70.799,209.502 C 71.195,202.481 74.723,196.614 81.923,191.754 L 81.923,191.754 L 122.027,183.474 L 122.027,175.194 L 81.095,173.97 L 81.095,173.97 C 77.927,170.19 76.055,166.842 75.335,163.638 C 74.579,160.398 75.227,157.554 76.991,154.962 L 76.991,154.962 C 86.603,154.494 91.283,153.99 91.427,153.306 C 91.463,152.622 86.783,151.794 77.387,150.822 L 77.387,150.822 C 78.323,146.61 79.835,143.262 81.923,140.49 C 83.975,137.718 86.603,135.702 89.807,134.298 L 89.807,134.298 L 127.391,131.814 L 129.479,127.89 L 129.479,127.89 C 124.799,124.506 118.499,121.482 110.039,118.818 C 101.507,116.118 82.751,114.318 79.043,111.762 C 75.263,109.17 81.995,106.83 87.719,103.086 C 93.443,99.162 101.651,94.482 112.919,88.65 L 112.919,88.65 L 138.551,87.822 L 138.551,87.822 C 129.083,84.078 124.583,80.91 124.511,78.318 C 124.511,75.582 134.375,73.566 138.551,72.126 C 142.583,70.578 146.075,69.894 148.883,69.642 L 148.883,69.642 L 148.883,65.07 L 148.883,65.07 C 134.951,65.97 125.771,65.646 120.803,64.242 C 115.871,62.802 117.527,59.814 119.543,56.394 C 121.559,52.794 127.355,45.666 132.755,43.182 C 138.083,40.662 144.239,40.158 151.367,41.526 L 151.367,41.526 C 153.815,37.53 155.471,33.858 156.335,30.366 C 157.128,26.803 157.128,23.671 156.336,20.575 L 156.336,20.575 z M 265.813,90.919 C 273.588,91.603 281.256,92.215 289.501,93.043 C 297.709,93.727 304.837,94.951 314.485,95.455 C 323.989,95.923 334.464,95.995 346.345,95.815 L 346.345,95.815 C 336.372,98.119 326.401,99.307 316.032,99.235 C 305.52,99.127 292.848,96.751 284.388,95.455 C 275.893,94.015 269.88,92.503 265.813,90.919 L 265.813,90.919 z M 252.601,126.235 C 259.369,124.939 267.252,124.111 276.54,123.751 C 285.756,123.283 298.536,122.815 307.933,124.003 C 317.329,125.227 325.321,127.351 332.449,130.771 L 332.449,130.771 C 318.769,131.095 306.673,131.455 295.333,131.851 C 283.993,132.103 271.97,132.787 265.237,132.787 C 258.577,132.787 255.229,132.427 255.337,131.851 L 255.337,131.851 C 254.581,130.447 254.041,129.295 253.573,128.395 C 253.104,127.423 252.78,126.704 252.601,126.235 L 252.601,126.235 z M 288.528,178.436 C 299.184,177.392 310.92,176.672 324.42,176.132 C 337.92,175.592 352.5,175.376 368.845,175.34 L 368.845,175.34 L 364.956,182.324 L 364.956,182.324 C 340.836,181.208 322.872,180.344 309.948,179.732 C 297.168,179.047 290.076,178.615 288.528,178.436 L 288.528,178.436 z M 299.148,220.051 L 354.444,220.951 L 350.52,228.259 L 350.52,228.259 C 338.1,237.547 327.3,246.115 317.688,254.107 C 308.003,262.063 299.94,269.299 293.064,275.96 L 293.064,275.96 C 296.879,263.468 299.364,252.812 300.372,243.452 C 301.345,234.055 300.984,226.387 299.148,220.051 L 299.148,220.051 z "
   style="fill-rule:evenodd;stroke:#000000;stroke-width:0.036;stroke-miterlimit:10"
   id="path5" />
	<path
   d="M 162.312,21.943 C 158.532,18.919 156.696,16.651 156.516,14.743 C 156.408,12.835 156.336,12.367 161.448,10.711 C 166.416,8.983 178.512,5.455 186.504,4.411 C 194.388,3.259 201.876,2.503 208.968,4.231 C 215.952,5.923 224.268,11.503 228.228,14.743 C 232.152,17.947 233.268,20.611 232.116,23.167 L 232.116,23.167 C 231.9,20.719 229.308,20.071 224.052,21.079 C 218.688,22.087 208.968,27.739 200.724,29.142 C 192.264,30.402 181.536,30.15 174.948,28.962 C 168.432,27.739 164.4,25.399 162.312,21.943 L 162.312,21.943 z "
   style="fill:#a16121;fill-rule:evenodd;stroke:#000000;stroke-width:0.036;stroke-miterlimit:10"
   id="path7" />
	<path
   d="M 160.908,25.471 C 160.692,27.739 160.476,30.007 159.864,32.815 C 159.36,35.515 158.46,38.395 157.56,41.599 L 157.56,41.599 L 215.808,41.239 L 215.808,41.239 C 216.24,36.235 217.176,32.311 218.76,29.323 C 220.272,26.299 222.432,24.463 225.096,23.527 L 225.096,23.527 C 220.092,26.371 214.98,28.603 209.472,30.367 C 203.928,32.059 198.276,33.355 192.12,33.679 C 185.784,33.895 177.612,33.319 172.32,31.951 C 167.028,30.583 163.356,28.423 160.908,25.471 L 160.908,25.471 z "
   style="fill:#a16121;fill-rule:evenodd;stroke:#000000;stroke-width:0.036;stroke-miterlimit:10"
   id="path9" />
	<path
   d="M 183.336,10.387 C 175.488,11.323 170.772,12.727 168.792,14.743 C 166.668,16.651 166.488,20.683 171.6,22.123 C 176.712,23.491 191.472,24.175 199.644,23.347 C 207.852,22.375 217.464,19.027 220.164,17.047 C 222.648,14.995 219.624,12.691 214.548,11.935 C 209.184,11.179 195.864,12.079 189.312,12.835 C 182.688,13.483 175.632,14.815 175.632,16.147 C 175.596,17.407 183.12,20.107 189.312,20.359 C 195.396,20.287 211.848,17.443 212.28,16.687 C 212.532,15.895 205.764,15.607 191.436,15.823 L 191.436,15.823 C 195.36,14.959 198.96,14.491 202.812,14.419 C 206.592,14.311 212.316,14.599 213.864,15.283 C 215.34,16.003 214.764,17.335 211.596,18.451 C 208.104,19.351 200.184,20.827 194.208,21.079 C 188.232,21.187 179.592,20.611 176.352,19.495 C 173.04,18.271 171.816,15.643 174.768,14.239 C 177.648,12.799 186.504,11.611 193.704,11.071 C 200.832,10.351 212.28,9.775 217.212,10.711 C 221.964,11.683 224.088,14.815 222.468,17.047 C 220.632,19.207 213.72,22.267 207.024,23.707 C 200.112,24.967 189.564,25.867 182.472,25.291 C 175.416,24.607 167.604,22.303 165.3,20.179 C 162.996,18.019 165.732,14.059 168.792,12.475 C 171.852,10.783 176.568,10.135 183.336,10.387 L 183.336,10.387 z "
   style="fill-rule:evenodd;stroke:#000000;stroke-width:0.036;stroke-miterlimit:10"
   id="path11" />
	<path
   d="M 152.664,64.675 L 152.664,68.887 L 152.664,68.887 C 160.584,67.591 166.704,66.439 171.42,65.575 C 176.064,64.675 181.932,63.451 180.564,63.451 C 178.944,63.379 167.424,64.747 162.672,65.035 C 158.028,65.288 154.644,65.035 152.664,64.675 L 152.664,64.675 z "
   style="fill:#a16121;fill-rule:evenodd;stroke:#000000;stroke-width:0.036;stroke-miterlimit:10"
   id="path13" />
	<path
   d="M 197.736,43.651 C 185.208,44.371 174.372,44.731 164.4,44.875 C 154.392,44.875 144.924,43.255 138.624,44.335 C 132.324,45.415 129.66,48.727 126.888,51.355 C 124.008,53.983 119.832,57.907 121.992,59.779 C 124.188,61.435 131.676,61.435 140.028,61.867 C 148.416,62.299 163.104,62.479 171.6,62.407 C 179.88,62.191 188.484,60.679 189.492,61.363 C 190.212,62.083 183.912,64.963 176.856,66.799 C 169.728,68.527 155.004,70.327 147.408,72.055 C 139.74,73.675 134.052,75.295 131.46,76.627 C 128.796,77.743 130.74,78.535 131.604,79.579 C 132.468,80.695 134.196,81.739 136.356,83.107 C 138.372,84.367 140.784,85.663 143.736,87.139 L 143.736,87.139 C 159.9,86.491 172.284,85.987 181.428,85.915 C 190.428,85.699 195.972,85.915 197.916,86.275 L 197.916,86.275 C 196.656,82.603 196.692,80.839 197.736,80.983 C 198.852,81.127 200.976,83.179 204.396,87.139 L 204.396,87.139 C 218.616,86.743 232.188,86.851 245.94,87.319 C 259.62,87.751 273.192,88.903 286.116,89.947 C 299.004,90.991 312.36,92.467 322.584,93.259 C 332.628,93.907 334.969,94.195 346.272,93.979 C 357.612,93.511 377.339,91.711 389.904,91.351 C 402.396,91.063 411.792,91.423 420.432,92.035 C 428.784,92.467 434.148,93.367 440.411,94.159 C 446.603,94.879 452.399,95.635 457.8,96.427 L 457.8,96.427 C 453.875,92.395 452.291,88.147 453.048,83.287 C 453.839,78.427 458.087,71.551 462.335,67.663 C 466.439,63.703 471.48,61.075 477.6,59.779 L 477.6,59.779 C 467.627,57.907 454.667,56.503 438.144,55.567 C 421.44,54.523 396.276,54.271 379.032,53.983 C 361.644,53.695 345.12,54.739 335.724,53.623 C 326.4,52.399 322.62,50.131 323.808,46.819 L 323.808,46.819 C 318.012,48.835 310.992,50.275 302.604,50.995 C 294.072,51.643 281.076,52.219 273.48,51.175 C 265.884,49.951 264.587,45.847 257.352,44.695 C 249.863,43.543 237.515,44.443 229.631,44.335 C 221.711,44.191 215.519,43.975 210.515,43.831 L 210.515,43.831 L 197.736,43.651 L 197.736,43.651 z "
   style="fill:#a16121;fill-rule:evenodd;stroke:#000000;stroke-width:0.036;stroke-miterlimit:10"
   id="path15" />
	<path
   d="M 430.765,95.204 L 428.317,99.596 L 428.317,99.596 C 411.145,97.868 398.725,96.68 390.625,95.888 C 382.489,95.024 379.249,95.384 379.934,95.024 C 380.581,94.52 387.386,93.728 394.118,93.62 C 400.67,93.512 413.162,93.98 419.39,94.34 C 425.473,94.591 429.217,94.879 430.765,95.204 L 430.765,95.204 z "
   style="fill:#a16121;fill-rule:evenodd;stroke:#000000;stroke-width:0.036;stroke-miterlimit:10"
   id="path17" />
	<path
   d="M 393.433,50.491 C 394.836,48.475 395.701,46.351 395.88,43.831 C 396.061,41.275 395.7,38.575 394.656,35.587 L 394.656,35.587 C 401.64,38.683 408.444,40.627 415.356,41.707 C 422.16,42.643 428.676,42.643 435.876,41.707 C 443.076,40.663 454.813,36.271 458.305,35.911 C 461.58,35.443 457.693,36.631 456.217,39.619 C 454.668,42.607 452.437,47.287 449.376,53.803 L 449.376,53.803 C 432.816,52.435 420.181,51.319 410.784,50.851 C 401.353,50.347 395.7,50.095 393.433,50.491 L 393.433,50.491 z "
   style="fill:#a16121;fill-rule:evenodd;stroke:#000000;stroke-width:0.036;stroke-miterlimit:10"
   id="path19" />
	<path
   d="M 389.904,31.195 C 389.904,31.195 392.712,32.599 396.42,33.823 C 400.128,35.047 405.996,37.567 412.009,38.575 C 418.021,39.511 424.969,40.159 432.168,39.619 C 439.404,39.043 449.7,36.487 454.992,35.227 C 460.212,33.967 462.984,34.039 463.381,32.059 C 463.74,30.08 460.824,26.299 457.261,23.491 C 453.697,20.647 449.088,16.651 442.177,15.247 C 435.229,13.879 423.492,14.131 416.04,15.247 C 408.624,16.327 402.396,19.027 398.004,21.727 C 393.612,24.391 389.904,31.195 389.904,31.195 L 389.904,31.195 z "
   style="fill:#a16121;fill-rule:evenodd;stroke:#000000;stroke-width:0.036;stroke-miterlimit:10"
   id="path21" />
	<path
   d="M 426.732,28.027 C 425.724,28.207 420.72,27.991 421.152,27.523 C 421.44,26.911 425.616,25.111 428.676,24.895 C 431.663,24.679 438.864,25.147 439.188,26.299 C 439.332,27.307 434.508,30.691 430.26,31.195 C 425.94,31.555 415.787,30.403 413.951,29.251 C 412.187,27.991 415.823,25.759 419.567,24.355 C 423.13,22.951 430.943,20.647 435.515,21.187 C 440.051,21.655 445.775,25.003 446.567,27.343 C 447.287,29.611 445.559,33.787 439.727,34.867 C 433.679,35.767 417.947,34.399 411.143,33.139 C 404.267,31.771 396.203,29.503 399.047,27.163 C 401.927,24.715 419.818,19.747 428.135,18.919 C 436.414,18.055 442.715,19.927 448.151,21.907 C 453.443,23.779 459.383,29.719 459.707,30.151 C 459.743,30.403 453.371,25.759 449.195,23.995 C 444.983,22.123 440.015,20.071 434.975,19.783 C 429.863,19.495 424.319,21.151 419.027,22.411 C 413.591,23.491 404.015,25.435 403.079,26.983 C 402.251,28.531 408.443,30.763 413.592,31.879 C 418.596,32.851 427.848,33.067 432.888,32.959 C 437.82,32.779 441.671,32.167 443.039,30.835 C 444.191,29.431 442.607,26.047 440.231,24.715 C 437.819,23.275 432.455,22.303 428.855,22.771 C 425.111,23.203 418.307,25.831 418.163,27.163 C 418.056,28.387 424.787,29.647 427.811,29.971 C 430.691,30.187 435.334,28.675 435.334,28.207 C 435.154,27.595 428.71,26.407 427.271,26.443 C 425.868,26.299 427.632,27.847 426.732,28.027 L 426.732,28.027 z "
   style="fill-rule:evenodd;stroke:#000000;stroke-width:0.036;stroke-miterlimit:10"
   id="path23" />
	<path
   d="M 479.868,61.867 C 476.305,61.975 472.92,64.135 469.717,66.259 C 466.404,68.203 463.2,70.903 460.933,73.963 C 458.701,76.951 456.54,80.587 456.54,84.331 C 456.469,88.111 457.836,93.871 460.933,96.067 C 464.029,98.047 470.941,98.767 475.153,96.427 C 479.293,93.907 483.073,86.419 485.665,81.343 C 488.186,76.195 491.138,68.923 490.237,65.755 C 489.192,62.479 483.288,61.688 479.868,61.867 L 479.868,61.867 z "
   style="fill:#a16121;fill-rule:evenodd;stroke:#000000;stroke-width:0.036;stroke-miterlimit:10"
   id="path25" />
	<path
   d="M 473.929,68.708 C 467.809,72.056 463.956,75.44 461.977,79.256 C 460.033,83.036 460.897,88.436 462.336,91.172 C 463.668,93.728 466.62,96.284 470.076,94.664 C 473.496,92.9 480.301,85.376 482.856,80.984 C 485.196,76.448 486.384,69.608 484.62,68.384 C 482.784,67.268 475.44,71.732 472.164,74.144 C 468.708,76.484 465.324,79.4 464.784,82.208 C 464.28,84.944 467.053,91.028 469.356,90.452 C 471.516,89.732 478.248,79.436 478.284,78.176 C 478.212,76.808 475.44,78.464 469.536,82.748 L 469.536,82.748 C 471.876,79.004 473.964,76.736 475.656,76.088 C 477.348,75.44 479.94,76.592 479.688,78.716 C 479.255,80.84 475.692,85.808 473.568,88.184 C 471.444,90.308 468.528,92.828 466.908,91.856 C 465.108,90.776 462.588,85.34 463.381,82.208 C 464.172,78.932 468.349,75.512 471.444,72.92 C 474.468,70.364 478.284,67.736 481.091,66.98 C 483.648,66.008 486.671,65.648 487.247,67.844 C 487.787,70.076 486.707,75.908 484.439,80.48 C 481.955,84.98 476.915,92.252 473.207,94.664 C 469.392,96.896 465.035,95.996 462.516,94.34 C 460.032,92.612 458.087,88.148 458.484,84.692 C 458.772,81.092 461.868,75.944 464.46,73.28 C 467.053,70.543 470.112,69.067 473.929,68.708 L 473.929,68.708 z "
   style="fill-rule:evenodd;stroke:#000000;stroke-width:0.036;stroke-miterlimit:10"
   id="path27" />
	<path
   d="M 333.097,83.611 C 347.172,80.659 360.817,78.967 374.857,78.535 C 388.789,78.031 404.593,81.019 416.581,80.983 C 428.497,80.875 438.182,79.939 446.029,78.175 L 446.029,78.175 C 440.845,81.091 433.717,82.639 424.105,83.107 C 414.313,83.395 400.093,80.911 388.681,80.659 C 377.197,80.371 366.397,80.659 356.424,81.523 C 346.416,82.351 333.097,85.123 329.244,85.555 C 325.393,85.843 326.544,85.195 333.097,83.611 L 333.097,83.611 z "
   style="fill-rule:evenodd;stroke:#000000;stroke-width:0.036;stroke-miterlimit:10"
   id="path29" />
	<path
   d="M 362.904,84.511 C 368.448,84.043 377.556,83.143 386.052,83.467 C 394.476,83.719 414.06,85.411 412.728,85.915 C 410.964,86.347 386.844,85.951 376.764,86.095 C 366.684,86.239 355.415,86.347 353.112,86.275 C 350.809,85.951 357.36,84.907 362.904,84.511 L 362.904,84.511 z "
   style="fill-rule:evenodd;stroke:#000000;stroke-width:0.036;stroke-miterlimit:10"
   id="path31" />
	<path
   d="M 282.084,86.275 C 280.681,84.907 275.784,81.019 276.288,78.355 C 276.756,75.583 284.532,70.255 284.892,70.291 C 285.072,70.363 277.764,75.943 277.692,78.715 C 277.692,81.379 283.632,84.763 284.532,86.095 C 285.145,87.391 283.488,87.5 282.084,86.275 L 282.084,86.275 z "
   style="fill-rule:evenodd;stroke:#000000;stroke-width:0.036;stroke-miterlimit:10"
   id="path33" />
	<path
   d="M 270.313,80.983 C 269.557,79.543 269.701,78.967 271.717,76.771 C 273.805,74.395 282.517,67.483 282.445,67.159 C 282.121,66.835 272.617,72.451 270.313,74.863 C 267.937,77.203 267.973,79.255 268.765,81.163 C 269.593,82.999 274.849,85.483 275.244,85.555 C 275.46,85.483 270.853,82.387 270.313,80.983 L 270.313,80.983 z "
   style="fill-rule:evenodd;stroke:#000000;stroke-width:0.036;stroke-miterlimit:10"
   id="path35" />
	<path
   d="M 268.908,70.471 C 266.784,71.623 265.2,72.739 264.012,73.963 C 262.787,75.187 262.032,76.231 261.743,77.491 L 261.743,77.491 C 237.767,78.211 223.655,78.751 218.578,79.255 C 213.574,79.759 224.698,80.155 231.934,80.299 C 239.098,80.371 248.782,80.191 261.383,79.759 L 261.383,79.759 C 264.586,83.791 266.53,85.915 267.359,86.275 C 268.115,86.455 266.459,83.359 266.135,81.703 C 265.702,80.047 264.37,78.499 265.055,76.771 C 265.775,74.935 269.374,72.235 270.166,71.191 C 270.816,70.075 270.349,69.931 268.908,70.471 L 268.908,70.471 z "
   style="fill-rule:evenodd;stroke:#000000;stroke-width:0.036;stroke-miterlimit:10"
   id="path37" />
	<path
   d="M 227.904,54.343 C 244.932,53.911 258.721,54.199 269.809,55.207 C 280.825,56.071 285.217,60.535 293.821,60.139 C 302.389,59.779 311.317,57.331 321.001,52.939 L 321.001,52.939 C 311.461,56.107 302.894,57.691 294.865,57.835 C 286.802,57.871 282.517,54.667 272.977,53.623 C 263.185,52.471 247.02,51.499 237.552,51.535 C 228.048,51.499 218.508,53.119 216.852,53.623 C 215.232,54.055 218.868,54.343 227.904,54.343 L 227.904,54.343 z "
   style="fill-rule:evenodd;stroke:#000000;stroke-width:0.036;stroke-miterlimit:10"
   id="path39" />
	<path
   d="M 292.956,63.991 C 297.06,63.307 306.889,63.307 313.296,62.047 C 319.668,60.571 330.649,55.675 330.828,56.107 C 330.792,56.503 320.712,63.055 313.656,64.675 C 306.456,66.187 292.272,65.647 288.744,65.575 C 285.252,65.359 288.78,64.604 292.956,63.991 L 292.956,63.991 z "
   style="fill-rule:evenodd;stroke:#000000;stroke-width:0.036;stroke-miterlimit:10"
   id="path41" />
	<path
   d="M 321.181,65.575 C 324.277,64.495 329.46,63.667 333.817,62.407 C 337.993,61.039 346.741,57.727 346.597,58.015 C 346.273,58.303 337.849,62.299 332.593,64.171 C 327.265,65.863 317.076,68.095 315.204,68.383 C 313.296,68.491 317.977,66.583 321.181,65.575 L 321.181,65.575 z "
   style="fill-rule:evenodd;stroke:#000000;stroke-width:0.036;stroke-miterlimit:10"
   id="path43" />
	<path
   d="M 129.696,57.151 C 134.304,57.763 156.624,59.095 169.152,59.059 C 181.572,58.915 202.056,56.503 203.532,56.288 C 204.72,55.964 187.476,57.224 177.216,57.152 C 166.92,57.044 150.252,55.496 142.332,55.568 C 134.376,55.604 125.124,56.503 129.696,57.151 L 129.696,57.151 z "
   style="fill-rule:evenodd;stroke:#000000;stroke-width:0.036;stroke-miterlimit:10"
   id="path45" />
	<path
   d="M 189.132,75.907 C 193.776,75.259 202.92,74.899 210.876,74.683 C 218.688,74.395 237.552,73.999 235.788,74.323 C 233.7,74.647 208.5,75.727 199.644,76.447 C 190.716,76.987 185.136,78.211 183.336,78.175 C 181.536,77.923 184.488,76.52 189.132,75.907 L 189.132,75.907 z "
   style="fill-rule:evenodd;stroke:#000000;stroke-width:0.036;stroke-miterlimit:10"
   id="path47" />
	<path
   d="M 198.348,87.571 C 199.212,90.271 200.004,93.223 200.724,96.427 C 201.336,99.559 202.524,101.395 202.488,106.507 C 202.38,111.583 201.588,118.315 200.112,126.847 L 200.112,126.847 C 181.248,127.387 166.452,127.531 154.896,127.423 C 143.34,127.207 135.708,126.739 131.424,125.875 L 131.424,125.875 C 131.784,123.103 131.316,121.195 130.02,119.755 C 128.544,118.351 122.856,118.819 123.504,117.559 C 124.188,116.227 132.756,113.563 134.196,111.655 C 135.456,109.531 133.368,107.119 131.424,105.535 C 129.372,103.843 124.512,103.951 122.532,101.971 C 120.516,99.991 120.696,95.563 119.58,93.691 C 118.32,91.675 117.06,90.487 115.404,90.127 L 115.404,90.127 C 128.4,90.019 140.46,89.911 152.556,89.515 C 164.472,89.011 179.016,88.291 186.756,87.931 C 194.388,87.571 198.204,87.5 198.348,87.571 L 198.348,87.571 z "
   style="fill:#a16121;fill-rule:evenodd;stroke:#000000;stroke-width:0.036;stroke-miterlimit:10"
   id="path49" />
	<path
   d="M 140.1,98.407 C 142.404,98.155 170.16,97.147 179.772,97.039 C 189.168,96.751 198.6,96.751 196.548,97.039 C 194.136,97.291 176.28,98.335 166.74,98.623 C 157.128,98.839 138.012,98.624 140.1,98.407 L 140.1,98.407 z "
   style="fill-rule:evenodd;stroke:#000000;stroke-width:0.036;stroke-miterlimit:10"
   id="path51" />
	<path
   d="M 152.556,103.555 C 171.096,103.015 182.292,103.015 186.684,103.159 C 190.896,103.411 188.196,103.807 178.188,104.743 L 178.188,104.743 C 177.36,107.479 177.36,110.395 178.188,113.635 C 178.944,116.875 182.94,123.319 182.94,124.075 C 182.832,124.651 178.836,120.727 177.612,117.559 C 176.316,114.355 175.524,110.215 175.236,105.139 L 175.236,105.139 C 167.676,105.283 161.628,105.283 156.696,105.139 C 151.764,104.959 146.724,104.347 146.04,104.131 C 145.32,103.807 147.444,103.664 152.556,103.555 L 152.556,103.555 z "
   style="fill-rule:evenodd;stroke:#000000;stroke-width:0.036;stroke-miterlimit:10"
   id="path53" />
	<path
   d="M 169.728,108.271 C 170.196,109.315 170.088,113.383 171.492,116.191 C 172.824,118.927 178.152,123.571 178.188,124.291 C 178.044,124.867 173.22,122.059 171.492,119.755 C 169.8,117.307 168.36,111.943 168.144,110.071 C 167.856,108.055 169.08,107.228 169.728,108.271 L 169.728,108.271 z "
   style="fill-rule:evenodd;stroke:#000000;stroke-width:0.036;stroke-miterlimit:10"
   id="path55" />
	<path
   d="M 181.752,113.419 C 182.364,115.327 184.416,120.259 186.108,122.095 C 187.692,123.823 191.112,124.687 191.22,124.291 C 191.076,123.751 187.62,121.843 186.108,119.539 C 184.56,117.127 183.12,111.259 182.364,110.251 C 181.536,109.243 181.14,111.367 181.752,113.419 L 181.752,113.419 z "
   style="fill-rule:evenodd;stroke:#000000;stroke-width:0.036;stroke-miterlimit:10"
   id="path57" />
	<path
   d="M 113.064,90.919 C 115.908,93.835 117.96,96.463 119.364,98.803 C 120.696,101.071 119.256,103.231 121.164,104.743 C 123,106.075 128.796,106.327 130.632,107.299 C 132.288,108.235 133.08,109.171 131.604,110.647 C 129.948,112.087 122.928,114.463 121.524,115.975 C 120.228,117.343 122.136,118.603 123.504,119.359 C 124.728,120.079 127.752,119.611 128.832,120.727 C 129.768,121.843 130.164,123.571 129.624,126.055 L 129.624,126.055 C 123.936,122.671 118.464,119.971 112.668,117.955 C 106.8,115.831 100.356,114.715 95.28,113.635 C 90.06,112.519 81.312,111.547 82.644,110.863 C 84.12,109.999 101.724,109.171 103.776,108.667 C 105.54,107.983 97.584,107.659 94.092,107.695 C 90.564,107.659 84.156,109.459 83.04,109.063 C 81.888,108.595 84.264,107.155 87.396,105.319 C 90.564,103.411 97.404,100.423 101.796,98.011 C 106.08,95.635 109.788,93.223 113.064,90.919 L 113.064,90.919 z "
   style="fill:#a16121;fill-rule:evenodd;stroke:#000000;stroke-width:0.036;stroke-miterlimit:10"
   id="path59" />
	<path
   d="M 108.132,99.02 C 109.608,99.524 110.832,100.316 111.66,101.396 C 112.488,102.476 112.956,103.736 113.064,105.32 L 113.064,105.32 L 107.736,106.112 L 111.48,104.528 L 111.48,104.528 C 111.408,103.16 110.94,102.044 110.472,101.18 C 109.824,100.208 109.176,99.487 108.132,99.02 L 108.132,99.02 z "
   style="fill-rule:evenodd;stroke:#000000;stroke-width:0.036;stroke-miterlimit:10"
   id="path61" />
	<path
   d="M 116.808,107.875 C 117.816,109.603 118.212,111.223 118.392,112.447 C 118.536,113.635 118.068,114.715 117.384,115.399 L 117.384,115.399 L 110.076,113.995 L 116.808,114.211 L 116.808,114.211 C 117.204,113.779 117.348,113.059 117.384,112.051 C 117.348,110.899 117.204,109.639 116.808,107.875 L 116.808,107.875 z "
   style="fill-rule:evenodd;stroke:#000000;stroke-width:0.036;stroke-miterlimit:10"
   id="path63" />
	<path
   d="M 102.192,110.647 L 112.848,110.251 L 112.848,110.251 C 110.22,111.079 108.096,111.547 106.332,111.655 C 104.496,111.691 103.164,111.403 102.192,110.647 L 102.192,110.647 z "
   style="fill-rule:evenodd;stroke:#000000;stroke-width:0.036;stroke-miterlimit:10"
   id="path65" />
	<path
   d="M 132.612,128.035 C 149.208,128.323 157.02,128.827 156.876,129.403 C 156.552,130.015 147.912,130.699 130.812,131.599 L 130.812,131.599 C 131.388,130.411 132,129.223 132.612,128.035 L 132.612,128.035 z "
   style="fill:#a16121;fill-rule:evenodd;stroke:#000000;stroke-width:0.036;stroke-miterlimit:10"
   id="path67" />
	<path
   d="M 198.744,129.403 C 196.404,134.335 193.488,139.555 189.852,145.207 C 186.036,150.859 180.744,158.563 177.036,163.171 C 173.364,167.743 170.448,170.587 168.144,172.243 L 168.144,172.243 C 153.78,173.107 139.776,173.503 125.304,173.431 C 110.832,173.359 96.612,172.675 82.068,171.667 L 82.068,171.667 C 79.872,167.671 78.648,164.539 78.108,161.983 C 77.604,159.427 77.928,157.591 79.08,156.475 L 79.08,156.475 C 87.648,156.403 92.94,155.935 95.1,155.071 C 97.116,154.099 94.488,152.083 91.932,151.111 C 89.376,150.103 85.524,149.455 80.088,149.167 L 80.088,149.167 C 82.068,145.135 84.156,142.147 86.208,140.059 C 88.296,137.935 90.348,136.819 92.508,136.711 L 92.508,136.711 C 111.624,135.127 127.824,133.975 141.684,132.967 C 155.436,131.995 165.408,131.275 175.056,130.807 C 184.668,130.195 192.336,129.728 198.744,129.403 L 198.744,129.403 z "
   style="fill:#a16121;fill-rule:evenodd;stroke:#000000;stroke-width:0.036;stroke-miterlimit:10"
   id="path69" />
	<path
   d="M 175.632,141.067 C 171.06,140.923 161.088,141.247 153.924,141.463 C 146.58,141.643 130.632,141.859 132.612,142.255 C 134.7,142.435 158.208,143.263 166.344,143.227 C 174.444,143.083 179.124,142.255 180.78,141.859 C 182.22,141.463 180.132,141.104 175.632,141.067 L 175.632,141.067 z "
   style="fill-rule:evenodd;stroke:#000000;stroke-width:0.036;stroke-miterlimit:10"
   id="path71" />
	<path
   d="M 111.264,147.763 C 119.688,147.439 153.708,147.511 158.46,147.979 C 162.816,148.339 146.76,149.707 138.336,150.139 C 129.84,150.427 113.1,150.319 108.528,149.959 C 103.956,149.527 102.876,148.051 111.264,147.763 L 111.264,147.763 z "
   style="fill-rule:evenodd;stroke:#000000;stroke-width:0.036;stroke-miterlimit:10"
   id="path73" />
	<path
   d="M 107.124,155.683 C 113.28,155.431 127.824,155.935 138.12,156.655 C 148.236,157.303 168.756,159.463 167.748,159.823 C 166.416,160.111 142.296,158.887 131.208,158.635 C 120.048,158.239 105.9,158.059 101.796,157.663 C 97.764,157.087 100.968,155.827 107.124,155.683 L 107.124,155.683 z "
   style="fill-rule:evenodd;stroke:#000000;stroke-width:0.036;stroke-miterlimit:10"
   id="path75" />
	<path
   d="M 119.364,168.896 C 120.732,169.148 139.92,169.076 148.2,169.112 C 156.264,169.004 168.936,169.004 167.748,168.716 C 166.308,168.284 148.812,167.312 140.676,167.312 C 132.468,167.239 118.14,168.607 119.364,168.896 L 119.364,168.896 z "
   style="fill-rule:evenodd;stroke:#000000;stroke-width:0.036;stroke-miterlimit:10"
   id="path77" />
	<path
   d="M 124.692,175.699 L 124.908,182.827 L 124.908,182.827 C 134.556,181.783 142.368,181.171 148.776,180.847 C 155.148,180.523 159.684,180.631 162.816,181.027 L 162.816,181.027 L 167.136,174.331 L 167.136,174.331 C 154.932,174.871 145.428,175.267 138.336,175.519 C 131.244,175.771 126.744,175.735 124.692,175.699 L 124.692,175.699 z "
   style="fill:#a16121;fill-rule:evenodd;stroke:#000000;stroke-width:0.036;stroke-miterlimit:10"
   id="path79" />
	<path
   d="M 162.024,183.223 C 150.288,183.187 138.3,184.087 125.088,185.779 C 111.84,187.435 98.304,189.883 83.652,193.267 L 83.652,193.267 C 76.884,196.723 73.572,201.619 73.176,208.098 C 72.816,214.506 75.696,222.354 81.672,231.786 L 81.672,231.786 C 94.272,231.353 106.044,230.922 117.384,230.202 C 128.724,229.446 139.092,228.689 149.172,227.645 L 149.172,227.645 C 148.2,219.942 148.848,212.561 150.972,205.11 C 153.132,197.624 156.768,190.459 162.024,183.223 L 162.024,183.223 z "
   style="fill:#a16121;fill-rule:evenodd;stroke:#000000;stroke-width:0.036;stroke-miterlimit:10"
   id="path81" />
	<path
   d="M 142.476,202.555 C 137.58,202.843 121.416,204.931 115.224,205.903 C 108.996,206.803 103.02,207.74 105.36,207.883 C 107.628,207.811 122.604,206.911 129.048,206.299 C 135.456,205.615 141.54,204.715 143.844,204.139 C 146.076,203.527 147.192,202.159 142.476,202.555 L 142.476,202.555 z "
   style="fill-rule:evenodd;stroke:#000000;stroke-width:0.036;stroke-miterlimit:10"
   id="path83" />
	<path
   d="M 117.996,227.035 C 117.132,226.098 115.728,225.595 113.64,223.291 C 111.444,220.807 105.72,212.671 105.36,212.635 C 105,212.671 108.96,219.979 111.264,222.895 C 113.352,225.488 117.456,228.116 118.572,228.835 C 119.616,229.339 118.824,228.043 117.996,227.035 L 117.996,227.035 z "
   style="fill-rule:evenodd;stroke:#000000;stroke-width:0.036;stroke-miterlimit:10"
   id="path85" />
	<path
   d="M 99.636,213.031 C 100.212,215.047 101.652,220.663 103.56,223.47 C 105.288,226.242 110.184,229.518 110.472,229.41 C 110.58,229.05 106.908,225.126 105.144,222.101 C 103.308,218.897 101.148,213.03 100.212,211.446 C 99.312,209.898 98.988,210.979 99.636,213.031 L 99.636,213.031 z "
   style="fill-rule:evenodd;stroke:#000000;stroke-width:0.036;stroke-miterlimit:10"
   id="path87" />
	<path
   d="M 88.188,223.471 C 91.176,223.183 104.532,219.043 113.244,218.143 C 121.884,217.135 138.516,218.179 139.524,217.963 C 140.28,217.567 125.484,216.307 118.176,216.559 C 110.832,216.847 100.608,218.503 95.676,219.727 C 90.528,220.951 85.308,223.543 88.188,223.471 L 88.188,223.471 z "
   style="fill-rule:evenodd;stroke:#000000;stroke-width:0.036;stroke-miterlimit:10"
   id="path89" />
	<path
   d="M 96.648,224.479 C 100.212,223.543 110.868,220.952 117.78,220.735 C 124.476,220.483 137.22,223.004 137.148,223.292 C 136.968,223.364 123.936,221.563 117.204,221.924 C 110.256,222.284 99.96,225.2 96.468,225.668 C 93.012,225.991 93.12,225.271 96.648,224.479 L 96.648,224.479 z "
   style="fill-rule:evenodd;stroke:#000000;stroke-width:0.036;stroke-miterlimit:10"
   id="path91" />
	<path
   d="M 121.74,232.579 C 114.216,238.951 107.448,244.279 101.004,248.959 C 94.524,253.531 88.656,257.274 83.256,260.19 L 83.256,260.19 C 82.788,262.314 82.788,264.079 83.652,265.338 C 84.408,266.634 84.876,267.75 87.972,267.714 C 90.996,267.534 95.496,266.418 101.616,264.366 L 101.616,264.366 C 99.06,267.641 96.144,269.694 92.724,270.666 C 89.196,271.565 83.04,271.674 81.06,269.874 C 79.08,268.002 78.972,264.582 80.88,259.614 L 80.88,259.614 C 79.188,263.429 77.064,265.662 74.364,266.309 C 71.628,266.849 68.568,265.805 64.896,263.177 L 64.896,263.177 C 63.96,270.305 63.708,275.778 64.284,279.738 C 64.752,283.626 65.58,284.634 68.028,286.649 C 70.44,288.593 77.928,290.213 78.684,291.221 C 79.224,292.158 74.58,292.553 71.988,291.977 C 69.396,291.221 66.552,289.565 63.312,286.866 L 63.312,286.866 C 61.548,292.086 59.568,295.83 56.976,298.494 C 54.384,301.086 47.904,303.282 48.084,302.454 C 48.12,301.446 55.608,296.406 57.768,293.166 C 59.892,289.817 60.36,286.578 61.116,283.302 C 61.872,280.027 62.268,276.966 62.304,273.834 L 62.304,273.834 C 51.648,282.402 43.26,289.062 36.852,293.958 C 30.444,298.782 26.16,301.698 24,302.85 L 24,302.85 C 22.74,305.442 22.812,307.027 24.216,307.602 C 25.656,308.071 30.12,305.982 32.316,306.199 C 34.332,306.379 33.324,308.394 36.636,308.791 C 40.02,308.935 47.976,307.099 52.044,307.999 C 56.004,308.971 58.56,311.095 60.144,314.515 L 60.144,314.515 C 56.292,318.727 54.492,321.679 54.204,323.767 C 53.988,325.819 55.464,326.612 58.776,326.539 L 58.776,326.539 C 59.856,329.527 60.324,332.299 60.324,334.459 C 60.252,336.583 59.604,338.491 58.38,339.787 L 58.38,339.787 C 64.824,333.883 72.996,326.898 83.436,318.438 C 93.84,309.871 105.972,300.367 120.372,289.243 L 120.372,289.243 L 99.24,290.035 L 99.24,290.035 C 96.9,286.111 96.288,282.438 97.26,279.163 C 98.232,275.743 101.184,272.394 105.144,270.091 C 109.068,267.679 113.964,266.131 120.372,265.159 L 120.372,265.159 L 164.4,260.803 L 164.4,260.803 C 160.044,256.303 156.66,251.551 154.104,246.403 C 151.584,241.183 149.892,235.855 149.172,229.988 L 149.172,229.988 C 144.96,230.563 140.748,231.139 136.14,231.572 C 131.532,232.003 126.78,232.291 121.74,232.579 L 121.74,232.579 z "
   style="fill:#a16121;fill-rule:evenodd;stroke:#000000;stroke-width:0.036;stroke-miterlimit:10"
   id="path93" />
	<path
   d="M 102.984,257.851 C 106.548,254.935 119.112,245.935 123.324,243.631 C 127.284,241.327 128.112,243.271 127.464,244.603 C 126.78,245.864 119.724,251.408 119.364,251.515 C 118.86,251.515 124.872,245.899 124.908,245.215 C 124.872,244.387 122.964,244.963 119.184,247.375 C 115.26,249.931 104.676,258.031 102.012,260.011 C 99.24,261.631 99.384,260.587 102.984,257.851 L 102.984,257.851 z "
   style="fill-rule:evenodd;stroke:#000000;stroke-width:0.036;stroke-miterlimit:10"
   id="path95" />
	<path
   d="M 121.344,256.843 C 124.836,253.495 135.96,244.351 139.308,242.047 C 142.512,239.707 144.096,239.707 140.712,243.019 C 137.148,246.332 121.812,259.147 118.572,261.595 C 115.44,263.863 117.708,260.011 121.344,256.843 L 121.344,256.843 z "
   style="fill-rule:evenodd;stroke:#000000;stroke-width:0.036;stroke-miterlimit:10"
   id="path97" />
	<path
   d="M 85.596,293.563 C 80.772,296.948 76.632,300.043 73.176,302.851 C 69.612,305.66 66.912,307.963 64.68,310.16 L 64.68,310.16 C 64.392,309.223 63.996,308.107 63.096,307.208 C 62.16,306.128 59.316,303.14 59.568,304.22 C 59.784,305.192 63.6,308.972 64.5,313.328 C 65.292,317.647 64.104,327.979 64.68,329.888 C 65.256,331.617 67.056,327.008 67.452,323.984 C 67.668,320.888 67.164,316.785 66.084,311.529 L 66.084,311.529 C 71.16,307.533 75.732,303.789 80.088,300.297 C 84.444,296.625 90.888,291.585 91.932,290.433 C 92.76,289.279 90.78,290.323 85.596,293.563 L 85.596,293.563 z "
   style="fill-rule:evenodd;stroke:#000000;stroke-width:0.036;stroke-miterlimit:10"
   id="path99" />
	<path
   d="M 80.664,303.823 C 80.556,305.299 81.852,309.115 82.068,311.527 C 82.14,313.903 81.312,317.827 81.672,317.863 C 82.032,317.646 84.048,313.686 84.228,311.131 C 84.336,308.503 82.968,304.075 82.464,302.851 C 81.744,301.519 80.772,302.347 80.664,303.823 L 80.664,303.823 z "
   style="fill-rule:evenodd;stroke:#000000;stroke-width:0.036;stroke-miterlimit:10"
   id="path101" />
	<path
   d="M 74.94,311.131 C 75.516,312.355 75.588,314.407 75.552,316.459 C 75.372,318.511 74.148,323.047 73.968,322.975 C 73.608,322.651 74.004,317.431 73.752,315.091 C 73.392,312.607 72.24,309.943 72.384,309.187 C 72.672,308.467 74.22,309.907 74.94,311.131 L 74.94,311.131 z "
   style="fill-rule:evenodd;stroke:#000000;stroke-width:0.036;stroke-miterlimit:10"
   id="path103" />
	<path
   d="M 57.984,283.699 C 57.732,283.339 55.14,287.623 52.44,290.43 C 49.668,293.058 41.82,298.998 41.964,299.502 C 42.072,299.862 50.496,295.614 53.232,292.986 C 55.932,290.179 57.984,284.167 57.984,283.699 L 57.984,283.699 z "
   style="fill-rule:evenodd;stroke:#000000;stroke-width:0.036;stroke-miterlimit:10"
   id="path105" />
	<path
   d="M 75.732,271.854 C 78.828,275.634 81.816,277.615 85.236,278.19 C 88.584,278.73 91.824,277.47 95.496,274.806 L 95.496,274.806 C 92.904,276.462 90.096,277.111 86.784,276.606 C 83.472,276.066 79.836,274.482 75.732,271.854 L 75.732,271.854 z "
   style="fill-rule:evenodd;stroke:#000000;stroke-width:0.036;stroke-miterlimit:10"
   id="path107" />
	<path
   d="M 75.948,280.135 C 76.992,282.547 78.504,283.951 80.88,284.491 C 83.184,284.995 86.1,284.491 89.772,283.123 L 89.772,283.123 C 86.208,283.843 83.4,284.022 81.06,283.519 C 78.684,282.979 77.028,281.898 75.948,280.135 L 75.948,280.135 z "
   style="fill-rule:evenodd;stroke:#000000;stroke-width:0.036;stroke-miterlimit:10"
   id="path109" />
	<path
   d="M 21.048,306.811 C 21.804,308.828 23.1,309.908 24.792,310.339 C 26.448,310.519 29.076,308.863 31.308,308.971 C 33.396,309.151 34.404,311.203 37.824,311.528 C 41.208,311.635 48.264,309.943 51.648,310.34 C 54.888,310.772 56.868,312.032 57.588,314.12 L 57.588,314.12 C 53.592,318.26 51.504,321.5 51.468,323.983 C 51.468,326.467 53.196,328.015 57.192,328.916 L 57.192,328.916 C 57.588,332.372 57.408,335.216 56.796,337.592 C 56.112,339.932 54.924,341.66 53.232,342.92 L 53.232,342.92 C 42.468,344.216 33.432,345.8 25.584,347.672 C 17.628,349.472 10.248,353.468 6.648,353.972 C 3.048,354.405 3.66,353.504 4.452,350.444 C 5.172,347.169 9.348,340.652 11.58,335.216 C 13.776,329.672 16.008,322.832 17.7,318.044 C 19.284,313.183 20.4,309.619 21.048,306.811 L 21.048,306.811 z "
   style="fill:#a16121;fill-rule:evenodd;stroke:#000000;stroke-width:0.036;stroke-miterlimit:10"
   id="path111" />
	<path
   d="M 33.684,312.931 C 35.988,314.335 41.568,317.935 43.764,321.211 C 45.816,324.379 46.212,328.375 45.924,332.083 C 45.528,335.755 41.856,342.774 41.568,343.135 C 41.136,343.351 43.728,336.907 43.944,333.667 C 44.16,330.354 43.944,326.539 42.756,323.587 C 41.352,320.491 38.148,317.287 36.06,315.487 C 33.828,313.686 30.552,313.039 30.12,312.715 C 29.76,312.211 31.272,311.491 33.684,312.931 L 33.684,312.931 z "
   style="fill-rule:evenodd;stroke:#000000;stroke-width:0.036;stroke-miterlimit:10"
   id="path113" />
	<path
   d="M 31.524,321.823 C 32.928,322.579 33.972,324.451 34.656,327.726 C 35.34,330.93 35.556,335.358 35.448,341.155 L 35.448,341.155 L 24,344.898 L 33.684,339.571 L 33.684,339.571 C 33.468,335.358 33.252,331.903 32.892,328.915 C 32.532,325.891 32.028,323.623 31.524,321.823 L 31.524,321.823 z "
   style="fill-rule:evenodd;stroke:#000000;stroke-width:0.036;stroke-miterlimit:10"
   id="path115" />
	<path
   d="M 23.604,324.955 C 24.684,326.251 25.08,328.411 24.792,331.291 C 24.432,334.207 23.496,337.843 21.84,342.343 L 21.84,342.343 C 22.848,338.528 23.244,335.467 23.424,332.875 C 23.568,330.283 23.1,328.303 22.416,326.935 L 22.416,326.935 L 17.304,331.076 L 22.236,323.191 L 22.236,323.191 C 22.668,323.767 23.136,324.343 23.604,324.955 L 23.604,324.955 z "
   style="fill-rule:evenodd;stroke:#000000;stroke-width:0.036;stroke-miterlimit:10"
   id="path117" />
	<path
   d="M 14.928,334.818 C 16.728,338.491 17.484,341.478 17.484,343.926 C 17.448,346.338 16.368,348.066 14.532,349.254 L 14.532,349.254 C 15.432,346.014 15.72,343.242 15.54,340.938 C 15.252,338.455 13.164,336.222 13.164,335.214 C 13.092,334.207 13.632,334.027 14.928,334.818 L 14.928,334.818 z "
   style="fill-rule:evenodd;stroke:#000000;stroke-width:0.036;stroke-miterlimit:10"
   id="path119" />
	<path
   d="M 71.412,250.938 C 69.072,251.911 67.74,252.451 66.84,254.071 C 65.832,255.474 64.716,258.426 65.868,260.01 C 67.02,261.522 70.836,264.114 73.572,263.358 C 76.236,262.422 80.412,257.67 81.672,255.079 C 82.644,252.522 81.996,248.779 80.268,248.167 C 78.432,247.447 73.68,249.895 71.412,250.938 L 71.412,250.938 z "
   style="fill:#a16121;fill-rule:evenodd;stroke:#000000;stroke-width:0.036;stroke-miterlimit:10"
   id="path121" />
	<path
   d="M 206.916,89.983 C 212.028,89.083 218.472,88.831 226.536,88.939 C 234.528,89.047 247.056,89.659 254.941,90.775 C 262.681,91.819 264.265,93.511 273.013,95.419 C 281.761,97.291 296.088,100.783 307.105,101.611 C 318.084,102.187 330.252,100.531 338.353,99.559 C 346.309,98.479 351.601,97.147 354.624,95.419 L 354.624,95.419 C 367.116,96.139 379.933,97.183 393.648,98.263 C 407.364,99.307 423.384,100.495 436.272,102.115 C 449.016,103.663 459.923,105.607 469.572,107.803 L 469.572,107.803 C 462.84,110.719 457.728,113.563 453.804,116.335 C 449.951,119.071 447.827,121.411 446.316,124.327 C 444.66,127.135 443.472,130.015 444.012,133.111 C 444.48,136.135 446.28,139.195 449.411,142.435 L 449.411,142.435 C 437.099,142.291 426.012,141.679 415.319,140.599 C 404.627,139.411 397.031,137.359 385.871,135.955 C 374.64,134.515 359.879,134.515 348.683,132.355 C 337.451,130.051 328.523,124.723 318.983,122.779 C 309.299,120.799 299.543,120.979 291.083,120.979 C 282.516,120.943 274.848,121.879 268.367,122.527 C 261.888,123.067 256.596,123.715 252.347,124.327 L 252.347,124.327 C 249.862,121.051 246.766,117.523 243.058,113.743 C 239.242,109.891 232.078,102.655 229.882,101.611 C 227.686,100.423 228.946,104.131 229.63,107.047 C 230.206,109.927 232.654,114.679 233.482,118.675 C 234.13,122.563 234.634,126.055 234.022,130.267 C 233.302,134.371 231.934,138.763 229.63,143.443 L 229.63,143.443 C 229.558,135.235 227.758,126.811 223.942,117.883 C 220.092,108.847 214.512,99.739 206.916,89.983 L 206.916,89.983 z "
   style="fill:#a16121;fill-rule:evenodd;stroke:#000000;stroke-width:0.036;stroke-miterlimit:10"
   id="path123" />
	<path
   d="M 448.152,114.788 C 447.612,114.5 426.372,115.364 413.016,115.292 C 399.552,115.04 382.344,114.392 368.592,113.744 C 354.839,113.024 330.18,110.504 331.404,111.44 C 332.952,112.34 360.42,117.056 376.584,119.18 C 392.605,121.196 415.572,121.592 426.444,123.824 C 437.1,125.984 438.144,131.6 440.124,132.356 C 441.816,132.932 440.305,129.8 437.532,127.964 C 434.761,126.056 434.004,123.248 423.6,121.484 C 412.908,119.648 387.419,118.604 374.784,117.38 C 362.04,115.976 348.217,114.068 348.432,113.744 C 348.828,113.456 365.244,114.932 376.583,115.544 C 387.923,116.012 403.151,116.912 415.319,116.84 C 427.38,116.551 448.368,115.075 448.152,114.788 L 448.152,114.788 z "
   style="fill-rule:evenodd;stroke:#000000;stroke-width:0.036;stroke-miterlimit:10"
   id="path125" />
	<path
   d="M 370.141,133.111 C 368.989,132.283 366.973,131.131 365.496,129.259 C 364.057,127.423 361.32,122.635 361.608,122.527 C 361.752,122.239 365.1,126.451 366.792,128.215 C 368.448,129.979 371.004,132.211 371.688,133.111 C 372.229,133.795 371.112,133.795 370.141,133.111 L 370.141,133.111 z "
   style="fill-rule:evenodd;stroke:#000000;stroke-width:0.036;stroke-miterlimit:10"
   id="path127" />
	<path
   d="M 358.513,131.563 C 358.62,131.275 356.677,130.555 355.164,129.007 C 353.473,127.351 351.204,123.535 349.476,122.023 C 347.711,120.547 345.228,119.431 345.335,119.935 C 345.516,120.403 349.043,122.419 350.52,124.327 C 351.744,126.019 352.356,128.971 353.616,130.267 C 354.948,131.419 358.152,131.708 358.513,131.563 L 358.513,131.563 z "
   style="fill-rule:evenodd;stroke:#000000;stroke-width:0.036;stroke-miterlimit:10"
   id="path129" />
	<path
   d="M 344.04,127.423 C 343.212,126.127 341.736,123.787 340.44,121.771 C 339.036,119.683 336.587,115.039 336.3,115.039 C 335.867,115.003 337.236,118.999 338.604,121.483 C 340.08,123.967 343.824,128.395 344.832,129.511 C 345.624,130.483 344.761,128.683 344.04,127.423 L 344.04,127.423 z "
   style="fill-rule:evenodd;stroke:#000000;stroke-width:0.036;stroke-miterlimit:10"
   id="path131" />
	<path
   d="M 246.408,95.671 C 249.54,95.635 254.868,96.499 262.681,98.263 C 270.456,100.027 283.956,104.743 292.92,106.003 C 301.668,107.119 309.156,106.903 315.385,105.211 L 315.385,105.211 C 307.933,106.363 300.588,106.363 292.92,105.211 C 285.145,103.879 277.441,99.631 269.664,98.011 C 261.78,96.355 254.256,95.671 246.408,95.671 L 246.408,95.671 z "
   style="fill-rule:evenodd;stroke:#000000;stroke-width:0.036;stroke-miterlimit:10"
   id="path133" />
	<path
   d="M 246.408,99.02 C 253.141,100.28 260.449,101.648 268.62,103.664 C 276.721,105.572 286.656,109.388 294.973,110.396 C 303.252,111.296 310.777,110.864 317.977,109.1 L 317.977,109.1 C 316.177,110.576 312.901,111.44 308.149,111.692 C 303.181,111.944 296.701,111.656 289.285,110.396 C 281.762,108.956 271.465,105.284 264.229,103.412 C 256.956,101.431 251.196,100.099 246.408,99.02 L 246.408,99.02 z "
   style="fill-rule:evenodd;stroke:#000000;stroke-width:0.036;stroke-miterlimit:10"
   id="path135" />
	<path
   d="M 373.236,105.5 C 385.26,105.536 396.78,106.004 408.084,106.508 C 419.389,107.12 430.044,107.768 440.628,108.848 L 440.628,108.848 C 423.853,108.308 410.137,107.84 398.796,107.3 C 387.492,106.723 379.104,106.075 373.236,105.5 L 373.236,105.5 z "
   style="fill-rule:evenodd;stroke:#000000;stroke-width:0.036;stroke-miterlimit:10"
   id="path137" />
	<path
   d="M 383.064,108.595 C 398.508,109.207 408.552,109.639 413.772,109.891 C 418.884,110.071 418.884,110.071 413.772,109.891 L 413.772,109.891 C 407.472,110.467 401.928,110.539 396.744,110.395 C 391.561,110.107 387.133,109.604 383.064,108.595 L 383.064,108.595 z "
   style="fill-rule:evenodd;stroke:#000000;stroke-width:0.036;stroke-miterlimit:10"
   id="path139" />
	<path
   d="M 256.74,134.803 C 257.604,137.035 258.684,139.735 259.584,143.047 C 260.521,146.287 262.393,149.059 262.429,154.423 C 262.393,159.787 261.313,166.627 259.332,175.087 L 259.332,175.087 L 268.116,175.087 L 268.116,175.087 C 269.916,170.299 271.464,165.835 272.761,161.407 C 274.057,156.835 275.137,148.303 275.857,148.735 C 276.504,149.275 276.577,159.859 276.901,164.503 C 277.189,168.931 277.441,172.675 277.657,175.591 L 277.657,175.591 C 292.669,174.295 311.678,173.539 335.51,173.035 C 359.413,172.495 399.661,172.495 419.713,172.747 C 439.478,172.963 450.745,173.575 453.806,174.583 L 453.806,174.583 C 449.341,171.091 446.894,167.599 446.318,163.711 C 445.742,159.823 448.37,154.531 450.458,151.579 C 452.546,148.555 455.21,146.575 458.738,145.639 L 458.738,145.639 C 452.618,145.711 444.374,145.279 433.43,144.343 C 422.377,143.335 404.774,141.355 393.65,139.951 C 382.67,138.403 375.362,136.855 367.55,135.847 C 359.449,134.767 351.745,134.659 346.381,134.011 C 341.125,133.363 337.634,132.679 336.05,131.959 L 336.05,131.959 C 320.678,133.363 306.745,134.263 293.425,134.803 C 280.032,135.271 268.08,135.271 256.74,134.803 L 256.74,134.803 z "
   style="fill:#a16121;fill-rule:evenodd;stroke:#000000;stroke-width:0.036;stroke-miterlimit:10"
   id="path141" />
	<path
   d="M 274.813,143.587 C 280.429,142.867 287.233,142.219 295.765,141.499 C 304.189,140.671 315.565,138.979 325.177,139.195 C 334.681,139.411 343.681,140.563 352.573,142.795 L 352.573,142.795 C 339.253,141.247 327.553,140.599 316.933,140.995 C 306.241,141.283 296.376,144.379 289.285,144.883 C 282.156,145.279 277.513,144.847 274.813,143.587 L 274.813,143.587 z "
   style="fill-rule:evenodd;stroke:#000000;stroke-width:0.036;stroke-miterlimit:10"
   id="path143" />
	<path
   d="M 314.088,170.443 C 313.404,169.399 309.588,168.463 307.357,165.547 C 304.981,162.559 301.128,153.091 300.661,153.127 C 300.302,153.019 302.93,162.523 304.802,165.547 C 306.53,168.499 309.337,170.335 310.993,171.199 C 312.54,171.956 314.593,171.379 314.088,170.443 L 314.088,170.443 z "
   style="fill-rule:evenodd;stroke:#000000;stroke-width:0.036;stroke-miterlimit:10"
   id="path145" />
	<path
   d="M 310.992,157.015 C 311.748,158.959 313.368,164.215 316.68,166.807 C 319.992,169.255 330.324,172.135 330.612,171.991 C 330.612,171.703 320.568,168.391 317.436,165.547 C 314.268,162.595 313.116,156.331 312.036,154.927 C 310.92,153.487 310.2,154.963 310.992,157.015 L 310.992,157.015 z "
   style="fill-rule:evenodd;stroke:#000000;stroke-width:0.036;stroke-miterlimit:10"
   id="path147" />
	<path
   d="M 324.924,162.164 C 325.429,162.704 327.912,166.628 331.404,168.104 C 334.68,169.472 344.112,170.3 344.832,170.444 C 345.372,170.408 338.28,169.616 335.509,168.644 C 332.628,167.6 330.361,165.8 328.561,164.756 C 326.688,163.604 324.456,161.587 324.924,162.164 L 324.924,162.164 z "
   style="fill-rule:evenodd;stroke:#000000;stroke-width:0.036;stroke-miterlimit:10"
   id="path149" />
	<path
   d="M 355.416,166.807 C 357.685,167.239 382.309,169.723 395.952,169.939 C 409.524,169.975 431.196,168.283 436.524,167.347 C 441.6,166.303 427.848,164.395 427.2,164.251 C 426.588,164.107 435.336,165.583 432.888,166.303 C 430.224,166.915 420.108,167.527 411.72,167.851 C 403.224,167.959 391.919,167.779 382.524,167.599 C 372.984,167.383 353.256,166.339 355.416,166.807 L 355.416,166.807 z "
   style="fill-rule:evenodd;stroke:#000000;stroke-width:0.036;stroke-miterlimit:10"
   id="path151" />
	<path
   d="M 366.792,162.164 C 365.172,162.524 382.813,164.36 391.813,164.756 C 400.741,164.936 418.128,164.036 419.964,163.712 C 421.441,163.352 410.605,162.92 401.641,162.704 C 392.712,162.343 368.412,161.839 366.792,162.164 L 366.792,162.164 z "
   style="fill-rule:evenodd;stroke:#000000;stroke-width:0.036;stroke-miterlimit:10"
   id="path153" />
	<path
   d="M 324.168,156.223 C 323.988,155.971 333.313,155.935 342.996,155.719 C 352.572,155.287 380.868,153.847 381.228,154.171 C 381.264,154.387 353.868,157.123 344.291,157.519 C 334.645,157.771 324.42,156.511 324.168,156.223 L 324.168,156.223 z "
   style="fill-rule:evenodd;stroke:#000000;stroke-width:0.036;stroke-miterlimit:10"
   id="path155" />
	<path
   d="M 332.664,150.535 C 336.84,150.211 380.292,148.771 395.952,148.987 C 411.36,149.095 428.784,150.895 424.896,151.327 C 420.755,151.507 387.636,150.967 372.192,150.823 C 356.677,150.644 328.74,150.823 332.664,150.535 L 332.664,150.535 z "
   style="fill-rule:evenodd;stroke:#000000;stroke-width:0.036;stroke-miterlimit:10"
   id="path157" />
	<path
   d="M 449.7,148.987 C 446.172,150.247 443.94,151.831 442.717,154.171 C 441.492,156.403 441.456,159.103 442.464,162.415 L 442.464,162.415 C 439.404,160.507 438.324,158.491 439.62,156.223 C 440.845,153.956 444.156,151.543 449.7,148.987 L 449.7,148.987 z "
   style="fill-rule:evenodd;stroke:#000000;stroke-width:0.036;stroke-miterlimit:10"
   id="path159" />
	<path
   d="M 266.568,177.139 C 265.848,179.119 264.336,181.495 262.176,184.123 C 259.835,186.715 254.688,192.511 253.392,192.907 C 252.167,193.231 253.932,189.091 254.94,186.463 C 255.839,183.763 257.136,180.703 258.828,177.139 L 258.828,177.139 C 261.385,177.139 263.977,177.139 266.568,177.139 L 266.568,177.139 z "
   style="fill:#a16121;fill-rule:evenodd;stroke:#000000;stroke-width:0.036;stroke-miterlimit:10"
   id="path161" />
	<path
   d="M 372.192,175.591 L 368.844,182.575 L 416.364,182.071 L 417.156,175.591 L 417.156,175.591 C 404.7,175.735 394.98,175.879 387.42,175.879 C 379.896,175.879 374.82,175.735 372.192,175.591 L 372.192,175.591 z "
   style="fill:#a16121;fill-rule:evenodd;stroke:#000000;stroke-width:0.036;stroke-miterlimit:10"
   id="path163" />
	<path
   d="M 277.908,178.832 C 283.704,179.912 294.288,180.992 309.948,181.928 C 325.608,182.864 350.916,183.908 371.436,184.52 C 391.919,185.06 411.684,185.312 431.844,185.276 L 431.844,185.276 C 425.22,192.692 420.972,199.063 418.955,204.391 C 416.903,209.612 418.955,214.291 419.711,217.063 C 420.396,219.799 421.476,221.131 423.096,220.916 L 423.096,220.916 C 411.36,220.052 395.448,219.368 374.532,218.864 C 353.472,218.288 328.524,218.036 298.32,217.819 L 298.32,217.819 C 298.716,207.416 298.284,201.872 297.312,201.044 C 296.196,200.216 293.496,210.008 292.127,212.924 C 290.651,215.732 289.535,217.316 288.779,217.82 L 288.779,217.82 L 278.951,217.316 L 278.951,217.316 C 279.563,216.272 279.959,212.564 279.743,206.192 C 279.528,199.639 278.916,190.748 277.908,178.832 L 277.908,178.832 z "
   style="fill:#a16121;fill-rule:evenodd;stroke:#000000;stroke-width:0.036;stroke-miterlimit:10"
   id="path165" />
	<path
   d="M 307.356,195.859 C 305.916,199.747 306.384,203.31 308.904,206.982 C 311.424,210.51 315.816,214.003 322.368,217.314 L 322.368,217.314 C 316.86,214.039 312.936,210.907 310.452,207.234 C 307.933,203.527 306.853,199.963 307.356,195.859 L 307.356,195.859 z "
   style="fill-rule:evenodd;stroke:#000000;stroke-width:0.036;stroke-miterlimit:10"
   id="path167" />
	<path
   d="M 317.292,199.999 C 316.068,203.167 316.5,206.155 318.588,209.106 C 320.677,211.951 324.204,214.902 329.568,217.566 L 329.568,217.566 C 325.104,214.974 321.864,212.274 319.848,209.323 C 317.725,206.371 317.004,203.311 317.292,199.999 L 317.292,199.999 z "
   style="fill-rule:evenodd;stroke:#000000;stroke-width:0.036;stroke-miterlimit:10"
   id="path169" />
	<path
   d="M 324.78,201.799 C 323.7,204.463 324.06,207.055 325.86,209.575 C 327.552,212.058 330.684,214.471 335.256,216.81 L 335.256,216.81 C 331.404,214.542 328.74,212.239 326.977,209.754 C 325.212,207.199 324.528,204.643 324.78,201.799 L 324.78,201.799 z "
   style="fill-rule:evenodd;stroke:#000000;stroke-width:0.036;stroke-miterlimit:10"
   id="path171" />
	<path
   d="M 316.393,208.279 C 316.933,208.062 345.445,207.883 360.565,208.027 C 375.613,208.098 401.424,207.522 405.781,208.783 C 409.777,209.971 385.765,214.722 385.117,214.974 C 384.541,215.082 406.285,210.726 401.893,209.827 C 397.177,208.89 372.409,209.467 358.009,209.323 C 343.536,208.999 316.104,208.459 316.393,208.279 L 316.393,208.279 z "
   style="fill-rule:evenodd;stroke:#000000;stroke-width:0.036;stroke-miterlimit:10"
   id="path173" />
	<path
   d="M 346.38,211.375 C 349.801,211.195 354.481,211.339 360.565,211.375 C 366.613,211.23 381.517,210.871 382.525,211.123 C 383.317,211.339 373.093,212.635 366.001,212.923 C 358.766,213.067 343.537,212.671 340.189,212.419 C 336.876,212.167 342.96,211.447 346.38,211.375 L 346.38,211.375 z "
   style="fill-rule:evenodd;stroke:#000000;stroke-width:0.036;stroke-miterlimit:10"
   id="path175" />
	<path
   d="M 378.924,201.295 C 366.252,199.675 362.868,198.343 368.34,197.155 C 373.885,195.931 388.284,194.851 411.973,194.059 L 411.973,194.059 C 391.668,194.851 379.069,195.931 373.489,197.155 C 367.98,198.343 369.744,199.675 378.924,201.295 L 378.924,201.295 z "
   style="fill-rule:evenodd;stroke:#000000;stroke-width:0.036;stroke-miterlimit:10"
   id="path177" />
	<path
   d="M 470.652,109.279 C 463.452,112.195 458.088,115.327 454.128,118.387 C 450.204,121.519 447.504,123.787 447.145,127.819 C 446.677,131.743 448.008,136.387 451.285,141.895 L 451.285,141.895 C 458.846,137.467 464.317,133.255 467.846,128.827 C 471.302,124.399 471.625,118.783 472.165,115.579 C 472.597,112.268 472.092,110.215 470.652,109.279 L 470.652,109.279 z "
   style="fill:#a16121;fill-rule:evenodd;stroke:#000000;stroke-width:0.036;stroke-miterlimit:10"
   id="path179" />
	<path
   d="M 462.229,117.235 C 457.044,119.431 453.697,121.807 451.645,124.507 C 449.665,127.135 449.449,131.311 450.313,133.291 C 451.105,135.235 453.229,137.143 456.109,136.099 C 458.845,134.803 462.373,131.671 466.837,126.163 L 466.837,126.163 C 462.157,130.843 458.522,133.651 455.93,134.443 C 453.23,135.163 451.358,132.571 451.142,130.951 C 450.961,129.223 452.618,126.955 454.598,124.687 C 456.469,122.383 458.916,119.899 462.229,117.235 L 462.229,117.235 z "
   style="fill-rule:evenodd;stroke:#000000;stroke-width:0.036;stroke-miterlimit:10"
   id="path181" />
	<path
   d="M 462.876,119.215 C 464.929,117.955 466.261,117.523 467.017,118.063 C 467.701,118.567 468.781,119.899 467.197,122.203 C 465.469,124.471 462.229,127.567 457.081,131.635 L 457.081,131.635 C 461.762,127.171 464.533,123.967 465.541,121.879 C 466.513,119.719 465.576,118.963 462.876,119.215 L 462.876,119.215 z "
   style="fill-rule:evenodd;stroke:#000000;stroke-width:0.036;stroke-miterlimit:10"
   id="path183" />
	<path
   d="M 460.572,122.204 C 457.476,124.04 455.928,125.408 455.928,126.164 C 455.892,126.848 457.331,127.064 460.392,126.668 L 460.392,126.668 C 458.304,126.848 457.404,126.524 457.404,125.84 C 457.368,125.083 458.521,123.823 460.572,122.204 L 460.572,122.204 z "
   style="fill-rule:evenodd;stroke:#000000;stroke-width:0.036;stroke-miterlimit:10"
   id="path185" />
	<path
   d="M 460.248,146.54 L 470.508,147.692 L 470.508,147.692 C 473.244,151.256 476.773,154.208 481.092,156.944 C 485.376,159.572 493.584,162.056 496.141,163.568 C 498.481,164.972 498.372,165.188 495.817,165.872 C 493.153,166.52 486.924,166.448 480.588,167.888 C 474.217,169.328 466.656,171.632 457.765,174.656 L 457.765,174.656 C 454.057,172.64 451.645,170.372 450.133,167.708 C 448.656,164.936 448.693,160.112 448.981,158.78 C 449.197,157.412 451.105,160.652 451.645,159.752 C 452.041,158.6 450.097,155.036 451.645,152.804 C 453.049,150.571 455.964,148.483 460.248,146.54 L 460.248,146.54 z "
   style="fill:#a16121;fill-rule:evenodd;stroke:#000000;stroke-width:0.036;stroke-miterlimit:10"
   id="path187" />
	<path
   d="M 479.94,159.283 C 477.132,158.059 474.972,156.655 473.316,155.467 C 471.66,154.243 470.507,152.839 470.003,151.651 L 470.003,151.651 C 468.671,152.407 467.772,153.451 467.016,154.783 C 466.331,156.043 465.791,157.591 465.684,159.427 L 465.684,159.427 L 469.499,153.811 L 469.499,153.811 C 471.552,155.971 473.279,157.519 475.115,158.455 C 476.809,159.319 478.464,159.644 479.94,159.283 L 479.94,159.283 z "
   style="fill-rule:evenodd;stroke:#000000;stroke-width:0.036;stroke-miterlimit:10"
   id="path189" />
	<path
   d="M 471.66,163.243 C 469.14,162.955 466.872,163.279 464.856,164.071 C 462.732,164.827 460.86,166.051 459.24,167.887 L 459.24,167.887 L 461.904,171.019 L 461.076,167.707 L 461.076,167.707 C 463.633,166.051 465.684,164.791 467.52,164.071 C 469.32,163.352 470.652,163.027 471.66,163.243 L 471.66,163.243 z "
   style="fill-rule:evenodd;stroke:#000000;stroke-width:0.036;stroke-miterlimit:10"
   id="path191" />
	<path
   d="M 481.92,159.751 C 481.021,160.939 480.588,161.947 480.769,162.919 C 480.913,163.819 481.525,164.539 482.748,165.223 L 482.748,165.223 C 482.137,163.927 481.704,163.063 481.597,162.091 C 481.416,161.191 481.524,160.363 481.92,159.751 L 481.92,159.751 z "
   style="fill-rule:evenodd;stroke:#000000;stroke-width:0.036;stroke-miterlimit:10"
   id="path193" />
	<path
   d="M 467.664,150.644 C 465.181,152.3 463.416,154.028 462.372,155.972 C 461.328,157.844 460.896,159.932 461.221,162.092 L 461.221,162.092 C 459.889,159.536 459.781,157.376 460.897,155.468 C 462.013,153.56 464.137,151.903 467.664,150.644 L 467.664,150.644 z "
   style="fill-rule:evenodd;stroke:#000000;stroke-width:0.036;stroke-miterlimit:10"
   id="path195" />
	<path
   d="M 462.372,149.815 C 460.212,150.823 458.772,152.407 457.908,154.963 C 457.008,157.375 456.792,160.579 457.261,164.575 L 457.261,164.575 C 455.353,161.155 454.668,158.275 455.605,155.791 C 456.504,153.307 458.628,151.363 462.372,149.815 L 462.372,149.815 z "
   style="fill-rule:evenodd;stroke:#000000;stroke-width:0.036;stroke-miterlimit:10"
   id="path197" />
	<path
   d="M 436.057,186.175 C 432.601,186.859 430.225,189.163 427.813,192.943 C 425.256,196.543 421.801,203.131 421.189,207.846 C 420.541,212.454 421.153,218.97 424.141,220.59 C 427.092,222.066 435.301,219.042 439.044,216.774 C 442.681,214.47 444.301,211.302 445.992,206.838 C 447.504,202.122 450.096,193.05 448.476,189.486 C 446.784,186.031 439.404,185.527 436.057,186.175 L 436.057,186.175 z "
   style="fill:#a16121;fill-rule:evenodd;stroke:#000000;stroke-width:0.036;stroke-miterlimit:10"
   id="path199" />
	<path
   d="M 432.744,193.591 C 428.964,198.631 426.696,202.842 425.796,206.514 C 424.86,210.078 425.544,213.93 427.452,215.298 C 429.324,216.558 433.717,217.53 436.885,214.47 C 439.836,211.23 445.849,198.918 445.345,196.579 C 444.697,194.275 435.769,198.054 433.429,200.538 C 431.017,202.986 429.865,210.726 430.945,210.977 C 432.025,211.122 434.761,208.026 439.549,201.545 L 439.549,201.545 C 436.956,206.765 434.904,210.185 433.105,211.805 C 431.269,213.353 429.145,212.849 428.964,210.977 C 428.677,208.889 429.288,203.129 431.773,200.213 C 434.113,197.405 440.701,194.345 443.185,194.093 C 445.525,193.769 446.389,195.605 446.172,198.233 C 445.849,200.825 443.58,206.333 441.853,209.501 C 440.124,212.561 438.181,215.585 435.588,216.772 C 432.672,217.816 427.164,218.356 425.328,216.449 C 423.564,214.361 423.672,209.033 424.969,205.18 C 426.192,201.259 428.784,197.587 432.744,193.591 L 432.744,193.591 z "
   style="fill-rule:evenodd;stroke:#000000;stroke-width:0.036;stroke-miterlimit:10"
   id="path201" />
	<path
   d="M 196.044,274.339 C 192.588,276.067 188.484,275.635 183.336,272.899 C 178.08,270.091 170.016,262.639 165.552,258.032 C 161.088,253.387 159.648,250.58 157.2,245.324 C 154.752,239.96 151.548,232.796 151.044,226.063 C 150.468,219.187 151.368,211.555 153.6,204.679 C 155.724,197.659 159.756,190.856 163.752,184.7 C 167.532,178.436 172.392,173.576 176.82,167.636 C 181.212,161.624 186.144,155.324 190.248,149.132 C 194.316,142.832 198.096,136.388 200.76,130.628 C 203.208,124.832 204.792,120.8 205.116,114.644 C 205.26,108.308 203.136,97.94 202.236,93.26 C 201.444,88.508 198.636,86.132 200.04,86.708 C 201.336,87.32 206.448,92 209.832,96.86 C 213.072,101.684 216.564,107.732 219.624,115.4 C 222.648,123.032 226.932,133.328 227.616,142.256 C 228.084,150.896 225.96,159.212 222.9,167.636 C 219.768,176.06 212.748,184.916 209.472,192.692 C 206.052,200.504 204.144,208.171 203.316,213.752 C 202.596,219.188 204,226.352 204.756,224.983 C 205.296,223.364 205.008,211.412 206.952,204.679 C 208.824,197.84 212.64,191.324 216.024,184.7 C 219.3,178.004 224.052,171.524 226.536,165.116 C 228.912,158.636 230.244,152.48 230.532,146.252 L 230.532,146.252 C 233.412,142.688 235.248,138.908 236.328,134.624 C 237.336,130.268 237.408,125.48 236.688,120.836 C 235.824,116.048 231.864,109.316 231.612,107.048 C 231.324,104.78 231.9,104.744 234.888,107.768 C 237.804,110.792 245.436,119.648 249.036,125.192 C 252.493,130.556 254.149,134.984 255.949,140.42 C 257.605,145.856 259.657,149.78 259.189,157.484 C 258.577,165.116 255.157,178.436 252.672,185.78 C 250.152,192.98 249.504,195.032 244.32,200.683 C 238.92,206.335 226.5,213.751 221.1,219.187 C 215.7,224.335 212.892,227.395 212.388,232.255 C 211.848,237.115 213.612,242.551 217.824,248.563 L 217.824,248.563 C 213.864,243.091 212.532,237.944 213.828,232.975 C 215.196,227.971 219.768,223.723 225.456,218.828 C 230.964,213.859 240.144,208.784 246.876,203.204 C 253.5,197.408 260.196,192.332 265.021,185.06 C 269.737,177.789 272.869,169.544 274.813,160.04 L 274.813,160.04 C 275.281,167.78 275.857,175.736 276.252,184.34 C 276.648,192.908 277.981,203.347 277.332,211.196 C 276.576,218.935 275.641,223.076 271.896,230.42 C 267.9,237.62 255.984,251.768 254.472,254.396 C 253.032,256.88 260.052,249.537 263.184,245.684 C 266.207,241.688 269.304,237.08 272.616,231.176 L 272.616,231.176 C 277.009,230.78 280.788,229.376 284.244,226.82 C 287.628,224.121 290.904,219.369 292.956,215.913 C 294.828,212.349 295.728,204.501 296.232,206.121 C 296.7,207.705 296.196,217.281 296.232,225.705 C 296.16,234.201 297.78,247.125 296.232,256.557 C 294.576,265.845 291.516,273.981 286.764,281.253 L 286.764,281.253 L 262.463,301.917 L 262.463,301.917 C 258.108,304.473 253.392,305.373 248.315,304.473 C 243.167,303.465 237.767,300.945 231.971,296.481 L 231.971,296.481 C 238.307,292.918 242.663,288.49 245.039,283.053 C 247.307,277.581 247.199,271.173 246.119,263.829 C 244.967,256.377 240.395,245.108 238.523,238.772 C 236.579,232.4 235.247,228.044 234.527,225.705 L 234.527,225.705 C 234.167,236.181 233.195,244.641 231.611,251.48 C 229.883,258.32 228.515,262.82 224.735,266.348 C 220.775,269.661 210.443,270.741 208.751,271.82 C 206.987,272.9 211.235,273.585 214.547,272.9 C 217.787,272.037 225.167,269.732 228.335,267.104 C 231.359,264.333 231.827,261.957 233.051,256.916 C 234.203,251.804 235.103,245.288 235.607,236.972 L 235.607,236.972 C 239.819,247.232 242.411,256.197 243.239,264.548 C 244.031,272.864 243.311,281 240.683,286.328 C 237.983,291.332 232.259,294.355 227.255,295.399 C 222.143,296.408 215.735,296.336 210.551,292.843 C 205.332,289.314 200.544,283.195 196.044,274.339 L 196.044,274.339 z "
   style="fill:#ffff00;fill-rule:evenodd;stroke:#000000;stroke-width:0.036;stroke-miterlimit:10"
   id="path203" />
	<path
   d="M 190.608,255.115 C 187.332,252.81 177.864,239.562 174.984,231.894 C 172.032,224.155 170.736,216.163 173.184,209.035 C 175.632,201.763 187.044,187.975 189.528,189.055 C 191.868,190.135 186.864,206.047 187.692,215.551 C 188.52,225.019 193.668,238.555 194.244,245.323 C 194.676,251.982 193.74,257.239 190.608,255.115 L 190.608,255.115 z "
   style="fill:#ff8000;fill-rule:evenodd"
   id="path205" />
	<path
   d="M 198.96,165.835 C 203.46,161.911 206.772,156.367 208.752,148.771 C 210.732,141.103 211.452,131.815 210.912,120.475 L 210.912,120.475 C 215.736,133.219 217.464,143.803 216.384,152.767 C 215.124,161.695 208.788,169.471 204.036,173.467 C 199.212,177.247 188.88,176.815 188.052,175.627 C 187.188,174.295 190.824,171.127 198.96,165.835 L 198.96,165.835 z "
   style="fill:#ff8000;fill-rule:evenodd"
   id="path207" />
	<path
   d="M 238.164,146.611 C 240.504,151.903 239.892,158.491 236.328,166.915 C 232.656,175.231 220.488,188.731 216.744,196.327 C 212.892,203.814 212.064,208.963 213.828,211.915 L 213.828,211.915 C 227.832,205.039 237.408,197.011 243.24,187.255 C 248.892,177.355 248.748,160.759 247.956,153.847 C 247.056,147.043 243.888,144.631 238.164,146.611 L 238.164,146.611 z "
   style="fill:#ff8000;fill-rule:evenodd"
   id="path209" />
	<path
   d="M 267.181,192.691 C 270.204,203.886 270.493,212.922 267.901,220.627 C 265.201,228.187 259.909,233.947 251.592,238.051 L 251.592,238.051 C 250.692,228.763 251.484,220.699 254.113,213.031 C 256.776,205.435 260.952,198.703 267.181,192.691 L 267.181,192.691 z "
   style="fill:#ff8000;fill-rule:evenodd"
   id="path211" />
	<path
   d="M 290.761,231.535 C 292.309,238.663 292.309,246.223 290.761,254.755 C 289.177,263.215 286.08,272.107 281.328,281.971 L 281.328,281.971 L 262.824,297.559 L 262.824,297.559 C 263.472,280.891 266.137,267.247 270.816,256.196 C 275.496,245.143 282.048,236.971 290.761,231.535 L 290.761,231.535 z "
   style="fill:#ff8000;fill-rule:evenodd"
   id="path213" />
	<path
   d="M 165.192,262.171 C 169.116,267.031 172.86,270.487 176.82,273.079 C 180.78,275.455 185.244,276.318 188.412,277.075 C 191.4,277.831 193.632,277.903 194.964,277.434 L 194.964,277.434 C 197.664,282.079 200.256,285.894 202.596,289.027 C 204.972,292.159 207.096,294.318 209.112,295.938 L 209.112,295.938 C 208.86,302.094 209.292,308.358 210.552,315.163 C 211.812,321.931 213.612,328.807 216.384,336.223 L 216.384,336.223 C 212.64,337.735 210.048,339.427 208.752,341.299 C 207.384,343.171 207.312,345.223 208.392,347.455 L 208.392,347.455 C 205.332,347.059 202.596,344.575 200.04,339.858 C 197.376,335.035 196.044,328.734 193.128,319.159 C 190.068,309.403 186.576,297.343 182.256,282.15 L 182.256,282.15 C 179.592,286.579 177.468,293.671 175.74,303.571 C 173.976,313.543 172.86,325.89 172.104,341.299 L 172.104,341.299 C 171.096,332.407 169.152,327.511 166.272,326.071 C 163.32,324.739 159.504,326.898 154.68,332.947 L 154.68,332.947 C 154.608,326.178 155.58,318.655 157.596,310.087 C 159.576,301.447 162.6,292.159 166.668,281.791 L 166.668,281.791 C 153.24,286.219 141.828,291.835 131.46,299.215 C 121.2,306.559 112.488,315.091 105.324,325.351 L 105.324,325.351 C 106.296,320.059 105.612,316.711 103.128,315.163 C 100.644,313.615 96.36,313.975 90.42,316.243 L 90.42,316.243 C 98.664,309.978 105.504,304.795 111.48,300.295 C 117.42,295.723 121.956,292.231 125.628,289.423 L 125.628,289.423 C 150.36,284.635 162.492,281.971 162.312,281.431 C 161.88,280.891 134.268,284.923 124.188,286.147 C 114.036,287.263 106.8,287.767 102.048,287.948 L 102.048,287.948 C 99.348,283.735 99.42,280.172 102.408,276.716 C 105.324,273.296 112.236,269.12 119.832,267.644 C 127.464,266.06 140.064,268.077 147.768,267.285 C 155.328,266.311 161.088,264.655 165.192,262.171 L 165.192,262.171 z "
   style="fill:#a16121;fill-rule:evenodd;stroke:#000000;stroke-width:0.036;stroke-miterlimit:10"
   id="path215" />
	<path
   d="M 125.628,275.239 C 126.348,274.591 137.436,273.403 144.168,272.358 C 150.828,271.314 165.66,268.47 165.192,269.083 C 164.328,269.623 146.868,274.482 140.172,275.599 C 133.476,276.606 125.016,275.707 125.628,275.239 L 125.628,275.239 z "
   style="fill-rule:evenodd;stroke:#000000;stroke-width:0.036;stroke-miterlimit:10"
   id="path217" />
	<path
   d="M 120.912,279.595 C 125.448,279.163 138.372,278.731 145.248,278.156 C 152.052,277.471 162.132,275.599 161.196,275.996 C 159.9,276.284 145.968,279.488 138.696,280.315 C 131.424,281.072 121.416,280.784 118.392,280.711 C 115.476,280.495 116.268,279.991 120.912,279.595 L 120.912,279.595 z "
   style="fill-rule:evenodd;stroke:#000000;stroke-width:0.036;stroke-miterlimit:10"
   id="path219" />
	<path
   d="M 168.468,286.146 C 167.784,287.262 163.464,302.959 162.312,308.646 C 161.052,314.262 160.98,320.527 161.556,319.518 C 162.096,318.403 164.256,307.602 165.552,302.094 C 166.668,296.335 168.936,285.139 168.468,286.146 L 168.468,286.146 z "
   style="fill-rule:evenodd;stroke:#000000;stroke-width:0.036;stroke-miterlimit:10"
   id="path221" />
	<path
   d="M 174.984,292.303 C 174.588,294.319 169.368,312.535 168.468,314.443 C 167.64,316.099 168.72,306.523 169.908,302.815 C 170.916,299.035 175.2,290.395 174.984,292.303 L 174.984,292.303 z "
   style="fill-rule:evenodd;stroke:#000000;stroke-width:0.036;stroke-miterlimit:10"
   id="path223" />
	<path
   d="M 200.04,295.219 C 200.904,295.759 203.244,308.107 205.116,314.083 C 206.916,320.059 211.272,331.183 210.552,330.787 C 209.616,330.102 201.804,316.783 200.04,310.807 C 198.276,304.723 199.104,294.715 200.04,295.219 L 200.04,295.219 z "
   style="fill-rule:evenodd;stroke:#000000;stroke-width:0.036;stroke-miterlimit:10"
   id="path225" />
	<path
   d="M 190.968,291.223 C 190.428,292.952 192.264,304.868 193.128,305.731 C 194.028,306.379 196.296,297.956 196.044,295.58 C 195.684,293.131 191.4,289.459 190.968,291.223 L 190.968,291.223 z "
   style="fill-rule:evenodd;stroke:#000000;stroke-width:0.036;stroke-miterlimit:10"
   id="path227" />
	<path
   d="M 137.256,300.295 C 142.548,297.127 147.012,294.463 151.044,292.303 C 154.932,290.107 158.244,288.415 160.836,287.227 L 160.836,287.227 L 154.32,306.811 L 138.336,326.431 L 138.336,326.431 C 135.78,323.083 133.656,320.851 131.82,319.879 C 129.984,318.835 128.58,318.907 127.464,320.239 L 127.464,320.239 C 130.704,313.615 133.98,306.955 137.256,300.295 L 137.256,300.295 z "
   style="fill:#a16121;fill-rule:evenodd;stroke:#000000;stroke-width:0.036;stroke-miterlimit:10"
   id="path229" />
	<path
   d="M 125.988,324.234 C 125.664,328.05 124.944,331.795 123.828,335.863 C 122.604,339.894 116.952,349.327 119.112,348.211 C 121.308,346.915 127.104,340.255 136.896,328.231 L 136.896,328.231 C 133.8,325.675 131.424,324.2 129.624,323.515 C 127.788,322.831 126.528,323.119 125.988,324.234 L 125.988,324.234 z "
   style="fill:#a16121;fill-rule:evenodd;stroke:#000000;stroke-width:0.036;stroke-miterlimit:10"
   id="path231" />
	<path
   d="M 159.036,332.947 C 156.66,335.071 155.256,337.375 154.68,339.858 C 154.032,342.342 154.392,346.447 155.76,347.85 C 157.128,349.111 160.224,348.642 162.672,347.85 C 165.012,347.058 167.172,345.438 169.548,343.134 L 169.548,343.134 C 169.656,337.014 168.72,333.27 167.028,331.506 C 165.264,329.814 162.6,330.247 159.036,332.947 L 159.036,332.947 z "
   style="fill:#a16121;fill-rule:evenodd;stroke:#000000;stroke-width:0.036;stroke-miterlimit:10"
   id="path233" />
	<path
   d="M 95.136,316.639 C 91.5,318.583 89.088,320.78 87.9,323.515 C 86.748,326.143 87.396,330.139 87.9,332.587 C 88.152,334.891 88.548,336.763 90.06,337.663 C 91.464,338.491 93.696,338.491 96.612,337.663 L 96.612,337.663 L 103.128,326.431 L 103.128,326.431 C 102.984,323.191 102.264,320.815 100.968,319.16 C 99.6,317.503 97.656,316.711 95.136,316.639 L 95.136,316.639 z "
   style="fill:#a16121;fill-rule:evenodd;stroke:#000000;stroke-width:0.036;stroke-miterlimit:10"
   id="path235" />
	<path
   d="M 214.908,338.779 C 213.468,339.138 210.876,341.982 210.192,343.134 C 209.436,344.142 209.58,345.69 210.912,345.294 C 212.172,344.682 217.464,341.766 218.184,340.578 C 218.76,339.354 216.24,338.383 214.908,338.779 L 214.908,338.779 z "
   style="fill:#a16121;fill-rule:evenodd;stroke:#000000;stroke-width:0.036;stroke-miterlimit:10"
   id="path237" />
	<path
   d="M 212.388,298.854 C 211.812,304.506 212.424,309.834 213.828,315.522 C 215.196,321.138 217.752,326.575 221.1,332.226 L 221.1,332.226 C 222.432,323.947 224.916,318.33 228.696,315.522 C 232.512,312.642 237.3,312.571 243.6,315.163 L 243.6,315.163 C 239.964,311.995 237.012,308.971 234.888,306.091 C 232.656,303.139 231.252,300.403 230.532,297.739 L 230.532,297.739 C 225.096,299.215 220.812,300.115 217.824,300.295 C 214.764,300.438 213,300.007 212.388,298.854 L 212.388,298.854 z "
   style="fill:#a16121;fill-rule:evenodd;stroke:#000000;stroke-width:0.036;stroke-miterlimit:10"
   id="path239" />
	<path
   d="M 241.044,316.999 C 237.012,316.279 233.7,316.351 231.252,317.358 C 228.66,318.331 227.148,320.094 226.176,322.795 C 225.24,325.459 225.168,328.663 225.816,332.947 L 225.816,332.947 C 230.892,327.655 235.968,322.327 241.044,316.999 L 241.044,316.999 z "
   style="fill:#a16121;fill-rule:evenodd;stroke:#000000;stroke-width:0.036;stroke-miterlimit:10"
   id="path241" />
	<path
   d="M 107.484,307.927 C 109.464,305.983 124.656,294.175 125.988,293.743 C 127.032,293.203 117.528,302.598 114.396,305.011 C 111.156,307.423 105.612,309.69 107.484,307.927 L 107.484,307.927 z "
   style="fill-rule:evenodd;stroke:#000000;stroke-width:0.036;stroke-miterlimit:10"
   id="path243" />
	<path
   d="M 94.776,322.435 C 94.416,322.255 91.104,326.719 90.816,328.591 C 90.636,330.283 92.436,333.163 93.696,332.947 C 94.884,332.623 97.836,327.726 97.692,327.15 C 97.188,326.575 92.472,330.426 91.896,329.671 C 91.5,328.734 94.776,322.615 94.776,322.435 L 94.776,322.435 z "
   style="fill-rule:evenodd;stroke:#000000;stroke-width:0.036;stroke-miterlimit:10"
   id="path245" />
	<path
   d="M 159.396,336.583 C 158.964,336.331 157.884,339.283 157.956,340.579 C 157.956,341.839 158.1,344.539 159.756,344.215 C 161.376,343.711 167.604,338.851 167.748,338.383 C 167.676,337.987 161.52,341.803 160.116,341.659 C 158.784,341.227 159.612,336.799 159.396,336.583 L 159.396,336.583 z "
   style="fill-rule:evenodd;stroke:#000000;stroke-width:0.036;stroke-miterlimit:10"
   id="path247" />
	<path
   d="M 216.744,346.375 C 224.412,336.727 233.808,327.007 245.76,316.639 C 257.605,306.127 274.992,294.643 287.521,284.671 C 299.941,274.699 306.745,268.219 320.172,257.455 C 333.601,246.583 349.044,234.307 367.332,220.087 L 367.332,220.087 L 405.097,222.247 L 405.097,222.247 C 405.853,227.035 405.996,230.779 405.817,233.875 C 405.493,236.791 403.801,238.051 403.657,240.427 C 403.441,242.767 403.802,245.251 404.737,248.023 L 404.737,248.023 C 393.433,260.66 383.533,270.919 374.605,279.235 C 365.605,287.515 358.009,293.42 351.385,297.38 L 351.385,297.38 C 359.521,285.896 365.208,276.752 368.448,269.804 C 371.58,262.676 371.328,255.368 370.608,255.657 C 369.816,255.945 367.548,265.197 364.092,271.604 C 360.419,277.94 353.579,287.264 349.548,293.745 C 345.48,300.152 342.455,303.753 340.476,310.089 C 338.496,316.389 337.704,323.481 337.955,331.509 L 337.955,331.509 C 336.443,329.205 334.607,327.513 332.159,326.433 C 329.603,325.282 326.003,325.065 323.447,324.957 C 320.927,324.812 318.695,325.064 316.895,325.713 L 316.895,325.713 C 316.679,322.473 318.371,316.785 321.971,308.649 C 325.571,300.37 337.271,280.282 338.315,276.717 C 339.143,273.189 331.763,279.633 327.443,287.589 C 323.051,295.581 318.011,307.568 312.179,324.236 L 312.179,324.236 C 295.439,335.468 282.155,345.081 271.895,353.648 C 261.563,362.108 254.687,369.201 250.834,375.068 L 250.834,375.068 C 252.526,363.512 251.554,355.556 248.314,350.373 C 244.858,345.225 236.182,345.188 230.89,344.577 C 225.6,343.854 220.884,344.503 216.744,346.375 L 216.744,346.375 z "
   style="fill:#a16121;fill-rule:evenodd;stroke:#000000;stroke-width:0.036;stroke-miterlimit:10"
   id="path249" />
	<path
   d="M 253.393,334.063 C 259.296,330.103 282.84,315.307 286.405,314.803 C 289.861,314.443 279.169,323.407 274.453,331.147 C 269.594,338.671 259.333,358.399 258.109,359.803 C 257.029,360.991 263.689,345.907 267.541,339.139 C 271.213,332.371 281.51,320.599 280.249,319.519 C 278.846,318.439 264.445,329.456 259.549,332.587 C 254.51,335.539 251.881,337.411 250.837,337.663 C 249.828,337.843 247.344,337.843 253.393,334.063 L 253.393,334.063 z "
   style="fill-rule:evenodd;stroke:#000000;stroke-width:0.036;stroke-miterlimit:10"
   id="path251" />
	<path
   d="M 317.256,285.066 C 313.404,289.926 300.444,309.367 297.672,315.882 C 294.864,322.111 299.544,323.37 300.193,323.154 C 300.625,322.902 297.133,320.813 300.553,314.801 C 304.044,308.681 317.509,292.229 320.532,287.225 C 323.16,282.15 321.145,280.314 317.256,285.066 L 317.256,285.066 z "
   style="fill-rule:evenodd;stroke:#000000;stroke-width:0.036;stroke-miterlimit:10"
   id="path253" />
	<path
   d="M 282.408,295.219 C 286.656,292.879 318.372,271.495 333.96,260.371 C 349.477,249.175 372.696,230.85 374.605,229.159 C 376.189,227.467 355.057,243.163 344.113,250.579 C 332.953,258.031 319.273,265.843 308.905,273.438 C 298.429,280.891 278.305,297.271 282.408,295.219 L 282.408,295.219 z "
   style="fill-rule:evenodd;stroke:#000000;stroke-width:0.036;stroke-miterlimit:10"
   id="path255" />
	<path
   d="M 344.112,242.947 C 352.536,241.543 358.944,241.434 363.732,242.226 C 368.52,243.126 371.292,244.926 372.444,248.022 L 372.444,248.022 C 371.544,243.667 369.6,240.93 366.612,239.67 C 363.444,238.338 358.044,239.886 354.3,240.426 C 350.521,240.967 347.172,241.759 344.112,242.947 L 344.112,242.947 z "
   style="fill-rule:evenodd;stroke:#000000;stroke-width:0.036;stroke-miterlimit:10"
   id="path257" />
	<path
   d="M 350.305,236.431 C 358.657,235.063 365.137,234.811 369.889,235.675 C 374.569,236.503 377.521,238.447 378.601,241.507 L 378.601,241.507 C 377.664,237.151 375.865,234.415 372.805,233.155 C 369.637,231.858 364.273,233.299 360.456,233.875 C 356.677,234.379 353.292,235.279 350.305,236.431 L 350.305,236.431 z "
   style="fill-rule:evenodd;stroke:#000000;stroke-width:0.036;stroke-miterlimit:10"
   id="path259" />
	<path
   d="M 361.177,230.959 C 369.601,229.627 376.009,229.339 380.796,230.239 C 385.513,231.066 388.357,233.01 389.473,236.071 L 389.473,236.071 C 388.536,231.715 386.737,228.978 383.677,227.718 C 380.509,226.422 375.145,227.863 371.328,228.438 C 367.549,228.979 364.164,229.771 361.177,230.959 L 361.177,230.959 z "
   style="fill-rule:evenodd;stroke:#000000;stroke-width:0.036;stroke-miterlimit:10"
   id="path261" />
	<path
   d="M 396.385,239.671 C 393.397,242.227 387.529,251.443 382.956,257.455 C 378.312,263.431 369.492,274.591 369.528,275.239 C 369.672,275.743 378.06,266.239 383.316,260.73 C 388.5,255.006 397.68,245.43 400.02,241.867 C 402.145,238.267 399.265,237.079 396.385,239.671 L 396.385,239.671 z "
   style="fill-rule:evenodd;stroke:#000000;stroke-width:0.036;stroke-miterlimit:10"
   id="path263" />
	<path
   d="M 210.552,355.087 C 205.548,358.543 203.568,363.583 202.236,369.234 C 200.796,374.85 199.176,383.922 202.236,388.134 C 205.224,392.13 212.532,394.614 219.984,393.21 C 227.364,391.59 241.44,384.93 246.12,379.062 C 250.584,373.086 249.612,363.006 247.236,358.002 C 244.788,352.89 238.128,349.398 231.972,348.93 C 225.744,348.427 215.556,351.595 210.552,355.087 L 210.552,355.087 z "
   style="fill:#a16121;fill-rule:evenodd;stroke:#000000;stroke-width:0.036;stroke-miterlimit:10"
   id="path265" />
	<path
   d="M 215.268,358.723 C 215.664,358.975 209.58,365.707 208.392,370.711 C 207.168,375.679 205.224,385.327 208.392,388.135 C 211.596,390.691 221.496,389.179 227.256,386.659 C 232.908,384.066 240.18,378.163 242.124,373.23 C 243.852,368.155 241.692,359.55 238.164,357.283 C 234.492,355.195 225.564,356.527 221.1,360.163 C 216.528,363.69 212.136,373.879 211.668,377.947 C 211.236,381.871 214.404,384.39 218.544,383.419 C 222.612,382.267 234.024,374.707 235.968,371.431 C 237.768,368.047 231.936,363.187 229.452,363.799 C 226.86,364.339 221.64,374.528 220.74,375.067 C 219.732,375.5 221.964,368.876 223.98,366.715 C 225.996,364.411 230.244,361.099 232.692,361.639 C 234.96,362.179 237.768,367.039 237.768,369.992 C 237.696,372.836 236.04,376.112 231.972,378.704 C 227.652,381.224 215.988,385.796 212.388,385.22 C 208.824,384.392 209.688,378.848 210.552,374.708 C 211.2,370.567 212.568,364.34 216.744,360.884 C 221.028,357.428 231.072,353.468 235.608,354.008 C 239.892,354.476 241.476,360.164 242.88,363.44 C 244.284,366.68 244.824,369.596 243.96,372.873 C 243.024,376.041 240.9,379.316 237.048,382.305 C 232.944,385.329 225.312,389.109 219.984,390.297 C 214.512,391.269 207.564,391.521 205.116,388.137 C 202.668,384.501 203.712,374.169 205.476,369.237 C 207.168,364.303 214.692,358.435 215.268,358.723 L 215.268,358.723 z "
   style="fill-rule:evenodd;stroke:#000000;stroke-width:0.036;stroke-miterlimit:10"
   id="path267" />
	<path
   d="M 316.177,328.591 C 317.796,327.115 320.46,326.755 324.168,327.511 C 327.84,328.231 332.557,329.995 338.316,332.948 L 338.316,332.948 C 331.08,336.8 325.896,339.032 322.332,339.5 C 318.769,340.004 318.228,337.592 317.256,335.864 C 316.212,334.027 315.853,331.65 316.177,328.591 L 316.177,328.591 z "
   style="fill:#a16121;fill-rule:evenodd;stroke:#000000;stroke-width:0.036;stroke-miterlimit:10"
   id="path269" />
</g>
</svg>