<?xml version="1.0" encoding="UTF-8" standalone="no"?>
<!-- Created with Inkscape (http://www.inkscape.org/) -->
<svg
   xmlns:svg="http://www.w3.org/2000/svg"
   xmlns="http://www.w3.org/2000/svg"
   version="1.0"
   width="407.82599"
   height="600.26599"
   viewBox="0 0 407.826 600.266"
   id="Layer_1"
   xml:space="preserve"><defs
   id="defs58" />

<metadata>
<rdf:RDF
      xmlns="http://web.resource.org/cc/"
      xmlns:dc="http://purl.org/dc/elements/1.1/"
      xmlns:rdf="http://www.w3.org/1999/02/22-rdf-syntax-ns#">
      <Work rdf:about="">
         <dc:title>Harp Silhouette</dc:title>
         <dc:description>Harp Silhouette</dc:description>
         <dc:subject>
          <rdf:Bag>
            <rdf:li>music</rdf:li>
            <rdf:li>instrument</rdf:li>
	    <rdf:li>harp</rdf:li>
	    <rdf:li>silhouette</rdf:li>
          </rdf:Bag>
         </dc:subject>
         <dc:publisher><Agent rdf:about="http://www.openclipart.org/"><dc:title>Open Clip Art Project</dc:title></Agent></dc:publisher>
         <dc:creator><Agent rdf:about=""><dc:title>Gerald G.</dc:title></Agent></dc:creator>
         <dc:rights><Agent rdf:about="http://web.resource.org/cc/PublicDomain"><dc:title>Public Domain</dc:title></Agent></dc:rights>
         <dc:date>2006/10/02</dc:date>
         <dc:format>image/svg+xml</dc:format>
         <dc:type>http://purl.org/dc/dcmitype/StillImage</dc:type>
         <license rdf:resource="http://web.resource.org/cc/PublicDomain" />
      </Work>
      <License rdf:about="http://web.resource.org/cc/PublicDomain">
         <permits rdf:resource="http://web.resource.org/cc/Reproduction" />
         <permits rdf:resource="http://web.resource.org/cc/Distribution" />
         <permits rdf:resource="http://web.resource.org/cc/DerivativeWorks" />
      </License>
   </rdf:RDF>
</metadata>

<g
   id="g5">
	<path
   d="M 43.028,141.896 L 41.444,350.408 L 41.444,350.408 C 37.556,354.296 35.504,357.679 34.748,360.956 C 34.028,364.124 34.928,367.004 37.304,369.596 L 37.304,369.596 C 34.712,372.117 33.524,374.348 33.452,376.292 C 33.416,378.2 34.496,379.819 36.98,381.151 L 36.98,381.151 L 35.072,499.015 L 35.072,499.015 C 32.732,500.311 31.472,501.824 30.896,503.156 C 30.32,504.452 30.644,505.964 31.868,507.296 L 31.868,507.296 C 29.6,509.312 28.52,511.292 28.34,513.38 C 28.196,515.432 28.952,517.556 30.896,519.752 L 30.896,519.752 C 27.368,524.72 24.272,528.428 21.32,531.272 C 18.368,534.044 15.704,535.701 13.328,536.384 L 13.328,536.384 C 9.548,536.528 6.992,537.248 5.66,538.94 C 4.292,540.488 4.364,543.657 5.048,545.961 C 5.66,548.157 6.992,550.28 9.188,552.333 L 9.188,552.333 L 8.864,568.64 L 8.864,568.64 C 4.832,569.612 2.168,571.016 0.872,572.456 C -0.568,573.932 0.08,575.588 0.872,577.567 C 1.628,579.511 3.068,581.744 5.336,584.263 L 5.336,584.263 L 40.796,600.247 L 40.796,600.247 C 62.072,599.959 79.316,599.526 93.5,598.951 C 107.576,598.339 118.052,597.726 124.784,596.719 C 131.3,595.603 133.964,594.271 132.776,592.579 L 132.776,592.579 C 137.096,591.642 144.08,590.599 153.872,589.051 C 163.7,587.539 182.816,585.271 191.24,583.651 C 199.484,581.996 201.212,580.771 203.372,578.864 C 205.46,576.884 205.712,574.292 203.984,571.483 L 203.984,571.483 C 208.952,571.303 212.444,570.799 214.857,569.576 C 217.161,568.351 218.277,566.695 218.06,564.464 L 218.06,564.464 C 222.632,565.832 226.304,566.624 229.22,566.695 C 231.992,566.624 233.649,566.12 235.304,564.788 C 236.924,563.456 238.436,561.584 239.445,559.027 L 239.445,559.027 C 241.209,560.899 243.549,561.223 246.465,560 C 249.381,558.704 255.106,554.96 256.69,551.684 C 258.093,548.264 256.797,542.865 255.429,540.201 C 253.99,537.501 250.822,536.564 248.409,535.736 C 245.817,534.8 243.117,535.701 240.741,535.089 C 238.365,534.333 236.277,533.037 234.333,531.885 C 232.353,530.625 230.301,529.581 228.573,528.213 L 228.573,528.213 C 234.045,517.845 240.525,505.533 248.409,490.845 C 256.149,475.941 264.392,459.777 275.228,440.409 C 286.1,420.969 297.189,402.717 313.208,375.501 C 329.156,348.141 355.148,304.977 370.376,278.085 C 385.424,251.157 397.088,229.737 403.28,215.481 C 409.183,201.261 408.212,200.577 406.484,193.305 C 404.755,185.781 398.851,176.277 393.055,171.597 C 387.079,166.917 379.051,166.161 371.347,165.837 C 363.499,165.405 357.2,165.333 346.759,169.653 C 336.211,173.973 320.911,186.933 309.068,191.721 C 297.223,196.401 287.179,198.741 276.164,197.769 C 264.932,196.689 251.792,192.405 242.972,185.313 C 234.296,178.077 229.58,169.437 224.109,154.965 C 218.493,140.313 215.649,114.069 209.745,98.445 C 203.625,82.785 195.993,71.337 188.361,61.725 C 180.657,52.077 173.385,46.065 164.061,40.629 C 154.593,35.013 142.065,31.017 132.453,28.497 C 122.733,26.013 114.345,25.005 106.605,25.617 L 106.605,25.617 C 108.009,23.961 109.665,22.233 111.717,20.829 C 113.697,19.389 116.037,17.877 118.737,16.689 L 118.737,16.689 C 119.961,15.609 120.573,14.529 120.969,13.161 C 121.257,11.757 121.149,10.317 120.645,8.697 L 120.645,8.697 C 115.749,6.285 108.981,4.377 100.197,2.973 C 91.197,1.461 80.397,-0.375 67.941,0.093 C 55.376,0.524 41.804,2.288 26.108,5.528 L 26.108,5.528 C 24.272,8.696 23.516,11.252 23.552,13.484 C 23.624,15.644 24.488,17.3 26.432,18.596 L 26.432,18.596 C 29.996,19.64 32.768,20.936 34.748,22.772 C 36.656,24.5 37.916,26.624 38.24,29.144 L 38.24,29.144 L 36.656,128.144 L 43.028,141.896 L 43.028,141.896 z M 94.472,138.116 C 100.52,135.884 105.956,134.984 111.068,135.56 C 116.036,135.992 119.636,136.568 124.784,141.32 C 129.968,146.144 135.836,154.352 141.704,164 C 147.392,173.36 152.18,188.156 158.984,197.84 C 165.716,207.488 172.124,214.328 181.952,221.816 C 191.744,229.196 204.056,237.62 217.088,242.228 C 229.976,246.728 246.357,248.276 258.596,248.96 C 270.62,249.5 278,248.312 288.945,246.08 C 299.817,243.776 311.913,239.744 323.432,235.532 C 334.808,231.32 345.897,226.424 356.985,220.844 L 356.985,220.844 C 341.325,239.852 325.052,259.616 307.485,280.964 C 289.808,302.311 270.189,326.288 252.224,348.032 C 234.189,369.704 217.916,390.223 200.493,409.987 C 182.889,429.716 164.313,448.435 148.113,465.319 C 131.949,482.095 117.405,496.567 104.049,509.708 L 104.049,509.708 C 103.905,508.52 103.473,507.656 102.753,506.828 C 101.961,505.964 100.953,505.424 99.585,504.92 L 99.585,504.92 C 100.485,503.228 100.737,502.076 100.197,501.067 C 99.621,500.023 98.397,499.519 96.381,499.16 L 96.381,499.16 L 97.317,378.775 L 97.317,378.775 C 99.657,376.832 100.881,374.815 100.845,373.015 C 100.737,371.179 99.513,369.271 97.029,367.579 L 97.029,367.579 C 99.261,365.85 100.053,363.726 99.261,361.207 C 98.397,358.615 96.093,355.627 92.205,352.243 L 92.205,352.243 L 91.268,143.48 L 91.268,143.48 C 92.312,141.716 93.392,139.917 94.472,138.116 L 94.472,138.116 z "
   style="fill-rule:evenodd;stroke:black;stroke-width:0.036;stroke-miterlimit:10"
   id="path7" />
	<path
   d="M 47.276,153.596 C 48.212,152.156 49.112,151.724 49.832,152.3 C 50.516,152.804 51.164,151.616 51.632,156.908 C 52.064,162.164 52.64,169.868 52.676,183.764 C 52.64,197.66 51.74,218.252 51.632,239.564 C 51.416,260.876 51.632,293.564 51.884,310.412 C 52.172,327.044 53.108,332.443 53.18,338.815 C 52.964,345.044 52.352,345.908 51.632,347.527 C 50.948,348.931 49.904,348.175 49.328,347.78 C 48.644,347.24 48.176,346.483 47.78,344.971 L 47.78,344.971 C 48.248,346.951 48.752,348.355 49.58,349.327 C 50.336,350.154 51.416,351.127 52.388,350.587 C 53.288,350.047 54.656,351.847 54.944,346.267 C 55.16,340.471 53.864,329.492 53.684,316.819 C 53.288,304.076 53.216,287.444 53.18,270.524 C 53.288,253.532 53.504,231.68 53.684,215.516 C 53.504,199.208 53.288,184.232 53.18,173.792 C 53.18,163.352 53.864,157.556 53.684,153.344 C 53.324,149.024 52.28,149.564 51.38,148.736 C 50.372,147.908 48.428,147.908 47.78,148.736 C 47.096,149.528 46.88,151.148 47.276,153.596 L 47.276,153.596 z "
   style="fill-rule:evenodd;stroke:black;stroke-width:0.036;stroke-miterlimit:10"
   id="path9" />
	<path
   d="M 59.048,148.808 C 59.984,147.368 60.884,146.828 61.604,147.476 C 62.288,147.98 62.936,146.756 63.404,152.264 C 63.872,157.736 64.34,165.908 64.412,180.38 C 64.376,194.888 63.44,216.416 63.404,238.7 C 63.188,260.948 63.404,295.184 63.656,312.788 C 63.944,330.176 64.88,335.864 64.952,342.487 C 64.736,348.859 64.124,350.048 63.404,351.595 C 62.72,353.071 61.676,352.28 61.1,351.847 C 60.416,351.451 59.948,350.335 59.552,348.895 L 59.552,348.895 C 60.02,350.875 60.524,352.532 61.352,353.467 C 62.108,354.439 63.188,355.303 64.16,354.799 C 65.06,354.187 66.428,356.095 66.716,350.227 C 66.932,344.179 65.636,332.731 65.456,319.483 C 65.06,306.091 64.988,288.848 64.952,271.064 C 65.06,253.172 65.276,230.528 65.456,213.536 C 65.276,196.544 65.06,180.848 64.952,169.94 C 64.952,158.96 65.636,152.948 65.456,148.556 C 65.096,144.164 64.052,144.452 63.152,143.732 C 62.144,142.832 60.2,142.832 59.552,143.732 C 58.868,144.524 58.652,146.216 59.048,148.808 L 59.048,148.808 z "
   style="fill-rule:evenodd;stroke:black;stroke-width:0.036;stroke-miterlimit:10"
   id="path11" />
	<path
   d="M 72.116,151.184 C 73.052,149.744 73.952,149.312 74.672,149.888 C 75.392,150.356 75.932,149.276 76.436,154.568 C 76.868,159.86 77.444,167.744 77.48,181.82 C 77.444,195.896 76.544,216.74 76.436,238.376 C 76.364,259.976 76.328,293.132 76.724,310.231 C 76.976,327.044 77.912,332.66 77.984,339.032 C 77.768,345.26 77.156,346.303 76.436,347.851 C 75.716,349.364 74.78,348.427 74.168,348.103 C 73.484,347.635 73.016,346.735 72.62,345.259 L 72.62,345.259 C 73.088,347.203 73.592,348.715 74.42,349.651 C 75.176,350.551 76.256,351.452 77.228,350.948 C 78.128,350.443 79.496,352.172 79.784,346.555 C 79.964,340.759 78.74,329.563 78.488,316.711 C 78.092,303.679 78.02,287.011 77.984,269.767 C 78.092,252.379 78.308,230.491 78.488,213.967 C 78.308,197.371 78.092,182.359 77.984,171.703 C 77.984,161.083 78.668,155.179 78.488,150.931 C 78.128,146.611 77.084,147.043 76.184,146.251 C 75.14,145.423 73.304,145.423 72.62,146.251 C 71.936,147.116 71.72,148.665 72.116,151.184 L 72.116,151.184 z "
   style="fill-rule:evenodd;stroke:black;stroke-width:0.036;stroke-miterlimit:10"
   id="path13" />
	<path
   d="M 82.34,158.708 C 83.276,157.376 84.176,156.979 84.896,157.52 C 85.58,158.024 86.228,156.872 86.696,161.84 C 87.164,166.772 87.632,173.972 87.704,187.04 C 87.668,200.108 86.732,219.368 86.696,239.384 C 86.48,259.328 86.696,290.108 86.948,305.876 C 87.2,321.319 88.136,326.684 88.208,332.516 C 88.1,338.241 87.272,339.248 86.696,340.688 C 86.012,342.02 84.968,341.3 84.392,340.904 C 83.708,340.436 83.24,339.608 82.844,338.276 L 82.844,338.276 C 83.312,340.148 83.816,341.409 84.644,342.344 C 85.4,343.172 86.48,344 87.452,343.568 C 88.352,343.028 89.72,344.756 90.008,339.464 C 90.224,334.027 88.928,323.804 88.748,311.852 C 88.388,299.792 88.208,284.385 88.208,268.401 C 88.244,252.381 88.604,232.041 88.748,216.813 C 88.604,201.477 88.244,187.509 88.208,177.681 C 88.244,167.889 88.928,162.309 88.748,158.457 C 88.388,154.569 87.344,154.749 86.444,154.137 C 85.436,153.345 83.492,153.345 82.844,154.137 C 82.16,154.892 81.944,156.368 82.34,158.708 L 82.34,158.708 z "
   style="fill-rule:evenodd;stroke:black;stroke-width:0.036;stroke-miterlimit:10"
   id="path15" />
	<polygon
   points="110.564,48.333 112.94,48.333 112.94,529.256 110.564,529.256 110.564,48.333 "
   style="fill-rule:evenodd;stroke:black;stroke-width:0.036;stroke-miterlimit:10"
   id="polygon17" />
	<polygon
   points="122.516,49.52 124.892,49.52 124.892,518.492 122.516,518.492 122.516,49.52 "
   style="fill-rule:evenodd;stroke:black;stroke-width:0.036;stroke-miterlimit:10"
   id="polygon19" />
	<polygon
   points="134.468,54.02 136.844,54.02 136.844,505.027 134.468,505.027 134.468,54.02 "
   style="fill-rule:evenodd;stroke:black;stroke-width:0.036;stroke-miterlimit:10"
   id="polygon21" />
	<polygon
   points="146.42,60.284 148.832,60.284 148.832,490.987 146.42,490.987 146.42,60.284 "
   style="fill-rule:evenodd;stroke:black;stroke-width:0.036;stroke-miterlimit:10"
   id="polygon23" />
	<polygon
   points="158.408,70.472 160.784,70.472 160.784,477.2 158.408,477.2 158.408,70.472 "
   style="fill-rule:evenodd;stroke:black;stroke-width:0.036;stroke-miterlimit:10"
   id="polygon25" />
	<polygon
   points="170.36,86.312 172.736,86.312 172.736,463.448 170.36,463.448 170.36,86.312 "
   style="fill-rule:evenodd;stroke:black;stroke-width:0.036;stroke-miterlimit:10"
   id="polygon27" />
	<polygon
   points="182.312,107.552 184.688,107.552 184.688,447.896 182.312,447.896 182.312,107.552 "
   style="fill-rule:evenodd;stroke:black;stroke-width:0.036;stroke-miterlimit:10"
   id="polygon29" />
	<polygon
   points="194.264,134.804 196.64,134.804 196.64,434.144 194.264,434.144 194.264,134.804 "
   style="fill-rule:evenodd;stroke:black;stroke-width:0.036;stroke-miterlimit:10"
   id="polygon31" />
	<polygon
   points="206.216,162.92 208.628,162.92 208.628,420.067 206.216,420.067 206.216,162.92 "
   style="fill-rule:evenodd;stroke:black;stroke-width:0.036;stroke-miterlimit:10"
   id="polygon33" />
	<polygon
   points="218.204,182.936 220.58,182.936 220.58,405.704 218.204,405.704 218.204,182.936 "
   style="fill-rule:evenodd;stroke:black;stroke-width:0.036;stroke-miterlimit:10"
   id="polygon35" />
	<polygon
   points="230.156,197.912 232.532,197.912 232.532,391.952 230.156,391.952 230.156,197.912 "
   style="fill-rule:evenodd;stroke:black;stroke-width:0.036;stroke-miterlimit:10"
   id="polygon37" />
	<polygon
   points="242.108,205.976 244.484,205.976 244.484,376.688 242.108,376.688 242.108,205.976 "
   style="fill-rule:evenodd;stroke:black;stroke-width:0.036;stroke-miterlimit:10"
   id="polygon39" />
	<polygon
   points="254.06,211.376 256.436,211.376 256.436,363.224 254.06,363.224 254.06,211.376 "
   style="fill-rule:evenodd;stroke:black;stroke-width:0.036;stroke-miterlimit:10"
   id="polygon41" />
	<polygon
   points="266.012,214.364 268.424,214.364 268.424,349.184 266.012,349.184 266.012,214.364 "
   style="fill-rule:evenodd;stroke:black;stroke-width:0.036;stroke-miterlimit:10"
   id="polygon43" />
	<polygon
   points="278,213.752 280.376,213.752 280.376,335.107 278,335.107 278,213.752 "
   style="fill-rule:evenodd;stroke:black;stroke-width:0.036;stroke-miterlimit:10"
   id="polygon45" />
	<polygon
   points="289.952,211.952 292.328,211.952 292.328,320.168 289.952,320.168 289.952,211.952 "
   style="fill-rule:evenodd;stroke:black;stroke-width:0.036;stroke-miterlimit:10"
   id="polygon47" />
	<polygon
   points="301.904,208.064 304.28,208.064 304.28,304.903 301.904,304.903 301.904,208.064 "
   style="fill-rule:evenodd;stroke:black;stroke-width:0.036;stroke-miterlimit:10"
   id="polygon49" />
	<polygon
   points="313.856,202.988 316.232,202.988 316.232,290.252 313.856,290.252 313.856,202.988 "
   style="fill-rule:evenodd;stroke:black;stroke-width:0.036;stroke-miterlimit:10"
   id="polygon51" />
	<polygon
   points="325.808,196.724 328.22,196.724 328.22,276.5 325.808,276.5 325.808,196.724 "
   style="fill-rule:evenodd;stroke:black;stroke-width:0.036;stroke-miterlimit:10"
   id="polygon53" />
	<polygon
   points="337.796,191.036 340.172,191.036 340.172,262.136 337.796,262.136 337.796,191.036 "
   style="fill-rule:evenodd;stroke:black;stroke-width:0.036;stroke-miterlimit:10"
   id="polygon55" />
</g>
</svg>