<?xml version="1.0" encoding="UTF-8" standalone="no"?>
<!-- Created with Inkscape (http://www.inkscape.org/) -->
<svg
   xmlns:dc="http://purl.org/dc/elements/1.1/"
   xmlns:cc="http://creativecommons.org/ns#"
   xmlns:rdf="http://www.w3.org/1999/02/22-rdf-syntax-ns#"
   xmlns:svg="http://www.w3.org/2000/svg"
   xmlns="http://www.w3.org/2000/svg"
   xmlns:sodipodi="http://sodipodi.sourceforge.net/DTD/sodipodi-0.dtd"
   xmlns:inkscape="http://www.inkscape.org/namespaces/inkscape"
   width="495.68021"
   height="314.84421"
   id="svg2078"
   sodipodi:version="0.32"
   inkscape:version="0.46dev+devel"
   sodipodi:docbase="C:\Documents and Settings\ryan\Desktop"
   sodipodi:docname="lakeside_skull_1_ok.svg"
   inkscape:output_extension="org.inkscape.output.svg.inkscape"
   version="1.0">
  <defs
     id="defs2080" />
  <sodipodi:namedview
     id="base"
     pagecolor="#ffffff"
     bordercolor="#666666"
     borderopacity="1.0"
     gridtolerance="10000"
     guidetolerance="10"
     objecttolerance="10"
     inkscape:pageopacity="0.0"
     inkscape:pageshadow="2"
     inkscape:zoom="1.3721072"
     inkscape:cx="247.8401"
     inkscape:cy="157.4221"
     inkscape:document-units="px"
     inkscape:current-layer="layer1"
     inkscape:window-width="853"
     inkscape:window-height="643"
     inkscape:window-x="217"
     inkscape:window-y="117"
     showgrid="false" />
  <metadata
     id="metadata2083">
    <rdf:RDF>
      <cc:Work
         rdf:about="">
        <dc:format>image/svg+xml</dc:format>
        <dc:type
           rdf:resource="http://purl.org/dc/dcmitype/StillImage" />
      </cc:Work>
    </rdf:RDF>
  </metadata>
  <g
     inkscape:label="Layer 1"
     inkscape:groupmode="layer"
     id="layer1"
     transform="translate(-27.146349,-22.279364)">
    <g
       id="g2170"
       transform="translate(-240.4163,-70.71068)">
      <path
         id="path2164"
         d="M 443.56019,407.68831 C 441.82723,407.56292 438.56612,407.17319 436.31327,406.82224 C 434.06043,406.4713 430.09038,405.88825 427.49094,405.52658 C 424.8915,405.1649 419.67929,403.95685 415.90824,402.84202 C 409.48213,400.94227 408.78998,400.57355 404.88032,396.96713 C 400.50949,392.93531 397.09632,390.87378 393.04529,389.81884 C 385.02223,387.72952 381.16112,386.56072 380.67446,386.07406 C 380.37045,385.77006 380.21662,384.85058 380.33262,384.03077 C 380.51067,382.77232 381.41388,382.2392 386.13289,380.60717 L 391.72227,378.67413 L 380.81866,378.95781 C 373.73511,379.14211 368.11454,378.9614 364.77584,378.44203 C 359.95926,377.69275 359.0863,377.74864 350.86998,379.33233 C 346.04833,380.2617 340.70299,381.60719 338.99146,382.32231 C 336.3241,383.4368 335.01888,383.57338 329.85404,383.27847 C 322.54072,382.86089 315.53274,382.01514 308.38941,380.68805 C 305.44338,380.14073 301.33203,379.38629 299.25308,379.01151 C 290.896,377.50495 284.61565,373.02528 285.20746,368.99301 C 285.41152,367.60267 285.19728,367.02542 284.38105,366.76636 C 282.52626,366.17768 279.3102,362.52915 278.01045,359.53913 C 277.33247,357.97946 276.40385,355.85265 275.94685,354.81288 C 274.71654,352.01369 270.57968,332.94343 269.86368,326.77045 C 269.52197,323.82442 268.98289,319.28722 268.66573,316.68778 C 267.57691,307.7639 267.16467,281.92452 268.02564,276.5668 C 269.70692,266.10441 273.60551,259.52247 281.21319,254.30246 L 283.33973,252.84333 L 281.69842,251.98336 C 278.92263,250.52898 274.09621,244.90364 273.26286,242.15145 C 271.8617,237.52405 271.64464,232.19144 272.73458,229.17291 C 273.28219,227.65632 273.73818,225.81308 273.74788,225.07683 C 273.7971,221.34343 277.39435,215.83074 286.97456,204.80726 C 296.68911,193.62921 304.10733,184.7386 305.82665,182.21335 C 306.32339,181.48377 307.62646,179.89433 308.72236,178.68125 C 311.08797,176.06271 314.20631,171.40589 316.03609,167.7592 C 316.76093,166.3146 317.8542,164.56552 318.46558,163.87233 C 319.07696,163.17915 319.91637,161.55255 320.33094,160.25765 C 320.7455,158.96276 321.35088,157.7388 321.67621,157.53773 C 322.00154,157.33666 323.28735,155.56037 324.53356,153.59041 C 325.77977,151.62045 327.42283,149.29973 328.1848,148.43325 C 329.87562,146.51053 334.22625,139.34441 334.22625,138.4821 C 334.22625,137.88669 340.81909,127.76231 342.54094,125.71356 C 344.89424,122.91346 349.56069,120.59667 355.49659,119.28137 C 360.23129,118.23223 363.58766,116.92085 370.14576,113.55776 C 374.82475,111.1583 379.36195,108.57209 380.22843,107.81063 C 382.93823,105.42926 398.51876,99.781264 408.90102,97.416714 C 412.02034,96.706284 415.56503,95.852994 416.7781,95.520504 C 420.39029,94.530444 434.96778,92.990004 440.72444,92.990044 C 451.12553,92.990094 464.67078,97.789254 464.67078,101.47435 C 464.67078,104.31773 463.30717,104.65472 456.27239,103.54987 C 450.08172,102.57759 442.91124,102.72501 434.18531,104.00395 C 428.95406,104.77069 419.19491,108.78556 417.44907,110.88917 C 416.99516,111.43609 416.34497,111.88357 416.0042,111.88357 C 415.66343,111.88357 414.56913,112.52162 413.57242,113.30145 C 401.10038,123.05966 400.09697,124.36072 400.0858,130.78858 C 400.08058,133.79398 400.42331,135.47195 401.37293,137.09025 L 402.66718,139.29583 L 409.62994,139.47314 L 416.59269,139.65046 L 419.79024,137.49867 C 421.54889,136.31518 424.78082,134.27165 426.97232,132.95749 C 429.16382,131.64332 431.98254,129.69608 433.23615,128.63029 C 435.7922,126.4572 444.8182,120.70591 445.67257,120.70591 C 445.97694,120.70591 446.90226,120.18414 447.72883,119.54643 C 448.5554,118.90872 450.1892,118.06024 451.35949,117.66091 C 452.52978,117.26159 454.81393,116.11857 456.43538,115.12089 C 458.05683,114.1232 460.07686,113.0949 460.92433,112.83579 C 461.7718,112.57667 462.89056,112.00639 463.41045,111.56849 C 463.93033,111.13059 465.06463,110.56344 465.93111,110.30816 C 466.79759,110.05287 467.93189,109.48572 468.45178,109.04782 C 468.97167,108.60993 470.10597,108.04246 470.97245,107.7868 C 471.83893,107.53113 473.96574,106.6623 475.6987,105.85606 C 484.62899,101.70137 492.49483,99.162204 506.89195,95.786564 C 516.14311,93.617484 517.39254,93.479094 530.52321,93.169104 C 543.3194,92.866994 544.62949,92.938064 547.53771,94.092094 C 551.61037,95.708184 552.09332,97.680704 548.98785,100.01493 C 546.09741,102.18754 545.16294,102.46895 538.71538,103.10837 C 535.59605,103.41772 530.91706,103.94133 528.31763,104.27194 C 523.33074,104.9062 509.00194,109.34889 506.16205,111.14135 C 500.79373,114.52968 497.22792,117.35324 493.77164,120.95259 C 490.48672,124.3735 489.87745,125.35933 489.87745,127.25359 C 489.87745,128.89061 490.26171,129.74765 491.29533,130.41597 C 499.21753,135.53835 520.11856,137.19214 543.75671,134.56699 C 559.92168,132.77177 563.25036,132.33521 569.27847,131.21978 C 576.23504,129.93255 588.49924,127.87695 594.48514,126.99489 C 597.08458,126.61185 600.91284,125.96175 602.99239,125.55022 C 605.51701,125.05062 614.62579,124.80893 630.40465,124.82287 L 654.0359,124.84375 L 667.33097,127.81616 C 674.64325,129.45099 681.52905,130.78858 682.63275,130.78858 C 683.73645,130.78858 685.68316,131.22466 686.95878,131.75765 C 688.23439,132.29063 692.80647,133.56994 697.11895,134.60055 C 707.44466,137.06823 725.03201,144.55522 729.67049,148.45785 C 731.04128,149.61118 738.27402,153.60954 747.30059,158.20402 C 756.28057,162.77479 759.25891,164.9329 761.52529,168.51128 C 765.19918,174.31194 762.93198,176.18356 755.17767,173.75137 C 748.52292,171.66407 744.33084,170.56643 741.31401,170.12135 C 739.75434,169.89126 736.91859,169.30311 735.01234,168.81436 C 729.5173,167.40545 717.48291,165.83493 691.84591,163.181 C 672.76415,161.20568 648.91515,160.7436 640.17223,162.17982 C 634.02159,163.1902 627.81825,164.75112 626.85613,165.53047 C 626.46411,165.84803 624.62087,166.51578 622.76004,167.01436 C 620.89922,167.51294 617.98168,168.6405 616.27664,169.52006 C 614.57159,170.39962 612.79924,171.11925 612.33809,171.11925 C 611.87694,171.11925 611.49964,171.39261 611.49964,171.7267 C 611.49964,172.0608 610.47599,173.02974 609.22487,173.8799 C 605.81123,176.19953 599.91891,181.99361 598.28493,184.63743 C 595.15099,189.70825 597.37196,198.16955 603.18494,203.30518 C 609.81176,209.15981 616.4687,212.73791 626.35967,215.76159 C 631.36387,217.29137 634.62072,217.81059 642.6929,218.36548 C 655.21904,219.22654 671.80932,220.7816 676.40682,221.52559 C 678.31308,221.83407 682.42492,222.4002 685.54424,222.78366 C 688.66357,223.16712 692.63362,223.87572 694.36658,224.35832 C 702.72946,226.68724 710.44895,229.23618 710.78476,229.77952 C 710.98994,230.11151 712.90949,231.267 715.05045,232.34728 C 722.61932,236.16639 730.71839,246.21086 736.89909,259.444 C 738.52165,262.91796 738.82672,264.27573 738.66892,267.32108 C 738.48768,270.81891 738.39202,271.0106 736.73281,271.20129 C 734.94401,271.40688 732.96187,270.12953 726.82017,264.8133 C 725.26051,263.46326 721.85761,261.28973 719.25817,259.98322 C 703.28899,251.95694 687.91485,249.13106 667.4817,250.46631 C 661.81947,250.83632 652.08239,251.43791 645.84373,251.80316 C 635.03078,252.43623 629.21543,253.06246 625.04823,254.04252 C 622.37458,254.67133 613.20015,261.46853 610.34583,264.93532 C 607.19313,268.76451 606.21221,271.33694 606.64673,274.63604 C 606.92913,276.78016 607.5313,277.76484 609.7214,279.66378 L 612.44489,282.0252 L 620.11399,282.02691 C 629.34474,282.02896 636.53657,280.4822 650.88507,275.40893 C 663.56177,270.92677 664.54421,270.69318 670.73634,270.68912 C 675.79493,270.6858 690.18723,273.10778 692.68072,274.38198 C 693.26135,274.67869 694.78595,275.08261 696.06873,275.27958 C 697.3515,275.47655 699.70557,276.4022 701.29999,277.3366 C 704.07921,278.96533 704.19108,279.14282 704.009,281.63484 L 703.81908,284.23419 L 696.25708,284.31111 C 688.30267,284.39201 688.45243,284.35987 671.05041,289.72032 C 667.58449,290.78795 663.04729,292.4512 660.96774,293.41644 C 658.88819,294.38168 654.91814,296.20751 652.1454,297.47383 C 649.37267,298.74016 646.07652,300.29698 644.82064,300.93344 C 641.08362,302.82729 630.24648,305.94604 625.16315,306.59055 C 622.55678,306.921 619.19607,307.47372 617.69493,307.8188 C 616.19378,308.16388 608.8687,309.03778 601.41698,309.76079 C 593.96525,310.4838 584.3237,311.80056 579.9913,312.68692 C 575.65891,313.57329 570.76801,314.5353 569.12263,314.82473 C 567.47726,315.11416 565.87176,315.51121 565.55486,315.70706 C 565.23796,315.90292 559.21122,316.6321 552.16211,317.32748 C 535.03006,319.0175 530.0868,319.97923 524.19598,322.7684 C 522.38411,323.62628 520.25501,325.01651 519.46466,325.8578 C 518.04511,327.36885 518.04231,327.40362 519.23411,328.72326 C 519.89765,329.45797 522.0002,330.83935 523.90646,331.79298 C 531.9488,335.81631 539.6795,337.17242 554.46955,337.15432 C 565.82539,337.14043 568.67598,336.76061 578.1008,334.00566 C 581.55569,332.99576 591.75874,331.24627 602.04714,329.89964 C 604.99317,329.51404 609.81395,328.80219 612.75998,328.31776 C 623.14286,326.61046 639.90252,325.33307 646.21538,325.76786 C 652.66571,326.21213 662.38009,328.50378 666.75672,330.61364 C 670.1385,332.24392 673.88616,336.36104 673.88616,338.44595 C 673.88616,340.6631 671.89227,341.26464 664.55017,341.26256 C 661.19347,341.26161 655.46953,341.53766 651.83032,341.876 C 624.26858,344.43847 616.71409,345.27049 611.18456,346.35255 C 602.58086,348.03618 593.54905,350.0138 589.75889,351.04395 C 588.02593,351.51496 585.47375,352.1039 584.08739,352.3527 C 582.70102,352.6015 580.65421,353.18593 579.53892,353.65143 C 578.42363,354.11693 576.89775,354.49779 576.14807,354.49779 C 574.33029,354.49779 553.23638,364.47601 549.3478,367.17533 C 545.16836,370.07656 545.48575,369.89934 533.88322,375.81002 C 528.2227,378.69366 523.02422,381.54671 522.33104,382.15014 C 521.63786,382.75358 518.66032,384.62023 515.71429,386.29825 C 512.76826,387.97628 508.12454,391.0783 505.39492,393.19163 C 496.48433,400.0904 493.49855,401.32472 479.4797,403.90497 C 474.62741,404.79806 468.24698,405.98658 465.30095,406.54613 C 459.9331,407.56567 449.4655,408.1156 443.56019,407.68831 z"
         style="fill:#000000" />
      <path
         id="path2162"
         d="M 465.30095,401.51379 C 493.81957,396.14502 492.25286,396.66716 501.61794,389.41063 C 504.34536,387.2973 508.98726,384.19528 511.93329,382.51725 C 514.87932,380.83922 517.85686,378.97626 518.55004,378.37734 C 519.24322,377.77842 524.37278,375.00947 529.94905,372.22413 C 535.52532,369.43879 540.45171,366.72129 540.89659,366.18525 C 541.34146,365.6492 541.9741,365.21063 542.30246,365.21063 C 542.63081,365.21063 544.1468,364.35244 545.67131,363.30355 C 549.04437,360.98282 564.04823,353.79954 570.5388,351.39792 C 575.29295,349.63882 578.01196,348.83372 584.40247,347.29293 C 586.30873,346.83332 589.14448,346.14598 590.70414,345.7655 C 606.32286,341.95534 616.79469,340.15261 631.3499,338.76834 C 656.39421,336.38651 658.40939,336.21958 662.22807,336.21061 L 666.00907,336.20172 L 664.11857,334.99883 C 661.35372,333.23961 652.98434,331.28818 646.14105,330.80714 C 639.93525,330.37092 623.11001,331.65719 612.75998,333.3591 C 609.81395,333.84353 604.99317,334.55877 602.04714,334.94852 C 589.36955,336.62573 581.02197,338.20118 573.05947,340.41941 C 567.60347,341.93937 566.01171,342.09261 555.09972,342.14836 C 542.19458,342.2143 537.13619,341.59391 528.63271,338.9023 C 522.26925,336.88807 517.11188,334.31367 515.08412,332.13927 C 512.73,329.61489 512.84537,325.02492 515.32809,322.43352 C 517.41207,320.25832 521.77634,318.06908 527.68746,316.23373 C 533.60905,314.39513 537.78881,313.72245 552.16211,312.29483 C 559.21122,311.59468 565.23796,310.86158 565.55486,310.66573 C 565.87176,310.46987 567.47726,310.07282 569.12263,309.78339 C 570.76801,309.49396 575.65891,308.53195 579.9913,307.64559 C 584.3237,306.75923 593.96525,305.44247 601.41698,304.71945 C 608.8687,303.99645 616.19378,303.12255 617.69493,302.77746 C 619.19607,302.43238 622.53487,301.88244 625.11447,301.55538 C 630.0045,300.93538 637.77653,298.8396 640.48732,297.40999 C 641.3538,296.95303 644.61491,295.40882 647.73424,293.97843 C 650.85356,292.54803 655.10719,290.58543 657.18674,289.61708 C 659.26629,288.64875 662.10204,287.50369 663.48841,287.07252 C 664.87477,286.64135 666.9291,285.90259 668.05357,285.43081 C 669.17804,284.95904 672.86452,283.8715 676.24574,283.01405 C 679.62696,282.1566 683.63426,281.01696 685.15085,280.4815 C 686.66744,279.94604 688.65247,279.49932 689.56202,279.48878 C 692.47923,279.45498 689.74524,278.48798 682.70849,277.06473 C 675.51155,275.60908 666.86571,275.32871 662.85824,276.42103 C 661.47187,276.79892 656.08395,278.61312 650.88507,280.45258 C 645.68619,282.29205 638.25522,284.55513 634.3718,285.48164 C 628.12699,286.97153 626.30159,287.14243 618.57591,286.96053 L 609.84079,286.75486 L 606.70535,284.12783 C 604.23894,282.06135 603.34021,280.77213 602.49344,278.08586 C 601.10229,273.67261 601.13526,272.54832 602.79174,267.91456 C 604.59588,262.86776 607.80072,259.08186 614.1706,254.47265 C 622.71266,248.29165 622.85384,248.26369 656.24149,246.13883 C 661.61366,245.79694 668.70304,245.34197 671.99566,245.12778 C 691.41595,243.86451 718.71651,251.19492 730.1846,260.75196 L 733.23396,263.29317 L 731.83245,260.53018 C 725.71725,248.47436 718.30495,239.67826 711.26945,236.12828 C 709.12849,235.04801 707.2209,233.91188 707.03036,233.60357 C 706.70921,233.08395 701.97471,231.51151 694.36658,229.39764 C 692.63362,228.91615 688.66357,228.20846 685.54424,227.825 C 682.42492,227.44154 678.31308,226.8754 676.40682,226.56692 C 671.8106,225.82314 655.27255,224.26975 642.45956,223.37832 C 632.19207,222.66399 628.48697,221.91735 619.9982,218.85197 C 610.48756,215.41757 604.01531,211.5773 598.54329,206.12181 C 596.0282,203.61433 594.96784,201.88144 593.52426,197.91952 C 591.17307,191.46666 591.16716,187.57061 593.50134,182.79972 C 595.23995,179.24612 600.97431,173.13604 605.38118,170.14149 C 606.66679,169.26791 607.71864,168.2798 607.71864,167.9457 C 607.71864,167.61161 608.0741,167.33825 608.50854,167.33825 C 608.94299,167.33825 611.28248,166.38405 613.70742,165.21782 C 619.52379,162.42051 633.14976,158.22113 639.85715,157.15874 C 649.0348,155.70508 672.62795,156.15024 691.84591,158.13967 C 706.55302,159.66214 715.82097,160.72345 725.24475,161.96433 C 728.68416,162.41721 737.38817,164.19273 745.59075,166.11468 C 748.46285,166.78764 751.12064,167.33825 751.49695,167.33825 C 753.28181,167.33825 749.89426,165.01552 743.54495,161.88582 C 735.22467,157.78459 727.39811,153.50814 725.88949,152.23885 C 724.04789,150.68941 715.54573,146.31045 707.57912,142.80826 C 704.15752,141.3041 687.10465,136.77157 681.44816,135.86284 C 679.5419,135.5566 672.59432,134.08791 666.00907,132.59909 L 654.0359,129.89214 L 630.40465,129.86774 C 614.612,129.85142 605.51922,130.09152 602.99239,130.59156 C 600.91284,131.00308 597.08458,131.65318 594.48514,132.03622 C 588.49924,132.91828 576.23504,134.97388 569.27847,136.26111 C 556.91305,138.54919 533.75673,140.86779 523.25234,140.86964 C 507.94495,140.87233 493.71519,138.36367 488.05852,134.66508 C 484.88729,132.59159 483.938,126.81331 486.02404,122.28133 C 487.31061,119.48621 493.79359,112.99842 497.85911,110.43749 C 499.30299,109.52796 500.64816,108.51874 500.84839,108.19477 C 501.22466,107.58596 510.02202,104.07143 516.65954,101.87825 C 521.79343,100.1819 530.32819,98.706664 540.2908,97.793584 C 541.50387,97.682404 539.80242,97.555104 536.50979,97.510684 C 520.0862,97.289124 497.73833,101.75181 483.16781,108.16263 C 479.30421,109.86256 475.72687,111.25341 475.21816,111.25341 C 474.70946,111.25341 473.61696,111.76452 472.79039,112.38922 C 471.96382,113.01392 467.31748,115.44799 462.4652,117.79826 C 457.61291,120.14854 453.2175,122.33672 452.69761,122.6609 C 452.17772,122.98507 451.02056,123.59944 450.12614,124.02615 C 447.09386,125.4728 439.28404,130.46383 437.00529,132.41129 C 435.7582,133.47709 432.89462,135.4437 430.64177,136.78155 C 428.38893,138.1194 425.69496,139.84808 424.65519,140.62307 C 420.68466,143.58247 416.59014,144.65225 409.2338,144.65225 C 405.45668,144.65225 401.63904,144.37574 400.75016,144.03779 C 398.64688,143.23812 396.9677,140.40511 395.59817,135.34565 C 394.30159,130.55569 394.87963,126.36911 397.57431,121.03299 C 399.09444,118.02278 399.92565,117.23951 409.79142,109.52045 C 410.78813,108.74062 411.88243,108.10257 412.2232,108.10257 C 412.56397,108.10257 413.23197,107.63303 413.70765,107.05914 C 414.76946,105.7781 424.16215,101.17074 425.71189,101.17074 C 426.32975,101.17074 427.95105,100.72429 429.31478,100.17863 C 430.67851,99.632984 433.73268,98.961314 436.10182,98.686044 C 439.16035,98.330674 439.67846,98.163194 437.88869,98.108444 C 434.71805,98.011464 419.72385,99.754314 416.7781,100.56223 C 415.56503,100.89493 411.59498,101.86141 407.95577,102.70996 C 397.78646,105.08113 386.46249,109.31252 383.82669,111.72621 C 383.06072,112.42763 378.74754,114.907 374.24184,117.23591 C 369.73615,119.56483 365.34074,121.84057 364.47426,122.29312 C 363.60778,122.74567 360.7801,123.43428 358.19052,123.82336 C 353.40341,124.54262 349.31089,126.42363 346.74835,129.08244 C 345.01516,130.88075 338.00725,141.44794 338.00725,142.2631 C 338.00725,143.12541 333.65662,150.29153 331.9658,152.21425 C 331.20383,153.08073 329.56077,155.40145 328.31456,157.37141 C 327.06835,159.34137 325.78254,161.11766 325.45721,161.31873 C 325.13188,161.5198 324.52651,162.74376 324.11194,164.03865 C 323.69737,165.33355 322.85796,166.96015 322.24658,167.65334 C 321.6352,168.34652 320.54193,170.0956 319.81709,171.5402 C 318.03594,175.08999 314.94043,179.704 312.21486,182.87169 C 310.97734,184.30994 308.12159,187.82292 305.86874,190.67829 C 303.6159,193.53367 299.50406,198.46019 296.73133,201.62612 C 281.2965,219.24972 279.98906,221.12266 277.81838,228.71956 C 277.03431,231.46361 276.86911,233.50476 277.18919,236.49366 C 277.57988,240.14183 277.91666,240.88156 280.56053,243.8987 C 282.70013,246.34037 284.52464,247.67541 287.27882,248.81465 C 290.32486,250.0746 291.0973,250.68535 291.25264,251.9566 C 291.41574,253.29143 290.68746,254.07087 286.52639,257.01485 C 277.61338,263.32086 274.34254,268.06454 273.08806,276.50438 C 272.20732,282.42981 272.59516,307.52747 273.70902,316.68778 C 274.02511,319.28722 274.56397,323.82442 274.9065,326.77045 C 275.76466,334.15131 279.12822,348.89624 281.11684,353.99487 C 283.75367,360.75548 285.60182,362.1996 295.68962,365.38184 L 304.29333,368.09592 L 304.29333,370.59181 C 304.29333,372.88804 304.11688,373.14489 302.08774,373.80236 L 299.88216,374.517 L 303.03299,374.7924 C 304.76595,374.94387 308.87779,375.5256 312.17041,376.08515 C 328.66464,378.88813 333.46164,379.09641 338.31015,377.22007 C 340.04981,376.54684 345.58501,375.22746 350.61059,374.2881 C 358.82764,372.75222 360.17764,372.65336 364.01333,373.30658 C 369.82303,374.29597 383.73485,374.19834 394.40718,373.09328 C 406.9029,371.79941 409.01315,371.84611 409.86367,373.4353 C 411.1565,375.85099 410.38522,377.32916 407.3256,378.29953 C 401.40402,380.17757 391.86221,383.69324 391.28785,384.20861 C 390.9372,384.52325 391.26731,384.7458 392.08468,384.7458 C 392.8522,384.7458 395.90579,385.72389 398.87044,386.91933 C 403.0382,388.5999 405.16861,389.94215 408.26372,392.83748 C 411.61878,395.97597 413.06536,396.83957 417.20062,398.17277 C 419.91427,399.04764 424.54491,400.08229 427.49094,400.472 C 430.43697,400.86171 434.40702,401.45556 436.31327,401.79168 C 444.27275,403.19512 457.0189,403.07293 465.30095,401.51379 z"
         style="fill:#c0c0c0;fill-opacity:1" />
      <path
         id="path2160"
         d="M 349.35025,350.26795 C 345.36445,349.06468 338.13329,346.51154 333.281,344.5943 C 328.42872,342.67707 322.19007,340.30955 319.41733,339.33316 C 308.89597,335.62814 294.09362,329.5355 291.3715,327.78951 C 287.14085,325.07592 282.98928,319.63901 281.0612,314.2871 C 279.22035,309.17736 279.08131,307.53108 280.0924,302.81653 C 280.6128,300.39 281.13985,299.46044 282.23036,299.04582 C 284.88244,298.03751 286.38291,298.99681 288.0397,302.75994 C 289.92571,307.04369 295.54431,315.44791 297.51695,316.93588 C 298.87614,317.96112 298.97132,317.95822 299.36184,316.87971 C 299.58831,316.25426 300.42047,314.25376 301.21108,312.43416 C 302.4588,309.56251 302.8819,309.12761 304.41619,309.13962 C 305.38839,309.14723 307.38902,309.70052 308.86204,310.36915 C 312.09435,311.83635 312.23995,312.90957 310.01031,318.83319 L 308.48037,322.89786 L 310.41942,323.57382 C 311.48591,323.9456 312.41489,324.24979 312.48383,324.24979 C 312.66672,324.24979 314.40117,319.9884 315.62581,316.53024 C 316.85923,313.04727 317.87928,312.78739 322.51592,314.77489 C 326.04642,316.28824 326.16785,317.27644 323.51292,322.88849 C 322.47342,325.08581 321.62291,327.08476 321.62291,327.33061 C 321.62291,327.73199 325.25201,329.29112 326.18629,329.29112 C 326.39409,329.29112 326.75619,328.3695 326.99096,327.24308 C 327.22573,326.11665 328.15132,323.53416 329.04782,321.5042 L 330.67784,317.81337 L 333.10622,318.13908 C 336.39072,318.57963 338.63742,320.14486 338.63742,321.99257 C 338.63742,322.81467 337.55793,325.63525 336.23855,328.26052 L 333.83968,333.03374 L 335.70242,333.6831 C 338.4168,334.62934 338.52415,334.57269 339.27079,331.7999 C 340.40714,327.5798 342.23416,323.82517 343.36192,323.39241 C 343.94837,323.16736 345.67745,323.53584 347.20431,324.21124 C 350.27749,325.57066 350.51847,326.33648 349.12481,330.31468 C 348.65422,331.65798 348.07207,334.08815 347.83115,335.71505 L 347.39311,338.67306 L 349.99663,339.4531 C 353.0419,340.36548 353.06157,340.34713 354.70788,335.05545 C 356.97109,327.7809 357.30167,327.54805 361.9787,329.93409 C 364.74822,331.347 364.99511,332.28877 363.58272,336.05266 C 363.09236,337.35939 362.51981,339.20837 362.31037,340.1615 L 361.92958,341.89446 L 366.19521,341.89359 C 371.40114,341.89254 380.14395,340.41623 382.55268,339.13147 C 383.52719,338.61169 387.72741,334.75237 391.88651,330.5552 C 397.41911,324.97196 400.63233,322.27502 403.85968,320.5058 C 408.14724,318.15539 408.89624,317.85642 412.50999,317.05307 L 414.22848,316.67104 L 413.00065,314.3154 C 411.3901,311.22549 411.90838,309.44347 414.74688,308.31133 C 418.07042,306.98573 419.22221,307.59041 421.15389,311.67493 L 422.86861,315.3007 L 425.17977,313.97988 C 426.45091,313.25343 427.49094,312.45473 427.49094,312.205 C 427.49094,311.95526 426.92379,310.42783 426.2306,308.8107 C 424.44721,304.65021 424.5853,303.05556 426.82948,301.89505 C 430.82996,299.82632 432.74103,300.8958 434.40141,306.13249 C 435.19316,308.62961 436.27617,309.11368 437.57361,307.55037 C 438.00508,307.03048 438.72887,306.60512 439.18204,306.60512 C 439.78374,306.60512 439.60211,305.61117 438.50861,302.92007 C 436.76926,298.63949 437.01396,296.84422 439.51291,295.55196 C 443.04215,293.72692 444.35653,294.25929 446.10991,298.224 C 446.98362,300.19962 447.78474,301.9023 447.89017,302.00773 C 448.03916,302.15672 451.78171,300.53873 452.53823,299.99825 C 452.62387,299.93707 452.23467,298.53915 451.67335,296.89176 C 450.42612,293.23136 451.13761,291.07524 453.77897,290.51084 C 463.83712,288.36164 471.07653,284.7095 477.68157,278.45246 C 479.99572,276.26024 482.05593,274.45718 482.25982,274.44566 C 482.46372,274.43414 484.60611,272.16686 487.02072,269.40726 C 491.70714,264.05124 493.71878,263.03143 497.24809,264.22241 C 498.98766,264.80943 499.01459,264.89572 498.99671,269.82458 C 498.98075,274.22244 498.7175,275.36342 496.82959,279.21728 C 494.96733,283.01878 492.89325,285.39054 481.28311,296.99507 C 469.69686,308.57571 467.62568,310.38612 465.9631,310.38612 C 464.90573,310.38612 464.04061,310.1243 464.04061,309.8043 C 464.04061,309.4843 463.32595,308.37316 462.45248,307.3351 L 460.86436,305.44771 L 458.00283,307.04705 C 455.85129,308.24957 455.25088,308.90131 455.58295,309.67379 C 458.43731,316.31375 458.35783,317.11753 454.59333,319.68108 C 451.07322,322.07821 449.51178,321.63198 447.42148,317.63153 C 446.42586,315.72611 445.39709,314.16712 445.13531,314.16712 C 444.37233,314.16712 439.85413,316.12816 438.98391,316.83702 C 438.36282,317.34294 438.67339,318.35166 440.40179,321.44233 C 443.35566,326.72436 443.27526,327.63978 439.65582,329.93516 C 435.18316,332.77164 433.77773,332.50697 431.71867,328.44045 C 430.77978,326.58621 430.00726,324.67208 430.00196,324.18683 C 429.97759,321.95924 429.04625,321.64665 426.17915,322.90379 C 420.8914,325.22232 420.92837,325.12739 423.0777,330.86654 C 424.1161,333.63927 424.96673,336.41799 424.96798,337.04147 C 424.97061,338.34372 420.56275,340.59845 417.97163,340.62028 C 416.53023,340.63243 416.01215,339.97908 413.7352,335.2777 C 412.30839,332.33167 411.02582,329.92129 410.88506,329.92129 C 410.7443,329.92129 409.00159,330.90134 407.01236,332.09919 C 405.02313,333.29704 403.131,334.36529 402.8076,334.4731 C 402.4842,334.58089 402.96306,336.29299 403.87171,338.27775 C 406.18174,343.32353 405.8754,344.49172 401.96918,345.53279 C 400.23622,345.99466 396.26617,347.09358 393.14685,347.97485 C 379.51031,351.82743 374.74188,352.61139 365.431,352.5315 C 357.27824,352.46155 356.03845,352.28703 349.35025,350.26795 z"
         style="fill:#000000" />
      <path
         id="path2158"
         d="M 380.87009,346.05375 C 386.1629,344.84201 397.40375,341.79787 399.18463,341.09398 C 399.38608,341.01435 398.80199,339.29923 397.88664,337.28261 L 396.22236,333.61601 L 391.9133,338.04034 C 388.22904,341.82314 386.95528,342.69389 383.12863,344.0455 C 380.66704,344.91495 376.45334,345.96018 373.76487,346.36822 C 368.46762,347.1722 358.03385,346.84822 356.75725,345.84011 C 356.32262,345.49689 354.3356,345.05626 352.34167,344.86093 C 348.5375,344.48828 341.78825,341.8074 341.78825,340.66898 C 341.78825,340.30322 340.77995,340.00396 339.54758,340.00396 C 336.92472,340.00396 328.55475,336.29245 328.55475,335.12939 C 328.55475,334.69108 327.96133,334.33245 327.23604,334.33245 C 325.59185,334.33245 316.66765,331.20053 316.21225,330.46368 C 316.02788,330.16537 314.6524,329.92129 313.15563,329.92129 C 311.62058,329.92129 310.12199,329.54505 309.71796,329.05824 C 309.32402,328.58356 307.75956,327.72081 306.2414,327.14102 C 304.6867,326.54727 303.34879,325.58092 303.17818,324.92849 C 303.01158,324.2914 303.66076,321.75125 304.62081,319.28371 C 305.58086,316.81617 306.14718,314.79728 305.8793,314.79728 C 305.48357,314.79728 303.3787,319.97667 302.35798,323.46208 C 301.81346,325.32146 297.4719,323.83468 293.22637,320.33492 C 292.16353,319.45878 287.32382,312.5873 285.57228,309.46755 C 284.71916,307.94801 284.49773,307.81177 284.5047,308.8107 C 284.53357,312.94824 290.26863,320.87943 295.78608,324.41209 C 297.69233,325.6326 301.80417,327.54643 304.92349,328.66504 C 308.04282,329.78365 312.58002,331.4928 315.00616,332.46314 C 330.19691,338.53875 343.05733,343.31594 349.35025,345.22077 C 356.04566,347.24743 357.26945,347.42014 365.431,347.49016 C 372.69057,347.55245 375.44195,347.29647 380.87009,346.05375 z"
         style="fill:#ffffff;fill-opacity:1" />
      <path
         id="path2156"
         d="M 417.13555,329.37473 C 415.39945,325.94869 415.02802,322.69239 416.30548,322.09748 C 416.73872,321.89573 415.67531,321.89912 413.94235,322.10503 C 410.39143,322.52694 403.99698,325.81736 401.62064,328.44547 L 400.07868,330.1508 L 402.59935,328.67204 C 407.25777,325.93917 411.08947,324.24979 412.62948,324.24979 C 413.90911,324.24979 414.49081,324.97066 416.19548,328.66899 C 417.3158,331.09955 418.34962,332.97099 418.49288,332.82773 C 418.63613,332.68448 418.02533,331.13063 417.13555,329.37473 z"
         style="fill:#ffffff;fill-opacity:1" />
      <path
         id="path2154"
         d="M 435.44257,323.20271 C 434.90943,322.21893 434.46188,321.61338 434.448,321.85701 C 434.40534,322.60607 435.8714,325.53188 436.14987,325.25341 C 436.29399,325.10929 435.97571,324.18647 435.44257,323.20271 z"
         style="fill:#000000" />
      <path
         id="path2152"
         d="M 433.23566,317.45478 C 432.87319,316.77748 432.77068,316.02927 433.00786,315.79208 C 433.24505,315.5549 432.95898,315.54508 432.37215,315.77027 C 431.37231,316.15394 431.37352,316.27108 432.39135,317.63235 C 433.66505,319.33583 434.18396,319.22669 433.23566,317.45478 z"
         style="fill:#ffffff;fill-opacity:1" />
      <path
         id="path2150"
         d="M 451.51547,313.3689 C 450.89311,312.75118 450.82073,312.82356 451.16271,313.72167 C 451.39935,314.34315 451.75172,314.6929 451.94574,314.49887 C 452.13976,314.30485 451.94614,313.79637 451.51547,313.3689 z"
         style="fill:#000000" />
      <path
         id="path2148"
         d="M 479.15311,291.63763 C 490.98225,279.65943 493.31291,276.5499 494.0793,271.7233 L 494.49423,269.11019 L 491.08305,272.81675 C 489.2069,274.85536 487.4451,276.91128 487.16793,277.38546 C 486.89076,277.85964 486.44037,278.24761 486.16705,278.24761 C 485.89373,278.24761 483.77672,280.04124 481.46258,282.23346 C 475.97724,287.42979 470.84875,290.40511 463.09536,292.88929 C 459.62944,293.99977 456.69277,294.97071 456.56941,295.04694 C 456.44606,295.12317 456.83804,296.47621 457.44048,298.0537 C 458.51086,300.85642 458.58784,300.91357 460.8156,300.55878 C 462.717,300.25598 463.34891,300.46613 464.62308,301.825 C 465.46333,302.72111 466.45067,303.45428 466.81716,303.45428 C 467.18366,303.45428 472.73483,298.13679 479.15311,291.63763 z"
         style="fill:#ffffff;fill-opacity:1" />
      <path
         id="path2146"
         d="M 360.57959,283.83721 C 356.78881,282.16492 356.15519,280.572 354.72158,269.11019 C 354.11466,264.25791 353.40503,259.57892 353.14462,258.71244 L 352.67115,257.13702 L 351.48333,259.24017 C 350.1689,261.5675 342.87151,272.72655 340.08377,276.67219 C 335.14685,283.6597 323.22157,283.73585 321.91818,276.78819 C 321.34616,273.73904 323.1389,269.74791 325.61045,268.56822 C 328.72174,267.08318 331.83239,263.38962 336.03367,256.19177 C 340.69205,248.21078 343.74827,244.86522 348.76643,242.25355 C 353.09055,240.00309 356.58118,239.95218 360.953,242.07581 C 364.85572,243.97157 365.53692,245.47345 367.92714,257.4521 C 370.77996,271.74901 370.66407,271.31577 371.63551,271.31577 C 374.28045,271.31577 375.26284,275.90236 373.71591,281.02878 C 373.12485,282.98752 372.519,283.65828 370.77105,284.28921 C 367.5169,285.4638 363.9035,285.30354 360.57959,283.83721 z"
         style="fill:#000000" />
      <path
         id="path2144"
         d="M 369.13309,279.14132 C 369.87455,277.20911 369.49932,275.92183 367.99483,275.23634 C 366.16207,274.40128 366.35223,275.02499 363.53342,260.60294 C 361.43799,249.8819 361.10485,248.80556 359.38869,247.21189 C 357.1358,245.1198 354.69159,244.97878 351.23629,246.74155 C 347.54711,248.62363 344.12364,252.59008 339.81635,259.97277 C 335.75493,266.93402 331.23116,272.24223 328.85092,272.83963 C 327.13483,273.27034 326.37785,274.93763 327.3607,276.1219 C 327.75571,276.59786 329.06505,276.98728 330.27034,276.98728 C 331.92874,276.98728 332.94462,276.48126 334.44681,274.90694 C 336.94552,272.28827 340.55321,267.15996 344.69013,260.34615 C 349.53383,252.36822 350.31207,251.52854 352.86246,251.52854 C 357.16707,251.52854 357.54295,252.48774 359.75208,269.11019 C 360.30483,273.26929 360.89074,277.1279 361.05412,277.68487 C 361.71337,279.93245 368.36907,281.13231 369.13309,279.14132 z"
         style="fill:#ffffff;fill-opacity:1" />
      <path
         id="path2142"
         d="M 412.59252,255.96272 C 405.89358,252.27324 405.5229,251.9614 404.51935,249.17119 C 403.39617,246.04836 403.11524,242.15297 403.84695,239.84755 C 405.29919,235.27195 415.4982,222.95892 428.52364,210.05594 C 438.44474,200.22811 445.87597,194.05717 451.4302,191.03418 C 455.10011,189.03676 463.42336,187.29185 467.45477,187.67474 C 471.07534,188.01861 472.23278,189.20094 472.23278,192.55552 C 472.23278,195.37372 471.10885,196.42425 464.53243,199.75292 C 453.10933,205.53475 449.31697,212.40353 444.17177,236.63045 C 440.97258,251.69433 438.22946,256.18096 430.74473,258.59159 C 423.59196,260.89529 420.81948,260.49377 412.59252,255.96272 z"
         style="fill:#000000" />
      <path
         id="path2140"
         d="M 429.13695,254.09579 C 430.21555,253.68891 432.12125,252.45046 433.37185,251.34366 C 436.0783,248.94843 437.48879,245.1592 439.68686,234.37865 C 444.68624,209.85886 449.2346,201.73672 461.40592,195.59429 C 467.31711,192.61113 467.08421,191.88645 460.63367,193.19134 C 453.54902,194.62449 446.57072,199.71071 432.30464,213.8393 C 421.71197,224.32988 415.56165,231.30228 411.18196,237.78537 C 408.316,242.02772 408.12485,242.69563 408.7998,246.1091 C 409.19858,248.12588 409.76101,248.59602 415.37013,251.60119 C 421.91736,255.10897 424.9799,255.66392 429.13695,254.09579 z"
         style="fill:#ffffff;fill-opacity:1" />
      <path
         id="path2138"
         d="M 306.45492,244.77839 C 304.61606,244.26237 303.89697,243.5381 302.51637,240.81152 C 300.40586,236.64339 300.39974,234.28425 302.48067,227.05104 C 305.40012,216.90323 310.94742,207.21846 319.72599,196.9433 C 325.048,190.71397 330.73528,183.08166 332.20944,180.19055 C 332.93488,178.76782 333.72755,176.10262 333.97094,174.26791 C 334.5075,170.22309 335.93759,168.59859 338.96177,168.59859 C 342.43315,168.59859 343.67492,171.17433 343.67076,178.36617 C 343.66706,184.76308 341.96523,190.45143 336.48108,202.39771 C 333.74308,208.36197 333.5428,209.15421 333.45429,214.37088 C 333.40216,217.44334 333.59231,222.80107 333.87684,226.27694 C 334.34827,232.03621 334.27738,232.82558 333.0775,235.17755 C 331.29694,238.66774 328.92445,240.52628 323.08342,243.00664 C 317.71278,245.28725 310.86737,246.01662 306.45492,244.77839 z"
         style="fill:#000000" />
      <path
         id="path2134"
         d="M 321.35458,238.31824 C 323.78706,237.1525 326.58135,235.24289 327.56469,234.07426 C 329.35217,231.94997 329.35236,231.94873 328.83162,225.95341 C 328.06146,217.08647 328.31284,209.99354 329.53032,206.23967 C 330.11843,204.42632 331.95551,200.09081 333.61271,196.60519 C 337.22583,189.00563 338.64256,184.48369 338.62246,180.61492 L 338.6075,177.736 L 337.09561,181.41305 C 335.25609,185.88691 333.69967,188.16932 326.57381,196.84266 C 314.97649,210.95851 309.87678,219.23816 307.15917,228.36339 C 305.54794,233.77361 305.54048,235.79539 307.12217,238.38956 C 308.33371,240.37662 308.49834,240.4376 312.65155,240.4376 C 316.21384,240.4376 317.67438,240.08193 321.35458,238.31824 z"
         style="fill:#ffffff;fill-opacity:1" />
    </g>
  </g>
</svg>
