<?xml version="1.0" encoding="UTF-8" standalone="no"?>
<!-- Created with Inkscape (http://www.inkscape.org/) -->
<svg xmlns:dc="http://purl.org/dc/elements/1.1/" xmlns:cc="http://creativecommons.org/ns#" xmlns:rdf="http://www.w3.org/1999/02/22-rdf-syntax-ns#" xmlns:svg="http://www.w3.org/2000/svg" xmlns="http://www.w3.org/2000/svg" xmlns:xlink="http://www.w3.org/1999/xlink" xmlns:sodipodi="http://sodipodi.sourceforge.net/DTD/sodipodi-0.dtd" xmlns:inkscape="http://www.inkscape.org/namespaces/inkscape" width="539.9079" height="474.923" id="svg2" version="1.1" inkscape:version="0.48.2 r9819" sodipodi:docname="New document 1">
  <defs id="defs4">
    <linearGradient inkscape:collect="always" id="linearGradient4031">
      <stop style="stop-color:#fcfcfc;stop-opacity:1;" offset="0" id="stop4033"/>
      <stop style="stop-color:#fcfcfc;stop-opacity:0;" offset="1" id="stop4035"/>
    </linearGradient>
    <linearGradient inkscape:collect="always" id="linearGradient4023">
      <stop style="stop-color:#880000;stop-opacity:1" offset="0" id="stop4025"/>
      <stop style="stop-color:#fc0c0c;stop-opacity:0" offset="1" id="stop4027"/>
    </linearGradient>
    <linearGradient inkscape:collect="always" id="linearGradient4001">
      <stop style="stop-color:#fcfcfc;stop-opacity:1;" offset="0" id="stop4003"/>
      <stop style="stop-color:#fcfcfc;stop-opacity:0;" offset="1" id="stop4005"/>
    </linearGradient>
    <linearGradient inkscape:collect="always" id="linearGradient3968">
      <stop style="stop-color:#fcfcfc;stop-opacity:1;" offset="0" id="stop3970"/>
      <stop style="stop-color:#fcfcfc;stop-opacity:0;" offset="1" id="stop3972"/>
    </linearGradient>
    <linearGradient inkscape:collect="always" id="linearGradient3819">
      <stop style="stop-color:#fcfcfc;stop-opacity:1;" offset="0" id="stop3821"/>
      <stop style="stop-color:#fcfcfc;stop-opacity:0;" offset="1" id="stop3823"/>
    </linearGradient>
    <linearGradient id="linearGradient3033" inkscape:collect="always">
      <stop id="stop3035" offset="0" style="stop-color:#9c0000;stop-opacity:1"/>
      <stop id="stop3037" offset="1" style="stop-color:#fc0c0c;stop-opacity:0"/>
    </linearGradient>
    <linearGradient inkscape:collect="always" id="linearGradient3021">
      <stop style="stop-color:#ac0000;stop-opacity:1;" offset="0" id="stop3023"/>
      <stop style="stop-color:#fc0c0c;stop-opacity:1" offset="1" id="stop3025"/>
    </linearGradient>
    <linearGradient inkscape:collect="always" id="linearGradient3013">
      <stop style="stop-color:#844800;stop-opacity:1" offset="0" id="stop3015"/>
      <stop style="stop-color:#b87c00;stop-opacity:1" offset="1" id="stop3017"/>
    </linearGradient>
    <linearGradient inkscape:collect="always" xlink:href="#linearGradient3013" id="linearGradient3019" x1="411.13208" y1="414.95593" x2="285.87317" y2="417.98639" gradientUnits="userSpaceOnUse"/>
    <linearGradient inkscape:collect="always" xlink:href="#linearGradient3021" id="linearGradient3027" x1="311.12701" y1="228.07771" x2="344.46201" y2="102.81879" gradientUnits="userSpaceOnUse"/>
    <linearGradient inkscape:collect="always" xlink:href="#linearGradient4023" id="linearGradient3031" gradientUnits="userSpaceOnUse" x1="440.42654" y1="242.21986" x2="297.995" y2="43.219788"/>
    <linearGradient inkscape:collect="always" xlink:href="#linearGradient3819" id="linearGradient3825" x1="368.64993" y1="79.673347" x2="370.3266" y2="169.26311" gradientUnits="userSpaceOnUse"/>
    <filter inkscape:collect="always" id="filter3942" color-interpolation-filters="sRGB">
      <feGaussianBlur inkscape:collect="always" stdDeviation="2.6980312" id="feGaussianBlur3944"/>
    </filter>
    <filter inkscape:collect="always" id="filter3964" color-interpolation-filters="sRGB">
      <feGaussianBlur inkscape:collect="always" stdDeviation="0.83732002" id="feGaussianBlur3966"/>
    </filter>
    <linearGradient inkscape:collect="always" xlink:href="#linearGradient3968" id="linearGradient3974" x1="349.51279" y1="507.88995" x2="405.07117" y2="339.19449" gradientUnits="userSpaceOnUse"/>
    <linearGradient inkscape:collect="always" xlink:href="#linearGradient3968" id="linearGradient3976" x1="349.51279" y1="507.88995" x2="405.07117" y2="339.19449" gradientUnits="userSpaceOnUse"/>
    <filter inkscape:collect="always" id="filter3980" color-interpolation-filters="sRGB">
      <feGaussianBlur inkscape:collect="always" stdDeviation="4.8540291" id="feGaussianBlur3982"/>
    </filter>
    <linearGradient inkscape:collect="always" xlink:href="#linearGradient3968" id="linearGradient3986" x1="421.23361" y1="394.75287" x2="342.44171" y2="399.80365" gradientUnits="userSpaceOnUse" gradientTransform="matrix(0.74969798,0,0,0.91387713,95.817818,38.113099)"/>
    <linearGradient inkscape:collect="always" xlink:href="#linearGradient3033" id="linearGradient3997" x1="354.28571" y1="245.21933" x2="354.28571" y2="290.93362" gradientUnits="userSpaceOnUse"/>
    <linearGradient inkscape:collect="always" xlink:href="#linearGradient4001" id="linearGradient4007" x1="336.3808" y1="509.91028" x2="348.50262" y2="374.54984" gradientUnits="userSpaceOnUse"/>
    <filter inkscape:collect="always" id="filter4019" x="-0.032261033" width="1.0645221" y="-0.46354008" height="1.9270802" color-interpolation-filters="sRGB">
      <feGaussianBlur inkscape:collect="always" stdDeviation="7.4138977" id="feGaussianBlur4021"/>
    </filter>
    <linearGradient inkscape:collect="always" xlink:href="#linearGradient4031" id="linearGradient4037" x1="357.14285" y1="257.17923" x2="357.14285" y2="215.93361" gradientUnits="userSpaceOnUse" gradientTransform="matrix(0.99324318,0,0,0.80333614,1.3393113,40.39497)"/>
    <linearGradient inkscape:collect="always" xlink:href="#linearGradient4031" id="linearGradient4041" gradientUnits="userSpaceOnUse" gradientTransform="matrix(0.59920799,0,0,0.48464006,141.92544,118.54541)" x1="357.14285" y1="257.17923" x2="357.14285" y2="215.93361"/>
    <linearGradient inkscape:collect="always" xlink:href="#linearGradient3968" id="linearGradient4043" gradientUnits="userSpaceOnUse" x1="349.51279" y1="507.88995" x2="405.07117" y2="339.19449"/>
  </defs>
  <sodipodi:namedview id="base" pagecolor="#ffffff" bordercolor="#666666" borderopacity="1.0" inkscape:pageopacity="0.0" inkscape:pageshadow="2" inkscape:zoom="0.49497475" inkscape:cx="-49.277384" inkscape:cy="317.25982" inkscape:document-units="px" inkscape:current-layer="layer1" showgrid="false" fit-margin-top="0" fit-margin-left="0" fit-margin-right="0" fit-margin-bottom="0" inkscape:window-width="1366" inkscape:window-height="706" inkscape:window-x="-8" inkscape:window-y="-8" inkscape:window-maximized="1"/>
  <g inkscape:label="Layer 1" inkscape:groupmode="layer" id="layer1" transform="translate(-88.57143,-53.790751)">
    <path sodipodi:type="arc" style="opacity:0.58999999;fill:#4c0000;fill-opacity:1;stroke:none;filter:url(#filter4019)" id="path4009" sodipodi:cx="368.70569" sodipodi:cy="491.72751" sodipodi:rx="275.77164" sodipodi:ry="19.192898" d="m 644.47733,491.72751 c 0,10.59994 -123.46717,19.1929 -275.77164,19.1929 -152.30447,0 -275.771638,-8.59296 -275.771638,-19.1929 0,-10.59995 123.467168,-19.1929 275.771638,-19.1929 152.30447,0 275.77164,8.59295 275.77164,19.1929 z" transform="matrix(0.91758241,0,0,1,20.791383,0)"/>
    <path style="fill:url(#linearGradient3019);fill-opacity:1;stroke:none" d="m 304.05591,205.85435 50.00255,0 50.00256,0 c 0,0 -6.64777,66.57805 0,104.55079 6.64777,37.97274 27.27412,68.52202 27.27412,121.97593 0,53.4539 -27.27412,75.5089 -27.27412,75.5089 0,0 -16.16245,7.07107 -50.00256,7.07107 -33.84011,0 -50.00255,-7.07107 -50.00255,-7.07107 0,0 -27.27412,-23.06515 -27.27412,-75.5089 0,-52.44376 20.62635,-84.00319 27.27412,-121.97593 6.64777,-37.97274 0,-104.55079 0,-104.55079 z" id="rect2988" inkscape:connector-curvature="0" sodipodi:nodetypes="ccczzczczzc"/>
    <path style="fill:url(#linearGradient3997);fill-opacity:1;stroke:none" d="m 304.0625,205.84375 c 0,0 3.95308,54.5702 2.71875,90.09375 l 94.5625,0 c -1.23433,-35.52355 2.71875,-90.09375 2.71875,-90.09375 l -50,0 z" id="path3988" inkscape:connector-curvature="0" sodipodi:nodetypes="cccccc"/>
    <path sodipodi:nodetypes="ccczzczczzc" inkscape:connector-curvature="0" id="path3999" d="m 304.05591,205.85435 50.00255,0 50.00256,0 c 0,0 -6.64777,66.57805 0,104.55079 6.64777,37.97274 27.27412,68.52202 27.27412,121.97593 0,53.4539 -27.27412,75.5089 -27.27412,75.5089 0,0 -16.16245,7.07107 -50.00256,7.07107 -33.84011,0 -50.00255,-7.07107 -50.00255,-7.07107 0,0 -27.27412,-23.06515 -27.27412,-75.5089 0,-52.44376 20.62635,-84.00319 27.27412,-121.97593 6.64777,-37.97274 0,-104.55079 0,-104.55079 z" style="opacity:0.69199991;fill:url(#linearGradient4007);fill-opacity:1;stroke:none"/>
    <path style="fill:url(#linearGradient3027);fill-opacity:1;stroke:none" d="m 88.57143,196.64789 c 0,0 39.04762,-142.857139 268.57144,-142.857139 229.52381,0 268.57144,142.857139 268.57144,142.857139 l 0,25.71429 c 0,0 -87.12375,21.2132 -268.57144,21.2132 -181.44769,0 -268.57144,-21.2132 -268.57144,-21.2132 z" id="rect2985" inkscape:connector-curvature="0" sodipodi:nodetypes="czcczcc"/>
    <path sodipodi:nodetypes="czcczcc" inkscape:connector-curvature="0" id="path3029" d="m 88.57143,196.64789 c 0,0 39.04762,-142.857139 268.57144,-142.857139 229.52381,0 268.57144,142.857139 268.57144,142.857139 l 0,25.71429 c 0,0 -87.12375,21.2132 -268.57144,21.2132 -181.44769,0 -268.57144,-21.2132 -268.57144,-21.2132 z" style="fill:url(#linearGradient3031);fill-opacity:1;stroke:none"/>
    <g id="g3831" style="fill:#fcf4f4;fill-opacity:1">
      <path d="m 313.14729,96.757874 c 0,6.694706 -16.28139,12.121826 -36.36549,12.121826 -20.08411,0 -36.36549,-5.42712 -36.36549,-12.121826 0,-6.694703 16.28138,-12.121831 36.36549,-12.121831 20.0841,0 36.36549,5.427128 36.36549,12.121831 z" sodipodi:ry="12.121831" sodipodi:rx="36.36549" sodipodi:cy="96.757874" sodipodi:cx="276.7818" id="path2991" style="fill:#fcf4f4;fill-opacity:1;stroke:none" sodipodi:type="arc"/>
      <path d="m 407.09147,72.00914 c 0,2.510513 -14.24621,4.545686 -31.8198,4.545686 -17.5736,0 -31.81981,-2.035173 -31.81981,-4.545686 0,-2.510513 14.24621,-4.545686 31.81981,-4.545686 17.57359,0 31.8198,2.035173 31.8198,4.545686 z" sodipodi:ry="4.5456862" sodipodi:rx="31.819805" sodipodi:cy="72.00914" sodipodi:cx="375.27167" id="path2993" style="fill:#fcf4f4;fill-opacity:1;stroke:none" sodipodi:type="arc"/>
      <path d="m 370.72599,59.382229 c 0,1.115784 -10.85425,2.020305 -24.24366,2.020305 -13.3894,0 -24.24366,-0.904521 -24.24366,-2.020305 0,-1.115784 10.85426,-2.020305 24.24366,-2.020305 13.38941,0 24.24366,0.904521 24.24366,2.020305 z" sodipodi:ry="2.0203052" sodipodi:rx="24.243662" sodipodi:cy="59.382229" sodipodi:cx="346.48233" id="path2995" style="fill:#fcf4f4;fill-opacity:1;stroke:none" sodipodi:type="arc"/>
      <path transform="matrix(0.79073148,0.21002721,-0.22242008,0.59408179,120.42994,-67.790895)" d="m 488.91384,85.141121 c 0,6.415756 -10.402,11.616754 -23.23351,11.616754 -12.83151,0 -23.23351,-5.200998 -23.23351,-11.616754 0,-6.415756 10.402,-11.616755 23.23351,-11.616755 12.83151,0 23.23351,5.200999 23.23351,11.616755 z" sodipodi:ry="11.616755" sodipodi:rx="23.233509" sodipodi:cy="85.141121" sodipodi:cx="465.68033" id="path2997" style="fill:#fcf4f4;fill-opacity:1;stroke:none" sodipodi:type="arc"/>
      <path d="m 411.1321,116.45585 c 0,6.97365 -16.95978,12.62691 -37.88073,12.62691 -20.92094,0 -37.88072,-5.65326 -37.88072,-12.62691 0,-6.97365 16.95978,-12.62691 37.88072,-12.62691 20.92095,0 37.88073,5.65326 37.88073,12.62691 z" sodipodi:ry="12.626906" sodipodi:rx="37.880722" sodipodi:cy="116.45585" sodipodi:cx="373.25137" id="path2999" style="fill:#fcf4f4;fill-opacity:1;stroke:none" sodipodi:type="arc"/>
      <path d="m 267.69042,152.82133 c 0,11.99468 -19.44721,21.71828 -43.43656,21.71828 -23.98935,0 -43.43656,-9.7236 -43.43656,-21.71828 0,-11.99467 19.44721,-21.71827 43.43656,-21.71827 23.98935,0 43.43656,9.7236 43.43656,21.71827 z" sodipodi:ry="21.718279" sodipodi:rx="43.436558" sodipodi:cy="152.82133" sodipodi:cx="224.25386" id="path3001" style="fill:#fcf4f4;fill-opacity:1;stroke:none" sodipodi:type="arc"/>
      <path d="m 564.67525,160.90256 c 0,14.22624 -23.06529,25.75889 -51.51778,25.75889 -28.45248,0 -51.51778,-11.53265 -51.51778,-25.75889 0,-14.22624 23.0653,-25.75889 51.51778,-25.75889 28.45249,0 51.51778,11.53265 51.51778,25.75889 z" sodipodi:ry="25.75889" sodipodi:rx="51.51778" sodipodi:cy="160.90256" sodipodi:cx="513.15747" id="path3003" style="fill:#fcf4f4;fill-opacity:1;stroke:none" sodipodi:type="arc"/>
      <path d="m 429.87463,178.58023 c 0,17.85254 -23.41675,32.32488 -52.30276,32.32488 -28.88602,0 -52.30276,-14.47234 -52.30276,-32.32488 0,-17.85254 23.41674,-32.32488 52.30276,-32.32488 28.88601,0 52.30276,14.47234 52.30276,32.32488 z" sodipodi:ry="32.324883" sodipodi:rx="52.302757" sodipodi:cy="178.58023" sodipodi:cx="377.57187" id="path3005" style="fill:#fcf4f4;fill-opacity:1;stroke:none" sodipodi:type="arc"/>
      <path d="m 216.53698,118.98123 c 0,5.57892 -7.31773,10.10153 -16.34461,10.10153 -9.02688,0 -16.34461,-4.52261 -16.34461,-10.10153 0,-5.57892 7.31773,-10.10152 16.34461,-10.10152 9.02688,0 16.34461,4.5226 16.34461,10.10152 z" sodipodi:ry="10.101525" sodipodi:rx="16.344612" sodipodi:cy="118.98123" sodipodi:cx="200.19237" id="path3007" style="fill:#fcf4f4;fill-opacity:1;stroke:none" sodipodi:type="arc"/>
      <path d="m 329.28822,134.6386 c 0,5.85786 -7.68362,10.6066 -17.16185,10.6066 -9.47822,0 -17.16184,-4.74874 -17.16184,-10.6066 0,-5.85787 7.68362,-10.60661 17.16184,-10.60661 9.47823,0 17.16185,4.74874 17.16185,10.60661 z" sodipodi:ry="10.606602" sodipodi:rx="17.161842" sodipodi:cy="134.6386" sodipodi:cx="312.12637" id="path3009" style="fill:#fcf4f4;fill-opacity:1;stroke:none" sodipodi:type="arc"/>
      <path d="m 468.71079,120.49646 c 0,4.18419 -6.78391,7.57614 -15.15229,7.57614 -8.36838,0 -15.15229,-3.39195 -15.15229,-7.57614 0,-4.18419 6.78391,-7.57614 15.15229,-7.57614 8.36838,0 15.15229,3.39195 15.15229,7.57614 z" sodipodi:ry="7.5761442" sodipodi:rx="15.152288" sodipodi:cy="120.49646" sodipodi:cx="453.5585" id="path3011" style="fill:#fcf4f4;fill-opacity:1;stroke:none" sodipodi:type="arc"/>
    </g>
    <path sodipodi:type="arc" style="fill:url(#linearGradient3825);fill-opacity:1;stroke:none" id="path3817" sodipodi:cx="364.16" sodipodi:cy="112.41524" sodipodi:rx="113.64216" sodipodi:ry="37.880722" d="m 477.80216,112.41524 c 0,20.92094 -50.87933,37.88072 -113.64216,37.88072 -62.76283,0 -113.64215,-16.95978 -113.64215,-37.88072 0,-20.920948 50.87932,-37.880725 113.64215,-37.880725 62.76283,0 113.64216,16.959777 113.64216,37.880725 z" transform="matrix(1.2049454,0,0,1.0049454,-78.536709,-13.197705)"/>
    <path style="fill:url(#linearGradient3976);fill-opacity:1;stroke:none;filter:url(#filter3942)" d="m 308.80612,286.67828 c -0.3459,10.21086 -1.12938,20.08826 -2.60156,28.49751 -6.36121,36.33591 -26.10528,66.52808 -26.10528,116.71122 0,50.18313 26.10528,72.27543 26.10528,72.27543 0,0 15.46331,6.75807 47.84472,6.75807 32.38141,0 47.84472,-6.75807 47.84472,-6.75807 0,0 26.10528,-21.12569 26.10528,-72.27543 0,-51.14975 -19.74407,-80.37531 -26.10528,-116.71122 -1.47218,-8.40925 -2.25566,-18.28665 -2.60156,-28.49751 l -3.61825,0 c 0.26199,10.86559 0.98766,21.48272 2.48194,30.3814 5.86228,34.91096 24.04197,62.99219 24.04197,112.13606 0,49.14387 -24.04197,69.43465 -24.04197,69.43465 0,0 -14.26515,6.48894 -44.10685,6.48894 -29.84169,0 -44.07695,-6.48894 -44.07695,-6.48894 0,0 -24.07187,-21.21948 -24.07187,-69.43465 0,-48.21518 18.20958,-77.2251 24.07187,-112.13606 1.49428,-8.89868 2.21995,-19.51581 2.48195,-30.3814 l -3.64816,0 z" id="path3860" inkscape:connector-curvature="0"/>
    <path inkscape:connector-curvature="0" id="path3946" d="m 308.80612,286.67828 c -0.3459,10.21086 -1.12938,20.08826 -2.60156,28.49751 -6.36121,36.33591 -26.10528,66.52808 -26.10528,116.71122 0,50.18313 26.10528,72.27543 26.10528,72.27543 0,0 15.46331,6.75807 47.84472,6.75807 32.38141,0 47.84472,-6.75807 47.84472,-6.75807 0,0 26.10528,-21.12569 26.10528,-72.27543 0,-51.14975 -19.74407,-80.37531 -26.10528,-116.71122 -1.47218,-8.40925 -2.25566,-18.28665 -2.60156,-28.49751 l -3.61825,0 c 0.26199,10.86559 0.98766,21.48272 2.48194,30.3814 5.86228,34.91096 24.04197,62.99219 24.04197,112.13606 0,49.14387 -24.04197,69.43465 -24.04197,69.43465 0,0 -14.26515,6.48894 -44.10685,6.48894 -29.84169,0 -44.07695,-6.48894 -44.07695,-6.48894 0,0 -24.07187,-21.21948 -24.07187,-69.43465 0,-48.21518 18.20958,-77.2251 24.07187,-112.13606 1.49428,-8.89868 2.21995,-19.51581 2.48195,-30.3814 l -3.64816,0 z" style="fill:url(#linearGradient4043);fill-opacity:1;stroke:none;filter:url(#filter3964)"/>
    <path style="fill:url(#linearGradient3974);fill-opacity:1;stroke:none;filter:url(#filter3980)" d="m 308.80612,286.67828 c -0.3459,10.21086 -1.12938,20.08826 -2.60156,28.49751 -6.36121,36.33591 -26.10528,66.52808 -26.10528,116.71122 0,50.18313 26.10528,72.27543 26.10528,72.27543 0,0 15.46331,6.75807 47.84472,6.75807 32.38141,0 47.84472,-6.75807 47.84472,-6.75807 0,0 26.10528,-21.12569 26.10528,-72.27543 0,-51.14975 -19.74407,-80.37531 -26.10528,-116.71122 -1.47218,-8.40925 -2.25566,-18.28665 -2.60156,-28.49751 l -3.61825,0 c 0.26199,10.86559 0.98766,21.48272 2.48194,30.3814 5.86228,34.91096 24.04197,62.99219 24.04197,112.13606 0,49.14387 -24.04197,69.43465 -24.04197,69.43465 0,0 -14.26515,6.48894 -44.10685,6.48894 -29.84169,0 -44.07695,-6.48894 -44.07695,-6.48894 0,0 -24.07187,-21.21948 -24.07187,-69.43465 0,-48.21518 18.20958,-77.2251 24.07187,-112.13606 1.49428,-8.89868 2.21995,-19.51581 2.48195,-30.3814 l -3.64816,0 z" id="path3978" inkscape:connector-curvature="0"/>
    <path style="fill:url(#linearGradient3986);fill-opacity:1;stroke:none" d="m 358.60416,494.87688 c 0,0 32.56429,3.69262 42.40931,-16.6168 7.67637,-15.83565 13.63157,-26.7715 8.3304,-72.0061 -5.30116,-45.23462 -15.90349,-61.85141 -18.93273,-88.62292 -3.02924,-26.7715 -0.75731,-56.31247 -0.75731,-56.31247 0,0 -37.19202,42.91623 -28.02044,86.7766 19.69004,94.16184 -3.02923,146.78169 -3.02923,146.78169 z" id="path3984" inkscape:connector-curvature="0" sodipodi:nodetypes="cssscsc"/>
    <path style="fill:url(#linearGradient4037);fill-opacity:1;stroke:none" d="m 89.312281,198.94314 c 0,0 117.060799,20.65722 261.790509,18.93579 144.72973,-1.72144 271.0135,-21.23103 271.0135,-21.23103 l 0.70947,22.95246 c 0,0 -146.85811,19.50959 -266.04729,17.78815 C 237.58928,235.66708 88.60282,219.02655 88.60282,219.02655 z" id="path4029" inkscape:connector-curvature="0"/>
    <path inkscape:connector-curvature="0" id="path4039" d="m 194.99815,214.19502 c 0,0 70.62094,12.46218 157.93409,11.42367 87.31317,-1.03852 163.49819,-12.80835 163.49819,-12.80835 l 0.42801,13.84686 c 0,0 -88.59719,11.76983 -160.50215,10.73131 C 284.45133,236.35 194.57014,226.31103 194.57014,226.31103 z" style="fill:url(#linearGradient4041);fill-opacity:1;stroke:none"/>
  </g>
  <metadata>
    <rdf:RDF>
      <cc:Work>
        <dc:format>image/svg+xml</dc:format>
        <dc:type rdf:resource="http://purl.org/dc/dcmitype/StillImage"/>
        <cc:license rdf:resource="http://creativecommons.org/licenses/publicdomain/"/>
        <dc:publisher>
          <cc:Agent rdf:about="http://openclipart.org/">
            <dc:title>Open Clip Art Library</dc:title>
          </cc:Agent>
        </dc:publisher>
        <dc:title>mushroom</dc:title>
        <dc:date>2012-06-19T11:50:12</dc:date>
        <dc:description>red mushroom icon</dc:description>
        <dc:source>http://openclipart.org/detail/170763/mushroom-by-diamonjohn-170763</dc:source>
        <dc:creator>
          <cc:Agent>
            <dc:title>diamonjohn</dc:title>
          </cc:Agent>
        </dc:creator>
        <dc:subject>
          <rdf:Bag>
            <rdf:li>clip art</rdf:li>
            <rdf:li>clipart</rdf:li>
            <rdf:li>forest</rdf:li>
            <rdf:li>mushroom</rdf:li>
            <rdf:li>poison</rdf:li>
            <rdf:li>red mushroom</rdf:li>
          </rdf:Bag>
        </dc:subject>
      </cc:Work>
      <cc:License rdf:about="http://creativecommons.org/licenses/publicdomain/">
        <cc:permits rdf:resource="http://creativecommons.org/ns#Reproduction"/>
        <cc:permits rdf:resource="http://creativecommons.org/ns#Distribution"/>
        <cc:permits rdf:resource="http://creativecommons.org/ns#DerivativeWorks"/>
      </cc:License>
    </rdf:RDF>
  </metadata>
</svg>