<?xml version="1.0" encoding="UTF-8" standalone="no"?>
<!-- Created with Inkscape (http://www.inkscape.org/) -->
<svg
   xmlns:dc="http://purl.org/dc/elements/1.1/"
   xmlns:cc="http://creativecommons.org/ns#"
   xmlns:rdf="http://www.w3.org/1999/02/22-rdf-syntax-ns#"
   xmlns:svg="http://www.w3.org/2000/svg"
   xmlns="http://www.w3.org/2000/svg"
   xmlns:sodipodi="http://sodipodi.sourceforge.net/DTD/sodipodi-0.dtd"
   xmlns:inkscape="http://www.inkscape.org/namespaces/inkscape"
   width="700.38458"
   height="842.64722"
   id="svg2"
   sodipodi:version="0.32"
   inkscape:version="0.46"
   sodipodi:docbase="/home/comum/newton/Inkscape"
   sodipodi:docname="newtonguarinof_Harry.svg"
   inkscape:output_extension="org.inkscape.output.svg.inkscape"
   version="1.0">
  <defs
     id="defs3">
    <inkscape:perspective
       sodipodi:type="inkscape:persp3d"
       inkscape:vp_x="0 : 526.18109 : 1"
       inkscape:vp_y="0 : 1000 : 0"
       inkscape:vp_z="744.09448 : 526.18109 : 1"
       inkscape:persp3d-origin="372.04724 : 350.78739 : 1"
       id="perspective38" />
  </defs>
  <sodipodi:namedview
     id="base"
     pagecolor="#ffffff"
     bordercolor="#666666"
     borderopacity="1.0"
     inkscape:pageopacity="0.0"
     inkscape:pageshadow="2"
     inkscape:zoom="0.50077816"
     inkscape:cx="701.53447"
     inkscape:cy="526.18109"
     inkscape:document-units="px"
     inkscape:current-layer="layer1"
     inkscape:window-width="1024"
     inkscape:window-height="711"
     inkscape:window-x="0"
     inkscape:window-y="0"
     showgrid="false" />
  <metadata
     id="metadata4">
    <rdf:RDF>
      <cc:Work
         rdf:about="">
        <dc:format>image/svg+xml</dc:format>
        <dc:type
           rdf:resource="http://purl.org/dc/dcmitype/StillImage" />
      </cc:Work>
    </rdf:RDF>
  </metadata>
  <g
     inkscape:label="Layer 1"
     inkscape:groupmode="layer"
     id="layer1"
     transform="translate(-31.450275,-137.47331)">
    <path
       style="fill:#fbc355;fill-opacity:1;fill-rule:evenodd;stroke:#000000;stroke-width:1px;stroke-linecap:butt;stroke-linejoin:miter;stroke-opacity:1"
       d="M 527.15467,481.25102 C 526.18104,483.24791 540.87582,481.25102 559.10495,481.25102 C 571.33656,481.25102 567.09252,470.08225 567.09252,459.2852 C 567.09252,449.30074 567.09252,439.31628 567.09252,429.33182 C 567.09252,419.34736 567.09252,409.3629 567.09252,399.37844 C 567.09252,385.25311 563.31354,385.82981 559.10495,377.41262 C 555.19604,369.5948 547.1236,373.89412 547.1236,359.44059 C 547.1236,349.84992 539.13603,348.19271 539.13603,337.47478 C 539.13603,322.31102 551.24468,331.6114 555.11116,335.47789 C 561.57695,341.94367 559.59092,349.69912 567.09252,353.44992 C 573.97006,356.88869 570.71293,346.95584 573.08319,337.47478 C 575.2042,328.99077 570.7295,312.22878 573.08319,307.52139 C 571.20194,299.30255 570.3512,287.02577 573.08319,281.56179 C 576.63111,274.46596 573.81324,271.57734 585.06454,271.57734 C 589.36551,271.57734 585.1775,323.72243 593.05212,339.47167 C 592.62861,351.60446 595.62395,317.84872 602.71895,305.92523 C 609.81395,294.00173 617.01483,279.94777 617.01483,283.55869 C 617.01483,287.70134 631.25327,293.02274 615.01793,321.49964 C 608.76987,333.99576 608.06891,339.73131 615.01793,341.46856 C 618.05869,342.22875 624.12988,324.98968 625.00239,321.49964 C 627.03766,313.35855 637.657,304.18943 642.97442,301.53072 C 654.76197,295.63695 638.98064,321.1047 636.98374,331.4841 C 634.98685,341.56273 626.99928,341.71246 626.99928,355.44681 C 626.99928,362.56971 628.45144,363.84293 636.98375,357.4437 C 644.73628,351.62931 646.52344,348.2353 652.95888,351.45302 C 659.92737,354.93727 660.46485,359.92219 654.95577,365.43127 C 640.53827,369.86431 640.89082,369.46841 636.98374,371.42195 C 630.31995,374.75385 634.20676,377.60765 626.99928,379.40952 C 616.89299,381.93609 618.77685,389.51141 611.02415,393.38776 C 609.10099,394.34934 611.02415,420.11022 611.02415,423.34114 C 611.02415,433.3256 611.02415,443.31007 611.02415,453.29453 C 611.02415,462.49583 607.03036,466.83968 607.03036,479.25412 C 607.03036,489.72197 597.81496,495.68803 595.04901,501.21994 C 591.40572,508.50652 586.41681,511.84903 581.07076,517.19508 C 574.7862,523.47964 567.63732,524.09304 563.09873,533.17021 C 562.52314,534.32141 544.82287,540.31125 543.12981,541.15778"
       id="path2884"
       sodipodi:nodetypes="cccccccccccccccscccccccccccccccccccc" />
    <path
       style="fill:#4e4e00;fill-opacity:1;fill-rule:evenodd;stroke:#000000;stroke-width:1px;stroke-linecap:butt;stroke-linejoin:miter;stroke-opacity:1"
       d="M 463.27899,890.61081 C 468.04185,881.08508 463.27899,911.91099 463.27899,922.56108 C 463.27899,932.10006 462.91136,944.0005 461.2821,950.51757 C 458.53763,961.49544 483.91354,950.51757 495.22926,950.51757 C 540.74751,950.51757 589.57708,966.49271 635.01172,966.49271 C 661.16415,966.49271 687.42698,974.48028 714.8874,974.48028 C 733.27189,974.48028 738.48077,974.48028 718.88119,974.48028 C 712.62351,974.48028 700.04335,967.62379 692.92159,960.50203 C 684.04771,951.62815 675.75652,947.33075 666.96199,938.53622 C 659.37655,930.95078 649.29854,925.01907 637.00861,922.56108 C 619.96588,919.15254 605.22085,913.65633 591.08009,906.58595 C 583.55154,902.82167 570.25929,905.16156 565.12049,902.59216 C 563.07314,901.56848 560.91458,899.78822 559.12981,898.59838"
       id="path2086" />
    <path
       style="fill:#4e4e00;fill-opacity:1;fill-rule:evenodd;stroke:#000000;stroke-width:1px;stroke-linecap:butt;stroke-linejoin:miter;stroke-opacity:1"
       d="M 307.5214,874.62945 C 307.5214,862 313.85469,899.27739 319.50275,910.57351 C 325.95465,923.47731 328.78745,923.25463 321.49964,930.54244 C 313.80851,938.23357 289.76817,938.53 279.56491,938.53 C 240.47281,938.53 183.95563,966.92533 145.77313,976.47096 C 122.43515,982.30545 143.07114,979.87804 147.77002,970.48028 C 151.20662,963.60708 155.13198,955.0107 157.75448,944.52068 C 159.5081,937.5062 164.92752,928.17771 167.73894,922.55487 C 173.10093,911.8309 175.48541,909.05882 179.7203,900.58905 C 183.72111,892.58743 191.80582,894.39004 195.69543,886.61081 C 196.29079,885.42009 209.67368,881.95139 209.67368,880.62013"
       id="path2084"
       sodipodi:nodetypes="ccccccccccc" />
    <path
       style="fill:#132400;fill-opacity:1;fill-rule:evenodd;stroke:#000000;stroke-width:1px;stroke-linecap:butt;stroke-linejoin:miter;stroke-opacity:1"
       d="M 467.27277,609.0459 C 478.00574,609.0459 471.26656,630.2632 471.26656,640.99618 C 471.26656,643.6587 471.26656,646.32122 471.26656,648.98375 C 471.26656,651.25344 480.33348,683.63241 483.24791,690.91848 C 489.25843,705.94479 484.88201,718.51218 495.22926,728.85943 C 498.25687,731.88704 503.61958,764.41758 505.21372,770.79417 C 508.17454,782.63744 511.82944,786.0225 515.19818,792.75998 C 520.28468,802.93298 524.94374,811.53436 527.17954,822.71337 C 528.18765,827.75392 537.2174,840.79219 539.16089,844.67918 C 545.36006,857.07751 550.33412,856.61368 553.13914,870.63878 C 554.50378,877.46201 567.11738,884.77513 567.11738,896.59838 C 567.11738,906.58284 547.14846,896.59838 537.164,896.59838 C 527.17954,896.59838 517.19508,896.59838 507.21062,896.59838 C 497.22615,896.59838 487.24169,896.59838 477.25723,896.59838 C 463.35481,896.59838 459.2852,899.39334 459.2852,884.61702 C 459.2852,876.75112 453.85532,864.89439 451.29763,854.66364 C 447.77026,840.55414 454.99772,840.098 449.30075,828.70404 C 444.4745,819.05154 445.63407,801.07466 437.31939,792.75998 C 430.1263,785.56689 426.60218,769.32866 421.34425,758.81282 C 415.51545,747.15521 412.54032,735.57842 409.3629,722.86875 C 407.80794,716.6489 393.58407,721.26449 391.39087,716.87808 C 387.8476,709.79154 374.45362,736.70169 373.41884,740.84079 C 370.01505,754.45595 359.4406,761.41199 359.4406,776.78485 C 359.4406,782.81737 347.45924,791.69732 347.45924,804.74133 C 347.45924,811.27776 336.31787,829.02096 333.48099,834.69472 C 330.59984,840.45703 329.02032,854.51458 323.49653,858.65742 C 321.80474,859.92627 312.62981,878.39397 311.51518,880.62324 C 309.85034,883.95292 272.54116,880.62324 267.58355,880.62324 C 252.93968,880.62324 238.2958,880.62324 223.65192,880.62324 C 217.03026,880.62324 204.04916,879.44172 213.66746,874.63256 C 225.24877,868.84191 236.94281,851.35722 245.61774,842.68229 C 252.53497,835.76505 256.47045,814.98618 259.59598,808.73512 C 260.92725,806.0726 262.25851,803.41007 263.58977,800.74755 C 269.37921,789.16867 273.8145,777.18262 279.56491,762.8066 C 284.81906,749.67121 286.0827,739.78655 289.54936,732.85322 C 292.69613,726.55968 295.54004,710.12168 295.54004,702.89983 C 295.54004,690.31963 293.54315,688.28828 293.54315,678.93713 C 293.54315,669.45384 291.54626,655.48611 291.54626,642.99307 C 291.54626,638.42814 283.55869,632.3968 283.55869,621.02725 C 283.55869,619.69599 283.55869,618.36473 283.55869,617.03347"
       id="path2082"
       sodipodi:nodetypes="cccccccccccccccccccccccccccccccccccccccc" />
    <path
       style="fill:#fbc355;fill-opacity:1;fill-rule:evenodd;stroke:#000000;stroke-width:1px;stroke-linecap:butt;stroke-linejoin:miter;stroke-opacity:1"
       d="M 291.54626,301.53072 C 283.59597,293.36377 279.19421,289.54937 263.58977,289.54937 C 251.35816,289.54937 255.6022,300.71813 255.6022,311.51518 C 255.6022,324.58333 259.59598,325.1072 259.59598,337.47478 C 259.59598,344.55053 268.57092,348.44661 273.57423,353.44992 C 275.28087,355.15656 288.72771,353.44992 291.54626,353.44992"
       id="path2062" />
    <path
       style="fill:#fbc355;fill-opacity:1;fill-rule:evenodd;stroke:#000000;stroke-width:1px;stroke-linecap:butt;stroke-linejoin:miter;stroke-opacity:1"
       d="M 451.29763,293.54315 C 455.63831,297.88383 468.47886,283.97397 475.26034,297.53694 C 479.42614,305.86853 483.24791,305.52399 483.24791,319.50275 C 483.24791,332.08295 479.25412,336.11119 479.25412,345.46235 C 479.25412,351.04219 468.30436,359.92325 461.2821,363.43438 C 454.51505,366.8179 452.53161,360.05758 447.30385,357.4437"
       id="path2064" />
    <path
       style="fill:none;fill-opacity:0.75;fill-rule:evenodd;stroke:#000000;stroke-width:1px;stroke-linecap:butt;stroke-linejoin:miter;stroke-opacity:1"
       d="M 343.46546,453.29453 C 338.40693,462.43142 351.45302,470.97074 351.45302,481.25102 C 351.45302,481.37262 367.06364,498.85853 367.42816,499.22305 C 373.23676,505.03164 381.54527,510.27539 387.39708,513.20129 C 394.06016,516.53283 395.38465,513.05067 395.38465,499.22305 C 395.38465,488.17619 399.37844,486.26667 399.37844,473.26345 C 399.37844,465.27588 399.37844,457.28831 399.37844,449.30074"
       id="path2076" />
    <path
       style="fill:#16710c;fill-opacity:1;fill-rule:evenodd;stroke:#000000;stroke-width:1px;stroke-linecap:butt;stroke-linejoin:miter;stroke-opacity:1"
       d="M 401.37533,429.33182 C 408.33151,432.80991 447.32737,443.32183 459.2852,449.30074 C 468.89642,454.10635 472.86369,457.08843 481.25102,461.2821 C 489.92333,465.61825 490.88322,469.26966 503.21683,469.26966 C 507.87839,469.26966 519.17955,473.26345 529.17643,473.26345 C 532.73911,473.26345 535.1671,503.91662 535.1671,507.21062 C 535.1671,513.04169 539.99047,530.00601 545.15157,535.16711 C 549.28936,539.3049 552.64887,556.1524 555.13603,561.1267 C 562.03991,574.93447 551.03841,577.10184 541.15778,577.10184 C 528.34194,577.10184 519.86696,573.10806 511.2044,573.10806 C 499.87964,573.10806 500.07835,561.83975 489.23859,559.12981 C 478.68013,556.4902 477.68386,544.36644 467.27277,539.16089 C 460.61646,535.83274 466.00429,547.87686 471.26656,553.13913 C 478.23262,560.10519 483.04857,560.72803 487.24169,569.11427 C 490.59655,575.82398 500.56596,590.20812 507.21062,599.06766 C 514.76941,609.14605 510.56525,613.0459 499.22305,613.0459 C 489.23859,613.0459 479.25412,613.0459 469.26966,613.0459 C 457.95394,613.0459 446.63822,613.0459 435.3225,613.0459 C 424.00677,613.0459 412.69105,613.0459 401.37533,613.0459 C 391.39087,613.0459 381.40641,613.0459 371.42195,613.0459 C 355.92754,613.0459 342.34023,617.03969 327.49032,617.03969 C 311.88218,617.03969 292.53204,618.54369 279.56491,625.02725 C 273.27137,628.17402 256.83337,625.02725 249.61152,625.02725 C 235.63361,625.02725 230.40215,627.50195 235.63328,617.03969 C 236.78955,614.72715 252.22184,604.44491 255.6022,601.06455 C 260.25233,596.41442 265.68561,584.89152 267.58355,581.09563 C 271.61589,573.03096 273.22934,564.50316 275.57112,555.13603 C 277.70604,546.59638 280.32403,540.77822 287.55247,537.164 C 292.02372,534.92838 292.29798,518.18199 293.54315,513.20129 C 297.14541,498.79227 284.34747,506.81623 279.56491,509.20751 C 269.05968,514.46012 260.88393,517.54955 253.60531,521.18886 C 246.85319,524.56492 240.23279,529.17643 231.63949,529.17643 C 227.74408,529.17643 220.62475,537.164 209.67368,537.164 C 198.28554,537.164 195.38377,541.15778 191.70165,541.15778 C 187.47389,541.15778 182.15762,510.96924 181.71719,509.20751 C 180.28271,503.46959 169.80257,489.37205 167.73894,485.2448 C 162.79937,475.36566 183.97866,476.1265 189.70476,473.26345 C 197.86585,469.1829 208.97838,466.62198 219.65814,461.2821 C 228.42255,456.89989 237.18206,459.12206 247.61463,451.29763 C 254.93665,445.80612 270.81737,443.69005 275.57112,441.31317 C 281.86466,438.1664 298.30266,441.31317 305.5245,441.31317 C 314.1777,441.31317 334.81225,435.32249 343.46545,435.32249"
       id="path2080"
       sodipodi:nodetypes="cccccccccccccccccccccccccccccccccccccccccc" />
    <path
       style="fill:#fbc355;fill-opacity:1;fill-rule:evenodd;stroke:#000000;stroke-width:1px;stroke-linecap:butt;stroke-linejoin:miter;stroke-opacity:1"
       d="M 175.72651,497.22615 C 162.41443,491.28512 164.64529,502.76677 151.76381,509.20751 C 145.10762,512.5356 142.81148,526.14741 137.78556,531.17332 C 128.83739,540.1215 113.98937,554.59518 103.83839,557.13292 C 97.924213,558.61147 87.890222,562.11167 81.87258,565.12049 C 75.157277,568.47814 47.161044,578.48247 41.934736,581.09562 C 33.598102,585.26394 42.03048,591.08009 57.909873,591.08009 C 74.019535,591.08009 72.401225,592.05077 67.894334,601.06455 C 64.256006,608.34121 61.253456,613.6961 55.912981,619.03658 C 47.94011,627.00945 50.89297,634.26983 39.937844,637.00861 C 38.290303,637.42049 31.950275,654.35346 31.950275,658.97442 C 31.950275,672.13764 49.016836,650.44114 51.919197,648.98996 C 62.62491,643.63711 57.738959,643.1702 63.90055,637.00861 C 68.239931,632.66923 78.38054,635.75929 83.869472,633.01482 C 91.967219,628.96595 71.329576,651.73157 65.897442,658.97442 C 62.38709,663.65489 63.90055,674.85075 63.90055,680.94024 C 63.90055,693.98161 64.404419,692.41772 61.903657,694.91848 C 56.812561,700.00957 75.881903,704.11527 75.881903,696.91537 C 75.881903,685.75188 83.673259,673.73752 85.866364,664.9651 C 88.010533,656.38842 88.935462,660.50897 93.853929,662.9682 C 98.432799,665.25763 99.844609,683.92079 99.844609,686.93091 C 99.844609,703.41393 102.70742,700.90916 107.83218,700.90916 C 117.81664,700.90916 113.82286,680.94024 113.82286,670.95577 C 113.82286,661.3651 115.81975,659.70789 115.81975,648.98996 C 115.81975,645.82575 131.79488,624.67293 131.79488,646.99307 C 131.79488,658.32275 142.77666,652.98149 145.77313,658.97442 C 148.7951,665.01836 165.06398,641.6618 155.75759,637.00861 C 150.65912,634.45937 147.89395,623.15429 143.77624,619.03658 C 138.22024,613.48058 146.97377,594.66947 147.77002,593.07698 C 148.27213,592.07276 159.92894,578.92117 161.74827,577.10184 C 170.07479,568.77531 160.94076,562.52891 171.73273,557.13292 C 179.0969,553.45083 175.72651,541.15778 177.7234,533.17021 C 180.53063,521.94129 191.2016,532.17011 183.71408,517.19508 C 179.10335,507.97362 173.04511,486.50055 171.73273,481.25102"
       id="path2098"
       sodipodi:nodetypes="cccccccccccccccccccccccccccccccccc" />
    <path
       style="fill:#fbc355;fill-opacity:1;fill-rule:evenodd;stroke:#000000;stroke-width:1px;stroke-linecap:butt;stroke-linejoin:miter;stroke-opacity:1"
       d="M 335.47789,433.3256 C 332.14958,429.23655 311.51518,417.3272 311.51518,401.37533 C 311.51518,393.36007 299.12457,390.57236 295.54004,383.4033 C 292.39327,377.10976 295.54004,360.67176 295.54004,353.44992 C 295.54004,352.03728 289.05076,334.48068 287.55247,331.4841 C 283.07006,322.51927 286.92899,308.27132 283.55869,301.53072 C 279.68651,293.78636 279.56491,285.11379 279.56491,275.57112 C 279.56491,265.58666 279.56491,255.6022 279.56491,245.61774 C 279.56491,237.04347 283.9445,224.10559 285.55558,217.66125 C 287.40379,210.26843 304.90521,200.30851 311.51518,193.69854 C 330.99447,174.21925 341.03702,170.6209 365.43127,165.74205 C 374.55922,163.91646 386.04128,165.74205 395.38465,165.74205 C 404.56078,165.74205 410.66386,171.0368 415.35357,175.72651 C 423.0705,183.44344 426.71313,184.46738 431.32871,193.69854 C 435.81243,202.66599 443.31007,193.90697 443.31007,211.67057 C 443.31007,218.87047 452.07153,223.20282 455.29142,229.6426 C 459.1636,237.38696 459.2852,246.05953 459.2852,255.6022 C 459.2852,268.1824 455.29142,272.21064 455.29142,281.5618 C 455.29142,286.22336 451.29763,297.52451 451.29763,307.5214 C 451.29763,317.50586 451.29763,327.49032 451.29763,337.47478 C 451.29763,347.01376 450.93001,358.91419 449.30074,365.43127 C 446.37195,377.14646 444.05187,379.92281 439.31628,389.39398 C 436.29431,395.43791 430.96953,402.81205 429.33182,409.3629 C 427.6667,416.02337 418.32026,419.40466 415.35357,425.33804 C 413.28233,429.48053 396.23342,431.61574 389.39398,433.3256 C 381.22858,435.36695 375.66169,437.31939 363.43438,437.31939 C 352.68351,437.31939 345.82964,437.46631 335.47789,433.3256 z"
       id="path2102" />
    <path
       style="fill:#4e4e00;fill-opacity:0.73981192;fill-rule:evenodd;stroke:#000000;stroke-width:1px;stroke-linecap:butt;stroke-linejoin:miter;stroke-opacity:1"
       d="M 471.26656,551.14224 C 464.33161,551.14224 444.23506,551.14224 431.32871,551.14224 C 406.96888,551.14224 387.13435,553.20482 363.43438,559.12981 C 347.28752,563.16652 332.2575,563.12359 315.50897,563.12359 C 302.19153,563.12359 294.55904,567.11738 281.5618,567.11738 C 278.16513,557.13292 273.25748,571.74467 269.58045,579.09873 C 265.15408,587.95147 257.46675,588.81852 263.58976,601.06454 C 266.80089,607.4868 280.49445,603.06144 287.55247,603.06144 C 301.77163,603.06144 313.61351,607.05522 327.49032,607.05522 C 339.47167,607.05522 351.45302,607.05522 363.43438,607.05522 C 379.60949,607.05522 392.19614,599.06765 409.3629,599.06765 C 425.72061,599.06765 437.95111,597.75335 451.29763,591.08009 C 460.50442,586.47669 477.58203,589.0832 491.23548,589.0832 C 505.81398,589.0832 479.88991,560.92298 471.26656,551.14224 z"
       id="path2104"
       sodipodi:nodetypes="cccccccccccccc" />
    <path
       sodipodi:type="star"
       style="fill:#4e4e00;fill-opacity:1;stroke:#000000;stroke-width:4;stroke-miterlimit:4;stroke-opacity:1"
       id="path2106"
       sodipodi:sides="5"
       sodipodi:cx="447.30386"
       sodipodi:cy="477.25723"
       sodipodi:r1="26.791121"
       sodipodi:r2="13.39556"
       sodipodi:arg1="0.46364761"
       sodipodi:arg2="1.0919661"
       inkscape:flatsided="false"
       inkscape:rounded="0"
       inkscape:randomized="0"
       d="M 471.26657,489.23859 L 453.47575,489.14625 L 443.3138,503.74956 L 437.90395,486.80096 L 420.87516,481.64904 L 435.32251,471.26656 L 434.96009,453.47919 L 449.29889,464.01107 L 466.10369,458.16979 L 460.51821,475.06133 L 471.26657,489.23859 z"
       transform="translate(19.96892,11.98135)" />
    <path
       sodipodi:type="star"
       style="fill:#4e4e00;fill-opacity:1;stroke:#000000;stroke-width:4;stroke-miterlimit:4;stroke-opacity:1"
       id="path2108"
       sodipodi:sides="5"
       sodipodi:cx="271.57733"
       sodipodi:cy="465.27588"
       sodipodi:r1="32.93359"
       sodipodi:r2="16.466795"
       sodipodi:arg1="0.24497866"
       sodipodi:arg2="0.87329719"
       inkscape:flatsided="false"
       inkscape:rounded="0"
       inkscape:randomized="0"
       d="M 303.52761,473.26345 L 282.154,477.89687 L 273.85388,498.13069 L 262.84243,479.23499 L 241.03404,477.5937 L 255.60219,461.28209 L 250.42399,440.0339 L 270.43906,448.84847 L 289.04714,437.35766 L 286.84898,459.11697 L 303.52761,473.26345 z"
       transform="matrix(0.879875,0,0,0.815026,152.5213,96.50516)" />
    <path
       sodipodi:type="star"
       style="fill:#4e4e00;fill-opacity:1;stroke:#000000;stroke-width:4;stroke-miterlimit:4;stroke-opacity:1"
       id="path2110"
       sodipodi:sides="5"
       sodipodi:cx="347.45923"
       sodipodi:cy="525.18268"
       sodipodi:r1="24.293242"
       sodipodi:r2="12.14662"
       sodipodi:arg1="1.4056476"
       sodipodi:arg2="2.0339662"
       inkscape:flatsided="false"
       inkscape:rounded="0"
       inkscape:randomized="0"
       d="M 351.45301,549.14538 L 342.03229,536.04954 L 325.90349,536.38588 L 335.44721,523.37939 L 330.14326,508.14393 L 345.46234,513.20133 L 358.31311,503.44895 L 358.2371,519.58108 L 371.48326,528.78925 L 356.11721,533.70205 L 351.45301,549.14538 z" />
    <path
       sodipodi:type="star"
       style="fill:#4e4e00;fill-opacity:1;stroke:#000000;stroke-width:4;stroke-miterlimit:4;stroke-opacity:1"
       id="path2112"
       sodipodi:sides="5"
       sodipodi:cx="419.34735"
       sodipodi:cy="545.15155"
       sodipodi:r1="16.466795"
       sodipodi:r2="8.2333965"
       sodipodi:arg1="1.815775"
       sodipodi:arg2="2.4440935"
       inkscape:flatsided="false"
       inkscape:rounded="0"
       inkscape:randomized="0"
       d="M 415.35357,561.12669 L 413.03686,550.43988 L 402.91995,546.28982 L 412.3678,540.7841 L 413.18844,529.8799 L 421.34424,537.16398 L 431.96834,534.57488 L 427.56105,544.58241 L 433.30646,553.88645 L 422.42681,552.78737 L 415.35357,561.12669 z" />
    <path
       sodipodi:type="star"
       style="fill:#4e4e00;fill-opacity:1;stroke:#000000;stroke-width:4;stroke-miterlimit:4;stroke-opacity:1"
       id="path2114"
       sodipodi:sides="5"
       sodipodi:cx="303.52762"
       sodipodi:cy="577.10187"
       sodipodi:r1="22.592257"
       sodipodi:r2="11.296127"
       sodipodi:arg1="0.78539816"
       sodipodi:arg2="1.4137167"
       inkscape:flatsided="false"
       inkscape:rounded="0"
       inkscape:randomized="0"
       d="M 319.50276,593.07701 L 305.29472,588.25892 L 293.27095,597.23172 L 293.4627,582.2302 L 281.21351,573.56766 L 295.54005,569.1143 L 299.99341,554.78776 L 308.65595,567.03694 L 323.65747,566.8452 L 314.68467,578.86897 L 319.50276,593.07701 z" />
    <path
       sodipodi:type="star"
       style="fill:#4e4e00;fill-opacity:1;stroke:#000000;stroke-width:4;stroke-miterlimit:4;stroke-opacity:1"
       id="path2116"
       sodipodi:sides="5"
       sodipodi:cx="371.42194"
       sodipodi:cy="581.09564"
       sodipodi:r1="19.968922"
       sodipodi:r2="9.9844599"
       sodipodi:arg1="0.64350111"
       sodipodi:arg2="1.2718196"
       inkscape:flatsided="false"
       inkscape:rounded="0"
       inkscape:randomized="0"
       d="M 387.39707,593.077 L 374.36278,590.63718 L 364.96358,599.99134 L 363.25617,586.84105 L 351.45532,580.79247 L 363.43437,575.10497 L 365.54024,562.01257 L 374.65111,571.64779 L 387.75347,569.60483 L 381.40525,581.24723 L 387.39707,593.077 z"
       transform="translate(7.987569,-1.996892)" />
    <path
       sodipodi:type="star"
       style="fill:#4e4e00;fill-opacity:1;stroke:#000000;stroke-width:4;stroke-miterlimit:4;stroke-opacity:1"
       id="path2118"
       sodipodi:sides="5"
       sodipodi:cx="451.29764"
       sodipodi:cy="581.09564"
       sodipodi:r1="25.258909"
       sodipodi:r2="12.629454"
       sodipodi:arg1="0.32175055"
       sodipodi:arg2="0.95006909"
       inkscape:flatsided="false"
       inkscape:rounded="0"
       inkscape:randomized="0"
       d="M 475.26034,589.08321 L 458.64327,591.36914 L 451.10589,606.35382 L 443.79688,591.25644 L 427.21643,588.71849 L 439.31629,577.10186 L 436.60638,560.54864 L 451.39351,568.46655 L 466.29915,560.77405 L 463.33824,577.28422 L 475.26034,589.08321 z" />
    <path
       sodipodi:type="star"
       style="fill:#4e4e00;fill-opacity:1;stroke:#000000;stroke-width:4;stroke-miterlimit:4;stroke-opacity:1"
       id="path2120"
       sodipodi:sides="5"
       sodipodi:cx="499.22305"
       sodipodi:cy="517.19507"
       sodipodi:r1="25.572699"
       sodipodi:r2="12.786348"
       sodipodi:arg1="0.67474094"
       sodipodi:arg2="1.3030595"
       inkscape:flatsided="false"
       inkscape:rounded="0"
       inkscape:randomized="0"
       d="M 519.19198,533.17021 L 502.60568,529.52587 L 490.20053,541.12323 L 488.54106,524.22256 L 473.6779,516.00835 L 489.23859,509.2075 L 492.45781,492.53347 L 503.73431,505.23099 L 520.58705,503.14008 L 511.99563,517.78843 L 519.19198,533.17021 z"
       transform="translate(7.987569,3.993784)" />
    <path
       sodipodi:type="star"
       style="fill:#4e4e00;fill-opacity:1;stroke:#000000;stroke-width:4;stroke-miterlimit:4;stroke-opacity:1"
       id="path2122"
       sodipodi:sides="5"
       sodipodi:cx="211.67056"
       sodipodi:cy="477.25723"
       sodipodi:r1="14.399794"
       sodipodi:r2="7.1998963"
       sodipodi:arg1="0.5880026"
       sodipodi:arg2="1.2163211"
       inkscape:flatsided="false"
       inkscape:rounded="0"
       inkscape:randomized="0"
       d="M 223.65192,485.2448 L 214.16963,484.0095 L 207.77638,491.12047 L 206.02103,481.72056 L 197.28247,477.83762 L 205.67989,473.26345 L 206.67242,463.75269 L 213.61766,470.32561 L 222.96963,468.33058 L 218.86461,476.96704 L 223.65192,485.2448 z"
       transform="translate(11.98135,19.96892)" />
    <path
       sodipodi:type="star"
       style="fill:#4e4e00;fill-opacity:1;stroke:#000000;stroke-width:4;stroke-miterlimit:4;stroke-opacity:1"
       id="path2882"
       sodipodi:sides="5"
       sodipodi:cx="371.42194"
       sodipodi:cy="581.09564"
       sodipodi:r1="19.968922"
       sodipodi:r2="9.9844599"
       sodipodi:arg1="0.64350111"
       sodipodi:arg2="1.2718196"
       inkscape:flatsided="false"
       inkscape:rounded="0"
       inkscape:randomized="0"
       d="M 387.39707,593.077 L 374.36278,590.63718 L 364.96358,599.99134 L 363.25617,586.84105 L 351.45532,580.79247 L 363.43437,575.10497 L 365.54024,562.01257 L 374.65111,571.64779 L 387.75347,569.60483 L 381.40525,581.24723 L 387.39707,593.077 z"
       transform="translate(-91.85704,-103.8384)" />
    <path
       style="fill:none;fill-opacity:0.75;fill-rule:evenodd;stroke:#000000;stroke-width:1px;stroke-linecap:butt;stroke-linejoin:miter;stroke-opacity:1"
       d="M 327.49032,377.41262 C 325.18756,378.564 340.70555,399.99537 343.46546,401.37533 C 351.28328,405.28424 346.98396,413.35668 361.43749,413.35668 C 376.90761,413.35668 376.2511,410.9421 387.39708,405.36911 C 394.16442,401.98545 398.31766,396.44543 403.37222,391.39087 C 407.89509,386.868 413.32061,377.48477 415.35357,373.41884"
       id="path2066" />
    <path
       style="fill:none;fill-opacity:0.75;fill-rule:evenodd;stroke:#000000;stroke-width:1px;stroke-linecap:butt;stroke-linejoin:miter;stroke-opacity:1"
       d="M 403.50789,325.20645 C 397.92319,330.59799 408.07741,305.31488 415.83871,305.45146 C 420.04787,305.52556 417.80491,313.70327 419.6211,317.50123"
       id="path2070" />
    <path
       style="fill:none;fill-opacity:0.75;fill-rule:evenodd;stroke:#000000;stroke-width:1px;stroke-linecap:butt;stroke-linejoin:miter;stroke-opacity:1"
       d="M 363.43438,325.49343 C 363.43438,330.25969 355.44681,345.3898 355.44681,357.4437 C 355.44681,372.32104 359.60562,369.42505 373.41884,369.42505 C 376.74699,369.42505 380.07515,369.42505 383.4033,369.42505"
       id="path2074" />
    <path
       style="fill:none;fill-opacity:0.75;fill-rule:evenodd;stroke:#000000;stroke-width:1px;stroke-linecap:butt;stroke-linejoin:miter;stroke-opacity:1"
       d="M 342.93435,326.29897 C 348.42328,331.7879 338.71552,306.33005 330.953,306.33005 C 326.74318,306.33005 328.8419,314.54602 326.95921,318.3114"
       id="path2888" />
    <path
       style="fill:#4e4e00;fill-opacity:0.66457681;fill-rule:evenodd;stroke:#000000;stroke-width:0.8230961px;stroke-linecap:butt;stroke-linejoin:miter;stroke-opacity:1"
       d="M 435.34311,473.26344 C 430.64477,473.26344 417.02962,473.26344 408.28573,473.26344 C 391.78226,473.26344 378.34462,475.32602 362.28819,481.25101 C 351.3489,485.28772 341.16626,485.24479 329.81935,485.24479 C 320.79695,485.24479 315.62604,489.23858 306.82057,489.23858 C 304.51937,479.25412 301.1945,493.86587 298.70336,501.21993 C 295.70455,510.07267 290.49649,510.93972 294.64475,523.18574 C 296.82025,529.608 306.09746,525.18264 310.87918,525.18264 C 320.51247,525.18264 328.5352,529.17642 337.93656,529.17642 C 346.05377,529.17642 354.17098,529.17642 362.28819,529.17642 C 373.24662,529.17642 381.77392,521.18885 393.40418,521.18885 C 404.48632,521.18885 412.77232,519.87455 421.81442,513.20129 C 428.0519,508.59789 439.62176,511.2044 448.8718,511.2044 C 458.74854,511.2044 441.18532,483.04418 435.34311,473.26344 z"
       id="path2891"
       sodipodi:nodetypes="cccccccccccccc" />
    <path
       style="fill:#000000;fill-opacity:1;fill-rule:evenodd;stroke:#000000;stroke-width:1.21176124px;stroke-linecap:butt;stroke-linejoin:miter;stroke-opacity:1"
       d="M 274.31127,244.65441 C 272.43103,243.68889 270.62613,259.37042 268.54254,265.96925 C 267.02744,270.76763 268.54254,283.30045 268.54254,288.80658 C 268.54254,291.94905 270.46545,302.11655 270.46545,308.59892 C 270.46545,313.99367 275.74812,315.44167 278.1571,319.25635 C 282.98907,326.9079 285.84874,318.47434 285.84874,311.6439 C 285.84874,304.03146 285.84874,296.41901 285.84874,288.80658 C 285.84874,286.87106 291.26983,273.1602 291.61747,272.05919 C 294.15248,264.03071 295.95763,261.31562 297.38621,252.26686 C 298.35785,246.11243 300.16702,240.90695 301.23204,232.47451 C 302.33401,223.74944 307.00077,222.5009 307.00077,212.68217 C 307.00077,209.55112 314.40054,199.44197 316.61533,195.9348 C 319.17922,191.87481 321.74309,187.81485 324.30697,183.75489 C 326.21115,180.73957 341.13583,174.0477 343.53609,173.09745 C 347.87351,171.38037 353.00898,171.68714 356.99648,168.53001 C 360.02666,166.13081 367.94117,168.53001 371.41831,168.53001 C 376.86656,168.53001 382.31481,168.53001 387.76306,168.53001 C 392.35585,168.53001 398.08563,168.81028 401.22344,170.05249 C 405.26924,171.65414 407.73944,175.21161 410.838,177.66493 C 415.85476,181.63701 417.19,180.06047 415.64528,189.84484 C 415.15397,192.95684 410.12825,198.18261 408.91509,202.02474 C 407.38511,206.87028 405.06926,210.88651 405.06926,218.77211 C 405.06926,231.05459 406.49808,229.82072 410.838,226.38456 C 412.58886,224.99829 415.86974,214.30535 416.60674,209.63718 C 417.86389,201.67428 420.05071,197.61635 424.29839,195.9348 C 428.49097,194.27503 430.52722,209.01495 434.87441,209.01495 C 437.01956,209.01495 436.11926,216.73959 439.68167,218.14988 C 432.48905,231.42758 447.37332,225.84458 447.37332,227.90702 C 447.37332,235.51947 447.37332,243.13193 447.37332,250.74437 C 447.37332,258.01717 447.55032,267.09039 448.33478,272.05919 C 449.47047,279.25274 451.21915,284.17475 451.21915,290.32906 C 451.21915,300.80944 455.06497,299.51427 455.06497,310.12141 C 455.06497,316.97247 462.21089,317.51781 462.75662,317.73386 C 466.84608,319.35279 464.67953,304.61657 464.67953,297.9415 C 464.67953,291.89842 470.44827,287.80379 470.44827,278.14915 C 470.44827,270.53237 474.29409,266.02315 474.29409,255.31184 C 474.29409,247.69939 474.29409,240.08695 474.29409,232.47451 C 474.29409,222.46821 472.37118,221.16027 472.37118,212.68215 C 472.37118,206.68145 466.85031,205.85474 464.67953,198.97977 C 462.88354,193.29175 460.2387,187.08998 456.02643,183.75489 C 451.27754,179.9949 451.21782,174.61889 447.37332,171.57498 C 444.02559,168.92437 437.50253,166.60176 433.91295,160.91756 C 432.16818,158.15469 424.1637,156.35011 422.37547,156.35011 C 417.85111,156.35011 414.75846,149.55799 411.79946,147.21516 C 407.70405,143.97258 404.68289,143.86427 401.22344,141.12521 C 397.19308,137.93411 391.70075,138.08022 386.80161,138.08022 C 381.99433,138.08022 377.18705,138.08022 372.37977,138.08022 C 367.6177,138.08022 360.80239,142.28286 356.03502,144.17018 C 349.68973,146.68216 348.11,146.63868 343.53609,150.26012 C 340.93642,152.31846 335.43668,154.38922 332.96008,156.35011 C 326.99875,161.07004 326.14817,156.4795 320.46116,165.48502 C 317.02677,170.92346 311.31479,165.56439 309.88514,174.61995 C 309.88415,174.62622 299.69153,183.45211 299.30912,183.75489 C 295.17929,187.02473 293.3076,188.69098 289.69456,194.41229 C 285.55705,200.96418 282.37173,203.90169 280.08001,211.15968 C 278.55071,216.00303 275.84023,220.01977 274.31127,224.86206 C 272.48292,230.65255 273.2103,240.29585 274.31127,244.65441 z"
       id="path2893"
       sodipodi:nodetypes="ccccccccccccccccccccccccccccccccccccccccccccccccccccccccc" />
    <path
       sodipodi:type="arc"
       style="fill:#000000;fill-opacity:1;stroke:#000000;stroke-width:4;stroke-miterlimit:4;stroke-opacity:1"
       id="path3654"
       sodipodi:cx="127.8011"
       sodipodi:cy="219.65814"
       sodipodi:rx="2.9953382"
       sodipodi:ry="2.5678556"
       d="M 124.90701,220.32014 A 2.9953382,2.5678556 0 1 1 126.39532,221.92563 L 127.8011,219.65814 z"
       sodipodi:start="2.8808469"
       sodipodi:end="8.3425043"
       transform="matrix(0.481228,0,0,1.029162,276.488,91.44534)" />
    <path
       sodipodi:type="arc"
       style="fill:#000000;fill-opacity:1;stroke:#000000;stroke-width:4;stroke-miterlimit:4;stroke-opacity:1"
       id="path3656"
       sodipodi:cx="127.8011"
       sodipodi:cy="219.65814"
       sodipodi:rx="2.9953382"
       sodipodi:ry="2.5678556"
       d="M 124.90701,220.32014 A 2.9953382,2.5678556 0 1 1 126.39532,221.92563 L 127.8011,219.65814 z"
       sodipodi:start="2.8808469"
       sodipodi:end="8.3425043"
       transform="matrix(0.481228,0,0,1.029162,346.488,91.44534)" />
    <path
       style="fill:none;fill-opacity:0.75;fill-rule:evenodd;stroke:#000000;stroke-width:1px;stroke-linecap:butt;stroke-linejoin:miter;stroke-opacity:1"
       d="M 325.49343,281.5618 C 326.12321,281.5618 338.56375,289.54937 345.46235,289.54937"
       id="path3658"
       sodipodi:nodetypes="cc" />
    <path
       style="fill:none;fill-opacity:0.75;fill-rule:evenodd;stroke:#000000;stroke-width:1px;stroke-linecap:butt;stroke-linejoin:miter;stroke-opacity:1"
       d="M 426.13318,276.7861 C 417.24062,269.26854 409.40817,284.70865 399.88598,282.15719"
       id="path3660" />
  </g>
</svg>
