<?xml version="1.0" encoding="UTF-8" standalone="no"?>
<!-- Generator: Adobe Illustrator 13.0.2, SVG Export Plug-In . SVG Version: 6.00 Build 14948)  -->
<svg xmlns:dc="http://purl.org/dc/elements/1.1/" xmlns:cc="http://web.resource.org/cc/" xmlns:rdf="http://www.w3.org/1999/02/22-rdf-syntax-ns#" xmlns:svg="http://www.w3.org/2000/svg" xmlns="http://www.w3.org/2000/svg" xmlns:sodipodi="http://sodipodi.sourceforge.net/DTD/sodipodi-0.dtd" xmlns:inkscape="http://www.inkscape.org/namespaces/inkscape" version="1.0" id="svg1342" inkscape:export-xdpi="90" sodipodi:docname="Machovka_Cards.svg" sodipodi:version="0.32" inkscape:version="0.45.1" sodipodi:docbase="/Users/johnolsen/Desktop" inkscape:export-ydpi="90" inkscape:export-filename="/media/KINGSTON/inkscape/9.c/radek/karty.png" inkscape:output_extension="org.inkscape.output.svg.inkscape" x="0px" y="0px" width="435.321px" height="320.896px" viewBox="0 0 435.321 320.896" style="enable-background:new 0 0 435.321 320.896;" xml:space="preserve"><defs id="defs46"/>
<sodipodi:namedview borderopacity="1.0" inkscape:pageopacity="0.0" inkscape:zoom="0.25705389" inkscape:cx="444.96347" inkscape:cy="395.21094" inkscape:current-layer="layer1" showgrid="false" inkscape:window-width="1311" pagecolor="#ffffff" inkscape:window-height="1018" inkscape:pageshadow="2" inkscape:window-x="0" inkscape:window-y="22" bordercolor="#666666" inkscape:document-units="mm" id="namedview1346">
	</sodipodi:namedview>
<g id="layer1" transform="translate(-317.202,-211.6475)" inkscape:label="Layer 1" inkscape:groupmode="layer">
	
		<g id="g8736" transform="matrix(1.085881,0,0,1.176545,75.78842,-105.3233)" inkscape:export-xdpi="90" inkscape:export-ydpi="90" inkscape:export-filename="/media/KINGSTON/inkscape/9.c/radek/karty.png">
		<g id="g8536" transform="matrix(1.072348,0,-0.570446,1,-142.0871,138.9159)">
			<g id="g7742" transform="translate(171.9257,-50.89)">
				<g id="g7744" transform="matrix(2.171169,0,0,2.255715,191.6612,-16.30203)">
					<path id="rect7746" style="fill:#FFFFFF;stroke:#000000;stroke-width:0.8;" d="M91.427,99.612h66.298       c0.929,0,1.682,0.623,1.681,1.392l0,91.708c0,0.769-0.753,1.392-1.682,1.392H91.427c-0.929,0-1.682-0.623-1.682-1.392v-91.708       C89.745,100.236,90.498,99.612,91.427,99.612z"/>
				</g>
			</g>
			<g id="g7808" transform="translate(165.0486,-56.3916)">
				<g id="g7810" transform="matrix(2.171169,0,0,2.255715,191.6612,-16.30203)">
					<path id="rect7812" style="fill:#FFFFFF;stroke:#000000;stroke-width:0.8;" d="M91.427,99.613h66.298       c0.929,0,1.682,0.623,1.681,1.392l0,91.708c0,0.769-0.753,1.392-1.682,1.392H91.427c-0.929,0-1.682-0.623-1.682-1.392v-91.708       C89.745,100.236,90.498,99.613,91.427,99.613z"/>
				</g>
				<g id="g7842" transform="matrix(1.917464,0,0,2.068046,223.9544,11.94631)">
					<path id="rect7844" style="fill:#3D79E8;stroke:#000000;stroke-width:0.8;" d="M91.65,99.613h65.852       c1.052,0,1.904,0.68,1.905,1.518l0,91.455c0,0.838-0.853,1.518-1.904,1.518H91.65c-1.052,0-1.904-0.68-1.904-1.518l0-91.455       C89.745,100.292,90.598,99.613,91.65,99.613z"/>
				</g>
			</g>
			<g id="g7874" transform="translate(159.547,-61.8932)">
				<g id="g7876" transform="matrix(2.171169,0,0,2.255715,191.6612,-16.30203)">
					<path id="rect7878" style="fill:#FFFFFF;stroke:#000000;stroke-width:0.8;" d="M91.427,99.613h66.298       c0.929,0,1.682,0.623,1.682,1.392v91.708c0,0.768-0.753,1.392-1.682,1.392H91.427c-0.929,0-1.682-0.623-1.682-1.392l0-91.708       C89.745,100.236,90.498,99.613,91.427,99.613z"/>
				</g>
				<g id="g7908" transform="matrix(1.917464,0,0,2.068046,223.9544,11.94631)">
					<path id="rect7910" style="fill:#3D79E8;stroke:#000000;stroke-width:0.8;" d="M91.65,99.613h65.853       c1.051,0,1.904,0.68,1.904,1.518l0,91.455c0,0.838-0.853,1.518-1.904,1.518H91.65c-1.052,0-1.904-0.68-1.904-1.518l0-91.455       C89.745,100.292,90.598,99.613,91.65,99.613z"/>
				</g>
			</g>
			<g id="g7940" transform="translate(152.67,-66.0194)">
				<g id="g7942" transform="matrix(2.171169,0,0,2.255715,191.6612,-16.30203)">
					<path id="rect7944" style="fill:#FFFFFF;stroke:#000000;stroke-width:0.8;" d="M91.427,99.613h66.297       c0.929,0,1.682,0.623,1.682,1.392l0,91.708c0,0.768-0.753,1.392-1.682,1.392H91.427c-0.929,0-1.682-0.623-1.682-1.392l0-91.708       C89.745,100.236,90.498,99.613,91.427,99.613z"/>
				</g>
				<g id="g7974" transform="matrix(1.917464,0,0,2.068046,223.9544,11.94631)">
					<path id="rect7976" style="fill:#3D79E8;stroke:#000000;stroke-width:0.8;" d="M91.649,99.612h65.852       c1.052,0,1.905,0.68,1.904,1.518l0,91.455c0,0.838-0.853,1.518-1.904,1.518H91.65c-1.052,0-1.904-0.68-1.904-1.518l0-91.455       C89.745,100.292,90.598,99.612,91.649,99.612z"/>
				</g>
			</g>
			<g id="g8006" transform="translate(144.4176,-70.1457)">
				<g id="g8008" transform="matrix(2.171169,0,0,2.255715,191.6612,-16.30203)">
					<path id="rect8010" style="fill:#FFFFFF;stroke:#000000;stroke-width:0.8;" d="M91.427,99.612h66.298       c0.929,0,1.682,0.623,1.682,1.392l0,91.708c0,0.769-0.753,1.392-1.682,1.392H91.427c-0.929,0-1.682-0.623-1.682-1.392l0-91.708       C89.745,100.236,90.498,99.612,91.427,99.612z"/>
				</g>
			</g>
			<g id="g8072" transform="translate(136.1652,-77.0227)">
				<g id="g8074" transform="matrix(2.171169,0,0,2.255715,191.6612,-16.30203)">
					<path id="rect8076" style="fill:#FFFFFF;stroke:#000000;stroke-width:0.8;" d="M91.427,99.613h66.298       c0.929,0,1.682,0.623,1.682,1.392l0,91.708c0,0.769-0.753,1.392-1.682,1.392H91.427c-0.929,0-1.682-0.623-1.682-1.392l0-91.708       C89.745,100.236,90.498,99.613,91.427,99.613z"/>
				</g>
				<g id="g8106" transform="matrix(1.917464,0,0,2.068046,223.9544,11.94631)">
					<path id="rect8108" style="fill:#3D79E8;stroke:#000000;stroke-width:0.8;" d="M91.649,99.613h65.852       c1.052,0,1.904,0.679,1.905,1.518l0,91.455c0,0.838-0.853,1.518-1.904,1.518H91.649c-1.052,0-1.904-0.68-1.904-1.518l0-91.455       C89.745,100.292,90.598,99.613,91.649,99.613z"/>
				</g>
			</g>
		</g>
		<g id="g6650" transform="matrix(2.172288,-1.093293,1.424272,1.920448,1.025268,267.8511)">
			<path id="rect1352" style="fill:#FFFFFF;stroke:#000000;stroke-width:0.8;" d="M91.355,99.613l66.441,0     c0.889,0,1.61,0.678,1.61,1.515v91.461c0,0.837-0.721,1.515-1.61,1.515l-66.441,0c-0.889,0-1.61-0.678-1.61-1.514l0-91.462     C89.745,100.291,90.466,99.613,91.355,99.613z"/>
			<g id="g3150">
				<path id="path2227" style="fill:#EE0000;" d="M 130.189,122.69 C 132.345,124.712 134.501,126.733 136.658,128.755 C 138.317,127.059 139.93,125.32 141.523,123.562 C 141.943,123.075 142.46,122.656 142.7,122.044 C 143.322,120.904 143.898,119.743 144.412,118.551 C 144.682,118.14 144.477,117.642 144.494,117.186 C 144.422,116.82 144.574,116.367 144.261,116.094 C 143.804,115.525 143.347,114.956 142.89,114.386 C 142.328,114.252 141.78,114.011 141.209,113.946 C 140.459,113.975 139.695,113.949 138.954,114.013 C 138.425,114.296 137.858,114.535 137.351,114.846 C 136.979,115.333 136.608,115.82 136.236,116.307 C 135.534,115.655 134.832,115.004 134.13,114.353 C 133.449,114.214 132.765,114.009 132.084,113.911 C 131.341,114.151 130.57,114.342 129.844,114.613 C 129.356,115.058 128.867,115.503 128.379,115.948 C 128.287,116.579 128.145,117.211 128.083,117.841 C 128.295,118.712 128.466,119.602 128.704,120.462 C 129.199,121.204 129.695,121.947 130.189,122.69 z " sodipodi:nodetypes="ccccccccccccccccccc"/>
				<path id="path2236" style="fill:#EE0000;" d="M130.682,146.358c2.156,2.022,4.312,4.043,6.469,6.065      c1.659-1.696,3.272-3.435,4.864-5.193c0.42-0.487,0.937-0.906,1.178-1.518c0.622-1.139,1.198-2.301,1.712-3.493      c0.269-0.411,0.065-0.908,0.082-1.365c-0.072-0.366,0.08-0.819-0.233-1.092c-0.457-0.57-0.914-1.139-1.371-1.708      c-0.562-0.134-1.11-0.375-1.681-0.44c-0.75,0.029-1.514,0.003-2.255,0.067c-0.529,0.283-1.097,0.522-1.603,0.833      c-0.372,0.487-0.744,0.974-1.115,1.461c-0.702-0.651-1.404-1.303-2.106-1.954c-0.682-0.139-1.365-0.343-2.045-0.442      c-0.744,0.24-1.514,0.432-2.24,0.702c-0.488,0.445-0.977,0.89-1.466,1.335c-0.092,0.63-0.234,1.263-0.296,1.892      c0.212,0.871,0.383,1.761,0.621,2.621C129.692,144.871,130.187,145.615,130.682,146.358z"/>
				<path id="path2238" style="fill:#EE0000;" d="M130.388,166.038c2.156-2.022,4.312-4.044,6.469-6.065      c1.659,1.696,3.272,3.435,4.865,5.192c0.42,0.487,0.936,0.906,1.177,1.518c0.622,1.14,1.199,2.301,1.713,3.494      c0.269,0.41,0.065,0.908,0.082,1.365c-0.073,0.366,0.08,0.819-0.233,1.092c-0.457,0.569-0.914,1.138-1.37,1.708      c-0.562,0.135-1.11,0.375-1.681,0.44c-0.75-0.029-1.514-0.004-2.255-0.067c-0.53-0.283-1.096-0.522-1.603-0.832      c-0.372-0.487-0.744-0.974-1.115-1.461c-0.702,0.651-1.405,1.303-2.107,1.954c-0.681,0.139-1.366,0.344-2.045,0.442      c-0.743-0.24-1.515-0.432-2.24-0.702c-0.489-0.445-0.977-0.89-1.465-1.335c-0.092-0.631-0.234-1.263-0.296-1.892      c0.212-0.872,0.383-1.761,0.621-2.622C129.397,167.524,129.892,166.781,130.388,166.038z"/>
				<path id="path2242" style="fill:#EE0000;" d="M105.386,146.105c2.156,2.022,4.313,4.043,6.469,6.065      c1.659-1.696,3.272-3.435,4.865-5.193c0.42-0.487,0.937-0.906,1.178-1.518c0.621-1.14,1.198-2.301,1.712-3.493      c0.269-0.411,0.065-0.908,0.082-1.365c-0.072-0.366,0.08-0.819-0.233-1.092c-0.457-0.569-0.914-1.138-1.371-1.707      c-0.562-0.135-1.11-0.375-1.682-0.441c-0.75,0.029-1.514,0.004-2.255,0.067c-0.53,0.283-1.096,0.522-1.604,0.832      c-0.372,0.487-0.744,0.974-1.115,1.46c-0.702-0.651-1.404-1.303-2.106-1.954c-0.681-0.139-1.366-0.344-2.046-0.442      c-0.743,0.24-1.514,0.431-2.24,0.702c-0.488,0.445-0.977,0.89-1.465,1.335c-0.092,0.631-0.234,1.263-0.296,1.893      c0.212,0.872,0.383,1.761,0.621,2.621C104.396,144.619,104.891,145.362,105.386,146.105z"/>
				<path id="path2244" style="fill:#EE0000;" d="M105.584,166.038c2.156-2.021,4.313-4.043,6.469-6.065      c1.659,1.696,3.272,3.435,4.865,5.193c0.42,0.487,0.937,0.906,1.178,1.518c0.622,1.14,1.198,2.301,1.712,3.493      c0.27,0.411,0.065,0.908,0.082,1.365c-0.072,0.366,0.08,0.819-0.232,1.092c-0.457,0.569-0.914,1.138-1.371,1.707      c-0.562,0.135-1.11,0.375-1.682,0.44c-0.75-0.029-1.514-0.003-2.255-0.067c-0.529-0.283-1.097-0.522-1.603-0.832      c-0.372-0.487-0.743-0.974-1.115-1.461c-0.702,0.651-1.404,1.303-2.106,1.954c-0.682,0.139-1.366,0.344-2.046,0.442      c-0.743-0.24-1.514-0.431-2.24-0.702c-0.488-0.445-0.977-0.89-1.465-1.335c-0.092-0.631-0.234-1.263-0.296-1.893      c0.212-0.872,0.383-1.761,0.621-2.621C104.594,167.524,105.089,166.781,105.584,166.038z"/>
			</g>
			<path id="path2246" style="fill:#EE0000;" d="M94.759,118.627c0.848,0.767,1.695,1.533,2.543,2.3     c0.652-0.643,1.286-1.303,1.912-1.97c0.165-0.184,0.368-0.343,0.463-0.576c0.244-0.432,0.471-0.873,0.673-1.325     c0.106-0.156,0.025-0.344,0.032-0.518c-0.028-0.139,0.031-0.311-0.091-0.414c-0.18-0.216-0.359-0.432-0.539-0.647     c-0.221-0.051-0.436-0.143-0.661-0.167c-0.295,0.011-0.595,0.001-0.886,0.025c-0.208,0.108-0.431,0.198-0.63,0.316     c-0.146,0.185-0.292,0.369-0.438,0.554c-0.276-0.247-0.552-0.494-0.828-0.741c-0.268-0.053-0.537-0.13-0.804-0.167     c-0.292,0.091-0.595,0.163-0.88,0.266c-0.192,0.169-0.384,0.338-0.576,0.507c-0.036,0.239-0.092,0.479-0.116,0.718     c0.083,0.331,0.15,0.668,0.244,0.994C94.37,118.064,94.565,118.346,94.759,118.627z"/>
			<path id="text2248" style="fill:#EE0000;" d="M97.202,108.241c-0.531,0-0.953,0.182-1.266,0.545     c-0.309,0.363-0.463,0.861-0.463,1.494c0,0.629,0.154,1.127,0.463,1.494c0.312,0.363,0.734,0.545,1.266,0.545     c0.531,0,0.951-0.182,1.26-0.545c0.312-0.367,0.469-0.865,0.469-1.494c0-0.633-0.156-1.131-0.469-1.494     C98.153,108.423,97.733,108.241,97.202,108.241 M99.551,104.532l0,1.078c-0.297-0.14-0.598-0.248-0.902-0.322     c-0.301-0.074-0.6-0.111-0.896-0.111c-0.781,0-1.379,0.264-1.793,0.791c-0.41,0.528-0.645,1.324-0.703,2.391     c0.23-0.34,0.52-0.6,0.867-0.78c0.348-0.183,0.73-0.275,1.148-0.275c0.879,0,1.572,0.268,2.08,0.803     c0.512,0.531,0.768,1.256,0.768,2.174c0,0.898-0.266,1.619-0.797,2.162c-0.531,0.543-1.238,0.814-2.121,0.814     c-1.012,0-1.785-0.387-2.32-1.16c-0.535-0.777-0.803-1.902-0.803-3.375c0-1.383,0.328-2.485,0.984-3.305     c0.656-0.824,1.537-1.236,2.643-1.236c0.297,0,0.596,0.029,0.897,0.088C98.907,104.327,99.223,104.415,99.551,104.532"/>
			<g id="g3131" transform="translate(0,-2.302398)">
				<path id="path2252" style="fill:#EE0000;" d="M150.22,176.015c0.848-0.767,1.695-1.534,2.543-2.3      c0.652,0.643,1.286,1.303,1.912,1.969c0.165,0.185,0.368,0.344,0.463,0.576c0.244,0.432,0.471,0.873,0.673,1.325      c0.106,0.156,0.026,0.344,0.032,0.518c-0.028,0.139,0.031,0.311-0.092,0.414c-0.18,0.216-0.359,0.432-0.539,0.648      c-0.221,0.051-0.436,0.143-0.661,0.167c-0.294-0.011-0.595-0.001-0.886-0.025c-0.209-0.107-0.432-0.198-0.631-0.316      c-0.146-0.184-0.292-0.369-0.438-0.554c-0.276,0.247-0.552,0.494-0.828,0.741c-0.268,0.053-0.537,0.13-0.804,0.168      c-0.292-0.091-0.596-0.164-0.881-0.266c-0.192-0.168-0.384-0.337-0.576-0.506c-0.036-0.239-0.093-0.479-0.117-0.718      c0.083-0.331,0.151-0.668,0.244-0.994C149.831,176.579,150.025,176.296,150.22,176.015z"/>
				<path id="text2254" style="fill:#EE0000;" d="M152.662,186.401c-0.531,0-0.953-0.182-1.266-0.545      c-0.308-0.363-0.463-0.861-0.463-1.494c0-0.629,0.154-1.127,0.463-1.494c0.313-0.363,0.734-0.545,1.266-0.545      s0.951,0.182,1.26,0.545c0.312,0.367,0.469,0.865,0.469,1.494c0,0.633-0.156,1.131-0.469,1.494      C153.614,186.219,153.194,186.401,152.662,186.401 M155.012,190.11l0-1.078c-0.297,0.141-0.597,0.248-0.902,0.322      c-0.301,0.074-0.6,0.112-0.897,0.111c-0.781,0-1.379-0.264-1.793-0.791c-0.41-0.527-0.645-1.324-0.703-2.391      c0.231,0.34,0.519,0.6,0.867,0.779c0.348,0.184,0.731,0.276,1.149,0.276c0.878,0,1.572-0.268,2.08-0.803      c0.511-0.531,0.768-1.256,0.768-2.173c0-0.899-0.266-1.619-0.797-2.162c-0.531-0.543-1.238-0.815-2.121-0.814      c-1.012,0-1.785,0.387-2.321,1.16c-0.535,0.777-0.803,1.902-0.803,3.375c0,1.383,0.328,2.485,0.985,3.305      c0.656,0.824,1.537,1.236,2.642,1.236c0.297,0,0.595-0.029,0.896-0.088C154.368,190.315,154.684,190.227,155.012,190.11"/>
			</g>
		</g>
	</g>
<path id="path2202" style="fill:#ee0000" d="M 522.04298,348.65614 C 530.25586,350.45156 538.46719,352.24471 546.68243,354.03884 C 547.97274,348.07275 549.08804,342.06868 550.12677,336.0474 C 550.3643,334.40678 550.9358,332.79503 550.55541,331.1035 C 550.2595,327.7276 549.82261,324.36341 549.19152,321.00893 C 549.19276,319.73298 547.93899,318.87144 547.27385,317.81924 C 546.53796,317.08488 546.1959,315.86582 545.03536,315.65159 C 543.07736,314.95378 541.11936,314.25597 539.15981,313.5559 C 537.62689,313.97604 535.96152,314.13639 534.51409,314.72401 C 532.7898,315.75427 530.94743,316.67826 529.29851,317.77602 C 528.48837,319.09591 527.52054,320.36527 526.80559,321.72013 C 526.68129,323.29901 526.55935,324.8766 526.43504,326.45548 C 523.77076,325.88528 521.10802,325.31734 518.44528,324.7494 C 516.62393,325.31131 514.69343,325.72795 512.93549,326.38249 C 511.55404,327.8805 510.03077,329.3038 508.73738,330.84999 C 508.27449,332.48318 507.80925,334.11766 507.34636,335.75085 C 508.10525,337.29494 508.74774,338.90559 509.57584,340.40882 C 511.423,342.10414 513.20282,343.89513 515.0943,345.53216 C 517.40949,346.57198 519.7286,347.61277 522.04298,348.65614 z " sodipodi:nodetypes="ccccccccccccccccccc"/></g>
<metadata><rdf:RDF><cc:Work><dc:format>image/svg+xml</dc:format><dc:type rdf:resource="http://purl.org/dc/dcmitype/StillImage"/><cc:license rdf:resource="http://creativecommons.org/licenses/publicdomain/"/><dc:publisher><cc:Agent rdf:about="http://openclipart.org/"><dc:title>Open Clip Art Library</dc:title></cc:Agent></dc:publisher><dc:title>Cards</dc:title><dc:date>2006-12-20T10:59:22</dc:date><dc:description>A deck of cards.</dc:description><dc:source>http://openclipart.org/detail/2178/cards-by-machovka</dc:source><dc:creator><cc:Agent><dc:title>Machovka</dc:title></cc:Agent></dc:creator><dc:subject><rdf:Bag><rdf:li>cards</rdf:li><rdf:li>clip art</rdf:li><rdf:li>clipart</rdf:li><rdf:li>enertainment</rdf:li><rdf:li>gambling</rdf:li><rdf:li>game</rdf:li><rdf:li>image</rdf:li><rdf:li>media</rdf:li><rdf:li>play</rdf:li><rdf:li>png</rdf:li><rdf:li>public domain</rdf:li><rdf:li>svg</rdf:li></rdf:Bag></dc:subject></cc:Work><cc:License rdf:about="http://creativecommons.org/licenses/publicdomain/"><cc:permits rdf:resource="http://creativecommons.org/ns#Reproduction"/><cc:permits rdf:resource="http://creativecommons.org/ns#Distribution"/><cc:permits rdf:resource="http://creativecommons.org/ns#DerivativeWorks"/></cc:License></rdf:RDF></metadata></svg>
