<?xml version="1.0" encoding="UTF-8" standalone="no"?>
<!-- Created with Inkscape (http://www.inkscape.org/) -->
<svg xmlns:dc="http://purl.org/dc/elements/1.1/" xmlns:cc="http://creativecommons.org/ns#" xmlns:rdf="http://www.w3.org/1999/02/22-rdf-syntax-ns#" xmlns:svg="http://www.w3.org/2000/svg" xmlns="http://www.w3.org/2000/svg" xmlns:sodipodi="http://sodipodi.sourceforge.net/DTD/sodipodi-0.dtd" xmlns:inkscape="http://www.inkscape.org/namespaces/inkscape" width="300" height="300" id="svg2" version="1.1" inkscape:version="0.47 r22583" sodipodi:docname="guitar.svg">
  <defs id="defs4">
    <inkscape:perspective sodipodi:type="inkscape:persp3d" inkscape:vp_x="0 : 526.18109 : 1" inkscape:vp_y="0 : 1000 : 0" inkscape:vp_z="744.09448 : 526.18109 : 1" inkscape:persp3d-origin="372.04724 : 350.78739 : 1" id="perspective10"/>
    <inkscape:perspective id="perspective3542" inkscape:persp3d-origin="0.5 : 0.33333333 : 1" inkscape:vp_z="1 : 0.5 : 1" inkscape:vp_y="0 : 1000 : 0" inkscape:vp_x="0 : 0.5 : 1" sodipodi:type="inkscape:persp3d"/>
    <inkscape:perspective id="perspective4335" inkscape:persp3d-origin="0.5 : 0.33333333 : 1" inkscape:vp_z="1 : 0.5 : 1" inkscape:vp_y="0 : 1000 : 0" inkscape:vp_x="0 : 0.5 : 1" sodipodi:type="inkscape:persp3d"/>
    <inkscape:perspective id="perspective3630" inkscape:persp3d-origin="0.5 : 0.33333333 : 1" inkscape:vp_z="1 : 0.5 : 1" inkscape:vp_y="0 : 1000 : 0" inkscape:vp_x="0 : 0.5 : 1" sodipodi:type="inkscape:persp3d"/>
    <inkscape:perspective id="perspective3898" inkscape:persp3d-origin="0.5 : 0.33333333 : 1" inkscape:vp_z="1 : 0.5 : 1" inkscape:vp_y="0 : 1000 : 0" inkscape:vp_x="0 : 0.5 : 1" sodipodi:type="inkscape:persp3d"/>
    <inkscape:perspective id="perspective4038" inkscape:persp3d-origin="143.2805 : 78.931 : 1" inkscape:vp_z="286.561 : 118.3965 : 1" inkscape:vp_y="0 : 1000 : 0" inkscape:vp_x="0 : 118.3965 : 1" sodipodi:type="inkscape:persp3d"/>
    <inkscape:perspective id="perspective4164" inkscape:persp3d-origin="0.5 : 0.33333333 : 1" inkscape:vp_z="1 : 0.5 : 1" inkscape:vp_y="0 : 1000 : 0" inkscape:vp_x="0 : 0.5 : 1" sodipodi:type="inkscape:persp3d"/>
    <inkscape:perspective id="perspective4639" inkscape:persp3d-origin="0.5 : 0.33333333 : 1" inkscape:vp_z="1 : 0.5 : 1" inkscape:vp_y="0 : 1000 : 0" inkscape:vp_x="0 : 0.5 : 1" sodipodi:type="inkscape:persp3d"/>
    <inkscape:perspective sodipodi:type="inkscape:persp3d" inkscape:vp_x="0 : 0.5 : 1" inkscape:vp_y="0 : 1000 : 0" inkscape:vp_z="1 : 0.5 : 1" inkscape:persp3d-origin="0.5 : 0.33333333 : 1" id="perspective2906"/>
    <inkscape:perspective sodipodi:type="inkscape:persp3d" inkscape:vp_x="0 : 0.5 : 1" inkscape:vp_y="0 : 1000 : 0" inkscape:vp_z="1 : 0.5 : 1" inkscape:persp3d-origin="0.5 : 0.33333333 : 1" id="perspective2848"/>
    <inkscape:perspective sodipodi:type="inkscape:persp3d" inkscape:vp_x="0 : 526.18109 : 1" inkscape:vp_y="0 : 1000 : 0" inkscape:vp_z="744.09448 : 526.18109 : 1" inkscape:persp3d-origin="372.04724 : 350.78739 : 1" id="perspective10-2"/>
    <inkscape:perspective id="perspective2390-4" inkscape:persp3d-origin="372.04724 : 350.78739 : 1" inkscape:vp_z="744.09448 : 526.18109 : 1" inkscape:vp_y="0 : 1000 : 0" inkscape:vp_x="0 : 526.18109 : 1" sodipodi:type="inkscape:persp3d"/>
    <inkscape:perspective sodipodi:type="inkscape:persp3d" inkscape:vp_x="0 : 526.18109 : 1" inkscape:vp_y="0 : 1000 : 0" inkscape:vp_z="744.09448 : 526.18109 : 1" inkscape:persp3d-origin="372.04724 : 350.78739 : 1" id="perspective10-4"/>
    <inkscape:perspective id="perspective2390" inkscape:persp3d-origin="372.04724 : 350.78739 : 1" inkscape:vp_z="744.09448 : 526.18109 : 1" inkscape:vp_y="0 : 1000 : 0" inkscape:vp_x="0 : 526.18109 : 1" sodipodi:type="inkscape:persp3d"/>
    <inkscape:perspective id="perspective10-27" inkscape:persp3d-origin="372.04724 : 350.78739 : 1" inkscape:vp_z="744.09448 : 526.18109 : 1" inkscape:vp_y="0 : 1000 : 0" inkscape:vp_x="0 : 526.18109 : 1" sodipodi:type="inkscape:persp3d"/>
    <inkscape:perspective id="perspective4915" inkscape:persp3d-origin="0.5 : 0.33333333 : 1" inkscape:vp_z="1 : 0.5 : 1" inkscape:vp_y="0 : 1000 : 0" inkscape:vp_x="0 : 0.5 : 1" sodipodi:type="inkscape:persp3d"/>
  </defs>
  <sodipodi:namedview id="base" pagecolor="#ffffff" bordercolor="#666666" borderopacity="1.0" inkscape:pageopacity="0.0" inkscape:pageshadow="2" inkscape:zoom="0.39292929" inkscape:cx="299.00256" inkscape:cy="239.72237" inkscape:document-units="px" inkscape:current-layer="g5558" showgrid="false" inkscape:window-width="1024" inkscape:window-height="538" inkscape:window-x="-8" inkscape:window-y="-8" inkscape:window-maximized="1" showguides="true" inkscape:guide-bbox="true"/>
  <g inkscape:label="Layer 1" inkscape:groupmode="layer" id="layer1" transform="translate(0,-752.36218)" style="display:inline">
    <text xml:space="preserve" style="font-size:20px;font-style:normal;font-weight:normal;fill:#000000;fill-opacity:1;stroke:none;font-family:Plantagenet Cherokee;-inkscape-font-specification:Plantagenet Cherokee" x="1016.2135" y="733.42126" id="text3042" transform="translate(0,62.362183)">
      <tspan sodipodi:role="line" id="tspan3044" x="1016.2135" y="733.42126"/>
    </text>
    <g id="g5042" transform="matrix(0.92192684,0,0,0.92192684,39.40689,45.117636)">
      <g id="g5558" transform="matrix(0.94392926,0,0,0.94392926,14.850266,31.043852)" style="fill:#d5d5d5;fill-opacity:1">
        <g id="g4929" transform="matrix(-1.7170974,0.99136665,0.99136665,1.7170974,2387.6141,-1957.9842)" style="fill:#000000;fill-opacity:1">
          <path style="fill:#000000;fill-opacity:1;stroke:none" d="m 1687.9147,627.92093 c 1.2885,-0.72504 2.691,-1.29698 4.1876,-1.69791 l 14.0815,-3.77419 12.6383,-7.29676 c 5.368,-3.0992 11.639,-3.11758 16.7999,-0.60017 l 21.4678,-5.75017 c 9.5796,-2.56678 19.3613,3.08263 21.9285,12.6624 l 28.1343,104.99891 c 2.5667,9.58003 -3.0827,19.36167 -12.6623,21.92846 l -32.5256,8.71942 -0.055,0.032 -23.8141,23.80807 c -7.0129,7.01291 -18.3088,7.01461 -25.3218,0.002 l -76.8604,-76.86632 c -7.0128,-7.01301 -7.0146,-18.30891 0,-25.3218 l 15.7136,-15.71669 c 0.4004,-5.72817 3.5516,-11.14978 8.9197,-14.24902 l 12.6383,-7.29674 10.3093,-10.30788 c 1.2209,-1.22097 2.5798,-2.22364 4.0152,-3.01955 0.1367,-0.0819 0.2678,-0.1751 0.4072,-0.25354 z m 25.6417,2.82205 -3.2945,1.90209 59.302,59.30128 -31.5527,-54.65073 c -0.28,-0.485 -0.5835,-0.95141 -0.9003,-1.39966 -0.034,-0.0486 -0.067,-0.0961 -0.1017,-0.14435 -0.01,-0.0135 -0.016,-0.0278 -0.024,-0.0415 -0.092,-0.12629 -0.1928,-0.24604 -0.2871,-0.36947 -0.095,-0.12461 -0.1893,-0.24803 -0.2871,-0.36947 -0.1704,-0.21132 -0.3458,-0.41828 -0.5242,-0.62022 -0.025,-0.0278 -0.045,-0.0612 -0.07,-0.0889 -0.1391,-0.15506 -0.2845,-0.30475 -0.4282,-0.45408 -0.049,-0.0509 -0.096,-0.10578 -0.1456,-0.15591 -0.098,-0.0996 -0.1967,-0.19296 -0.2967,-0.29014 -0.1275,-0.12382 -0.2496,-0.25153 -0.3804,-0.37102 -0.091,-0.0835 -0.1936,-0.15926 -0.2865,-0.2406 -0.1101,-0.0966 -0.22,-0.19457 -0.3324,-0.28797 -0.1545,-0.12898 -0.3151,-0.2494 -0.4735,-0.37263 -0.074,-0.0572 -0.1503,-0.10953 -0.2247,-0.16553 -0.1241,-0.0933 -0.2418,-0.19607 -0.3681,-0.28582 -0.1404,-0.10005 -0.2827,-0.19386 -0.4255,-0.28958 -0.056,-0.0373 -0.1149,-0.0678 -0.1711,-0.10428 -0.2035,-0.13304 -0.4099,-0.27555 -0.6183,-0.39973 -0.033,-0.0195 -0.07,-0.0317 -0.1033,-0.0511 -0.1711,-0.10041 -0.3447,-0.19669 -0.5188,-0.2911 -0.1875,-0.10193 -0.3715,-0.20791 -0.5624,-0.30282 -0.082,-0.0411 -0.1673,-0.0742 -0.2503,-0.11388 -0.1066,-0.0509 -0.2163,-0.0966 -0.3239,-0.14525 -0.1741,-0.0792 -0.3458,-0.16019 -0.5224,-0.23362 -0.1226,-0.0511 -0.2437,-0.1088 -0.3675,-0.15696 -0.1342,-0.0525 -0.2676,-0.10576 -0.4031,-0.15485 -0.1098,-0.0399 -0.225,-0.0639 -0.3356,-0.10159 -0.2174,-0.0741 -0.437,-0.14561 -0.6571,-0.2112 -0.022,-0.006 -0.038,-0.0329 -0.059,-0.0395 -0.2707,-0.0795 -0.5475,-0.14182 -0.8217,-0.20847 -4.3115,-1.04818 -9.0199,-0.49553 -13.1837,1.90848 z m -22.9224,14.80308 c -0.2186,0.11733 -0.4358,0.24866 -0.6505,0.3756 -1.2721,0.75337 -2.4685,1.68185 -3.5643,2.77764 l -32.9943,33.0026 c -7.0129,7.01296 -7.0192,18.29501 -0.01,25.30796 l 56.4303,56.43731 c 7.013,7.01295 18.3088,7.01123 25.3218,-0.002 l 32.9943,-33.00262 c 7.0129,-7.01294 7.0191,-18.29499 0.01,-25.30794 l -56.4303,-56.43749 c -5.7323,-5.73225 -14.3301,-6.79006 -21.107,-3.15152 z m 53.9937,-21.50189 40.2799,69.76688 -15.5039,-57.86259 c -2.5667,-9.58001 -12.3483,-15.22948 -21.9284,-12.6624 l -2.8476,0.75823 z m -72.0842,45.69681 c 15.1779,12.31854 38.2369,20.44617 50.4933,14.79341 5.3637,-2.4738 12.125,-0.0944 16.6279,4.40862 6.6892,6.68913 6.6821,17.53029 -0.01,24.21951 -5.0329,5.03288 -12.4122,6.27169 -18.61,3.73086 7.5604,5.11958 16.3202,9.1732 24.5432,11.24505 l -14.6872,14.68117 c -2.0823,-8.32239 -6.1908,-17.19039 -11.3935,-24.81707 2.7049,6.25751 1.5082,13.80065 -3.6054,18.91424 -6.6892,6.68914 -17.5304,6.68199 -24.2195,-0.007 -4.48,-4.48001 -6.9074,-11.20482 -4.4285,-16.52732 5.7138,-12.27194 -2.3468,-35.40573 -14.7123,-50.64157 z" id="rect4935"/>
        </g>
      </g>
    </g>
    <text xml:space="preserve" style="font-size:20px;font-style:normal;font-weight:normal;fill:#000000;fill-opacity:1;stroke:none;font-family:Plantagenet Cherokee;-inkscape-font-specification:Plantagenet Cherokee" x="552.85712" y="748.57141" id="text4266" transform="translate(0,62.362183)">
      <tspan sodipodi:role="line" id="tspan4268" x="552.85712" y="748.57141"/>
    </text>
  </g>
  <metadata>
    <rdf:RDF>
      <cc:Work>
        <dc:format>image/svg+xml</dc:format>
        <dc:type rdf:resource="http://purl.org/dc/dcmitype/StillImage"/>
        <cc:license rdf:resource="http://creativecommons.org/licenses/publicdomain/"/>
        <dc:publisher>
          <cc:Agent rdf:about="http://openclipart.org/">
            <dc:title>Open Clip Art Library</dc:title>
          </cc:Agent>
        </dc:publisher>
        <dc:title>Playing Cards</dc:title>
        <dc:date>2012-06-13T12:17:08</dc:date>
        <dc:description>black and white Cards Icon</dc:description>
        <dc:source>http://openclipart.org/detail/170641/playing-cards-by-last-dino-170641</dc:source>
        <dc:creator>
          <cc:Agent>
            <dc:title>Last-Dino</dc:title>
          </cc:Agent>
        </dc:creator>
        <dc:subject>
          <rdf:Bag>
            <rdf:li>ace</rdf:li>
            <rdf:li>b/w</rdf:li>
            <rdf:li>black</rdf:li>
            <rdf:li>bw</rdf:li>
            <rdf:li>card</rdf:li>
            <rdf:li>cards</rdf:li>
            <rdf:li>casino</rdf:li>
            <rdf:li>cheat</rdf:li>
            <rdf:li>clip art</rdf:li>
            <rdf:li>clipart</rdf:li>
            <rdf:li>gamble</rdf:li>
            <rdf:li>gambling</rdf:li>
            <rdf:li>game</rdf:li>
            <rdf:li>games</rdf:li>
            <rdf:li>icon</rdf:li>
            <rdf:li>mono</rdf:li>
            <rdf:li>monochrome</rdf:li>
            <rdf:li>play</rdf:li>
            <rdf:li>poker</rdf:li>
            <rdf:li>solitaire</rdf:li>
            <rdf:li>spade</rdf:li>
            <rdf:li>white</rdf:li>
          </rdf:Bag>
        </dc:subject>
      </cc:Work>
      <cc:License rdf:about="http://creativecommons.org/licenses/publicdomain/">
        <cc:permits rdf:resource="http://creativecommons.org/ns#Reproduction"/>
        <cc:permits rdf:resource="http://creativecommons.org/ns#Distribution"/>
        <cc:permits rdf:resource="http://creativecommons.org/ns#DerivativeWorks"/>
      </cc:License>
    </rdf:RDF>
  </metadata>
</svg>
