<?xml version="1.0" encoding="UTF-8" standalone="no"?>
<!-- Created with Inkscape (http://www.inkscape.org/) -->
<svg xmlns:dc="http://purl.org/dc/elements/1.1/" xmlns:cc="http://creativecommons.org/ns#" xmlns:rdf="http://www.w3.org/1999/02/22-rdf-syntax-ns#" xmlns:svg="http://www.w3.org/2000/svg" xmlns="http://www.w3.org/2000/svg" xmlns:sodipodi="http://sodipodi.sourceforge.net/DTD/sodipodi-0.dtd" xmlns:inkscape="http://www.inkscape.org/namespaces/inkscape" width="650.74091" height="809.68958" id="svg2" sodipodi:version="0.32" inkscape:version="0.46" sodipodi:docname="cartoon1.svg" inkscape:output_extension="org.inkscape.output.svg.inkscape" version="1.0">
  <defs id="defs4">
    <filter inkscape:collect="always" id="filter4342" x="-0.29242972" width="1.5848594" y="-0.12303159" height="1.2460632">
      <feGaussianBlur inkscape:collect="always" stdDeviation="1.4618913" id="feGaussianBlur4344"/>
    </filter>
    <filter inkscape:collect="always" id="filter4318">
      <feGaussianBlur inkscape:collect="always" stdDeviation="1.2039195" id="feGaussianBlur4320"/>
    </filter>
    <filter inkscape:collect="always" id="filter3640">
      <feGaussianBlur inkscape:collect="always" stdDeviation="2.1452517" id="feGaussianBlur3642"/>
    </filter>
    <inkscape:perspective sodipodi:type="inkscape:persp3d" inkscape:vp_x="0 : 526.18109 : 1" inkscape:vp_y="0 : 1000 : 0" inkscape:vp_z="744.09448 : 526.18109 : 1" inkscape:persp3d-origin="372.04724 : 350.78739 : 1" id="perspective10"/>
    <filter inkscape:collect="always" id="filter4166">
      <feGaussianBlur inkscape:collect="always" stdDeviation="4.5818355" id="feGaussianBlur4168"/>
    </filter>
    <clipPath clipPathUnits="userSpaceOnUse" id="clipPath4183">
      <path sodipodi:nodetypes="cccc" id="path4185" d="M 200,512.36219 C 31.040258,597.25105 262.61065,732.25746 251.42857,735.21933 C 167.37474,676.61243 -21.261494,718.04088 51.428571,509.50504 L 200,512.36219 z" style="opacity:0.78947365;fill:#e3dbdb;fill-rule:evenodd;stroke:#000000;stroke-width:1px;stroke-linecap:butt;stroke-linejoin:miter;stroke-opacity:1;filter:url(#filter4166)"/>
    </clipPath>
    <clipPath clipPathUnits="userSpaceOnUse" id="clipPath4281">
      <path id="path4283" d="M 268.57143,283.79075 C 268.57143,283.79075 222.85714,243.79075 168.57143,375.21933 C 114.28571,506.6479 57.142857,526.6479 57.142857,526.6479 L 25.714286,383.79075 C 25.714286,383.79075 80,172.36218 108.57143,180.93361 C 137.14286,189.50504 277.14286,283.79075 268.57143,283.79075 z" style="fill:none;fill-rule:evenodd;stroke:#000000;stroke-width:1px;stroke-linecap:butt;stroke-linejoin:miter;stroke-opacity:1"/>
    </clipPath>
    <clipPath clipPathUnits="userSpaceOnUse" id="clipPath4291">
      <path id="path4293" d="M 151.42857,449.50504 L 154.28571,518.07647 L 11.428571,572.36218 L 17.142857,455.21933 L 151.42857,449.50504 z" style="fill:none;fill-rule:evenodd;stroke:#000000;stroke-width:1px;stroke-linecap:butt;stroke-linejoin:miter;stroke-opacity:1"/>
    </clipPath>
    <clipPath clipPathUnits="userSpaceOnUse" id="clipPath4355">
      <path style="fill:none;fill-rule:evenodd;stroke:#000000;stroke-width:1px;stroke-linecap:butt;stroke-linejoin:miter;stroke-opacity:1" d="M 336.28571,540.93362 C 336.28571,540.93362 313.42857,558.07647 319.14285,615.21933 C 324.85714,672.36219 284.85714,660.93362 284.85714,660.93362 L 253.42857,563.79076 L 336.28571,540.93362 z" id="path4357"/>
    </clipPath>
    <clipPath clipPathUnits="userSpaceOnUse" id="clipPath4365">
      <path id="path4367" d="M 234.28571,629.50504 C 234.28571,629.50504 297.14286,612.36218 371.42857,615.21933 C 445.71429,618.07647 517.14286,709.50504 517.14286,709.50504 L 388.57143,763.79075 L 234.28571,629.50504 z" style="fill:none;fill-rule:evenodd;stroke:#000000;stroke-width:1px;stroke-linecap:butt;stroke-linejoin:miter;stroke-opacity:1"/>
    </clipPath>
    <clipPath clipPathUnits="userSpaceOnUse" id="clipPath5226">
      <path id="path5228" d="M 180,460.93361 C 151.42857,518.07647 142.85714,529.50504 140,549.50504 C 137.14286,569.50504 122.85714,595.21933 122.85714,595.21933 L 74.285714,612.36218 L 34.285714,498.07647 L 180,460.93361 z" style="fill:none;fill-rule:evenodd;stroke:#000000;stroke-width:1px;stroke-linecap:butt;stroke-linejoin:miter;stroke-opacity:1"/>
    </clipPath>
    <clipPath clipPathUnits="userSpaceOnUse" id="clipPath6425">
      <path id="path6427" d="M 243.44676,415.96608 C 243.44676,415.96608 146.47212,441.21989 148.49242,460.41279 C 150.51273,479.60569 205.06097,483.6463 205.06097,483.6463 L 243.44676,415.96608 z" style="fill:#ff0000;fill-rule:evenodd;stroke:#000000;stroke-width:1px;stroke-linecap:butt;stroke-linejoin:miter;stroke-opacity:1"/>
    </clipPath>
    <clipPath clipPathUnits="userSpaceOnUse" id="clipPath6948">
      <path sodipodi:nodetypes="cccc" id="path6950" d="M 700,263.79075 L 628.57143,283.79075 L 667.14286,310.93361 L 700,263.79075 z" style="fill:none;fill-rule:evenodd;stroke:#000000;stroke-width:1px;stroke-linecap:butt;stroke-linejoin:miter;stroke-opacity:1"/>
    </clipPath>
    <clipPath clipPathUnits="userSpaceOnUse" id="clipPath3941">
      <path style="fill:none;fill-rule:evenodd;stroke:#000000;stroke-width:1px;stroke-linecap:butt;stroke-linejoin:miter;stroke-opacity:1" d="M 888.93425,472.53461 C 819.44549,522.74307 857.77189,718.37774 901.05609,694.76817 L 699.02557,599.81384 L 888.93425,472.53461 z" id="path3943" sodipodi:nodetypes="cccc"/>
    </clipPath>
    <clipPath clipPathUnits="userSpaceOnUse" id="clipPath3950">
      <path style="fill:none;fill-rule:evenodd;stroke:#000000;stroke-width:1px;stroke-linecap:butt;stroke-linejoin:miter;stroke-opacity:1" d="M 333.35034,310.9102 C 257.37163,407.976 263.50685,487.19095 311.12699,557.38743 L 155.56349,387.6818 L 333.35034,310.9102 z" id="path3952" sodipodi:nodetypes="cccc"/>
    </clipPath>
    <clipPath clipPathUnits="userSpaceOnUse" id="clipPath3962">
      <path style="fill:none;fill-rule:evenodd;stroke:#f4a778;stroke-width:1px;stroke-linecap:butt;stroke-linejoin:miter;stroke-opacity:1" d="M 305.06607,450.31126 C 262.93382,510.25038 271.78935,560.71756 315.1676,609.91536 C 315.1676,609.91536 171.72594,559.40773 183.84777,553.34682 C 195.9696,547.2859 305.06607,450.31126 305.06607,450.31126 z" id="path3964" sodipodi:nodetypes="ccsc"/>
    </clipPath>
    <clipPath clipPathUnits="userSpaceOnUse" id="clipPath3970">
      <path style="fill:none;fill-rule:evenodd;stroke:#f4a778;stroke-width:1.37640846px;stroke-linecap:butt;stroke-linejoin:miter;stroke-opacity:1" d="M 325.52717,552.58096 C 299.47754,604.04701 306.01595,624.65092 322.1717,663.66259 L 216.02075,578.13517 L 325.52717,552.58096 z" id="path3973" sodipodi:nodetypes="cccc"/>
    </clipPath>
    <clipPath clipPathUnits="userSpaceOnUse" id="clipPath3981">
      <path style="fill:none;fill-rule:evenodd;stroke:#f4a778;stroke-width:1px;stroke-linecap:butt;stroke-linejoin:miter;stroke-opacity:1" d="M 206.07112,13.925352 C 76.600851,86.949014 110.30112,162.99842 167.68532,294.74777 L -18.182746,64.43298 L 206.07112,13.925352 z" id="path3983" sodipodi:nodetypes="cccc"/>
    </clipPath>
    <clipPath clipPathUnits="userSpaceOnUse" id="clipPath3989">
      <path style="fill:none;fill-rule:evenodd;stroke:#f4a778;stroke-width:1px;stroke-linecap:butt;stroke-linejoin:miter;stroke-opacity:1" d="M 129.29953,296.76807 C 97.909435,255.0955 83.338491,221.2227 127.27923,147.26549 L 22.223356,183.63098 L 44.446713,294.74776 L 129.29953,296.76807 z" id="path3991" sodipodi:nodetypes="ccccc"/>
    </clipPath>
    <clipPath clipPathUnits="userSpaceOnUse" id="clipPath3997">
      <path style="fill:none;fill-rule:evenodd;stroke:#f4a778;stroke-width:1.41775334px;stroke-linecap:butt;stroke-linejoin:miter;stroke-opacity:1" d="M 330.93749,539.40967 C 299.27922,617.91707 317.39005,633.05521 330.93749,674.94997 L 208.91006,632.59362 L 330.93749,539.40967 z" id="path3999" sodipodi:nodetypes="cccc"/>
    </clipPath>
    <clipPath clipPathUnits="userSpaceOnUse" id="clipPath4005">
      <path style="fill:none;fill-rule:evenodd;stroke:#f4a778;stroke-width:1px;stroke-linecap:butt;stroke-linejoin:miter;stroke-opacity:1" d="M 533.36055,1.8035217 C 435.84536,112.24687 500.33436,182.28411 531.34025,292.72746 L 331.33004,106.85939 L 533.36055,1.8035217 z" id="path4007" sodipodi:nodetypes="cccc"/>
    </clipPath>
    <clipPath clipPathUnits="userSpaceOnUse" id="clipPath4013">
      <path style="fill:none;fill-rule:evenodd;stroke:#f4a778;stroke-width:1px;stroke-linecap:butt;stroke-linejoin:miter;stroke-opacity:1" d="M 529.31994,149.28579 C 477.2515,209.22151 481.05539,259.0557 547.50269,318.99142 L 389.91889,256.36197 L 529.31994,149.28579 z" id="path4015" sodipodi:nodetypes="cccc"/>
    </clipPath>
  </defs>
  <sodipodi:namedview id="base" pagecolor="#ffffff" bordercolor="#666666" borderopacity="1.0" gridtolerance="10000" guidetolerance="10" objecttolerance="10" inkscape:pageopacity="0.0" inkscape:pageshadow="2" inkscape:zoom="0.49497474" inkscape:cx="375" inkscape:cy="538.13057" inkscape:document-units="px" inkscape:current-layer="layer1" showgrid="false" inkscape:window-width="1280" inkscape:window-height="740" inkscape:window-x="-4" inkscape:window-y="-4"/>
  <g inkscape:label="Layer 1" inkscape:groupmode="layer" id="layer1" transform="translate(-60.599815,-24.806443)">
    <g id="g4184">
      <g transform="matrix(2.1836603,0,0,1.7568068,-257.58343,-1113.3976)" id="g5169">
        <path style="fill:#ffb380;fill-opacity:1;fill-rule:nonzero;stroke:#000000;stroke-width:0.96141565;stroke-linecap:round;stroke-linejoin:round;stroke-miterlimit:4;stroke-opacity:1;display:inline" d="M 253.79752,1075.1057 C 256.34918,1056.3656 252.7687,1037.6254 256.87379,1018.8852 L 248.3062,999.93658 L 243.57361,1034.2587 L 228.45007,1029.3931 C 228.82333,1011.5401 232.12049,987.82011 243.03725,980.83107 L 259.84296,983.57584 L 285.64413,939.3281 L 307.54692,977.68003 L 322.11334,985.24113 C 325.66973,987.45365 317.45313,994.38931 326.53172,1002.355 C 329.73225,1005.1632 336.17564,1001.2752 349.53113,996.35492 L 353.58291,1010.9796 C 346.52262,1015.1637 330.03738,1025.1507 323.07755,1024.8336 C 320.0499,1024.6956 316.78931,1021.727 315.40866,1020.6815 C 282.0873,995.45012 303.47529,1014.5024 306.50743,1031.5304 C 301.95176,1024.2193 310.90141,1002.3209 312.28493,997.68894 C 314.54427,990.12474 323.66134,986.23094 320.98125,990.52934 L 306.26394,1070.0608 L 286.18435,1030.3888 L 253.79752,1075.1057 z" id="path3228" sodipodi:nodetypes="ccccccccccsccsscscccc"/>
        <g style="display:inline" id="g5029" transform="translate(163.31731,411.71255)">
          <path style="fill:#502d16;fill-opacity:1;fill-rule:nonzero;stroke:#000000;stroke-width:0.73571539;stroke-miterlimit:4;stroke-opacity:1" d="M 180.83132,687.559 C 183.6896,699.22691 160.50103,695.93346 146.60005,692.56253 C 128.86719,699.10913 128.82101,696.89352 128.82316,689.55853 C 128.82557,681.36657 133.98982,673.91583 152.23284,673.91583 C 170.47587,673.91583 178.60755,677.77454 180.83132,687.559 z" id="path5290" sodipodi:nodetypes="ccssc"/>
          <path sodipodi:nodetypes="ccccccc" id="rect5292" d="M 128.81603,691.81381 C 146.49193,692.04443 168.15696,691.39673 181.77769,692.52019 L 180.15151,695.56578 L 159.0356,695.67534 C 152.78573,692.65253 142.79012,694.7135 140.70191,696.27218 L 128.81603,696.28078 L 128.81603,691.81381 z" style="fill:#803300;fill-opacity:1;fill-rule:nonzero;stroke:#000000;stroke-width:0.45498395;stroke-linecap:round;stroke-linejoin:round;stroke-miterlimit:4;stroke-opacity:1"/>
          <path style="fill:#d45500;fill-opacity:1;fill-rule:nonzero;stroke:#000000;stroke-width:0.76838475;stroke-linecap:round;stroke-linejoin:round;stroke-miterlimit:4;stroke-opacity:1" d="M 172.94228,674.53393 C 172.94228,676.25964 168.26663,677.66021 162.50557,677.66021 C 156.74451,677.66021 152.06888,676.25964 152.06888,674.53393 C 153.58041,674.113 169.7275,674.58144 172.94228,674.53393 z" id="path5294" sodipodi:nodetypes="cscc"/>
          <path sodipodi:type="arc" style="opacity:0.94736843;fill:#ffffff;fill-opacity:1;fill-rule:nonzero;stroke:#ffffff;stroke-width:1;stroke-linecap:round;stroke-linejoin:round;stroke-miterlimit:4;stroke-dasharray:none;stroke-opacity:1" id="path5298" sodipodi:cx="286.48303" sodipodi:cy="459.68396" sodipodi:rx="2.6282847" sodipodi:ry="3.9424272" d="M 289.11132,459.68396 A 2.6282847,3.9424272 0 1 1 283.85475,459.68396 A 2.6282847,3.9424272 0 1 1 289.11132,459.68396 z" transform="matrix(1.1727373,0.6002948,-0.7272951,0.9679538,167.33669,64.140109)"/>
          <path sodipodi:nodetypes="cccsccccc" id="rect4984" d="M 91.835258,605.61296 L 153.02935,614.62258 L 165.0878,675.53761 C 162.60989,676.89128 152.99549,679.52725 148.84751,683.00936 C 143.14561,687.79595 133.08753,687.29249 127.40974,681.87571 L 125.71843,641.53119 L 109.87709,686.79544 C 69.611421,694.648 79.148648,666.18815 82.672048,655.52085 L 91.835258,605.61296 z" style="fill:#000080;fill-opacity:1;fill-rule:nonzero;stroke:#000000;stroke-width:0.91585451;stroke-linecap:round;stroke-linejoin:round;stroke-miterlimit:4;stroke-opacity:1"/>
          <path style="fill:none;fill-rule:evenodd;stroke:#000000;stroke-width:1.53676951;stroke-linecap:butt;stroke-linejoin:miter;stroke-miterlimit:4;stroke-dasharray:none;stroke-opacity:1" d="M 154.17816,676.02797 C 154.93901,666.96293 179.65528,683.93931 179.56017,676.02797 C 178.78689,667.1431 154.46331,683.63231 154.17816,676.02797 z" id="path5296" sodipodi:nodetypes="ccc"/>
          <g transform="matrix(1.1065185,0,0,0.9075562,23.622435,25.409734)" id="g5300">
            <g id="g5278" transform="translate(-117.70361,-166.02404)">
              <g transform="matrix(0.7630315,0,0,0.4923029,-228.40604,707.244)" id="g2830">
                <path style="fill:#502d16;fill-opacity:1;fill-rule:nonzero;stroke:#000000;stroke-width:1;stroke-miterlimit:4;stroke-opacity:1" d="M 555.20489,385.02974 C 555.20489,399.61831 557.49715,402.1726 538.57143,402.1726 C 519.64572,402.1726 511.42858,401.76117 511.42858,387.1726 C 511.42858,372.58402 516.78858,359.31545 535.71429,359.31545 C 554.64001,359.31545 555.20489,370.44116 555.20489,385.02974 z" id="path2832" sodipodi:nodetypes="csssc"/>
                <rect style="opacity:1;fill:#803300;fill-opacity:1;fill-rule:nonzero;stroke:#000000;stroke-width:1;stroke-linecap:round;stroke-linejoin:round;stroke-miterlimit:4;stroke-dasharray:none;stroke-opacity:1" id="rect2834" width="42.905815" height="8.0534048" x="512.32043" y="395.08047"/>
                <path style="fill:#d45500;fill-opacity:1;fill-rule:nonzero;stroke:#000000;stroke-width:1;stroke-linecap:round;stroke-linejoin:round;stroke-miterlimit:4;stroke-opacity:1" d="M 546.39254,360.38889 C 546.39254,363.46653 541.95201,365.96432 536.48065,365.96432 C 531.00929,365.96432 526.56877,363.46653 526.56877,360.38889 C 528.00429,359.63822 543.33942,360.47362 546.39254,360.38889 z" id="path2836" sodipodi:nodetypes="cscc"/>
                <path style="fill:none;fill-rule:evenodd;stroke:#000000;stroke-width:2;stroke-linecap:butt;stroke-linejoin:miter;stroke-miterlimit:4;stroke-dasharray:none;stroke-opacity:1" d="M 523.18901,359.49421 C 523.9116,343.32759 547.38501,373.60331 547.29468,359.4942 C 546.56028,343.64889 523.45982,373.05579 523.18901,359.49421 z" id="path2838" sodipodi:nodetypes="ccc"/>
              </g>
              <path transform="matrix(0.8498384,0.5270433,-0.5270433,0.8498384,171.22846,348.24129)" d="M 289.11132,459.68396 A 2.6282847,3.9424272 0 1 1 283.85475,459.68396 A 2.6282847,3.9424272 0 1 1 289.11132,459.68396 z" sodipodi:ry="3.9424272" sodipodi:rx="2.6282847" sodipodi:cy="459.68396" sodipodi:cx="286.48303" id="path2840" style="opacity:0.94736843;fill:#ffffff;fill-opacity:1;fill-rule:nonzero;stroke:#ffffff;stroke-width:1;stroke-linecap:round;stroke-linejoin:round;stroke-miterlimit:4;stroke-dasharray:none;stroke-opacity:1" sodipodi:type="arc"/>
            </g>
          </g>
          <path sodipodi:nodetypes="cccccccccccc" id="rect3562" d="M 102.31223,563.43005 L 126.93199,572.98786 L 149.12264,562.07272 C 163.68082,570.42079 155.59841,564.51764 169.69386,590.60975 C 164.45395,592.52212 160.96045,600.16895 155.72053,599.28172 L 153.14281,586.43969 L 159.68681,625.77646 C 145.17871,640.00014 91.625727,639.9586 83.668903,622.4591 C 80.411191,612.92503 92.35912,592.67224 94.059322,587.13993 L 84.305558,607.62622 C 71.587857,608.56523 67.831209,601.32825 61.105283,598.57735 C 76.312736,569.71401 79.716457,559.123 102.31223,563.43005 z" style="fill:#c51b10;fill-opacity:1;fill-rule:nonzero;stroke:#000000;stroke-width:0.91585451;stroke-linecap:round;stroke-linejoin:round;stroke-miterlimit:4;stroke-opacity:1"/>
          <path transform="matrix(0.7445812,0.3659994,-0.5475378,0.4977122,212.42563,243.1471)" style="opacity:0.33157893;fill:#474ad8;fill-opacity:1;fill-rule:nonzero;stroke:none;stroke-width:1;stroke-miterlimit:4;stroke-opacity:1;filter:url(#filter3640)" d="M 306.86476,635.42122 C 298.57585,644.3084 278.58071,613.20392 266.1508,595.24748 C 251.72286,574.40467 287.36813,583.5165 281.58824,592.19534 C 272.79468,585.71223 314.72316,633.78573 306.86476,635.42122 z" id="path4273" sodipodi:nodetypes="cscc"/>
          <path transform="matrix(0.9192722,9.3864454e-2,-9.5588815e-2,0.9026892,43.11092,8.766702)" sodipodi:nodetypes="ccccc" id="rect4275" d="M 114.76845,604.67764 L 128.78597,604.67764 C 94.900505,619.56181 100.52,649.31471 108.21494,647.97102 C 100.13126,647.90088 96.744845,644.34675 91.989975,642.34973 C 90.878875,625.38893 97.353895,607.78418 114.76845,604.67764 z" style="opacity:0.51052629;fill:#e2807a;fill-opacity:1;fill-rule:nonzero;stroke:#c03434;stroke-width:1;stroke-linecap:round;stroke-linejoin:round;stroke-miterlimit:4;stroke-opacity:1;filter:url(#filter4318)"/>
          <path sodipodi:nodetypes="ccccc" id="rect4324" d="M 216.22996,616.62618 L 220.16811,615.09741 C 229.66101,622.27106 220.84112,631.14059 225.41884,642.13299 L 209.15663,642.86135 L 216.22996,616.62618 z" style="opacity:0.42105264;fill:#e9afaf;fill-opacity:1;fill-rule:nonzero;stroke:#c0343d;stroke-width:0.67064518;stroke-linecap:round;stroke-linejoin:round;stroke-miterlimit:4;stroke-opacity:1;filter:url(#filter4342)" transform="matrix(1.5146888,0.2284355,-0.2306867,1.4999088,-89.002758,-389.75262)"/>
          <g id="g4125" transform="matrix(-1.0585762,0.2852971,0.2918285,1.0205914,119.55236,-146.15398)">
            <path style="fill:#ffb380;fill-opacity:1;fill-rule:nonzero;stroke:#000000;stroke-width:0.96926945;stroke-linecap:round;stroke-linejoin:round;stroke-miterlimit:4;stroke-dasharray:none;stroke-opacity:1" d="M 236.84752,681.47684 C 239.20648,682.78779 242.36814,684.0333 243.82951,687.63189 C 245.7312,691.39936 247.19528,696.22814 245.45494,699.10769 C 244.60515,700.51376 244.00266,702.05425 243.19816,704.41811 C 242.82668,705.50963 240.73538,706.35615 238.73051,706.31735 C 238.0961,706.30507 237.35126,706.71354 236.64768,706.786 C 235.53864,706.90021 234.92829,706.28585 234.13698,706.26779 C 227.20479,706.10954 231.26964,701.94419 231.80167,699.67011 C 232.83827,695.23934 230.64004,691.16142 228.82983,696.85399 C 228.41091,698.17136 229.65196,697.92782 230.45564,700.04608 C 230.62056,700.48075 230.00703,704.07991 228.33785,702.84003 C 222.60951,698.58495 223.78326,693.46797 224.28532,686.15948" id="path4127" sodipodi:nodetypes="ccsssssssssc"/>
            <path id="path4129" d="M 240.15953,694.3679 L 240.15953,700.39105 L 238.51685,706.19518" style="fill:none;fill-rule:evenodd;stroke:#000000;stroke-width:1px;stroke-linecap:butt;stroke-linejoin:miter;stroke-opacity:1"/>
            <path id="path4131" d="M 243.33537,692.94423 L 244.10196,699.51494 L 243.66391,702.8003" style="fill:none;fill-rule:evenodd;stroke:#000000;stroke-width:1px;stroke-linecap:butt;stroke-linejoin:miter;stroke-opacity:1"/>
            <path sodipodi:nodetypes="cccc" id="path4133" d="M 236.32661,696.12008 L 235.66954,701.37665 L 234.13637,706.08566 L 234.13637,706.08566" style="fill:none;fill-rule:evenodd;stroke:#000000;stroke-width:1px;stroke-linecap:butt;stroke-linejoin:miter;stroke-opacity:1"/>
          </g>
          <path sodipodi:nodetypes="cc" id="path4135" d="M 166.46175,591.3434 C 163.75028,593.04782 161.69411,598.66914 160.50748,602.61957" style="fill:none;fill-rule:evenodd;stroke:#000000;stroke-width:0.91585451px;stroke-linecap:butt;stroke-linejoin:miter;stroke-opacity:1"/>
          <g transform="matrix(0.9242287,0,0,0.9075562,-21.677734,20.582595)" id="g4153">
            <g transform="matrix(-7.3609682e-2,-1.0079285,1.1977538,1.8368112e-2,-558.56157,716.85638)" id="g4072">
              <path style="fill:#ffb380;fill-opacity:1;fill-rule:nonzero;stroke:#000000;stroke-width:1;stroke-linecap:round;stroke-linejoin:round;stroke-miterlimit:4;stroke-dasharray:none;stroke-opacity:1" d="M 104.32277,654.45343 C 107.37385,655.61178 111.42657,661.39593 112.63695,664.25641 C 113.55267,666.42051 110.48661,674.4131 109.57087,674.36412 C 108.05868,674.28325 106.10986,672.96176 107.14349,670.4362 C 107.38694,664.40178 104.05572,669.87445 105.73039,673.84658 C 106.10923,674.99241 107.21592,685.93463 102.99203,679.4088 C 103.32742,682.78192 101.53389,686.48618 98.738119,681.21187 C 98.170092,685.05026 95.188609,681.02447 93.734799,679.69533 C 89.798673,682.65002 85.711402,670.71828 86.312359,664.52998 C 87.021368,661.24476 88.64431,658.69456 90.753293,656.89074" id="path4074" sodipodi:nodetypes="cssccccccs"/>
              <path style="fill:none;fill-rule:evenodd;stroke:#000000;stroke-width:0.65868837px;stroke-linecap:butt;stroke-linejoin:miter;stroke-opacity:1" d="M 94.327715,680.47487 C 93.926899,676.95763 90.304641,671.70189 92.096895,668.34959 L 92.096895,668.34959 L 92.096895,668.34959" id="path4076" sodipodi:nodetypes="cccc"/>
              <path style="fill:none;fill-rule:evenodd;stroke:#000000;stroke-width:0.65868837px;stroke-linecap:butt;stroke-linejoin:miter;stroke-opacity:1" d="M 99.296431,682.44415 C 98.037448,678.10861 96.518431,671.90465 97.621949,670.19218" id="path4078" sodipodi:nodetypes="cc"/>
              <path style="fill:none;fill-rule:evenodd;stroke:#000000;stroke-width:0.65868837px;stroke-linecap:butt;stroke-linejoin:miter;stroke-opacity:1" d="M 102.7663,679.55127 C 101.69267,671.80108 100.68392,672.01501 101.75581,669.12933" id="path4080" sodipodi:nodetypes="cc"/>
            </g>
            <path style="fill:none;fill-rule:evenodd;stroke:#000000;stroke-width:1px;stroke-linecap:butt;stroke-linejoin:miter;stroke-opacity:1" d="M 234.26233,621.58007 C 231.04999,625.77968 227.83764,626.39138 224.62529,626.58004" id="path4145" sodipodi:nodetypes="cc"/>
            <path style="fill:none;fill-rule:evenodd;stroke:#000000;stroke-width:1px;stroke-linecap:butt;stroke-linejoin:miter;stroke-opacity:1" d="M 233.04125,627.45614 L 232.01485,636.27023" id="path4147" sodipodi:nodetypes="cc"/>
          </g>
        </g>
      </g>
      <path sodipodi:nodetypes="ccccccssscc" id="path3945" d="M 513.09003,706.67697 C 526.0776,707.87596 533.34323,703.52975 544.32074,674.55474 L 525.97522,657.01169 C 541.51625,650.4553 554.3079,641.45445 556.95758,623.43646 L 538.53784,611.64374 C 558.62023,617.56053 561.38271,596.67351 573.83123,584.72078 L 543.62493,570.56224 C 524.81629,561.74609 510.06807,611.17866 503.36221,638.43472 C 491.11701,688.20545 487.20622,719.35144 498.50282,731.84932 L 526.90921,763.27652 C 527.9334,740.22549 529.10725,717.06322 513.09003,706.67697 z" style="fill:#44aa00;fill-rule:evenodd;stroke:#000000;stroke-width:0.36095539px;stroke-linecap:butt;stroke-linejoin:miter;stroke-opacity:1"/>
      <g transform="translate(-12.12182,2.0203051)" id="g4163">
        <path style="fill:#ffb380;fill-opacity:1;fill-rule:nonzero;stroke:#000000;stroke-width:0.67675132;stroke-linecap:round;stroke-linejoin:round;stroke-miterlimit:4;stroke-opacity:1" d="M 506.83433,437.55523 C 506.83433,496.24546 448.26332,543.87811 376.09546,543.87811 C 303.92761,543.87811 245.3566,496.24546 245.3566,437.55523 C 245.3566,378.86499 303.92761,331.23234 376.09546,331.23234 C 448.26332,331.23234 506.83433,378.86499 506.83433,437.55523 z" id="path5729"/>
        <path id="path3946" d="M 506.83433,437.55523 C 506.83433,496.24546 448.26332,543.87811 376.09546,543.87811 C 303.92761,543.87811 245.3566,496.24546 245.3566,437.55523 C 245.3566,378.86499 303.92761,331.23234 376.09546,331.23234 C 448.26332,331.23234 506.83433,378.86499 506.83433,437.55523 z" style="fill:#ffccaa;fill-opacity:1;fill-rule:nonzero;stroke:none;stroke-width:0.67675132;stroke-linecap:round;stroke-linejoin:round;stroke-miterlimit:4;stroke-opacity:1" clip-path="url(#clipPath3950)"/>
        <path style="fill:#ffb380;fill-opacity:1;fill-rule:nonzero;stroke:#000000;stroke-width:0.66062385;stroke-linecap:round;stroke-linejoin:round;stroke-miterlimit:4;stroke-opacity:1" d="M 519.48972,529.54387 C 519.48972,569.05587 458.61694,601.12356 383.61295,601.12356 C 308.60898,601.12356 247.7362,569.05587 247.7362,529.54387 C 247.7362,490.03188 308.60898,457.96419 383.61295,457.96419 C 458.61694,457.96419 519.48972,490.03188 519.48972,529.54387 z" id="path5731"/>
        <g id="g5778" transform="translate(-266.77108,-88.58585)">
          <path transform="matrix(0.7377607,0,0,0.7154673,452.8021,180.00459)" d="M 282.85715,503.79074 A 40,65.714287 0 1 1 202.85715,503.79074 A 40,65.714287 0 1 1 282.85715,503.79074 z" sodipodi:ry="65.714287" sodipodi:rx="40" sodipodi:cy="503.79074" sodipodi:cx="242.85715" id="path5735" style="fill:#ffe6d5;fill-opacity:1;fill-rule:nonzero;stroke:#000000;stroke-width:1;stroke-linecap:round;stroke-linejoin:round;stroke-miterlimit:4;stroke-dasharray:none;stroke-opacity:1" sodipodi:type="arc"/>
          <path transform="matrix(0.7377607,0,0,0.7154673,450.69421,-42.81237)" d="M 280,845.2193 A 17.142857,18.571428 0 1 1 245.71429,845.2193 A 17.142857,18.571428 0 1 1 280,845.2193 z" sodipodi:ry="18.571428" sodipodi:rx="17.142857" sodipodi:cy="845.2193" sodipodi:cx="262.85715" id="path5739" style="fill:#28170b;fill-opacity:1;fill-rule:nonzero;stroke:#000000;stroke-width:1;stroke-linecap:round;stroke-linejoin:round;stroke-miterlimit:4;stroke-dasharray:none;stroke-opacity:1" sodipodi:type="arc"/>
        </g>
        <g id="g5774" transform="matrix(0.6174345,0,0,0.758723,19.85952,48.01993)">
          <path sodipodi:type="arc" style="fill:#ffe6d5;fill-opacity:1;fill-rule:nonzero;stroke:#000000;stroke-width:1;stroke-linecap:round;stroke-linejoin:round;stroke-miterlimit:4;stroke-dasharray:none;stroke-opacity:1" id="path5737" sodipodi:cx="242.85715" sodipodi:cy="503.79074" sodipodi:rx="40" sodipodi:ry="65.714287" d="M 282.85715,503.79074 A 40,65.714287 0 1 1 202.85715,503.79074 A 40,65.714287 0 1 1 282.85715,503.79074 z" transform="matrix(0.7377607,0,0,0.7154673,547.65704,182.04878)"/>
          <path sodipodi:type="arc" style="fill:#28170b;fill-opacity:1;fill-rule:nonzero;stroke:#000000;stroke-width:1;stroke-linecap:round;stroke-linejoin:round;stroke-miterlimit:4;stroke-dasharray:none;stroke-opacity:1" id="path5741" sodipodi:cx="262.85715" sodipodi:cy="845.2193" sodipodi:rx="17.142857" sodipodi:ry="18.571428" d="M 280,845.2193 A 17.142857,18.571428 0 1 1 245.71429,845.2193 A 17.142857,18.571428 0 1 1 280,845.2193 z" transform="matrix(0.7377607,0,0,0.7154673,522.36239,-40.76818)"/>
        </g>
        <path sodipodi:nodetypes="ccccccssscc" id="path5747" d="M 443.45116,378.44703 C 422.92051,430.44126 401.48144,454.10548 324.63142,465.63735 L 322.18673,375.06102 C 281.76527,428.64 241.3438,468.84424 200.92231,459.71139 L 210.01714,375.06102 C 186.33168,459.85025 140.01909,448.05654 94.346397,483.73054 L 119.53835,350.51286 C 135.22468,267.56184 259.31369,263.42375 325.21835,266.70856 C 445.56307,272.70676 514.25496,291.10716 519.12405,348.71386 L 531.36787,493.57153 C 483.82819,472.65305 435.80381,452.19858 443.45116,378.44703 z" style="fill:#501616;fill-opacity:1;fill-rule:evenodd;stroke:#000000;stroke-width:1.12137055px;stroke-linecap:butt;stroke-linejoin:miter;stroke-opacity:1" clip-path="url(#clipPath4281)" transform="matrix(0.2496942,0.1285618,-0.1503373,0.2919868,537.35874,243.04013)"/>
        <path sodipodi:type="arc" style="fill:#784421;fill-opacity:1;fill-rule:nonzero;stroke:#000000;stroke-width:1;stroke-linecap:round;stroke-linejoin:round;stroke-miterlimit:4;stroke-dasharray:none;stroke-opacity:1" id="path5743" sodipodi:cx="325.71429" sodipodi:cy="608.07648" sodipodi:rx="34.285713" sodipodi:ry="50" d="M 360.00001,608.07648 A 34.285713,50 0 1 1 291.42858,608.07648 A 34.285713,50 0 1 1 360.00001,608.07648 z" transform="matrix(0.6662684,0.3168237,-0.3072501,0.6461353,393.3186,-21.987356)"/>
        <g id="g6651" transform="matrix(0.9850523,0.1722558,-0.1722558,0.9850523,299.08662,75.662771)">
          <path sodipodi:nodetypes="cccc" id="path5745" d="M 112.77704,424.74783 C 173.08987,433.23521 210.46778,433.93701 246.44854,413.24386 C 227.32355,431.42285 209.7334,493.89202 181.39985,464.1319 L 112.77704,424.74783 z" style="fill:#421818;fill-opacity:1;fill-rule:evenodd;stroke:#000000;stroke-width:0.68954039px;stroke-linecap:butt;stroke-linejoin:miter;stroke-opacity:1"/>
          <path transform="translate(-2.2768388e-6,0)" clip-path="url(#clipPath6425)" style="fill:#ff5555;fill-opacity:1;fill-rule:evenodd;stroke:#000000;stroke-width:0.68954039px;stroke-linecap:butt;stroke-linejoin:miter;stroke-opacity:1" d="M 112.77704,424.74783 C 173.08987,433.23521 210.46778,433.93701 246.44854,413.24386 C 227.32355,431.42285 209.7334,493.89202 181.39985,464.1319 L 112.77704,424.74783 z" id="path6421" sodipodi:nodetypes="cccc"/>
          <rect transform="matrix(-0.9991702,4.0728615e-2,2.410876e-2,0.9997093,0,0)" y="437.21695" x="-187.89752" height="15.668428" width="12.058117" id="rect5757" style="fill:#ffffff;fill-opacity:1;fill-rule:nonzero;stroke:#000000;stroke-width:0.87708098;stroke-linecap:round;stroke-linejoin:round;stroke-miterlimit:4;stroke-dasharray:none;stroke-opacity:1"/>
        </g>
        <path style="fill:none;fill-rule:evenodd;stroke:#000000;stroke-width:2.63444042;stroke-linecap:butt;stroke-linejoin:miter;stroke-miterlimit:4;stroke-dasharray:none;stroke-opacity:1" d="M 457.76044,399.73642 C 488.9648,402.11404 495.88917,421.18416 500.12599,442.10197" id="path5791" sodipodi:nodetypes="cc"/>
        <path sodipodi:nodetypes="cc" id="path5793" d="M 374.47056,390.14449 C 333.22732,386.67486 321.00133,406.4683 311.98729,428.83673" style="fill:none;fill-rule:evenodd;stroke:#000000;stroke-width:3.20947289;stroke-linecap:butt;stroke-linejoin:miter;stroke-miterlimit:4;stroke-dasharray:none;stroke-opacity:1"/>
        <path id="path3956" d="M 519.48972,529.54387 C 519.48972,569.05587 458.61694,601.12356 383.61295,601.12356 C 308.60898,601.12356 247.7362,569.05587 247.7362,529.54387 C 247.7362,490.03188 308.60898,457.96419 383.61295,457.96419 C 458.61694,457.96419 519.48972,490.03188 519.48972,529.54387 z" style="fill:#ffccaa;fill-opacity:1;fill-rule:nonzero;stroke:#000000;stroke-width:0.66062385;stroke-linecap:round;stroke-linejoin:round;stroke-miterlimit:4;stroke-opacity:1" clip-path="url(#clipPath3962)"/>
        <path transform="matrix(0.6662684,0.3168237,-0.3072501,0.6461353,393.3186,-21.987356)" d="M 360.00001,608.07648 A 34.285713,50 0 1 1 291.42858,608.07648 A 34.285713,50 0 1 1 360.00001,608.07648 z" sodipodi:ry="50" sodipodi:rx="34.285713" sodipodi:cy="608.07648" sodipodi:cx="325.71429" id="path3966" style="fill:#ff9955;fill-opacity:1;fill-rule:nonzero;stroke:#000000;stroke-width:1;stroke-linecap:round;stroke-linejoin:round;stroke-miterlimit:4;stroke-dasharray:none;stroke-opacity:1" sodipodi:type="arc" clip-path="url(#clipPath3970)"/>
      </g>
    </g>
    <g id="g4032">
      <path id="path3912" d="M 358.96333,136.2579 C 358.96333,194.93439 295.3241,242.55589 216.91148,242.55589 C 138.49887,242.55589 74.859649,194.93439 74.859649,136.2579 C 74.859649,77.5814 138.49887,29.9599 216.91148,29.9599 C 295.3241,29.9599 358.96333,77.5814 358.96333,136.2579 z" style="fill:#ffb380;fill-opacity:1;fill-rule:nonzero;stroke:#000000;stroke-width:0.70534134;stroke-linecap:round;stroke-linejoin:round;stroke-miterlimit:4;stroke-opacity:1"/>
      <path clip-path="url(#clipPath3981)" style="fill:#ffccaa;fill-opacity:1;fill-rule:nonzero;stroke:#000000;stroke-width:0.70534134;stroke-linecap:round;stroke-linejoin:round;stroke-miterlimit:4;stroke-opacity:1" d="M 358.96333,136.2579 C 358.96333,194.93439 295.3241,242.55589 216.91148,242.55589 C 138.49887,242.55589 74.859649,194.93439 74.859649,136.2579 C 74.859649,77.5814 138.49887,29.9599 216.91148,29.9599 C 295.3241,29.9599 358.96333,77.5814 358.96333,136.2579 z" id="path3977"/>
      <path id="path3914" d="M 370.88376,228.24654 C 370.88376,267.74035 301.45916,299.79328 215.91812,299.79328 C 130.37709,299.79328 60.952486,267.74035 60.952486,228.24654 C 60.952486,188.75274 130.37709,156.69981 215.91812,156.69981 C 301.45916,156.69981 370.88376,188.75274 370.88376,228.24654 z" style="fill:#ffb380;fill-opacity:1;fill-rule:nonzero;stroke:#000000;stroke-width:0.70534134;stroke-linecap:round;stroke-linejoin:round;stroke-miterlimit:4;stroke-opacity:1"/>
      <path transform="matrix(0.6953586,0,0,0.7154673,-2.6231657,-209.87859)" d="M 282.85715,503.79074 A 40,65.714287 0 1 1 202.85715,503.79074 A 40,65.714287 0 1 1 282.85715,503.79074 z" sodipodi:ry="65.714287" sodipodi:rx="40" sodipodi:cy="503.79074" sodipodi:cx="242.85715" id="path3918" style="fill:#ffe6d5;fill-opacity:1;fill-rule:nonzero;stroke:#000000;stroke-width:1;stroke-linecap:round;stroke-linejoin:round;stroke-miterlimit:4;stroke-dasharray:none;stroke-opacity:1" sodipodi:type="arc"/>
      <path sodipodi:type="arc" style="fill:#ffe6d5;fill-opacity:1;fill-rule:nonzero;stroke:#000000;stroke-width:1;stroke-linecap:round;stroke-linejoin:round;stroke-miterlimit:4;stroke-dasharray:none;stroke-opacity:1" id="path3920" sodipodi:cx="242.85715" sodipodi:cy="503.79074" sodipodi:rx="40" sodipodi:ry="65.714287" d="M 282.85715,503.79074 A 40,65.714287 0 1 1 202.85715,503.79074 A 40,65.714287 0 1 1 282.85715,503.79074 z" transform="matrix(0.6953586,0,0,0.7154673,86.780086,-207.8344)"/>
      <path transform="matrix(0.6953586,0,0,0.7154673,-4.6099049,-432.69555)" d="M 280,845.2193 A 17.142857,18.571428 0 1 1 245.71429,845.2193 A 17.142857,18.571428 0 1 1 280,845.2193 z" sodipodi:ry="18.571428" sodipodi:rx="17.142857" sodipodi:cy="845.2193" sodipodi:cx="262.85715" id="path3922" style="fill:#28170b;fill-opacity:1;fill-rule:nonzero;stroke:#000000;stroke-width:1;stroke-linecap:round;stroke-linejoin:round;stroke-miterlimit:4;stroke-dasharray:none;stroke-opacity:1" sodipodi:type="arc"/>
      <path sodipodi:type="arc" style="fill:#28170b;fill-opacity:1;fill-rule:nonzero;stroke:#000000;stroke-width:1;stroke-linecap:round;stroke-linejoin:round;stroke-miterlimit:4;stroke-dasharray:none;stroke-opacity:1" id="path3924" sodipodi:cx="262.85715" sodipodi:cy="845.2193" sodipodi:rx="17.142857" sodipodi:ry="18.571428" d="M 280,845.2193 A 17.142857,18.571428 0 1 1 245.71429,845.2193 A 17.142857,18.571428 0 1 1 280,845.2193 z" transform="matrix(0.6953586,0,0,0.7154673,62.93922,-430.65136)"/>
      <path transform="matrix(0.6953586,0,0,0.7154673,-13.947578,-252.80663)" d="M 360.00001,608.07648 A 34.285713,50 0 1 1 291.42858,608.07648 A 34.285713,50 0 1 1 360.00001,608.07648 z" sodipodi:ry="50" sodipodi:rx="34.285713" sodipodi:cy="608.07648" sodipodi:cx="325.71429" id="path3926" style="fill:#784421;fill-opacity:1;fill-rule:nonzero;stroke:#000000;stroke-width:1;stroke-linecap:round;stroke-linejoin:round;stroke-miterlimit:4;stroke-dasharray:none;stroke-opacity:1" sodipodi:type="arc"/>
      <path sodipodi:nodetypes="cccc" id="path3972" d="M 156.36553,256.86129 C 234.35238,243.02272 281.47422,229.8454 321.16571,195.59047 C 301.97312,221.04569 296.45775,290.63841 252.98397,271.12354 L 156.36553,256.86129 z" style="fill:#421818;fill-opacity:1;fill-rule:evenodd;stroke:#000000;stroke-width:0.8059364px;stroke-linecap:butt;stroke-linejoin:miter;stroke-opacity:1"/>
      <path transform="matrix(0.2353433,0.1285618,-0.1416968,0.2919868,355.44166,-81.11434)" clip-path="url(#clipPath4281)" style="fill:#501616;fill-opacity:1;fill-rule:evenodd;stroke:#000000;stroke-width:1.12137055px;stroke-linecap:butt;stroke-linejoin:miter;stroke-opacity:1" d="M 443.45116,378.44703 C 422.92051,430.44126 401.48144,454.10548 324.63142,465.63735 L 322.18673,375.06102 C 281.76527,428.64 241.3438,468.84424 200.92231,459.71139 L 210.01714,375.06102 C 186.33168,459.85025 140.01909,448.05654 94.346397,483.73054 L 119.53835,350.51286 C 135.22468,267.56184 259.31369,263.42375 325.21835,266.70856 C 445.56307,272.70676 514.25496,291.10716 519.12405,348.71386 L 531.36787,493.57153 C 483.82819,472.65305 435.80381,452.19858 443.45116,378.44703 z" id="path4277" sodipodi:nodetypes="ccccccssscc"/>
      <path transform="matrix(0.6953586,0,0,0.7154673,-2.6231657,-191.48086)" clip-path="url(#clipPath4365)" style="fill:#ff2a2a;fill-rule:evenodd;stroke:#000000;stroke-width:1.14261901px;stroke-linecap:butt;stroke-linejoin:miter;stroke-opacity:1" d="M 228.64273,626.6424 C 340.79615,607.3004 408.56239,588.88262 465.64298,541.00492 C 438.042,576.58337 430.11031,673.85228 367.59036,646.57658 L 228.64273,626.6424 z" id="path4361" sodipodi:nodetypes="cccc"/>
      <path sodipodi:nodetypes="cc" id="path4369" d="M 162.27617,240.51168 C 165.9896,262.04883 151.93424,265.30334 140.42204,271.17457" style="fill:none;fill-rule:evenodd;stroke:#000000;stroke-width:1.41068268;stroke-linecap:butt;stroke-linejoin:miter;stroke-miterlimit:4;stroke-dasharray:none;stroke-opacity:1"/>
      <rect transform="matrix(0.9677505,-0.2519107,0.2252984,0.9742898,0,0)" y="290.21335" x="171.38818" height="15.621832" width="14.823476" id="rect5563" style="fill:#ffffff;fill-opacity:1;fill-rule:nonzero;stroke:#000000;stroke-width:0.9710201;stroke-linecap:round;stroke-linejoin:round;stroke-miterlimit:4;stroke-dasharray:none;stroke-opacity:1"/>
      <path sodipodi:nodetypes="cc" id="path5705" d="M 177.43547,79.05231 C 132.96683,82.32653 123.09906,108.58792 117.06127,137.39376" style="fill:none;fill-rule:evenodd;stroke:#000000;stroke-width:3.69053912;stroke-linecap:butt;stroke-linejoin:miter;stroke-miterlimit:4;stroke-dasharray:none;stroke-opacity:1"/>
      <path style="fill:none;fill-rule:evenodd;stroke:#000000;stroke-width:3.69053912;stroke-linecap:butt;stroke-linejoin:miter;stroke-miterlimit:4;stroke-dasharray:none;stroke-opacity:1" d="M 246.32198,79.05231 C 290.79062,82.32653 300.65838,108.58792 306.69618,137.39376" id="path5707" sodipodi:nodetypes="cc"/>
      <path clip-path="url(#clipPath3989)" style="fill:#ffccaa;fill-opacity:1;fill-rule:nonzero;stroke:#000000;stroke-width:0.70534134;stroke-linecap:round;stroke-linejoin:round;stroke-miterlimit:4;stroke-opacity:1" d="M 370.88376,228.24654 C 370.88376,267.74035 301.45916,299.79328 215.91812,299.79328 C 130.37709,299.79328 60.952486,267.74035 60.952486,228.24654 C 60.952486,188.75274 130.37709,156.69981 215.91812,156.69981 C 301.45916,156.69981 370.88376,188.75274 370.88376,228.24654 z" id="path3985"/>
      <path clip-path="url(#clipPath3997)" sodipodi:type="arc" style="fill:#ff9955;fill-opacity:1;fill-rule:nonzero;stroke:#000000;stroke-width:1;stroke-linecap:round;stroke-linejoin:round;stroke-miterlimit:4;stroke-dasharray:none;stroke-opacity:1" id="path3993" sodipodi:cx="325.71429" sodipodi:cy="608.07648" sodipodi:rx="34.285713" sodipodi:ry="50" d="M 360.00001,608.07648 A 34.285713,50 0 1 1 291.42858,608.07648 A 34.285713,50 0 1 1 360.00001,608.07648 z" transform="matrix(0.6953586,0,0,0.7154673,-13.947578,-252.80663)"/>
    </g>
    <g id="g4017">
      <path sodipodi:nodetypes="ccccccssscc" id="path6885" d="M 443.45116,378.44703 C 422.92051,430.44126 401.48144,454.10548 324.63142,465.63735 L 322.18673,375.06102 C 281.76527,428.64 241.3438,468.84424 200.92231,459.71139 L 210.01714,375.06102 C 186.33168,459.85025 140.01909,448.05654 94.346397,483.73054 L 119.53835,350.51286 C 135.22468,267.56184 259.31369,263.42375 325.21835,266.70856 C 445.56307,272.70676 514.25496,291.10716 519.12405,348.71386 L 531.36787,493.57153 C 483.82819,472.65305 435.80381,452.19858 443.45116,378.44703 z" style="fill:#501616;fill-opacity:1;fill-rule:evenodd;stroke:#000000;stroke-width:1.12137055px;stroke-linecap:butt;stroke-linejoin:miter;stroke-opacity:1" clip-path="url(#clipPath4281)" transform="matrix(0.2496942,0.1285618,-0.1503373,0.2919868,674.28064,-78.361716)"/>
      <path style="fill:#ffb380;fill-opacity:1;fill-rule:nonzero;stroke:#000000;stroke-width:0.66933703;stroke-linecap:round;stroke-linejoin:round;stroke-miterlimit:4;stroke-opacity:1" d="M 675.1885,136.15339 C 675.1885,194.84566 617.89582,242.47998 547.30306,242.47998 C 476.71031,242.47998 419.41764,194.84566 419.41764,136.15339 C 419.41764,77.461108 476.71031,29.826784 547.30306,29.826784 C 617.89582,29.826784 675.1885,77.461108 675.1885,136.15339 z" id="path6867"/>
      <path clip-path="url(#clipPath4005)" id="path4001" d="M 675.1885,136.15339 C 675.1885,194.84566 617.89582,242.47998 547.30306,242.47998 C 476.71031,242.47998 419.41764,194.84566 419.41764,136.15339 C 419.41764,77.461108 476.71031,29.826784 547.30306,29.826784 C 617.89582,29.826784 675.1885,77.461108 675.1885,136.15339 z" style="fill:#ffccaa;fill-opacity:1;fill-rule:nonzero;stroke:#000000;stroke-width:0.66933703;stroke-linecap:round;stroke-linejoin:round;stroke-miterlimit:4;stroke-opacity:1"/>
      <path style="fill:#ffb380;fill-opacity:1;fill-rule:nonzero;stroke:#000000;stroke-width:0.60784578;stroke-linecap:round;stroke-linejoin:round;stroke-miterlimit:4;stroke-opacity:1" d="M 687.84901,236.11312 C 688.51887,274.84534 636.50578,307.18908 571.74836,308.30904 C 506.99093,309.429 453.89053,278.90314 453.22067,240.17094 C 452.55081,201.43873 504.56392,169.09499 569.32134,167.97503 C 634.07877,166.85509 687.17915,197.38093 687.84901,236.11312 z" id="path6869"/>
      <g transform="translate(304.32777,-618.52937)" id="g6938">
        <path sodipodi:type="arc" style="fill:#ffe6d5;fill-opacity:1;fill-rule:nonzero;stroke:#000000;stroke-width:1;stroke-linecap:round;stroke-linejoin:round;stroke-miterlimit:4;stroke-dasharray:none;stroke-opacity:1" id="path6875" sodipodi:cx="242.85715" sodipodi:cy="503.79074" sodipodi:rx="40" sodipodi:ry="65.714287" d="M 282.85715,503.79074 A 40,65.714287 0 1 1 202.85715,503.79074 A 40,65.714287 0 1 1 282.85715,503.79074 z" transform="matrix(0.7377607,0,0,0.7154673,130.62294,410.59046)"/>
        <path sodipodi:type="arc" style="fill:#28170b;fill-opacity:1;fill-rule:nonzero;stroke:#000000;stroke-width:1;stroke-linecap:round;stroke-linejoin:round;stroke-miterlimit:4;stroke-dasharray:none;stroke-opacity:1" id="path6879" sodipodi:cx="262.85715" sodipodi:cy="845.2193" sodipodi:rx="17.142857" sodipodi:ry="18.571428" d="M 280,845.2193 A 17.142857,18.571428 0 1 1 245.71429,845.2193 A 17.142857,18.571428 0 1 1 280,845.2193 z" transform="matrix(0.7377607,0,0,0.7154673,128.18543,187.7735)"/>
      </g>
      <path style="fill:#421818;fill-opacity:1;fill-rule:evenodd;stroke:#000000;stroke-width:0.55676287px;stroke-linecap:butt;stroke-linejoin:miter;stroke-opacity:1" d="M 582.17806,202.99234 C 623.92786,230.50447 650.56574,243.7652 679.79018,238.76497 C 663.05277,247.39188 639.98924,293.3608 624.69673,259.00944 L 582.17806,202.99234 z" id="path6883" sodipodi:nodetypes="cccc"/>
      <path sodipodi:type="arc" style="fill:#784421;fill-opacity:1;fill-rule:nonzero;stroke:#000000;stroke-width:1;stroke-linecap:round;stroke-linejoin:round;stroke-miterlimit:4;stroke-dasharray:none;stroke-opacity:1" id="path6881" sodipodi:cx="325.71429" sodipodi:cy="608.07648" sodipodi:rx="34.285713" sodipodi:ry="50" d="M 360.00001,608.07648 A 34.285713,50 0 1 1 291.42858,608.07648 A 34.285713,50 0 1 1 360.00001,608.07648 z" transform="matrix(0.5688021,0.4698458,-0.4556481,0.5516142,772.79399,-311.33243)"/>
      <path style="fill:none;fill-rule:evenodd;stroke:#000000;stroke-width:3.80139637;stroke-linecap:butt;stroke-linejoin:miter;stroke-miterlimit:4;stroke-dasharray:none;stroke-opacity:1" d="M 625.41985,78.947798 C 578.23957,82.222018 567.77008,108.48341 561.36411,137.28925" id="path6897" sodipodi:nodetypes="cc"/>
      <path transform="translate(-23.672233,-24.243662)" clip-path="url(#clipPath6948)" sodipodi:nodetypes="cccc" id="path6944" d="M 606.42172,227.236 C 648.17152,254.74813 674.8094,268.00886 704.03384,263.00863 C 687.29643,271.63554 664.2329,317.60446 648.94039,283.2531 L 606.42172,227.236 z" style="fill:#ff5555;fill-opacity:1;fill-rule:evenodd;stroke:#000000;stroke-width:0.55676287px;stroke-linecap:butt;stroke-linejoin:miter;stroke-opacity:1"/>
      <rect style="fill:#ffffff;fill-opacity:1;fill-rule:nonzero;stroke:#000000;stroke-width:1;stroke-linecap:round;stroke-linejoin:round;stroke-miterlimit:4;stroke-dasharray:none;stroke-opacity:1" id="rect6895" width="15.671589" height="15.671589" x="670.0722" y="216.21773" transform="matrix(0.9993947,3.4789312e-2,-3.4789312e-2,0.9993947,0,0)"/>
      <path clip-path="url(#clipPath4013)" id="path4009" d="M 687.84901,236.11312 C 688.51887,274.84534 636.50578,307.18908 571.74836,308.30904 C 506.99093,309.429 453.89053,278.90314 453.22067,240.17094 C 452.55081,201.43873 504.56392,169.09499 569.32134,167.97503 C 634.07877,166.85509 687.17915,197.38093 687.84901,236.11312 z" style="fill:#ffccaa;fill-opacity:1;fill-rule:nonzero;stroke:#000000;stroke-width:0.60784578;stroke-linecap:round;stroke-linejoin:round;stroke-miterlimit:4;stroke-opacity:1"/>
    </g>
  </g>
  <metadata>
    <rdf:RDF>
      <cc:Work>
        <dc:format>image/svg+xml</dc:format>
        <dc:type rdf:resource="http://purl.org/dc/dcmitype/StillImage"/>
        <cc:license rdf:resource="http://creativecommons.org/licenses/publicdomain/"/>
        <dc:publisher>
          <cc:Agent rdf:about="http://openclipart.org/">
            <dc:title>Open Clip Art Library</dc:title>
          </cc:Agent>
        </dc:publisher>
        <dc:title>cartoon</dc:title>
        <dc:date>2008-10-18T21:23:02</dc:date>
        <dc:description>a cartoon, I decided to put also the side and front views of the head so that people can experiment with them</dc:description>
        <dc:source>http://openclipart.org/detail/19638/cartoon-by-wsnaccad</dc:source>
        <dc:creator>
          <cc:Agent>
            <dc:title>wsnaccad</dc:title>
          </cc:Agent>
        </dc:creator>
        <dc:subject>
          <rdf:Bag>
            <rdf:li>cartoon</rdf:li>
            <rdf:li>cartoon</rdf:li>
            <rdf:li>clip art</rdf:li>
            <rdf:li>clipart</rdf:li>
            <rdf:li>face</rdf:li>
            <rdf:li>face</rdf:li>
            <rdf:li>funny</rdf:li>
            <rdf:li>funny</rdf:li>
            <rdf:li>image</rdf:li>
            <rdf:li>man</rdf:li>
            <rdf:li>man</rdf:li>
            <rdf:li>media</rdf:li>
            <rdf:li>person</rdf:li>
            <rdf:li>person</rdf:li>
            <rdf:li>public domain</rdf:li>
            <rdf:li>svg</rdf:li>
          </rdf:Bag>
        </dc:subject>
      </cc:Work>
      <cc:License rdf:about="http://creativecommons.org/licenses/publicdomain/">
        <cc:permits rdf:resource="http://creativecommons.org/ns#Reproduction"/>
        <cc:permits rdf:resource="http://creativecommons.org/ns#Distribution"/>
        <cc:permits rdf:resource="http://creativecommons.org/ns#DerivativeWorks"/>
      </cc:License>
    </rdf:RDF>
  </metadata>
</svg>
