<?xml version="1.0" encoding="UTF-8" standalone="no"?>
<!-- Created with Inkscape (http://www.inkscape.org/) -->

<svg
   xmlns:dc="http://purl.org/dc/elements/1.1/"
   xmlns:cc="http://creativecommons.org/ns#"
   xmlns:rdf="http://www.w3.org/1999/02/22-rdf-syntax-ns#"
   xmlns:svg="http://www.w3.org/2000/svg"
   xmlns="http://www.w3.org/2000/svg"
   xmlns:xlink="http://www.w3.org/1999/xlink"
   xmlns:sodipodi="http://sodipodi.sourceforge.net/DTD/sodipodi-0.dtd"
   xmlns:inkscape="http://www.inkscape.org/namespaces/inkscape"
   width="200.02678"
   height="196.21823"
   id="svg6864"
   version="1.1"
   inkscape:version="0.48.4 r9939"
   sodipodi:docname="diceThree.svg">
  <defs
     id="defs6866">
    <inkscape:perspective
       sodipodi:type="inkscape:persp3d"
       inkscape:vp_x="0 : 526.18109 : 1"
       inkscape:vp_y="0 : 1000 : 0"
       inkscape:vp_z="744.09448 : 526.18109 : 1"
       inkscape:persp3d-origin="372.04724 : 350.78739 : 1"
       id="perspective6872" />
    <inkscape:perspective
       id="perspective6802"
       inkscape:persp3d-origin="0.5 : 0.33333333 : 1"
       inkscape:vp_z="1 : 0.5 : 1"
       inkscape:vp_y="0 : 1000 : 0"
       inkscape:vp_x="0 : 0.5 : 1"
       sodipodi:type="inkscape:persp3d" />
    <linearGradient
       inkscape:collect="always"
       xlink:href="#linearGradient9462"
       id="linearGradient6369"
       gradientUnits="userSpaceOnUse"
       x1="72.832001"
       y1="20.394878"
       x2="72.832001"
       y2="36.658333" />
    <linearGradient
       inkscape:collect="always"
       id="linearGradient9462">
      <stop
         style="stop-color:#a40000;stop-opacity:1"
         offset="0"
         id="stop9464" />
      <stop
         style="stop-color:#ef2929;stop-opacity:1"
         offset="1"
         id="stop9466" />
    </linearGradient>
    <linearGradient
       inkscape:collect="always"
       xlink:href="#linearGradient9462"
       id="linearGradient6371"
       gradientUnits="userSpaceOnUse"
       x1="72.832001"
       y1="20.394878"
       x2="72.832001"
       y2="36.658333" />
    <linearGradient
       inkscape:collect="always"
       xlink:href="#linearGradient9462"
       id="linearGradient6373"
       gradientUnits="userSpaceOnUse"
       x1="72.832001"
       y1="20.394878"
       x2="72.832001"
       y2="36.658333" />
    <radialGradient
       inkscape:collect="always"
       xlink:href="#linearGradient9498"
       id="radialGradient6375"
       gradientUnits="userSpaceOnUse"
       gradientTransform="matrix(1,0,0,0.84931512,0,14.207706)"
       cx="103.59114"
       cy="94.287537"
       fx="103.59114"
       fy="94.287537"
       r="25.809397" />
    <linearGradient
       inkscape:collect="always"
       id="linearGradient9498">
      <stop
         style="stop-color:#ffffff;stop-opacity:1;"
         offset="0"
         id="stop9500" />
      <stop
         style="stop-color:#ffffff;stop-opacity:0;"
         offset="1"
         id="stop9502" />
    </linearGradient>
    <filter
       color-interpolation-filters="sRGB"
       inkscape:collect="always"
       id="filter9518">
      <feGaussianBlur
         inkscape:collect="always"
         stdDeviation="0.71376063"
         id="feGaussianBlur9520" />
    </filter>
    <radialGradient
       inkscape:collect="always"
       xlink:href="#linearGradient9498"
       id="radialGradient6377"
       gradientUnits="userSpaceOnUse"
       gradientTransform="matrix(1,0,0,0.84931512,0,14.207706)"
       cx="103.59114"
       cy="94.287537"
       fx="103.59114"
       fy="94.287537"
       r="25.809397" />
    <linearGradient
       inkscape:collect="always"
       xlink:href="#linearGradient9356"
       id="linearGradient6299"
       gradientUnits="userSpaceOnUse"
       gradientTransform="matrix(2.5064773,0,0,2.5064773,-377.02695,-945.11669)"
       x1="264.28571"
       y1="573.26208"
       x2="264.28571"
       y2="649.31946" />
    <linearGradient
       inkscape:collect="always"
       id="linearGradient9356">
      <stop
         style="stop-color:#f9f8f8;stop-opacity:1"
         offset="0"
         id="stop9358" />
      <stop
         id="stop9364"
         offset="0.07006675"
         style="stop-color:#ececec;stop-opacity:1" />
      <stop
         style="stop-color:#e8e7e7;stop-opacity:1"
         offset="0.93328261"
         id="stop9366" />
      <stop
         style="stop-color:#b4b3b4;stop-opacity:1"
         offset="1"
         id="stop9360" />
    </linearGradient>
    <linearGradient
       inkscape:collect="always"
       xlink:href="#linearGradient9376"
       id="linearGradient6301"
       gradientUnits="userSpaceOnUse"
       gradientTransform="matrix(2.5064773,0,0,2.5064773,-377.02695,-945.11669)"
       x1="248.757"
       y1="634.69067"
       x2="249.81441"
       y2="664.505" />
    <linearGradient
       inkscape:collect="always"
       id="linearGradient9376">
      <stop
         style="stop-color:#dad9d9;stop-opacity:1;"
         offset="0"
         id="stop9378" />
      <stop
         id="stop9384"
         offset="0.27966022"
         style="stop-color:#dad9d9;stop-opacity:1" />
      <stop
         style="stop-color:#000000;stop-opacity:1"
         offset="1"
         id="stop9380" />
    </linearGradient>
    <filter
       color-interpolation-filters="sRGB"
       inkscape:collect="always"
       id="filter10343">
      <feGaussianBlur
         inkscape:collect="always"
         stdDeviation="0.74285713"
         id="feGaussianBlur10345" />
    </filter>
  </defs>
  <sodipodi:namedview
     id="base"
     pagecolor="#ffffff"
     bordercolor="#666666"
     borderopacity="1.0"
     inkscape:pageopacity="0.0"
     inkscape:pageshadow="2"
     inkscape:zoom="0.35"
     inkscape:cx="159.58652"
     inkscape:cy="156.55012"
     inkscape:document-units="px"
     inkscape:current-layer="layer1"
     showgrid="false"
     inkscape:window-width="1366"
     inkscape:window-height="706"
     inkscape:window-x="-8"
     inkscape:window-y="-8"
     inkscape:window-maximized="1"
     fit-margin-top="0"
     fit-margin-left="0"
     fit-margin-right="0"
     fit-margin-bottom="0"
     showborder="false"
     inkscape:showpageshadow="false" />
  <g
     inkscape:label="Capa 1"
     inkscape:groupmode="layer"
     id="layer1"
     transform="translate(-190.41347,-492.71337)">
    <rect
       style="opacity:0.72244903;fill:#888a85;fill-opacity:1;stroke:#888a85;stroke-width:0.44291338;stroke-miterlimit:4;stroke-opacity:1;stroke-dasharray:none;filter:url(#filter10343)"
       id="rect10609"
       width="74.285713"
       height="74.285713"
       x="-3.8928561"
       y="783.7193"
       ry="14.818748"
       transform="matrix(2.5064773,0,0,2.5064773,208.95161,-1466.6429)"
       rx="14.818748" />
    <rect
       ry="37.142857"
       y="493.97189"
       x="192.30144"
       height="186.19545"
       width="186.19545"
       id="rect10611"
       style="fill:url(#linearGradient6299);fill-opacity:1;stroke:url(#linearGradient6301);stroke-width:1.11015236;stroke-miterlimit:4;stroke-opacity:1;stroke-dasharray:none"
       rx="37.142857" />
    <path
       sodipodi:type="arc"
       style="opacity:0.76326533;fill:url(#radialGradient6377);fill-opacity:1;stroke:none;filter:url(#filter9518)"
       id="path10613"
       sodipodi:cx="103.59114"
       sodipodi:cy="94.287537"
       sodipodi:rx="25.809397"
       sodipodi:ry="21.920311"
       d="m 129.40054,94.287537 c 0,12.106253 -11.55526,21.920313 -25.8094,21.920313 -14.254135,0 -25.809396,-9.81406 -25.809396,-21.920313 0,-12.106254 11.555261,-21.920311 25.809396,-21.920311 14.25414,0 25.8094,9.814057 25.8094,21.920311 z"
       transform="matrix(2.1486036,0,0,1.3746515,26.971952,396.27929)" />
    <path
       transform="matrix(0.89287219,0,0,1.1016891,258.96457,550.75923)"
       d="m 129.40054,94.287537 c 0,12.106253 -11.55526,21.920313 -25.8094,21.920313 -14.254135,0 -25.809396,-9.81406 -25.809396,-21.920313 0,-12.106254 11.555261,-21.920311 25.809396,-21.920311 14.25414,0 25.8094,9.814057 25.8094,21.920311 z"
       sodipodi:ry="21.920311"
       sodipodi:rx="25.809397"
       sodipodi:cy="94.287537"
       sodipodi:cx="103.59114"
       id="path10615"
       style="opacity:0.76326533;fill:url(#radialGradient6375);fill-opacity:1;stroke:none;filter:url(#filter9518)"
       sodipodi:type="arc" />
    <path
       sodipodi:type="arc"
       style="fill:url(#linearGradient6373);fill-opacity:1;stroke:none"
       id="path10617"
       sodipodi:cx="72.832001"
       sodipodi:cy="28.526606"
       sodipodi:rx="8.1317282"
       sodipodi:ry="8.1317282"
       d="m 80.963729,28.526606 c 0,4.491029 -3.640699,8.131728 -8.131728,8.131728 -4.49103,0 -8.131728,-3.640699 -8.131728,-8.131728 0,-4.49103 3.640698,-8.131729 8.131728,-8.131729 4.491029,0 8.131728,3.640699 8.131728,8.131729 z"
       transform="matrix(2.1975726,0,0,2.1975726,125.34556,524.38044)" />
    <path
       transform="matrix(2.1975726,0,0,2.1975726,180.48805,464.22498)"
       d="m 80.963729,28.526606 c 0,4.491029 -3.640699,8.131728 -8.131728,8.131728 -4.49103,0 -8.131728,-3.640699 -8.131728,-8.131728 0,-4.49103 3.640698,-8.131729 8.131728,-8.131729 4.491029,0 8.131728,3.640699 8.131728,8.131729 z"
       sodipodi:ry="8.1317282"
       sodipodi:rx="8.1317282"
       sodipodi:cy="28.526606"
       sodipodi:cx="72.832001"
       id="path10625"
       style="fill:url(#linearGradient6371);fill-opacity:1;stroke:none"
       sodipodi:type="arc" />
    <path
       sodipodi:type="arc"
       style="fill:url(#linearGradient6369);fill-opacity:1;stroke:none"
       id="path10627"
       sodipodi:cx="72.832001"
       sodipodi:cy="28.526606"
       sodipodi:rx="8.1317282"
       sodipodi:ry="8.1317282"
       d="m 80.963729,28.526606 c 0,4.491029 -3.640699,8.131728 -8.131728,8.131728 -4.49103,0 -8.131728,-3.640699 -8.131728,-8.131728 0,-4.49103 3.640698,-8.131729 8.131728,-8.131729 4.491029,0 8.131728,3.640699 8.131728,8.131729 z"
       transform="matrix(2.1975726,0,0,2.1975726,70.203058,579.52294)" />
    <path
       style="fill:#ffffff;fill-opacity:1;stroke:none"
       d="m 267.60738,589.04051 c -0.0609,0.60075 -0.0596,1.17127 -0.0596,1.78812 0,9.86935 7.95222,17.88118 17.82158,17.88118 9.86938,0 17.88123,-8.01183 17.88123,-17.88118 0,-0.61685 0.001,-1.18737 -0.0594,-1.78812 -0.9953,8.92691 -8.6291,15.85464 -17.82163,15.85464 -9.19251,0 -16.76671,-6.92773 -17.76198,-15.85464 z"
       id="path10631"
       inkscape:connector-curvature="0" />
    <path
       id="path10639"
       d="m 212.46488,644.18301 c -0.0609,0.60075 -0.0597,1.17127 -0.0597,1.78812 0,9.86935 7.95223,17.88118 17.82158,17.88118 9.86938,0 17.88123,-8.01183 17.88123,-17.88118 0,-0.61685 0.001,-1.18737 -0.0594,-1.78812 -0.9953,8.92692 -8.6291,15.85464 -17.82163,15.85464 -9.1925,0 -16.7667,-6.92772 -17.76197,-15.85464 z"
       style="fill:#ffffff;fill-opacity:1;stroke:none"
       inkscape:connector-curvature="0" />
    <path
       id="path10643"
       d="m 322.74988,528.88505 c -0.0609,0.60075 -0.0597,1.17128 -0.0597,1.78812 0,9.86936 7.95222,17.88119 17.82158,17.88119 9.86938,0 17.88123,-8.01183 17.88123,-17.88119 0,-0.61684 10e-4,-1.18737 -0.0594,-1.78812 -0.9953,8.92692 -8.6291,15.85465 -17.82163,15.85465 -9.19251,0 -16.76671,-6.92773 -17.76198,-15.85465 z"
       style="fill:#ffffff;fill-opacity:1;stroke:none"
       inkscape:connector-curvature="0" />
  </g>
  <metadata
     id="metadata3375">
    <rdf:RDF>
      <cc:Work>
        <dc:format>image/svg+xml</dc:format>
        <dc:type
           rdf:resource="http://purl.org/dc/dcmitype/StillImage" />
        <cc:license
           rdf:resource="http://creativecommons.org/licenses/publicdomain/" />
        <dc:publisher>
          <cc:Agent
             rdf:about="http://openclipart.org/">
            <dc:title>Open Clip Art Library</dc:title>
          </cc:Agent>
        </dc:publisher>
        <dc:title></dc:title>
        <dc:date>2010-11-16T20:18:43</dc:date>
        <dc:description>The six sides of a dice</dc:description>
        <dc:source>http://openclipart.org/detail/96091/dado-3-by-rg1024</dc:source>
        <dc:creator>
          <cc:Agent>
            <dc:title>rg1024</dc:title>
          </cc:Agent>
        </dc:creator>
        <dc:subject>
          <rdf:Bag>
            <rdf:li>clip art</rdf:li>
            <rdf:li>clipart</rdf:li>
            <rdf:li>dice</rdf:li>
            <rdf:li>game</rdf:li>
          </rdf:Bag>
        </dc:subject>
      </cc:Work>
      <cc:License
         rdf:about="http://creativecommons.org/licenses/publicdomain/">
        <cc:permits
           rdf:resource="http://creativecommons.org/ns#Reproduction" />
        <cc:permits
           rdf:resource="http://creativecommons.org/ns#Distribution" />
        <cc:permits
           rdf:resource="http://creativecommons.org/ns#DerivativeWorks" />
      </cc:License>
    </rdf:RDF>
  </metadata>
</svg>
