<?xml version="1.0"?>
<svg xmlns="http://www.w3.org/2000/svg" xmlns:xlink="http://www.w3.org/1999/xlink" xmlns:svg="http://www.w3.org/2000/svg" xmlns:dc="http://purl.org/dc/elements/1.1/" xmlns:cc="http://web.resource.org/cc/" xmlns:rdf="http://www.w3.org/1999/02/22-rdf-syntax-ns#" width="901" height="447">
  <defs>
    <linearGradient id="imagebot_405" x1="75.64034" x2="72.52711" y1="51.78628" y2="56.03167">
      <stop offset="0" stop-color="#57540a" id="imagebot_911"/>
      <stop offset="0.5" stop-color="#ba9e16" id="imagebot_910"/>
      <stop offset="1" stop-color="#b9ce19" id="imagebot_909"/>
    </linearGradient>
    <linearGradient id="imagebot_406" x1="160.82894" x2="155.35745" y1="7.57908" y2="10.99417">
      <stop offset="0" stop-color="#57560a" id="imagebot_908"/>
      <stop offset="1" stop-color="#999a12" id="imagebot_907"/>
    </linearGradient>
    <linearGradient id="imagebot_407">
      <stop id="imagebot_906" stop-color="#000" offset="0"/>
      <stop id="imagebot_905" stop-color="#fff" offset="1"/>
    </linearGradient>
    <linearGradient y2="39.91347" y1="37.78136" x2="27.1059" x1="25.0493" id="imagebot_586">
      <stop id="imagebot_901" stop-color="#470808" offset="0"/>
      <stop id="imagebot_900" stop-color="#700d0d" offset="0.65"/>
      <stop id="imagebot_899" stop-color="#8c1111" offset="1"/>
    </linearGradient>
    <linearGradient y2="128.83632" y1="120.15674" x2="10.46269" x1="14.61362" id="imagebot_588">
      <stop id="imagebot_898" stop-color="#470808" offset="0"/>
      <stop id="imagebot_897" stop-color="#a91414" offset="0.5"/>
      <stop id="imagebot_896" stop-color="#cd1919" offset="1"/>
    </linearGradient>
    <linearGradient y2="36.3748" y1="39.01632" x2="42.57853" x1="39.08801" id="imagebot_587">
      <stop id="imagebot_895" stop-color="#cd1919" offset="0"/>
      <stop id="imagebot_894" stop-color="#ca1919" offset="0.5"/>
      <stop id="imagebot_893" stop-color="#8c1111" offset="1"/>
    </linearGradient>
    <linearGradient y2="464.35278" y1="446.8041" x2="235.63172" x1="232.99" id="imagebot_590">
      <stop id="imagebot_892" stop-color="#a91414" offset="0"/>
      <stop id="imagebot_891" stop-color="#cd1919" offset="1"/>
    </linearGradient>
    <linearGradient y2="593.66778" y1="575.56048" x2="244.06649" x1="254.82212" id="imagebot_591">
      <stop id="imagebot_890" stop-color="#700d0d" offset="0"/>
      <stop id="imagebot_889" stop-color="#ca1919" offset="1"/>
    </linearGradient>
    <linearGradient y2="444.32718" y1="429.23496" x2="186.18751" x1="196.37598" id="imagebot_592">
      <stop id="imagebot_888" stop-color="#470808" offset="0"/>
      <stop id="imagebot_887" stop-color="#a91414" offset="1"/>
    </linearGradient>
    <linearGradient y2="602.26572" y1="579.81523" x2="338.98871" x1="332.1947" id="imagebot_593">
      <stop id="imagebot_886" stop-color="#a91414" offset="0"/>
      <stop id="imagebot_885" stop-color="#ca1919" offset="1"/>
    </linearGradient>
    <linearGradient y2="589.32958" y1="575.56047" x2="372.12228" x1="390.69928" id="imagebot_594">
      <stop id="imagebot_884" stop-color="#700d0d" offset="0"/>
      <stop id="imagebot_883" stop-color="#ca1919" offset="1"/>
    </linearGradient>
    <linearGradient y2="2392.43533" y1="2381.49473" x2="194.86658" x1="210.52664" id="imagebot_595">
      <stop id="imagebot_882" stop-color="#700d0d" offset="0"/>
      <stop id="imagebot_881" stop-color="#b51616" offset="1"/>
    </linearGradient>
    <linearGradient y2="582.84318" y1="567.93379" x2="196.14223" x1="208.78402" id="imagebot_589">
      <stop id="imagebot_880" stop-color="#700d0d" offset="0"/>
      <stop id="imagebot_879" stop-color="#ca1919" offset="1"/>
    </linearGradient>
    <linearGradient y2="36.57406" y1="34.2722" x2="58.5086" x1="56.26331" id="imagebot_415">
      <stop id="imagebot_875" stop-color="#9a1212" offset="0"/>
      <stop id="imagebot_874" stop-color="#da1a1a" offset="0.7"/>
      <stop id="imagebot_873" stop-color="#ce1919" offset="1"/>
    </linearGradient>
    <linearGradient y2="56.1819" y1="51.93651" x2="70.77885" x1="73.892" id="imagebot_416">
      <stop id="imagebot_872" stop-color="#570a0a" offset="0"/>
      <stop id="imagebot_871" stop-color="#ba1616" offset="0.5"/>
      <stop id="imagebot_870" stop-color="#ce1919" offset="1"/>
    </linearGradient>
    <linearGradient y2="11.09498" y1="7.67989" x2="150.76927" x1="156.24113" id="imagebot_414">
      <stop id="imagebot_869" stop-color="#570a0a" offset="0"/>
      <stop id="imagebot_868" stop-color="#9a1212" offset="1"/>
    </linearGradient>
    <linearGradient y2="363.34019" y1="343.72381" x2="440.14885" x1="442.41299" id="imagebot_413">
      <stop id="imagebot_867" stop-color="#570a0a" offset="0"/>
      <stop id="imagebot_866" stop-color="#bd1717" offset="1"/>
    </linearGradient>
    <linearGradient y2="296.08959" y1="274.39141" x2="767.94529" x1="759.07579" id="imagebot_412">
      <stop id="imagebot_865" stop-color="#9a1212" offset="0"/>
      <stop id="imagebot_864" stop-color="#da1a1a" offset="1"/>
    </linearGradient>
    <linearGradient y2="442.42628" y1="423.55449" x2="1181.21892" x1="1190.27517" id="imagebot_411">
      <stop id="imagebot_863" stop-color="#ba1616" offset="0"/>
      <stop id="imagebot_862" stop-color="#da1a1a" offset="1"/>
    </linearGradient>
    <linearGradient y2="303.01695" y1="283.39712" x2="987.48123" x1="994.17926" id="imagebot_410">
      <stop id="imagebot_861" stop-color="#570a0a" offset="0"/>
      <stop id="imagebot_860" stop-color="#bd1717" offset="1"/>
    </linearGradient>
    <linearGradient y2="310.06626" y1="304.78311" x2="1170.08726" x1="1190.27514" id="imagebot_409">
      <stop id="imagebot_859" stop-color="#ba1616" offset="0"/>
      <stop id="imagebot_858" stop-color="#da1a1a" offset="1"/>
    </linearGradient>
    <radialGradient gradientUnits="userSpaceOnUse" r="201" fy="3310" fx="9607" cy="3310" cx="9607" id="imagebot_408">
      <stop id="imagebot_857" stop-color="#bd1717" offset="0"/>
      <stop id="imagebot_856" stop-opacity="0" stop-color="#bd1717" offset="1"/>
    </radialGradient>
    <linearGradient y2="36.43531" y1="34.13345" x2="60.3794" x1="58.13411" id="imagebot_580">
      <stop id="imagebot_686" stop-color="#9a1212" offset="0"/>
      <stop id="imagebot_685" stop-color="#da1a1a" offset="0.7"/>
      <stop id="imagebot_684" stop-color="#ce1919" offset="1"/>
    </linearGradient>
    <linearGradient y2="361.43936" y1="341.82297" x2="452.69045" x1="454.95458" id="imagebot_581">
      <stop id="imagebot_677" stop-color="#570a0a" offset="0"/>
      <stop id="imagebot_676" stop-color="#bd1717" offset="1"/>
    </linearGradient>
    <linearGradient y2="294.62197" y1="272.92379" x2="790.15871" x1="781.29217" id="imagebot_582">
      <stop id="imagebot_675" stop-color="#9a1212" offset="0"/>
      <stop id="imagebot_674" stop-color="#da1a1a" offset="1"/>
    </linearGradient>
    <linearGradient y2="440.23504" y1="421.36325" x2="1215.84832" x1="1224.90915" id="imagebot_583">
      <stop id="imagebot_673" stop-color="#ba1616" offset="0"/>
      <stop id="imagebot_672" stop-color="#da1a1a" offset="1"/>
    </linearGradient>
    <linearGradient y2="301.4507" y1="281.83087" x2="1015.69982" x1="1022.39785" id="imagebot_584">
      <stop id="imagebot_671" stop-color="#570a0a" offset="0"/>
      <stop id="imagebot_670" stop-color="#bd1717" offset="1"/>
    </linearGradient>
    <linearGradient y2="308.49159" y1="303.20844" x2="1204.71104" x1="1224.90912" id="imagebot_585">
      <stop id="imagebot_669" stop-color="#ba1616" offset="0"/>
      <stop id="imagebot_668" stop-color="#da1a1a" offset="1"/>
    </linearGradient>
    <radialGradient id="imagebot_597" cx="9607" cy="3310" fx="9607" fy="3310" r="201" gradientUnits="userSpaceOnUse">
      <stop id="imagebot_667" stop-color="#bd1717" offset="0"/>
      <stop id="imagebot_666" stop-opacity="0" stop-color="#bd1717" offset="1"/>
    </radialGradient>
    <linearGradient id="imagebot_402">
      <stop id="imagebot_664" stop-color="#000" offset="0"/>
      <stop id="imagebot_663" stop-color="#fff" offset="1"/>
    </linearGradient>
    <radialGradient r="201" fy="3310" fx="9607" cy="3310" cx="9607" gradientUnits="userSpaceOnUse" id="imagebot_172" xlink:href="#imagebot_597"/>
    <linearGradient y2="3.49942" x2="-0.49997" y1="-0.99968" x1="0.99998" id="imagebot_140" xlink:href="#imagebot_407"/>
    <linearGradient y2="3.53763" x2="-0.49996" y1="-1.02999" x1="1.00001" id="imagebot_138" xlink:href="#imagebot_407"/>
    <linearGradient y2="0.94957" x2="1.28001" y1="-0.17864" x1="-0.46996" id="imagebot_147" xlink:href="#imagebot_407"/>
    <linearGradient y2="0.41948" x2="0.16986" y1="0.99933" x1="0.99984" id="imagebot_149" xlink:href="#imagebot_595"/>
    <linearGradient y2="0.27007" x2="0.01512" y1="0.99983" x1="0.9997" id="imagebot_151" xlink:href="#imagebot_594"/>
    <linearGradient y2="-0.18982" x2="0.35984" y1="1.00005" x1="-0.00024" id="imagebot_153" xlink:href="#imagebot_593"/>
    <linearGradient y2="0.20001" x2="-0.29013" y1="0.9999" x1="0.24986" id="imagebot_155" xlink:href="#imagebot_592"/>
    <linearGradient y2="0.04015" x2="-0.06001" y1="0.99983" x1="0.51003" id="imagebot_157" xlink:href="#imagebot_591"/>
    <linearGradient y2="0.06996" x2="0.43994" y1="1.00004" x1="0.29993" id="imagebot_159" xlink:href="#imagebot_590"/>
    <linearGradient y2="0.20992" x2="0.33001" y1="1.00012" x1="1.00002" id="imagebot_161" xlink:href="#imagebot_589"/>
    <linearGradient y2="0.25" x2="0.45" y1="0.71001" x1="0.67" id="imagebot_163" xlink:href="#imagebot_588"/>
    <linearGradient y2="0.57001" x2="0.59" y1="0.43" x1="0.405" id="imagebot_165" xlink:href="#imagebot_587"/>
    <linearGradient y2="0.44501" x2="0.55401" y1="0.55801" x1="0.44501" id="imagebot_167" xlink:href="#imagebot_586"/>
    <linearGradient y2="0.71991" x2="-0.0703" y1="0.99992" x1="1.0002" id="imagebot_174" xlink:href="#imagebot_585"/>
    <linearGradient y2="-0.03991" x2="0.64514" y1="0.99994" x1="1.00014" id="imagebot_176" xlink:href="#imagebot_584"/>
    <linearGradient y2="-0.2502" x2="0.51998" y1="0.75" x1="1.0002" id="imagebot_178" xlink:href="#imagebot_583"/>
    <linearGradient y2="-0.14995" x2="0.47006" y1="1.00005" x1="0.00013" id="imagebot_180" xlink:href="#imagebot_582"/>
    <linearGradient y2="-0.03974" x2="0.88006" y1="0.99993" x1="1.00006" id="imagebot_182" xlink:href="#imagebot_581"/>
    <linearGradient y2="0.438" x2="0.559" y1="0.55999" x1="0.44" id="imagebot_184" xlink:href="#imagebot_580"/>
    <linearGradient y2="0.50003" x2="-0.24995" y1="0.50003" x1="2.99999" id="imagebot_143" xlink:href="#imagebot_407"/>
    <linearGradient y2="0.49998" x2="-0.24994" y1="0.49998" x1="2.99993" id="imagebot_145" xlink:href="#imagebot_407"/>
    <linearGradient y2="0.37001" x2="0.43" y1="0.59501" x1="0.595" id="imagebot_240" xlink:href="#imagebot_416"/>
    <linearGradient y2="0.43799" x2="0.55899" y1="0.55999" x1="0.43999" id="imagebot_236" xlink:href="#imagebot_415"/>
    <linearGradient y2="0.409" x2="0.34" y1="0.59" x1="0.63001" id="imagebot_234" xlink:href="#imagebot_414"/>
    <linearGradient y2="-0.03983" x2="0.87995" y1="0.99984" x1="0.99995" id="imagebot_232" xlink:href="#imagebot_413"/>
    <linearGradient y2="-0.15001" x2="0.47002" y1="0.99999" x1="-0.00006" id="imagebot_230" xlink:href="#imagebot_412"/>
    <linearGradient y2="-0.2503" x2="0.51993" y1="0.74991" x1="0.99991" id="imagebot_228" xlink:href="#imagebot_411"/>
    <linearGradient y2="-0.03998" x2="0.6449" y1="0.99987" x1="0.9999" id="imagebot_226" xlink:href="#imagebot_410"/>
    <linearGradient y2="0.71984" x2="-0.07005" y1="0.99985" x1="0.99991" id="imagebot_224" xlink:href="#imagebot_409"/>
    <radialGradient r="201" fy="3310" fx="9607" cy="3310" cx="9607" gradientUnits="userSpaceOnUse" id="imagebot_222" xlink:href="#imagebot_408"/>
    <linearGradient y2="1.01248" x2="1" y1="-1.92371" x1="-1.9" id="imagebot_220" xlink:href="#imagebot_407"/>
    <linearGradient y2="1" x2="1" y1="-1.89999" x1="-1.90001" id="imagebot_218" xlink:href="#imagebot_407"/>
    <linearGradient y2="1.00395" x2="1" y1="-1.90751" x1="-1.90001" id="imagebot_216" xlink:href="#imagebot_407"/>
    <linearGradient y2="1.00505" x2="1" y1="-1.9096" x1="-1.9" id="imagebot_214" xlink:href="#imagebot_407"/>
    <linearGradient y2="1.00477" x2="1" y1="-1.90906" x1="-1.9" id="imagebot_212" xlink:href="#imagebot_407"/>
    <linearGradient y2="1" x2="1" y1="-1.89999" x1="-1.9" id="imagebot_210" xlink:href="#imagebot_407"/>
    <linearGradient y2="1.0025" x2="1" y1="-1.90474" x1="-1.9" id="imagebot_208" xlink:href="#imagebot_407"/>
    <linearGradient y2="-1" x2="2.00001" y1="1.2" x1="-0.60001" id="imagebot_206" xlink:href="#imagebot_407"/>
    <linearGradient y2="-1" x2="1.99999" y1="1.2" x1="-0.59999" id="imagebot_204" xlink:href="#imagebot_407"/>
    <linearGradient y2="-1" x2="1.99999" y1="1.2" x1="-0.59999" id="imagebot_202" xlink:href="#imagebot_407"/>
    <linearGradient y2="-1" x2="2" y1="1.2" x1="-0.6" id="imagebot_200" xlink:href="#imagebot_407"/>
    <linearGradient y2="0.10069" x2="0.1" y1="1.40967" x1="0.7" id="imagebot_198" xlink:href="#imagebot_407"/>
    <linearGradient y2="0.10056" x2="0.1" y1="1.40777" x1="0.7" id="imagebot_196" xlink:href="#imagebot_407"/>
    <linearGradient y2="0.1" x2="0.1" y1="1.4" x1="0.7" id="imagebot_194" xlink:href="#imagebot_407"/>
    <linearGradient y2="0.1" x2="0.1" y1="1.4" x1="0.7" id="imagebot_192" xlink:href="#imagebot_407"/>
    <linearGradient y2="0.1" x2="0.1" y1="1.4" x1="0.7" id="imagebot_190" xlink:href="#imagebot_407"/>
    <linearGradient y2="0.1" x2="0.1" y1="1.4" x1="0.7" id="imagebot_188" xlink:href="#imagebot_407"/>
    <linearGradient y2="0.40901" x2="0.34001" y1="0.59001" x1="0.63" id="imagebot_131" xlink:href="#imagebot_406"/>
    <linearGradient y2="0.37001" x2="0.43" y1="0.59501" x1="0.595" id="imagebot_129" xlink:href="#imagebot_405"/>
    <linearGradient y2="1.01248" x2="1" y1="-1.92371" x1="-1.9" id="imagebot_127" xlink:href="#imagebot_402"/>
    <linearGradient y2="1" x2="1" y1="-1.89999" x1="-1.90001" id="imagebot_125" xlink:href="#imagebot_402"/>
    <linearGradient y2="1.00395" x2="1" y1="-1.90751" x1="-1.90001" id="imagebot_123" xlink:href="#imagebot_402"/>
    <linearGradient y2="1.00505" x2="1" y1="-1.9096" x1="-1.9" id="imagebot_121" xlink:href="#imagebot_402"/>
    <linearGradient y2="1.00477" x2="1" y1="-1.90906" x1="-1.9" id="imagebot_119" xlink:href="#imagebot_402"/>
    <linearGradient y2="1" x2="1" y1="-1.89999" x1="-1.9" id="imagebot_117" xlink:href="#imagebot_402"/>
    <linearGradient y2="1.0025" x2="1" y1="-1.90474" x1="-1.9" id="imagebot_115" xlink:href="#imagebot_402"/>
    <linearGradient y2="2.00015" x2="1.99989" y1="-0.20008" x1="-0.59991" id="imagebot_113" xlink:href="#imagebot_402"/>
    <linearGradient y2="2.00009" x2="1.99997" y1="-0.20008" x1="-0.60002" id="imagebot_111" xlink:href="#imagebot_402"/>
    <linearGradient y2="0.89949" x2="0.10005" y1="-0.40776" x1="0.69999" id="imagebot_109" xlink:href="#imagebot_402"/>
    <linearGradient y2="0.89996" x2="0.10001" y1="-0.40001" x1="0.69995" id="imagebot_107" xlink:href="#imagebot_402"/>
    <linearGradient y2="0.90003" x2="0.10004" y1="-0.39998" x1="0.70004" id="imagebot_105" xlink:href="#imagebot_402"/>
    <linearGradient y2="0.90004" x2="0.09998" y1="-0.4" x1="0.69998" id="imagebot_103" xlink:href="#imagebot_402"/>
    <linearGradient id="imagebot_243">
      <stop stop-color="#000000" id="imagebot_355" offset="0"/>
      <stop stop-color="#ffffff" id="imagebot_354" offset="1"/>
    </linearGradient>
    <radialGradient cx="9607" cy="3310" r="201" fx="9607" fy="3310" id="imagebot_254" gradientUnits="userSpaceOnUse">
      <stop stop-color="#6516bd" id="imagebot_337" offset="0"/>
      <stop stop-color="#6516bd" stop-opacity="0" id="imagebot_336" offset="1"/>
    </radialGradient>
    <linearGradient x1="905.29925" y1="196.34882" x2="890.39347" y2="200.24868" id="imagebot_255">
      <stop stop-color="#6316ba" id="imagebot_334" offset="0"/>
      <stop stop-color="#7419db" id="imagebot_333" offset="1"/>
    </linearGradient>
    <linearGradient x1="755.76968" y1="180.50523" x2="750.82535" y2="194.99193" id="imagebot_256">
      <stop stop-color="#2e0a57" id="imagebot_331" offset="0"/>
      <stop stop-color="#6516bd" id="imagebot_330" offset="1"/>
    </linearGradient>
    <linearGradient x1="905.29933" y1="272.64393" x2="898.61263" y2="286.57452" id="imagebot_257">
      <stop stop-color="#6316ba" id="imagebot_328" offset="0"/>
      <stop stop-color="#7419db" id="imagebot_327" offset="1"/>
    </linearGradient>
    <linearGradient x1="577.93777" y1="175.7222" x2="584.48399" y2="191.73658" id="imagebot_258">
      <stop stop-color="#52119a" id="imagebot_325" offset="0"/>
      <stop stop-color="#7419db" id="imagebot_324" offset="1"/>
    </linearGradient>
    <linearGradient x1="336.44168" y1="218.9004" x2="334.77041" y2="233.3878" id="imagebot_259">
      <stop stop-color="#2e0a57" id="imagebot_322" offset="0"/>
      <stop stop-color="#6516bd" id="imagebot_321" offset="1"/>
    </linearGradient>
    <linearGradient x1="55.89476" y1="34.20709" x2="53.59684" y2="37.3407" id="imagebot_260">
      <stop stop-color="#2e0a57" id="imagebot_319" offset="0"/>
      <stop stop-color="#6316ba" id="imagebot_318" offset="0.5"/>
      <stop stop-color="#6e19ce" id="imagebot_317" offset="1"/>
    </linearGradient>
    <linearGradient x1="119.10443" y1="3.81066" x2="115.06559" y2="6.33145" id="imagebot_261">
      <stop stop-color="#2e0a57" id="imagebot_315" offset="0"/>
      <stop stop-color="#52119a" id="imagebot_314" offset="1"/>
    </linearGradient>
    <linearGradient x1="43.22464" y1="22.99025" x2="44.88192" y2="24.68936" id="imagebot_262">
      <stop stop-color="#52119a" id="imagebot_312" offset="0"/>
      <stop stop-color="#7419db" id="imagebot_311" offset="0.7"/>
      <stop stop-color="#6e19ce" id="imagebot_310" offset="1"/>
    </linearGradient>
    <linearGradient x1="135.75103" y1="1706.6924" x2="124.19268" y2="1714.76195" id="imagebot_244">
      <stop stop-color="#0d7018" id="imagebot_299" offset="0"/>
      <stop stop-color="#15b528" id="imagebot_298" offset="1"/>
    </linearGradient>
    <linearGradient x1="251.69818" y1="413.02776" x2="237.98283" y2="423.1919" id="imagebot_245">
      <stop stop-color="#0d7018" id="imagebot_296" offset="0"/>
      <stop stop-color="#19ca2d" id="imagebot_295" offset="1"/>
    </linearGradient>
    <linearGradient x1="211.12666" y1="416.08915" x2="216.14034" y2="432.66196" id="imagebot_246">
      <stop stop-color="#14a925" id="imagebot_293" offset="0"/>
      <stop stop-color="#19ca2d" id="imagebot_292" offset="1"/>
    </linearGradient>
    <linearGradient x1="125.30674" y1="307.43639" x2="117.78685" y2="318.57789" id="imagebot_247">
      <stop stop-color="#08470f" id="imagebot_290" offset="0"/>
      <stop stop-color="#14a925" id="imagebot_289" offset="1"/>
    </linearGradient>
    <linearGradient x1="164.02551" y1="413.02776" x2="156.08862" y2="426.3943" id="imagebot_248">
      <stop stop-color="#0d7018" id="imagebot_287" offset="0"/>
      <stop stop-color="#19ca2d" id="imagebot_286" offset="1"/>
    </linearGradient>
    <linearGradient x1="148.21985" y1="320.68024" x2="150.16982" y2="333.6337" id="imagebot_249">
      <stop stop-color="#14a925" id="imagebot_284" offset="0"/>
      <stop stop-color="#18ce2e" id="imagebot_283" offset="1"/>
    </linearGradient>
    <linearGradient x1="134.65501" y1="407.43671" x2="125.32309" y2="418.43942" id="imagebot_250">
      <stop stop-color="#0d7018" id="imagebot_281" offset="0"/>
      <stop stop-color="#19ca2d" id="imagebot_280" offset="1"/>
    </linearGradient>
    <linearGradient x1="9.05602" y1="86.06945" x2="5.99202" y2="92.47576" id="imagebot_251">
      <stop stop-color="#08470f" id="imagebot_278" offset="0"/>
      <stop stop-color="#14a925" id="imagebot_277" offset="0.5"/>
      <stop stop-color="#17ce2e" id="imagebot_276" offset="1"/>
    </linearGradient>
    <linearGradient x1="25.56216" y1="28.5084" x2="28.13867" y2="26.55863" id="imagebot_252">
      <stop stop-color="#18ce2e" id="imagebot_274" offset="0"/>
      <stop stop-color="#19ca2d" id="imagebot_273" offset="0.5"/>
      <stop stop-color="#108c1f" id="imagebot_272" offset="1"/>
    </linearGradient>
    <linearGradient x1="16.80318" y1="26.91328" x2="18.32124" y2="28.48704" id="imagebot_253">
      <stop stop-color="#08470f" id="imagebot_270" offset="0"/>
      <stop stop-color="#0d7018" id="imagebot_269" offset="0.65"/>
      <stop stop-color="#108c1f" id="imagebot_268" offset="1"/>
    </linearGradient>
    <linearGradient y2="0.438" x2="0.559" y1="0.56" x1="0.44" id="imagebot_54" xlink:href="#imagebot_262"/>
    <linearGradient y2="0.409" x2="0.33998" y1="0.59" x1="0.62998" id="imagebot_52" xlink:href="#imagebot_261"/>
    <linearGradient y2="0.36999" x2="0.43" y1="0.59499" x1="0.595" id="imagebot_50" xlink:href="#imagebot_260"/>
    <linearGradient y2="-0.04008" x2="0.88003" y1="1.00016" x1="1.00003" id="imagebot_48" xlink:href="#imagebot_259"/>
    <linearGradient y2="-0.14995" x2="0.47007" y1="0.99993" x1="0.00003" id="imagebot_46" xlink:href="#imagebot_258"/>
    <linearGradient y2="-0.25025" x2="0.52003" y1="0.75" x1="1.00016" id="imagebot_44" xlink:href="#imagebot_257"/>
    <linearGradient y2="-0.04006" x2="0.64504" y1="1.00013" x1="1.00006" id="imagebot_42" xlink:href="#imagebot_256"/>
    <linearGradient y2="0.72004" x2="-0.07013" y1="1.00006" x1="1.00015" id="imagebot_40" xlink:href="#imagebot_255"/>
    <radialGradient r="201" fy="3310" fx="9607" cy="3310" cx="9607" gradientUnits="userSpaceOnUse" id="imagebot_38" xlink:href="#imagebot_254"/>
    <linearGradient y2="1.01248" x2="1" y1="-1.92371" x1="-1.9" id="imagebot_36" xlink:href="#imagebot_243"/>
    <linearGradient y2="1" x2="1" y1="-1.89999" x1="-1.90001" id="imagebot_34" xlink:href="#imagebot_243"/>
    <linearGradient y2="1.00395" x2="1" y1="-1.90751" x1="-1.90001" id="imagebot_32" xlink:href="#imagebot_243"/>
    <linearGradient y2="1.00505" x2="1" y1="-1.9096" x1="-1.9" id="imagebot_30" xlink:href="#imagebot_243"/>
    <linearGradient y2="1.00477" x2="1" y1="-1.90906" x1="-1.9" id="imagebot_28" xlink:href="#imagebot_243"/>
    <linearGradient y2="1" x2="1" y1="-1.89999" x1="-1.9" id="imagebot_26" xlink:href="#imagebot_243"/>
    <linearGradient y2="1.0025" x2="1" y1="-1.90474" x1="-1.9" id="imagebot_24" xlink:href="#imagebot_243"/>
    <linearGradient y2="-1" x2="2.00001" y1="1.2" x1="-0.60001" id="imagebot_22" xlink:href="#imagebot_243"/>
    <linearGradient y2="-1" x2="1.99999" y1="1.2" x1="-0.6" id="imagebot_20" xlink:href="#imagebot_243"/>
    <linearGradient y2="-1" x2="1.99999" y1="1.2" x1="-0.59999" id="imagebot_18" xlink:href="#imagebot_243"/>
    <linearGradient y2="-1" x2="2" y1="1.2" x1="-0.6" id="imagebot_16" xlink:href="#imagebot_243"/>
    <linearGradient y2="0.10069" x2="0.1" y1="1.40967" x1="0.7" id="imagebot_14" xlink:href="#imagebot_243"/>
    <linearGradient y2="0.10056" x2="0.1" y1="1.40777" x1="0.7" id="imagebot_12" xlink:href="#imagebot_243"/>
    <linearGradient y2="0.1" x2="0.1" y1="1.4" x1="0.7" id="imagebot_10" xlink:href="#imagebot_243"/>
    <linearGradient y2="0.1" x2="0.1" y1="1.4" x1="0.7" id="imagebot_8" xlink:href="#imagebot_243"/>
    <linearGradient y2="0.1" x2="0.1" y1="1.4" x1="0.7" id="imagebot_6" xlink:href="#imagebot_243"/>
    <linearGradient y2="0.1" x2="0.1" y1="1.4" x1="0.7" id="imagebot_4" xlink:href="#imagebot_243"/>
    <linearGradient y2="0.445" x2="0.554" y1="0.558" x1="0.445" id="imagebot_96" xlink:href="#imagebot_253"/>
    <linearGradient y2="0.57" x2="0.58999" y1="0.43" x1="0.40499" id="imagebot_94" xlink:href="#imagebot_252"/>
    <linearGradient y2="0.24998" x2="0.44999" y1="0.70997" x1="0.66999" id="imagebot_92" xlink:href="#imagebot_251"/>
    <linearGradient y2="0.20993" x2="0.32999" y1="0.99996" x1="1.00005" id="imagebot_90" xlink:href="#imagebot_250"/>
    <linearGradient y2="0.06994" x2="0.44" y1="1.00004" x1="0.29999" id="imagebot_88" xlink:href="#imagebot_249"/>
    <linearGradient y2="0.04006" x2="-0.05993" y1="0.99982" x1="0.50996" id="imagebot_86" xlink:href="#imagebot_248"/>
    <linearGradient y2="0.20004" x2="-0.28992" y1="1.00003" x1="0.25003" id="imagebot_84" xlink:href="#imagebot_247"/>
    <linearGradient y2="-0.18993" x2="0.36002" y1="1.00005" x1="0.00002" id="imagebot_82" xlink:href="#imagebot_246"/>
    <linearGradient y2="0.27" x2="0.01512" y1="0.99982" x1="0.99993" id="imagebot_80" xlink:href="#imagebot_245"/>
    <linearGradient y2="0.41981" x2="0.17003" y1="0.99923" x1="0.99996" id="imagebot_78" xlink:href="#imagebot_244"/>
    <linearGradient y2="0.94957" x2="1.28005" y1="-0.17869" x1="-0.47007" id="imagebot_76" xlink:href="#imagebot_243"/>
    <linearGradient y2="0.5" x2="-0.25" y1="0.5" x1="3" id="imagebot_74" xlink:href="#imagebot_243"/>
    <linearGradient y2="0.5" x2="-0.25" y1="0.5" x1="3" id="imagebot_72" xlink:href="#imagebot_243"/>
    <linearGradient y2="0.5" x2="-0.25" y1="0.5" x1="3.00001" id="imagebot_70" xlink:href="#imagebot_243"/>
    <linearGradient y2="0.5" x2="-0.25" y1="0.5" x1="2.99999" id="imagebot_68" xlink:href="#imagebot_243"/>
    <linearGradient y2="0.5" x2="-0.25" y1="0.5" x1="3" id="imagebot_66" xlink:href="#imagebot_243"/>
    <linearGradient y2="-2.49999" x2="-0.5" y1="1.99999" x1="1" id="imagebot_64" xlink:href="#imagebot_243"/>
    <linearGradient y2="-2.5376" x2="-0.5" y1="2.03007" x1="1" id="imagebot_62" xlink:href="#imagebot_243"/>
    <linearGradient y2="-2.5" x2="-0.5" y1="2" x1="1" id="imagebot_60" xlink:href="#imagebot_243"/>
  </defs>
  <g id="imagebot_185">
    <path transform="translate(-19, -9.98828) matrix(0.938704, -0.344723, 0.344723, 0.938704, -72.2975, 81.2935)" fill="#570a0a" id="imagebot_241" d="M601.22687,225.61415C575.73387,234.04115 542.44987,244.95915 527.23887,249.94115L499.67887,259.00415L498.77787,262.82015C498.30087,264.94015 492.62987,289.95615 486.21687,318.36415C479.80387,346.77215 471.90687,381.69915 468.67387,395.95615C463.85087,417.10315 462.89687,421.92615 463.47987,422.29715C463.90387,422.56215 465.81187,422.77415 467.77287,422.77415C471.21787,422.77415 474.13287,421.71415 537.41487,398.07615C579.60287,382.28215 604.35387,372.74215 605.89087,371.68215C607.26887,370.78115 609.01787,368.97915 609.81287,367.65415C610.92587,365.79915 615.48387,349.10415 630.37687,291.86415C640.87087,251.47815 649.13886,220.89715 649.19187,216.33915C649.19187,213.95415 648.55587,210.24415 647.97287,210.29715C647.76087,210.29715 626.71987,217.24015 601.22687,225.61415z"/>
    <path transform="translate(-19, -9.98828) matrix(0.938704, -0.344723, 0.344723, 0.938704, -72.2975, 81.2935)" fill="url(#imagebot_240)" id="imagebot_239" d="M570.646,225.773 C532.433,238.652 503.495,248.457 503.283,248.616 L505.244,259.481 L510.067,269.021 L579.179,245.86 L648.026,222.593 L648.715,219.837 C649.722,215.226 649.298,212.894 647.973,209.661 C646.754,207.276 643.786,205.103 640.5,202.453 L570.646,225.773 z"/>
    <g id="imagebot_186" transform="translate(-19, -9.98828) matrix(0.938704, -0.344723, 0.344723, 0.938704, -77.9868, 89.8004)">
      <path fill="#9a1212" d="M380.328,154.241C379.586,155.354 378.738,156.944 378.473,157.845C378.155,158.693 371.689,192.56 364.11,233.052C353.616,288.808 350.33,307.199 350.595,308.842C350.807,310.061 351.549,312.234 352.238,313.771C353.457,316.262 358.545,320.767 410.22,365.287C441.331,392.105 467.778,414.524 468.891,415.16C470.004,415.743 470.958,416.061 471.011,415.849C471.17,415.266 481.24,371.011 494.49,312.34C500.638,285.098 506.15,260.824 506.733,258.386C507.263,255.948 507.74,253.722 507.74,253.51C507.74,253.245 479.756,230.667 445.624,203.372C411.439,176.024 383.031,153.34 382.554,152.916C381.759,152.28 381.547,152.386 380.328,154.241z" id="imagebot_238"/>
      <path fill="#ce1919" d="M454.263,128.69501C400.256,144.48901 386.317,148.78201 384.568,150.00101C383.402,150.84901 382.395,151.80301 382.395,152.17401C382.395,152.49201 410.591,175.33501 445.041,202.89501L507.74,253.03301L565.086,234.21801C596.674,223.88301 629.958,212.96501 639.127,209.94401C648.296,206.92301 655.875,204.22001 655.981,203.90201C656.617,201.94101 651.317,197.80701 593.547,155.40701C560.793,131.39801 532.703,111.09901 531.11301,110.25101C525.76001,107.54801 528.88701,106.80601 454.26301,128.69501z" id="imagebot_237"/>
      <path fill="url(#imagebot_236)" d="M390.716,147.722 C389.391,148.093 387.165,148.729 385.946,149.259 C381.494,151.273 379.109,154.665 378.155,159.276 L377.678,161.82 L438.098,210.686 C471.435,237.61 499.79,260.135 501.115,260.824 L504.083,262.361 L508.853,263.209 L511.556,262.785 C516.803,261.884 519.93,255.1 517.598,249.588 C516.856,247.786 513.146,243.811 509.277,240.684 L390.716,147.722 z" id="imagebot_235"/>
      <path fill="url(#imagebot_234)" d="M497.511,258.121 L480.233,332.48 L462.425,409.86 L466.347,413.146 C469.792,416.22 471.435,416.75 475.251,416.803 C477.848,416.856 481.293,415.849 484.473,414.63 L519.665,257.856 L497.511,258.121 z" id="imagebot_233"/>
      <path fill="url(#imagebot_232)" d="M497.511,258.121 L518.499,262.944 L509.171,254.517 L497.511,258.121 z" id="imagebot_231"/>
      <path fill="url(#imagebot_230)" d="M497.511,258.121 L507.316,247.203 L509.224,254.57 L497.511,258.121 z" id="imagebot_229"/>
      <path fill="url(#imagebot_228)" d="M515.054,252.768 L507.316,247.256 L509.171,254.57 L515.054,252.768 z" id="imagebot_227"/>
      <path fill="url(#imagebot_226)" d="M515.054,252.715 L518.499,262.944 L509.171,254.57 L515.054,252.715 z" id="imagebot_225"/>
      <path fill="url(#imagebot_224)" d="M511.556,242.592 L507.316,247.256 L515.054,252.768 L511.556,242.592 z" id="imagebot_223"/>
      <circle fill="url(#imagebot_222)" transform="matrix(0.053,0,0,-0.053,0,430)" cx="9607" cy="3310" r="201" id="imagebot_221"/>
      <g fill="url(#imagebot_208)" transform="matrix(0.053,0,0,-0.053,0,430)" id="imagebot_207">
        <path fill="url(#imagebot_220)" d="M9671,5805C9565,5775 9513,5719 9526,5651C9543,5570 9684,5468 9836,5430C9933,5405 10084,5403 10160,5426C10227,5446 10290,5504 10290,5545C10290,5641 10156,5747 9975,5795C9887,5819 9737,5823 9671,5805z" id="imagebot_219"/>
        <path fill="url(#imagebot_218)" d="M8075,5333C7990,5314 7928,5269 7910,5214C7878,5117 8020,4990 8219,4939C8317,4913 8464,4911 8543,4934C8604,4952 8666,4998 8681,5038C8718,5135 8572,5270 8374,5320C8301,5339 8133,5346 8075,5333z" id="imagebot_217"/>
        <path fill="url(#imagebot_216)" d="M10405,5293C10262,5261 10203,5191 10240,5096C10264,5033 10400,4941 10520,4906C10765,4835 11000,4895 11000,5028C11000,5099 10891,5202 10766,5249C10656,5290 10485,5311 10405,5293z" id="imagebot_215"/>
        <path fill="url(#imagebot_214)" d="M8797,4800C8770,4795 8723,4779 8693,4765C8537,4688 8585,4536 8795,4435C8890,4389 8986,4368 9100,4367C9220,4366 9297,4389 9352,4440C9385,4472 9390,4483 9390,4521C9390,4615 9299,4703 9141,4760C9023,4803 8902,4817 8797,4800z" id="imagebot_213"/>
        <path fill="url(#imagebot_212)" d="M11130,4760C11013,4739 10950,4689 10950,4619C10950,4569 10967,4535 11017,4489C11127,4384 11316,4322 11489,4333C11598,4340 11645,4356 11692,4401C11723,4430 11730,4444 11730,4474C11730,4581 11605,4685 11411,4739C11327,4762 11194,4772 11130,4760z" id="imagebot_211"/>
        <path fill="url(#imagebot_210)" d="M9463,4236C9367,4206 9320,4156 9320,4085C9320,4035 9340,4001 9401,3946C9508,3850 9645,3805 9830,3805C9939,3805 9962,3808 10006,3828C10144,3890 10157,3998 10038,4105C9935,4197 9776,4250 9606,4249C9550,4249 9486,4243 9463,4236z" id="imagebot_209"/>
      </g>
      <g fill="url(#imagebot_200)" transform="matrix(0.053,0,0,-0.053,0,430)" id="imagebot_199">
        <path fill="url(#imagebot_206)" d="M11842,3682C11589,3592 11374,3206 11496,3060C11598,2939 11865,3084 11995,3332C12118,3566 12037,3751 11842,3682z" id="imagebot_205"/>
        <path fill="url(#imagebot_204)" d="M10785,2491C10635,2420 10498,2253 10455,2089C10435,2017 10437,1973 10459,1923C10484,1868 10526,1846 10594,1852C10741,1864 10911,2011 11001,2205C11060,2331 11050,2469 10979,2505C10932,2530 10853,2524 10785,2491z" id="imagebot_203"/>
        <path fill="url(#imagebot_202)" d="M9760,1314C9561,1215 9392,947 9430,789C9452,697 9527,664 9636,698C9869,771 10089,1102 10016,1273C9994,1326 9966,1344 9897,1348C9841,1351 9827,1348 9760,1314z" id="imagebot_201"/>
      </g>
      <g fill="url(#imagebot_188)" transform="matrix(0.053,0,0,-0.053,0,430)" id="imagebot_187">
        <path fill="url(#imagebot_198)" d="M7830,3088C7796,3070 7778,3052 7755,3010C7696,2901 7712,2698 7791,2550C7881,2381 8034,2297 8131,2363C8207,2414 8234,2489 8228,2635C8221,2790 8167,2921 8067,3020C7986,3102 7903,3126 7830,3088z" id="imagebot_197"/>
        <path fill="url(#imagebot_196)" d="M7006,2780C6929,2757 6880,2659 6880,2532C6880,2434 6899,2357 6950,2255C7035,2080 7181,1996 7281,2063C7393,2136 7400,2390 7297,2585C7250,2672 7164,2755 7099,2774C7040,2792 7046,2791 7006,2780z" id="imagebot_195"/>
        <path fill="url(#imagebot_194)" d="M8335,1630C8305,1618 8263,1570 8245,1526C8167,1339 8293,995 8472,906C8607,839 8712,905 8740,1075C8773,1276 8637,1558 8475,1626C8438,1641 8367,1644 8335,1630z" id="imagebot_193"/>
        <path fill="url(#imagebot_192)" d="M8725,3428C8649,3387 8610,3312 8603,3194C8592,3039 8651,2874 8756,2760C8823,2688 8877,2660 8951,2660C9024,2660 9069,2691 9106,2766C9224,3007 9022,3441 8793,3440C8767,3440 8736,3434 8725,3428z" id="imagebot_191"/>
        <path fill="url(#imagebot_190)" d="M7305,4528C7258,4487 7233,4437 7220,4357C7195,4198 7262,3996 7379,3879C7494,3764 7618,3768 7683,3888C7767,4043 7718,4309 7576,4467C7518,4531 7461,4560 7392,4560C7349,4560 7335,4555 7305,4528z" id="imagebot_189"/>
      </g>
    </g>
    <title>imagebot_185</title>
  </g>
  <g id="imagebot_135">
    <path transform="translate(-19, -9.98828) matrix(1, 0, 0, 1, 0, 20)" fill="url(#imagebot_184)" id="imagebot_183" d="M127.492,163.746 C126.167,164.117 123.941,164.753 122.722,165.283 C118.27,167.297 115.885,170.689 114.931,175.3 L114.454,177.844 L174.874,226.71 C208.211,253.634 236.566,276.159 237.891,276.848 L240.859,278.385 L245.629,279.233 L248.332,278.809 C253.579,277.908 256.706,271.124 254.374,265.612 C253.632,263.81 249.922,259.835 246.053,256.708 L127.492,163.746 z"/>
    <path transform="translate(-19, -9.98828) matrix(1, 0, 0, 1, 0, 20)" fill="url(#imagebot_182)" id="imagebot_181" d="M234.287,274.145 L255.275,278.968 L245.947,270.541 L234.287,274.145 z"/>
    <path transform="translate(-19, -9.98828) matrix(1, 0, 0, 1, 0, 20)" fill="url(#imagebot_180)" id="imagebot_179" d="M234.287,274.145 L244.092,263.227 L246,270.594 L234.287,274.145 z"/>
    <path transform="translate(-19, -9.98828) matrix(1, 0, 0, 1, 0, 20)" fill="url(#imagebot_178)" id="imagebot_177" d="M251.83,268.792 L244.092,263.28 L245.947,270.594 L251.83,268.792 z"/>
    <path transform="translate(-19, -9.98828) matrix(1, 0, 0, 1, 0, 20)" fill="url(#imagebot_176)" id="imagebot_175" d="M251.83,268.739 L255.275,278.968 L245.947,270.594 L251.83,268.739 z"/>
    <path transform="translate(-19, -9.98828) matrix(1, 0, 0, 1, 0, 20)" fill="url(#imagebot_174)" id="imagebot_173" d="M248.332,258.616 L244.092,263.28 L251.83,268.792 L248.332,258.616 z"/>
    <circle fill="url(#imagebot_172)" id="imagebot_171" r="201" cy="3310" cx="9607" transform="translate(-19, -9.98828) matrix(0.053, 0, 0, -0.053, -263.224, 466.024)"/>
    <path transform="translate(-19, -9.98828) matrix(1, 0, 0, 1, 0, 20)" fill="#8c1111" id="imagebot_170" d="M193.718,15.4052 C193.559,15.6701 191.492,22.1362 189.107,29.8741 C182.588,51.0742 180.15,58.8121 178.507,64.0592 C177.712,66.6562 176.175,71.6911 175.062,75.1891 C174.002,78.6871 171.352,87.1672 169.232,94.0042 C167.112,100.841 161.706,118.119 157.307,132.429 C152.855,146.686 147.608,163.646 145.594,170.112 C143.58,176.578 141.937,182.09 141.937,182.355 C141.937,182.885 150.364,188.609 227.903,240.496 L272.847,270.494 L274.331,268.427 C275.179,267.261 276.133,265.618 276.451,264.823 C276.769,264.028 287.21,229.578 299.665,188.344 C324.787,105.187 323.674,109.639 320.865,103.862 C320.017,102.113 318.533,100.205 317.208,99.1451 C312.173,95.1171 200.608,17.0481 198.541,16.0941 C196.156,15.0341 194.089,14.7161 193.718,15.4051 L193.718,15.4052 z"/>
    <path transform="translate(-19, -9.98828) matrix(1, 0, 0, 1, 0, 20)" fill="#cd1919" id="imagebot_169" d="M190.697,14.8751 C187.146,15.5641 80.9869,37.9301 79.3439,38.3541 C76.7999,39.0432 73.3549,41.6401 71.7649,44.0252 C69.8039,46.9931 19.4539,194.227 19.1359,197.99 C18.8709,200.852 18.9239,201.064 19.9309,201.064 C20.5139,201.064 28.2519,200.004 37.1029,198.679 C45.9539,197.354 72.9309,193.432 97.0989,189.987 C121.214,186.489 141.089,183.521 141.248,183.362 C141.566,183.097 145.488,170.536 157.307,132.429 C161.706,118.119 167.112,100.841 169.232,94.0041 C171.352,87.1671 174.002,78.6871 175.062,75.1891 C176.175,71.6911 177.712,66.6561 178.507,64.0591 C184.867,43.7071 193.453,15.8291 193.559,15.3521 C193.612,14.7161 192.499,14.5571 190.697,14.8751 L190.697,14.8751 z"/>
    <path transform="translate(-19, -9.98828) matrix(1, 0, 0, 1, 0, 20)" fill="#470808" id="imagebot_168" d="M141.301,183.309 C141.142,183.521 123.705,186.118 102.664,189.192 C46.2189,197.301 19.8249,201.17 19.5599,201.382 C19.4539,201.488 19.6129,202.548 19.9839,203.714 C21.4149,208.484 21.8919,208.802 85.8629,247.651 C124.023,270.812 147.078,284.539 148.615,284.91 C150.841,285.546 157.307,284.963 208.346,279.822 C240.623,276.589 266.54,273.727 267.759,273.303 C270.568,272.349 272.741,270.706 272.052,270.07 C271.787,269.805 249.474,254.859 222.497,236.839 C195.52,218.819 166.582,199.421 158.208,193.803 C142.361,183.15 141.831,182.779 141.301,183.309 L141.301,183.309 z"/>
    <path transform="translate(-19, -9.98828) matrix(1, 0, 0, 1, 0, 20)" fill="url(#imagebot_167)" id="imagebot_166" d="M136.849,195.022 L263.307,273.939 C271.204,273.038 273.801,271.766 277.193,262.438 L150.947,180.023 L136.849,195.022 z"/>
    <path transform="translate(-19, -9.98828) matrix(1, 0, 0, 1, 0, 20)" fill="url(#imagebot_165)" id="imagebot_164" d="M131.973,176.684 L151.954,180.712 L203.523,19.4331 C195.096,13.9741 194.46,14.0271 185.132,16.0411 L131.973,176.684 z"/>
    <path transform="translate(-19, -9.98828) matrix(1, 0, 0, 1, 0, 20)" fill="url(#imagebot_163)" id="imagebot_162" d="M20.8319,192.16 C17.2279,203.873 19.7189,206.046 26.2379,210.657 L138.121,195.87 L132.185,176.101 L20.8319,192.16 z"/>
    <path transform="translate(-19, -9.98828) matrix(1, 0, 0, 1, 0, 20)" fill="url(#imagebot_161)" id="imagebot_160" d="M147.184,186.118 L135.047,186.065 L142.043,178.327 L147.184,186.118 z"/>
    <path transform="translate(-19, -9.98828) matrix(1, 0, 0, 1, 0, 20)" fill="url(#imagebot_159)" id="imagebot_158" d="M132.132,176.101 L135.1,186.012 L142.043,178.38 L132.132,176.101 z"/>
    <path transform="translate(-19, -9.98828) matrix(1, 0, 0, 1, 0, 20)" fill="url(#imagebot_157)" id="imagebot_156" d="M151.954,180.712 L147.131,186.065 L142.043,178.38 L151.954,180.712 z"/>
    <path transform="translate(-19, -9.98828) matrix(1, 0, 0, 1, 0, 20)" fill="url(#imagebot_155)" id="imagebot_154" d="M138.068,195.87 L147.131,186.065 L135.1,186.012 L138.068,195.87 z"/>
    <path transform="translate(-19, -9.98828) matrix(1, 0, 0, 1, 0, 20)" fill="url(#imagebot_153)" id="imagebot_152" d="M135.1,186.012 L142.043,178.38 L140.718,184.263 L135.1,186.012 z"/>
    <path transform="translate(-19, -9.98828) matrix(1, 0, 0, 1, 0, 20)" fill="url(#imagebot_151)" id="imagebot_150" d="M147.131,186.065 L142.043,178.38 L140.665,184.263 L147.131,186.065 z"/>
    <path transform="translate(-19, -9.98828) matrix(1, 0, 0, 1, 0, 20)" fill="url(#imagebot_149)" id="imagebot_148" d="M147.131,186.065 L135.1,186.012 L140.718,184.21 L147.131,186.065 z"/>
    <path transform="translate(-19, -9.98828) matrix(1, 0, 0, 1, 0, 20)" fill="url(#imagebot_147)" id="imagebot_146" d="M233.41489,124.32015C230.34089,125.16815 226.10089,129.51415 224.56389,133.48915C222.81489,138.04715 222.81489,146.36815 224.61689,150.97915C227.63789,158.82315 232.40789,163.27515 238.44989,163.85815C246.02889,164.60015 252.12389,157.55115 252.60089,147.53415C252.70689,144.99015 252.54789,141.65115 252.17689,139.95515C250.69289,132.80015 245.44589,126.12215 239.98689,124.53215C236.80689,123.57815 236.32989,123.57815 233.41489,124.32015z"/>
    <g transform="translate(-19, -9.98828) matrix(1, 0, 0, 1, 0, 20)" id="imagebot_141">
      <path fill="url(#imagebot_145)" id="imagebot_144" d="M85.22689,51.39215C77.70089,55.68515 71.18189,64.96015 69.75089,73.44015C69.00889,77.68015 69.48589,80.33015 71.44689,82.50315C72.77189,84.04015 73.24889,84.19915 75.79289,84.19915C80.72189,84.14615 86.71089,79.69415 91.32189,72.75115C96.93989,64.32415 98.37089,55.47315 94.76689,51.60415C93.49489,50.22615 92.91189,50.01415 90.42089,50.01415C88.40689,50.01415 86.97589,50.38515 85.22689,51.39215z"/>
      <path fill="url(#imagebot_143)" id="imagebot_142" d="M125.50689,133.70116C119.04089,135.66216 110.87889,144.77816 108.06989,153.09916C105.84389,159.83016 106.10889,164.54716 108.97089,167.72716C114.21789,173.55716 126.83189,165.76616 132.66189,153.09916C135.84189,146.26216 136.37189,140.11416 134.19889,136.40416C132.60889,133.75416 129.05789,132.64116 125.50689,133.70116z"/>
    </g>
    <g transform="translate(-19, -9.98828) matrix(1, 0, 0, 1, 0, 20)" id="imagebot_136">
      <path fill="url(#imagebot_140)" id="imagebot_139" d="M62.76489,214.29715C58.04789,215.41015 57.57089,217.79515 61.17489,221.66415C66.42189,227.28215 79.88389,232.26415 89.84789,232.26415C99.49389,232.26415 100.55389,227.54715 92.17989,221.98215C83.91189,216.47015 69.33689,212.65415 62.76489,214.29715z"/>
      <path fill="url(#imagebot_138)" id="imagebot_137" d="M193.33688,251.48415C191.16388,252.01415 189.62688,253.71015 189.99788,255.19415C190.47488,256.94315 195.08588,260.70615 199.32588,262.77315C205.36788,265.74115 211.83388,267.43715 218.03488,267.75515C224.55388,268.12615 226.72688,267.33115 226.72688,264.62815C226.72688,260.12315 213.47688,253.18015 201.60488,251.53715C196.99388,250.90115 195.98688,250.90115 193.33688,251.48415z"/>
    </g>
    <title>imagebot_135</title>
  </g>
  <g id="imagebot_100">
    <path transform="translate(-19, -9.98828) matrix(1, 0, 0, 1, 526, -100)" fill="#57570a" id="imagebot_134" d="M346.27567,235.61414C320.78267,244.04114 287.49866,254.95914 272.28767,259.94114L244.72767,269.00414L243.82667,272.82015C243.34967,274.94015 237.67867,299.95614 231.26567,328.36414C224.85267,356.77215 216.95567,391.69914 213.72267,405.95614C208.89967,427.10314 207.94567,431.92614 208.52867,432.29714C208.95267,432.56214 210.86067,432.77414 212.82167,432.77414C216.26667,432.77414 219.18167,431.71414 282.46367,408.07614C324.65167,392.28215 349.40267,382.74214 350.93966,381.68214C352.31766,380.78114 354.06666,378.97915 354.86166,377.65414C355.97466,375.79914 360.53266,359.10414 375.42566,301.86414C385.91966,261.47814 394.18766,230.89714 394.24066,226.33914C394.24066,223.95414 393.60466,220.24414 393.02166,220.29714C392.80966,220.29714 371.76866,227.24014 346.27567,235.61414z"/>
    <path transform="translate(-19, -9.98828) matrix(1, 0, 0, 1, 526, -100)" fill="#9a9a12" id="imagebot_133" d="M117.104,170.265 C116.362,171.378 115.514,172.968 115.249,173.869 C114.931,174.717 108.465,208.584 100.886,249.076 C90.3917,304.832 87.1057,323.223 87.3707,324.866 C87.5827,326.085 88.3247,328.258 89.0137,329.795 C90.2327,332.286 95.3207,336.791 146.996,381.311 C178.107,408.129 204.554,430.548 205.667,431.184 C206.78,431.767 207.734,432.085 207.787,431.873 C207.946,431.29 218.016,387.035 231.266,328.364 C237.414,301.122 242.926,276.848 243.509,274.41 C244.039,271.972 244.516,269.746 244.516,269.534 C244.516,269.269 216.532,246.691 182.4,219.396 C148.215,192.048 119.807,169.364 119.33,168.94 C118.535,168.304 118.323,168.41 117.104,170.265 L117.104,170.265 z"/>
    <path transform="translate(-19, -9.98828) matrix(1, 0, 0, 1, 526, -100)" fill="#cece19" id="imagebot_132" d="M191.039,144.719 C137.032,160.513 123.093,164.806 121.344,166.025 C120.178,166.873 119.171,167.827 119.171,168.198 C119.171,168.516 147.367,191.359 181.817,218.919 L244.516,269.057 L301.862,250.242 C333.45,239.907 366.734,228.989 375.903,225.968 C385.072,222.947 392.651,220.244 392.757,219.926 C393.393,217.965 388.093,213.831 330.323,171.431 C297.569,147.422 269.479,127.123 267.889,126.275 C262.536,123.572 265.663,122.83 191.039,144.719 L191.039,144.719 z"/>
    <path transform="translate(-19, -9.98828) matrix(1, 0, 0, 1, 526, -100)" fill="url(#imagebot_131)" id="imagebot_130" d="M234.287,274.145 L217.009,348.504 L199.201,425.884 L203.123,429.17 C206.568,432.244 208.211,432.774 212.027,432.827 C214.624,432.88 218.069,431.873 221.249,430.654 L256.441,273.88 L234.287,274.145 z"/>
    <path transform="translate(-19, -9.98828) matrix(1, 0, 0, 1, 526, -100)" fill="url(#imagebot_129)" id="imagebot_128" d="M315.695,235.773 C277.482,248.652 248.544,258.457 248.332,258.616 L250.293,269.481 L255.116,279.021 L324.228,255.86 L393.075,232.593 L393.764,229.837 C394.771,225.226 394.347,222.894 393.022,219.661 C391.803,217.276 388.835,215.103 385.549,212.453 L315.695,235.773 z"/>
    <g fill="url(#imagebot_115)" id="imagebot_114" transform="translate(-19, -9.98828) matrix(0.053, 0, 0, -0.053, 262.776, 346.024)">
      <path fill="url(#imagebot_127)" id="imagebot_126" d="M9671,5805C9565,5775 9513,5719 9526,5651C9543,5570 9684,5468 9836,5430C9933,5405 10084,5403 10160,5426C10227,5446 10290,5504 10290,5545C10290,5641 10156,5747 9975,5795C9887,5819 9737,5823 9671,5805z"/>
      <path fill="url(#imagebot_125)" id="imagebot_124" d="M8075,5333C7990,5314 7928,5269 7910,5214C7878,5117 8020,4990 8219,4939C8317,4913 8464,4911 8543,4934C8604,4952 8666,4998 8681,5038C8718,5135 8572,5270 8374,5320C8301,5339 8133,5346 8075,5333z"/>
      <path fill="url(#imagebot_123)" id="imagebot_122" d="M10405,5293C10262,5261 10203,5191 10240,5096C10264,5033 10400,4941 10520,4906C10765,4835 11000,4895 11000,5028C11000,5099 10891,5202 10766,5249C10656,5290 10485,5311 10405,5293z"/>
      <path fill="url(#imagebot_121)" id="imagebot_120" d="M8797,4800C8770,4795 8723,4779 8693,4765C8537,4688 8585,4536 8795,4435C8890,4389 8986,4368 9100,4367C9220,4366 9297,4389 9352,4440C9385,4472 9390,4483 9390,4521C9390,4615 9299,4703 9141,4760C9023,4803 8902,4817 8797,4800z"/>
      <path fill="url(#imagebot_119)" id="imagebot_118" d="M11130,4760C11013,4739 10950,4689 10950,4619C10950,4569 10967,4535 11017,4489C11127,4384 11316,4322 11489,4333C11598,4340 11645,4356 11692,4401C11723,4430 11730,4444 11730,4474C11730,4581 11605,4685 11411,4739C11327,4762 11194,4772 11130,4760z"/>
      <path fill="url(#imagebot_117)" id="imagebot_116" d="M9463,4236C9367,4206 9320,4156 9320,4085C9320,4035 9340,4001 9401,3946C9508,3850 9645,3805 9830,3805C9939,3805 9962,3808 10006,3828C10144,3890 10157,3998 10038,4105C9935,4197 9776,4250 9606,4249C9550,4249 9486,4243 9463,4236z"/>
    </g>
    <path transform="translate(-19, -9.98828) matrix(1, 0, 0, 1, 526, -100)" fill="url(#imagebot_113)" d="M364.40167,250.87814C350.99267,255.64814 339.59767,276.10614 346.06367,283.84414C351.46967,290.25714 365.62067,282.57214 372.51067,269.42814C379.02967,257.02614 374.73667,247.22114 364.40167,250.87814z" id="imagebot_112"/>
    <path transform="translate(-19, -9.98828) matrix(1, 0, 0, 1, 526, -100)" fill="url(#imagebot_111)" d="M254.05566,376.38214C243.50866,381.62914 234.55166,395.83314 236.56566,404.20714C237.73166,409.08314 241.70666,410.83214 247.48366,409.03014C259.83266,405.16114 271.49267,387.61814 267.62366,378.55514C266.45766,375.74614 264.97366,374.79214 261.31666,374.58014C258.34866,374.42114 257.60666,374.58014 254.05566,376.38214z" id="imagebot_110"/>
    <g transform="translate(-19, -9.98828) matrix(1, 0, 0, 1, 526, -100)" id="imagebot_101">
      <path fill="url(#imagebot_109)" id="imagebot_108" d="M108.09367,298.68414C104.01267,299.90314 101.41567,305.09714 101.41567,311.82814C101.41567,317.02214 102.42267,321.10314 105.12567,326.50914C109.63067,335.78414 117.36867,340.23614 122.66867,336.68514C128.60467,332.81614 128.97567,319.35414 123.51667,309.01914C121.02567,304.40814 116.46767,300.00914 113.02267,299.00214C109.89567,298.04814 110.21367,298.10114 108.09367,298.68414z"/>
      <path fill="url(#imagebot_107)" id="imagebot_106" d="M178.53067,359.63412C176.94067,360.27012 174.71467,362.81412 173.76067,365.14612C169.62667,375.05713 176.30467,393.28912 185.79167,398.00613C192.94667,401.55713 198.51167,398.05913 199.99567,389.04913C201.74467,378.39613 194.53667,363.45012 185.95067,359.84613C183.98967,359.05113 180.22667,358.89213 178.53067,359.63413z"/>
      <path fill="url(#imagebot_105)" id="imagebot_104" d="M199.20067,264.34015C195.17267,266.51315 193.10567,270.48815 192.73467,276.74215C192.15167,284.95715 195.27867,293.70215 200.84367,299.74415C204.39467,303.56015 207.25667,305.04415 211.17867,305.04415C215.04767,305.04415 217.43267,303.40115 219.39367,299.42615C225.64767,286.65315 214.94167,263.65115 202.80467,263.70415C201.42667,263.70415 199.78367,264.02215 199.20067,264.34015z"/>
      <path fill="url(#imagebot_103)" id="imagebot_102" d="M123.94067,206.04015C121.44967,208.21315 120.12467,210.86315 119.43567,215.10315C118.11067,223.53015 121.66167,234.23615 127.86267,240.43715C133.95767,246.53215 140.52967,246.32015 143.97467,239.96015C148.42667,231.74515 145.82967,217.64715 138.30367,209.27314C135.22967,205.88115 132.20867,204.34415 128.55167,204.34415C126.27267,204.34415 125.53067,204.60915 123.94067,206.04015z"/>
    </g>
    <title>imagebot_100</title>
  </g>
  <g id="imagebot_58">
    <path transform="translate(-19, -9.98828) matrix(0.784097, 0.11466, -0.11466, 0.784097, 339.713, 20.3824)" fill="#118c1f" id="imagebot_99" d="M534.56738,80.90942C534.35197,81.26842 531.55165,90.02842 528.32051,100.51163C519.48874,129.23283 516.1858,139.71613 513.9599,146.82463C512.88286,150.34293 510.80057,157.16423 509.2927,161.90323C507.85664,166.64223 504.26649,178.13073 501.39437,187.39333C498.52224,196.65593 491.19833,220.06373 485.23868,239.45053C479.20722,258.76553 472.09872,281.74253 469.3702,290.50253C466.64169,299.26253 464.41579,306.73003 464.41579,307.08903C464.41579,307.80703 475.83248,315.56183 580.88035,385.85703L641.76935,426.49752L643.77983,423.69722C644.92868,422.11752 646.22114,419.89162 646.65196,418.81462C647.08277,417.73752 661.22798,371.06552 678.1017,315.20282C712.13635,202.54383 710.62848,208.57522 706.82292,200.74872C705.67407,198.37922 703.66358,195.79432 701.86851,194.35822C695.04722,188.90122 543.90178,83.13532 541.10147,81.84282C537.87033,80.40672 535.07001,79.97592 534.56739,80.90942z"/>
    <path transform="translate(-19, -9.98828) matrix(0.784097, 0.11466, -0.11466, 0.784097, 339.713, 20.3824)" fill="#18ce2e" id="imagebot_98" d="M530.475,80.1913 C525.664,81.1248 381.842,111.426 379.616,112 C376.17,112.934 371.503,116.452 369.349,119.683 C366.692,123.704 298.479,323.173 298.048,328.271 C297.689,332.148 297.761,332.436 299.125,332.436 C299.915,332.436 310.398,330.999 322.389,329.204 C334.38,327.409 370.928,322.096 403.67,317.429 C436.341,312.69 463.267,308.669 463.482,308.453 C463.913,308.094 469.227,291.077 485.239,239.451 C491.198,220.064 498.522,196.656 501.394,187.393 C504.266,178.131 507.857,166.642 509.293,161.903 C510.801,157.164 512.883,150.343 513.96,146.825 C522.576,119.252 534.208,81.4838 534.352,80.8376 C534.424,79.9759 532.916,79.7605 530.475,80.1913 L530.475,80.1913 z"/>
    <path transform="translate(-19, -9.98828) matrix(0.784097, 0.11466, -0.11466, 0.784097, 339.713, 20.3824)" fill="#08470f" id="imagebot_97" d="M463.55414,308.38153C463.33874,308.66873 439.71553,312.18703 411.20971,316.35163C334.73946,327.33753 298.98153,332.57913 298.62252,332.86633C298.47891,333.00993 298.69432,334.44603 299.19694,336.02563C301.13563,342.48793 301.78185,342.91873 388.44815,395.55043C440.14635,426.92833 471.38069,445.52533 473.46297,446.02793C476.4787,446.88963 485.23867,446.09973 554.38501,439.13483C598.11308,434.75483 633.22477,430.87753 634.87624,430.30313C638.68181,429.01063 641.62573,426.78473 640.69229,425.92313C640.33328,425.56413 610.10419,405.31563 573.55643,380.90253C537.00867,356.48953 497.8042,330.20963 486.45933,322.59853C464.99021,308.16613 464.27219,307.66343 463.55415,308.38153z"/>
    <path transform="translate(-19, -9.98828) matrix(0.784097, 0.11466, -0.11466, 0.784097, 339.713, 20.3824)" fill="url(#imagebot_96)" id="imagebot_95" d="M457.52267,324.24994L628.84477,431.16474C639.54342,429.94404 643.06177,428.22084 647.65717,415.58344L476.62228,303.92974L457.52267,324.24994z"/>
    <path transform="translate(-19, -9.98828) matrix(0.784097, 0.11466, -0.11466, 0.784097, 339.713, 20.3824)" fill="url(#imagebot_94)" id="imagebot_93" d="M450.91681,299.40613L477.98656,304.86313L547.85094,86.36642C536.43425,78.97072 535.57261,79.04252 522.93527,81.77102L450.91681,299.40613z"/>
    <path transform="translate(-19, -9.98828) matrix(0.784097, 0.11466, -0.11466, 0.784097, 339.713, 20.3824)" fill="url(#imagebot_92)" id="imagebot_91" d="M300.34579,320.37262C295.46318,336.24102 298.83793,339.18502 307.6697,345.43182L459.24597,325.39882L451.20403,298.61622L300.3458,320.37262z"/>
    <path transform="translate(-19, -9.98828) matrix(0.784097, 0.11466, -0.11466, 0.784097, 339.713, 20.3824)" fill="url(#imagebot_90)" id="imagebot_89" d="M471.52426,312.18704L455.08136,312.11524L464.55937,301.63204L471.52426,312.18704z"/>
    <path transform="translate(-19, -9.98828) matrix(0.784097, 0.11466, -0.11466, 0.784097, 339.713, 20.3824)" fill="url(#imagebot_88)" id="imagebot_87" d="M451.1322,298.61624L455.15317,312.04344L464.55937,301.70384L451.1322,298.61624z"/>
    <path transform="translate(-19, -9.98828) matrix(0.784097, 0.11466, -0.11466, 0.784097, 339.713, 20.3824)" fill="url(#imagebot_86)" id="imagebot_85" d="M477.98654,304.86313L471.45246,312.11523L464.55937,301.70383L477.98654,304.86313z"/>
    <path transform="translate(-19, -9.98828) matrix(0.784097, 0.11466, -0.11466, 0.784097, 339.713, 20.3824)" fill="url(#imagebot_84)" id="imagebot_83" d="M459.17416,325.39883L471.45248,312.11523L455.15319,312.04343L459.17416,325.39883z"/>
    <path transform="translate(-19, -9.98828) matrix(0.784097, 0.11466, -0.11466, 0.784097, 339.713, 20.3824)" fill="url(#imagebot_82)" id="imagebot_81" d="M455.09006,312.04343L464.49626,301.70383L462.70118,309.67393L455.09006,312.04343z"/>
    <path transform="translate(-19, -9.98828) matrix(0.784097, 0.11466, -0.11466, 0.784097, 339.713, 20.3824)" fill="url(#imagebot_80)" id="imagebot_79" d="M471.45248,312.11523L464.55939,301.70383L462.69251,309.67393L471.45248,312.11523z"/>
    <path transform="translate(-19, -9.98828) matrix(0.784097, 0.11466, -0.11466, 0.784097, 339.713, 20.3824)" fill="url(#imagebot_78)" id="imagebot_77" d="M471.45248,312.11523L455.15319,312.04343L462.76431,309.60213L471.45249,312.11523z"/>
    <path transform="translate(-19, -9.98828) matrix(0.784097, 0.11466, -0.11466, 0.784097, 339.713, 20.3824)" fill="url(#imagebot_76)" id="imagebot_75" d="M588.34784,228.46474C584.18326,229.61354 578.43902,235.50144 576.35673,240.88664C573.98723,247.06164 573.98723,258.33474 576.42853,264.58164C580.52131,275.20844 586.98358,281.23994 595.16913,282.02974C605.43697,283.03504 613.69432,273.48524 614.34055,259.91444C614.48415,256.46784 614.26875,251.94434 613.76612,249.64664C611.75564,239.95314 604.64714,230.90604 597.25142,228.75194C592.94324,227.45944 592.29701,227.45944 588.34784,228.46474z"/>
    <g fill="url(#imagebot_66)" id="imagebot_65" transform="translate(-19, -9.98828) matrix(0.0563006, 0.00823292, 0.00823292, -0.0563006, 485.485, 556.354)">
      <path fill="url(#imagebot_74)" id="imagebot_73" d="M2864,7432C2652,7358 2461,7020 2534,6845C2564,6774 2646,6758 2746,6804C2814,6835 2928,6947 2978,7031C3081,7206 3085,7394 2986,7435C2941,7454 2927,7453 2864,7432z"/>
      <path fill="url(#imagebot_72)" id="imagebot_71" d="M1500,7144C1358,7063 1235,6888 1208,6728C1194,6648 1203,6598 1240,6557C1265,6528 1274,6525 1322,6525C1415,6526 1528,6610 1615,6741C1721,6900 1748,7067 1680,7140C1656,7166 1645,7170 1598,7170C1560,7170 1533,7163 1500,7144z"/>
      <path fill="url(#imagebot_70)" id="imagebot_69" d="M2260,5591C2138,5554 1984,5382 1931,5225C1889,5098 1894,5009 1948,4949C2047,4839 2285,4986 2395,5225C2455,5354 2465,5470 2424,5540C2394,5590 2327,5611 2260,5591z"/>
      <path fill="url(#imagebot_68)" id="imagebot_67" d="M925,5368C764,5310 604,5079 592,4889C589,4830 592,4805 605,4776C693,4590 1025,4833 1096,5136C1136,5309 1057,5415 925,5368z"/>
    </g>
    <g fill="url(#imagebot_60)" id="imagebot_59" transform="translate(-19, -9.98828) matrix(0.0563006, 0.00823292, 0.00823292, -0.0563006, 485.485, 556.354)">
      <path fill="url(#imagebot_64)" id="imagebot_63" d="M2246,4259C2157,4238 2148,4193 2216,4120C2315,4014 2569,3920 2757,3920C2939,3920 2959,4009 2801,4114C2645,4218 2370,4290 2246,4259z"/>
      <path fill="url(#imagebot_62)" id="imagebot_61" d="M2370,3180C2329,3170 2300,3138 2307,3110C2316,3077 2403,3006 2483,2967C2597,2911 2719,2879 2836,2873C2959,2866 3000,2881 3000,2932C3000,3017 2750,3148 2526,3179C2439,3191 2420,3191 2370,3180z"/>
    </g>
    <title>imagebot_58</title>
  </g>
  <g id="imagebot_2">
    <path transform="translate(-19, -9.98828) matrix(-0.779045, -0.145066, -0.145066, 0.779045, 583.558, -219.79)" fill="#2e0a57" id="imagebot_57" d="M368.47421,606.13806C333.93691,617.55466 288.84461,632.34616 268.23711,639.09566L230.89956,651.37396L229.67891,656.54376C229.03268,659.41586 221.34975,693.30696 212.66158,731.79336C203.97341,770.27977 193.27475,817.59807 188.89477,836.91306C182.36069,865.56246 181.06823,872.09656 181.85807,872.59916C182.43249,872.95816 185.0174,873.24536 187.67412,873.24536C192.34131,873.24536 196.29048,871.80936 282.02331,839.78516C339.17861,818.38786 372.71061,805.46326 374.79291,804.02726C376.65981,802.80656 379.02931,800.36526 380.10631,798.57026C381.61421,796.05706 387.78921,773.43916 407.96591,695.89186C422.18291,641.17786 433.38421,599.74756 433.45601,593.57247C433.45601,590.34137 432.59431,585.31517 431.80451,585.38697C431.51731,585.38697 403.01151,594.79317 368.47421,606.13807z"/>
    <path transform="translate(-19, -9.98828) matrix(-0.779045, -0.145066, -0.145066, 0.779045, 583.558, -219.79)" fill="#52119a" id="imagebot_56" d="M57.9978,517.60486C56.99256,519.11266 55.84371,521.26676 55.48469,522.48746C55.05388,523.63626 46.2939,569.51846 36.02607,624.37595C21.80906,699.91286 17.35727,724.82845 17.71629,727.05435C18.0035,728.70585 19.00874,731.64975 19.94218,733.73205C21.59365,737.10675 28.48674,743.21005 98.49473,803.52466C140.64312,839.85695 176.47285,870.22966 177.98071,871.09125C179.48858,871.88115 180.78103,872.31195 180.85284,872.02475C181.06824,871.23485 194.71083,811.27935 212.66159,731.79335C220.99075,694.88655 228.45826,662.00075 229.2481,658.69786C229.96613,655.39496 230.61236,652.37916 230.61236,652.09196C230.61236,651.73296 192.70034,621.14486 146.45917,584.16626C100.1462,547.11586 61.65976,516.38416 61.01353,515.80976C59.93648,514.94816 59.64927,515.09176 57.9978,517.60486z"/>
    <path transform="translate(-19, -9.98828) matrix(-0.779045, -0.145066, -0.145066, 0.779045, 583.558, -219.79)" fill="#6f19ce" id="imagebot_55" d="M158.16307,482.99576C84.99575,504.39306 66.11155,510.20916 63.74205,511.86056C62.16238,513.00946 60.79812,514.30186 60.79812,514.80456C60.79812,515.23536 98.99735,546.18246 145.66934,583.52006L230.61236,651.44575L308.30322,625.95565C351.09792,611.95405 396.19022,597.16265 408.61212,593.06985C421.03402,588.97705 431.30192,585.31515 431.44552,584.88435C432.30712,582.22755 425.12682,576.62695 346.86152,519.18456C302.48722,486.65776 264.43162,459.15715 262.27752,458.00826C255.02542,454.34636 259.26182,453.34106 158.16307,482.99575z"/>
    <path transform="translate(-19, -9.98828) matrix(-0.779045, -0.145066, -0.145066, 0.779045, 583.558, -219.79)" fill="url(#imagebot_54)" id="imagebot_53" d="M72.07121,508.77304C70.27613,509.27564 67.26041,510.13734 65.60894,510.85534C59.57748,513.58384 56.34634,518.17924 55.05389,524.42614L54.40766,527.87264L136.26315,594.07504C181.42727,630.55104 219.84191,661.06734 221.63698,662.00074L225.65795,664.08304L232.12023,665.23194L235.78219,664.65744C242.89069,663.43684 247.12707,654.24604 243.96773,646.77854C242.96249,644.33724 237.93628,638.95204 232.69465,634.71564L72.07121,508.77304z"/>
    <path transform="translate(-19, -9.98828) matrix(-0.779045, -0.145066, -0.145066, 0.779045, 583.558, -219.79)" fill="url(#imagebot_52)" id="imagebot_51" d="M216.75436,658.33887L193.34657,759.07857L169.22075,863.91096L174.53417,868.36276C179.20136,872.52736 181.42726,873.24536 186.59708,873.31716C190.11543,873.38896 194.78263,872.02476 199.09081,870.37326L246.76805,657.97986L216.75437,658.33886z"/>
    <path transform="translate(-19, -9.98828) matrix(-0.779045, -0.145066, -0.145066, 0.779045, 583.558, -219.79)" fill="url(#imagebot_50)" id="imagebot_49" d="M327.04382,606.35345C275.27382,623.80155 236.0694,637.08516 235.78218,637.30055L238.43889,652.02015L244.97297,664.94475L338.60412,633.56675L431.87632,602.04525L432.80972,598.31145C434.17402,592.06465 433.59962,588.90525 431.80452,584.52525C430.15302,581.29415 426.13212,578.35025 421.68032,574.76005L327.04382,606.35345z"/>
    <path transform="translate(-19, -9.98828) matrix(-0.779045, -0.145066, -0.145066, 0.779045, 583.558, -219.79)" fill="url(#imagebot_48)" id="imagebot_47" d="M216.75436,658.33887L245.18838,664.87297L232.55104,653.45627L216.75436,658.33887z"/>
    <path transform="translate(-19, -9.98828) matrix(-0.779045, -0.145066, -0.145066, 0.779045, 583.558, -219.79)" fill="url(#imagebot_46)" id="imagebot_45" d="M216.75436,658.33887L230.03793,643.54737L232.62284,653.52807L216.75436,658.33887z"/>
    <path transform="translate(-19, -9.98828) matrix(-0.779045, -0.145066, -0.145066, 0.779045, 583.558, -219.79)" fill="url(#imagebot_44)" id="imagebot_43" d="M240.52118,651.08673L230.03793,643.61923L232.55104,653.52803L240.52118,651.08673z"/>
    <path transform="translate(-19, -9.98828) matrix(-0.779045, -0.145066, -0.145066, 0.779045, 583.558, -219.79)" fill="url(#imagebot_42)" id="imagebot_41" d="M240.52118,651.01495L245.18838,664.87295L232.55104,653.52805L240.52118,651.01495z"/>
    <path transform="translate(-19, -9.98828) matrix(-0.779045, -0.145066, -0.145066, 0.779045, 583.558, -219.79)" fill="url(#imagebot_40)" id="imagebot_39" d="M235.78218,637.30054L230.03793,643.61924L240.52118,651.08674L235.78218,637.30054z"/>
    <circle fill="url(#imagebot_38)" id="imagebot_37" transform="translate(-19, -9.98828) matrix(-0.0559378, -0.0104162, 0.0104162, -0.0559378, 810.502, 540.824)" r="201" cy="3310" cx="9607"/>
    <g fill="url(#imagebot_24)" id="imagebot_23" transform="translate(-19, -9.98828) matrix(-0.0559378, -0.0104162, 0.0104162, -0.0559378, 810.502, 540.824)">
      <path fill="url(#imagebot_36)" id="imagebot_35" d="M9671,5805C9565,5775 9513,5719 9526,5651C9543,5570 9684,5468 9836,5430C9933,5405 10084,5403 10160,5426C10227,5446 10290,5504 10290,5545C10290,5641 10156,5747 9975,5795C9887,5819 9737,5823 9671,5805z"/>
      <path fill="url(#imagebot_34)" id="imagebot_33" d="M8075,5333C7990,5314 7928,5269 7910,5214C7878,5117 8020,4990 8219,4939C8317,4913 8464,4911 8543,4934C8604,4952 8666,4998 8681,5038C8718,5135 8572,5270 8374,5320C8301,5339 8133,5346 8075,5333z"/>
      <path fill="url(#imagebot_32)" id="imagebot_31" d="M10405,5293C10262,5261 10203,5191 10240,5096C10264,5033 10400,4941 10520,4906C10765,4835 11000,4895 11000,5028C11000,5099 10891,5202 10766,5249C10656,5290 10485,5311 10405,5293z"/>
      <path fill="url(#imagebot_30)" id="imagebot_29" d="M8797,4800C8770,4795 8723,4779 8693,4765C8537,4688 8585,4536 8795,4435C8890,4389 8986,4368 9100,4367C9220,4366 9297,4389 9352,4440C9385,4472 9390,4483 9390,4521C9390,4615 9299,4703 9141,4760C9023,4803 8902,4817 8797,4800z"/>
      <path fill="url(#imagebot_28)" id="imagebot_27" d="M11130,4760C11013,4739 10950,4689 10950,4619C10950,4569 10967,4535 11017,4489C11127,4384 11316,4322 11489,4333C11598,4340 11645,4356 11692,4401C11723,4430 11730,4444 11730,4474C11730,4581 11605,4685 11411,4739C11327,4762 11194,4772 11130,4760z"/>
      <path fill="url(#imagebot_26)" id="imagebot_25" d="M9463,4236C9367,4206 9320,4156 9320,4085C9320,4035 9340,4001 9401,3946C9508,3850 9645,3805 9830,3805C9939,3805 9962,3808 10006,3828C10144,3890 10157,3998 10038,4105C9935,4197 9776,4250 9606,4249C9550,4249 9486,4243 9463,4236z"/>
    </g>
    <g fill="url(#imagebot_16)" id="imagebot_15" transform="translate(-19, -9.98828) matrix(-0.0559378, -0.0104162, 0.0104162, -0.0559378, 810.502, 540.824)">
      <path fill="url(#imagebot_22)" id="imagebot_21" d="M11842,3682C11589,3592 11374,3206 11496,3060C11598,2939 11865,3084 11995,3332C12118,3566 12037,3751 11842,3682z"/>
      <path fill="url(#imagebot_20)" id="imagebot_19" d="M10785,2491C10635,2420 10498,2253 10455,2089C10435,2017 10437,1973 10459,1923C10484,1868 10526,1846 10594,1852C10741,1864 10911,2011 11001,2205C11060,2331 11050,2469 10979,2505C10932,2530 10853,2524 10785,2491z"/>
      <path fill="url(#imagebot_18)" id="imagebot_17" d="M9760,1314C9561,1215 9392,947 9430,789C9452,697 9527,664 9636,698C9869,771 10089,1102 10016,1273C9994,1326 9966,1344 9897,1348C9841,1351 9827,1348 9760,1314z"/>
    </g>
    <g fill="url(#imagebot_4)" id="imagebot_3" transform="translate(-19, -9.98828) matrix(-0.0559378, -0.0104162, 0.0104162, -0.0559378, 810.502, 540.824)">
      <path fill="url(#imagebot_14)" id="imagebot_13" d="M7830,3088C7796,3070 7778,3052 7755,3010C7696,2901 7712,2698 7791,2550C7881,2381 8034,2297 8131,2363C8207,2414 8234,2489 8228,2635C8221,2790 8167,2921 8067,3020C7986,3102 7903,3126 7830,3088z"/>
      <path fill="url(#imagebot_12)" id="imagebot_11" d="M7006,2780C6929,2757 6880,2659 6880,2532C6880,2434 6899,2357 6950,2255C7035,2080 7181,1996 7281,2063C7393,2136 7400,2390 7297,2585C7250,2672 7164,2755 7099,2774C7040,2792 7046,2791 7006,2780z"/>
      <path fill="url(#imagebot_10)" id="imagebot_9" d="M8335,1630C8305,1618 8263,1570 8245,1526C8167,1339 8293,995 8472,906C8607,839 8712,905 8740,1075C8773,1276 8637,1558 8475,1626C8438,1641 8367,1644 8335,1630z"/>
      <path fill="url(#imagebot_8)" id="imagebot_7" d="M8725,3428C8649,3387 8610,3312 8603,3194C8592,3039 8651,2874 8756,2760C8823,2688 8877,2660 8951,2660C9024,2660 9069,2691 9106,2766C9224,3007 9022,3441 8793,3440C8767,3440 8736,3434 8725,3428z"/>
      <path fill="url(#imagebot_6)" id="imagebot_5" d="M7305,4528C7258,4487 7233,4437 7220,4357C7195,4198 7262,3996 7379,3879C7494,3764 7618,3768 7683,3888C7767,4043 7718,4309 7576,4467C7518,4531 7461,4560 7392,4560C7349,4560 7335,4555 7305,4528z"/>
    </g>
    <title>imagebot_2</title>
  </g>
  <metadata>
    <rdf:RDF>
      <cc:Work>
        <dc:format>image/svg+xml</dc:format>
        <dc:type rdf:resource="http://purl.org/dc/dcmitype/StillImage"/>
        <cc:license rdf:resource="http://creativecommons.org/licenses/publicdomain/"/>
        <dc:publisher>
          <cc:Agent rdf:about="http://openclipart.org/">
            <dc:title>Open Clip Art Library</dc:title>
          </cc:Agent>
        </dc:publisher>
        <dc:title>five colored dice</dc:title>
        <dc:date>2013-02-04T06:14:34</dc:date>
        <dc:description>five dice in four colors</dc:description>
        <dc:source>http://openclipart.org/detail/174804/five-colored-dice-by-mariotomo-174804</dc:source>
        <dc:creator>
          <cc:Agent>
            <dc:title>mariotomo</dc:title>
          </cc:Agent>
        </dc:creator>
        <dc:subject>
          <rdf:Bag>
            <rdf:li>clip art</rdf:li>
            <rdf:li>clipart</rdf:li>
            <rdf:li>dice</rdf:li>
          </rdf:Bag>
        </dc:subject>
      </cc:Work>
      <cc:License rdf:about="http://creativecommons.org/licenses/publicdomain/">
        <cc:permits rdf:resource="http://creativecommons.org/ns#Reproduction"/>
        <cc:permits rdf:resource="http://creativecommons.org/ns#Distribution"/>
        <cc:permits rdf:resource="http://creativecommons.org/ns#DerivativeWorks"/>
      </cc:License>
    </rdf:RDF>
  </metadata>
</svg>
