<?xml version="1.0" encoding="UTF-8" standalone="no"?>
<!-- Created with Inkscape (http://www.inkscape.org/) -->
<svg xmlns:svg="http://www.w3.org/2000/svg" xmlns="http://www.w3.org/2000/svg" xmlns:dc="http://purl.org/dc/elements/1.1/" xmlns:cc="http://web.resource.org/cc/" xmlns:rdf="http://www.w3.org/1999/02/22-rdf-syntax-ns#" version="1.0" width="300.87817" height="100.54277" id="svg2">
  <defs id="defs4"/>
  <g transform="translate(-137.2073,-346.57078)" id="layer1">
    <g transform="matrix(-0.5748724,0.8182431,-0.8182431,-0.5748724,774.50592,393.01471)" id="g2343">
      <g transform="matrix(1.0371991,0,0,1.0311723,-9.647093,-14.304703)" id="g2321" style="fill:#000000">
        <path d="M 255.35555,367.72533 C 253.09218,367.47555 253.33031,370.58104 251.2249,370.49227 C 248.41482,371.67414 247.19669,375.53852 249.95357,377.55869 C 251.73459,379.26723 253.26146,381.10306 253.83373,383.41783 C 256.58384,385.46471 257.62195,389.27842 260.23722,391.52102 C 262.45713,395.64579 265.83112,398.68494 268.04394,402.76665 C 270.73318,405.75742 272.70049,409.85741 275.49492,412.41142 C 276.4817,415.30171 278.88726,417.45335 280.40421,420.05324 C 283.0777,423.59225 285.85701,427.21311 288.18332,430.94992 C 289.90703,433.82491 292.69178,435.98528 293.9346,439.11239 C 296.1057,441.0607 297.41721,443.4554 298.79651,445.87163 C 301.12424,448.73374 303.06986,451.80826 305.23953,454.76537 C 306.23221,457.94767 309.90198,459.7593 310.8327,463.04643 C 312.64791,465.3277 314.92024,467.46886 315.87249,470.16142 C 317.7493,471.42734 318.48238,474.29411 320.37865,475.53719 C 320.75538,477.8627 323.1637,479.30499 324.15354,481.46635 C 325.42021,482.0061 325.43463,482.99629 325.97182,484.09494 C 327.65099,485.67473 328.7557,488.30099 330.51751,489.54976 C 331.6447,493.27328 335.30581,495.5593 336.81947,499.07297 C 338.6444,501.21069 340.41425,503.31027 341.50621,505.83519 C 343.28166,506.97673 343.04734,509.5114 345.26135,510.08442 C 345.88767,511.63959 346.82644,513.23857 348.08758,514.53128 C 348.12199,516.33609 350.27995,516.60216 350.45924,518.32594 C 352.03184,520.26499 355.43718,520.28554 356.6058,518.06901 C 358.29392,517.36936 359.46402,515.8347 360.14353,514.45223 C 362.18919,513.98066 358.98144,513.16052 359.53085,511.80387 C 354.95703,504.95886 350.05437,498.20461 345.26135,491.54591 C 345.01343,489.31097 342.40658,488.2771 341.58665,486.08111 C 338.94076,482.66221 336.63261,478.47147 333.79831,475.49766 C 332.84385,471.9807 329.15536,469.99166 327.92844,466.60392 C 325.5944,464.08578 323.96115,460.70013 321.78188,458.32286 C 321.81814,456.60914 319.58905,456.52438 319.5288,454.86419 C 316.9878,451.39761 314.56287,447.8483 312.0383,444.38934 C 311.48564,442.56526 309.53428,442.0051 309.42947,440.12035 C 307.54627,438.55077 306.47154,435.95452 304.72567,434.46789 C 304.87749,432.59864 302.35912,432.48677 302.51212,430.61393 C 300.35759,428.06715 298.5785,425.19628 296.85965,422.45146 C 294.4848,420.24856 293.11416,416.73903 290.79215,414.72379 C 289.81866,411.33437 286.32919,409.15354 285.25827,405.73123 C 282.54056,403.61423 281.31676,399.72635 278.77572,397.70711 C 277.54536,394.31095 274.73958,391.62775 272.80703,388.55644 C 271.39124,387.92767 271.93745,386.12961 270.55395,385.31516 C 266.91275,380.68185 264.01291,375.24643 260.05934,370.88755 C 259.59293,369.63933 258.601,367.87432 256.75878,367.80438 C 256.29569,367.72665 255.82522,367.66775 255.35555,367.72533 z" id="path2323" style="fill:#000000;stroke:none;stroke-width:1px;stroke-linecap:butt;stroke-linejoin:miter;stroke-opacity:1"/>
        <path d="M 362.77213,429.86291 C 361.74385,430.89462 361.42445,432.75186 359.53085,432.84725 C 358.26129,433.5635 357.75209,434.95255 356.15123,435.08057 C 354.55724,436.26747 353.11819,437.60766 351.48696,438.51948 C 350.70871,439.92021 348.15861,439.8233 347.61325,441.58288 C 345.23404,442.44541 343.68305,444.8427 341.22952,445.6147 C 339.69314,447.27179 337.672,448.31039 335.83398,449.19196 C 335.60923,453.65663 342.60239,455.78362 341.22952,460.39807 C 340.14707,460.74295 339.37836,461.23156 338.66022,462.17682 C 337.15338,463.91471 334.96472,464.11304 334.075,461.74201 C 332.9675,459.25335 331.05663,456.87616 329.05498,455.10136 C 327.14543,455.40044 322.89119,457.24629 324.88481,459.7261 C 326.89826,461.93386 328.42767,464.85268 330.53727,466.76203 C 331.55257,470.4572 335.53207,472.67742 336.72336,476.26845 C 338.71215,476.82344 339.05398,478.76722 340.10298,480.26075 C 341.56071,481.59334 342.01352,484.07045 343.87788,485.26101 C 344.69775,487.3876 346.64422,488.51841 347.67254,490.6763 C 348.57473,491.99038 349.75361,492.4095 349.96514,494.03616 C 351.68587,496.89766 354.54786,499.09265 355.69666,502.19863 C 356.75865,502.6432 357.61311,503.49911 358.42408,503.95762 C 361.24494,503.58423 362.6871,499.97214 360.24235,498.10752 C 359.00194,496.30986 358.03712,494.28229 356.54651,492.57363 C 358.26513,491.00625 360.45143,489.34574 362.71283,488.97661 C 365.21273,491.04352 365.97318,495.53553 369.2942,496.46712 C 371.2858,496.38509 371.34681,493.86216 373.30626,493.99663 C 376.3319,491.88114 379.34912,489.41753 382.29882,487.31645 C 384.20599,486.98731 385.14882,484.80134 387.20026,484.25305 C 390.00381,482.29507 392.92707,480.43871 395.3232,478.06696 C 395.60669,476.41711 393.50456,475.3703 392.9713,473.8375 C 391.2604,470.37904 387.23024,473.31279 385.81679,475.43837 C 384.90195,475.97711 383.72874,476.00356 383.3463,477.15782 C 380.18494,479.55393 376.92222,475.40126 376.86376,472.45402 C 378.17705,471.58218 379.89409,471.17681 380.67818,469.70685 C 383.01848,469.22348 384.21342,466.62104 386.48876,466.01101 C 387.60703,464.62981 386.33711,463.39887 385.44127,462.53257 C 385.00806,460.40765 382.49633,457.23504 380.46078,459.82492 C 378.79612,461.43174 376.96754,462.0909 375.44076,463.65911 C 372.85727,464.87826 370.82885,466.81434 368.76058,468.58031 C 367.05402,468.90779 364.18553,471.05959 366.52726,472.59237 C 367.43774,474.84086 369.60999,476.39455 370.38121,478.64011 C 369.77878,480.81064 367.25774,481.42507 365.71694,482.73123 C 361.41298,483.05563 360.86311,476.44283 357.00108,475.81388 C 355.80182,477.67994 353.46421,479.53892 351.07192,479.56901 C 348.61231,478.11221 345.94444,475.18876 345.91355,472.25639 C 348.14344,471.81212 349.68897,469.75791 351.86248,469.19299 C 353.32855,467.28748 350.92523,465.6572 350.39995,464.01486 C 348.41705,463.2551 346.75661,459.7132 349.66869,458.73791 C 351.0507,458.23828 352.25071,457.70308 353.06807,456.4453 C 355.41351,456.42951 357.06559,459.44205 358.10786,461.26768 C 358.82978,463.74574 362.38862,463.35152 363.20693,461.40603 C 364.79932,461.47887 364.98116,459.41654 366.7249,459.5087 C 368.04371,458.90757 368.37364,457.3811 369.92664,457.25562 C 371.52659,455.86138 372.93936,454.39277 374.94666,453.67836 C 376.00026,452.67861 379.37701,451.37712 377.12069,449.74535 C 375.65258,448.23139 375.14755,444.72749 372.65406,444.6858 C 371.55036,445.97921 370.02594,446.6371 368.60247,447.33416 C 367.89969,448.83598 365.21946,448.5425 364.8078,450.51614 C 362.02637,453.32054 359.32934,449.32852 358.5229,446.87959 C 356.44977,446.61132 358.74635,443.52865 359.92613,443.16398 C 361.32104,442.56811 361.33983,440.83357 363.02906,441.00972 C 364.66933,440.14508 365.83158,438.60854 367.6538,438.20325 C 368.16633,435.20228 365.21648,432.45901 363.62197,430.1396 C 363.40088,429.94093 363.07017,429.80447 362.77213,429.86291 z" id="path2325" style="fill:#000000;stroke:none;stroke-width:1px;stroke-linecap:butt;stroke-linejoin:miter;stroke-opacity:1"/>
        <path d="M 253.89302,360.78821 C 252.59319,361.01114 252.44775,362.66225 250.86915,362.70531 C 249.09439,364.16859 247.09245,365.24218 245.23645,366.48021 C 244.51251,367.67616 242.22158,367.92046 242.58809,369.99817 C 242.67639,373.66142 247.45425,371.85477 249.22875,370.55156 C 251.93616,368.01406 256.34487,366.79672 257.84579,363.14011 C 257.23771,361.58167 255.5473,360.61976 253.89302,360.78821 z" id="path2327" style="fill:#000000;stroke:none;stroke-width:1px;stroke-linecap:butt;stroke-linejoin:miter;stroke-opacity:1"/>
        <path d="M 245.77007,352.28975 C 243.46924,354.33857 239.50619,355.39389 237.76571,358.35726 C 238.045,362.01173 241.91385,366.87591 245.98748,364.68169 C 248.29855,362.8938 252.61703,360.67438 250.75057,357.11214 C 249.51162,355.3584 247.97136,352.82156 245.77007,352.28975 z" id="path2329" style="fill:#000000;stroke:none;stroke-width:1px;stroke-linecap:butt;stroke-linejoin:miter;stroke-opacity:1"/>
        <path d="M 244.24826,344.95736 C 243.02669,345.53788 242.71916,347.21134 241.06627,347.13139 C 239.39047,348.89106 236.68795,349.9751 235.33475,351.87471 C 233.12942,351.87452 229.90502,355.18024 232.80498,356.65757 C 237.25249,357.98037 241.04852,353.41984 244.3866,351.34109 C 246.55581,350.75394 249.29502,347.80341 246.38275,346.14319 C 245.77243,345.65063 245.07321,344.96754 244.24826,344.95736 z" id="path2331" style="fill:#000000;stroke:none;stroke-width:1px;stroke-linecap:butt;stroke-linejoin:miter;stroke-opacity:1"/>
        <path d="M 234.58373,331.85392 C 234.62864,333.34213 232.49921,332.77757 232.29112,334.14653 C 230.03659,334.54391 228.46656,336.63573 226.32243,337.20993 C 225.86539,338.62905 223.25431,338.59501 223.61479,340.58955 C 223.12876,341.49315 221.92257,342.12042 222.82423,343.33673 C 224.42957,347.45195 228.8389,352.58591 233.67459,350.88652 C 234.69898,349.06724 237.5774,348.95182 238.79343,347.0128 C 242.18577,345.47773 244.30553,340.87746 241.3232,337.96096 C 239.3376,336.15071 238.05631,333.42845 235.55216,332.4666 C 235.43271,332.10834 235.07232,331.27141 234.58373,331.85392 z" id="path2333" style="fill:#000000;stroke:none;stroke-width:1px;stroke-linecap:butt;stroke-linejoin:miter;stroke-opacity:1"/>
        <path d="M 230.84836,326.04335 C 229.40598,327.23345 227.94917,327.98712 226.32243,328.86958 C 224.80848,330.71791 222.02714,331.11642 220.78855,332.90141 C 217.23814,333.46412 218.55989,340.09137 222.3499,337.62497 C 225.20768,336.59061 227.09283,333.91529 229.89969,332.98046 C 231.30365,331.34424 235.32875,330.05864 232.98286,327.42682 C 232.57501,326.66348 231.79397,325.87105 230.84836,326.04335 z" id="path2335" style="fill:#000000;stroke:none;stroke-width:1px;stroke-linecap:butt;stroke-linejoin:miter;stroke-opacity:1"/>
        <path d="M 219.44461,317.2089 C 215.3549,317.36978 214.63616,322.93049 215.96617,325.88524 C 217.2797,326.31933 216.81609,328.77018 218.73311,328.77076 C 221.34163,329.32913 225.67764,329.73469 225.88763,326.1224 C 227.60509,325.31683 226.96491,322.48884 225.6307,321.73483 C 225.7352,318.6751 222.10826,317.01963 219.44461,317.2089 z" id="path2337" style="fill:#000000;stroke:none;stroke-width:1px;stroke-linecap:butt;stroke-linejoin:miter;stroke-opacity:1"/>
        <path d="M 219.24697,276.29771 C 216.45917,276.49054 213.18653,276.05968 210.98568,277.83929 C 208.0108,278.06142 205.42397,279.79994 202.52675,280.1319 C 201.63381,281.74883 198.86983,281.30049 198.02059,282.93837 C 196.4282,282.86553 196.24635,284.92785 194.50262,284.8357 C 193.18306,285.54393 192.74506,286.94406 191.16253,287.20736 C 187.06255,290.4979 182.98227,294.39661 180.27264,298.76922 C 179.04359,299.16537 179.68834,300.82278 178.47413,301.2397 C 177.97497,303.09363 177.3634,304.80556 176.3594,306.35854 C 175.46301,309.24863 176.14744,312.67417 174.36325,315.05464 C 174.05081,316.87459 175.97761,317.78763 175.5886,319.69915 C 175.77253,323.82522 176.78437,328.07497 178.67177,331.61676 C 180.12751,332.0141 180.02891,334.45046 181.5076,335.26483 C 185.88139,340.44693 192.48655,344.14771 199.4631,342.90412 C 203.51747,342.5705 208.02971,343.27006 211.46001,340.88601 C 215.58951,339.5304 217.96044,333.73456 216.18357,329.8973 C 215.01827,329.56322 215.56728,327.55246 214.06884,327.30823 C 213.20781,325.89033 212.19993,324.2633 210.11607,324.71917 C 207.82153,324.41296 204.25813,324.68325 204.68101,327.90115 C 204.27383,329.91085 206.28404,331.47765 206.85503,332.86188 C 203.44878,334.84582 198.84127,334.90111 195.01648,334.28488 C 191.26799,333.42487 188.18044,330.41385 186.4192,327.30823 C 185.21575,327.02769 186.09891,324.86278 184.67998,324.42271 C 184.03674,319.9067 183.78205,314.77864 184.79856,310.35084 C 186.3148,308.90113 187.0999,306.65043 189.10709,305.40988 C 191.93161,303.89187 194.46924,301.56432 197.82295,301.25947 C 200.00941,299.64264 202.8807,300.62954 205.21463,299.36214 C 206.71328,298.00736 206.12027,295.34931 207.88275,294.34212 C 209.34709,291.04364 213.08239,288.83072 216.06499,286.93067 C 218.16499,285.43194 221.04713,286.11702 223.04163,284.81593 C 224.90041,284.06384 228.0454,283.77059 229.60324,285.36932 C 231.31405,285.75878 232.95866,286.14794 234.01058,287.42476 C 236.41346,288.11829 237.81056,291.13883 239.44564,292.85983 C 239.53316,294.41379 241.47941,295.02681 241.1058,296.85213 C 240.89648,299.6935 243.89929,302.63411 242.11376,305.21224 C 240.97247,307.9349 240.65594,311.26632 238.0424,313.2166 C 236.74778,314.43826 234.39893,316.38868 232.6864,315.48945 C 232.4533,313.45928 232.72448,309.72293 229.54394,310.17297 C 226.36312,309.65346 223.28312,313.62766 225.47259,316.26024 C 226.17707,323.45679 235.43086,325.73753 240.90816,322.26845 C 242.52299,321.80785 244.14103,321.31063 244.62377,319.50151 C 246.10971,318.56575 247.40089,317.39521 247.78599,315.5685 C 250.13406,313.52842 248.87495,309.49823 250.65175,307.05028 C 250.99468,304.57418 251.35192,301.41459 249.76237,299.48072 C 249.68502,295.79687 247.82696,292.23841 245.84913,289.42091 C 243.01426,285.69246 239.45715,281.93581 235.29523,279.65757 C 233.14915,279.80776 232.38226,277.7094 230.41355,277.78 C 227.64845,275.39443 223.03057,276.74959 219.58305,276.29356 L 219.24697,276.29771 z" id="path2339" style="fill:#000000;stroke:none;stroke-width:1px;stroke-linecap:butt;stroke-linejoin:miter;stroke-opacity:1"/>
      </g>
      <path d="M 204.27926,321.78251 C 204.27926,321.78251 205.52884,307.73745 214.21767,307.85085 L 225.64681,308.00002 L 231.47434,315.87573 L 230.52567,320.78611 L 231.01552,325.37238 L 237.30185,336.87762 L 245.07187,349.3475 L 254.13689,363.12999 L 258.6694,371.66202 L 249.60439,376.91249 L 239.24435,361.81738 L 222.09309,340.76775 L 213.63039,327.76686 L 208.81177,325.06406 L 204.27926,321.78251 z" id="path2341" style="fill:#808000;fill-rule:evenodd;stroke:none;stroke-width:1px;stroke-linecap:butt;stroke-linejoin:miter;stroke-opacity:1"/>
      <g transform="matrix(1.0543679,0,0,1.0597469,-15.169887,-24.097019)" id="g2310" style="fill:#ffff00">
        <path d="M 255.35555,367.72533 C 253.09218,367.47555 253.33031,370.58104 251.2249,370.49227 C 248.41482,371.67414 247.19669,375.53852 249.95357,377.55869 C 251.73459,379.26723 253.26146,381.10306 253.83373,383.41783 C 256.58384,385.46471 257.62195,389.27842 260.23722,391.52102 C 262.45713,395.64579 265.83112,398.68494 268.04394,402.76665 C 270.73318,405.75742 272.70049,409.85741 275.49492,412.41142 C 276.4817,415.30171 278.88726,417.45335 280.40421,420.05324 C 283.0777,423.59225 285.85701,427.21311 288.18332,430.94992 C 289.90703,433.82491 292.69178,435.98528 293.9346,439.11239 C 296.1057,441.0607 297.41721,443.4554 298.79651,445.87163 C 301.12424,448.73374 303.06986,451.80826 305.23953,454.76537 C 306.23221,457.94767 309.90198,459.7593 310.8327,463.04643 C 312.64791,465.3277 314.92024,467.46886 315.87249,470.16142 C 317.7493,471.42734 318.48238,474.29411 320.37865,475.53719 C 320.75538,477.8627 323.1637,479.30499 324.15354,481.46635 C 325.42021,482.0061 325.43463,482.99629 325.97182,484.09494 C 327.65099,485.67473 328.7557,488.30099 330.51751,489.54976 C 331.6447,493.27328 335.30581,495.5593 336.81947,499.07297 C 338.6444,501.21069 340.41425,503.31027 341.50621,505.83519 C 343.28166,506.97673 343.04734,509.5114 345.26135,510.08442 C 345.88767,511.63959 346.82644,513.23857 348.08758,514.53128 C 348.12199,516.33609 350.27995,516.60216 350.45924,518.32594 C 352.03184,520.26499 355.43718,520.28554 356.6058,518.06901 C 358.29392,517.36936 359.46402,515.8347 360.14353,514.45223 C 362.18919,513.98066 358.98144,513.16052 359.53085,511.80387 C 354.95703,504.95886 350.05437,498.20461 345.26135,491.54591 C 345.01343,489.31097 342.40658,488.2771 341.58665,486.08111 C 338.94076,482.66221 336.63261,478.47147 333.79831,475.49766 C 332.84385,471.9807 329.15536,469.99166 327.92844,466.60392 C 325.5944,464.08578 323.96115,460.70013 321.78188,458.32286 C 321.81814,456.60914 319.58905,456.52438 319.5288,454.86419 C 316.9878,451.39761 314.56287,447.8483 312.0383,444.38934 C 311.48564,442.56526 309.53428,442.0051 309.42947,440.12035 C 307.54627,438.55077 306.47154,435.95452 304.72567,434.46789 C 304.87749,432.59864 302.35912,432.48677 302.51212,430.61393 C 300.35759,428.06715 298.5785,425.19628 296.85965,422.45146 C 294.4848,420.24856 293.11416,416.73903 290.79215,414.72379 C 289.81866,411.33437 286.32919,409.15354 285.25827,405.73123 C 282.54056,403.61423 281.31676,399.72635 278.77572,397.70711 C 277.54536,394.31095 274.73958,391.62775 272.80703,388.55644 C 271.39124,387.92767 271.93745,386.12961 270.55395,385.31516 C 266.91275,380.68185 264.01291,375.24643 260.05934,370.88755 C 259.59293,369.63933 258.601,367.87432 256.75878,367.80438 C 256.29569,367.72665 255.82522,367.66775 255.35555,367.72533 z" id="path2292" style="fill:#ffff00;stroke:none;stroke-width:1px;stroke-linecap:butt;stroke-linejoin:miter;stroke-opacity:1"/>
        <path d="M 362.77213,429.86291 C 361.74385,430.89462 361.42445,432.75186 359.53085,432.84725 C 358.26129,433.5635 357.75209,434.95255 356.15123,435.08057 C 354.55724,436.26747 353.11819,437.60766 351.48696,438.51948 C 350.70871,439.92021 348.15861,439.8233 347.61325,441.58288 C 345.23404,442.44541 343.68305,444.8427 341.22952,445.6147 C 339.69314,447.27179 337.672,448.31039 335.83398,449.19196 C 335.60923,453.65663 342.60239,455.78362 341.22952,460.39807 C 340.14707,460.74295 339.37836,461.23156 338.66022,462.17682 C 337.15338,463.91471 334.96472,464.11304 334.075,461.74201 C 332.9675,459.25335 331.05663,456.87616 329.05498,455.10136 C 327.14543,455.40044 322.89119,457.24629 324.88481,459.7261 C 326.89826,461.93386 328.42767,464.85268 330.53727,466.76203 C 331.55257,470.4572 335.53207,472.67742 336.72336,476.26845 C 338.71215,476.82344 339.05398,478.76722 340.10298,480.26075 C 341.56071,481.59334 342.01352,484.07045 343.87788,485.26101 C 344.69775,487.3876 346.64422,488.51841 347.67254,490.6763 C 348.57473,491.99038 349.75361,492.4095 349.96514,494.03616 C 351.68587,496.89766 354.54786,499.09265 355.69666,502.19863 C 356.75865,502.6432 357.61311,503.49911 358.42408,503.95762 C 361.24494,503.58423 362.6871,499.97214 360.24235,498.10752 C 359.00194,496.30986 358.03712,494.28229 356.54651,492.57363 C 358.26513,491.00625 360.45143,489.34574 362.71283,488.97661 C 365.21273,491.04352 365.97318,495.53553 369.2942,496.46712 C 371.2858,496.38509 371.34681,493.86216 373.30626,493.99663 C 376.3319,491.88114 379.34912,489.41753 382.29882,487.31645 C 384.20599,486.98731 385.14882,484.80134 387.20026,484.25305 C 390.00381,482.29507 392.92707,480.43871 395.3232,478.06696 C 395.60669,476.41711 393.50456,475.3703 392.9713,473.8375 C 391.2604,470.37904 387.23024,473.31279 385.81679,475.43837 C 384.90195,475.97711 383.72874,476.00356 383.3463,477.15782 C 380.18494,479.55393 376.92222,475.40126 376.86376,472.45402 C 378.17705,471.58218 379.89409,471.17681 380.67818,469.70685 C 383.01848,469.22348 384.21342,466.62104 386.48876,466.01101 C 387.60703,464.62981 386.33711,463.39887 385.44127,462.53257 C 385.00806,460.40765 382.49633,457.23504 380.46078,459.82492 C 378.79612,461.43174 376.96754,462.0909 375.44076,463.65911 C 372.85727,464.87826 370.82885,466.81434 368.76058,468.58031 C 367.05402,468.90779 364.18553,471.05959 366.52726,472.59237 C 367.43774,474.84086 369.60999,476.39455 370.38121,478.64011 C 369.77878,480.81064 367.25774,481.42507 365.71694,482.73123 C 361.41298,483.05563 360.86311,476.44283 357.00108,475.81388 C 355.80182,477.67994 353.46421,479.53892 351.07192,479.56901 C 348.61231,478.11221 345.94444,475.18876 345.91355,472.25639 C 348.14344,471.81212 349.68897,469.75791 351.86248,469.19299 C 353.32855,467.28748 350.92523,465.6572 350.39995,464.01486 C 348.41705,463.2551 346.75661,459.7132 349.66869,458.73791 C 351.0507,458.23828 352.25071,457.70308 353.06807,456.4453 C 355.41351,456.42951 357.06559,459.44205 358.10786,461.26768 C 358.82978,463.74574 362.38862,463.35152 363.20693,461.40603 C 364.79932,461.47887 364.98116,459.41654 366.7249,459.5087 C 368.04371,458.90757 368.37364,457.3811 369.92664,457.25562 C 371.52659,455.86138 372.93936,454.39277 374.94666,453.67836 C 376.00026,452.67861 379.37701,451.37712 377.12069,449.74535 C 375.65258,448.23139 375.14755,444.72749 372.65406,444.6858 C 371.55036,445.97921 370.02594,446.6371 368.60247,447.33416 C 367.89969,448.83598 365.21946,448.5425 364.8078,450.51614 C 362.02637,453.32054 359.32934,449.32852 358.5229,446.87959 C 356.44977,446.61132 358.74635,443.52865 359.92613,443.16398 C 361.32104,442.56811 361.33983,440.83357 363.02906,441.00972 C 364.66933,440.14508 365.83158,438.60854 367.6538,438.20325 C 368.16633,435.20228 365.21648,432.45901 363.62197,430.1396 C 363.40088,429.94093 363.07017,429.80447 362.77213,429.86291 z" id="path2294" style="fill:#ffff00;stroke:none;stroke-width:1px;stroke-linecap:butt;stroke-linejoin:miter;stroke-opacity:1"/>
        <path d="M 253.89302,360.78821 C 252.59319,361.01114 252.44775,362.66225 250.86915,362.70531 C 249.09439,364.16859 247.09245,365.24218 245.23645,366.48021 C 244.51251,367.67616 242.22158,367.92046 242.58809,369.99817 C 242.67639,373.66142 247.45425,371.85477 249.22875,370.55156 C 251.93616,368.01406 256.34487,366.79672 257.84579,363.14011 C 257.23771,361.58167 255.5473,360.61976 253.89302,360.78821 z" id="path2296" style="fill:#ffff00;stroke:none;stroke-width:1px;stroke-linecap:butt;stroke-linejoin:miter;stroke-opacity:1"/>
        <path d="M 245.77007,352.28975 C 243.46924,354.33857 239.50619,355.39389 237.76571,358.35726 C 238.045,362.01173 241.91385,366.87591 245.98748,364.68169 C 248.29855,362.8938 252.61703,360.67438 250.75057,357.11214 C 249.51162,355.3584 247.97136,352.82156 245.77007,352.28975 z" id="path2298" style="fill:#ffff00;stroke:none;stroke-width:1px;stroke-linecap:butt;stroke-linejoin:miter;stroke-opacity:1"/>
        <path d="M 244.24826,344.95736 C 243.02669,345.53788 242.71916,347.21134 241.06627,347.13139 C 239.39047,348.89106 236.68795,349.9751 235.33475,351.87471 C 233.12942,351.87452 229.90502,355.18024 232.80498,356.65757 C 237.25249,357.98037 241.04852,353.41984 244.3866,351.34109 C 246.55581,350.75394 249.29502,347.80341 246.38275,346.14319 C 245.77243,345.65063 245.07321,344.96754 244.24826,344.95736 z" id="path2300" style="fill:#ffff00;stroke:none;stroke-width:1px;stroke-linecap:butt;stroke-linejoin:miter;stroke-opacity:1"/>
        <path d="M 234.58373,331.85392 C 234.62864,333.34213 232.49921,332.77757 232.29112,334.14653 C 230.03659,334.54391 228.46656,336.63573 226.32243,337.20993 C 225.86539,338.62905 223.25431,338.59501 223.61479,340.58955 C 223.12876,341.49315 221.92257,342.12042 222.82423,343.33673 C 224.42957,347.45195 228.8389,352.58591 233.67459,350.88652 C 234.69898,349.06724 237.5774,348.95182 238.79343,347.0128 C 242.18577,345.47773 244.30553,340.87746 241.3232,337.96096 C 239.3376,336.15071 238.05631,333.42845 235.55216,332.4666 C 235.43271,332.10834 235.07232,331.27141 234.58373,331.85392 z" id="path2302" style="fill:#ffff00;stroke:none;stroke-width:1px;stroke-linecap:butt;stroke-linejoin:miter;stroke-opacity:1"/>
        <path d="M 230.84836,326.04335 C 229.40598,327.23345 227.94917,327.98712 226.32243,328.86958 C 224.80848,330.71791 222.02714,331.11642 220.78855,332.90141 C 217.23814,333.46412 218.55989,340.09137 222.3499,337.62497 C 225.20768,336.59061 227.09283,333.91529 229.89969,332.98046 C 231.30365,331.34424 235.32875,330.05864 232.98286,327.42682 C 232.57501,326.66348 231.79397,325.87105 230.84836,326.04335 z" id="path2304" style="fill:#ffff00;stroke:none;stroke-width:1px;stroke-linecap:butt;stroke-linejoin:miter;stroke-opacity:1"/>
        <path d="M 219.44461,317.2089 C 215.3549,317.36978 214.63616,322.93049 215.96617,325.88524 C 217.2797,326.31933 216.81609,328.77018 218.73311,328.77076 C 221.34163,329.32913 225.67764,329.73469 225.88763,326.1224 C 227.60509,325.31683 226.96491,322.48884 225.6307,321.73483 C 225.7352,318.6751 222.10826,317.01963 219.44461,317.2089 z" id="path2306" style="fill:#ffff00;stroke:none;stroke-width:1px;stroke-linecap:butt;stroke-linejoin:miter;stroke-opacity:1"/>
        <path d="M 219.24697,276.29771 C 216.45917,276.49054 213.18653,276.05968 210.98568,277.83929 C 208.0108,278.06142 205.42397,279.79994 202.52675,280.1319 C 201.63381,281.74883 198.86983,281.30049 198.02059,282.93837 C 196.4282,282.86553 196.24635,284.92785 194.50262,284.8357 C 193.18306,285.54393 192.74506,286.94406 191.16253,287.20736 C 187.06255,290.4979 182.98227,294.39661 180.27264,298.76922 C 179.04359,299.16537 179.68834,300.82278 178.47413,301.2397 C 177.97497,303.09363 177.3634,304.80556 176.3594,306.35854 C 175.46301,309.24863 176.14744,312.67417 174.36325,315.05464 C 174.05081,316.87459 175.97761,317.78763 175.5886,319.69915 C 175.77253,323.82522 176.78437,328.07497 178.67177,331.61676 C 180.12751,332.0141 180.02891,334.45046 181.5076,335.26483 C 185.88139,340.44693 192.48655,344.14771 199.4631,342.90412 C 203.51747,342.5705 208.02971,343.27006 211.46001,340.88601 C 215.58951,339.5304 217.96044,333.73456 216.18357,329.8973 C 215.01827,329.56322 215.56728,327.55246 214.06884,327.30823 C 213.20781,325.89033 212.19993,324.2633 210.11607,324.71917 C 207.82153,324.41296 204.25813,324.68325 204.68101,327.90115 C 204.27383,329.91085 206.28404,331.47765 206.85503,332.86188 C 203.44878,334.84582 198.84127,334.90111 195.01648,334.28488 C 191.26799,333.42487 188.18044,330.41385 186.4192,327.30823 C 185.21575,327.02769 186.09891,324.86278 184.67998,324.42271 C 184.03674,319.9067 183.78205,314.77864 184.79856,310.35084 C 186.3148,308.90113 187.0999,306.65043 189.10709,305.40988 C 191.93161,303.89187 194.46924,301.56432 197.82295,301.25947 C 200.00941,299.64264 202.8807,300.62954 205.21463,299.36214 C 206.71328,298.00736 206.12027,295.34931 207.88275,294.34212 C 209.34709,291.04364 213.08239,288.83072 216.06499,286.93067 C 218.16499,285.43194 221.04713,286.11702 223.04163,284.81593 C 224.90041,284.06384 228.0454,283.77059 229.60324,285.36932 C 231.31405,285.75878 232.95866,286.14794 234.01058,287.42476 C 236.41346,288.11829 237.81056,291.13883 239.44564,292.85983 C 239.53316,294.41379 241.47941,295.02681 241.1058,296.85213 C 240.89648,299.6935 243.89929,302.63411 242.11376,305.21224 C 240.97247,307.9349 240.65594,311.26632 238.0424,313.2166 C 236.74778,314.43826 234.39893,316.38868 232.6864,315.48945 C 232.4533,313.45928 232.72448,309.72293 229.54394,310.17297 C 226.36312,309.65346 223.28312,313.62766 225.47259,316.26024 C 226.17707,323.45679 235.43086,325.73753 240.90816,322.26845 C 242.52299,321.80785 244.14103,321.31063 244.62377,319.50151 C 246.10971,318.56575 247.40089,317.39521 247.78599,315.5685 C 250.13406,313.52842 248.87495,309.49823 250.65175,307.05028 C 250.99468,304.57418 251.35192,301.41459 249.76237,299.48072 C 249.68502,295.79687 247.82696,292.23841 245.84913,289.42091 C 243.01426,285.69246 239.45715,281.93581 235.29523,279.65757 C 233.14915,279.80776 232.38226,277.7094 230.41355,277.78 C 227.64845,275.39443 223.03057,276.74959 219.58305,276.29356 L 219.24697,276.29771 z" id="path2308" style="fill:#ffff00;stroke:none;stroke-width:1px;stroke-linecap:butt;stroke-linejoin:miter;stroke-opacity:1"/>
      </g>
    </g>
  </g>
  <metadata>
    <rdf:RDF>
      <cc:Work>
        <dc:format>image/svg+xml</dc:format>
        <dc:type rdf:resource="http://purl.org/dc/dcmitype/StillImage"/>
        <cc:license rdf:resource="http://creativecommons.org/licenses/publicdomain/"/>
        <dc:publisher>
          <cc:Agent rdf:about="http://openclipart.org/">
            <dc:title>Open Clip Art Library</dc:title>
          </cc:Agent>
        </dc:publisher>
        <dc:title>golden key</dc:title>
        <dc:date>2008-06-02T17:44:59</dc:date>
        <dc:description/>
        <dc:source>http://openclipart.org/detail/17259/golden-key-by-stefanvonhalenbach-17259</dc:source>
        <dc:creator>
          <cc:Agent>
            <dc:title>StefanvonHalenbach</dc:title>
          </cc:Agent>
        </dc:creator>
        <dc:subject>
          <rdf:Bag>
            <rdf:li>clip art</rdf:li>
            <rdf:li>clipart</rdf:li>
            <rdf:li>colour</rdf:li>
            <rdf:li>colour</rdf:li>
            <rdf:li>image</rdf:li>
            <rdf:li>key</rdf:li>
            <rdf:li>key</rdf:li>
            <rdf:li>media</rdf:li>
            <rdf:li>old</rdf:li>
            <rdf:li>old</rdf:li>
            <rdf:li>png</rdf:li>
            <rdf:li>public domain</rdf:li>
            <rdf:li>sign</rdf:li>
            <rdf:li>sign</rdf:li>
            <rdf:li>svg</rdf:li>
          </rdf:Bag>
        </dc:subject>
      </cc:Work>
      <cc:License rdf:about="http://creativecommons.org/licenses/publicdomain/">
        <cc:permits rdf:resource="http://creativecommons.org/ns#Reproduction"/>
        <cc:permits rdf:resource="http://creativecommons.org/ns#Distribution"/>
        <cc:permits rdf:resource="http://creativecommons.org/ns#DerivativeWorks"/>
      </cc:License>
    </rdf:RDF>
  </metadata>
</svg>
