<?xml version="1.0"?><svg width="266.66666666666663" height="266.66666666666663" xmlns="http://www.w3.org/2000/svg" xmlns:xlink="http://www.w3.org/1999/xlink">
 <defs>
  <linearGradient id="linearGradient1709">
   <stop stop-color="#ffcd00" offset="0" id="stop1710"/>
   <stop stop-color="#ff0000" offset="1" id="stop1711"/>
  </linearGradient>
  <linearGradient id="linearGradient4728">
   <stop stop-color="#eefb11" offset="0" id="stop4729"/>
   <stop stop-color="#fbcd11" offset="1" id="stop4730"/>
  </linearGradient>
  <linearGradient y2="47.052849" y1="32.14064" xlink:href="#linearGradient4140" x2="33.8312" x1="33.8312" id="linearGradient4844" gradientUnits="userSpaceOnUse" gradientTransform="scale(1.395076,0.716807)"/>
  <linearGradient id="linearGradient4140">
   <stop stop-color="#ffffff" offset="0" id="stop4141"/>
   <stop stop-color="#fffcfc" stop-opacity="0" offset="1" id="stop4142"/>
  </linearGradient>
  <linearGradient y2="45.81908" y1="32.828346" xlink:href="#linearGradient4140" x2="33.770935" x1="33.713825" id="linearGradient4843" gradientUnits="userSpaceOnUse" gradientTransform="scale(1.395076,0.716807)"/>
  <linearGradient id="linearGradient4830">
   <stop stop-color="#000000" offset="0" id="stop4831"/>
   <stop stop-color="#000000" stop-opacity="0" offset="1" id="stop4832"/>
  </linearGradient>
  <linearGradient y2="53.925991" y1="20.796894" xlink:href="#linearGradient4830" x2="62.643452" x1="24.699118" id="linearGradient4842" gradientUnits="userSpaceOnUse" gradientTransform="scale(0.960291,1.041351)"/>
  <linearGradient y2="37.406559" y1="33.980247" xlink:href="#linearGradient4728" x2="46.952221" x1="40.586456" id="linearGradient4731" gradientUnits="userSpaceOnUse" gradientTransform="scale(0.960882,1.040710)"/>
  <radialGradient xlink:href="#linearGradient1709" r="26.079197" id="radialGradient1712" gradientUnits="userSpaceOnUse" fy="36.314224" fx="42.015064" cy="36.04406" cx="41.217018"/>
  <radialGradient xlink:href="#linearGradient1709" r="26.079197" id="radialGradient1718" gradientUnits="userSpaceOnUse" fy="36.314224" fx="42.015064" cy="36.04406" cx="41.217018"/>
  <linearGradient y2="0.882813" y1="0.039062" xlink:href="#linearGradient4830" x2="0.92437" x1="-0.042017" id="linearGradient1719"/>
  <linearGradient y2="Infinity" y1="-Infinity" xlink:href="#linearGradient4140" x2="0.494024" x1="0.49004" id="linearGradient1720"/>
  <linearGradient y2="Infinity" y1="-Infinity" xlink:href="#linearGradient4140" x2="0.498228" x1="0.498228" id="linearGradient1721"/>
  <linearGradient y2="0.492072" y1="0.404862" xlink:href="#linearGradient4728" x2="0.54696" x1="0.384734" id="linearGradient1722"/>
 </defs>
 <g>
  <title>Layer 1</title>
  <g id="layer1">
   <g transform="matrix(3.278788,0.000000,0.000000,3.278788,-9.760310,-5.696974)" id="g1713">
    <path fill="url(#radialGradient1718)" fill-rule="evenodd" stroke="#000079" stroke-width="0" stroke-linejoin="round" stroke-miterlimit="4" id="path3504" d="m67.590065,38.642414a30.556396,30.556396 0 1 1 -61.112792,0a30.556396,30.556396 0 1 1 61.112792,0z"/>
    <path opacity="0.788732" fill="url(#linearGradient1719)" fill-rule="evenodd" stroke="#ff8600" stroke-width="0" stroke-miterlimit="4" id="path4829" d="m51.932564,6.004012l-27.956402,28.480993l15.069393,0.526218l-23.910056,23.76173l10.12721,0.188931l-16.780513,18.538124l40.546559,-22.612518l-15.093185,0.159157l30.551682,-24.395594l-16.526054,-0.040644l27.152809,-25.366693l-23.181442,0.760296z"/>
    <path opacity="0.84507" fill="url(#linearGradient1720)" fill-rule="evenodd" stroke="url(#linearGradient1721)" stroke-width="0" stroke-linecap="round" stroke-linejoin="round" stroke-miterlimit="4" stroke-dashoffset="0" marker-start="none" id="path4764" d="m54.921906,18.583105a17.669991,9.079052 0 1 1 -35.340002,0a17.669991,9.079052 0 1 1 35.340002,0z"/>
    <path fill="url(#linearGradient1722)" fill-rule="evenodd" stroke="#ff8600" stroke-width="0.48413596pt" id="path4828" d="m50.500854,3.795026l-27.956421,28.480994l15.069401,0.526218l-23.91004,23.76173l10.127193,0.188931l-16.780514,18.538124l40.54656,-22.612518l-15.093185,0.159157l30.551697,-24.395596l-16.52607,-0.040642l27.152805,-25.366694l-23.181427,0.760296z"/>
   </g>
  </g>
 </g>
</svg>