<?xml version="1.0" encoding="UTF-8" standalone="no"?>
<!-- Created with Inkscape (http://www.inkscape.org/) -->
<svg xmlns:dc="http://purl.org/dc/elements/1.1/" xmlns:cc="http://web.resource.org/cc/" xmlns:rdf="http://www.w3.org/1999/02/22-rdf-syntax-ns#" xmlns:svg="http://www.w3.org/2000/svg" xmlns="http://www.w3.org/2000/svg" xmlns:sodipodi="http://inkscape.sourceforge.net/DTD/sodipodi-0.dtd" xmlns:inkscape="http://www.inkscape.org/namespaces/inkscape" id="svg1327" sodipodi:version="0.32" inkscape:version="0.43" width="410pt" height="841.89001pt" sodipodi:docbase="C:\foo\wikipedia\transfer" sodipodi:docname="swinging-corpse-silhouette.svg" version="1.0">
  <defs id="defs1330"/>
  <sodipodi:namedview inkscape:window-height="721" inkscape:window-width="1024" inkscape:pageshadow="2" inkscape:pageopacity="0.0" borderopacity="1.0" bordercolor="#666666" pagecolor="#ffffff" id="base" inkscape:zoom="0.35824168" inkscape:cx="372.04724" inkscape:cy="414.52463" inkscape:window-x="-4" inkscape:window-y="-4" inkscape:current-layer="svg1327"/>
  <path style="fill:#000000" d="M 56.740013,1043.045 C 56.460195,1042.7079 56.394185,1041.2774 56.419078,1036.0899 C 56.424559,1034.9473 56.307438,1034.3201 56.031475,1034.0143 C 55.718407,1033.6672 55.666495,1033.2124 55.782302,1031.8311 C 55.901882,1030.4048 55.839612,1029.9117 55.441184,1029.1302 C 54.823539,1027.9188 54.827113,1027.2558 55.457606,1026.0794 C 56.095537,1024.8892 56.126412,1023.5372 55.520584,1023.3224 C 54.286806,1022.8848 53.850647,1021.7987 54.533603,1020.8647 C 54.786819,1020.5184 54.84092,1019.6243 54.754121,1017.2205 C 54.640492,1014.0736 54.647077,1014.0257 55.300264,1013.2495 C 56.119274,1012.2761 56.120639,1012.1044 55.316238,1011.2365 C 54.87466,1010.76 54.720225,1010.3783 54.826853,1010.0269 C 55.092677,1009.151 55.474809,1006.5924 55.693618,1004.2234 C 55.80879,1002.9765 55.984335,1001.7595 56.0837,1001.5191 C 56.204239,1001.2275 56.049585,1000.8267 55.619115,1000.3151 C 54.752923,999.28574 54.530311,997.97237 55.003326,996.68203 C 55.210266,996.11753 55.326074,995.22338 55.261564,994.68825 C 55.16272,993.86831 55.011016,993.66214 54.282503,993.35777 C 53.808352,993.15966 53.356208,992.83024 53.277735,992.62576 C 52.981777,991.85448 53.48526,990.39702 54.313336,989.62805 C 54.989748,988.99986 55.217831,988.50685 55.54405,986.96766 C 55.764286,985.92853 56.048398,984.65908 56.175407,984.14665 C 56.346857,983.45494 56.312158,983.03349 56.040687,982.51022 C 55.767923,981.98446 55.712311,981.29331 55.821763,979.7892 C 55.902455,978.68028 55.963079,975.85801 55.956483,973.51749 C 55.946073,969.82985 55.883522,969.1744 55.487667,968.60526 C 54.41541,967.06368 54.208708,965.35077 54.818475,963.05963 C 55.061011,962.14832 55.101711,961.54931 54.941441,961.24984 C 54.584849,960.58355 54.649724,958.29674 55.21953,951.44845 C 55.517729,947.86452 55.702381,943.79792 55.65992,941.74995 C 55.60658,939.17741 55.680927,937.99904 55.934705,937.39466 C 56.259048,936.62226 56.241855,936.52271 55.681187,935.92601 C 55.174578,935.38685 55.088436,935.06072 55.134857,933.85763 C 55.165169,933.07206 55.184685,930.50872 55.178225,928.16136 C 55.168066,924.47023 55.101357,923.76575 54.68462,922.94888 C 54.216607,922.0315 54.202967,920.96678 54.210167,885.90746 C 54.217128,851.97541 54.191432,849.79147 53.781802,849.49195 C 53.482488,849.27309 52.237103,849.16769 49.804485,849.15539 C 47.856627,849.14555 45.268502,849.0504 44.053105,848.94397 C 41.276379,848.7008 41.017963,848.4534 41.2665,846.27635 C 41.361416,845.44505 41.413037,844.13071 41.381224,843.35561 C 41.319955,841.86254 41.783915,840.34315 42.738239,838.91158 C 43.259103,838.13026 43.26699,838.02579 42.92832,836.39249 C 42.643532,835.019 42.603363,832.68542 42.721223,824.36024 C 42.801634,818.67969 42.89458,813.70071 42.927768,813.29584 L 42.9881,812.55973 L 36.431338,812.5881 C 32.496754,812.60513 29.59381,812.72322 29.172541,812.88338 C 28.120363,813.28342 24.31707,813.22278 23.645211,812.79524 C 23.225161,812.52797 22.775987,812.49312 21.827727,812.65428 C 19.811357,812.99697 18.274868,812.94432 17.923142,812.52051 C 17.738302,812.2978 17.182594,812.14106 16.569764,812.13879 C 15.997894,812.13668 15.374207,812.03624 15.183802,811.91563 C 14.744267,811.63722 14.606608,809.19011 14.993408,808.53123 C 15.211259,808.16011 15.203111,808.01915 14.95871,807.93075 C 14.24267,807.67172 13.89259,807.02516 13.89259,805.96176 C 13.89259,805.11282 14.00996,804.79219 14.396406,804.58537 C 14.673505,804.43707 14.900223,804.06846 14.900223,803.76621 C 14.900223,803.46399 15.088116,802.72475 15.317751,802.12343 C 15.641927,801.2746 15.892486,800.99874 16.438462,800.88953 C 17.354659,800.70629 17.984922,799.99102 17.880399,799.25308 C 17.764946,798.43787 16.445287,798.322 15.304716,799.02692 C 14.195811,799.71226 12.792511,799.70664 12.099978,799.01412 C 11.675635,798.58978 11.594213,798.27751 11.700768,797.48311 C 11.774385,796.93426 12.029831,796.26947 12.268417,796.00582 C 12.831461,795.38368 14.259123,795.12132 15.070308,795.49092 C 15.612199,795.73782 16.100354,795.63521 18.388832,794.79335 C 19.864572,794.25049 21.86552,793.37851 22.83537,792.85559 C 23.80522,792.3327 25.165528,791.63784 25.858279,791.31144 C 26.551031,790.98507 27.287859,790.60808 27.495685,790.47372 C 27.703512,790.33935 28.837101,789.72867 30.014778,789.11666 C 31.192454,788.50464 32.767444,787.47776 33.514744,786.83469 C 34.262055,786.19162 35.33897,785.42855 35.90788,785.13901 C 36.476801,784.84944 37.380598,784.23813 37.91631,783.78054 C 38.948805,782.89858 40.741531,782.16545 41.86566,782.16545 C 42.23808,782.16545 43.643048,781.64424 44.987808,781.00722 C 47.742476,779.70232 48.551473,779.67076 49.911415,780.81508 C 50.552181,781.35424 50.852735,781.43783 51.745175,781.32515 C 53.596055,781.09141 54.424621,780.86212 54.724623,780.50063 C 54.88459,780.30787 55.281008,780.15017 55.605548,780.15017 C 55.937789,780.15017 56.313419,779.93003 56.465249,779.64636 C 56.6144,779.36767 56.992698,779.14253 57.311883,779.14253 C 57.629233,779.14253 58.135353,778.88018 58.436605,778.55949 C 58.882851,778.08452 58.984341,777.67348 58.984341,776.34123 C 58.984341,773.96595 59.788201,771.75663 60.961949,770.90604 C 61.467589,770.53961 62.120484,769.96544 62.412837,769.63009 C 63.080539,768.86418 65.904375,767.91764 69.039559,767.4088 C 70.344161,767.19708 71.627517,766.90826 71.891455,766.76701 C 72.378151,766.50655 74.04863,766.02678 76.685781,765.39008 C 78.54383,764.94151 80.492158,763.95369 81.818454,762.78783 C 83.016919,761.73432 85.321568,760.50125 86.092126,760.50125 C 86.380394,760.50125 86.832205,760.26229 87.096143,759.97021 C 87.696094,759.3063 89.470804,758.41484 91.039782,757.98932 C 91.697887,757.81081 92.23635,757.52474 92.23635,757.35363 C 92.23635,756.66654 93.311233,755.73377 94.569706,755.32875 C 95.859533,754.91365 97.219017,754.13891 98.584503,753.04081 C 99.228072,752.52326 99.530471,752.49253 104.20071,752.46983 C 106.99628,752.45626 109.34316,752.33538 109.61275,752.1911 C 109.87457,752.05098 110.31896,751.93634 110.60029,751.93634 C 110.88163,751.93634 111.23315,751.70962 111.38144,751.43252 C 111.53326,751.14884 111.90889,750.9287 112.24114,750.9287 C 112.56568,750.9287 112.97232,750.75866 113.1448,750.55084 C 113.31729,750.34301 113.72394,750.17298 114.04847,750.17298 C 114.38072,750.17298 114.75635,749.95282 114.90817,749.66915 C 115.06,749.38548 115.43563,749.16533 115.76787,749.16533 C 116.09241,749.16533 116.49906,748.9953 116.67154,748.78748 C 116.84401,748.57965 117.25066,748.40961 117.5752,748.40961 C 117.90744,748.40961 118.28307,748.18946 118.4349,747.90579 C 118.5832,747.62869 118.92435,747.40197 119.19302,747.40197 C 119.48861,747.40197 119.8501,747.07867 120.10847,746.58326 C 120.48049,745.86988 120.54177,744.72763 120.58483,737.70346 C 120.63431,729.62943 120.77164,727.74375 121.5658,724.23347 C 121.90382,722.73942 121.93095,722.21997 121.69738,721.71438 C 120.65804,719.46468 120.41226,716.29723 121.06253,713.53278 C 121.39275,712.12888 121.38389,711.99422 120.92275,711.40797 C 120.43325,710.78568 119.50151,710.12542 118.05703,709.37726 C 117.30248,708.98642 117.3012,708.9819 117.22831,706.46672 C 117.17816,704.73572 117.26943,703.63239 117.52007,702.93999 C 117.72069,702.38579 117.958,701.32077 118.04744,700.57328 C 118.20572,699.2504 118.79207,697.82014 119.7075,696.52404 C 120.1225,695.93647 120.16281,694.93971 120.22227,683.79489 C 120.273,674.28698 120.21358,671.39941 119.9442,670.28139 C 119.62954,668.97547 119.64022,668.8009 120.07519,668.14016 C 120.48829,667.51266 120.53974,667.00257 120.47813,664.14596 C 120.41983,661.44383 120.32311,660.73378 119.925,660.08569 C 119.1822,658.8764 119.28592,657.27348 120.19368,655.93385 C 120.9827,654.76943 121.12614,653.98027 120.69515,653.17497 C 120.30082,652.43816 119.92455,650.51125 119.73847,648.27569 C 119.55702,646.09577 119.57686,639.98525 119.772,637.94741 C 119.83834,637.25465 120.00862,633.51381 120.15041,629.6344 C 120.29219,625.755 120.47629,622.40904 120.55952,622.19892 C 120.64274,621.98883 120.76919,621.02528 120.84051,620.0577 C 121.20106,615.16648 121.23316,612.74185 120.97383,609.98548 C 120.66969,606.75296 120.75737,605.83066 121.691,602.44186 C 122.02688,601.22272 122.25936,599.59788 122.28571,598.28536 C 122.3226,596.44854 122.24615,595.99736 121.76784,595.22866 C 120.91395,593.85636 120.61757,592.17799 120.57034,588.44724 C 120.54666,586.57681 120.38195,584.19859 120.20431,583.16231 C 119.91622,581.48167 119.92942,581.13666 120.32652,579.96843 C 120.76142,578.68895 120.75978,578.63588 120.2551,577.66762 C 119.79719,576.78911 119.74314,576.26468 119.77945,573.05229 C 119.81806,569.63537 119.86073,569.34597 120.5256,567.99206 C 121.20101,566.61666 121.2185,566.48899 120.93978,564.96915 C 120.77973,564.09635 120.49074,563.01 120.29757,562.55503 C 119.83096,561.45597 119.85304,560.37254 120.35046,559.95971 C 121.14873,559.29721 121.20356,558.60078 120.55787,557.32537 C 119.86906,555.96478 119.81674,555.5034 120.24475,554.56403 C 120.49137,554.02276 120.46658,553.77954 120.10183,553.16207 C 119.7123,552.50266 119.6639,551.71348 119.68935,546.43676 C 119.70522,543.14875 119.70554,538.53143 119.69006,536.17607 C 119.67458,533.82072 119.76935,527.41593 119.90065,521.9432 C 120.09969,513.64753 120.20885,511.82179 120.5571,510.96452 C 120.96121,509.96975 120.95407,509.87134 120.33784,507.94161 C 119.59557,505.61721 119.53946,504.49009 120.09932,503.15019 C 120.32199,502.61723 120.60841,501.44529 120.73578,500.54588 C 120.87742,499.54568 121.25829,498.39505 121.7164,497.58332 C 122.56589,496.0781 122.70956,494.44189 122.07214,493.53185 C 121.58116,492.83088 121.22362,490.97176 121.03837,488.15651 C 120.91371,486.26214 120.97945,485.72488 121.55242,483.95494 C 121.91376,482.83872 122.44551,481.52527 122.73408,481.03617 C 123.17984,480.28066 123.24417,479.83267 123.16171,478.05832 C 123.0802,476.30455 122.90557,475.60634 122.0723,473.70258 C 121.09784,471.47629 121.07995,471.38079 121.07995,468.40672 C 121.07995,465.64743 121.02953,465.31393 120.51315,464.6571 C 119.84659,463.80924 119.75613,462.2614 120.3226,461.39686 C 120.65631,460.88755 120.65631,460.65938 120.3226,459.37817 C 119.84447,457.54248 119.84683,455.19788 120.32861,453.42389 C 120.79065,451.72257 121.29075,447.94335 121.27864,446.24447 C 121.26509,444.34296 120.70258,438.79206 120.43441,437.91358 C 120.11703,436.87386 120.13514,428.8482 120.45749,427.68763 C 120.75657,426.61085 120.82539,421.85676 120.57984,419.23632 C 120.46078,417.9658 120.52933,416.83986 120.80772,415.49371 C 121.30711,413.07894 121.29773,409.06665 120.78421,405.43518 C 120.5687,403.91113 120.41267,401.41722 120.43748,399.89317 C 120.4696,397.91954 120.36918,396.805 120.08851,396.01989 C 119.80643,395.23086 119.69829,394.01382 119.70799,391.73744 C 119.72484,387.77576 120.26972,381.96137 120.66074,381.57033 C 120.82203,381.40906 120.954,380.91726 120.954,380.47745 C 120.954,380.03766 121.10494,379.23848 121.28944,378.70149 C 121.50915,378.06196 121.59208,376.90655 121.52984,375.3521 C 121.47757,374.04694 121.31958,369.90932 121.17875,366.15741 C 121.03793,362.40553 120.8666,358.01679 120.79803,356.40464 C 120.70552,354.22969 120.77454,353.08304 121.06558,351.95988 C 121.55834,350.05827 121.56802,348.06204 121.089,347.13569 C 120.65289,346.29235 119.30548,345.10291 118.78625,345.10291 C 118.26401,345.10291 115.5706,343.70824 115.17702,343.23403 C 114.74856,342.71774 114.56031,340.80406 114.89003,340.31664 C 115.08802,340.02394 115.70088,339.93877 117.60897,339.93877 L 120.07231,339.93877 L 120.26998,337.79755 C 120.52986,334.98231 120.5287,334.67284 120.23824,329.29435 C 120.01785,325.21367 119.91077,324.49016 119.28742,322.87067 C 118.90107,321.86686 118.32448,320.65084 118.00612,320.16841 C 117.00644,318.6535 117.30501,316.66183 118.7904,314.93678 C 119.05883,314.62505 119.43153,314.36999 119.61863,314.36999 C 120.11023,314.36999 120.51366,313.12716 120.35167,312.11182 C 120.27508,311.63186 120.38442,310.57543 120.59464,309.76418 C 120.80485,308.95295 120.91076,308.081 120.83001,307.82654 C 120.21281,305.88193 119.92464,298.72715 120.38332,296.73634 C 121.59095,291.49496 121.83119,286.36295 121.04961,282.50347 C 120.77641,281.1544 120.6397,279.15579 120.63605,276.45764 C 120.62639,269.30438 120.96557,257.8416 121.21375,256.93468 C 121.34643,256.44975 121.45563,254.78217 121.45641,253.22895 C 121.45791,250.2115 121.45151,250.22843 122.91838,249.35881 L 123.74919,248.86628 L 123.58468,247.2955 C 123.47781,246.27504 123.06534,244.94238 122.40735,243.49169 L 121.39452,241.25864 L 121.37297,237.69777 C 121.36113,235.73929 121.5046,233.08292 121.69181,231.79473 C 122.01241,229.58876 122.00155,229.35438 121.50517,227.76418 C 120.29981,223.90264 120.18216,222.43988 120.82618,219.32194 C 121.03299,218.32073 121.20549,216.93686 121.20952,216.24668 C 121.2242,213.73379 120.97469,210.84083 120.69883,210.32539 C 120.49846,209.95098 120.46465,207.95208 120.58262,203.45184 C 120.73411,197.67226 120.79379,197.04266 121.25163,196.39353 C 121.66773,195.80358 121.70667,195.56495 121.47771,195.00803 C 121.27506,194.51511 121.2782,194.0995 121.48947,193.45355 C 121.82217,192.43631 122.18926,185.98484 122.27783,179.59854 C 122.32769,176.00288 122.26034,174.95792 121.91247,173.93058 C 121.67789,173.23784 121.19387,171.31073 120.83688,169.64812 C 120.47987,167.98552 119.95025,166.10002 119.65993,165.4581 C 119.26096,164.57591 119.17097,164.02242 119.29135,163.19092 C 119.37895,162.58588 119.44264,161.50199 119.4329,160.78228 C 119.42307,160.05717 119.58975,159.13611 119.80671,158.71654 C 120.10636,158.13709 120.19827,157.12824 120.19827,154.41847 C 120.19827,151.36522 120.66273,146.66669 121.07388,145.5606 C 121.14496,145.36939 121.30126,144.48307 121.42122,143.59103 C 121.61829,142.12551 121.56718,141.76116 120.89124,139.81239 C 120.47979,138.62618 120.05402,137.54229 119.9451,137.40375 C 119.83617,137.26519 119.44095,136.415 119.06683,135.51443 C 118.69271,134.61385 118.18911,133.6503 117.94771,133.3732 C 117.09316,132.39227 116.84344,131.30106 117.00224,129.24177 L 117.15359,127.27916 L 116.2613,126.42158 C 114.92237,125.13476 114.65626,124.44443 114.65626,122.25791 C 114.65626,120.51568 114.75842,120.09964 115.63351,118.27784 C 117.65024,114.07934 118.13033,112.94158 118.29896,111.96091 C 118.39427,111.40671 118.98196,109.80602 119.60495,108.40382 C 120.66142,106.02594 120.72933,105.7434 120.61404,104.20539 C 120.54605,103.29845 120.35971,102.31216 120.19994,102.01363 C 119.28419,100.30254 118.93951,96.987239 119.48727,95.158971 C 119.73812,94.321725 119.71867,94.058423 119.36131,93.45347 C 118.72956,92.383995 118.83799,91.829235 119.92404,90.574399 C 121.19525,89.10564 121.36576,88.311523 120.71699,86.881412 C 120.42339,86.234196 120.207,85.216435 120.2038,84.467655 C 120.1887,80.935709 122.05823,75.278899 124.17344,72.456373 C 125.81342,70.26798 126.11503,69.39483 125.72798,67.956163 C 125.56714,67.358308 125.2686,66.546039 125.06454,66.151123 C 124.72754,65.498872 124.60879,65.448845 123.76843,65.605029 C 123.25961,65.699593 121.94519,65.833574 120.84748,65.902766 C 118.45533,66.053548 116.79919,65.660749 116.24206,64.810459 C 115.65743,63.918192 115.95221,62.331335 116.8831,61.359658 C 118.1543,60.032759 119.44233,57.866705 119.44553,57.050436 C 119.44717,56.631627 119.61781,55.665489 119.82472,54.903464 C 120.03164,54.141438 120.25314,52.597471 120.31694,51.472427 C 120.38074,50.347383 120.55607,48.930393 120.70657,48.323562 C 120.99783,47.149213 121.51755,39.327701 121.54151,35.758361 C 121.5494,34.580685 121.43635,33.050338 121.29027,32.357587 C 121.14419,31.664837 120.87488,30.399962 120.6918,29.546756 C 120.37848,28.086551 120.39986,27.835113 121.05601,25.264299 C 121.4394,23.762154 121.90754,21.739612 122.09631,20.769762 C 122.28508,19.799911 122.79847,17.476048 123.23717,15.605622 C 123.67588,13.735196 124.11907,11.784374 124.22207,11.270462 C 124.48377,9.964509 125.08358,9.1473283 125.91384,8.9655695 C 127.31309,8.6592492 160.01955,8.4849949 162.51901,8.770544 C 164.63749,9.0125678 165.14344,8.9871545 166.92742,8.5491194 C 168.66195,8.1232246 169.84037,8.0538786 175.38666,8.0513195 L 181.83063,8.0483446 L 183.0699,7.3555942 L 184.30916,6.6628437 L 212.27108,6.4792395 C 227.65013,6.3782574 241.47995,6.2760947 243.004,6.2522121 C 244.52805,6.2283285 247.46318,6.3511113 249.52652,6.5250614 C 253.21801,6.8362759 253.29735,6.8322861 254.48571,6.2756894 C 256.08644,5.5259427 257.21091,5.7025645 258.31935,6.8778517 C 259.2884,7.9053512 260.39219,8.1864395 262.47567,7.936285 C 266.26117,7.4817759 266.4011,7.4813852 267.22124,7.9230568 C 267.9881,8.3360381 268.08831,8.3349055 269.24509,7.9001767 C 269.91443,7.6486206 270.80219,7.2393947 271.21784,6.9907865 C 271.89012,6.5886806 272.66128,6.5386688 278.20221,6.5378311 C 283.98273,6.5369568 284.49029,6.5007026 285.25563,6.0340126 C 286.0462,5.5520198 286.53156,5.5310964 296.94154,5.5301941 C 307.42195,5.5292854 307.8251,5.5469119 308.44321,6.0330706 C 309.07081,6.5267963 309.4651,6.5368891 328.12332,6.5368891 C 346.55168,6.5368891 347.20564,6.553064 348.48834,7.0405815 C 349.50377,7.4265438 350.43177,7.5453243 352.45856,7.5487733 C 353.91329,7.5512491 355.89705,7.7213448 356.86684,7.9267643 C 360.28928,8.6516895 364.34401,8.2770819 366.35673,7.0500231 C 366.89357,6.7227117 367.63411,6.5384344 368.41509,6.5378311 C 369.25234,6.537185 369.83575,6.3788941 370.27537,6.0330706 C 370.81335,5.6099173 371.29726,5.5292521 373.29831,5.5292521 C 375.29926,5.5292521 375.78327,5.4485879 376.32115,5.0254336 C 376.89591,4.5734055 377.34314,4.5216151 380.67243,4.5216151 C 384.00161,4.5216151 384.44894,4.5734055 385.0236,5.0254336 C 385.3759,5.3025342 385.90201,5.5292521 386.19283,5.5292521 C 386.48365,5.5292521 386.96047,5.8040853 387.25254,6.139991 C 387.77052,6.7356419 387.85169,6.7471403 390.53785,6.6054296 C 393.03448,6.4737221 393.35625,6.5075402 393.97759,6.9669102 C 394.35459,7.2456394 394.9057,7.5506989 395.20225,7.6448194 C 395.49881,7.7389389 395.87893,7.9815952 396.0469,8.1840554 C 396.30604,8.496237 397.96021,8.5521631 406.93505,8.5521631 C 416.83976,8.5521631 417.56791,8.5218733 418.30314,8.0793096 C 418.88384,7.7296808 419.77788,7.5705917 421.7336,7.4688333 C 424.80906,7.3088157 425.59806,7.5577751 426.81522,9.072318 C 427.23483,9.5944851 427.82179,10.08482 428.11959,10.161952 C 428.4174,10.239085 428.90526,10.73029 429.20358,11.25352 C 429.50201,11.77675 430.38719,12.910193 431.17077,13.772285 C 432.58184,15.324972 433.82339,17.739689 433.82693,18.938414 C 433.82776,19.252905 434.05606,19.850293 434.33428,20.265943 C 434.61239,20.681593 435.05909,21.701826 435.32688,22.533126 C 436.67075,26.704703 437.97512,29.245862 439.59376,30.846132 C 440.55605,31.797547 440.86885,32.290556 440.87229,32.861406 C 440.8774,33.715539 440.06943,35.194223 439.47247,35.423315 C 439.2548,35.506832 438.95022,35.871444 438.7957,36.233558 C 438.49966,36.926941 438.17039,43.059263 438.00982,50.872916 C 437.9571,53.436092 437.80434,57.403663 437.67023,59.68974 C 437.51164,62.393791 437.51247,63.879252 437.67263,63.940708 C 438.11371,64.109993 438.86343,64.971767 438.86343,65.30955 C 438.86343,66.154123 438.15716,66.570252 436.19456,66.881947 C 435.09931,67.055903 433.49307,67.342853 432.6254,67.519612 C 431.23569,67.80268 430.94184,67.790573 430.16066,67.418051 C 429.18931,66.954814 427.12323,66.862335 425.90795,67.227695 C 423.60191,67.92102 421.95836,67.996282 408.34841,68.031809 L 394.08158,68.069051 L 393.95071,69.23093 C 393.8786,69.869963 393.92226,70.584426 394.04762,70.818625 C 394.3301,71.346505 394.33771,72.552862 394.06127,72.988637 C 393.94758,73.167702 393.52422,73.402728 393.12045,73.510919 C 392.43867,73.69355 392.385,73.796452 392.36917,74.948713 C 392.35989,75.631306 392.22089,76.586552 392.06032,77.071477 C 391.25725,79.496971 391.13409,84.954862 391.78731,89.163117 C 392.16431,91.591899 392.14514,92.540951 391.62924,96.972308 C 391.39531,98.98128 391.23901,101.36183 391.28194,102.26241 C 391.38489,104.42434 391.34967,109.27645 391.22516,110.07159 C 391.13513,110.64716 391.19744,110.69452 391.94934,110.62175 C 392.95498,110.52441 395.37158,111.58002 395.83235,112.31789 C 396.24581,112.97996 396.64855,112.97623 398.33544,112.29473 C 400.06547,111.59582 400.32128,111.39265 400.32128,110.71803 C 400.32128,109.97521 401.11122,109.17489 402.19854,108.81605 C 402.69015,108.65381 403.09226,108.42128 403.09226,108.29931 C 403.09226,107.96362 405.20335,106.79677 405.81063,106.79677 C 406.10364,106.79677 406.60379,106.69619 406.92202,106.57323 C 407.24035,106.45028 408.12417,106.2094 408.88619,106.03792 C 409.6482,105.86645 410.45606,105.56544 410.68134,105.36901 C 410.90662,105.17259 411.53005,104.94314 412.06678,104.85912 C 412.60362,104.77511 413.64218,104.4442 414.37491,104.12377 C 415.10754,103.80333 416.12776,103.46745 416.64209,103.37733 C 417.15632,103.28722 417.8605,103.02784 418.20686,102.80092 C 418.66013,102.50398 419.75443,102.33578 422.11143,102.20076 C 423.91263,102.09759 426.46323,101.90157 427.77938,101.76516 C 429.09563,101.62875 431.30613,101.41588 432.69167,101.29212 C 434.07711,101.16835 435.8681,100.8826 436.67148,100.65711 C 437.85133,100.32598 439.40245,100.24713 444.73613,100.24713 C 452.0373,100.24713 452.69438,100.35704 455.16152,101.99126 C 456.1832,102.66799 456.55759,102.76795 458.11465,102.77991 C 460.4383,102.79777 461.97306,103.38246 462.71976,104.53421 C 463.57097,105.84718 464.85627,107.04434 465.56577,107.18504 C 465.91213,107.25372 466.93235,107.53017 467.83295,107.79937 C 468.73355,108.06857 469.73188,108.35956 470.05146,108.446 C 470.57413,108.58737 471.05647,109.33924 471.4615,110.6441 C 471.53777,110.88971 471.7444,111.1314 471.92081,111.18119 C 474.07889,111.79064 474.6101,112.0142 475.22384,112.57126 C 475.6173,112.92832 476.25875,113.92179 476.6494,114.77898 C 477.26907,116.13903 477.52165,116.4197 478.63305,116.98285 C 480.12217,117.73745 480.28993,117.99505 480.67474,120.11693 C 481.18448,122.92813 482.97516,127.04684 484.95954,129.97242 C 485.1944,130.3188 485.93391,131.50907 486.60277,132.61747 C 487.96049,134.86734 489.0746,136.35193 490.66739,138.03352 C 491.25789,138.65699 491.91633,139.58857 492.13057,140.10368 C 492.80776,141.73208 492.55404,148.04667 491.63208,152.51029 C 491.41867,153.54356 491.13765,155.87684 491.00771,157.69538 C 490.8635,159.71216 490.62113,161.30298 490.38616,161.77397 C 490.17432,162.19865 490.00093,162.79451 490.00093,163.09808 C 490.00093,163.40167 489.76784,164.31946 489.48285,165.13764 C 489.19786,165.95581 488.81076,167.44644 488.62247,168.45015 C 487.83337,172.65687 486.19524,176.32868 483.72112,179.43685 C 483.25848,180.01808 482.94754,180.70266 482.94754,181.13994 C 482.94754,181.54209 482.49407,183.18615 481.93993,184.79339 C 481.38569,186.40063 480.93222,188.04561 480.93222,188.44889 C 480.93222,188.85219 480.59221,189.93218 480.17656,190.84888 C 479.74798,191.7939 479.4208,192.94399 479.4208,193.50496 C 479.4208,194.78979 479.11643,195.3212 477.85843,196.23246 C 476.51967,197.20229 475.42786,197.21979 474.42202,196.28753 C 473.00157,194.97105 472.87111,194.25193 472.87111,187.73302 L 472.87111,181.82212 L 471.30999,180.1963 C 470.45065,179.3014 469.25767,178.35325 468.65644,178.08728 C 467.08886,177.3939 466.89234,176.73732 466.86431,172.10231 C 466.85149,169.98837 466.72416,168.04037 466.5813,167.77345 C 466.43844,167.50651 466.32153,166.77723 466.32153,166.15283 C 466.32153,165.52842 466.2165,164.95261 466.08802,164.87324 C 465.95964,164.79388 465.30777,165.04953 464.63954,165.44135 L 463.42457,166.15375 L 463.28734,167.77499 C 463.12249,169.72309 462.59441,171.01032 461.65775,171.74706 C 461.03318,172.23833 460.66004,172.29317 457.94209,172.29317 L 454.92072,172.29317 L 453.98886,173.13509 C 453.24904,173.80339 452.76086,174.01179 451.62113,174.14575 C 450.8314,174.23856 449.9035,174.2438 449.55922,174.15738 C 449.02395,174.02306 448.89307,174.11542 448.65643,174.79415 C 448.27986,175.87451 446.40645,176.82754 444.65943,176.82754 C 443.53022,176.82754 443.35798,176.89958 443.14447,177.46095 C 442.81333,178.33211 441.89335,179.53935 441.40715,179.74094 C 441.18573,179.83273 440.17968,179.99353 439.17134,180.09827 C 437.15215,180.30802 436.58906,180.65147 435.83173,182.13519 C 435.38753,183.00558 434.19725,183.94826 432.74273,184.58176 C 431.84838,184.97128 429.9532,184.9745 428.28454,184.58933 C 426.99444,184.29154 426.98402,184.29409 426.23722,185.09315 C 425.52585,185.85443 425.3907,185.89627 423.64411,185.89627 C 422.18302,185.89627 421.6689,185.79198 421.16103,185.39245 C 420.3639,184.76543 420.27283,184.76659 419.61887,185.41213 C 417.28448,187.71638 415.4935,188.03929 413.39783,186.53373 C 412.31915,185.75882 411.59642,185.6904 412.03813,186.40501 C 412.30852,186.84252 411.64331,188.46352 410.45085,190.27309 C 409.39156,191.88055 409.31341,192.11117 409.36311,193.48596 C 409.39249,194.30058 409.63445,195.61843 409.90088,196.41452 C 410.16732,197.21062 410.38812,198.49621 410.39146,199.2714 C 410.39625,200.35569 410.51389,200.78602 410.90152,201.13678 C 411.17858,201.38756 411.40813,201.83022 411.41147,202.12049 C 411.41491,202.41075 411.64165,203.31765 411.91527,204.13582 C 412.18901,204.95398 412.41293,206.03379 412.41293,206.53537 C 412.41293,207.41626 413.27248,209.4286 414.29155,210.93374 C 414.66084,211.47923 414.80036,212.16814 414.84735,213.67905 C 414.88184,214.78844 415.07993,216.44452 415.28749,217.35923 C 415.49506,218.27394 415.8483,220.64348 416.07243,222.62487 C 416.29656,224.60627 416.63709,226.60356 416.82923,227.0633 C 417.02127,227.52303 417.25604,228.67919 417.35086,229.63254 C 417.44568,230.58588 417.6224,231.63359 417.74359,231.96077 C 417.89509,232.3699 417.84445,232.79494 417.58156,233.32199 C 417.02242,234.44269 417.1113,235.37925 417.86123,236.27052 C 418.29647,236.7877 418.56635,237.46334 418.64898,238.24215 C 418.71817,238.89382 418.9349,239.61099 419.13069,239.83589 C 419.32649,240.06077 419.58573,240.7976 419.70671,241.47329 C 419.90886,242.60185 420.75194,245.09565 423.82646,253.65986 C 424.44822,255.39174 425.1053,257.4322 425.28661,258.19422 C 425.46792,258.95626 425.87628,260.00258 426.19398,260.51938 C 426.51179,261.03619 426.77177,261.60611 426.77177,261.78584 C 426.77177,261.96561 426.95245,262.37063 427.17325,262.68589 C 427.47897,263.12233 427.59839,264.08246 427.67403,266.70951 C 427.84211,272.55544 428.62131,276.29756 430.25715,279.11618 C 430.53432,279.59369 430.8886,280.72121 431.04459,281.62178 C 431.5361,284.46093 431.6008,284.64084 432.31332,285.14819 C 434.20549,286.4955 435.3495,291.9812 434.03106,293.38466 C 433.71846,293.71741 433.34584,294.25741 433.20308,294.58469 C 432.78618,295.5404 430.67134,297.00203 427.02372,298.85543 C 423.48427,300.65386 422.577,301.28365 422.22887,302.18393 C 422.11508,302.47838 421.22855,303.24666 420.25897,303.89124 C 419.28939,304.5358 418.40275,305.3279 418.28855,305.65145 C 418.17435,305.97501 417.82674,306.56705 417.51612,306.96705 C 417.00127,307.6301 416.52289,308.50552 414.05866,313.29451 C 413.61446,314.15777 413.10128,315.51809 412.9182,316.31742 C 412.45576,318.3362 412.2012,325.834 412.57153,326.52413 C 412.75752,326.87055 412.7793,327.32213 412.63457,327.82693 C 412.51265,328.25187 412.41293,329.57526 412.41293,330.76781 C 412.41293,332.89534 412.13034,334.27591 411.5412,335.02654 C 411.32248,335.30528 411.30268,336.19742 411.46586,338.42732 C 411.58746,340.08992 411.71083,342.20651 411.73991,343.13084 C 411.78544,344.57562 411.88381,344.89574 412.44096,345.41208 C 413.13441,346.05471 413.2159,346.50404 413.57351,351.65256 C 413.665,352.96878 413.84068,354.17391 413.96405,354.33063 C 414.26081,354.70771 414.72669,356.53211 415.69408,361.10565 C 416.36138,364.26031 416.49517,365.45511 416.51101,368.40452 C 416.5282,371.5882 416.44995,372.24981 415.70658,375.20607 C 415.02199,377.92878 414.84371,379.24533 414.64896,383.01526 C 414.52017,385.50915 414.44618,389.25001 414.48442,391.32826 C 414.54767,394.7546 414.50037,395.24852 413.97739,396.62587 C 413.6602,397.46132 412.83567,398.87831 412.14514,399.77473 C 411.45461,400.67117 410.26371,402.3269 409.49867,403.45411 C 407.63339,406.20262 407.51148,406.2955 405.72643,406.32777 C 403.2744,406.37208 401.56949,406.81783 401.31753,407.48048 C 400.96804,408.39974 400.21958,408.66367 399.67336,408.0602 C 399.38911,407.74609 398.96887,407.58112 398.57114,407.62747 C 398.05806,407.68723 397.94167,407.82461 397.99502,408.30753 C 398.03169,408.64037 397.88998,409.17484 397.68012,409.49523 C 397.47016,409.81563 397.29844,410.33992 397.29844,410.66036 C 397.29844,410.98078 397.12609,411.48896 396.9154,411.78967 C 396.64375,412.17753 396.58009,412.63411 396.69637,413.36093 C 396.80828,414.06123 396.7243,414.74108 396.43098,415.50933 C 396.18256,416.15981 396.0891,416.76835 396.20924,416.95406 C 396.32334,417.13052 396.43389,420.33561 396.45505,424.07646 C 396.4761,427.81731 396.5183,431.50148 396.54893,432.26351 C 396.57946,433.02554 396.5556,434.7826 396.49589,436.1681 C 396.42004,437.92673 396.48672,438.89255 396.7169,439.36743 C 397.12099,440.20132 397.14266,441.60124 396.76442,442.43135 C 396.53924,442.92565 396.56456,443.16773 396.89039,443.63285 C 397.41712,444.3849 397.43849,447.3108 396.92624,448.53697 C 396.67282,449.14347 396.59863,449.88454 396.69398,450.85902 C 396.77838,451.72171 396.66845,453.19095 396.41733,454.55748 C 396.18819,455.80443 395.7865,458.9218 395.52465,461.48498 C 395.26279,464.04816 394.93811,466.9955 394.80306,468.03462 C 394.66813,469.07375 394.38887,471.39761 394.18255,473.19876 C 393.59924,478.29356 392.99707,482.68358 392.74595,483.67388 C 392.62008,484.17029 392.23277,484.90713 391.88516,485.31129 C 391.53755,485.71546 391.25308,486.22331 391.25287,486.43984 C 391.25266,486.65638 390.91547,487.15648 390.50357,487.55115 C 389.69665,488.32428 388.89817,490.33794 389.03008,491.26736 C 389.10177,491.77258 389.29402,491.85753 390.66175,491.98844 C 391.51441,492.07006 392.53463,492.26122 392.92893,492.41321 C 394.02959,492.83763 396.19017,493.22554 397.45328,493.22554 C 398.89614,493.22554 399.47882,493.54134 399.91021,494.55716 C 400.13799,495.09345 400.73255,495.6532 401.6715,496.21523 C 403.04641,497.03822 403.14488,497.05845 404.95129,496.88919 C 406.63922,496.73101 406.93171,496.7746 408.07687,497.3549 C 409.49836,498.07518 410.39771,499.06312 410.39771,499.90427 C 410.39771,500.86382 409.49774,501.26858 405.98922,501.88702 C 402.27534,502.54168 400.42537,503.47473 399.03462,505.3946 C 398.39504,506.2776 398.30564,506.61883 398.30303,508.18896 C 398.29907,510.54093 397.84799,512.14036 396.44463,514.77845 C 395.00959,517.47604 394.60165,518.82741 394.37626,521.63033 C 394.27581,522.87831 393.93258,524.59659 393.58403,525.59589 C 393.07429,527.05718 392.94935,527.98497 392.85463,531.01193 C 392.6976,536.03105 392.55204,536.48524 390.32727,538.90138 C 388.44344,540.94718 385.96244,545.12109 385.96244,546.24466 C 385.96244,547.091 384.47259,551.90851 383.81759,553.17995 C 383.49645,553.80343 383.16353,554.99369 383.07777,555.825 C 382.99202,556.65629 382.68765,558.47005 382.4012,559.85554 C 381.96002,561.9907 381.92251,562.60501 382.15519,563.88609 C 382.30617,564.71739 382.39433,567.04125 382.35098,569.05023 C 382.26585,572.99588 382.22083,573.16068 380.52592,575.73149 C 379.39327,577.44961 378.91364,579.70992 378.62948,584.6686 C 378.35898,589.39044 378.44401,590.72704 379.16268,593.0539 C 379.59437,594.45147 379.88968,594.90027 381.11642,596.02341 C 382.39058,597.18985 383.36193,597.74171 386.62911,599.15527 C 387.19825,599.40152 387.60275,599.88097 388.06394,600.85583 C 388.41728,601.60252 389.43969,603.22535 390.33623,604.46207 C 392.67207,607.68442 393.01625,608.09617 393.37396,608.09617 C 393.8116,608.09617 394.52735,608.92552 394.52735,609.43272 C 394.52735,609.66107 394.83912,610.04161 395.22018,610.27833 C 396.1885,610.88001 396.78234,611.65002 396.78901,612.3125 C 396.79276,612.69112 397.11943,613.0812 397.78432,613.5009 C 398.32866,613.84456 398.98054,614.42868 399.23281,614.79896 C 399.48507,615.16927 400.11663,615.91414 400.63617,616.45426 C 401.15571,616.99438 401.58084,617.60647 401.58084,617.81449 C 401.58084,618.02252 402.03432,618.62405 402.58846,619.15125 C 403.14843,619.68391 403.59617,620.34809 403.59617,620.64616 C 403.59617,620.98906 403.87272,621.32553 404.36298,621.57908 C 404.78478,621.79718 405.3286,622.30241 405.57149,622.70179 C 406.09853,623.56848 408.16116,625.00363 409.75407,625.61194 C 410.9135,626.05477 411.35656,626.05193 415.74785,625.57347 C 416.97511,625.43978 417.39379,625.51186 418.51894,626.05052 C 419.24781,626.39948 420.4111,626.92869 421.10382,627.22653 C 421.79654,627.52438 422.76008,628.08524 423.24502,628.47287 C 423.72997,628.86054 424.6935,629.46038 425.38622,629.8059 C 428.2488,631.23359 431.31384,633.05248 433.44733,634.58956 C 435.67408,636.19382 435.72076,636.24891 436.06472,637.679 C 436.35742,638.89602 436.36117,639.43047 436.08765,640.93437 C 435.61635,643.52599 435.61948,643.52239 433.60269,643.72114 C 432.1241,643.86682 431.78743,643.99006 431.44659,644.51029 C 430.92757,645.3024 430.46961,645.28937 429.70114,644.46064 L 429.08344,643.79447 L 424.46385,643.76789 C 421.03276,643.74815 419.63033,643.83156 419.01295,644.092 C 418.35555,644.3693 418.0641,644.37984 417.62021,644.14226 C 416.99668,643.80853 413.7296,643.89699 407.71352,644.41051 C 404.16573,644.71336 402.88855,644.61849 400.51019,643.87554 C 400.12924,643.75651 399.81747,643.75525 399.81747,643.87277 C 399.81747,644.49135 400.34774,645.32689 400.81852,645.45 C 401.23021,645.55766 401.33681,645.75306 401.27866,646.29343 C 401.21125,646.92001 401.29919,647.01367 402.08465,647.15207 C 403.24293,647.35612 405.26879,648.75509 405.74811,649.6819 C 405.95713,650.08616 406.24503,650.41691 406.38779,650.41691 C 406.53054,650.41691 406.95276,650.74719 407.326,651.15085 C 407.69925,651.55451 409.02477,652.4402 410.27173,653.11904 C 412.41606,654.28644 414.33657,655.49964 417.41567,657.632 C 419.29741,658.93508 420.92324,661.42213 421.28888,663.55658 C 421.64222,665.61934 421.48926,666.16607 420.07943,667.8785 C 418.80069,669.43176 418.28866,669.67261 415.43587,670.06276 C 414.39669,670.20489 412.27893,670.55794 410.72959,670.84735 C 408.19732,671.32039 407.64308,671.34452 405.24472,671.08629 C 403.77738,670.92832 402.46435,670.86855 402.32691,670.95349 C 402.18947,671.0384 401.48363,670.99367 400.75839,670.85405 C 397.24426,670.17761 395.32854,670.01178 394.43493,670.30668 C 393.52808,670.60598 392.63425,670.37216 392.21412,669.72571 C 392.1195,669.58013 390.6458,669.31636 388.93932,669.13956 C 384.84208,668.71507 384.60388,668.67885 384.18208,668.41624 C 383.98358,668.29267 383.2545,668.11487 382.56167,668.02111 C 380.35149,667.72189 377.52528,666.87798 376.44077,666.19333 C 375.86246,665.82827 374.05574,665.18451 372.42585,664.76274 C 369.55222,664.01913 369.42812,663.9582 368.32881,662.75042 C 367.61953,661.97114 366.80114,661.36927 366.14239,661.14251 C 364.41632,660.54833 363.77851,659.98226 362.36348,657.78879 C 361.41391,656.31683 360.55603,655.34934 359.45391,654.5076 C 356.46077,652.22152 351.75292,647.66886 350.97371,646.30699 C 349.87941,644.39422 349.33538,644.01835 346.57325,643.2664 C 343.79727,642.51069 342.74485,641.84724 341.56291,640.10813 C 341.13194,639.47392 340.33148,638.44493 339.78422,637.82145 C 338.43306,636.28241 338.06972,635.3175 337.83923,632.65732 C 337.73117,631.41036 337.45139,629.53993 337.21747,628.50081 C 336.89622,627.07367 336.82015,625.8412 336.90622,623.46262 C 337.03574,619.88529 337.67917,617.31596 339.3669,613.63817 C 340.63522,610.87419 340.72327,610.32332 340.34419,607.5272 C 339.98855,604.90462 339.77703,604.38262 338.20518,602.24738 C 337.17037,600.84165 337.09211,600.62522 337.09211,599.16837 C 337.09211,597.99657 337.2506,597.28882 337.72085,596.3621 C 338.66293,594.50503 338.56894,594.05951 336.93217,592.62382 C 335.15639,591.06619 334.82493,590.27673 334.82493,587.60451 C 334.82493,586.03072 334.72792,585.40557 334.44784,585.17308 C 333.9111,584.72765 333.06083,581.80631 333.06521,580.4226 C 333.06729,579.77907 333.24745,578.74244 333.46575,578.11896 C 333.90204,576.87295 333.84525,575.98481 333.18379,573.71055 C 332.83357,572.5064 332.49586,571.96862 331.52295,571.06551 C 330.40197,570.02492 330.2812,569.79757 330.05102,568.2945 C 329.91316,567.39392 329.58619,565.86357 329.32454,564.89372 C 329.06289,563.92387 328.6016,561.99677 328.29953,560.61127 C 327.74706,558.07707 327.01849,555.24177 326.82385,554.86809 C 326.59909,554.43695 326.00807,555.29938 326.00807,556.05844 C 326.00807,556.51359 325.6863,557.36731 325.26346,558.03412 C 324.67567,558.96089 324.14633,559.39586 322.75068,560.09869 C 319.96636,561.50086 317.88486,561.23862 316.829,559.35266 C 316.29456,558.39792 316.19401,558.34258 314.5265,558.08515 C 311.89775,557.67935 311.11875,556.96834 311.68154,555.48819 C 311.99841,554.65491 312.32643,554.44818 313.33987,554.44335 C 314.33675,554.43859 315.36844,553.49481 314.86421,553.04883 C 314.68937,552.89411 313.88599,552.56844 313.07896,552.32514 C 311.13928,551.74042 310.64162,551.21798 310.64162,549.76665 C 310.64162,548.14635 311.17367,547.30651 312.84211,546.29295 C 313.64153,545.80737 314.55943,545.12916 314.88193,544.78583 L 315.46836,544.16162 L 314.96414,542.31006 C 314.43074,540.35132 314.33644,536.53399 314.80336,535.79821 C 314.93517,535.59039 315.11033,534.57016 315.19265,533.53102 C 315.28351,532.38227 315.56433,531.16079 315.90902,530.41476 C 316.22079,529.73992 316.56882,528.32293 316.6824,527.2659 C 316.79597,526.20883 317.11587,524.60714 317.39325,523.70657 C 318.0421,521.5994 318.64938,512.88033 318.22341,511.78745 C 317.87694,510.89857 317.87079,509.34879 318.20653,507.53276 C 318.37721,506.60906 318.38283,505.75886 318.22268,505.04647 C 317.83182,503.3068 318.4888,502.64068 321.15142,502.07726 C 321.87467,501.9242 323.29168,501.50414 324.30023,501.14379 C 325.30889,500.78343 327.10519,500.22246 328.29223,499.89716 C 331.48679,499.0217 333.04478,498.24491 334.25809,496.92267 C 334.84692,496.28095 335.32874,495.57785 335.32874,495.36022 C 335.32874,495.14263 335.53276,494.5422 335.78222,494.02596 C 336.15546,493.25339 336.24799,492.31046 336.30509,488.69597 C 336.34313,486.28069 336.46045,484.12963 336.5657,483.91581 C 336.67094,483.702 336.89986,482.84689 337.0745,482.01558 C 337.24914,481.18429 337.49464,480.24373 337.61999,479.92547 C 337.74524,479.60724 337.84944,479.04044 337.85152,478.66593 C 337.85538,477.9502 338.40347,476.13703 338.9253,475.11372 C 339.36294,474.25549 339.18059,459.09983 338.71961,458.01327 C 338.07222,456.48771 337.99344,454.90978 338.15704,446.74829 C 338.18569,445.31921 338.0322,444.14683 337.62937,442.71775 C 337.00344,440.49752 336.63478,438.2885 336.34719,435.03451 C 336.16838,433.01022 335.83786,431.85336 333.86421,426.34365 C 333.51681,425.3738 333.01748,424.30157 332.75459,423.96089 C 332.37405,423.46785 332.28736,422.9797 332.32966,421.56774 C 332.35884,420.5922 332.49628,419.33488 332.63497,418.7737 C 332.87067,417.82047 332.82732,417.66625 331.97517,416.42749 C 331.47356,415.69824 330.99507,414.6837 330.91202,414.17297 C 330.7327,413.07057 330.35424,411.14266 330.02435,409.65103 C 329.89368,409.06022 329.78677,408.12501 329.78677,407.57278 C 329.78677,407.01271 329.66465,406.56877 329.51064,406.56877 C 328.84053,406.56877 326.52594,407.38186 326.25023,407.7141 C 326.07028,407.93097 325.5026,408.08023 324.85791,408.08023 C 323.88573,408.08023 323.68035,407.96941 322.93647,407.04344 C 322.4783,406.47321 321.42338,405.27854 320.59208,404.38857 C 319.243,402.94435 318.81484,402.66443 316.60716,401.78363 C 315.24684,401.24086 313.5761,400.4537 312.89463,400.03432 C 312.21306,399.61496 310.09541,398.74774 308.18865,398.10719 C 306.2818,397.46661 304.46674,396.78195 304.15498,396.58569 C 303.55729,396.2094 303.39703,395.38072 303.86593,395.0909 C 304.01879,394.99646 304.41443,394.33797 304.74537,393.62756 C 305.42132,392.17611 305.38901,390.4693 304.65826,389.02413 C 304.2747,388.26585 304.29106,388.14015 305.03348,386.12716 L 305.80956,384.02289 L 305.76299,378.85875 L 305.71641,373.69462 L 305.02359,372.6646 C 304.63867,372.09249 304.23146,371.02866 304.10736,370.27147 C 303.98461,369.52176 303.70577,368.39823 303.48789,367.77475 C 303.27001,367.15127 303.09005,366.45583 303.08807,366.22929 C 303.08599,366.00277 302.801,365.63173 302.45454,365.40478 C 301.88165,365.02939 301.82476,364.8322 301.82476,363.22134 C 301.82476,362.24737 301.64366,360.65385 301.42213,359.68012 C 301.10244,358.27475 301.0765,357.68318 301.29615,356.81082 C 301.70628,355.1823 301.65741,352.67682 301.21227,352.50603 C 300.54966,352.25175 297.62154,354.64526 295.07313,357.52426 C 292.89754,359.98201 292.49346,360.21379 290.38081,360.2158 C 289.42081,360.21672 288.2694,360.08517 287.82228,359.92347 C 287.04943,359.64399 286.94888,359.68287 285.78914,360.70927 C 285.11809,361.3032 284.34232,361.89793 284.06526,362.03094 C 283.78808,362.16394 283.01576,363.00669 282.34877,363.90366 C 281.12713,365.54654 279.91612,366.51253 279.07578,366.51427 C 278.82552,366.51477 278.31434,366.17971 277.93983,365.76967 C 277.09029,364.83957 275.45928,364.24802 273.74431,364.24802 C 272.08715,364.24802 271.62638,363.7867 271.36583,361.86672 C 271.20707,360.69695 271.00044,360.26651 270.18793,359.41322 C 269.64597,358.84406 269.00418,358.16869 268.76171,357.91242 C 268.40262,357.53288 268.32088,356.98165 268.32088,354.93972 L 268.32088,352.43299 L 269.6434,350.8666 C 270.97534,349.28905 271.70307,348.56218 275.41381,345.10291 C 277.00895,343.61587 277.65218,342.79399 278.43473,341.2429 C 279.35199,339.42488 280.42514,337.74712 282.59343,334.74088 C 283.0565,334.09884 283.43547,333.34996 283.43547,333.07671 C 283.43547,332.49025 284.99899,330.36492 285.71067,329.98405 C 286.5077,329.55749 286.29336,329.15273 284.87937,328.41393 C 283.50049,327.69351 282.93167,327.55867 282.93167,327.95218 C 282.93167,328.41564 279.1334,332.20584 278.5129,332.36157 C 277.7087,332.56343 276.29572,331.91612 275.76182,331.1013 C 275.54307,330.76742 274.68947,330.15371 273.86495,329.73749 C 272.01343,328.80285 269.70922,328.70473 267.55548,329.46885 C 266.39491,329.88059 266.10083,329.90544 265.67583,329.62768 C 264.90962,329.12691 264.9302,328.53547 265.74017,327.77768 C 266.49736,327.06928 267.06133,326.19196 267.06133,325.72245 C 267.06133,325.57428 266.57852,325.45399 265.98379,325.45399 C 263.82284,325.45399 263.62358,324.96366 263.37351,319.03031 C 263.22836,315.58621 263.42855,314.60444 264.65771,312.73258 C 265.11258,312.03983 265.79025,310.93007 266.16358,310.26646 C 266.53693,309.60284 267.17504,308.68099 267.58162,308.21791 C 267.98821,307.75485 268.32088,307.2934 268.32088,307.19252 C 268.32088,306.28408 272.56411,301.77452 273.41891,301.77452 C 273.56822,301.77452 274.26765,301.3354 274.9732,300.79865 C 275.67875,300.26194 277.58995,298.94379 279.22033,297.86945 C 282.08233,295.98356 283.18977,294.93367 284.00284,293.33556 C 284.40745,292.54023 285.30367,289.58496 285.5326,288.29088 C 285.94033,285.98598 288.62108,281.26854 290.97297,278.71705 C 291.50835,278.1362 292.53743,276.76674 293.25974,275.67381 C 293.98205,274.58087 295.01436,273.23918 295.5538,272.69228 C 296.09335,272.14537 296.53474,271.61872 296.53474,271.52196 C 296.53474,271.42521 297.12983,270.97272 297.85724,270.51646 C 298.58466,270.06021 299.82402,269.08409 300.61135,268.34727 C 301.39868,267.6105 302.54551,266.79222 303.15976,266.52889 C 303.92292,266.20177 304.52072,265.68855 305.04724,264.90841 C 306.05548,263.41436 305.90908,263.28478 302.32867,262.50246 C 299.86017,261.96309 298.6078,260.19254 298.49005,257.07577 C 298.42524,255.35806 298.41065,255.32407 297.65468,255.12905 C 296.71063,254.8855 296.03156,253.61031 296.02937,252.07689 C 296.02854,251.49274 295.84254,250.67474 295.61612,250.25908 C 294.98352,249.09756 294.71593,247.51395 294.59715,244.22742 C 294.51347,241.91457 294.57829,240.98232 294.87755,240.19687 C 295.19661,239.35902 295.22641,238.71267 295.0427,236.6064 C 294.90099,234.98134 294.67113,233.82713 294.41709,233.46446 C 294.15461,233.08971 294.01561,232.35103 294.01561,231.33126 C 294.01561,229.14433 295.16816,226.9617 298.63989,222.57396 C 299.0893,222.00607 299.95541,220.46452 300.56477,219.1483 C 303.10704,213.65672 305.4655,210.07956 306.54386,210.07956 C 306.72621,210.07956 306.99327,209.76783 307.13717,209.38681 C 307.49375,208.44276 308.48531,207.43791 310.13782,206.34598 C 311.71144,205.30611 311.52576,205.48002 313.55453,203.14596 C 314.39459,202.17947 315.46013,200.70854 315.92236,199.87723 C 316.38449,199.04594 317.01969,198.08238 317.33385,197.73601 C 317.64802,197.38963 318.09972,196.42608 318.33751,195.59478 C 318.57539,194.76348 319.46338,192.72746 320.31084,191.07029 C 321.52352,188.69889 322.24614,187.64096 323.70442,186.10236 C 325.38891,184.32508 328.60546,181.95469 330.10781,181.38349 C 331.89588,180.70366 335.88986,177.6618 340.33544,173.59389 C 341.4958,172.53213 342.62939,171.56039 342.85447,171.43448 C 343.07964,171.30857 343.88729,170.67792 344.64941,170.03303 C 345.41142,169.38814 346.40632,168.6027 346.86043,168.28762 C 347.98839,167.50491 350.29548,164.56377 350.6681,163.43352 C 350.83575,162.92505 351.1371,162.37271 351.33789,162.20611 C 351.53858,162.03952 351.7028,161.77245 351.7028,161.61265 C 351.7028,161.09057 354.00228,157.58879 355.27602,156.17099 C 355.96072,155.40896 357.20392,153.95804 358.03888,152.94672 C 358.87383,151.93539 359.94594,150.85849 360.4213,150.55358 C 360.89666,150.24868 361.34774,149.71581 361.42381,149.36944 C 361.49987,149.02306 361.66763,148.47927 361.79663,148.16101 C 362.11903,147.3654 362.09173,144.91523 361.75349,144.28313 C 360.88186,142.65449 358.15735,139.58639 355.79056,137.56807 C 355.08408,136.9657 354.26622,136.00215 353.973,135.42685 C 352.04895,131.65194 351.01925,130.14913 348.33944,127.20462 C 347.34902,126.11632 345.80186,124.31514 344.90126,123.20203 C 344.00066,122.0889 342.61345,120.71676 341.81862,120.15281 C 340.32283,119.09168 339.93343,118.38677 340.21748,117.25484 C 340.32335,116.83324 340.59948,116.58406 341.06348,116.49153 C 341.44245,116.41596 342.49727,116.13084 343.40766,115.85792 C 345.19396,115.32241 348.62724,115.18096 349.42864,115.60985 C 349.76698,115.79093 350.20399,115.72018 351.04499,115.34814 C 352.14784,114.8603 352.55411,114.84408 360.45214,114.97249 C 364.99213,115.04631 370.83065,115.16891 373.42648,115.24492 C 378.35336,115.38922 379.1609,115.26685 379.1609,114.37595 C 379.1609,113.45399 378.40223,112.12746 377.4687,111.41714 C 375.72596,110.09112 373.75283,108.87463 373.09981,108.72363 C 372.09897,108.49221 370.37238,107.12309 370.19628,106.42122 C 369.89994,105.24076 370.2611,104.57137 371.35269,104.27743 C 372.56547,103.95084 375.57831,101.36392 376.04866,100.24521 C 376.47838,99.223117 377.69877,98.73567 379.82799,98.73567 C 381.51519,98.73567 381.52124,98.738233 382.6071,99.90424 C 383.8401,101.2283 383.96535,101.94235 383.18812,103.21708 L 382.68286,104.04582 L 383.37797,104.65761 C 383.76039,104.99409 384.20136,105.27298 384.35818,105.27736 C 385.06132,105.297 385.20678,102.90158 385.20949,91.255771 C 385.21241,78.505072 385.20981,78.534217 386.63224,75.626837 C 387.2244,74.416542 387.27004,74.153332 387.01173,73.439152 C 386.85033,72.99263 386.7182,72.115861 386.7182,71.490772 C 386.7182,70.470351 386.61671,70.272658 385.72434,69.555551 C 385.17771,69.116267 384.54657,68.445477 384.32192,68.06491 L 383.91335,67.372971 L 373.03521,67.438941 C 362.98805,67.499872 361.99961,67.544801 360.09641,68.027098 C 358.48464,68.435549 357.63416,68.513745 356.19183,68.386102 C 355.17765,68.296352 349.92682,68.13259 344.52343,68.022189 C 339.11995,67.911787 334.33676,67.736937 333.89412,67.633634 C 333.45148,67.530329 332.14783,67.580764 330.99715,67.745709 C 329.84648,67.910654 328.11155,68.132444 327.14166,68.238576 C 325.08726,68.46339 321.99085,69.882833 321.31939,70.907603 C 320.77474,71.73884 315.74105,76.143571 314.78367,76.626728 C 314.37593,76.832453 313.75897,77.069321 313.41261,77.153106 C 313.03165,77.245252 312.18565,78.056627 311.2714,79.206681 C 310.4401,80.252357 309.35757,81.376579 308.86574,81.704944 C 307.57825,82.564519 305.43361,83.621115 304.97638,83.621115 C 304.7609,83.621115 304.10527,84.056285 303.51957,84.588152 C 302.93386,85.120029 301.75974,86.021837 300.91051,86.592174 C 299.78692,87.346789 299.15703,88.000351 298.59717,88.992406 C 297.99135,90.06581 297.5163,90.531437 296.36292,91.182394 C 295.55724,91.637091 294.7845,92.155412 294.6457,92.334208 C 294.26589,92.823728 291.41759,94.857844 290.32027,95.423273 C 289.78958,95.696756 288.95858,96.337887 288.47364,96.848008 C 287.9419,97.407331 286.396,98.377348 284.57906,99.291691 C 282.92198,100.1256 279.22489,102.36959 276.36331,104.27831 C 273.50169,106.18703 270.88992,107.83066 270.55935,107.93082 C 270.22876,108.03097 269.66908,108.38321 269.31559,108.71357 C 268.56419,109.4158 265.5531,111.3946 261.64528,113.75423 C 260.12124,114.67448 258.49702,115.86607 258.03595,116.4022 C 257.57486,116.93832 257.08039,117.37696 256.9371,117.37696 C 256.79383,117.37696 255.45773,118.27679 253.96803,119.37659 C 252.47832,120.47639 250.25218,121.96466 249.02105,122.68387 C 247.78993,123.40307 246.44257,124.30525 246.02691,124.68872 C 245.61126,125.07217 244.57117,125.73508 243.7156,126.16183 C 242.83441,126.60136 242.09118,127.15458 242.00126,127.4379 C 241.73563,128.27483 238.61105,130.94088 236.9203,131.77323 C 236.04455,132.20436 235.20432,132.70616 235.05312,132.88835 C 234.90193,133.07052 234.19181,133.5884 233.47507,134.03918 C 232.75833,134.48997 231.81192,135.1655 231.37191,135.54035 C 230.93192,135.9152 230.22357,136.29842 229.7978,136.39193 C 229.37202,136.48545 228.88183,136.75759 228.70847,136.99669 C 228.39317,137.43157 225.47495,139.67806 223.10318,141.31174 C 222.41043,141.78891 220.51622,142.86668 218.89384,143.70679 C 216.71196,144.83663 215.79216,145.46102 215.36056,146.10529 C 214.78653,146.96216 211.98007,149.08206 210.0039,150.15149 C 209.03349,150.67664 208.08223,151.40623 206.47716,152.8564 C 206.06152,153.23195 204.81457,154.06274 203.70617,154.70262 C 202.59776,155.34251 200.61398,156.74052 199.29776,157.80932 C 197.98152,158.87812 196.36438,160.00888 195.70408,160.32214 C 195.04379,160.63538 193.89781,161.44489 193.15746,162.12103 C 192.41711,162.79719 191.07467,163.93333 190.17426,164.64581 L 188.53715,165.94123 L 188.3497,168.42444 C 188.24661,169.79022 188.18264,171.8908 188.20756,173.0924 C 188.23482,174.40719 188.09461,175.89483 187.85544,176.82841 C 187.33205,178.87143 187.35384,179.73689 187.97698,181.65435 C 188.71797,183.93443 188.8811,187.11822 188.37169,189.3579 C 187.8492,191.65511 187.85062,193.18266 188.37594,193.93266 C 188.73804,194.44962 188.76822,195.04977 188.61632,198.71201 C 188.52078,201.01548 188.38496,206.98108 188.31451,211.96888 C 188.23703,217.45422 188.06739,221.63485 187.8852,222.54907 C 187.68093,223.57403 187.61258,226.26455 187.67286,230.90802 C 187.75129,236.95101 187.70917,237.91289 187.31422,239.09507 C 186.93022,240.24452 186.86398,241.43561 186.84747,247.48808 C 186.83088,253.5797 186.76425,254.76365 186.35893,256.17027 C 185.79666,258.12157 185.75557,259.05266 186.13612,261.21714 C 186.29447,262.11771 186.49187,265.73435 186.57479,269.2541 C 186.67049,273.31606 186.85934,276.2896 187.09179,277.39465 C 187.57732,279.70274 187.55677,280.15726 186.91093,281.39635 C 186.38751,282.40056 186.37698,282.5562 186.66762,284.99381 C 186.88245,286.7957 186.89513,287.7993 186.71089,288.42168 C 186.31886,289.74603 186.39345,290.95724 186.98473,292.86819 C 187.42972,294.30637 187.49207,294.95313 187.35762,296.73634 C 187.26883,297.91402 187.03938,299.39746 186.84775,300.03288 C 186.65612,300.66827 186.42117,301.91791 186.32566,302.8098 C 186.17043,304.25936 186.2213,304.5618 186.80501,305.65959 C 187.59179,307.13933 187.60511,307.42699 186.9463,308.71175 L 186.43457,309.70966 L 187.05765,310.21349 C 188.58709,311.45018 189.16209,314.52637 188.21192,316.38884 C 187.73242,317.32874 187.72499,317.48129 188.06828,319.33874 C 188.26738,320.41607 188.60828,321.85396 188.82583,322.53409 C 189.31572,324.06562 189.32677,325.16321 188.86468,326.39357 C 188.1116,328.39874 187.87314,332.40797 188.4436,333.47385 C 188.80669,334.15232 188.80002,340.50877 188.43512,341.55552 C 188.20254,342.22269 188.23059,342.51052 188.59393,343.18516 C 188.98034,343.90272 188.99835,344.19022 188.73875,345.49838 C 188.06743,348.88155 187.94239,350.09498 188.10458,351.65256 C 188.26886,353.23011 188.29086,355.66366 188.19908,362.10679 C 188.16628,364.40899 188.25298,365.35299 188.56275,366.06628 C 189.04696,367.18122 189.08867,368.60396 188.65949,369.36573 C 188.28778,370.02553 188.19039,371.33777 188.26349,374.70225 C 188.29358,376.08775 188.29275,377.67478 188.26163,378.22898 C 188.23051,378.78318 188.16744,380.76697 188.12145,382.63739 C 188.07548,384.50782 187.95373,387.24847 187.85092,388.72773 C 187.71643,390.66259 187.75222,391.66136 187.97849,392.2871 C 188.21357,392.93718 188.22854,393.55731 188.03776,394.74193 C 187.87205,395.77091 187.86738,396.64321 188.02445,397.2284 C 188.15754,397.72416 188.24905,399.20672 188.22781,400.52295 C 188.20657,401.83917 188.16527,405.37099 188.13601,408.3714 C 188.08676,413.42231 188.04566,413.86784 187.58149,414.38105 C 187.11889,414.89253 187.08471,415.24925 187.13904,418.99736 C 187.17733,421.63896 187.0633,423.96597 186.81294,425.65208 C 186.6012,427.07806 186.48591,428.33856 186.55675,428.45318 C 186.62758,428.56778 186.74727,431.54081 186.8227,435.05988 C 186.89814,438.57895 187.0198,442.30839 187.09307,443.34752 C 187.16635,444.38664 187.13438,449.09104 187.02205,453.80175 C 186.86388,460.4347 186.89101,462.76443 187.14233,464.13003 C 187.37806,465.41099 187.42973,467.61626 187.33119,472.19113 C 187.25658,475.65487 187.20011,480.50435 187.20568,482.96775 C 187.21199,485.75374 187.11143,487.64167 186.93965,487.96263 C 186.73628,488.34264 186.77193,489.95322 187.0749,494.07332 C 187.38303,498.26351 187.41652,499.85157 187.20829,500.39924 C 186.79335,501.49059 186.77304,535.03482 187.18642,536.51872 C 187.37606,537.1995 187.48,539.16283 187.45979,541.68285 C 187.44186,543.91903 187.52816,546.14538 187.65156,546.6303 C 187.9774,547.91071 188.02784,553.59356 187.7185,554.17156 C 187.49009,554.59838 187.44583,559.137 187.5636,570.05786 C 187.57481,571.09699 187.48182,573.53421 187.35697,575.47392 C 187.08662,579.6741 187.09473,611.44134 187.36748,616.66108 C 187.47247,618.67005 187.56905,622.63762 187.58213,625.4779 C 187.5952,628.31818 187.73438,633.47602 187.89142,636.93977 C 188.12303,642.04821 188.28449,652.70811 188.18524,656.33678 C 188.17387,656.75244 188.28406,657.60262 188.43009,658.2261 C 188.82598,659.91618 188.77074,663.56081 188.31916,665.54625 C 188.01911,666.86548 187.98028,667.59294 188.16186,668.49294 C 188.31431,669.24849 188.31979,674.27365 188.17678,682.15748 C 187.89253,697.82782 187.90043,696.24021 188.06824,703.94763 L 188.21084,710.49727 L 190.79437,710.65534 C 192.21531,710.74228 193.51088,710.82729 193.67345,710.84428 C 193.83601,710.86125 194.28944,711.14465 194.68108,711.47405 L 195.39316,712.07298 L 207.86267,712.48735 C 214.7209,712.71528 221.40909,713.0091 222.72531,713.14035 C 224.04154,713.27159 231.57992,713.43284 239.47727,713.49869 C 250.97385,713.59457 254.26293,713.69644 255.97733,714.00979 C 257.75279,714.33432 260.61439,714.40169 272.72929,714.40425 C 285.0688,714.40685 287.53584,714.46678 288.59961,714.78985 C 289.70434,715.12537 294.92225,715.17173 331.04623,715.16701 C 356.88914,715.16363 372.65571,715.25316 373.36698,715.40733 C 373.99051,715.54246 376.03095,715.76895 377.90134,715.91062 C 379.77183,716.0523 382.4358,716.33965 383.82124,716.54916 C 385.8373,716.85404 391.27059,716.98037 411.02749,717.18175 C 451.34114,717.59267 460.94492,717.79492 462.41695,718.26405 C 464.75645,719.00965 468.1693,719.18398 480.55439,719.19045 C 490.86183,719.19582 493.18882,719.2624 494.66127,719.59402 C 495.63116,719.81242 497.45497,720.07929 498.71433,720.18703 C 499.99046,720.29623 501.27274,720.55127 501.61129,720.76322 C 501.94525,720.97236 502.52147,721.21358 502.8918,721.29929 C 503.37029,721.41005 503.63735,721.69184 503.81553,722.27392 C 503.95328,722.72426 504.13751,726.94694 504.22493,731.65764 C 504.3829,740.17251 504.38061,740.22845 503.82606,741.2302 C 503.38623,742.02492 503.23472,742.82426 503.10916,745.01321 C 502.98829,747.12177 502.81678,748.06391 502.39539,748.93439 C 502.0903,749.56453 501.84074,750.21174 501.84074,750.37261 C 501.84074,750.53346 501.24826,751.13343 500.52407,751.70584 C 499.79988,752.27825 499.02443,753.04749 498.80081,753.41522 C 498.5771,753.78298 497.97211,754.42253 497.45622,754.83644 C 496.94033,755.25035 496.1854,755.89205 495.77871,756.2624 L 495.0392,756.93578 L 495.0392,761.06676 C 495.0392,764.20246 494.94146,765.48442 494.63386,766.38741 C 493.9947,768.26298 494.24374,772.40593 495.14955,774.96679 C 495.5378,776.06458 496.06817,777.31153 496.32805,777.73779 C 497.17707,779.12999 496.79476,781.65981 495.51529,783.11711 C 494.63386,784.12104 493.87508,785.56864 493.54998,786.86637 C 492.93447,789.32335 492.429,791.16901 492.18913,791.83445 C 491.84183,792.79803 490.86214,793.93769 489.99614,794.38554 C 489.61091,794.58477 489.01541,795.24916 488.67291,795.86195 C 488.09168,796.90196 488.05448,797.18337 488.11429,800.08801 C 488.14951,801.79953 488.31571,803.5669 488.48347,804.01552 C 488.71156,804.62539 488.74491,806.62727 488.61549,811.95067 C 488.52036,815.86637 488.45857,820.77054 488.47836,822.84879 C 488.54943,830.30954 488.57131,833.70144 488.55672,834.94044 C 488.54849,835.63319 488.55537,837.10685 488.57194,838.21525 C 488.5885,839.32365 488.45461,841.0525 488.27445,842.05715 C 488.01593,843.49854 488.01072,844.07749 488.24996,844.8023 C 488.45273,845.41683 488.49848,846.47969 488.38792,848.01386 C 488.29549,849.29793 488.33321,850.8057 488.47378,851.44048 C 488.61184,852.06396 488.88214,853.31091 489.07449,854.21149 C 489.26684,855.11207 489.6826,856.28095 489.99854,856.809 C 490.57236,857.76844 490.57247,857.77036 490.13608,859.62348 C 489.81462,860.98843 489.51724,861.64011 489.00937,862.09269 C 488.33155,862.6966 488.31633,862.77512 488.15503,866.50187 C 487.97581,870.64249 488.09553,871.82211 488.71427,872.0141 C 490.82421,872.6687 491.24935,873.11574 491.25706,874.6876 C 491.25967,875.22044 491.47265,875.51402 492.1439,875.91007 C 492.62979,876.19672 493.09723,876.70986 493.18267,877.05039 C 493.39045,877.87828 493.16142,879.45978 492.70742,880.33193 C 491.32927,882.97937 490.65604,884.13214 490.2086,884.61089 C 489.65457,885.20371 489.77075,885.70015 490.46358,885.70015 C 492.17506,885.70015 492.54487,887.89178 491.22872,890.23451 C 490.15952,892.13766 489.75554,893.77245 489.7521,896.21081 C 489.7496,897.89694 489.61404,898.62359 489.02333,900.1154 C 487.8987,902.95578 487.66675,904.3835 487.82524,907.49029 C 488.08282,912.54042 488.452,917.04763 488.70198,918.19644 C 488.83765,918.81991 488.93997,922.24316 488.92934,925.80367 C 488.91475,930.67914 488.98874,932.37218 489.22892,932.66154 C 489.46462,932.94555 489.50317,933.65526 489.37678,935.38257 C 489.28268,936.66783 489.23152,939.02304 489.26299,940.61636 C 489.53891,954.53555 489.55621,953.60657 489.00405,954.51218 C 488.66196,955.0733 488.49108,955.79024 488.49045,956.66715 C 488.48962,957.86637 488.39073,958.09251 487.35968,959.25341 C 486.73823,959.95312 486.16961,960.77874 486.09604,961.08816 C 486.02248,961.39762 485.93579,964.03132 485.90338,966.94088 L 485.84451,972.23097 L 484.9238,972.30773 C 483.48313,972.42783 483.20513,971.81718 483.17209,968.45926 C 483.15709,966.93141 483.07206,965.00118 482.98318,964.16987 C 482.84084,962.83894 482.75196,962.64855 482.23888,962.57585 C 481.91847,962.53042 481.10779,962.69051 480.43737,962.93156 C 479.39829,963.30524 479.10299,963.322 478.43475,963.04522 C 477.97169,962.85342 477.58959,962.47596 477.50102,962.12271 C 477.30575,961.34481 477.05484,961.36635 476.67795,962.19334 C 476.51039,962.56103 475.99096,963.43957 475.52362,964.14564 C 474.8558,965.15454 473.37502,968.49059 473.37502,968.98615 C 473.37502,969.03893 473.74649,969.0821 474.2006,969.0821 C 475.54415,969.0821 476.14601,969.67578 476.14601,971.00129 C 476.14601,972.18668 475.08963,974.83097 474.46735,975.20342 C 473.88935,975.54932 474.09775,976.1503 474.89175,976.42707 C 475.68951,976.70518 476.14455,977.30077 476.14799,978.07131 C 476.15163,978.87812 473.98626,983.9717 472.36605,986.96766 C 472.25373,987.17549 471.81953,988.25239 471.40127,989.3608 C 470.38563,992.05255 468.67405,995.43347 468.01728,996.04531 C 467.27089,996.74063 465.4945,996.72086 464.78302,996.00934 C 464.30016,995.5265 464.26786,995.3042 464.42624,993.55322 C 464.52867,992.42145 464.77343,991.37983 465.02018,991.02584 C 465.72697,990.01181 465.78792,989.90305 466.3482,988.65694 C 466.82721,987.59174 466.84649,987.41344 466.5118,987.14548 C 466.30298,986.97842 466.01549,986.61984 465.87274,986.34872 C 465.66465,985.95312 465.39165,985.86937 464.49084,985.92476 C 463.11207,986.00955 462.54283,985.52823 462.54283,984.27767 C 462.54283,983.5228 462.47562,983.41688 462.10206,983.58278 C 461.85959,983.69044 461.17844,983.82743 460.58835,983.88718 C 459.55771,983.99158 459.50071,983.96024 459.13654,983.08861 C 458.85343,982.41105 458.60731,982.18138 458.16425,982.18138 C 457.65805,982.18138 457.5502,982.33636 457.42933,983.23807 C 457.35139,983.81924 457.38087,984.47107 457.49476,984.68654 C 457.71754,985.10766 458.00618,989.8563 458.13101,995.15471 C 458.17352,996.95586 458.34326,999.16636 458.50832,1000.0669 C 458.67337,1000.9675 458.81571,1003.0647 458.82446,1004.7273 C 458.83832,1007.3174 458.76559,1007.8944 458.3168,1008.7578 C 458.02868,1009.312 457.62856,1010.1148 457.42745,1010.5419 C 456.72025,1012.0439 455.38493,1012.6798 453.81974,1012.2598 C 452.89653,1012.012 452.74034,1011.2038 452.94321,1007.726 C 453.10076,1005.0239 453.067,1004.3718 452.73606,1003.7304 C 452.42242,1003.1225 452.33625,1002.0255 452.31958,998.42954 C 452.30176,994.58467 452.22976,993.76296 451.84609,993.02583 C 451.4493,992.26367 451.41856,991.81331 451.59601,989.37315 C 451.7073,987.84232 451.77753,986.24972 451.752,985.83407 C 451.68781,984.78607 451.75263,980.50518 451.8512,979.28443 C 451.89601,978.73023 451.99781,976.12296 452.07742,973.49051 C 452.15713,970.85806 452.33094,968.42084 452.46369,968.07447 C 452.59644,967.72809 452.75336,965.23419 452.81234,962.53247 C 453.17631,945.8705 453.28197,942.64803 453.49589,941.67413 C 453.6301,941.06337 453.71981,935.18323 453.70148,928.19698 C 453.68116,920.46838 453.76452,915.50703 453.9228,915.01621 C 454.06545,914.57386 454.13224,912.71222 454.07534,910.76582 C 453.9949,908.01136 453.87143,907.07026 453.47224,906.16782 C 453.19621,905.54371 452.97031,904.61929 452.97031,904.11348 C 452.97031,903.5056 452.79952,903.04762 452.4665,902.76247 C 451.83213,902.21929 451.82598,901.62343 452.44795,900.9569 C 452.851,900.52497 452.94603,899.98851 453.00855,897.79179 C 453.14182,893.11426 452.32698,883.40966 451.86318,884.1504 C 451.74627,884.33714 451.7272,885.26782 451.82088,886.21855 C 452.01813,888.22077 451.79837,888.80732 450.70844,889.18728 C 449.74261,889.52398 449.74084,890.05308 450.70313,890.73833 C 451.67458,891.43007 451.7048,892.4227 450.78753,893.51275 L 450.11627,894.31058 L 450.40011,896.74395 C 450.5562,898.08229 450.80993,899.85745 450.96404,900.68874 C 451.15046,901.69437 451.19109,904.18142 451.08533,908.12007 C 450.8191,918.03763 450.73241,919.4244 450.32988,920.20274 C 449.76637,921.29261 449.71406,929.4297 450.25934,931.19744 C 450.59861,932.29756 450.62039,933.06664 450.40855,936.48754 C 450.23381,939.31177 450.24142,940.7612 450.4346,941.4101 C 450.63123,942.0707 450.63175,942.85133 450.43637,944.1811 C 450.28664,945.19932 450.12555,949.99998 450.07824,954.84923 C 450.02228,960.58364 449.88412,964.15043 449.68311,965.05156 C 449.4643,966.03227 449.42366,967.68824 449.5439,970.71952 C 449.643,973.21674 449.59975,976.47216 449.44022,978.5287 C 449.28966,980.4684 449.12314,984.77152 449.07011,988.09115 C 448.98675,993.31423 449.02864,994.2197 449.38114,994.81645 C 449.73209,995.41054 449.74157,995.60381 449.44971,996.21205 C 449.20077,996.73104 449.09949,998.45303 449.0675,1002.712 C 449.02457,1008.4405 449.03072,1008.5139 449.61174,1009.218 C 450.33249,1010.0914 450.35854,1010.8806 449.69458,1011.7247 C 449.23672,1012.3068 449.22328,1012.4328 449.54943,1013.0812 C 450.02447,1014.0253 450.54047,1017.0226 450.33791,1017.6609 C 450.08981,1018.4426 448.25975,1019.9677 447.56994,1019.9677 C 446.54357,1019.9677 445.70821,1019.5225 445.31777,1018.7675 C 444.99319,1018.1398 444.83199,1018.0627 444.03788,1018.1554 C 443.35975,1018.2346 443.03861,1018.4369 442.77165,1018.9532 C 442.57492,1019.3336 442.09685,1019.7611 441.70933,1019.903 C 439.02473,1020.8867 437.8778,1020.9343 437.50133,1020.0777 C 437.30168,1019.6233 437.07932,1019.5654 435.73795,1019.6193 L 434.20309,1019.681 L 434.12765,1020.9374 C 434.08618,1021.6285 433.89737,1022.3225 433.70804,1022.4796 C 433.51141,1022.6428 432.73408,1022.7325 431.89423,1022.689 C 430.58923,1022.6214 430.41543,1022.5493 430.34395,1022.046 C 430.27632,1021.57 430.10772,1021.4793 429.29132,1021.4793 C 427.64882,1021.4793 427.53587,1021.1938 427.46449,1016.8639 C 427.42989,1014.7609 427.42844,1012.2184 427.46136,1011.2139 C 427.51638,1009.5325 427.3085,1008.9749 426.88305,1009.6632 C 426.723,1009.9223 426.57691,1013.5084 426.5046,1018.9601 C 426.48709,1020.2764 426.35612,1021.495 426.21357,1021.6682 C 426.03799,1021.8814 425.14927,1021.9831 423.45988,1021.9831 C 420.97065,1021.9831 420.96482,1021.9816 420.70098,1021.2903 C 420.55563,1020.9093 420.45716,1019.804 420.48227,1018.8342 C 420.54239,1016.5134 420.55156,1016.5447 419.97023,1017.0708 C 419.69316,1017.3216 419.46643,1017.8411 419.46643,1018.2254 C 419.46643,1019.4075 418.84289,1019.7887 417.2204,1019.5988 C 415.63291,1019.4131 414.59383,1018.799 414.47161,1017.9748 C 414.42628,1017.6685 414.22309,1017.3541 414.02011,1017.2763 C 413.81713,1017.1983 413.42242,1016.6865 413.14306,1016.1389 C 412.49869,1014.8758 412.77732,1014.4796 414.38304,1014.3758 C 415.24487,1014.32 415.57873,1014.1871 415.63771,1013.876 C 415.75014,1013.2838 414.79525,1012.8403 413.29749,1012.7891 C 412.23934,1012.7529 411.98478,1012.6475 411.72386,1012.1374 C 411.34822,1011.4026 411.30821,1009.9812 411.65717,1009.7654 C 411.79576,1009.6798 411.90913,1009.4559 411.90913,1009.2678 C 411.90913,1009.0325 411.56985,1008.9258 410.82243,1008.9258 C 409.60673,1008.9258 406.54482,1007.4193 406.1103,1006.6073 C 405.70267,1005.8458 405.82834,1004.4618 406.36716,1003.7768 C 407.0331,1002.9303 407.01705,1002.8733 405.9937,1002.4457 C 404.91315,1001.9942 404.73341,1001.3898 404.96171,998.97604 C 405.0557,997.98272 405.11957,996.99995 405.10353,996.79212 C 404.80531,992.92239 404.84501,991.06788 405.2418,990.32594 C 405.63567,989.58938 405.63724,989.4829 405.26222,988.94736 C 404.83677,988.33998 404.73278,987.29761 405.04851,986.80457 C 405.15021,986.64559 405.63026,986.34749 406.1152,986.1421 C 406.89128,985.81339 406.9365,985.74748 406.49303,985.59193 C 404.70767,984.96568 404.85563,985.39404 404.85563,980.85166 C 404.85563,978.34833 404.95785,976.63794 405.11697,976.47886 C 405.29734,976.29845 405.29734,976.00495 405.11697,975.5304 C 404.73612,974.52886 404.79697,972.53079 405.22554,971.96423 C 405.48573,971.62014 405.59775,970.7997 405.60337,969.19546 C 405.60796,967.89362 405.72945,966.79761 405.88659,966.64045 C 406.08571,966.44139 406.08446,966.22057 405.88221,965.84271 C 405.68923,965.48197 405.60889,962.06747 405.62296,954.81437 C 405.63953,946.20305 405.70851,944.18229 406.00517,943.60853 C 406.20429,943.22355 406.36716,942.47116 406.36716,941.93657 C 406.36716,941.40197 406.53356,940.74453 406.73696,940.47557 C 407.01945,940.10211 407.10875,939.16916 407.11489,936.52641 L 407.12281,933.06624 L 406.12604,932.40659 C 405.00797,931.66662 404.46874,930.46845 404.72632,929.29581 C 404.89492,928.5284 404.5446,927.75682 403.46123,926.50944 C 402.6366,925.56003 402.56303,925.09824 403.123,924.38646 L 403.62931,923.74275 L 403.04589,923.50472 C 402.72506,923.3738 402.04266,923.19865 401.52947,923.11547 C 400.80726,922.99841 400.34201,922.66647 399.47069,921.64664 C 398.85164,920.92197 398.26698,920.01799 398.17163,919.63781 C 398.07619,919.25763 397.6423,918.69527 397.20737,918.38809 C 396.11463,917.61624 395.58613,916.98442 395.01761,915.77025 C 394.74961,915.19786 394.21788,914.52622 393.83609,914.27771 C 393.00708,913.73812 393.05543,913.79266 391.0351,911.12126 C 390.15336,909.95552 389.34706,908.94507 389.24317,908.87579 C 389.03769,908.7388 386.12155,905.21611 383.31743,901.71772 C 382.34754,900.50772 380.9422,898.76095 380.19425,897.83605 C 379.44641,896.91114 378.67971,895.78596 378.49048,895.33568 C 378.30136,894.88539 378.02929,894.51697 377.88602,894.51697 C 377.50871,894.51697 376.77848,893.68292 372.48295,888.3452 C 370.36446,885.71274 368.03101,882.82209 367.29744,881.92151 C 366.56398,881.02093 365.19782,879.32055 364.26158,878.14287 C 361.36222,874.49618 360.42578,873.33959 359.49726,872.25882 C 359.00418,871.68492 358.32397,870.86254 357.98573,870.43132 C 357.6475,870.00008 356.51318,868.58309 355.46504,867.28246 C 354.41689,865.98179 353.28487,864.52087 352.94955,864.03595 C 352.07198,862.76708 351.65591,862.26994 350.96923,861.66994 C 350.63506,861.3779 350.13282,860.88393 349.85325,860.5722 C 349.57358,860.26046 349.19992,860.0054 349.02299,860.0054 C 348.53117,860.0054 346.66464,858.12623 346.66464,857.63111 C 346.66464,857.39076 345.99328,856.52274 345.1727,855.70216 L 343.68077,854.21026 L 293.21639,854.27383 L 242.75209,854.33745 L 242.62613,855.8489 C 242.5098,857.24503 242.40692,857.45646 241.27791,858.6199 L 240.05564,859.87945 L 240.21061,866.05122 C 240.46332,876.11611 240.80781,926.7671 240.65777,931.79954 C 240.64331,932.28447 240.67899,934.60832 240.73706,936.96367 C 241.05369,949.80558 241.13342,961.70555 240.90681,962.2964 C 240.74252,962.72469 240.7472,963.32664 240.9207,964.08483 C 241.17213,965.18358 241.14089,965.29722 240.11043,967.03176 C 238.95575,968.97537 238.30806,969.37631 237.16461,968.85531 C 236.57671,968.58745 236.43153,968.66104 235.31951,969.79075 C 233.81396,971.32024 233.83289,971.18262 233.60302,982.26862 L 233.43145,990.54293 L 232.70482,991.12192 C 232.03091,991.65895 231.99892,991.7604 232.26398,992.52075 C 232.6421,993.60542 232.6398,1000.0975 232.26101,1000.9289 C 232.02362,1001.4499 232.06842,1001.7941 232.51292,1002.8637 C 233.15488,1004.4084 233.19475,1005.6756 232.65932,1007.5174 L 232.26505,1008.8737 L 230.6226,1009.381 C 229.71924,1009.66 228.67805,1010.0554 228.30884,1010.2598 C 227.19319,1010.8772 225.68658,1011.4539 224.48868,1011.722 C 222.93009,1012.0708 199.68646,1012.2585 198.54203,1011.9316 C 198.0571,1011.793 197.37695,1011.6216 197.03058,1011.5505 C 196.6842,1011.4795 196.01932,1011.0716 195.55307,1010.6441 L 194.70533,1009.8668 L 194.88248,1007.5039 L 195.05963,1005.141 L 194.34412,1004.771 C 193.17213,1004.1649 192.68335,1003.4374 192.55571,1002.109 C 192.46573,1001.1726 192.56347,1000.6351 192.95697,999.90221 C 193.71681,998.48701 194.08043,991.74547 194.10977,978.5287 C 194.12767,970.46279 194.21823,967.37496 194.4644,966.43705 C 194.86672,964.90412 194.93482,954.64652 194.55089,953.40576 C 194.30106,952.59835 193.93439,944.21753 193.9748,940.23849 C 194.04937,932.89834 194.20785,929.33191 194.48972,928.65068 C 194.72357,928.08552 194.76221,926.52785 194.64297,922.47352 C 194.53085,918.66139 194.572,916.67982 194.7816,915.79793 C 195.22338,913.93918 195.09595,899.77782 194.62141,897.99511 C 194.42569,897.25981 194.26421,895.62557 194.26256,894.3635 C 194.25986,892.29442 194.18451,891.92813 193.49616,890.6382 L 192.73275,889.2076 L 192.82407,879.8336 C 192.89288,872.77145 193.00283,870.149 193.26992,869.20009 C 193.53789,868.24808 193.6251,866.12609 193.62713,860.50922 L 193.6298,853.0779 L 178.51785,853.0129 L 163.40589,852.94794 L 162.96805,853.51673 C 162.72724,853.82957 162.52711,854.31225 162.5233,854.58935 C 162.51951,854.86646 161.50246,856.45348 160.2632,858.11609 C 159.02393,859.77869 157.69255,861.56679 157.30457,862.08965 C 156.91658,862.61251 156.23073,863.50178 155.78044,864.06578 C 155.33015,864.6298 154.96173,865.18325 154.96173,865.2957 C 154.96173,865.40815 154.39494,865.90735 153.70219,866.40503 C 152.79722,867.05519 152.44264,867.47865 152.44264,867.90928 C 152.44264,868.23893 152.26507,868.65599 152.04805,868.83611 C 151.83102,869.01622 151.16727,869.90864 150.57306,870.81926 C 148.93025,873.33677 146.66624,875.63569 143.55012,877.95054 C 140.08952,880.52129 138.76514,881.41769 138.42764,881.41769 C 137.96825,881.41769 132.43998,887.85946 131.1854,889.85664 C 130.24945,891.34662 122.89818,898.25873 121.39483,899.06234 C 120.59817,899.48818 119.94635,899.95206 119.94635,900.09316 C 119.94635,900.23428 118.78442,901.5278 117.36428,902.96769 C 114.30175,906.07283 114.55762,905.82353 113.16553,907.05822 C 112.11866,907.98673 112.05539,908.11738 112.09865,909.26119 C 112.13422,910.20189 111.99526,910.70287 111.48473,911.47434 C 110.64596,912.74179 110.29213,914.66341 110.33973,917.69262 C 110.38723,920.71512 110.44074,947.07451 110.40109,947.92173 C 110.38488,948.2681 110.43968,949.14593 110.52288,949.87246 C 110.63008,950.80868 110.54805,951.54242 110.24126,952.39156 C 110.00317,953.05053 109.69441,954.15648 109.5551,954.84923 C 109.18216,956.70379 108.96671,967.19024 109.13747,975.17533 L 109.28662,982.15022 L 110.08212,983.05626 C 110.51965,983.55457 110.87763,984.17766 110.87763,984.44093 C 110.87763,985.33725 110.38427,986.22042 109.74855,986.46213 C 109.26839,986.64468 109.11426,986.88405 109.11426,987.44724 C 109.11426,988.30233 108.54529,988.98294 107.83049,988.98294 C 107.54509,988.98294 107.24342,989.23283 107.11222,989.57789 C 106.94964,990.00551 106.56393,990.25397 105.74095,990.46119 C 105.07261,990.62949 104.48528,990.95619 104.33021,991.24596 C 103.97972,991.90085 103.1701,992.32435 101.94072,992.49586 C 101.12959,992.60902 100.89178,992.76981 100.6912,993.34064 C 100.51577,993.83987 100.53245,994.18811 100.74832,994.53378 C 101.16301,995.19781 101.13273,996.41249 100.69237,996.77796 C 100.37924,997.03783 100.37924,997.2125 100.69237,998.10003 C 101.09348,999.23688 101.16959,1001.7601 100.81945,1002.3133 C 100.67652,1002.5391 100.215,1002.6555 99.563773,1002.63 L 98.534081,1002.5897 L 98.534081,1004.3364 C 98.534081,1006.2774 98.683681,1006.4906 100.04553,1006.4906 L 100.92722,1006.4906 L 101.0034,1007.9604 C 101.08678,1009.5691 100.8068,1010.1433 99.939121,1010.1433 C 99.191113,1010.1433 98.785984,1010.6079 98.785984,1011.4658 C 98.785984,1012.6109 99.437472,1013.6247 100.23216,1013.7161 C 100.83265,1013.7851 100.93767,1013.9214 101.00403,1014.7178 C 101.07968,1015.6255 100.955,1015.8389 99.93909,1016.541 C 99.476464,1016.8607 99.487738,1016.8915 100.191,1017.2285 C 100.81743,1017.5288 100.92722,1017.727 100.92722,1018.5582 C 100.92722,1019.579 100.78391,1019.7282 99.415757,1020.1319 C 98.832144,1020.3041 98.640771,1020.5231 98.575448,1021.0936 C 98.477042,1021.9529 99.039627,1022.4869 100.0433,1022.4869 C 100.40476,1022.4869 100.83653,1022.6229 101.00279,1022.7892 C 101.36899,1023.1553 101.40341,1024.4117 101.05317,1024.6281 C 100.5393,1024.9457 100.82652,1025.2579 101.63257,1025.2579 C 103.03787,1025.2579 103.50554,1026.2851 102.65385,1027.5011 C 102.27716,1028.0389 102.10987,1028.0795 100.82404,1027.9451 C 99.915885,1027.8501 99.184413,1027.9093 98.782514,1028.1102 L 98.156211,1028.4235 L 98.156211,1035.3426 C 98.156211,1043.8517 98.268809,1043.5077 95.551164,1043.3021 C 94.490045,1043.2219 93.508494,1043.169 93.369939,1043.1845 C 93.231385,1043.2 85.000727,1043.2567 75.079573,1043.3103 C 59.602048,1043.3939 56.998366,1043.3563 56.740013,1043.045 z M 409.38999,864.66572 C 409.38999,861.12037 409.29246,858.7153 409.14502,858.62413 C 409.01018,858.54082 408.77907,858.02404 408.63142,857.47568 C 408.37946,856.53991 408.30506,856.47867 407.42114,856.47867 C 406.90306,856.47867 406.23243,856.30581 405.93077,856.09452 C 405.48281,855.78078 404.62973,855.72304 401.27741,855.77962 L 397.17246,855.8489 L 397.09181,856.55124 C 397.0345,857.05066 397.23467,857.50812 397.78453,858.13445 C 398.20998,858.61892 398.5579,859.13808 398.5579,859.28817 C 398.5579,859.43822 398.89801,859.94834 399.31366,860.42176 C 399.72932,860.89515 400.06943,861.45033 400.06943,861.65546 C 400.06943,862.36781 403.04725,867.94475 403.81749,868.67488 C 404.55033,869.36957 404.64557,869.39327 405.5793,869.11353 C 406.80355,868.7467 407.26921,868.91268 407.5889,869.82991 C 407.81772,870.48604 408.65372,870.90957 409.20108,870.64663 C 409.30497,870.5967 409.38999,867.9053 409.38999,864.66572 z M 110.92051,858.83219 C 112.0746,858.04837 113.30225,857.15422 113.64862,856.8452 C 113.995,856.53621 114.5618,856.20079 114.90817,856.09988 C 115.25455,855.99896 115.87802,855.66294 116.29367,855.35317 C 116.70932,855.04342 117.44616,854.58752 117.93109,854.34004 C 119.5521,853.5128 122.69481,851.0692 122.8567,850.51014 C 123.09356,849.69224 122.86171,849.49003 121.04277,848.92823 C 119.65913,848.50086 118.69675,848.41758 115.14241,848.41758 C 111.1949,848.41758 110.87688,848.45209 110.63343,848.90696 C 110.45017,849.2494 110.05038,849.41959 109.30205,849.47375 L 108.23258,849.55116 L 108.16459,854.90424 C 108.10715,859.4272 108.15286,860.25731 108.45939,860.25731 C 108.65893,860.25731 109.76643,859.616 110.92051,858.83219 z M 191.48858,99.50753 C 191.48858,99.30482 192.8691,98.670264 194.13361,98.291727 C 194.81523,98.087693 195.07454,97.761037 195.75748,96.246243 C 195.84382,96.054724 196.64737,95.462213 197.54314,94.929533 C 198.4389,94.396864 199.83674,93.476644 200.64945,92.884602 C 202.6026,91.461774 204.29219,90.420204 206.66869,89.173985 C 207.74389,88.61016 209.41709,87.640226 210.38694,87.018581 C 211.35678,86.396925 212.29648,85.888305 212.47518,85.888305 C 212.93996,85.888305 213.40467,85.359689 213.40467,84.83101 C 213.40467,84.216825 214.92999,82.579899 215.96409,82.084314 C 217.78952,81.209505 220.36443,80.10755 220.96194,79.945447 C 221.30833,79.851479 222.10184,79.351664 222.72531,78.83475 C 223.34879,78.317836 224.36863,77.636394 224.99164,77.320426 C 225.61465,77.004459 226.23812,76.609385 226.37715,76.442482 C 226.51616,76.27558 227.08334,75.812051 227.63754,75.412422 C 228.19174,75.012791 229.25645,74.085189 230.00355,73.351085 C 230.85729,72.512204 232.10799,71.653312 233.37016,71.03913 C 234.58466,70.448141 235.49373,69.830552 235.67022,69.476539 C 235.83073,69.154584 236.69631,68.464295 237.59371,67.942563 C 238.49112,67.420829 239.26315,66.880856 239.30933,66.742621 C 239.41785,66.417794 232.24739,66.402906 231.18215,66.725748 C 230.048,67.069478 225.81955,67.962489 224.36272,68.165954 C 222.38279,68.442477 216.27681,68.35242 213.78254,68.009909 C 211.11679,67.643852 191.01038,67.372535 190.68469,67.698224 C 190.56604,67.816868 190.36079,68.578677 190.22855,69.391134 C 190.09632,70.203589 189.5889,71.709006 189.10094,72.736502 C 188.61298,73.763999 188.20578,74.904649 188.19604,75.271281 C 188.18631,75.637914 188.08648,76.164603 187.97423,76.441704 C 187.8356,76.78389 187.90189,77.095181 188.18087,77.41202 C 188.78418,78.097213 188.91328,83.437651 188.36539,85.045599 C 187.97687,86.185847 187.98071,86.215857 188.61067,86.964532 C 189.23235,87.70334 189.24697,87.805112 189.12195,90.522361 C 189.05115,92.06085 188.87683,94.39653 188.73455,95.712761 C 188.0045,102.46639 187.92245,102.13326 189.97144,100.73464 C 190.80586,100.16506 191.48858,99.612866 191.48858,99.50753 z " id="path1336"/>
  <metadata>
    <rdf:RDF>
      <cc:Work>
        <dc:format>image/svg+xml</dc:format>
        <dc:type rdf:resource="http://purl.org/dc/dcmitype/StillImage"/>
        <cc:license rdf:resource="http://creativecommons.org/licenses/publicdomain/"/>
        <dc:publisher>
          <cc:Agent rdf:about="http://openclipart.org/">
            <dc:title>Open Clip Art Library</dc:title>
          </cc:Agent>
        </dc:publisher>
        <dc:title>Swinging corpse</dc:title>
        <dc:date>2006-10-22T11:18:05</dc:date>
        <dc:description>The silhouette of a hanged man swinging from a gallow.</dc:description>
        <dc:source>http://openclipart.org/detail/821/swinging-corpse-by-liftarn</dc:source>
        <dc:creator>
          <cc:Agent>
            <dc:title>liftarn</dc:title>
          </cc:Agent>
        </dc:creator>
        <dc:subject>
          <rdf:Bag>
            <rdf:li>clip art</rdf:li>
            <rdf:li>clipart</rdf:li>
            <rdf:li>execution</rdf:li>
            <rdf:li>execution</rdf:li>
            <rdf:li>hanging</rdf:li>
            <rdf:li>hanging</rdf:li>
            <rdf:li>image</rdf:li>
            <rdf:li>media</rdf:li>
            <rdf:li>people</rdf:li>
            <rdf:li>people</rdf:li>
            <rdf:li>public domain</rdf:li>
            <rdf:li>silhouette</rdf:li>
            <rdf:li>silhouette</rdf:li>
            <rdf:li>svg</rdf:li>
          </rdf:Bag>
        </dc:subject>
      </cc:Work>
      <cc:License rdf:about="http://creativecommons.org/licenses/publicdomain/">
        <cc:permits rdf:resource="http://creativecommons.org/ns#Reproduction"/>
        <cc:permits rdf:resource="http://creativecommons.org/ns#Distribution"/>
        <cc:permits rdf:resource="http://creativecommons.org/ns#DerivativeWorks"/>
      </cc:License>
    </rdf:RDF>
  </metadata>
</svg>
