<?xml version="1.0" encoding="UTF-8"?>
<!DOCTYPE svg PUBLIC "-//W3C//DTD SVG 20000303 Stylable//EN" "http://www.w3.org/TR/2000/03/WD-SVG-20000303/DTD/svg-20000303-stylable.dtd">
<svg xmlns="http://www.w3.org/2000/svg" xmlns:svg="http://www.w3.org/2000/svg" xmlns:dc="http://purl.org/dc/elements/1.1/" xmlns:cc="http://web.resource.org/cc/" xmlns:rdf="http://www.w3.org/1999/02/22-rdf-syntax-ns#" width="1.2590in" height="2.7990in" viewBox="0 0 121 269">
  <path style="fill:#000" d="M63,269 l1,0 2,0 1,0 2,-1 1,0 2,0 1,0 1,0 2,0 1,0 2,0 1,0 2,-1 1,0 2,0 1,0 1,0 1,0 1,-1 1,0 1,0 1,0 2,0 1,-1 1,0 1,0 1,0 1,-1 1,0 1,-1 1,-1 1,0 1,0 1,-1 1,0 1,-2 -1,-2 -1,-1 -1,-1 -1,-1 -1,-1 -1,-1 -1,-1 -1,-1 -1,-1 -2,-1 -1,-1 -1,0 -2,-1 -1,0 -2,-1 -2,-1 -1,0 -2,-1 -1,-1 -1,-1 -1,0 0,-1 0,-1 1,-1 0,-1 0,-2 1,-2 0,-2 1,-1 0,-2 1,-1 0,-2 1,-2 11,-4 2,-1 2,-1 2,-1 2,-1 2,-2 1,-1 2,-2 1,-2 2,-2 1,-2 1,-2 1,-2 1,-2 0,-3 1,-2 0,-2 1,-3 0,-2 0,-3 0,-3 0,-2 -1,-2 0,-3 -1,-2 -1,-2 -1,-1 -1,-2 0,-1 -1,-2 -1,-1 -1,-2 -1,-1 -1,-1 -1,-2 -1,-2 -1,-1 -1,-2 -1,-2 -1,-1 -1,-2 -1,-2 0,-2 -1,-2 0,-2 -1,-2 0,-2 0,-2 0,-2 0,-1 0,-1 0,-1 0,-1 0,-1 0,-1 1,-1 0,-1 1,0 1,0 0,-1 -1,0 0,-1 0,-4 0,-1 0,-1 0,-1 0,-1 -1,-1 0,-1 -2,-1 -2,0 -2,-1 -2,0 -2,-1 -2,-1 -2,-1 -1,-1 -1,-1 0,-1 0,-1 -1,-1 0,-1 -1,-1 1,-1 0,-1 1,0 1,-1 1,-1 1,0 1,-1 1,-1 1,-1 1,0 1,-1 1,-2 1,-1 2,-2 1,-1 1,-2 1,-1 1,-2 0,-2 1,-2 0,-1 1,-2 0,-2 0,-2 0,-2 -1,-2 0,-1 0,-1 -1,-1 0,-1 0,-1 -1,-1 -1,-2 -1,-2 -1,-2 -1,-1 -1,-2 -2,-2 -1,-1 -1,-1 -1,-1 -1,0 0,-1 -1,0 -1,-1 0,-1 -1,0 0,-1 -6,-6 -3,-24 0,-1 -1,-1 0,-1 -1,-1 -1,-1 -1,0 0,-1 -2,0 -1,-1 -1,-1 -2,0 -1,-1 -1,0 -2,0 -1,0 -1,0 -1,0 -1,0 0,1 -1,0 -1,0 0,1 -2,1 -1,1 -2,2 -1,1 -2,2 -1,2 -1,1 -1,2 0,2 -1,1 0,1 -1,1 0,2 -1,1 0,1 -1,1 0,1 0,1 -1,1 0,1 -1,0 0,1 -1,1 0,1 -1,1 -1,0 0,1 -1,1 -1,1 -1,1 -1,0 -1,1 -1,1 -1,1 0,1 -3,1 -2,2 -2,1 -2,2 -2,2 -1,2 -2,2 -1,2 -2,2 -1,2 -1,3 0,2 -1,3 0,2 0,3 1,3 1,1 0,1 0,2 1,1 0,1 1,1 1,1 0,1 1,1 0,1 1,1 0,1 1,1 0,1 1,1 1,1 3,4 2,1 1,1 1,1 1,0 2,1 1,0 2,1 1,0 0,1 0,1 0,1 0,1 -1,0 0,1 0,1 -1,0 -1,0 0,1 -1,0 -1,0 0,1 -1,0 -1,1 -1,0 -1,0 -1,1 -1,0 -1,1 -1,1 0,1 -1,1 0,1 -1,1 0,1 0,1 0,1 0,1 1,0 0,1 1,0 5,1 -2,7 -1,2 0,1 -1,1 0,1 -1,1 0,1 -1,1 0,1 -1,1 0,2 -1,1 -1,2 -1,1 -1,2 -1,1 -1,1 -1,2 -1,1 -1,2 -1,2 -1,2 -1,1 -1,2 -1,2 -1,2 0,2 -1,2 0,3 -1,2 0,2 -1,2 0,2 0,2 0,1 0,1 0,2 1,1 0,1 0,1 0,1 1,1 0,1 0,1 1,1 0,1 1,1 0,1 1,1 0,1 1,2 1,2 2,1 1,2 2,1 2,1 1,1 2,1 1,1 1,0 1,0 1,1 1,0 1,1 1,0 1,0 1,1 1,0 1,0 1,1 1,0 0,1 1,0 0,1 0,1 1,1 0,1 1,1 1,1 0,1 0,1 1,1 0,1 1,2 0,1 0,1 0,1 1,1 0,2 0,1 0,1 0,1 0,1 0,2 -1,1 -2,0 -1,0 -1,1 -1,1 -2,0 -1,1 -1,1 -1,1 -1,0 -1,1 -1,1 -1,1 -1,1 -1,0 -1,1 -2,1 -1,1 -1,1 -1,1 -1,0 -1,1 -1,1 0,1 4,2 6,2 2,1 1,0 2,1 1,0 2,0 1,1 2,0 2,1 1,0 1,0 2,0 1,0 1,0 1,0 1,0 1,1 2,0 1,0 1,0 1,0 1,0 1,0 2,0 1,0 1,0 1,1 1,0 1,0 2,0 1,0 1,0 1,0 1,0z"/>
  <path style="fill:#ffff47" d="M58,264 l22,-1 1,0 0,-1 -1,-1 0,-1 1,0 1,0 0,-1 1,0 1,0 8,-3 0,-1 0,-1 1,0 1,0 0,-1 -1,0 -2,0 -1,1 -1,0 -1,1 -1,0 -1,0 -1,0 -1,1 -1,0 -1,-1 0,-1 0,-1 3,-1 1,-1 2,-1 -1,0 -1,0 -1,0 0,1 -1,0 -1,0 -1,1 -2,-1 -1,0 0,-1 1,-2 4,-1 -1,0 -1,-1 -1,-1 -2,-1 -1,0 -2,0 -1,0 -2,0 -1,0 -1,-1 -1,0 -1,0 -1,0 -1,0 -1,-1 0,-1 1,-1 7,-1 0,-2 1,0 1,-1 0,-1 1,-1 1,-1 0,-1 1,-2 0,-1 -1,0 1,-4 -1,0 0,-1 -1,0 -1,0 -1,-1 0,-1 4,-1 1,0 1,0 0,-1 1,0 1,0 1,0 1,0 1,-1 1,0 1,0 1,0 1,-1 1,0 1,0 2,-1 1,0 1,0 1,-1 1,0 0,-1 1,0 1,-1 1,0 2,-1 1,-1 1,-1 1,-1 1,0 0,-1 2,-2 1,-2 1,-1 1,-2 1,-2 1,-3 0,-2 1,-2 0,-2 0,-2 0,-3 0,-2 0,-2 0,-2 0,-3 -1,-2 0,-1 -1,-2 -1,-2 0,-2 -1,-1 -1,-2 0,-1 -1,-2 0,-1 -1,0 0,-1 -2,-1 -1,-2 -1,-2 -1,-2 -1,-2 -1,-1 -1,-2 0,-2 -1,-2 -1,-1 0,-1 0,-1 0,-1 0,-1 -1,-1 0,-1 0,-1 0,-1 0,-1 0,-1 0,-1 0,-1 0,-1 0,-2 -1,0 1,-1 0,-1 0,-1 0,-1 -1,0 0,3 0,2 0,3 0,2 1,3 0,3 1,2 0,3 1,2 1,2 1,3 1,2 1,2 1,2 1,3 2,2 0,1 1,1 0,1 1,1 0,1 1,1 0,1 1,2 0,1 1,1 0,1 0,1 0,1 1,1 0,1 0,1 1,1 0,1 0,1 0,1 0,2 0,1 0,1 -1,2 0,1 -1,1 0,1 -1,2 -1,1 0,1 -1,1 -1,1 0,1 -1,1 -1,1 -6,8 -1,1 -1,0 -1,1 -1,0 0,1 -1,0 -1,1 -1,0 -1,1 -1,0 -1,0 -1,0 -1,1 -1,0 -1,0 -1,1 -1,0 -2,0 -1,0 -1,0 -1,0 -1,0 -1,0 -1,0 -1,0 -1,0 -2,0 -1,0 -1,0 -1,0 -1,0 -1,0 -18,-1 -16,-4 -1,1 0,-1 -1,0 -1,0 -1,-1 -1,0 -1,0 0,-1 -1,0 -1,0 -1,0 0,-1 -1,0 -1,-1 0,-1 -1,0 -2,-2 -2,-1 -2,-2 -2,-1 -2,-2 -2,-2 -1,-2 -1,-2 0,-2 0,-2 0,-1 0,-2 0,-1 0,-2 -1,-1 0,-2 1,-2 0,-2 0,-2 1,-3 0,-2 1,-2 0,-2 1,-2 1,-2 1,-2 1,-2 1,-2 1,-2 1,-2 1,-1 1,-2 1,-2 1,-2 2,-2 1,-2 1,-1 1,-2 1,-2 2,-2 0,-1 0,-1 1,-1 0,-1 0,-1 0,-1 1,-1 -1,-1 -1,0 -1,1 0,1 0,1 -1,1 0,1 -1,1 0,1 0,1 -1,2 -1,1 0,1 -1,2 0,1 -1,1 -1,1 0,2 -1,1 -1,1 -1,1 0,1 -1,2 -1,1 0,1 -1,1 -1,1 -1,1 0,2 -1,1 0,1 0,2 -1,1 -1,1 0,1 -1,2 0,1 -1,1 0,2 -1,1 0,2 -1,1 0,2 -1,2 0,2 -1,2 0,2 0,1 1,2 0,2 0,2 1,2 0,1 1,2 1,2 1,1 1,2 1,1 0,1 1,0 0,1 1,0 0,1 1,0 0,1 1,0 0,1 1,0 1,0 1,1 1,0 1,1 1,0 1,1 1,0 2,0 1,1 2,0 1,1 1,1 1,0 1,1 1,1 2,1 1,1 1,0 1,1 1,1 1,1 2,0 0,1 1,0 1,0 1,0 1,1 3,0 0,1 0,1 -1,1 -6,-1 0,1 1,0 0,1 0,1 0,3 3,2 1,0 0,1 -1,0 0,1 -2,0 0,1 1,0 3,0 0,1 0,1 -3,1 0,1 10,0 7,0 0,1 0,1 -1,0 -2,0 -2,1 -1,0 -2,0 -2,0 -2,0 -1,0 0,1 -1,0 -2,0 -2,0 -1,0 -2,0 -2,1 -1,0 -2,1 -1,0 -1,1 -1,0 0,1 -1,0 3,1 1,1 1,0 1,0 1,1 -1,1 -1,0 -2,0 -1,0 -1,0 -1,0 -1,0 -2,0 -1,1 1,1 1,0 1,1 1,0 1,0 1,1 1,0 1,0 2,0 1,0 1,0 1,0 1,0 1,0 1,0 1,0 2,0 2,0 1,0 2,1 1,0 2,0 1,0 1,0 1,0 1,0 1,0 1,0 0,1 -1,1 -2,1 -2,0 -1,0 -2,0 -2,0 -2,0 -1,0 -2,0 -1,0 -1,0 -1,0 -1,0 -1,0 -1,0 -1,0 -1,0 -1,0 -2,0 -1,0 -1,0 -1,0 -1,0 -1,0 1,0 1,0 1,1 1,0 1,0 2,1 1,0 1,1 1,0 1,0 2,0 1,1 1,0 1,0 1,0 1,0 1,1 10,0z"/>
  <ellipse style="fill:#fff" cx="91" cy="260" rx="9" ry="3"/>
  <path style="fill:#fff" d="M65,213 l2,0 1,0 2,0 1,0 2,0 2,0 1,0 2,0 1,0 2,0 1,0 2,-1 1,0 2,-1 1,0 1,-1 2,-1 1,0 2,-1 1,-1 1,-1 1,-1 1,-1 1,-2 1,0 1,-1 0,-1 1,-1 1,-1 0,-1 1,0 0,-1 1,-2 1,-1 1,-2 0,-1 1,-2 0,-1 1,-2 0,-2 0,-2 0,-1 0,-2 0,-2 -1,-1 0,-2 -1,-2 0,-1 -1,-1 0,-1 -1,-1 -1,-1 0,-1 -1,-1 0,-1 -1,-1 -2,-1 0,-1 -1,-2 -1,-1 -1,-2 0,-1 -1,-2 0,-2 -1,-1 0,-2 -1,-2 0,-1 -1,-2 0,-2 0,-2 -1,-1 0,-2 0,-2 0,-1 0,-2 -1,-2 0,-1 1,-2 -1,0 -2,0 -1,1 -1,0 -1,0 -1,0 -1,1 -1,0 -2,0 -1,0 -1,0 -2,0 -1,0 -1,0 -1,0 -2,1 0,1 1,2 0,1 0,2 0,2 0,1 1,2 0,1 1,3 1,2 2,2 2,2 1,2 2,2 2,2 3,1 2,2 2,2 1,2 2,2 2,2 1,2 1,3 1,3 0,1 0,1 0,2 0,1 0,1 0,2 0,1 0,1 0,1 0,2 0,1 -1,1 0,2 -1,1 0,1 -1,1 0,3 -1,2 -2,2 -1,1 -2,2 -2,1 -2,2 -2,1 -1,1 -1,0 -2,1 -1,0 -2,0 -1,1 -2,0 -2,0 -1,0 -1,0 -1,1 -1,0 -1,0 -1,0 -1,0 -2,0 -1,0 -1,0 -1,0 -1,0 -1,0 -1,0 -1,0 -1,0 0,1 9,0z"/>
  <ellipse style="fill:#fff" cx="41" cy="208" rx="14" ry="4"/>
  <ellipse style="fill:#000" cx="64" cy="205" rx="15" ry="3"/>
  <path style="fill:#000" d="M82,202 l-1,3 3,-1 0,-1 1,0 0,-1 1,0 -4,0z"/>
  <path style="fill:#000" d="M41,202 l1,0 1,1 0,-1 -2,0z"/>
  <ellipse style="fill:#0d0d0d" cx="68" cy="202" rx="21" ry="4"/>
  <path style="fill:#0d0d0d" d="M39,198 l0,2 0,1 1,0 0,1 1,0 1,0 1,1 0,-5 -4,0z"/>
  <ellipse style="fill:#191919" cx="64" cy="198" rx="27" ry="4"/>
  <path style="fill:#191919" d="M25,194 l1,1 1,0 0,1 1,1 0,-1 -1,-1 0,-1 -2,0z"/>
  <path style="fill:#191919" d="M32,194 l1,1 1,0 0,-1 -2,0z"/>
  <ellipse style="fill:#292929" cx="65" cy="194" rx="28" ry="4"/>
  <circle style="fill:#292929" cx="26" cy="193" r="2"/>
  <path style="fill:#292929" d="M31,190 l0,1 0,1 0,1 1,0 0,1 1,1 1,0 1,-5 -4,0z"/>
  <ellipse style="fill:#363636" cx="62" cy="190" rx="31" ry="4"/>
  <path style="fill:#363636" d="M19,186 l0,1 0,-1z"/>
  <ellipse style="fill:#363636" cx="25" cy="190" rx="2" ry="4"/>
  <ellipse style="fill:#424242" cx="62" cy="186" rx="31" ry="4"/>
  <path style="fill:#424242" d="M18,182 l0,1 0,1 1,1 0,1 0,1 1,-5 -2,0z"/>
  <circle style="fill:#424242" cx="26" cy="186" r="3"/>
  <ellipse style="fill:#4f4f4f" cx="63" cy="182" rx="32" ry="4"/>
  <path style="fill:#4f4f4f" d="M19,186 l0,-1 -1,-1 0,-1 0,-1 0,-1 0,-1 0,-1 0,-1 3,0 -2,8z"/>
  <circle style="fill:#4f4f4f" cx="26" cy="182" r="3"/>
  <ellipse style="fill:#5c5c5c" cx="59" cy="178" rx="35" ry="3"/>
  <circle style="fill:#5c5c5c" cx="20" cy="178" r="2"/>
  <ellipse style="fill:#6b6b6b" cx="60" cy="174" rx="35" ry="3"/>
  <circle style="fill:#6b6b6b" cx="22" cy="174" r="4"/>
  <ellipse style="fill:#787878" cx="57" cy="171" rx="38" ry="4"/>
  <ellipse style="fill:#878787" cx="57" cy="167" rx="37" ry="4"/>
  <ellipse style="fill:#949494" cx="57" cy="163" rx="35" ry="4"/>
  <ellipse style="fill:#a1a1a1" cx="83" cy="159" rx="7" ry="4"/>
  <ellipse style="fill:#a1a1a1" cx="52" cy="159" rx="27" ry="4"/>
  <ellipse style="fill:#adadad" cx="81" cy="156" rx="6" ry="3"/>
  <ellipse style="fill:#adadad" cx="52" cy="155" rx="22" ry="4"/>
  <path style="fill:#bababa" d="M78,155 l-1,0 0,-1 -1,0 0,-1 -1,0 0,1 1,1 2,0z"/>
  <ellipse style="fill:#bababa" cx="53" cy="151" rx="17" ry="4"/>
  <ellipse style="fill:#c9c9c9" cx="54" cy="147" rx="14" ry="4"/>
  <path style="fill:#d6d6d6" d="M68,147 l-1,-1 0,-1 0,-1 -1,3 2,0z"/>
  <path style="fill:#d6d6d6" d="M64,147 l-1,0 0,-1 0,-1 -1,-1 -1,3 3,0z"/>
  <path style="fill:#d6d6d6" d="M58,139 l0,8 -15,0 0,-1 1,-1 1,-1 0,-1 1,-1 0,-1 1,-1 0,-1 11,0z"/>
  <ellipse style="fill:#e3e3e3" cx="51" cy="139" rx="6" ry="3"/>
  <ellipse style="fill:#f2f2f2" cx="52" cy="136" rx="5" ry="3"/>
  <ellipse style="fill:#fff" cx="54" cy="134" rx="4" ry="1"/>
  <path style="fill:#fff" d="M24,204 l2,0 -2,-1 -1,-2 -1,-1 -1,-1 -1,-1 -1,-2 -1,-1 0,-1 -1,-2 -1,-1 0,-2 -1,-1 0,-2 0,-2 0,-1 0,-2 0,-1 0,-2 0,-1 0,-1 1,-1 0,-1 0,-1 0,-2 1,-1 0,-1 1,-1 0,-1 1,-1 0,-1 1,-1 1,-1 2,-3 1,-1 1,0 1,-1 1,-1 1,-1 1,0 1,-1 1,-1 2,-1 2,-2 2,-1 2,-2 1,-2 1,-2 2,-2 1,-2 0,-1 0,-1 1,-2 0,-1 0,-1 0,-1 0,-1 0,-1 0,-1 1,-1 0,-1 -1,0 -11,-2 0,1 0,1 -1,1 0,1 0,1 -1,1 0,1 0,1 -2,3 -2,3 -3,3 -2,3 -2,3 -2,4 -2,3 -2,4 -1,3 -2,4 -1,3 0,4 -1,4 0,4 1,4 0,4 1,1 0,1 1,1 0,1 1,1 0,1 1,0 0,1 1,0 0,1 1,0 0,1 1,1 6,4z"/>
  <path style="fill:#000" d="M59,199 l1,0 1,0 0,-1 1,0 1,0 1,0 1,0 1,0 1,0 1,-1 1,0 1,0 1,-1 1,-1 0,-2 0,-2 0,-2 0,-1 0,-2 -1,-2 0,-2 -2,-1 -1,-1 0,-1 -1,0 -1,0 -1,-1 -1,0 -1,0 0,-1 -1,0 0,-1 -1,-1 0,-1 0,-1 0,-1 0,-1 0,-1 0,-1 -1,0 0,-1 -1,0 0,1 0,1 0,1 0,1 -1,0 0,1 -1,0 0,1 -1,0 0,-1 -1,1 -1,1 -1,1 -2,2 -1,1 -1,2 0,1 -1,2 1,2 -1,1 0,1 -1,1 0,1 0,1 0,1 1,1 0,1 1,1 1,0 0,1 1,0 1,0 1,1 1,1 5,1z"/>
  <path style="fill:#ffff47" d="M58,198 l1,-1 1,0 1,0 1,0 1,-1 1,0 1,0 1,1 1,-1 1,0 1,0 0,-1 1,0 0,-1 0,-1 1,0 0,-1 0,-1 0,-1 0,-2 0,-1 -1,-1 0,-1 -1,-1 0,-1 -1,-1 -1,-1 -6,-2 -2,-5 0,1 -1,0 -1,0 -1,0 0,1 -1,0 0,1 -1,0 0,1 -1,0 0,1 -1,0 0,1 -1,1 0,1 0,1 0,1 0,1 0,1 0,1 -1,0 0,1 -1,0 0,1 0,1 0,1 0,1 1,1 0,1 8,4z"/>
  <path style="fill:#ffff47" d="M55,126 l19,-2 1,0 1,0 1,0 1,0 1,0 1,0 1,0 1,0 1,0 1,0 1,0 1,-1 1,0 1,0 1,0 1,-1 7,-2 1,0 0,-1 -1,0 1,-1 0,-1 0,-3 -1,1 -2,0 -1,0 -2,0 -1,1 -2,0 -1,0 -2,0 -1,0 -2,1 -2,0 -1,0 -2,0 -1,0 -2,0 -2,0 0,1 -1,0 -1,0 -1,-1 -1,0 0,-1 1,0 2,-1 1,0 2,0 1,-1 2,0 2,0 1,0 2,0 2,-1 1,0 2,0 1,0 2,-1 2,0 1,-1 -7,-2 -1,1 -2,0 -1,0 -1,1 -2,0 -1,0 -1,0 -2,1 -1,0 -1,0 -2,0 -1,0 -1,0 -2,0 -1,0 -1,1 -1,0 -2,0 -1,0 -1,0 -1,0 -2,0 -1,0 -1,0 -1,0 -1,0 -1,0 0,-1 -1,0 0,-1 1,-1 9,0 1,0 1,0 1,-1 1,0 2,0 1,0 1,0 1,0 1,-1 1,0 2,0 1,-1 1,0 1,0 1,-1 1,0 2,-2 -2,-3 -1,-1 -2,2 -1,0 -2,0 -1,0 -2,0 -1,0 -1,0 -2,1 -1,1 -1,-1 -1,0 -1,0 -1,0 -1,0 -2,0 -1,0 -1,0 -1,0 -1,0 -1,0 -1,-1 0,-1 1,-1 1,0 1,0 1,0 2,0 1,0 1,0 1,0 2,0 1,0 1,0 2,0 1,0 1,-1 1,0 2,0 0,-3 -2,-5 -1,0 0,-1 -1,0 -1,-1 -1,0 -1,-1 -1,0 -1,0 -1,0 -1,0 -1,0 -1,0 -1,0 -1,0 -1,0 -2,0 0,1 -2,0 -1,0 -1,1 -1,0 -1,1 -2,0 -1,1 -1,1 -1,1 -2,1 -1,1 0,1 0,1 3,1 1,0 0,1 0,1 -1,0 -1,0 -1,0 -1,0 -1,0 0,-1 -1,0 -1,1 -2,5 1,0 1,1 1,0 1,0 1,1 1,0 1,0 0,1 1,0 0,1 -1,0 -1,0 0,1 -1,0 -1,0 0,-1 -1,0 -1,0 -1,0 -1,0 -1,0 -1,-1 -5,3 1,1 1,0 1,0 1,0 1,0 1,0 1,1 1,0 1,0 1,0 1,0 1,0 1,1 0,1 -1,0 0,1 -10,-1 -1,0 -1,-1 -2,0 -1,0 -1,-1 -1,0 -1,0 0,1 -2,3 1,1 1,1 2,1 1,0 2,1 2,0 1,0 2,1 2,0 1,0 2,1 2,0 1,0 2,0 2,1 1,0 2,0 7,1z"/>
  <path style="fill:#ffff47" d="M32,99 l2,0 0,-1 1,0 -1,-1 -1,0 -1,-1 -2,-1 -1,0 -1,-1 -1,0 0,-1 -2,-1 -1,-2 -1,-1 -1,-2 -1,-1 -1,-2 0,-1 -1,-2 0,-1 -1,-2 0,-2 0,-2 -1,-1 0,-2 0,-2 0,-1 1,-2 0,-2 0,-1 1,-2 0,-1 1,-1 1,-2 1,-1 1,-1 1,0 0,-1 1,0 0,-1 1,0 1,0 1,-1 1,-1 1,-1 1,-1 2,-1 1,-1 1,-1 1,-1 2,-1 1,-2 1,-1 1,-1 1,-1 0,-1 0,-1 1,0 0,-1 0,-1 1,-1 1,-2 1,-2 1,-1 0,-2 1,-1 1,-2 1,-2 0,-1 1,-2 1,-1 1,-1 1,-2 1,-1 2,-1 1,-1 2,0 1,0 1,0 1,0 1,0 1,1 1,0 1,1 2,1 0,2 1,1 0,1 1,2 0,2 0,1 0,2 -1,2 0,1 0,2 0,2 0,2 0,1 1,2 0,1 1,1 0,1 1,1 1,0 1,0 0,1 1,1 2,1 1,1 1,1 1,0 2,1 1,1 1,1 1,0 1,1 1,1 1,1 1,1 1,1 0,2 1,1 1,1 0,1 1,2 0,1 0,2 0,1 0,1 0,2 0,1 0,2 -1,2 0,2 -1,1 -1,2 -1,1 -1,2 0,1 -1,2 -2,1 -1,1 -1,2 -2,1 -1,1 -1,1 -2,1 0,1 1,0 2,-1 2,-1 1,0 1,-1 2,-1 1,-1 1,-1 1,-1 1,-1 0,-1 1,-1 1,-1 1,-2 1,-1 0,-2 1,-1 0,-2 1,-1 0,-2 0,-2 1,-1 0,-2 0,-2 -1,-1 0,-2 0,-1 -1,-2 0,-1 -1,-2 -1,-2 -1,-1 -1,-1 -1,-2 -1,-1 -1,-1 -2,-1 0,-1 -1,-1 -1,0 -1,-1 -1,-1 -1,0 0,-1 -1,0 0,-1 -1,0 0,-1 -1,0 0,-1 -1,-2 -1,-1 0,-2 -1,-1 0,-2 -1,-2 0,-1 0,-1 0,-1 0,-1 0,-1 0,-1 0,-1 0,-1 0,-1 -1,-2 0,-1 0,-2 -1,-2 0,-1 -1,-1 0,-2 -1,0 0,-1 -1,0 -1,-1 -1,0 -1,-1 -1,0 -2,-1 -1,0 -1,0 -2,0 -1,1 -1,0 0,1 -1,0 -1,1 -1,1 -1,1 -1,0 -1,1 0,1 -1,1 -1,1 0,1 -1,1 0,1 -1,1 0,1 -1,1 0,1 -1,2 -1,1 -1,2 0,1 -1,2 -1,1 -1,2 0,1 -1,1 -1,1 -1,1 -1,1 -1,1 -2,1 -1,1 -1,1 -1,1 -1,1 -1,1 -1,1 -1,1 -1,1 -1,0 -1,1 -1,0 0,1 -1,1 -5,5 -1,0 -2,6 -1,2 0,1 -1,0 0,1 0,1 0,1 0,1 0,1 0,1 0,1 0,1 1,1 0,1 0,1 1,1 0,1 1,2 0,1 0,1 1,1 0,1 1,2 1,1 0,1 1,2 1,1 1,1 1,1 1,1 1,1 1,1 1,1 1,1 2,0 1,1 1,0 1,1z"/>
  <path style="fill:#fff" d="M36,94 l1,0 1,-1 1,-1 0,-1 1,-1 1,-1 1,-1 1,0 1,-1 2,-1 1,0 1,-1 1,0 2,-1 1,0 1,-1 2,0 1,0 2,0 1,0 2,0 2,0 1,0 1,1 2,0 1,0 1,1 2,1 1,0 1,1 1,1 1,1 1,1 1,-1 1,0 1,-1 1,-1 0,-1 1,-1 1,-1 1,-1 1,-1 1,-1 1,-1 0,-1 1,-2 0,-1 0,-1 1,-2 0,-1 0,-1 0,-2 0,-1 0,-1 0,-2 0,-1 0,-2 -1,-2 -1,-2 -2,-2 -1,-1 -2,-2 -2,-1 -2,-2 -2,-2 -1,0 -1,-1 -1,-1 -1,-1 -1,-1 -1,0 -1,-1 0,-1 -1,-1 0,-1 -1,-1 0,-2 0,-1 0,-1 0,-1 0,-1 0,-1 0,-1 0,-2 0,-1 0,-1 0,-1 0,-1 0,-1 0,-2 0,-1 0,-1 -1,-1 0,-1 -1,-1 -1,0 0,-1 -1,0 -2,0 -2,1 -2,1 -1,2 -1,1 -1,2 -1,2 -1,2 -1,2 0,2 -1,2 -1,1 0,2 -1,1 -1,2 -1,2 -1,1 -2,2 -2,1 -1,2 -2,1 -2,2 -2,1 -1,1 -2,2 -2,1 -1,2 -1,2 -2,1 -1,2 -1,2 0,2 -1,3 0,1 0,2 0,1 1,1 0,2 0,1 0,2 1,1 0,1 1,1 0,2 1,1 1,1 0,1 1,1 1,1 0,1 1,0 0,1 1,0 6,3z"/>
  <metadata>
    <rdf:RDF>
      <cc:Work>
        <dc:format>image/svg+xml</dc:format>
        <dc:type rdf:resource="http://purl.org/dc/dcmitype/StillImage"/>
        <cc:license rdf:resource="http://creativecommons.org/licenses/publicdomain/"/>
        <dc:publisher>
          <cc:Agent rdf:about="http://openclipart.org/">
            <dc:title>Open Clip Art Library</dc:title>
          </cc:Agent>
        </dc:publisher>
        <dc:title>Kerosene lamp</dc:title>
        <dc:date>2006-12-29T11:30:24</dc:date>
        <dc:description>A kerosene (parafin oil) lamp.\n\nConverted to SVG from clipart on “PC för alla” CD 3-2003.</dc:description>
        <dc:source>http://openclipart.org/detail/2453/kerosene-lamp-by-liftarn</dc:source>
        <dc:creator>
          <cc:Agent>
            <dc:title>liftarn</dc:title>
          </cc:Agent>
        </dc:creator>
        <dc:subject>
          <rdf:Bag>
            <rdf:li>clip art</rdf:li>
            <rdf:li>clipart</rdf:li>
            <rdf:li>externalsource</rdf:li>
            <rdf:li>image</rdf:li>
            <rdf:li>kerosene</rdf:li>
            <rdf:li>kerosene</rdf:li>
            <rdf:li>lamp</rdf:li>
            <rdf:li>lamp</rdf:li>
            <rdf:li>lightsource</rdf:li>
            <rdf:li>lightsource</rdf:li>
            <rdf:li>media</rdf:li>
            <rdf:li>png</rdf:li>
            <rdf:li>public domain</rdf:li>
            <rdf:li>svg</rdf:li>
          </rdf:Bag>
        </dc:subject>
      </cc:Work>
      <cc:License rdf:about="http://creativecommons.org/licenses/publicdomain/">
        <cc:permits rdf:resource="http://creativecommons.org/ns#Reproduction"/>
        <cc:permits rdf:resource="http://creativecommons.org/ns#Distribution"/>
        <cc:permits rdf:resource="http://creativecommons.org/ns#DerivativeWorks"/>
      </cc:License>
    </rdf:RDF>
  </metadata>
</svg>