<?xml version="1.0" encoding="UTF-8" standalone="no"?>
<!-- Created with Inkscape (http://www.inkscape.org/) -->
<svg xmlns:dc="http://purl.org/dc/elements/1.1/" xmlns:cc="http://creativecommons.org/ns#" xmlns:rdf="http://www.w3.org/1999/02/22-rdf-syntax-ns#" xmlns:svg="http://www.w3.org/2000/svg" xmlns="http://www.w3.org/2000/svg" xmlns:xlink="http://www.w3.org/1999/xlink" xmlns:sodipodi="http://sodipodi.sourceforge.net/DTD/sodipodi-0.dtd" xmlns:inkscape="http://www.inkscape.org/namespaces/inkscape" width="492.84277" height="676.65314" id="svg3360" version="1.1" inkscape:version="0.47 r22583" sodipodi:docname="New document 5">
  <defs id="defs3362">
    <inkscape:perspective sodipodi:type="inkscape:persp3d" inkscape:vp_x="0 : 526.18109 : 1" inkscape:vp_y="0 : 1000 : 0" inkscape:vp_z="744.09448 : 526.18109 : 1" inkscape:persp3d-origin="372.04724 : 350.78739 : 1" id="perspective3368"/>
    <inkscape:perspective id="perspective3130" inkscape:persp3d-origin="0.5 : 0.33333333 : 1" inkscape:vp_z="1 : 0.5 : 1" inkscape:vp_y="0 : 1000 : 0" inkscape:vp_x="0 : 0.5 : 1" sodipodi:type="inkscape:persp3d"/>
    <linearGradient inkscape:collect="always" xlink:href="#linearGradient4089" id="linearGradient4341" gradientUnits="userSpaceOnUse" x1="271.0246" y1="950.36407" x2="187.65665" y2="950.36407"/>
    <linearGradient inkscape:collect="always" id="linearGradient4089">
      <stop style="stop-color:#2a7fff;stop-opacity:1;" offset="0" id="stop4091"/>
      <stop style="stop-color:#2a7fff;stop-opacity:0;" offset="1" id="stop4093"/>
    </linearGradient>
    <radialGradient inkscape:collect="always" xlink:href="#linearGradient4129" id="radialGradient4343" gradientUnits="userSpaceOnUse" gradientTransform="matrix(-4.0651478e-6,1.6071445,-1.8185008,-4.0495175e-6,1717.1511,944.27121)" cx="1.3028467e-12" cy="944.2674" fx="1.3028467e-12" fy="944.2674" r="21.338232"/>
    <linearGradient inkscape:collect="always" id="linearGradient4129">
      <stop style="stop-color:#ffff00;stop-opacity:1" offset="0" id="stop4131"/>
      <stop style="stop-color:#ff6600;stop-opacity:1" offset="1" id="stop4133"/>
    </linearGradient>
    <linearGradient inkscape:collect="always" xlink:href="#linearGradient4089" id="linearGradient4345" gradientUnits="userSpaceOnUse" x1="271.0246" y1="950.36407" x2="187.65665" y2="950.36407"/>
    <linearGradient inkscape:collect="always" xlink:href="#linearGradient4089" id="linearGradient4347" gradientUnits="userSpaceOnUse" x1="271.0246" y1="950.36407" x2="187.65665" y2="950.36407"/>
    <linearGradient inkscape:collect="always" xlink:href="#linearGradient4089" id="linearGradient4349" gradientUnits="userSpaceOnUse" x1="271.0246" y1="950.36407" x2="187.65665" y2="950.36407"/>
    <linearGradient inkscape:collect="always" xlink:href="#linearGradient4089" id="linearGradient4351" gradientUnits="userSpaceOnUse" x1="271.0246" y1="950.36407" x2="187.65665" y2="950.36407"/>
    <linearGradient inkscape:collect="always" xlink:href="#linearGradient4089" id="linearGradient4353" gradientUnits="userSpaceOnUse" x1="271.0246" y1="950.36407" x2="187.65665" y2="950.36407"/>
    <linearGradient inkscape:collect="always" xlink:href="#linearGradient4089" id="linearGradient4355" gradientUnits="userSpaceOnUse" x1="271.0246" y1="950.36407" x2="187.65665" y2="950.36407"/>
    <linearGradient inkscape:collect="always" xlink:href="#linearGradient4089" id="linearGradient4357" gradientUnits="userSpaceOnUse" x1="271.0246" y1="950.36407" x2="187.65665" y2="950.36407"/>
    <linearGradient inkscape:collect="always" xlink:href="#linearGradient4089" id="linearGradient4359" gradientUnits="userSpaceOnUse" x1="271.0246" y1="950.36407" x2="187.65665" y2="950.36407"/>
    <linearGradient inkscape:collect="always" xlink:href="#linearGradient4089" id="linearGradient4361" gradientUnits="userSpaceOnUse" x1="271.0246" y1="950.36407" x2="187.65665" y2="950.36407"/>
    <radialGradient inkscape:collect="always" xlink:href="#linearGradient4129" id="radialGradient4363" gradientUnits="userSpaceOnUse" gradientTransform="matrix(-4.0651478e-6,1.6071445,-1.8185008,-4.0495175e-6,1717.1511,944.27121)" cx="1.3028467e-12" cy="944.2674" fx="1.3028467e-12" fy="944.2674" r="21.338232"/>
    <linearGradient inkscape:collect="always" xlink:href="#linearGradient4089" id="linearGradient4365" gradientUnits="userSpaceOnUse" x1="271.0246" y1="950.36407" x2="187.65665" y2="950.36407"/>
    <linearGradient inkscape:collect="always" xlink:href="#linearGradient4089" id="linearGradient4367" gradientUnits="userSpaceOnUse" x1="271.0246" y1="950.36407" x2="187.65665" y2="950.36407"/>
    <linearGradient inkscape:collect="always" xlink:href="#linearGradient4089" id="linearGradient4369" gradientUnits="userSpaceOnUse" x1="271.0246" y1="950.36407" x2="187.65665" y2="950.36407"/>
    <linearGradient inkscape:collect="always" xlink:href="#linearGradient4089" id="linearGradient4371" gradientUnits="userSpaceOnUse" x1="271.0246" y1="950.36407" x2="187.65665" y2="950.36407"/>
    <linearGradient inkscape:collect="always" xlink:href="#linearGradient4089" id="linearGradient4373" gradientUnits="userSpaceOnUse" x1="271.0246" y1="950.36407" x2="187.65665" y2="950.36407"/>
    <linearGradient inkscape:collect="always" xlink:href="#linearGradient4089" id="linearGradient4375" gradientUnits="userSpaceOnUse" x1="271.0246" y1="950.36407" x2="187.65665" y2="950.36407"/>
    <linearGradient inkscape:collect="always" xlink:href="#linearGradient4089" id="linearGradient4377" gradientUnits="userSpaceOnUse" x1="271.0246" y1="950.36407" x2="187.65665" y2="950.36407"/>
    <linearGradient inkscape:collect="always" xlink:href="#linearGradient4089" id="linearGradient4379" gradientUnits="userSpaceOnUse" x1="271.0246" y1="950.36407" x2="187.65665" y2="950.36407"/>
    <radialGradient inkscape:collect="always" xlink:href="#linearGradient4238" id="radialGradient4381" gradientUnits="userSpaceOnUse" gradientTransform="matrix(-3.2606947e-4,-1.0908645,0.97669971,-2.9195778e-4,-1098.2881,1376.012)" cx="122.14426" cy="1249.5879" fx="122.14426" fy="1249.5879" r="15.8125"/>
    <linearGradient inkscape:collect="always" id="linearGradient4238">
      <stop style="stop-color:#ff6600;stop-opacity:1;" offset="0" id="stop4240"/>
      <stop style="stop-color:#ffff00;stop-opacity:1" offset="1" id="stop4242"/>
    </linearGradient>
    <linearGradient inkscape:collect="always" xlink:href="#linearGradient4206" id="linearGradient4383" gradientUnits="userSpaceOnUse" x1="116.39629" y1="837.13965" x2="116.21667" y2="878.45319"/>
    <linearGradient inkscape:collect="always" id="linearGradient4206">
      <stop style="stop-color:#2a7fff;stop-opacity:1" offset="0" id="stop4208"/>
      <stop style="stop-color:#d5e5ff;stop-opacity:0" offset="1" id="stop4210"/>
    </linearGradient>
    <linearGradient inkscape:collect="always" xlink:href="#linearGradient4206" id="linearGradient4385" gradientUnits="userSpaceOnUse" x1="116.39629" y1="837.13965" x2="116.21667" y2="878.45319"/>
    <linearGradient inkscape:collect="always" xlink:href="#linearGradient4206" id="linearGradient4387" gradientUnits="userSpaceOnUse" x1="116.39629" y1="837.13965" x2="116.21667" y2="878.45319"/>
    <linearGradient inkscape:collect="always" xlink:href="#linearGradient4206" id="linearGradient4389" gradientUnits="userSpaceOnUse" x1="116.39629" y1="837.13965" x2="116.21667" y2="878.45319"/>
    <linearGradient inkscape:collect="always" xlink:href="#linearGradient4206" id="linearGradient4391" gradientUnits="userSpaceOnUse" x1="116.39629" y1="837.13965" x2="116.21667" y2="878.45319"/>
    <linearGradient inkscape:collect="always" xlink:href="#linearGradient4206" id="linearGradient4393" gradientUnits="userSpaceOnUse" x1="116.39629" y1="837.13965" x2="116.21667" y2="878.45319"/>
    <linearGradient inkscape:collect="always" xlink:href="#linearGradient4206" id="linearGradient4395" gradientUnits="userSpaceOnUse" x1="116.39629" y1="837.13965" x2="116.21667" y2="878.45319"/>
  </defs>
  <sodipodi:namedview id="base" pagecolor="#ffffff" bordercolor="#666666" borderopacity="1.0" inkscape:pageopacity="0.0" inkscape:pageshadow="2" inkscape:zoom="0.34794922" inkscape:cx="374.0533" inkscape:cy="119.76576" inkscape:document-units="px" inkscape:current-layer="layer1" showgrid="false" inkscape:window-width="1280" inkscape:window-height="706" inkscape:window-x="-8" inkscape:window-y="-8" inkscape:window-maximized="1"/>
  <g inkscape:label="Layer 1" inkscape:groupmode="layer" id="layer1" transform="translate(-105.68046,-130.57685)">
    <g id="g4298" transform="matrix(1.9608841,0,0,1.9608841,189.04129,-2107.2633)">
      <path id="path4272" d="m 141.74822,1190.5977 c -37.3636,15.375 -64.875,67.6266 -64.875,129.75 0,74.2043 39.24492,134.375 87.65625,134.375 11.10778,0 21.75192,-3.1606 31.53125,-8.9374 -7.30099,3.021 -14.9822,4.625 -22.90625,4.625 -48.41133,0 -87.65625,-60.1708 -87.65625,-134.3751 0,-57.227 23.36369,-106.0707 56.25,-125.4375 z" style="fill:#005500;fill-opacity:0.99607843;stroke:none"/>
      <path style="fill:#005500;fill-opacity:0.99607843;stroke:none" d="m 41.025718,1232.3281 c -25.765583,31.1218 -25.513936,90.173 3.662501,145.0187 34.850272,65.5113 97.757031,100.2016 140.497031,77.4651 9.80652,-5.2168 17.71932,-13.0062 23.63992,-22.6991 -5.02686,6.096 -11.0549,11.1196 -18.05066,14.8411 -42.74,22.7366 -105.646809,-11.9538 -140.497078,-77.4652 -26.876829,-50.5229 -29.189756,-104.6174 -9.251714,-137.1606 z" id="path4277"/>
      <g transform="translate(35.206287,-6.8587365)" id="g4137">
        <path inkscape:tile-y0="865.51923" inkscape:tile-x0="-18.679063" inkscape:transform-center-y="-46.232794" transform="matrix(0,-0.68085107,0.68085107,0,-647.0564,1363.3448)" d="m 278.41312,950.36407 c 0,15.15186 -21.38153,27.43487 -47.75699,27.43487 -26.37546,0 -47.757,-12.28301 -47.757,-27.43487 0,-15.15186 21.38154,-27.43487 47.757,-27.43487 26.37546,0 47.75699,12.28301 47.75699,27.43487 z" sodipodi:ry="27.43487" sodipodi:rx="47.756996" sodipodi:cy="950.36407" sodipodi:cx="230.65613" id="use4055" style="opacity:0.98999999;fill:url(#linearGradient4341);fill-opacity:1;stroke:none" sodipodi:type="arc"/>
        <path sodipodi:type="arc" style="opacity:0.98999999;fill:url(#radialGradient4343);fill-opacity:1;stroke:none" id="path4053" sodipodi:cx="0" sodipodi:cy="944.2674" sodipodi:rx="21.338232" sodipodi:ry="21.338232" d="m 21.338232,944.2674 c 0,11.78478 -9.553452,21.33823 -21.338232,21.33823 -11.78478,0 -21.338232,-9.55345 -21.338232,-21.33823 0,-11.78479 9.553452,-21.33824 21.338232,-21.33824 11.78478,0 21.338232,9.55345 21.338232,21.33824 z" transform="translate(0,308.2677)"/>
        <path sodipodi:type="arc" style="opacity:0.98999999;fill:url(#linearGradient4345);fill-opacity:1;stroke:none" id="path4097" sodipodi:cx="230.65613" sodipodi:cy="950.36407" sodipodi:rx="47.756996" sodipodi:ry="27.43487" d="m 278.41312,950.36407 c 0,15.15186 -21.38153,27.43487 -47.75699,27.43487 -26.37546,0 -47.757,-12.28301 -47.757,-27.43487 0,-15.15186 21.38154,-27.43487 47.757,-27.43487 26.37546,0 47.75699,12.28301 47.75699,27.43487 z" transform="matrix(-0.43764263,-0.52156218,0.52156218,-0.43764263,-424.44687,1753.3401)" inkscape:transform-center-y="-35.416369" inkscape:tile-x0="-18.679063" inkscape:tile-y0="865.51923" inkscape:transform-center-x="29.717863"/>
        <path inkscape:transform-center-x="45.530406" inkscape:tile-y0="865.51923" inkscape:tile-x0="-18.679063" inkscape:transform-center-y="-8.0282168" transform="matrix(-0.67050741,-0.11822855,0.11822855,-0.67050741,-3.2339327,1909.0032)" d="m 278.41312,950.36407 c 0,15.15186 -21.38153,27.43487 -47.75699,27.43487 -26.37546,0 -47.757,-12.28301 -47.757,-27.43487 0,-15.15186 21.38154,-27.43487 47.757,-27.43487 26.37546,0 47.75699,12.28301 47.75699,27.43487 z" sodipodi:ry="27.43487" sodipodi:rx="47.756996" sodipodi:cy="950.36407" sodipodi:cx="230.65613" id="path4101" style="opacity:0.98999999;fill:url(#linearGradient4347);fill-opacity:1;stroke:none" sodipodi:type="arc"/>
        <path sodipodi:type="arc" style="opacity:0.98999999;fill:url(#linearGradient4349);fill-opacity:1;stroke:none" id="path4105" sodipodi:cx="230.65613" sodipodi:cy="950.36407" sodipodi:rx="47.756996" sodipodi:ry="27.43487" d="m 278.41312,950.36407 c 0,15.15186 -21.38153,27.43487 -47.75699,27.43487 -26.37546,0 -47.757,-12.28301 -47.757,-27.43487 0,-15.15186 21.38154,-27.43487 47.757,-27.43487 26.37546,0 47.75699,12.28301 47.75699,27.43487 z" transform="matrix(-0.58963432,0.34042553,-0.34042553,-0.58963432,419.49221,1757.4976)" inkscape:transform-center-y="23.116437" inkscape:tile-x0="-18.679063" inkscape:tile-y0="865.51923" inkscape:transform-center-x="40.03875"/>
        <path inkscape:transform-center-x="15.812501" inkscape:tile-y0="865.51923" inkscape:tile-x0="-18.679063" inkscape:transform-center-y="43.444606" transform="matrix(-0.23286478,0.63979072,-0.63979072,-0.23286478,645.9333,1369.7144)" d="m 278.41312,950.36407 c 0,15.15186 -21.38153,27.43487 -47.75699,27.43487 -26.37546,0 -47.757,-12.28301 -47.757,-27.43487 0,-15.15186 21.38154,-27.43487 47.757,-27.43487 26.37546,0 47.75699,12.28301 47.75699,27.43487 z" sodipodi:ry="27.43487" sodipodi:rx="47.756996" sodipodi:cy="950.36407" sodipodi:cx="230.65613" id="path4109" style="opacity:0.98999999;fill:url(#linearGradient4351);fill-opacity:1;stroke:none" sodipodi:type="arc"/>
        <path sodipodi:type="arc" style="opacity:0.98999999;fill:url(#linearGradient4353);fill-opacity:1;stroke:none" id="path4113" sodipodi:cx="230.65613" sodipodi:cy="950.36407" sodipodi:rx="47.756996" sodipodi:ry="27.43487" d="m 278.41312,950.36407 c 0,15.15186 -21.38153,27.43487 -47.75699,27.43487 -26.37546,0 -47.757,-12.28301 -47.757,-27.43487 0,-15.15186 21.38154,-27.43487 47.757,-27.43487 26.37546,0 47.75699,12.28301 47.75699,27.43487 z" transform="matrix(0.23286478,0.63979072,-0.63979072,0.23286478,570.135,927.10173)" inkscape:transform-center-y="43.444578" inkscape:tile-x0="-18.679063" inkscape:tile-y0="865.51923" inkscape:transform-center-x="-15.812576"/>
        <path inkscape:transform-center-x="-40.038768" inkscape:tile-y0="865.51923" inkscape:tile-x0="-18.679063" inkscape:transform-center-y="23.116346" transform="matrix(0.58963432,0.34042553,-0.34042553,0.58963432,227.56419,636.76296)" d="m 278.41312,950.36407 c 0,15.15186 -21.38153,27.43487 -47.75699,27.43487 -26.37546,0 -47.757,-12.28301 -47.757,-27.43487 0,-15.15186 21.38154,-27.43487 47.757,-27.43487 26.37546,0 47.75699,12.28301 47.75699,27.43487 z" sodipodi:ry="27.43487" sodipodi:rx="47.756996" sodipodi:cy="950.36407" sodipodi:cx="230.65613" id="path4117" style="opacity:0.98999999;fill:url(#linearGradient4355);fill-opacity:1;stroke:none" sodipodi:type="arc"/>
        <path sodipodi:type="arc" style="opacity:0.98999999;fill:url(#linearGradient4357);fill-opacity:1;stroke:none" id="path4121" sodipodi:cx="230.65613" sodipodi:cy="950.36407" sodipodi:rx="47.756996" sodipodi:ry="27.43487" d="m 278.41312,950.36407 c 0,15.15186 -21.38153,27.43487 -47.75699,27.43487 -26.37546,0 -47.757,-12.28301 -47.757,-27.43487 0,-15.15186 21.38154,-27.43487 47.757,-27.43487 26.37546,0 47.75699,12.28301 47.75699,27.43487 z" transform="matrix(0.67050741,-0.11822855,0.11822855,0.67050741,-221.48643,634.55084)" inkscape:transform-center-y="-8.0282688" inkscape:tile-x0="-18.679063" inkscape:tile-y0="865.51923" inkscape:transform-center-x="-45.530382"/>
        <path inkscape:transform-center-x="-29.717826" inkscape:tile-y0="865.51923" inkscape:tile-x0="-18.679063" inkscape:transform-center-y="-35.416373" transform="matrix(0.43764263,-0.52156218,0.52156218,0.43764263,-566.90109,921.50043)" d="m 278.41312,950.36407 c 0,15.15186 -21.38153,27.43487 -47.75699,27.43487 -26.37546,0 -47.757,-12.28301 -47.757,-27.43487 0,-15.15186 21.38154,-27.43487 47.757,-27.43487 26.37546,0 47.75699,12.28301 47.75699,27.43487 z" sodipodi:ry="27.43487" sodipodi:rx="47.756996" sodipodi:cy="950.36407" sodipodi:cx="230.65613" id="path4125" style="opacity:0.98999999;fill:url(#linearGradient4359);fill-opacity:1;stroke:none" sodipodi:type="arc"/>
      </g>
      <path id="path4279" d="m 161.29178,1288.3131 c -23.13404,9.5196 -40.168,41.8717 -40.168,80.336 0,45.9443 24.29888,83.1996 54.27323,83.1996 6.8775,0 13.46792,-1.9569 19.52289,-5.5337 -4.52048,1.8705 -9.27638,2.8636 -14.18263,2.8636 -29.97436,0 -54.27324,-37.2553 -54.27324,-83.1996 0,-35.4327 14.46586,-65.6748 34.82775,-77.6659 z" style="fill:#005500;fill-opacity:0.99607843;stroke:none"/>
      <g transform="matrix(0.45109541,0,0,0.45109541,149.44709,723.04523)" id="g4149">
        <path sodipodi:type="arc" style="opacity:0.98999999;fill:url(#linearGradient4361);fill-opacity:1;stroke:none" id="path4151" sodipodi:cx="230.65613" sodipodi:cy="950.36407" sodipodi:rx="47.756996" sodipodi:ry="27.43487" d="m 278.41312,950.36407 c 0,15.15186 -21.38153,27.43487 -47.75699,27.43487 -26.37546,0 -47.757,-12.28301 -47.757,-27.43487 0,-15.15186 21.38154,-27.43487 47.757,-27.43487 26.37546,0 47.75699,12.28301 47.75699,27.43487 z" transform="matrix(0,-0.68085107,0.68085107,0,-647.0564,1363.3448)" inkscape:transform-center-y="-46.232794" inkscape:tile-x0="-18.679063" inkscape:tile-y0="865.51923"/>
        <path transform="translate(0,308.2677)" d="m 21.338232,944.2674 c 0,11.78478 -9.553452,21.33823 -21.338232,21.33823 -11.78478,0 -21.338232,-9.55345 -21.338232,-21.33823 0,-11.78479 9.553452,-21.33824 21.338232,-21.33824 11.78478,0 21.338232,9.55345 21.338232,21.33824 z" sodipodi:ry="21.338232" sodipodi:rx="21.338232" sodipodi:cy="944.2674" sodipodi:cx="0" id="path4153" style="opacity:0.98999999;fill:url(#radialGradient4363);fill-opacity:1;stroke:none" sodipodi:type="arc"/>
        <path inkscape:transform-center-x="29.717863" inkscape:tile-y0="865.51923" inkscape:tile-x0="-18.679063" inkscape:transform-center-y="-35.416369" transform="matrix(-0.43764263,-0.52156218,0.52156218,-0.43764263,-424.44687,1753.3401)" d="m 278.41312,950.36407 c 0,15.15186 -21.38153,27.43487 -47.75699,27.43487 -26.37546,0 -47.757,-12.28301 -47.757,-27.43487 0,-15.15186 21.38154,-27.43487 47.757,-27.43487 26.37546,0 47.75699,12.28301 47.75699,27.43487 z" sodipodi:ry="27.43487" sodipodi:rx="47.756996" sodipodi:cy="950.36407" sodipodi:cx="230.65613" id="path4155" style="opacity:0.98999999;fill:url(#linearGradient4365);fill-opacity:1;stroke:none" sodipodi:type="arc"/>
        <path sodipodi:type="arc" style="opacity:0.98999999;fill:url(#linearGradient4367);fill-opacity:1;stroke:none" id="path4157" sodipodi:cx="230.65613" sodipodi:cy="950.36407" sodipodi:rx="47.756996" sodipodi:ry="27.43487" d="m 278.41312,950.36407 c 0,15.15186 -21.38153,27.43487 -47.75699,27.43487 -26.37546,0 -47.757,-12.28301 -47.757,-27.43487 0,-15.15186 21.38154,-27.43487 47.757,-27.43487 26.37546,0 47.75699,12.28301 47.75699,27.43487 z" transform="matrix(-0.67050741,-0.11822855,0.11822855,-0.67050741,-3.2339327,1909.0032)" inkscape:transform-center-y="-8.0282168" inkscape:tile-x0="-18.679063" inkscape:tile-y0="865.51923" inkscape:transform-center-x="45.530406"/>
        <path inkscape:transform-center-x="40.03875" inkscape:tile-y0="865.51923" inkscape:tile-x0="-18.679063" inkscape:transform-center-y="23.116437" transform="matrix(-0.58963432,0.34042553,-0.34042553,-0.58963432,419.49221,1757.4976)" d="m 278.41312,950.36407 c 0,15.15186 -21.38153,27.43487 -47.75699,27.43487 -26.37546,0 -47.757,-12.28301 -47.757,-27.43487 0,-15.15186 21.38154,-27.43487 47.757,-27.43487 26.37546,0 47.75699,12.28301 47.75699,27.43487 z" sodipodi:ry="27.43487" sodipodi:rx="47.756996" sodipodi:cy="950.36407" sodipodi:cx="230.65613" id="path4159" style="opacity:0.98999999;fill:url(#linearGradient4369);fill-opacity:1;stroke:none" sodipodi:type="arc"/>
        <path sodipodi:type="arc" style="opacity:0.98999999;fill:url(#linearGradient4371);fill-opacity:1;stroke:none" id="path4161" sodipodi:cx="230.65613" sodipodi:cy="950.36407" sodipodi:rx="47.756996" sodipodi:ry="27.43487" d="m 278.41312,950.36407 c 0,15.15186 -21.38153,27.43487 -47.75699,27.43487 -26.37546,0 -47.757,-12.28301 -47.757,-27.43487 0,-15.15186 21.38154,-27.43487 47.757,-27.43487 26.37546,0 47.75699,12.28301 47.75699,27.43487 z" transform="matrix(-0.23286478,0.63979072,-0.63979072,-0.23286478,645.9333,1369.7144)" inkscape:transform-center-y="43.444606" inkscape:tile-x0="-18.679063" inkscape:tile-y0="865.51923" inkscape:transform-center-x="15.812501"/>
        <path inkscape:transform-center-x="-15.812576" inkscape:tile-y0="865.51923" inkscape:tile-x0="-18.679063" inkscape:transform-center-y="43.444578" transform="matrix(0.23286478,0.63979072,-0.63979072,0.23286478,570.135,927.10173)" d="m 278.41312,950.36407 c 0,15.15186 -21.38153,27.43487 -47.75699,27.43487 -26.37546,0 -47.757,-12.28301 -47.757,-27.43487 0,-15.15186 21.38154,-27.43487 47.757,-27.43487 26.37546,0 47.75699,12.28301 47.75699,27.43487 z" sodipodi:ry="27.43487" sodipodi:rx="47.756996" sodipodi:cy="950.36407" sodipodi:cx="230.65613" id="path4163" style="opacity:0.98999999;fill:url(#linearGradient4373);fill-opacity:1;stroke:none" sodipodi:type="arc"/>
        <path sodipodi:type="arc" style="opacity:0.98999999;fill:url(#linearGradient4375);fill-opacity:1;stroke:none" id="path4165" sodipodi:cx="230.65613" sodipodi:cy="950.36407" sodipodi:rx="47.756996" sodipodi:ry="27.43487" d="m 278.41312,950.36407 c 0,15.15186 -21.38153,27.43487 -47.75699,27.43487 -26.37546,0 -47.757,-12.28301 -47.757,-27.43487 0,-15.15186 21.38154,-27.43487 47.757,-27.43487 26.37546,0 47.75699,12.28301 47.75699,27.43487 z" transform="matrix(0.58963432,0.34042553,-0.34042553,0.58963432,227.56419,636.76296)" inkscape:transform-center-y="23.116346" inkscape:tile-x0="-18.679063" inkscape:tile-y0="865.51923" inkscape:transform-center-x="-40.038768"/>
        <path inkscape:transform-center-x="-45.530382" inkscape:tile-y0="865.51923" inkscape:tile-x0="-18.679063" inkscape:transform-center-y="-8.0282688" transform="matrix(0.67050741,-0.11822855,0.11822855,0.67050741,-221.48643,634.55084)" d="m 278.41312,950.36407 c 0,15.15186 -21.38153,27.43487 -47.75699,27.43487 -26.37546,0 -47.757,-12.28301 -47.757,-27.43487 0,-15.15186 21.38154,-27.43487 47.757,-27.43487 26.37546,0 47.75699,12.28301 47.75699,27.43487 z" sodipodi:ry="27.43487" sodipodi:rx="47.756996" sodipodi:cy="950.36407" sodipodi:cx="230.65613" id="path4167" style="opacity:0.98999999;fill:url(#linearGradient4377);fill-opacity:1;stroke:none" sodipodi:type="arc"/>
        <path sodipodi:type="arc" style="opacity:0.98999999;fill:url(#linearGradient4379);fill-opacity:1;stroke:none" id="path4169" sodipodi:cx="230.65613" sodipodi:cy="950.36407" sodipodi:rx="47.756996" sodipodi:ry="27.43487" d="m 278.41312,950.36407 c 0,15.15186 -21.38153,27.43487 -47.75699,27.43487 -26.37546,0 -47.757,-12.28301 -47.757,-27.43487 0,-15.15186 21.38154,-27.43487 47.757,-27.43487 26.37546,0 47.75699,12.28301 47.75699,27.43487 z" transform="matrix(0.43764263,-0.52156218,0.52156218,0.43764263,-566.90109,921.50043)" inkscape:transform-center-y="-35.416373" inkscape:tile-x0="-18.679063" inkscape:tile-y0="865.51923" inkscape:transform-center-x="-29.717826"/>
      </g>
      <g transform="matrix(0.71203672,0.70214223,-0.70214223,0.71203672,918.46578,226.7323)" id="g4246">
        <path style="opacity:0.98999999;fill:url(#radialGradient4381);fill-opacity:1;stroke:none" d="m 106.7627,1225.159 c -0.0424,0.4717 -0.0625,0.9547 -0.0625,1.4375 0,8.7299 7.08259,15.8125 15.8125,15.8125 8.72991,0 15.8125,-7.0826 15.8125,-15.8125 0,-0.4829 -0.0514,-0.9657 -0.0937,-1.4375 l -31.46875,0 z" id="path4191"/>
        <path sodipodi:type="arc" style="opacity:0.98999999;fill:url(#linearGradient4383);fill-opacity:1;stroke:none" id="path4196" sodipodi:cx="116.21667" sodipodi:cy="856.35944" sodipodi:rx="6.6460848" sodipodi:ry="22.09374" d="m 122.86275,856.35944 c 0,12.20203 -2.97555,22.09374 -6.64608,22.09374 -3.67053,0 -6.64609,-9.89171 -6.64609,-22.09374 0,-12.20204 2.97556,-22.09374 6.64609,-22.09374 3.67053,0 6.64608,9.8917 6.64608,22.09374 z" transform="translate(5.7479651,349.94045)" inkscape:transform-center-y="-27.662083"/>
        <path inkscape:transform-center-y="-26.719518" transform="matrix(0.96592583,-0.25881905,0.25881905,0.96592583,-219.09365,410.14184)" d="m 122.86275,856.35944 c 0,12.20203 -2.97555,22.09374 -6.64608,22.09374 -3.67053,0 -6.64609,-9.89171 -6.64609,-22.09374 0,-12.20204 2.97556,-22.09374 6.64609,-22.09374 3.67053,0 6.64608,9.8917 6.64608,22.09374 z" sodipodi:ry="22.09374" sodipodi:rx="6.6460848" sodipodi:cy="856.35944" sodipodi:cx="116.21667" id="path4214" style="opacity:0.98999999;fill:url(#linearGradient4385);fill-opacity:1;stroke:none" sodipodi:type="arc" inkscape:transform-center-x="7.1594659"/>
        <path inkscape:transform-center-x="13.831029" sodipodi:type="arc" style="opacity:0.98999999;fill:url(#linearGradient4387);fill-opacity:1;stroke:none" id="path4218" sodipodi:cx="116.21667" sodipodi:cy="856.35944" sodipodi:rx="6.6460848" sodipodi:ry="22.09374" d="m 122.86275,856.35944 c 0,12.20203 -2.97555,22.09374 -6.64608,22.09374 -3.67053,0 -6.64609,-9.89171 -6.64609,-22.09374 0,-12.20204 2.97556,-22.09374 6.64609,-22.09374 3.67053,0 6.64608,9.8917 6.64608,22.09374 z" transform="matrix(0.86602541,-0.50000001,0.50000001,0.86602541,-420.69271,526.48521)" inkscape:transform-center-y="-23.956063"/>
        <path inkscape:transform-center-y="-19.560051" transform="matrix(0.70710678,-0.70710679,0.70710679,0.70710678,-585.31057,691.04195)" d="m 122.86275,856.35944 c 0,12.20203 -2.97555,22.09374 -6.64608,22.09374 -3.67053,0 -6.64609,-9.89171 -6.64609,-22.09374 0,-12.20204 2.97556,-22.09374 6.64609,-22.09374 3.67053,0 6.64608,9.8917 6.64608,22.09374 z" sodipodi:ry="22.09374" sodipodi:rx="6.6460848" sodipodi:cy="856.35944" sodipodi:cx="116.21667" id="path4222" style="opacity:0.98999999;fill:url(#linearGradient4389);fill-opacity:1;stroke:none" sodipodi:type="arc" inkscape:transform-center-x="19.560037"/>
        <path inkscape:transform-center-y="-26.719513" transform="matrix(0.96592583,0.25881905,-0.25881905,0.96592583,238.50956,349.98367)" d="m 122.86275,856.35944 c 0,12.20203 -2.97555,22.09374 -6.64608,22.09374 -3.67053,0 -6.64609,-9.89171 -6.64609,-22.09374 0,-12.20204 2.97556,-22.09374 6.64609,-22.09374 3.67053,0 6.64608,9.8917 6.64608,22.09374 z" sodipodi:ry="22.09374" sodipodi:rx="6.6460848" sodipodi:cy="856.35944" sodipodi:cx="116.21667" id="path4226" style="opacity:0.98999999;fill:url(#linearGradient4391);fill-opacity:1;stroke:none" sodipodi:type="arc" inkscape:transform-center-x="-7.1594727"/>
        <path inkscape:transform-center-x="-13.831038" sodipodi:type="arc" style="opacity:0.98999999;fill:url(#linearGradient4393);fill-opacity:1;stroke:none" id="path4230" sodipodi:cx="116.21667" sodipodi:cy="856.35944" sodipodi:rx="6.6460848" sodipodi:ry="22.09374" d="m 122.86275,856.35944 c 0,12.20203 -2.97555,22.09374 -6.64608,22.09374 -3.67053,0 -6.64609,-9.89171 -6.64609,-22.09374 0,-12.20204 2.97556,-22.09374 6.64609,-22.09374 3.67053,0 6.64608,9.8917 6.64608,22.09374 z" transform="matrix(0.86602541,0.50000001,-0.50000001,0.86602541,463.32881,410.26855)" inkscape:transform-center-y="-23.956053"/>
        <path inkscape:transform-center-y="-19.560042" transform="matrix(0.70710678,0.70710679,-0.70710679,0.70710678,664.88465,526.68677)" d="m 122.86275,856.35944 c 0,12.20203 -2.97555,22.09374 -6.64608,22.09374 -3.67053,0 -6.64609,-9.89171 -6.64609,-22.09374 0,-12.20204 2.97556,-22.09374 6.64609,-22.09374 3.67053,0 6.64608,9.8917 6.64608,22.09374 z" sodipodi:ry="22.09374" sodipodi:rx="6.6460848" sodipodi:cy="856.35944" sodipodi:cx="116.21667" id="path4234" style="opacity:0.98999999;fill:url(#linearGradient4395);fill-opacity:1;stroke:none" sodipodi:type="arc" inkscape:transform-center-x="-19.560039"/>
      </g>
      <path id="path4281" d="m 160.93706,1386.3361 c -7.90735,6.6558 -12.9375,16.6365 -12.9375,27.7812 0,11.1431 5.03212,21.1254 12.9375,27.7812 7.91593,-6.6558 12.9375,-16.6295 12.9375,-27.7812 0,-11.1531 -5.01985,-21.1254 -12.9375,-27.7812 z" style="fill:#005500;fill-opacity:0.99607843;stroke:none"/>
      <path style="fill:#005500;fill-opacity:0.99607843;stroke:none" d="m 168.35407,1353.2402 c -8.43633,-3.4937 -18.30977,-3.3784 -27.04979,1.1551 -8.7388,4.533 -14.52021,12.54 -16.52405,21.4473 8.43982,3.5003 18.30427,3.3813 27.04979,-1.1553 8.74664,-4.5369 14.5252,-12.5304 16.52405,-21.4471 z" id="path4286"/>
      <path id="path4288" d="m 93.321173,1320.1126 c 0.771882,7.0746 4.548639,13.7797 10.920747,18.0553 6.37118,4.2751 14.00923,5.2276 20.84765,3.2611 -0.76859,-7.0795 -4.54463,-13.777 -10.92074,-18.0553 -6.3769,-4.2789 -14.00453,-5.2346 -20.847657,-3.2611 z" style="fill:#005500;fill-opacity:0.99607843;stroke:none"/>
      <path style="fill:#005500;fill-opacity:0.99607843;stroke:none" d="m 139.32814,1464.0729 c -8.70217,-5.5766 -19.72588,-7.419 -30.36876,-4.1125 -10.641357,3.3061 -18.681183,11.0734 -22.691813,20.5975 8.704713,5.5848 19.719193,7.4211 30.368753,4.1125 10.65091,-3.3091 18.68483,-11.0616 22.69182,-20.5975 z" id="path4290"/>
      <path style="fill:#005500;fill-opacity:0.99607843;stroke:none" d="m 46.618956,1284.1878 c 0.771882,7.0746 4.548639,13.7797 10.920747,18.0553 6.37118,4.2751 14.00923,5.2276 20.84765,3.2611 -0.76859,-7.0795 -4.54463,-13.777 -10.92074,-18.0553 -6.3769,-4.2789 -14.00453,-5.2346 -20.847657,-3.2611 z" id="path4292"/>
      <path id="path4294" d="m 87.143885,1351.0004 c -9.048741,1.2239 -17.524243,6.2898 -22.797803,14.6043 -5.272756,8.3134 -6.242064,18.1418 -3.493615,26.8482 9.055077,-1.2199 17.520948,-6.2846 22.797702,-14.6045 5.277571,-8.3207 6.251206,-18.136 3.493716,-26.848 z" style="fill:#005500;fill-opacity:0.99607843;stroke:none"/>
      <path style="fill:#005500;fill-opacity:0.99607843;stroke:none" d="m 0,1350.293 c 3.2796023,6.3159 9.226736,11.1999 16.714194,12.88 7.486412,1.6799 14.951517,-0.1961 20.614907,-4.5039 -3.278306,-6.3216 -9.222021,-11.1988 -16.714187,-12.8799 C 13.121794,1344.1078 5.6652448,1345.977 0,1350.293 z" id="path4296"/>
    </g>
  </g>
  <metadata>
    <rdf:RDF>
      <cc:Work>
        <dc:format>image/svg+xml</dc:format>
        <dc:type rdf:resource="http://purl.org/dc/dcmitype/StillImage"/>
        <cc:license rdf:resource="http://creativecommons.org/licenses/publicdomain/"/>
        <dc:publisher>
          <cc:Agent rdf:about="http://openclipart.org/">
            <dc:title>Open Clip Art Library</dc:title>
          </cc:Agent>
        </dc:publisher>
        <dc:title>Blue Flower Motif</dc:title>
        <dc:date>2010-04-20T22:32:47</dc:date>
        <dc:description/>
        <dc:source>http://openclipart.org/detail/49339/blue-flower-motif-by-sheikh_tuhin</dc:source>
        <dc:creator>
          <cc:Agent>
            <dc:title>sheikh_tuhin</dc:title>
          </cc:Agent>
        </dc:creator>
        <dc:subject>
          <rdf:Bag>
            <rdf:li>clip art</rdf:li>
            <rdf:li>clipart</rdf:li>
            <rdf:li>flower</rdf:li>
            <rdf:li>leaves</rdf:li>
            <rdf:li>nature</rdf:li>
          </rdf:Bag>
        </dc:subject>
      </cc:Work>
      <cc:License rdf:about="http://creativecommons.org/licenses/publicdomain/">
        <cc:permits rdf:resource="http://creativecommons.org/ns#Reproduction"/>
        <cc:permits rdf:resource="http://creativecommons.org/ns#Distribution"/>
        <cc:permits rdf:resource="http://creativecommons.org/ns#DerivativeWorks"/>
      </cc:License>
    </rdf:RDF>
  </metadata>
</svg>