<?xml version="1.0" encoding="UTF-8" standalone="no"?>
<!-- Created with Inkscape (http://www.inkscape.org/) -->
<svg
   xmlns:dc="http://purl.org/dc/elements/1.1/"
   xmlns:cc="http://creativecommons.org/ns#"
   xmlns:rdf="http://www.w3.org/1999/02/22-rdf-syntax-ns#"
   xmlns:svg="http://www.w3.org/2000/svg"
   xmlns="http://www.w3.org/2000/svg"
   xmlns:xlink="http://www.w3.org/1999/xlink"
   xmlns:sodipodi="http://sodipodi.sourceforge.net/DTD/sodipodi-0.dtd"
   xmlns:inkscape="http://www.inkscape.org/namespaces/inkscape"
   width="743.40466"
   height="701.56207"
   id="svg3290"
   sodipodi:version="0.32"
   inkscape:version="0.46"
   sodipodi:docbase="/home/katty/Desktop"
   sodipodi:docname="Porota_death.svg"
   inkscape:output_extension="org.inkscape.output.svg.inkscape"
   version="1.0">
  <defs
     id="defs3292">
    <inkscape:perspective
       sodipodi:type="inkscape:persp3d"
       inkscape:vp_x="0 : 526.18109 : 1"
       inkscape:vp_y="0 : 1000 : 0"
       inkscape:vp_z="744.09448 : 526.18109 : 1"
       inkscape:persp3d-origin="372.04724 : 350.78739 : 1"
       id="perspective47" />
    <radialGradient
       inkscape:collect="always"
       xlink:href="#linearGradient3227"
       id="radialGradient3288"
       gradientUnits="userSpaceOnUse"
       gradientTransform="matrix(1,0,0,1.0434783,0,13.23913)"
       cx="-19.792709"
       cy="-314.30951"
       fx="-19.792709"
       fy="-314.30951"
       r="23" />
    <linearGradient
       id="linearGradient3227">
      <stop
         style="stop-color:#ff0000;stop-opacity:1;"
         offset="0"
         id="stop3229" />
      <stop
         style="stop-color:#060606;stop-opacity:0.83838385;"
         offset="1"
         id="stop3231" />
    </linearGradient>
    <radialGradient
       inkscape:collect="always"
       xlink:href="#linearGradient3227"
       id="radialGradient3286"
       gradientUnits="userSpaceOnUse"
       gradientTransform="matrix(1,0,0,1.0434783,0,13.23913)"
       cx="-19.792709"
       cy="-314.30951"
       fx="-19.792709"
       fy="-314.30951"
       r="23" />
    <filter
       inkscape:collect="always"
       id="filter20574">
      <feGaussianBlur
         inkscape:collect="always"
         stdDeviation="2.4208259"
         id="feGaussianBlur20576" />
    </filter>
    <filter
       inkscape:collect="always"
       x="-0.14608546"
       width="1.2921709"
       y="-0.03435576"
       height="1.0687115"
       id="filter3221">
      <feGaussianBlur
         inkscape:collect="always"
         stdDeviation="4.6699"
         id="feGaussianBlur3223" />
    </filter>
    <linearGradient
       id="linearGradient18564">
      <stop
         style="stop-color:#080000;stop-opacity:1;"
         offset="0"
         id="stop18566" />
      <stop
         id="stop18572"
         offset="0.5"
         style="stop-color:#ffffff;stop-opacity:1;" />
      <stop
         style="stop-color:#401818;stop-opacity:0;"
         offset="1"
         id="stop18568" />
    </linearGradient>
    <linearGradient
       inkscape:collect="always"
       xlink:href="#linearGradient18564"
       id="linearGradient3284"
       gradientUnits="userSpaceOnUse"
       x1="772.72382"
       y1="-357.64621"
       x2="917.25446"
       y2="-357.64621" />
    <filter
       inkscape:collect="always"
       x="-0.083014987"
       width="1.16603"
       y="-0.12502101"
       height="1.250042"
       id="filter8462">
      <feGaussianBlur
         inkscape:collect="always"
         stdDeviation="4.9534554"
         id="feGaussianBlur8464" />
    </filter>
    <filter
       inkscape:collect="always"
       x="-0.1160936"
       width="1.2321872"
       y="-0.17483757"
       height="1.3496752"
       id="filter7421">
      <feGaussianBlur
         inkscape:collect="always"
         stdDeviation="6.9272366"
         id="feGaussianBlur7423" />
    </filter>
  </defs>
  <sodipodi:namedview
     id="base"
     pagecolor="#ffffff"
     bordercolor="#666666"
     borderopacity="1.0"
     inkscape:pageopacity="0.0"
     inkscape:pageshadow="2"
     inkscape:zoom="0.35"
     inkscape:cx="350"
     inkscape:cy="520"
     inkscape:document-units="px"
     inkscape:current-layer="layer1"
     inkscape:window-width="814"
     inkscape:window-height="704"
     inkscape:window-x="0"
     inkscape:window-y="6"
     showgrid="false" />
  <metadata
     id="metadata3295">
    <rdf:RDF>
      <cc:Work
         rdf:about="">
        <dc:format>image/svg+xml</dc:format>
        <dc:type
           rdf:resource="http://purl.org/dc/dcmitype/StillImage" />
      </cc:Work>
    </rdf:RDF>
  </metadata>
  <g
     inkscape:label="Capa 1"
     inkscape:groupmode="layer"
     id="layer1"
     transform="translate(-0.3449115,-175.40006)">
    <g
       id="g3261"
       transform="matrix(1.4274272,0,0,1.4582714,-581.28684,963.48113)">
      <g
         transform="matrix(1.2874933,0,0,1.4260941,-117.14451,25.2801)"
         id="g3235">
        <g
           transform="translate(3.5355339,-3.235786e-8)"
           id="g7425">
          <path
             style="fill:#000000;fill-opacity:1;stroke:none;stroke-width:4;stroke-linecap:square;stroke-linejoin:miter;stroke-miterlimit:0.1;stroke-dashoffset:0;stroke-opacity:1"
             d="M 551.22199,-285.02312 C 565.24615,-277.43395 456.53299,-183.07659 456.53299,-183.07659 C 456.53299,-183.07659 433.25636,-178.15555 419.04613,-189.34924 C 406.68129,-199.08928 408.92164,-212.01903 408.92164,-212.01903 C 408.92164,-212.01903 537.19783,-292.61228 551.22199,-285.02312 z"
             id="path6402"
             sodipodi:nodetypes="ccscc" />
          <path
             sodipodi:nodetypes="cscsccscscc"
             transform="matrix(-1,0,0,1,1178.1118,16.970563)"
             id="path6404"
             d="M 633.63132,-298.26167 C 632.53186,-298.26944 631.66494,-298.12922 631.04721,-297.80263 C 617.86896,-290.83518 720.02334,-204.18752 720.02334,-204.18752 C 720.02335,-204.18751 744.7093,-204.9178 760.54478,-210.95488 C 775.48609,-216.65109 774.14784,-232.7812 774.14784,-232.7812 C 774.14784,-232.7812 770.81709,-233.14038 769.65031,-233.79549 C 770.04746,-229.13596 768.58496,-220.04712 757.10674,-215.81359 C 742.07949,-210.27112 719.40668,-209.95419 719.40669,-209.95419 C 719.40669,-209.95419 622.47647,-289.48376 634.98211,-295.8804 C 638.89014,-297.87935 653.49511,-292.73651 671.71782,-284.72004 C 654.53079,-292.61665 640.10783,-298.21586 633.63132,-298.26167 z"
             style="opacity:0.87906973;fill:#ffffff;fill-opacity:1;stroke:none;stroke-width:4;stroke-linecap:square;stroke-linejoin:miter;stroke-miterlimit:0.1;stroke-dashoffset:0;stroke-opacity:1;filter:url(#filter7421)" />
        </g>
        <path
           sodipodi:nodetypes="ccscc"
           id="path4109"
           d="M 541.66977,-303.99186 C 590.67312,-315.26421 672.84024,-113.73238 672.84024,-113.73238 C 672.84024,-113.73238 634.14546,-78.283553 582.93315,-62.842839 C 534.61261,-48.274006 478.92858,-83.729301 478.92858,-83.729301 C 478.92858,-83.729301 492.66645,-292.71949 541.66977,-303.99186 z"
           style="fill:#000000;fill-opacity:1;stroke:none;stroke-width:4;stroke-linecap:square;stroke-linejoin:miter;stroke-miterlimit:0.1;stroke-dashoffset:0;stroke-opacity:1" />
        <path
           style="fill:#000000;fill-opacity:1;stroke:none;stroke-width:4;stroke-linecap:square;stroke-linejoin:miter;stroke-miterlimit:0.1;stroke-dashoffset:0;stroke-opacity:1"
           d="M 553.52457,-394.00244 C 586.954,-393.61511 615.57061,-332.82772 614.76449,-300.88794 C 613.95837,-268.94817 585.69463,-267.6995 550.3001,-266.24333 C 516.90417,-264.86938 476.33874,-268.35702 477.14487,-300.29679 C 477.95099,-332.23658 520.09515,-394.38977 553.52457,-394.00244 z"
           id="path4119"
           sodipodi:nodetypes="czszc" />
        <path
           sodipodi:nodetypes="czszc"
           id="path4123"
           d="M 541.60728,-379.86072 C 564.56123,-379.56325 584.21052,-332.879 583.65701,-308.34949 C 583.10349,-283.82 570.06046,-282.86103 545.75719,-281.7427 C 522.82624,-280.68752 494.97242,-283.366 495.52594,-307.8955 C 496.07946,-332.42501 518.65333,-380.15818 541.60728,-379.86072 z"
           style="fill:#ffffff;fill-opacity:1;stroke:none;stroke-width:4;stroke-linecap:square;stroke-linejoin:miter;stroke-miterlimit:0.1;stroke-dashoffset:0;stroke-opacity:1" />
        <g
           transform="matrix(0.8329636,0,0,0.8975929,50.76472,-3.401629)"
           id="g6396">
          <path
             sodipodi:nodetypes="ccscc"
             id="path4129"
             d="M 626.88988,-301.99368 C 612.86572,-294.40451 721.57888,-200.04715 721.57888,-200.04715 C 721.57888,-200.04715 748.57774,-196.20849 765.4297,-202.78427 C 781.33007,-208.98877 777.67551,-230.4038 777.67551,-230.4038 C 777.67551,-230.4038 640.91404,-309.58284 626.88988,-301.99368 z"
             style="fill:#000000;fill-opacity:1;stroke:none;stroke-width:4;stroke-linecap:square;stroke-linejoin:miter;stroke-miterlimit:0.1;stroke-dashoffset:0;stroke-opacity:1" />
          <path
             style="opacity:0.87906973;fill:#ffffff;fill-opacity:1;stroke:none;stroke-width:4;stroke-linecap:square;stroke-linejoin:miter;stroke-miterlimit:0.1;stroke-dashoffset:0;stroke-opacity:1;filter:url(#filter8462)"
             d="M 633.63132,-298.26167 C 632.53186,-298.26944 631.66494,-298.12922 631.04721,-297.80263 C 617.86896,-290.83518 720.02334,-204.18752 720.02334,-204.18752 C 720.02335,-204.18751 745.41641,-200.67516 761.25189,-206.71224 C 776.1932,-212.40845 772.73363,-232.07409 772.73363,-232.07409 C 772.73363,-232.07409 770.81709,-233.14038 769.65031,-233.79549 C 770.04746,-229.13596 769.99917,-216.51159 758.52095,-212.27806 C 743.4937,-206.73559 719.40668,-209.95419 719.40669,-209.95419 C 719.40669,-209.95419 622.47647,-289.48376 634.98211,-295.8804 C 638.89014,-297.87935 653.49511,-292.73651 671.71782,-284.72004 C 654.53079,-292.61665 640.10783,-298.21586 633.63132,-298.26167 z"
             id="path5118" />
          <g
             transform="translate(-3.3956191,-15.755623)"
             id="g18574">
            <path
               style="fill:none;fill-rule:evenodd;stroke:#000000;stroke-width:2.28161812px;stroke-linecap:butt;stroke-linejoin:miter;stroke-opacity:1"
               d="M 713.47074,-362.17933 L 712.76364,-360.76511"
               id="path12551"
               transform="matrix(1.2005327,0,0,1.1140908,-60.944704,3.7897236)" />
            <path
               style="fill:url(#linearGradient3284);fill-opacity:1;stroke:none;stroke-width:2.4000001;stroke-linecap:round;stroke-linejoin:round;stroke-miterlimit:4;stroke-dashoffset:0;stroke-opacity:1"
               d="M 801.59508,-414.56239 C 801.59508,-414.56239 925.52201,-313.46895 916.81638,-301.79178 C 908.11075,-290.11463 772.72382,-378.61019 772.72382,-378.61019 L 801.59508,-414.56239 z"
               id="rect15484"
               sodipodi:nodetypes="cscc" />
            <g
               id="g15480"
               transform="matrix(0.9740219,-0.2101483,0.2440241,0.9740219,505.34645,93.904509)">
              <path
                 sodipodi:nodetypes="csssssssssc"
                 id="path12549"
                 d="M 259.94133,-129.502 C 259.94133,-130.55237 259.94133,-130.55237 259.94133,-129.502 C 259.94133,-124.86392 266.02113,-144.19232 270.1282,-159.43768 C 278.52991,-190.62474 286.34294,-233.01896 294.74643,-264.21258 C 299.71169,-282.64356 333.52206,-227.26222 310.02672,-319.35726 C 305.6707,-336.4316 336.34276,-290.60782 336.34276,-308.32832 C 336.34276,-314.95257 337.19167,-325.31966 337.19167,-332.74953 C 337.19167,-338.37102 339.34251,-346.66834 340.58728,-352.44406 C 342.60478,-361.8052 350.14124,-358.76029 352.47195,-367.4119 C 353.75004,-372.15613 376.24129,-391.37157 376.24129,-396.55981 C 376.24129,-398.13537 410.19748,-426.49549 410.19748,-428.07106"
                 style="fill:none;fill-rule:evenodd;stroke:#000000;stroke-width:29.02571487;stroke-linecap:round;stroke-linejoin:round;stroke-miterlimit:4;stroke-dasharray:none;stroke-opacity:1" />
              <path
                 style="fill:none;fill-rule:evenodd;stroke:#f0f0f0;stroke-width:2.96587515;stroke-linecap:round;stroke-linejoin:round;stroke-miterlimit:4;stroke-dasharray:none;stroke-opacity:1;filter:url(#filter3221)"
                 d="M 269.84088,-131.45737 C 269.84088,-132.50774 269.84088,-132.50774 269.84088,-131.45737 C 269.84088,-126.81929 275.92068,-146.14769 280.02775,-161.39305 C 288.42946,-192.58011 296.24249,-234.97433 304.64598,-266.16795 C 309.61124,-284.59893 343.42161,-229.21759 319.92627,-321.31263 C 315.57025,-338.38697 346.24231,-292.56319 346.24231,-310.28369 C 346.24231,-316.90794 347.09122,-327.27503 347.09122,-334.7049 C 347.09122,-340.32639 349.24206,-348.62371 350.48683,-354.39943 C 352.50433,-363.76057 360.04079,-360.71566 362.3715,-369.36727 C 363.64959,-374.1115 386.14084,-393.32694 386.14084,-398.51518 C 386.14084,-400.09074 420.09703,-428.45086 420.09703,-430.02643"
                 id="path13522"
                 sodipodi:nodetypes="csssssssssc" />
            </g>
          </g>
        </g>
        <path
           style="fill:#000000;fill-opacity:1;stroke:none;stroke-width:4;stroke-linecap:square;stroke-linejoin:miter;stroke-miterlimit:0.1;stroke-dashoffset:0;stroke-opacity:1"
           d="M 540.76837,-341.29791 C 546.01606,-343.24373 553.5051,-332.17839 554.96232,-325.40351 C 556.41954,-318.62861 553.51047,-317.21364 548.04681,-314.76041 C 542.89168,-312.44571 536.3742,-310.71998 534.91699,-317.49486 C 533.45978,-324.26977 535.52068,-339.35208 540.76837,-341.29791 z"
           id="path18587"
           sodipodi:nodetypes="czszc" />
        <path
           inkscape:transform-center-x="30.379608"
           sodipodi:nodetypes="czszc"
           id="path18589"
           d="M 522.93214,-343.40258 C 517.15117,-345.49167 508.90108,-333.61172 507.29577,-326.3381 C 505.69046,-319.06444 508.89516,-317.54531 514.91405,-314.91148 C 520.59305,-312.42638 527.77285,-310.5736 529.37814,-317.84725 C 530.98344,-325.12089 528.71311,-341.31351 522.93214,-343.40258 z"
           style="fill:#000000;fill-opacity:1;stroke:none;stroke-width:4;stroke-linecap:square;stroke-linejoin:miter;stroke-miterlimit:0.1;stroke-dashoffset:0;stroke-opacity:1" />
        <path
           transform="matrix(1.0477497,0,0,0.992958,-23.626948,-1.2657077)"
           id="path19568"
           d="M 540.17741,-380.55346 C 517.41788,-379.36069 495.36565,-331.73077 494.81642,-307.06341 C 494.25845,-282.00452 522.32312,-279.2647 545.43803,-280.34266 C 569.93626,-281.48512 583.09041,-282.45147 583.64837,-307.51035 C 584.20632,-332.56925 564.41802,-380.24957 541.27994,-380.55346 C 540.9184,-380.55821 540.53868,-380.57239 540.17741,-380.55346 z M 538.53937,-375.5094 C 558.89341,-375.23174 576.29551,-331.65138 575.80469,-308.7554 C 575.31387,-285.85941 563.77547,-284.96206 542.22496,-283.91819 C 521.89131,-282.93329 497.19215,-285.44441 497.68298,-308.34039 C 498.1738,-331.23637 518.18535,-375.78704 538.53937,-375.5094 z"
           style="fill:#cccccc;fill-opacity:1;stroke:none;stroke-width:4;stroke-linecap:square;stroke-linejoin:miter;stroke-miterlimit:0.1;stroke-dashoffset:0;stroke-opacity:1;filter:url(#filter20574)" />
      </g>
      <path
         transform="matrix(0.3328827,0,0,0.3068358,554.62043,-338.6149)"
         d="M -1,-304.5 A 22.5,23.5 0 1 1 -46,-304.5 A 22.5,23.5 0 1 1 -1,-304.5 z"
         sodipodi:ry="23.5"
         sodipodi:rx="22.5"
         sodipodi:cy="-304.5"
         sodipodi:cx="-23.5"
         id="path3225"
         style="fill:url(#radialGradient3286);fill-opacity:1;fill-rule:evenodd;stroke:none;stroke-width:1px;stroke-linecap:butt;stroke-linejoin:miter;stroke-opacity:1"
         sodipodi:type="arc" />
      <path
         sodipodi:type="arc"
         style="fill:url(#radialGradient3288);fill-opacity:1;fill-rule:evenodd;stroke:none;stroke-width:1px;stroke-linecap:butt;stroke-linejoin:miter;stroke-opacity:1"
         id="path3257"
         sodipodi:cx="-23.5"
         sodipodi:cy="-304.5"
         sodipodi:rx="22.5"
         sodipodi:ry="23.5"
         d="M -1,-304.5 A 22.5,23.5 0 1 1 -46,-304.5 A 22.5,23.5 0 1 1 -1,-304.5 z"
         transform="matrix(0.3328827,0,0,0.3068358,588.94793,-337.24341)" />
    </g>
  </g>
</svg>
