<?xml version="1.0" encoding="UTF-8" standalone="no"?>
<!-- Created with Inkscape (http://www.inkscape.org/) -->
<svg
   xmlns:dc="http://purl.org/dc/elements/1.1/"
   xmlns:cc="http://creativecommons.org/ns#"
   xmlns:rdf="http://www.w3.org/1999/02/22-rdf-syntax-ns#"
   xmlns:svg="http://www.w3.org/2000/svg"
   xmlns="http://www.w3.org/2000/svg"
   xmlns:xlink="http://www.w3.org/1999/xlink"
   xmlns:sodipodi="http://sodipodi.sourceforge.net/DTD/sodipodi-0.dtd"
   xmlns:inkscape="http://www.inkscape.org/namespaces/inkscape"
   width="373.89001"
   height="325.37"
   id="svg2728"
   sodipodi:version="0.32"
   inkscape:version="0.46dev+devel"
   version="1.0"
   sodipodi:docname="Colour Cow A.svg"
   inkscape:output_extension="org.inkscape.output.svg.inkscape">
  <defs
     id="defs2730">
    <linearGradient
       id="linearGradient2342">
      <stop
         style="stop-color:#c98b2b;stop-opacity:0.0000000;"
         offset="0.0000000"
         id="stop2344" />
      <stop
         style="stop-color:#c98b2b;stop-opacity:1.0000000;"
         offset="1.0000000"
         id="stop2346" />
    </linearGradient>
    <linearGradient
       inkscape:collect="always"
       xlink:href="#linearGradient2342"
       id="linearGradient2492"
       gradientUnits="userSpaceOnUse"
       gradientTransform="matrix(0.6504823,0,0,0.6504823,99.753912,-71.899743)"
       x1="95.61174"
       y1="326.1926"
       x2="373.43198"
       y2="326.1926" />
  </defs>
  <sodipodi:namedview
     id="base"
     pagecolor="#ffffff"
     bordercolor="#666666"
     borderopacity="1.0"
     gridtolerance="10000"
     guidetolerance="10"
     objecttolerance="10"
     inkscape:pageopacity="0.0"
     inkscape:pageshadow="2"
     inkscape:zoom="0.35"
     inkscape:cx="33.571429"
     inkscape:cy="520"
     inkscape:document-units="px"
     inkscape:current-layer="layer1"
     showgrid="false"
     inkscape:window-width="1280"
     inkscape:window-height="998"
     inkscape:window-x="-4"
     inkscape:window-y="-4" />
  <metadata
     id="metadata2733">
    <rdf:RDF>
      <cc:Work
         rdf:about="">
        <dc:format>image/svg+xml</dc:format>
        <dc:type
           rdf:resource="http://purl.org/dc/dcmitype/StillImage" />
      </cc:Work>
    </rdf:RDF>
  </metadata>
  <g
     inkscape:label="Layer 1"
     inkscape:groupmode="layer"
     id="layer1"
     transform="translate(-112.3416,-303.24865)">
    <g
       id="g3599"
       transform="matrix(1.0304449,0,0,1.0355139,-41.144234,272.08009)">
      <path
         sodipodi:nodetypes="ccccccccc"
         id="rect21334"
         d="M 450.65146,131.12852 L 448.88482,134.94223 C 463.78952,130.91335 483.01944,154.41838 491.99942,187.63951 L 493.86842,194.55381 C 500.80592,220.21884 499.53415,243.95242 491.72573,255.2796 C 503.2415,247.14141 506.2799,219.89956 498.2097,190.04415 L 496.3407,183.12986 C 487.36072,149.90872 468.1308,126.40369 453.2261,130.43257 L 450.65146,131.12852 z"
         style="fill:#eaeaa4;fill-opacity:1;stroke:#000000;stroke-width:1.88639867;stroke-miterlimit:4;stroke-dasharray:none;stroke-opacity:1" />
      <rect
         id="rect16396"
         style="fill:#2e3436;stroke:#000000;stroke-width:0.6504823"
         y="221.06985"
         x="419.26044"
         height="80.551567"
         width="19.816954" />
      <rect
         id="rect16398"
         style="fill:#2e3436;stroke:#000000;stroke-width:0.6504823"
         y="236.41353"
         x="431.59824"
         height="80.550705"
         width="19.81782" />
      <path
         id="path16400"
         style="fill:#000000;stroke:#000000;stroke-width:0.6504823"
         d="M 429.51822,282.03498 C 416.98998,282.03498 409.49307,283.34897 406.83399,302.71756 C 405.66514,311.21832 408.01408,316.44144 411.93358,319.51951 C 412.72232,315.97494 414.76631,308.33981 416.12608,305.9088 C 417.39515,315.14214 414.83628,317.0505 416.15718,321.83476 C 420.79976,323.47185 426.40042,323.37941 431.52074,322.08529 C 444.71505,318.74719 452.20245,320.86287 452.20245,302.71756 C 452.20332,284.60854 442.04561,282.03498 429.51822,282.03498 z" />
      <path
         id="path16402"
         style="fill:#000000;stroke:#000000;stroke-width:0.6504823"
         d="M 437.66363,296.69546 C 424.69566,296.69546 416.93527,298.0561 414.18289,318.10199 C 412.97516,326.90079 415.40617,332.30706 419.4613,335.49312 C 420.27769,331.82501 422.39424,323.92034 423.80067,321.40467 C 425.11465,330.96111 422.46508,332.93771 423.8335,337.88957 C 428.63849,339.58368 434.43611,339.48865 439.73526,338.14874 C 453.39263,334.69315 461.14179,336.88486 461.14179,318.10199 C 461.14266,299.35713 450.62988,296.69546 437.66363,296.69546 z" />
      <rect
         id="rect16404"
         style="fill:#2e3436;stroke:#000000;stroke-width:0.6504823"
         y="221.06985"
         x="245.08524"
         height="80.551567"
         width="19.816954" />
      <rect
         id="rect16406"
         style="fill:#2e3436;stroke:#000000;stroke-width:0.6504823"
         y="236.41353"
         x="283.44232"
         height="80.550705"
         width="19.81782" />
      <path
         id="path16408"
         style="fill:#000000;stroke:#000000;stroke-width:0.6504823"
         d="M 252.7411,279.43305 C 240.21285,279.43305 232.71508,280.74704 230.05687,300.11563 C 228.88887,308.61639 231.23782,313.83951 235.15646,316.91758 C 235.94606,313.37301 237.98918,305.73788 239.34982,303.30687 C 240.61889,312.54021 238.06002,314.44857 239.38179,319.23283 C 244.02437,320.86992 249.62502,320.77748 254.74448,319.48336 C 267.93966,316.14526 275.42533,318.26095 275.42533,300.11563 C 275.42533,282.00661 265.26848,279.43305 252.7411,279.43305 z" />
      <path
         id="path16410"
         style="fill:#000000;stroke:#000000;stroke-width:0.6504823"
         d="M 289.50773,296.69546 C 276.54063,296.69546 268.78023,298.0561 266.02785,318.10199 C 264.81926,326.90079 267.2494,332.30706 271.30627,335.49312 C 272.12351,331.82501 274.23833,323.92034 275.64649,321.40467 C 276.96048,330.96111 274.3109,332.93771 275.67932,337.88957 C 280.48432,339.58368 286.28107,339.48865 291.58023,338.14874 C 305.23845,334.69315 312.98761,336.88486 312.98761,318.10199 C 312.98761,299.35713 302.47398,296.69546 289.50773,296.69546 z" />
      <path
         sodipodi:nodetypes="ccccc"
         id="path18365"
         d="M 232.34601,216.49851 L 275.92833,215.19755 L 268.12254,284.14867 C 258.79896,287.40108 250.77634,288.70205 240.1518,284.14867 L 232.34601,216.49851 z"
         style="fill:#dcd59a;fill-opacity:1;stroke:#000000;stroke-width:3.2524116;stroke-miterlimit:4;stroke-dasharray:none;stroke-opacity:1" />
      <path
         id="path19376"
         d="M 263.24392,230.15817 C 252.65147,230.15817 244.05469,238.17211 244.05469,248.04643 C 244.05469,257.92075 252.65147,265.93469 263.24392,265.93469 C 265.57706,265.93469 267.80176,265.54886 269.87071,264.837 L 273.48902,232.92272 C 270.52271,231.17065 267.01296,230.15817 263.24392,230.15817 z"
         style="fill:#000000;fill-opacity:1;stroke:#000000;stroke-width:1.95144689;stroke-miterlimit:4;stroke-dasharray:none;stroke-opacity:1" />
      <path
         style="fill:#c8c8c8;fill-opacity:1;stroke:#000000;stroke-width:3.2524116;stroke-miterlimit:4;stroke-dasharray:none;stroke-opacity:1"
         d="M 407.97623,219.10044 L 451.55855,217.79948 L 443.75276,286.7506 C 434.42918,290.00301 426.40656,291.30398 415.78202,286.7506 L 407.97623,219.10044 z"
         id="path18359"
         sodipodi:nodetypes="ccccc" />
      <rect
         transform="matrix(0.9890155,0.1478118,-0.1478118,0.9890155,0,0)"
         ry="7.5086098"
         rx="5.4215522"
         y="193.28798"
         x="373.61777"
         height="43.939274"
         width="11.817254"
         id="rect35930"
         style="fill:#dc634c;fill-opacity:1;stroke:#000000;stroke-width:2.13643622;stroke-miterlimit:4;stroke-dasharray:none;stroke-opacity:1" />
      <rect
         transform="matrix(0.9967311,8.0791106e-2,-8.0791106e-2,0.9967311,0,0)"
         style="fill:#dc634c;fill-opacity:1;stroke:#000000;stroke-width:2.13643622;stroke-miterlimit:4;stroke-dasharray:none;stroke-opacity:1"
         id="rect35926"
         width="11.817253"
         height="43.93927"
         x="399.00992"
         y="215.08304"
         rx="5.4215522"
         ry="7.5086102" />
      <path
         id="rect34953"
         d="M 360.55855,205.18291 C 340.61235,205.18291 324.54912,221.06103 324.54912,240.78409 C 324.54912,259.08763 338.38945,274.0653 356.32215,276.12853 L 355.02118,292.21752 C 355.02118,296.37729 357.44097,299.73142 360.44452,299.73142 L 361.43057,299.73142 C 364.43411,299.73142 366.8539,296.37728 366.8539,292.21752 L 368.15486,276.38527 L 389.04472,276.38527 C 390.63127,276.38527 392.18808,276.27205 393.71937,276.07718 L 396.3213,288.31463 C 396.3213,292.4744 398.74109,295.82854 401.74463,295.82854 L 402.73069,295.82854 C 405.73423,295.82854 408.15402,292.4744 408.15402,288.31463 L 405.55209,272.4486 C 417.14778,266.5481 425.05415,254.61321 425.05415,240.78409 C 425.05415,221.06103 408.99092,205.18291 389.04472,205.18291 L 360.55855,205.18291 z"
         style="fill:#ef856d;fill-opacity:1;stroke:#000000;stroke-width:2.82862377;stroke-miterlimit:4;stroke-dasharray:none;stroke-opacity:1"
         sodipodi:nodetypes="cscccccccccccccscc" />
      <path
         sodipodi:nodetypes="csccccccccscc"
         id="rect14316"
         d="M 280.92891,113.11201 C 247.91363,113.11201 221.32847,145.1515 221.32847,184.94965 C 221.32847,220.81883 242.91997,250.38433 271.35462,255.87254 L 276.57881,301.06074 C 287.20335,305.61411 295.22597,304.31315 304.54955,301.06074 L 309.57046,259.38921 C 345.47573,265.89404 376.82762,262.64163 415.33481,256.78728 L 423.58781,301.06074 C 434.21235,305.61411 442.23497,304.31315 451.55855,301.06074 L 459.18139,233.69516 C 468.96392,220.90672 474.93526,203.797 474.93526,184.94965 C 474.93526,145.1515 448.3501,113.11201 415.33481,113.11201 L 280.92891,113.11201 z"
         style="fill:#dcdcdc;fill-opacity:1;stroke:#000000;stroke-width:3.19262099;stroke-miterlimit:4;stroke-dasharray:none;stroke-opacity:1" />
      <path
         id="path39864"
         d="M 279.445,114.4333 C 257.04051,114.88258 237.85041,131.73524 229.4385,151.77963 C 216.54386,181.20825 221.85288,219.22937 245.92483,241.43997 C 253.30161,248.19297 262.64958,253.04323 272.53362,254.79518 C 274.48078,269.86876 275.75566,285.53838 278.06272,300.24763 C 286.06142,303.85391 295.37885,303.1172 303.35022,300.08501 C 305.05732,286.01237 306.71414,271.93332 308.45244,257.86465 C 344.13326,264.90482 380.81021,260.93297 416.39185,255.30337 C 419.16182,270.24687 421.96406,285.18445 424.74648,300.12567 C 432.77532,303.82144 442.28656,303.18896 450.35922,300.08501 C 453.01637,277.72286 455.17983,255.15943 458.14468,232.92272 C 480.89399,202.81328 478.68132,155.84489 451.27396,129.33341 C 440.44761,118.75227 425.26864,113.2815 410.13096,114.41297 C 366.56907,114.42661 323.00639,114.38576 279.445,114.4333 z"
         style="fill:#f4eebd;fill-opacity:0.87898087;stroke:#000000;stroke-width:1.95144689;stroke-miterlimit:4;stroke-dasharray:none;stroke-opacity:1" />
      <path
         sodipodi:nodetypes="cccccccccccc"
         id="path29134"
         d="M 339.02511,245.11926 C 290.36965,254.55125 239.94852,234.71154 239.94852,234.71154 C 248.22676,243.6057 258.57459,251.05503 270.05366,253.27062 L 275.27784,298.45881 C 285.90239,303.01218 293.92501,301.71122 303.24858,298.45881 L 308.91998,259.38921 C 344.82525,265.89404 376.82762,261.99114 415.33481,256.1368 L 424.23829,302.3617 C 434.86283,306.91508 452.64269,301.71122 450.25758,297.15784 L 457.88042,229.79227 C 467.66295,217.00383 473.63429,199.89411 473.63429,181.04675 C 434.08655,134.74192 426.02636,219.82772 339.02511,245.11926 z"
         style="fill:#dcd59a;fill-opacity:1;stroke:none;stroke-width:4.90808296;stroke-miterlimit:4;stroke-dasharray:none;stroke-opacity:1" />
      <path
         sodipodi:nodetypes="cscccc"
         id="path15287"
         d="M 401.47141,139.09064 C 384.5953,139.09064 370.89874,145.93892 370.89874,154.37698 C 370.89874,160.7563 378.73167,166.23522 389.84404,168.52497 C 391.84613,174.83773 397.7512,179.42055 404.72382,179.42055 C 415.0788,180.18008 432.11802,166.26409 432.04408,154.37698 C 432.04408,145.93892 418.34752,139.09064 401.47141,139.09064 z"
         style="fill:#000000;fill-opacity:1;stroke:#000000;stroke-width:1.95144689;stroke-miterlimit:4;stroke-dasharray:none;stroke-opacity:1" />
      <path
         id="path15307"
         d="M 461.33611,178.54646 C 459.0413,178.62279 449.45654,183.2001 447.08648,190.2958 C 444.71642,197.39149 444.1328,202.08846 441.82164,214.56692 C 441.59975,214.56078 441.37459,214.54659 441.15083,214.54659 C 430.73791,214.54659 422.28684,221.24916 422.28684,229.50768 C 422.28684,237.76621 430.73791,244.46878 441.15083,244.46878 C 441.15765,244.46878 441.16433,244.46878 441.17116,244.46878 C 441.34404,250.96105 446.651,256.17746 453.18475,256.17746 C 454.40804,256.17746 455.58888,255.98875 456.70142,255.64894 L 459.18139,233.71549 C 459.10834,233.67342 459.03178,233.6341 458.95778,233.59353 C 469.41502,220.04348 473.93835,201.30395 474.91493,184.94965 C 474.91493,184.84037 474.91534,184.73356 474.91493,184.6244 C 470.99396,180.58507 465.98948,178.39167 461.33611,178.54646 z"
         style="fill:#000000;fill-opacity:1;stroke:#000000;stroke-width:1.95144689;stroke-miterlimit:4;stroke-dasharray:none;stroke-opacity:1" />
      <path
         id="path19358"
         d="M 369.04893,234.73187 C 361.94337,234.73187 356.14983,238.84767 355.87667,244.00124 C 343.7643,245.41232 334.67501,251.28473 334.67501,258.29153 C 334.67501,259.77306 335.07823,261.19228 335.83368,262.53999 C 353.1564,263.58529 370.05883,262.61598 388.05521,260.52756 C 388.26237,259.79706 388.36013,259.0534 388.36013,258.29153 C 388.36012,254.43346 385.60221,250.9219 381.10318,248.31069 C 381.83238,247.11213 382.24153,245.78351 382.24153,244.38747 C 382.24155,239.05779 376.32849,234.73187 369.04893,234.73187 z"
         style="fill:#000000;fill-opacity:1;stroke:#000000;stroke-width:2.35493159;stroke-miterlimit:4;stroke-dasharray:none;stroke-opacity:1" />
      <path
         id="path19371"
         d="M 280.15646,264.81668 C 277.38156,264.81668 274.79614,265.51217 272.5946,266.68681 L 275.19653,289.02681 C 276.74831,289.51992 278.40774,289.81959 280.15646,289.81959 C 288.12962,289.81959 294.60937,284.2141 294.60937,277.31813 C 294.60937,270.42217 288.12962,264.81666 280.15646,264.81668 z"
         style="fill:#000000;fill-opacity:1;stroke:#000000;stroke-width:1.95144689;stroke-miterlimit:4;stroke-dasharray:none;stroke-opacity:1" />
      <path
         id="path19381"
         d="M 438.63732,272.78839 C 436.62158,272.78839 434.77153,273.52189 433.29861,274.73232 C 432.5128,273.87529 431.42732,273.33889 430.22286,273.33889 C 427.83009,273.33889 425.88814,275.43516 425.88814,278.01806 C 425.88814,280.52612 427.71885,282.58057 430.01569,282.69724 C 430.4147,287.32419 434.11775,290.95462 438.63732,290.95462 C 443.42286,290.95462 447.30677,286.88539 447.30677,281.87151 C 447.30677,276.85763 443.42286,272.78839 438.63732,272.78839 z"
         style="fill:#000000;fill-opacity:1;stroke:#000000;stroke-width:1.95144689;stroke-miterlimit:4;stroke-dasharray:none;stroke-opacity:1" />
      <path
         sodipodi:nodetypes="cccccccccccsc"
         id="path23285"
         d="M 500.14941,231.70525 C 494.97462,231.16451 491.70711,232.60642 487.8826,258.58027 C 486.20405,269.98107 486.42396,274.52412 487.60882,278.8397 C 488.43348,274.09988 490.37194,266.50857 491.27529,263.29321 C 490.5,275.7852 490.47256,275.63086 490.34519,282.13249 C 491.66316,284.01153 492.06901,287.10564 493.84851,286.50093 C 495.45881,274.96817 498.80796,250.89967 498.80796,250.89967 L 495.96091,282.77122 C 497.61487,281.76552 497.71168,279.9457 498.92701,279.07733 C 499.72388,267.75729 500.68002,261.16833 500.68002,261.16833 L 501.17773,284.35721 C 502.81876,281.49252 506.5232,277.42059 506.60786,260.54738 C 506.73093,236.01945 505.32348,232.24593 500.14941,231.70525 z"
         style="fill:#000000;stroke:#000000;stroke-width:0.6504823" />
      <path
         id="path15302"
         d="M 352.03476,167.71186 C 338.74931,167.71186 327.96691,178.34855 327.96691,191.45447 C 327.96691,192.13492 328.01158,192.8009 328.06855,193.4669 C 324.73757,193.55741 321.2268,194.02582 317.66083,194.8695 C 301.06339,198.79634 289.44942,209.7755 291.72285,219.38455 C 293.99629,228.99359 309.31639,233.59714 325.91383,229.6703 C 336.87709,227.07647 345.66562,221.41786 349.71741,215.09544 C 350.48006,215.16741 351.25309,215.19707 352.03476,215.19707 C 365.32021,215.19707 376.1026,204.56039 376.1026,191.45447 C 376.1026,178.34855 365.32021,167.71186 352.03476,167.71186 z"
         style="fill:#000000;fill-opacity:1;stroke:#000000;stroke-width:1.95144689;stroke-miterlimit:4;stroke-dasharray:none;stroke-opacity:1" />
      <g
         transform="matrix(0.8330372,0,0,0.8330372,25.679861,5.8313718)"
         id="g3521">
        <path
           sodipodi:nodetypes="cccsz"
           id="path11400"
           d="M 223.70633,46.120311 C 228.72941,47.681742 223.52476,53.884403 250.30896,64.727267 C 252.04802,75.322589 242.88278,83.191395 230.31713,88.447221 C 222.69325,83.935046 216.88867,74.024643 216.10223,67.444702 C 215.05221,58.659483 218.45426,44.487692 223.70633,46.120311 z"
           style="fill:#eeeeec;fill-opacity:1;stroke:#000000;stroke-width:1.95144689;stroke-miterlimit:4;stroke-dasharray:none;stroke-opacity:1" />
        <path
           style="fill:#eeeeec;fill-opacity:1;stroke:#000000;stroke-width:1.95144689;stroke-miterlimit:4;stroke-dasharray:none;stroke-opacity:1"
           d="M 222.62943,47.311657 C 218.71036,49.641112 218.32215,55.291683 217.50688,59.365907 C 215.54713,70.188657 221.65686,80.93441 230.41489,86.991077 C 238.49098,83.449877 248.3496,77.806781 249.19757,68.04578 C 250.17826,64.307458 245.17077,64.600553 243.01799,62.984215 C 235.85276,59.599489 228.48605,55.370475 224.58088,48.145087 C 224.08668,47.631928 223.37796,47.199871 222.62943,47.311657 z"
           id="path39860" />
        <path
           sodipodi:nodetypes="csssc"
           id="path13343"
           d="M 157.25559,121.33643 C 165.02779,127.5226 187.71369,121.69193 207.89375,108.32153 C 228.0738,94.951133 236.53059,74.630131 230.37175,72.892934 C 226.08234,71.683043 199.91365,72.537425 179.73359,85.907829 C 159.55353,99.278239 149.48339,115.15024 157.25559,121.33643 z"
           style="fill:#dcdcdc;fill-opacity:1;stroke:#000000;stroke-width:1.64876497;stroke-miterlimit:4;stroke-dasharray:none;stroke-opacity:1" />
        <path
           style="fill:#dcd59a;fill-opacity:1;stroke:#000000;stroke-width:1.64876497;stroke-miterlimit:4;stroke-dasharray:none;stroke-opacity:1"
           d="M 223.54417,73.839138 C 203.13484,74.659891 182.97871,82.36471 168.1922,96.524708 C 162.71794,101.99439 155.91872,108.37858 155.99565,116.73031 C 157.04791,122.42365 164.37934,122.81383 169.02563,122.40171 C 184.90988,120.57936 199.7991,112.89232 212.44532,103.3751 C 220.67009,96.451301 228.63694,87.917429 231.00439,77.213515 C 231.70836,74.940665 229.86025,73.375585 227.691,73.859466 C 226.31034,73.783626 224.92546,73.773459 223.54417,73.839138 z"
           id="path39848" />
        <path
           style="fill:#dcdcdc;fill-opacity:1;stroke:#000000;stroke-width:3.2524116;stroke-miterlimit:4;stroke-dasharray:none;stroke-opacity:1"
           d="M 272.83854,53.613204 C 251.74455,53.613204 232.69961,63.86623 219.19407,80.303306 C 198.8145,85.023147 182.06127,96.87228 173.84326,114.71789 C 168.733,125.81494 167.53553,137.91735 169.67611,149.94557 C 162.0587,157.64622 158.75298,167.33261 162.19556,173.99308 C 165.32474,180.04719 173.18401,181.94824 181.93363,179.60349 C 182.46596,180.40426 183.01831,181.19157 183.58017,181.98182 C 175.16826,192.54955 176.08242,204.98527 187.23913,212.8594 C 197.44621,220.06331 213.44032,221.4738 228.05689,217.47376 C 272.77759,237.13317 321.59106,225.11891 337.68349,190.17383 C 340.92222,183.14086 342.58127,175.70335 342.82637,168.13874 C 345.50787,159.23996 346.97319,149.67804 346.97319,139.7208 C 346.97319,92.194376 313.76643,53.613204 272.83854,53.613204 z"
           id="path4576" />
        <path
           style="fill:#fbfec6;fill-opacity:1;stroke:#000000;stroke-width:1.95144689;stroke-miterlimit:4;stroke-dasharray:none;stroke-opacity:1"
           d="M 270.92774,54.284014 C 251.00179,54.753298 232.2533,65.400626 219.92587,80.811495 C 199.25649,85.159189 179.72621,99.172288 172.94885,119.77945 C 169.64742,129.3535 169.20757,139.78821 171.05838,149.72196 C 165.2851,155.46784 159.67746,164.5515 163.33391,172.73278 C 166.98398,179.49719 176.07427,179.44126 182.50281,177.4691 C 184.29507,179.76157 186.09565,181.88003 183.17362,184.07556 C 177.89583,191.11237 177.84449,201.95018 184.47458,208.16373 C 195.79545,218.95627 213.3059,219.33357 227.73165,215.56297 C 238.80671,219.82309 250.52652,223.62842 262.54968,224.52991 C 286.40937,226.85294 312.75137,220.18502 328.61739,201.37432 C 336.98379,191.74142 341.14067,179.09889 341.77118,166.49868 C 352.28082,131.29991 341.54232,89.100936 311.23732,67.009074 C 299.60969,58.52484 285.4071,53.816929 270.92774,54.284014 z"
           id="path39852" />
        <path
           style="fill:none;fill-opacity:1;stroke:#000000;stroke-width:2.12030602;stroke-miterlimit:4;stroke-dasharray:none;stroke-opacity:1"
           d="M 229.09718,180.40037 C 229.36073,180.55961 229.62359,180.70905 229.8923,180.86419 C 243.30285,188.60678 258.01667,188.23543 262.75704,180.0249 C 266.62394,173.32723 262.66372,163.4896 253.78991,155.88434"
           id="path5548"
           sodipodi:nodetypes="csscc" />
        <path
           style="fill:#dcd59a;fill-opacity:1;stroke:none;stroke-width:5;stroke-miterlimit:4;stroke-dasharray:none;stroke-opacity:1"
           d="M 323.49484,77.030567 C 324.99615,103.53846 321.37312,148.07959 306.60263,169.37873 C 291.83214,190.67785 279.20511,199.12901 226.75593,216.1728 C 271.47663,235.83221 320.29009,223.81794 336.38253,188.87287 C 339.62126,181.83989 341.28031,174.40238 341.5254,166.83778 C 344.2069,157.93899 345.67223,148.37708 345.67223,138.41983 C 345.67223,114.3909 337.17785,92.656134 323.49484,77.030567 z"
           id="path23309"
           sodipodi:nodetypes="czcscsc" />
        <path
           transform="matrix(0.5697625,0.1361593,-0.1146039,0.2594118,29.266557,-27.080418)"
           d="M 417,161.09448 A 11.5,23 0 1 1 394,161.09448 A 11.5,23 0 1 1 417,161.09448 z"
           sodipodi:ry="23"
           sodipodi:rx="11.5"
           sodipodi:cy="161.09448"
           sodipodi:cx="405.5"
           id="path3231"
           style="fill:#000000;fill-opacity:1;stroke:#000000;stroke-width:3;stroke-miterlimit:4;stroke-dasharray:none;stroke-opacity:1"
           sodipodi:type="arc" />
        <path
           transform="matrix(0.350623,8.3790316e-2,-7.0525486e-2,0.159638,112.67648,7.9198993)"
           sodipodi:type="arc"
           style="fill:#eeeeec;fill-opacity:1;stroke:#000000;stroke-width:3;stroke-miterlimit:4;stroke-dasharray:none;stroke-opacity:1"
           id="path3233"
           sodipodi:cx="405.5"
           sodipodi:cy="161.09448"
           sodipodi:rx="11.5"
           sodipodi:ry="23"
           d="M 417,161.09448 A 11.5,23 0 1 1 394,161.09448 A 11.5,23 0 1 1 417,161.09448 z" />
        <path
           sodipodi:type="arc"
           style="fill:#000001;fill-opacity:1;stroke:#000000;stroke-width:3;stroke-miterlimit:4;stroke-dasharray:none;stroke-opacity:1"
           id="path4568"
           sodipodi:cx="336.5"
           sodipodi:cy="269.09448"
           sodipodi:rx="24.5"
           sodipodi:ry="15"
           d="M 361,269.09448 A 24.5,15 0 1 1 312,269.09448 A 24.5,15 0 1 1 361,269.09448 z"
           transform="matrix(0.5398706,0.3116944,-0.3116944,0.5398706,138.13247,-86.876246)" />
        <path
           transform="matrix(-0.4450261,0.2755574,0.256936,0.4772795,261.89439,-59.300356)"
           d="M 361,269.09448 A 24.5,15 0 1 1 312,269.09448 A 24.5,15 0 1 1 361,269.09448 z"
           sodipodi:ry="15"
           sodipodi:rx="24.5"
           sodipodi:cy="269.09448"
           sodipodi:cx="336.5"
           id="path4574"
           style="fill:#000000;fill-opacity:1;stroke:#000000;stroke-width:3;stroke-miterlimit:4;stroke-dasharray:none;stroke-opacity:1"
           sodipodi:type="arc" />
        <path
           sodipodi:type="arc"
           style="fill:#000000;fill-opacity:1;stroke:#000000;stroke-width:3;stroke-miterlimit:4;stroke-dasharray:none;stroke-opacity:1"
           id="path6524"
           sodipodi:cx="405.5"
           sodipodi:cy="161.09448"
           sodipodi:rx="11.5"
           sodipodi:ry="23"
           d="M 417,161.09448 A 11.5,23 0 1 1 394,161.09448 A 11.5,23 0 1 1 417,161.09448 z"
           transform="matrix(-0.7065001,0.1688362,0.1421078,0.3216682,534.59721,-48.73387)" />
        <path
           d="M 417,161.09448 A 11.5,23 0 1 1 394,161.09448 A 11.5,23 0 1 1 417,161.09448 z"
           sodipodi:ry="23"
           sodipodi:rx="11.5"
           sodipodi:cy="161.09448"
           sodipodi:cx="405.5"
           id="path6526"
           style="fill:#eeeeec;fill-opacity:1;stroke:#000000;stroke-width:3;stroke-miterlimit:4;stroke-dasharray:none;stroke-opacity:1"
           sodipodi:type="arc"
           transform="matrix(-0.4347693,0.1038992,8.7450971e-2,0.1979496,431.16969,-5.3338142)" />
        <path
           style="fill:none;fill-rule:evenodd;stroke:#000000;stroke-width:1.95144689;stroke-linecap:butt;stroke-linejoin:miter;stroke-miterlimit:4;stroke-dasharray:none;stroke-opacity:1"
           d="M 182.97527,178.83645 C 182.97527,178.83645 187.02411,185.72066 203.155,185.72066 C 219.28589,185.72066 230.97913,180.40356 230.97913,180.40356"
           id="path7507" />
        <path
           style="fill:none;fill-opacity:1;stroke:#000000;stroke-width:3.2524116;stroke-miterlimit:4;stroke-dasharray:none;stroke-opacity:1"
           d="M 245.39361,209.48754 C 245.05894,209.72343 244.71817,209.94656 244.37157,210.17774 C 227.07418,221.71499 201.49857,222.9194 187.23871,212.85513 C 175.60635,204.6453 175.09579,191.48319 184.69479,180.64261"
           id="path9447"
           sodipodi:nodetypes="csscc" />
        <path
           style="fill:none;fill-rule:evenodd;stroke:#000000;stroke-width:1.95144689;stroke-linecap:butt;stroke-linejoin:miter;stroke-miterlimit:4;stroke-dasharray:none;stroke-opacity:1"
           d="M 206.32672,185.92584 C 206.32672,185.92584 193.31707,185.27536 193.31707,198.93549"
           id="path9452"
           sodipodi:nodetypes="cs" />
        <path
           style="fill:#eeeeec;fill-opacity:1;stroke:#000000;stroke-width:1.95144689;stroke-miterlimit:4;stroke-dasharray:none;stroke-opacity:1"
           d="M 319.29523,36.290405 C 314.33974,39.087804 321.25745,44.475821 295.40753,62.059131 C 295.98436,73.681487 307.46996,79.933754 321.95545,82.643637 C 328.9883,76.127893 332.86659,64.306209 332.19794,57.155256 C 331.3052,47.607639 324.47662,33.365479 319.29523,36.290405 z"
           id="path10424"
           sodipodi:nodetypes="cccsz" />
        <path
           style="fill:#eeeeec;fill-opacity:1;stroke:#000000;stroke-width:1.95144689;stroke-miterlimit:4;stroke-dasharray:none;stroke-opacity:1"
           d="M 320.48636,37.229181 C 317.19744,38.523921 317.7917,43.247769 315.53109,45.629614 C 310.79052,52.680647 303.68761,57.837339 296.76409,62.699629 C 297.56603,72.163691 307.03501,77.380064 315.19321,79.68002 C 317.90447,80.055271 321.69753,82.822832 323.2727,79.346232 C 330.12979,70.781058 333.30422,58.589062 328.75307,48.261192 C 326.93428,44.276532 325.32736,38.756032 320.79128,37.208854 C 320.69468,37.230046 320.57419,37.17348 320.48636,37.229181 z"
           id="path39856" />
        <path
           style="fill:#dcdcdc;fill-opacity:1;stroke:#000000;stroke-width:1.95144689;stroke-miterlimit:4;stroke-opacity:1"
           d="M 396.16267,150.29011 C 387.45836,161.48812 359.91666,154.65918 334.68568,135.04691 C 309.4547,115.43465 297.56573,82.8694 304.74608,79.231181 C 309.74693,76.697299 340.99209,74.862119 366.22307,94.474382 C 391.45405,114.08664 404.86699,139.09209 396.16267,150.29011 z"
           id="path12371"
           sodipodi:nodetypes="csssc" />
        <path
           style="fill:#dcd59a;fill-opacity:1;stroke:#000000;stroke-width:1.95144689;stroke-miterlimit:4;stroke-opacity:1"
           d="M 314.51006,79.022669 C 311.22338,79.446003 307.15154,78.812277 304.61053,81.096081 C 302.7011,87.512809 306.12891,94.238289 308.54589,100.16269 C 320.15486,125.08707 343.03981,143.55844 368.805,152.10029 C 376.96514,154.35159 387.34883,156.58585 394.37709,150.37245 C 400.15824,143.79462 396.83933,134.27728 393.41538,127.40998 C 385.16281,112.07323 372.34899,99.546459 357.73448,90.280423 C 344.78148,82.611939 329.56785,78.747866 314.51006,79.022669 z"
           id="path38875" />
        <path
           id="path3503"
           d="M 281.87699,54.284014 C 261.95104,54.753298 232.03208,66.057711 219.70464,81.46858 C 199.03526,85.816274 179.50499,99.829373 172.72763,120.43654 C 169.4262,130.01059 168.98635,140.4453 170.83717,150.37905 C 165.06388,156.12493 159.45624,165.20858 163.11269,173.38986 C 166.76276,180.15427 175.85305,180.09834 182.28159,178.12618 C 184.07386,180.41865 185.87443,182.53712 182.9524,184.73265 C 177.67461,191.76946 177.62328,202.60726 184.25336,208.82082 C 195.57423,219.61335 213.08468,219.99066 227.51043,216.22005 C 238.58549,220.48017 250.3053,224.2855 262.32846,225.187 C 286.18815,227.51002 312.53015,220.84211 328.39617,202.03141 C 336.76256,192.3985 338.94819,179.75597 339.5787,167.15577 C 352.89588,128.25349 324.34638,135.09692 303.78815,93.949611 C 297.97434,89.707491 302.52298,75.238989 298.17303,67.803176 C 293.82308,60.367363 289.11667,54.050471 281.87699,54.284014 z"
           style="fill:url(#linearGradient2492);fill-opacity:0.31847133;stroke:none;stroke-width:3;stroke-miterlimit:4;stroke-dasharray:none;stroke-opacity:1"
           sodipodi:nodetypes="cccccccccccccsc" />
      </g>
    </g>
  </g>
</svg>
