<?xml version="1.0" encoding="utf-8"?>
<!-- Generator: Adobe Illustrator 16.0.3, SVG Export Plug-In . SVG Version: 6.00 Build 0)  -->
<!DOCTYPE svg PUBLIC "-//W3C//DTD SVG 1.1//EN" "http://www.w3.org/Graphics/SVG/1.1/DTD/svg11.dtd">
<svg version="1.1"
	 id="svg2" xmlns:dc="http://purl.org/dc/elements/1.1/" xmlns:rdf="http://www.w3.org/1999/02/22-rdf-syntax-ns#" xmlns:cc="http://creativecommons.org/ns#" xmlns:svg="http://www.w3.org/2000/svg" xmlns:inkscape="http://www.inkscape.org/namespaces/inkscape" xmlns:sodipodi="http://sodipodi.sourceforge.net/DTD/sodipodi-0.dtd" sodipodi:docname="Novo documento 1" inkscape:version="0.47 r22583"
	 xmlns="http://www.w3.org/2000/svg" xmlns:xlink="http://www.w3.org/1999/xlink" x="0px" y="0px" width="407.205px"
	 height="373.15px" viewBox="0 0 407.205 373.15" enable-background="new 0 0 407.205 373.15" xml:space="preserve">
<defs>
	
	
		<inkscape:perspective  id="perspective10" sodipodi:type="inkscape:persp3d" inkscape:persp3d-origin="372.04724 : 350.78739 : 1" inkscape:vp_y="0 : 1000 : 0" inkscape:vp_z="744.09448 : 526.18109 : 1" inkscape:vp_x="0 : 526.18109 : 1">
		</inkscape:perspective>
	
		<inkscape:perspective  id="perspective2824" sodipodi:type="inkscape:persp3d" inkscape:persp3d-origin="0.5 : 0.33333333 : 1" inkscape:vp_y="0 : 1000 : 0" inkscape:vp_z="1 : 0.5 : 1" inkscape:vp_x="0 : 0.5 : 1">
		</inkscape:perspective>
</defs>
<sodipodi:namedview  id="base" inkscape:window-maximized="1" pagecolor="#ffffff" inkscape:cy="-73.842878" inkscape:cx="338.85582" bordercolor="#666666" inkscape:zoom="0.49497475" showgrid="false" borderopacity="1.0" inkscape:window-y="-8" inkscape:window-x="-8" inkscape:window-height="838" inkscape:window-width="1600" inkscape:current-layer="layer1" inkscape:document-units="px" inkscape:pageshadow="2" inkscape:pageopacity="0.0">
	</sodipodi:namedview>
<g id="layer1" transform="translate(-192.43872,-134.29876)" inkscape:label="Camada 1" inkscape:groupmode="layer">
	<g id="g3632">
		
			<path id="path2830" sodipodi:type="arc" sodipodi:cx="385" sodipodi:cy="322.36218" sodipodi:rx="95" sodipodi:ry="82.85714" fill="#FFFF00" stroke="#FF7B00" stroke-width="5" d="
			M472.667,288.238c16.781,42.573-9.185,92.683-57.996,111.923c-48.812,19.241-101.985,0.326-118.767-42.246
			c-16.781-42.573,9.185-92.683,57.996-111.923S455.886,245.666,472.667,288.238z"/>
		<path id="path2832" sodipodi:nodetypes="cccc" fill="#FFFF00" d="M310.384,263.064l-55.62-101.938l80.043,83.969L310.384,263.064z
			"/>
		<path id="path2834" sodipodi:nodetypes="cccc" fill="#FFFF00" d="M384.499,229.154l24.151-94.855l9.208,96.762L384.499,229.154z"
			/>
		<path id="path2836" fill="#FFFF00" d="M465.357,258.077l15.714,28.571l118.572-82.5L465.357,258.077L465.357,258.077z"/>
		<path id="path2838" fill="#FFFF00" d="M487.641,333.363l-15.475,36.653l93.57,18.067L487.641,333.363z"/>
		<path id="path2840" sodipodi:nodetypes="cccc" fill="#FFFF00" d="M429.643,404.235l-43.571,12.143l52.143,91.071L429.643,404.235
			L429.643,404.235z"/>
		<path id="path2842" sodipodi:nodetypes="cccc" fill="#FFFF00" d="M302.566,387.882l26.595,19.299l-82.79,74.285L302.566,387.882
			L302.566,387.882z"/>
		<path id="path2844" sodipodi:nodetypes="cccc" fill="#FFFF00" d="M283.153,306.979v39.644l-90.715-17.857L283.153,306.979z"/>
		<path id="path2846" fill="#FFFF00" stroke="#FF7B00" stroke-width="5" d="M285,293.791l14.643-22.143l-40.356-9.644L285,293.791z"
			/>
		<path id="path2848" fill="#FFFF00" stroke="#FF7B00" stroke-width="5" d="M341.624,413.054l30.146,5.052l-24.612,35.267
			L341.624,413.054L341.624,413.054z"/>
		<path id="path2850" fill="#FFFF00" stroke="#FF7B00" stroke-width="5" d="M281.786,359.862l12.856,19.286l-47.5,14.643
			L281.786,359.862z"/>
		<path id="path2852" fill="#FFFF00" stroke="#FF7B00" stroke-width="5" d="M463.944,380.805l-22.551,20.004l31.213,11.838
			L463.944,380.805L463.944,380.805z"/>
		<path id="path2854" fill="#FFFF00" stroke="#FF7B00" stroke-width="5" d="M347.196,236.476l24.875-7.014L348.78,202.67
			L347.196,236.476z"/>
		<path id="path2856" fill="#FFFF00" stroke="#FF7B00" stroke-width="5" d="M429.643,234.862l24.644,13.929l17.856-45.357
			L429.643,234.862z"/>
		<path id="path2858" fill="#FFFF00" stroke="#FF7B00" stroke-width="5" d="M487.241,296.904l1.988,24.466l55.191-12.159
			L487.241,296.904L487.241,296.904z"/>
	</g>
</g>
</svg>
