<?xml version="1.0" encoding="UTF-8" standalone="no"?>
<!-- Created with Inkscape (http://www.inkscape.org/) -->
<svg xmlns:dc="http://purl.org/dc/elements/1.1/" xmlns:cc="http://creativecommons.org/ns#" xmlns:rdf="http://www.w3.org/1999/02/22-rdf-syntax-ns#" xmlns:svg="http://www.w3.org/2000/svg" xmlns="http://www.w3.org/2000/svg" xmlns:xlink="http://www.w3.org/1999/xlink" xmlns:sodipodi="http://sodipodi.sourceforge.net/DTD/sodipodi-0.dtd" xmlns:inkscape="http://www.inkscape.org/namespaces/inkscape" width="640" height="250" id="svg2" version="1.1" inkscape:version="0.48.0 r9654" sodipodi:docname="מסמך חדש 1">
  <defs id="defs4">
    <linearGradient id="linearGradient3793">
      <stop id="stop3811" offset="0" style="stop-color:#19ffd0;stop-opacity:0.56164384;"/>
      <stop style="stop-color:#003bd3;stop-opacity:0.1780822;" offset="1" id="stop3797"/>
    </linearGradient>
    <radialGradient inkscape:collect="always" xlink:href="#linearGradient3793-3" id="radialGradient3813-2" cx="53.452065" cy="43.662441" fx="53.452065" fy="43.662441" r="52.252064" gradientTransform="matrix(1,0,0,0.80834239,-44.437297,524.13504)" gradientUnits="userSpaceOnUse"/>
    <linearGradient id="linearGradient3793-3">
      <stop id="stop3811-2" offset="0" style="stop-color:#19ffd0;stop-opacity:0.56164384;"/>
      <stop style="stop-color:#003bd3;stop-opacity:0.1780822;" offset="1" id="stop3797-2"/>
    </linearGradient>
    <radialGradient inkscape:collect="always" xlink:href="#linearGradient3793-3" id="radialGradient3815-1" cx="153.24986" cy="43.435631" fx="153.24986" fy="43.435631" r="52.249863" gradientTransform="matrix(1,0,0,0.8079327,-44.437297,524.10937)" gradientUnits="userSpaceOnUse"/>
    <linearGradient id="linearGradient4253">
      <stop id="stop4255" offset="0" style="stop-color:#19ffd0;stop-opacity:0.56164384;"/>
      <stop style="stop-color:#003bd3;stop-opacity:0.1780822;" offset="1" id="stop4257"/>
    </linearGradient>
    <radialGradient inkscape:collect="always" xlink:href="#linearGradient3793-3" id="radialGradient3817-6" cx="552.35205" cy="43.662441" fx="552.35205" fy="43.662441" r="52.252064" gradientTransform="matrix(1,0,0,0.80834239,-44.437297,524.13504)" gradientUnits="userSpaceOnUse"/>
    <linearGradient id="linearGradient4260">
      <stop id="stop4262" offset="0" style="stop-color:#19ffd0;stop-opacity:0.56164384;"/>
      <stop style="stop-color:#003bd3;stop-opacity:0.1780822;" offset="1" id="stop4264"/>
    </linearGradient>
    <radialGradient inkscape:collect="always" xlink:href="#linearGradient3793-3" id="radialGradient3819-8" cx="452.58661" cy="43.435631" fx="452.58661" fy="43.435631" r="52.236614" gradientTransform="matrix(1,0,0,0.80813757,-44.437297,524.10047)" gradientUnits="userSpaceOnUse"/>
    <linearGradient id="linearGradient4267">
      <stop id="stop4269" offset="0" style="stop-color:#19ffd0;stop-opacity:0.56164384;"/>
      <stop style="stop-color:#003bd3;stop-opacity:0.1780822;" offset="1" id="stop4271"/>
    </linearGradient>
    <radialGradient inkscape:collect="always" xlink:href="#linearGradient3793-3" id="radialGradient3821-5" cx="253.02705" cy="43.662441" fx="253.02705" fy="43.662441" r="52.227062" gradientTransform="matrix(1,0,0,0.80872933,-44.437297,524.11815)" gradientUnits="userSpaceOnUse"/>
    <linearGradient id="linearGradient4274">
      <stop id="stop4276" offset="0" style="stop-color:#19ffd0;stop-opacity:0.56164384;"/>
      <stop style="stop-color:#003bd3;stop-opacity:0.1780822;" offset="1" id="stop4278"/>
    </linearGradient>
    <radialGradient inkscape:collect="always" xlink:href="#linearGradient3793-3" id="radialGradient3823-7" cx="352.79987" cy="43.435631" fx="352.79987" fy="43.435631" r="52.249863" gradientTransform="matrix(1,0,0,0.8079327,1.8973504,-258.23516)" gradientUnits="userSpaceOnUse"/>
    <linearGradient id="linearGradient4281">
      <stop id="stop4283" offset="0" style="stop-color:#19ffd0;stop-opacity:0.56164384;"/>
      <stop style="stop-color:#003bd3;stop-opacity:0.1780822;" offset="1" id="stop4285"/>
    </linearGradient>
    <radialGradient r="52.249863" fy="43.435631" fx="352.79987" cy="43.435631" cx="352.79987" gradientTransform="matrix(1,0,0,0.8079327,-44.437297,524.10937)" gradientUnits="userSpaceOnUse" id="radialGradient4306" xlink:href="#linearGradient3793-3" inkscape:collect="always"/>
  </defs>
  <sodipodi:namedview id="base" pagecolor="#ffffff" bordercolor="#666666" borderopacity="1.0" inkscape:pageopacity="0.0" inkscape:pageshadow="2" inkscape:zoom="1.0541016" inkscape:cx="367.4591" inkscape:cy="216.42394" inkscape:document-units="px" inkscape:current-layer="1" showgrid="false" inkscape:window-width="1280" inkscape:window-height="968" inkscape:window-x="-4" inkscape:window-y="-4" inkscape:window-maximized="1"/>
  <g inkscape:label="Layer 1" inkscape:groupmode="layer" id="layer1" transform="translate(0,-802.36218)">
    <g id="1" transform="translate(57.594512,312.47397)" style="fill:#00ffff">
      <path d="m 256.1127,559.2668 c 5.25,13.45 6.35,28.1 3.1,42.15 32.8,-8.05 67,-8.05 99.8,0 5.65,-27.45 -3.9,-55.8 -24.95,-74.3 -10.15,-11.4 -29.05,-13.5 -42.15,-4.65 -13.1,8.85 -15.5,25.3 -5.35,36.75 3.4,3.8 8,6.75 13.2,8.45 5.5,1.95 11.5,-0.95 13.45,-6.45 1.6,-4.55 -0.1,-9.6 -4.1,-12.25 1.6,2.65 0.8,6.1 -1.85,7.75 -2.5,1.5 -5.8,0.85 -7.5,-1.5 -4.4,-3.05 -4.1,-9.4 0.7,-14.1 3.15,-3.15 7.7,-4.9 11.75,-4.65 19.45,1.05 25.85,17.85 14.35,37.55 -0.55,1 -1.2,2 -1.85,3 -10.2,11.1 -30.65,12.25 -45.65,2.6 -1.5,-0.95 -2.95,-2 -4.25,-3.15 -7.4,-4.3 -13.8,-10.15 -18.7,-17.2" style="fill:url(#radialGradient4306);fill-opacity:1;fill-rule:nonzero;stroke:none" id="2" inkscape:connector-curvature="0"/>
      <path d="m 156.3627,559.5168 c 5.25,13.4 6.3,28.1 3.1,42.15 32.75,-8.1 67,-8.1 99.75,0 5.65,-27.45 -3.85,-55.85 -24.95,-74.3 -10.15,-11.45 -29,-13.55 -42.15,-4.7 -13.1,8.9 -15.5,25.3 -5.35,36.75 3.45,3.85 8,6.75 13.2,8.5 5.5,1.9 11.55,-1 13.45,-6.5 1.6,-4.5 -0.1,-9.55 -4.1,-12.25 1.65,2.65 0.8,6.15 -1.85,7.75 -2.5,1.55 -5.75,0.9 -7.5,-1.5 -4.4,-3.05 -4.1,-9.35 0.7,-14.1 3.2,-3.1 7.7,-4.9 11.8,-4.6 19.4,1.05 25.85,17.85 14.35,37.55 -0.6,1 -1.2,2 -1.9,3 -10.2,11.05 -30.65,12.25 -45.65,2.6 -1.5,-0.95 -2.9,-2.05 -4.25,-3.15 -7.4,-4.3 -13.75,-10.2 -18.65,-17.2" style="fill:url(#radialGradient3821-5);fill-opacity:1;fill-rule:nonzero;stroke:none" id="3" inkscape:connector-curvature="0"/>
      <path d="m 355.9127,559.2668 c 5.25,13.45 6.3,28.1 3.1,42.15 32.75,-8.05 67,-8.05 99.75,0 5.7,-27.45 -3.85,-55.8 -24.9,-74.3 -10.2,-11.4 -29.05,-13.5 -42.15,-4.65 -13.15,8.85 -15.55,25.3 -5.35,36.75 3.4,3.8 7.95,6.75 13.2,8.45 5.45,1.95 11.5,-0.95 13.4,-6.45 1.6,-4.55 -0.05,-9.6 -4.05,-12.25 1.6,2.65 0.75,6.1 -1.9,7.75 -2.5,1.5 -5.75,0.85 -7.45,-1.5 -4.45,-3.05 -4.15,-9.4 0.65,-14.1 3.2,-3.15 7.7,-4.9 11.8,-4.65 19.45,1.05 25.85,17.85 14.35,37.55 -0.6,1 -1.2,2 -1.9,3 -10.2,11.1 -30.6,12.25 -45.65,2.6 -1.5,-0.95 -2.9,-2 -4.2,-3.15 -7.45,-4.3 -13.8,-10.15 -18.7,-17.2" style="fill:url(#radialGradient3819-8);fill-opacity:1;fill-rule:nonzero;stroke:none" id="4" inkscape:connector-curvature="0"/>
      <path d="m 455.6627,559.5168 c 5.25,13.4 6.35,28.1 3.1,42.15 32.8,-8.1 67.05,-8.1 99.8,0 5.65,-27.45 -3.85,-55.85 -24.95,-74.3 -10.15,-11.45 -29,-13.55 -42.15,-4.7 -13.1,8.9 -15.5,25.3 -5.35,36.75 3.4,3.85 8,6.75 13.2,8.5 5.5,1.9 11.5,-1 13.45,-6.5 1.6,-4.5 -0.1,-9.55 -4.1,-12.25 1.65,2.65 0.8,6.15 -1.85,7.75 -2.5,1.55 -5.75,0.9 -7.5,-1.5 -4.4,-3.05 -4.1,-9.35 0.7,-14.1 3.15,-3.1 7.7,-4.9 11.8,-4.6 19.4,1.05 25.85,17.85 14.35,37.55 -0.6,1 -1.25,2 -1.9,3 -10.2,11.05 -30.65,12.25 -45.65,2.6 -1.5,-0.95 -2.95,-2.05 -4.25,-3.15 -7.4,-4.3 -13.8,-10.2 -18.7,-17.2" style="fill:url(#radialGradient3817-6);fill-opacity:1;fill-rule:nonzero;stroke:none" id="5" inkscape:connector-curvature="0"/>
      <path d="m 56.562704,559.2668 c 5.25,13.45 6.35,28.1 3.1,42.15 32.75,-8.05 66.999996,-8.05 99.799996,0 5.65,-27.45 -3.9,-55.8 -24.95,-74.3 -10.15,-11.4 -29.05,-13.5 -42.149996,-4.65 -13.1,8.85 -15.5,25.3 -5.35,36.75 3.4,3.8 7.95,6.75 13.199996,8.45 5.5,1.95 11.5,-0.95 13.45,-6.45 1.55,-4.55 -0.1,-9.6 -4.1,-12.25 1.6,2.65 0.8,6.1 -1.85,7.75 -2.55,1.5 -5.8,0.85 -7.5,-1.5 -4.399996,-3.05 -4.099996,-9.4 0.65,-14.1 3.2,-3.15 7.7,-4.9 11.8,-4.65 19.45,1.05 25.85,17.85 14.35,37.55 -0.55,1 -1.2,2 -1.85,3 -10.2,11.1 -30.649996,12.25 -45.699996,2.6 -1.5,-0.95 -2.9,-2 -4.2,-3.15 -7.4,-4.3 -13.8,-10.15 -18.7,-17.2" style="fill:url(#radialGradient3815-1);fill-opacity:1;fill-rule:nonzero;stroke:none" id="6" inkscape:connector-curvature="0"/>
      <path d="m -43.237297,559.5168 c 5.25,13.4 6.35,28.1 3.15,42.15 32.7500012,-8.1 67.000001,-8.1 99.750001,0 5.65,-27.45 -3.85,-55.85 -24.95,-74.3 -10.15,-11.45 -28.9999998,-13.55 -42.1499998,-4.7 -13.1000002,8.9 -15.5000002,25.3 -5.3500002,36.75 3.4000002,3.85 8.0000002,6.75 13.20000017,8.5 5.50000003,1.9 11.49999983,-1 13.44999983,-6.5 1.6,-4.5 -0.1,-9.55 -4.0999998,-12.25 1.6499998,2.65 0.7999998,6.15 -1.85,7.75 -2.5,1.55 -5.75,0.9 -7.50000003,-1.5 -4.39999997,-3.05 -4.09999997,-9.35 0.70000003,-14.1 3.15,-3.1 7.7,-4.9 11.7999998,-4.6 19.4,1.05 25.85,17.85 14.35,37.55 -0.6,1 -1.25,2 -1.9,3 -10.2,11.05 -30.6499998,12.25 -45.65,2.6 -1.5,-0.95 -2.9,-2.05 -4.25,-3.15 -7.400001,-4.3 -13.800001,-10.2 -18.700001,-17.2" style="fill:url(#radialGradient3813-2);fill-opacity:1;fill-rule:nonzero;stroke:none" id="7" inkscape:connector-curvature="0"/>
      <g style="fill:#00ffff" id="1-1" transform="translate(-42.239071,636.57222)">
        <path d="m 301.2,44.15 c 5.25,13.4 6.35,28.1 3.1,42.15 32.75,-8.05 67,-8.05 99.8,0 C 409.75,58.85 400.2,30.5 379.15,12 369,0.6 350.1,-1.5 337,7.35 c -13.1,8.85 -15.5,25.3 -5.35,36.7 3.4,3.85 7.95,6.8 13.2,8.5 5.5,1.9 11.5,-0.95 13.45,-6.45 1.55,-4.55 -0.1,-9.6 -4.1,-12.25 1.6,2.65 0.8,6.1 -1.85,7.7 -2.55,1.55 -5.8,0.9 -7.5,-1.5 -4.4,-3.05 -4.1,-9.35 0.65,-14.05 3.2,-3.15 7.7,-4.9 11.8,-4.65 19.45,1.05 25.85,17.85 14.35,37.55 -0.55,1 -1.2,2 -1.85,3 -10.2,11.1 -30.65,12.25 -45.7,2.6 -1.5,-0.95 -2.9,-2 -4.2,-3.15 -7.4,-4.3 -13.8,-10.15 -18.7,-17.2" style="fill:#ffffff;fill-opacity:1;fill-rule:evenodd;stroke:none" id="2-5" inkscape:connector-curvature="0"/>
        <path d="m 301.2,44.15 c 5.25,13.4 6.35,28.1 3.1,42.15 32.75,-8.05 67,-8.05 99.8,0 C 409.75,58.85 400.2,30.5 379.15,12 369,0.6 350.1,-1.5 337,7.35 c -13.1,8.85 -15.5,25.3 -5.35,36.7 3.4,3.85 7.95,6.8 13.2,8.5 5.5,1.9 11.5,-0.95 13.45,-6.45 1.55,-4.55 -0.1,-9.6 -4.1,-12.25 1.6,2.65 0.8,6.1 -1.85,7.7 -2.55,1.55 -5.8,0.9 -7.5,-1.5 -4.4,-3.05 -4.1,-9.35 0.65,-14.05 3.2,-3.15 7.7,-4.9 11.8,-4.65 19.45,1.05 25.85,17.85 14.35,37.55 -0.55,1 -1.2,2 -1.85,3 -10.2,11.1 -30.65,12.25 -45.7,2.6 -1.5,-0.95 -2.9,-2 -4.2,-3.15 -7.4,-4.3 -13.8,-10.15 -18.7,-17.2" style="fill:none;stroke:#000000;stroke-width:1.29999995px;stroke-linecap:round;stroke-linejoin:round;stroke-opacity:1;stroke-dasharray:none" id="3-2" inkscape:connector-curvature="0"/>
        <path d="m 201.4,44.35 c 5.25,13.45 6.35,28.15 3.1,42.15 32.8,-8.05 67.05,-8.05 99.8,0 5.65,-27.4 -3.85,-55.8 -24.95,-74.25 -10.15,-11.45 -29,-13.55 -42.15,-4.7 -13.1,8.85 -15.5,25.3 -5.35,36.75 3.4,3.8 8,6.75 13.2,8.45 5.5,1.95 11.5,-0.95 13.45,-6.45 1.6,-4.55 -0.1,-9.55 -4.1,-12.25 1.65,2.65 0.8,6.1 -1.85,7.75 -2.5,1.5 -5.75,0.85 -7.5,-1.5 -4.4,-3.05 -4.1,-9.35 0.7,-14.1 3.15,-3.1 7.7,-4.9 11.8,-4.6 19.4,1 25.85,17.85 14.35,37.55 -0.6,1 -1.25,2 -1.9,2.95 -10.2,11.1 -30.65,12.3 -45.65,2.65 -1.5,-1 -2.9,-2.05 -4.25,-3.15 -7.4,-4.3 -13.8,-10.2 -18.7,-17.25" style="fill:#ffffff;fill-opacity:1;fill-rule:evenodd;stroke:none" id="4-7" inkscape:connector-curvature="0"/>
        <path d="m 201.4,44.35 c 5.25,13.45 6.35,28.15 3.1,42.15 32.8,-8.05 67.05,-8.05 99.8,0 5.65,-27.4 -3.85,-55.8 -24.95,-74.25 -10.15,-11.45 -29,-13.55 -42.15,-4.7 -13.1,8.85 -15.5,25.3 -5.35,36.75 3.4,3.8 8,6.75 13.2,8.45 5.5,1.95 11.5,-0.95 13.45,-6.45 1.6,-4.55 -0.1,-9.55 -4.1,-12.25 1.65,2.65 0.8,6.1 -1.85,7.75 -2.5,1.5 -5.75,0.85 -7.5,-1.5 -4.4,-3.05 -4.1,-9.35 0.7,-14.1 3.15,-3.1 7.7,-4.9 11.8,-4.6 19.4,1 25.85,17.85 14.35,37.55 -0.6,1 -1.25,2 -1.9,2.95 -10.2,11.1 -30.65,12.3 -45.65,2.65 -1.5,-1 -2.9,-2.05 -4.25,-3.15 -7.4,-4.3 -13.8,-10.2 -18.7,-17.25" style="fill:none;stroke:#000000;stroke-width:1.29999995px;stroke-linecap:round;stroke-linejoin:round;stroke-opacity:1;stroke-dasharray:none" id="5-6" inkscape:connector-curvature="0"/>
        <path d="m 401,44.15 c 5.25,13.4 6.3,28.1 3.1,42.15 32.75,-8.05 67,-8.05 99.75,0 C 509.5,58.85 500,30.5 478.9,12 468.75,0.6 449.9,-1.5 436.75,7.35 c -13.1,8.85 -15.5,25.3 -5.35,36.7 3.45,3.85 8,6.8 13.2,8.5 5.5,1.9 11.55,-0.95 13.45,-6.45 1.6,-4.55 -0.1,-9.6 -4.1,-12.25 1.65,2.65 0.8,6.1 -1.85,7.7 -2.5,1.55 -5.75,0.9 -7.5,-1.5 -4.4,-3.05 -4.1,-9.35 0.7,-14.05 3.2,-3.15 7.7,-4.9 11.8,-4.65 19.4,1.05 25.85,17.85 14.35,37.55 -0.6,1 -1.2,2 -1.9,3 -10.2,11.1 -30.65,12.25 -45.65,2.6 -1.5,-0.95 -2.9,-2 -4.25,-3.15 C 412.25,57.05 405.9,51.2 401,44.15" style="fill:#ffffff;fill-opacity:1;fill-rule:evenodd;stroke:none" id="6-1" inkscape:connector-curvature="0"/>
        <path d="m 401,44.15 c 5.25,13.4 6.3,28.1 3.1,42.15 32.75,-8.05 67,-8.05 99.75,0 C 509.5,58.85 500,30.5 478.9,12 468.75,0.6 449.9,-1.5 436.75,7.35 c -13.1,8.85 -15.5,25.3 -5.35,36.7 3.45,3.85 8,6.8 13.2,8.5 5.5,1.9 11.55,-0.95 13.45,-6.45 1.6,-4.55 -0.1,-9.6 -4.1,-12.25 1.65,2.65 0.8,6.1 -1.85,7.7 -2.5,1.55 -5.75,0.9 -7.5,-1.5 -4.4,-3.05 -4.1,-9.35 0.7,-14.05 3.2,-3.15 7.7,-4.9 11.8,-4.65 19.4,1.05 25.85,17.85 14.35,37.55 -0.6,1 -1.2,2 -1.9,3 -10.2,11.1 -30.65,12.25 -45.65,2.6 -1.5,-0.95 -2.9,-2 -4.25,-3.15 C 412.25,57.05 405.9,51.2 401,44.15" style="fill:none;stroke:#000000;stroke-width:1.29999995px;stroke-linecap:round;stroke-linejoin:round;stroke-opacity:1;stroke-dasharray:none" id="7-4" inkscape:connector-curvature="0"/>
        <path d="m 500.75,44.35 c 5.25,13.45 6.35,28.15 3.1,42.15 32.8,-8.05 67,-8.05 99.8,0 C 609.3,59.1 599.75,30.7 578.7,12.25 568.55,0.8 549.65,-1.3 536.55,7.55 c -13.1,8.85 -15.5,25.3 -5.35,36.75 3.4,3.8 8,6.75 13.2,8.45 5.5,1.95 11.5,-0.95 13.45,-6.45 1.6,-4.55 -0.1,-9.55 -4.1,-12.25 1.6,2.65 0.8,6.1 -1.85,7.75 -2.5,1.5 -5.8,0.85 -7.5,-1.5 -4.4,-3.05 -4.1,-9.35 0.7,-14.1 3.15,-3.1 7.7,-4.9 11.75,-4.6 19.45,1 25.85,17.85 14.35,37.55 -0.55,1 -1.2,2 -1.85,2.95 -10.2,11.1 -30.65,12.3 -45.7,2.65 -1.45,-1 -2.9,-2.05 -4.2,-3.15 -7.4,-4.3 -13.8,-10.2 -18.7,-17.25" style="fill:#ffffff;fill-opacity:1;fill-rule:evenodd;stroke:none" id="8" inkscape:connector-curvature="0"/>
        <path d="m 500.75,44.35 c 5.25,13.45 6.35,28.15 3.1,42.15 32.8,-8.05 67,-8.05 99.8,0 C 609.3,59.1 599.75,30.7 578.7,12.25 568.55,0.8 549.65,-1.3 536.55,7.55 c -13.1,8.85 -15.5,25.3 -5.35,36.75 3.4,3.8 8,6.75 13.2,8.45 5.5,1.95 11.5,-0.95 13.45,-6.45 1.6,-4.55 -0.1,-9.55 -4.1,-12.25 1.6,2.65 0.8,6.1 -1.85,7.75 -2.5,1.5 -5.8,0.85 -7.5,-1.5 -4.4,-3.05 -4.1,-9.35 0.7,-14.1 3.15,-3.1 7.7,-4.9 11.75,-4.6 19.45,1 25.85,17.85 14.35,37.55 -0.55,1 -1.2,2 -1.85,2.95 -10.2,11.1 -30.65,12.3 -45.7,2.65 -1.45,-1 -2.9,-2.05 -4.2,-3.15 -7.4,-4.3 -13.8,-10.2 -18.7,-17.25" style="fill:none;stroke:#000000;stroke-width:1.29999995px;stroke-linecap:round;stroke-linejoin:round;stroke-opacity:1;stroke-dasharray:none" id="9" inkscape:connector-curvature="0"/>
        <path d="m 101.65,44.15 c 5.25,13.4 6.3,28.1 3.1,42.15 32.75,-8.05 67,-8.05 99.75,0 C 210.2,58.85 200.65,30.5 179.6,12 169.4,0.6 150.55,-1.5 137.45,7.35 c -13.15,8.85 -15.55,25.3 -5.35,36.7 3.4,3.85 7.95,6.8 13.2,8.5 5.45,1.9 11.5,-0.95 13.4,-6.45 1.6,-4.55 -0.05,-9.6 -4.05,-12.25 1.6,2.65 0.75,6.1 -1.9,7.7 -2.5,1.55 -5.75,0.9 -7.45,-1.5 -4.45,-3.05 -4.15,-9.35 0.65,-14.05 3.2,-3.15 7.7,-4.9 11.8,-4.65 19.45,1.05 25.85,17.85 14.35,37.55 -0.6,1 -1.2,2 -1.9,3 -10.2,11.1 -30.6,12.25 -45.65,2.6 -1.5,-0.95 -2.9,-2 -4.2,-3.15 -7.45,-4.3 -13.8,-10.15 -18.7,-17.2" style="fill:#ffffff;fill-opacity:1;fill-rule:evenodd;stroke:none" id="10" inkscape:connector-curvature="0"/>
        <path d="m 101.65,44.15 c 5.25,13.4 6.3,28.1 3.1,42.15 32.75,-8.05 67,-8.05 99.75,0 C 210.2,58.85 200.65,30.5 179.6,12 169.4,0.6 150.55,-1.5 137.45,7.35 c -13.15,8.85 -15.55,25.3 -5.35,36.7 3.4,3.85 7.95,6.8 13.2,8.5 5.45,1.9 11.5,-0.95 13.4,-6.45 1.6,-4.55 -0.05,-9.6 -4.05,-12.25 1.6,2.65 0.75,6.1 -1.9,7.7 -2.5,1.55 -5.75,0.9 -7.45,-1.5 -4.45,-3.05 -4.15,-9.35 0.65,-14.05 3.2,-3.15 7.7,-4.9 11.8,-4.65 19.45,1.05 25.85,17.85 14.35,37.55 -0.6,1 -1.2,2 -1.9,3 -10.2,11.1 -30.6,12.25 -45.65,2.6 -1.5,-0.95 -2.9,-2 -4.2,-3.15 -7.45,-4.3 -13.8,-10.15 -18.7,-17.2" style="fill:none;stroke:#000000;stroke-width:1.29999995px;stroke-linecap:round;stroke-linejoin:round;stroke-opacity:1;stroke-dasharray:none" id="11" inkscape:connector-curvature="0"/>
        <path d="M 1.85,44.35 C 7.1,57.8 8.2,72.5 4.95,86.5 c 32.8,-8.05 67,-8.05 99.8,0 C 110.4,59.1 100.85,30.7 79.8,12.25 69.65,0.8 50.75,-1.3 37.65,7.55 24.55,16.4 22.15,32.85 32.3,44.3 c 3.4,3.8 8,6.75 13.2,8.45 C 51,54.7 57,51.8 58.95,46.3 c 1.6,-4.55 -0.1,-9.55 -4.1,-12.25 1.6,2.65 0.8,6.1 -1.85,7.75 -2.5,1.5 -5.8,0.85 -7.5,-1.5 -4.4,-3.05 -4.1,-9.35 0.7,-14.1 3.15,-3.1 7.7,-4.9 11.75,-4.6 19.45,1 25.85,17.85 14.35,37.55 -0.55,1 -1.2,2 -1.85,2.95 C 60.25,73.2 39.8,74.4 24.8,64.75 23.3,63.75 21.85,62.7 20.55,61.6 13.15,57.3 6.75,51.4 1.85,44.35" style="fill:#ffffff;fill-opacity:1;fill-rule:evenodd;stroke:none" id="12" inkscape:connector-curvature="0"/>
        <path d="M 1.85,44.35 C 7.1,57.8 8.2,72.5 4.95,86.5 c 32.8,-8.05 67,-8.05 99.8,0 C 110.4,59.1 100.85,30.7 79.8,12.25 69.65,0.8 50.75,-1.3 37.65,7.55 24.55,16.4 22.15,32.85 32.3,44.3 c 3.4,3.8 8,6.75 13.2,8.45 C 51,54.7 57,51.8 58.95,46.3 c 1.6,-4.55 -0.1,-9.55 -4.1,-12.25 1.6,2.65 0.8,6.1 -1.85,7.75 -2.5,1.5 -5.8,0.85 -7.5,-1.5 -4.4,-3.05 -4.1,-9.35 0.7,-14.1 3.15,-3.1 7.7,-4.9 11.75,-4.6 19.45,1 25.85,17.85 14.35,37.55 -0.55,1 -1.2,2 -1.85,2.95 C 60.25,73.2 39.8,74.4 24.8,64.75 23.3,63.75 21.85,62.7 20.55,61.6 13.15,57.3 6.75,51.4 1.85,44.35" style="fill:none;stroke:#000000;stroke-width:1.29999995px;stroke-linecap:round;stroke-linejoin:round;stroke-opacity:1;stroke-dasharray:none" id="13" inkscape:connector-curvature="0"/>
      </g>
    </g>
  </g>
  <metadata>
    <rdf:RDF>
      <cc:Work>
        <dc:format>image/svg+xml</dc:format>
        <dc:type rdf:resource="http://purl.org/dc/dcmitype/StillImage"/>
        <cc:license rdf:resource="http://creativecommons.org/licenses/publicdomain/"/>
        <dc:publisher>
          <cc:Agent rdf:about="http://openclipart.org/">
            <dc:title>Open Clip Art Library</dc:title>
          </cc:Agent>
        </dc:publisher>
        <dc:title>Waves</dc:title>
        <dc:date>2010-12-25T08:58:29</dc:date>
        <dc:description>waves</dc:description>
        <dc:source>http://openclipart.org/detail/101929/waves-by-ronit</dc:source>
        <dc:creator>
          <cc:Agent>
            <dc:title>Ronit</dc:title>
          </cc:Agent>
        </dc:creator>
        <dc:subject>
          <rdf:Bag>
            <rdf:li>beach</rdf:li>
            <rdf:li>clip art</rdf:li>
            <rdf:li>clipart</rdf:li>
            <rdf:li>nature</rdf:li>
            <rdf:li>outline</rdf:li>
            <rdf:li>sea</rdf:li>
            <rdf:li>water</rdf:li>
          </rdf:Bag>
        </dc:subject>
      </cc:Work>
      <cc:License rdf:about="http://creativecommons.org/licenses/publicdomain/">
        <cc:permits rdf:resource="http://creativecommons.org/ns#Reproduction"/>
        <cc:permits rdf:resource="http://creativecommons.org/ns#Distribution"/>
        <cc:permits rdf:resource="http://creativecommons.org/ns#DerivativeWorks"/>
      </cc:License>
    </rdf:RDF>
  </metadata>
</svg>