<?xml version="1.0" encoding="UTF-8" standalone="no"?>
<!-- Created with Inkscape (http://www.inkscape.org/) -->
<svg xmlns:dc="http://purl.org/dc/elements/1.1/" xmlns:cc="http://creativecommons.org/ns#" xmlns:rdf="http://www.w3.org/1999/02/22-rdf-syntax-ns#" xmlns:svg="http://www.w3.org/2000/svg" xmlns="http://www.w3.org/2000/svg" xmlns:sodipodi="http://sodipodi.sourceforge.net/DTD/sodipodi-0.dtd" xmlns:inkscape="http://www.inkscape.org/namespaces/inkscape" width="4152.8218" height="4000.8098" id="svg3886" version="1.1" inkscape:version="0.47 r22583" sodipodi:docname="whale.svg">
  <defs id="defs3888">
    <inkscape:path-effect effect="skeletal" id="path-effect5195" is_visible="true" pattern="M 0,5 C 0,2.24 2.24,0 5,0 7.76,0 10,2.24 10,5 10,7.76 7.76,10 5,10 2.24,10 0,7.76 0,5 z" copytype="single_stretched" prop_scale="1" scale_y_rel="false" spacing="0" normal_offset="0" tang_offset="0" prop_units="false" vertical_pattern="false" fuse_tolerance="0"/>
    <inkscape:path-effect effect="skeletal" id="path-effect5185" is_visible="true" pattern="M 0,5 C 0,2.24 2.24,0 5,0 7.76,0 10,2.24 10,5 10,7.76 7.76,10 5,10 2.24,10 0,7.76 0,5 z" copytype="single_stretched" prop_scale="1" scale_y_rel="false" spacing="0" normal_offset="0" tang_offset="0" prop_units="false" vertical_pattern="false" fuse_tolerance="0"/>
    <inkscape:path-effect effect="skeletal" id="path-effect5181" is_visible="true" pattern="M 0,5 C 0,2.24 2.24,0 5,0 7.76,0 10,2.24 10,5 10,7.76 7.76,10 5,10 2.24,10 0,7.76 0,5 z" copytype="single_stretched" prop_scale="1" scale_y_rel="false" spacing="0" normal_offset="0" tang_offset="0" prop_units="false" vertical_pattern="false" fuse_tolerance="0"/>
    <inkscape:path-effect effect="skeletal" id="path-effect5177" is_visible="true" pattern="M 0,5 C 0,2.24 2.24,0 5,0 7.76,0 10,2.24 10,5 10,7.76 7.76,10 5,10 2.24,10 0,7.76 0,5 z" copytype="single_stretched" prop_scale="1" scale_y_rel="false" spacing="0" normal_offset="0" tang_offset="0" prop_units="false" vertical_pattern="false" fuse_tolerance="0"/>
    <inkscape:path-effect effect="skeletal" id="path-effect5173" is_visible="true" pattern="M 0,5 C 0,2.24 2.24,0 5,0 7.76,0 10,2.24 10,5 10,7.76 7.76,10 5,10 2.24,10 0,7.76 0,5 z" copytype="single_stretched" prop_scale="1" scale_y_rel="false" spacing="0" normal_offset="0" tang_offset="0" prop_units="false" vertical_pattern="false" fuse_tolerance="0"/>
    <inkscape:path-effect effect="skeletal" id="path-effect5169" is_visible="true" pattern="m -973.26203,-4057.4883 c 0,-2.76 2.24,-5 5,-5 2.76,0 5,2.24 5,5 0,2.76 -2.24,5 -5,5 -2.76,0 -5,-2.24 -5,-5 z" copytype="single_stretched" prop_scale="1" scale_y_rel="false" spacing="0" normal_offset="0" tang_offset="0" prop_units="false" vertical_pattern="false" fuse_tolerance="0"/>
    <inkscape:path-effect effect="skeletal" id="path-effect5165" is_visible="true" pattern="m -933.262,-4303.2026 c 0,-2.76 2.24,-5 5,-5 2.76,0 5,2.24 5,5 0,2.76 -2.24,5 -5,5 -2.76,0 -5,-2.24 -5,-5 z" copytype="single_stretched" prop_scale="1" scale_y_rel="false" spacing="0" normal_offset="0" tang_offset="0" prop_units="false" vertical_pattern="false" fuse_tolerance="0"/>
    <inkscape:path-effect effect="skeletal" id="path-effect5161" is_visible="true" pattern="m -1121.8335,-4280.3454 c 0,-2.76 2.24,-5 5,-5 2.76,0 5,2.24 5,5 0,2.76 -2.24,5 -5,5 -2.76,0 -5,-2.24 -5,-5 z" copytype="single_stretched" prop_scale="1" scale_y_rel="false" spacing="0" normal_offset="0" tang_offset="0" prop_units="false" vertical_pattern="false" fuse_tolerance="0"/>
    <linearGradient id="linearGradient3653">
      <stop style="stop-color:#a0cbff;stop-opacity:1;" offset="0" id="stop3655"/>
      <stop id="stop3663" offset="0.25" style="stop-color:#84a5cc;stop-opacity:0.74901961;"/>
      <stop id="stop3661" offset="0.5" style="stop-color:#697f99;stop-opacity:0.49803922;"/>
      <stop style="stop-color:#333333;stop-opacity:0;" offset="1" id="stop3657"/>
    </linearGradient>
    <inkscape:path-effect effect="skeletal" id="path-effect4745" is_visible="true" pattern="m 1449.9148,-5230.3178 c 0,-2.76 2.24,-5 5,-5 2.76,0 5,2.24 5,5 0,2.76 -2.24,5 -5,5 -2.76,0 -5,-2.24 -5,-5 z" copytype="single_stretched" prop_scale="1" scale_y_rel="false" spacing="0" normal_offset="0" tang_offset="0" prop_units="false" vertical_pattern="false" fuse_tolerance="0"/>
    <inkscape:path-effect effect="skeletal" id="path-effect4741" is_visible="true" pattern="M 0,5 C 0,2.24 2.24,0 5,0 7.76,0 10,2.24 10,5 10,7.76 7.76,10 5,10 2.24,10 0,7.76 0,5 z" copytype="single_stretched" prop_scale="1" scale_y_rel="false" spacing="0" normal_offset="0" tang_offset="0" prop_units="false" vertical_pattern="false" fuse_tolerance="0"/>
    <inkscape:path-effect effect="skeletal" id="path-effect4737" is_visible="true" pattern="m 3140.7912,-991.33051 c 0,-2.76 2.24,-5 5,-5 2.76,0 5,2.24 5,5 0,2.76 -2.24,5 -5,5 -2.76,0 -5,-2.24 -5,-5 z" copytype="single_stretched" prop_scale="1" scale_y_rel="false" spacing="0" normal_offset="0" tang_offset="0" prop_units="false" vertical_pattern="false" fuse_tolerance="0"/>
    <inkscape:path-effect effect="skeletal" id="path-effect4717" is_visible="true" pattern="M 0,5 C 0,2.24 2.24,0 5,0 7.76,0 10,2.24 10,5 10,7.76 7.76,10 5,10 2.24,10 0,7.76 0,5 z" copytype="single_stretched" prop_scale="1" scale_y_rel="false" spacing="0" normal_offset="0" tang_offset="0" prop_units="false" vertical_pattern="false" fuse_tolerance="0"/>
    <inkscape:path-effect effect="skeletal" id="path-effect4709" is_visible="true" pattern="M 0,5 C 0,2.24 2.24,0 5,0 7.76,0 10,2.24 10,5 10,7.76 7.76,10 5,10 2.24,10 0,7.76 0,5 z" copytype="single_stretched" prop_scale="1" scale_y_rel="false" spacing="0" normal_offset="0" tang_offset="0" prop_units="false" vertical_pattern="false" fuse_tolerance="0"/>
    <inkscape:path-effect effect="skeletal" id="path-effect4705" is_visible="true" pattern="m 267.44412,-2574.0524 c 0,-2.76 2.24,-5 5,-5 2.76,0 5,2.24 5,5 0,2.76 -2.24,5 -5,5 -2.76,0 -5,-2.24 -5,-5 z" copytype="single_stretched" prop_scale="1" scale_y_rel="false" spacing="0" normal_offset="0" tang_offset="0" prop_units="false" vertical_pattern="false" fuse_tolerance="0"/>
    <inkscape:path-effect effect="skeletal" id="path-effect4701" is_visible="true" pattern="M 0,5 C 0,2.24 2.24,0 5,0 7.76,0 10,2.24 10,5 10,7.76 7.76,10 5,10 2.24,10 0,7.76 0,5 z" copytype="single_stretched" prop_scale="1" scale_y_rel="false" spacing="0" normal_offset="0" tang_offset="0" prop_units="false" vertical_pattern="false" fuse_tolerance="0"/>
    <inkscape:path-effect effect="skeletal" id="path-effect4683" is_visible="true" pattern="M 0,5 C 0,2.24 2.24,0 5,0 7.76,0 10,2.24 10,5 10,7.76 7.76,10 5,10 2.24,10 0,7.76 0,5 z" copytype="single_stretched" prop_scale="1" scale_y_rel="false" spacing="0" normal_offset="0" tang_offset="0" prop_units="false" vertical_pattern="false" fuse_tolerance="0"/>
    <inkscape:path-effect fuse_tolerance="0" vertical_pattern="false" prop_units="false" tang_offset="0" normal_offset="0" spacing="0" scale_y_rel="false" prop_scale="1" copytype="single_stretched" pattern="m -5993.4627,-4122.2662 c 0,-2.76 2.2398,-5 5,-5 2.7599,0 5,2.24 5,5 0,2.76 -2.2401,5 -5,5 -2.7602,0 -5,-2.24 -5,-5 z" is_visible="true" id="path-effect4647" effect="skeletal"/>
    <inkscape:path-effect fuse_tolerance="0" vertical_pattern="false" prop_units="false" tang_offset="0" normal_offset="0" spacing="0" scale_y_rel="false" prop_scale="1" copytype="single_stretched" pattern="m -5281.3052,-4154.5911 c 0,-2.76 2.2398,-5 5,-5 2.7599,0 5,2.24 5,5 0,2.76 -2.2401,5 -5,5 -2.7602,0 -5,-2.24 -5,-5 z" is_visible="true" id="path-effect4644" effect="skeletal"/>
    <inkscape:path-effect fuse_tolerance="0" vertical_pattern="false" prop_units="false" tang_offset="0" normal_offset="0" spacing="0" scale_y_rel="false" prop_scale="1" copytype="single_stretched" pattern="m -4569.1477,-4186.916 c 0,-2.76 2.2398,-5 5,-5 2.7599,0 5,2.24 5,5 0,2.76 -2.2401,5 -5,5 -2.7602,0 -5,-2.24 -5,-5 z" is_visible="true" id="path-effect4641" effect="skeletal"/>
    <inkscape:path-effect fuse_tolerance="0" vertical_pattern="false" prop_units="false" tang_offset="0" normal_offset="0" spacing="0" scale_y_rel="false" prop_scale="1" copytype="single_stretched" pattern="m -3856.9902,-4219.2409 c 0,-2.76 2.2399,-5 5,-5 2.7599,0 5,2.24 5,5 0,2.76 -2.2401,5 -5,5 -2.7601,0 -5,-2.24 -5,-5 z" is_visible="true" id="path-effect4638" effect="skeletal"/>
    <inkscape:path-effect fuse_tolerance="0" vertical_pattern="false" prop_units="false" tang_offset="0" normal_offset="0" spacing="0" scale_y_rel="false" prop_scale="1" copytype="single_stretched" pattern="m -3144.8326,-4251.5658 c 0,-2.76 2.2399,-5 5,-5 2.7599,0 5,2.24 5,5 0,2.76 -2.2401,5 -5,5 -2.7601,0 -5,-2.24 -5,-5 z" is_visible="true" id="path-effect4635" effect="skeletal"/>
    <inkscape:path-effect fuse_tolerance="0" vertical_pattern="false" prop_units="false" tang_offset="0" normal_offset="0" spacing="0" scale_y_rel="false" prop_scale="1" copytype="single_stretched" pattern="m -2432.675,-4283.8907 c 0,-2.76 2.2399,-5 5,-5 2.7599,0 5,2.24 5,5 0,2.76 -2.2401,5 -5,5 -2.7601,0 -5,-2.24 -5,-5 z" is_visible="true" id="path-effect4632" effect="skeletal"/>
    <inkscape:path-effect fuse_tolerance="0" vertical_pattern="false" prop_units="false" tang_offset="0" normal_offset="0" spacing="0" scale_y_rel="false" prop_scale="1" copytype="single_stretched" pattern="m -1720.5175,-4316.2156 c 0,-2.76 2.24,-5 5,-5 2.7599,0 5,2.24 5,5 0,2.76 -2.2401,5 -5,5 -2.76,0 -5,-2.24 -5,-5 z" is_visible="true" id="path-effect4629" effect="skeletal"/>
    <inkscape:path-effect effect="skeletal" id="path-effect4598" is_visible="true" pattern="m -6705.6202,-4089.9413 c 0,-2.76 2.2398,-5 5,-5 2.7599,0 5,2.24 5,5 0,2.76 -2.2401,5 -5,5 -2.7602,0 -5,-2.24 -5,-5 z" copytype="single_stretched" prop_scale="1" scale_y_rel="false" spacing="0" normal_offset="0" tang_offset="0" prop_units="false" vertical_pattern="false" fuse_tolerance="0"/>
    <inkscape:path-effect effect="skeletal" id="path-effect4594" is_visible="true" pattern="M 0,5 C 0,2.24 2.24,0 5,0 7.76,0 10,2.24 10,5 10,7.76 7.76,10 5,10 2.24,10 0,7.76 0,5 z" copytype="single_stretched" prop_scale="1" scale_y_rel="false" spacing="0" normal_offset="0" tang_offset="0" prop_units="false" vertical_pattern="false" fuse_tolerance="0"/>
    <inkscape:path-effect effect="skeletal" id="path-effect4590" is_visible="true" pattern="M 0,5 C 0,2.24 2.24,0 5,0 7.76,0 10,2.24 10,5 10,7.76 7.76,10 5,10 2.24,10 0,7.76 0,5 z" copytype="single_stretched" prop_scale="1" scale_y_rel="false" spacing="0" normal_offset="0" tang_offset="0" prop_units="false" vertical_pattern="false" fuse_tolerance="0"/>
    <inkscape:path-effect effect="skeletal" id="path-effect4586" is_visible="true" pattern="M 0,5 C 0,2.24 2.24,0 5,0 7.76,0 10,2.24 10,5 10,7.76 7.76,10 5,10 2.24,10 0,7.76 0,5 z" copytype="single_stretched" prop_scale="1" scale_y_rel="false" spacing="0" normal_offset="0" tang_offset="0" prop_units="false" vertical_pattern="false" fuse_tolerance="0"/>
    <inkscape:path-effect effect="skeletal" id="path-effect4582" is_visible="true" pattern="M 0,5 C 0,2.24 2.24,0 5,0 7.76,0 10,2.24 10,5 10,7.76 7.76,10 5,10 2.24,10 0,7.76 0,5 z" copytype="single_stretched" prop_scale="1" scale_y_rel="false" spacing="0" normal_offset="0" tang_offset="0" prop_units="false" vertical_pattern="false" fuse_tolerance="0"/>
    <inkscape:path-effect effect="skeletal" id="path-effect4578" is_visible="true" pattern="M 0,5 C 0,2.24 2.24,0 5,0 7.76,0 10,2.24 10,5 10,7.76 7.76,10 5,10 2.24,10 0,7.76 0,5 z" copytype="single_stretched" prop_scale="1" scale_y_rel="false" spacing="0" normal_offset="0" tang_offset="0" prop_units="false" vertical_pattern="false" fuse_tolerance="0"/>
    <inkscape:path-effect effect="skeletal" id="path-effect4574" is_visible="true" pattern="M 0,5 C 0,2.24 2.24,0 5,0 7.76,0 10,2.24 10,5 10,7.76 7.76,10 5,10 2.24,10 0,7.76 0,5 z" copytype="single_stretched" prop_scale="1" scale_y_rel="false" spacing="0" normal_offset="0" tang_offset="0" prop_units="false" vertical_pattern="false" fuse_tolerance="0"/>
    <inkscape:path-effect effect="skeletal" id="path-effect4570" is_visible="true" pattern="M 0,5 C 0,2.24 2.24,0 5,0 7.76,0 10,2.24 10,5 10,7.76 7.76,10 5,10 2.24,10 0,7.76 0,5 z" copytype="single_stretched" prop_scale="1" scale_y_rel="false" spacing="0" normal_offset="0" tang_offset="0" prop_units="false" vertical_pattern="false" fuse_tolerance="0"/>
    <inkscape:path-effect effect="skeletal" id="path-effect4566" is_visible="true" pattern="M 0,5 C 0,2.24 2.24,0 5,0 7.76,0 10,2.24 10,5 10,7.76 7.76,10 5,10 2.24,10 0,7.76 0,5 z" copytype="single_stretched" prop_scale="1" scale_y_rel="false" spacing="0" normal_offset="0" tang_offset="0" prop_units="false" vertical_pattern="false" fuse_tolerance="0"/>
    <inkscape:path-effect effect="skeletal" id="path-effect4562" is_visible="true" pattern="M 0,5 C 0,2.24 2.24,0 5,0 7.76,0 10,2.24 10,5 10,7.76 7.76,10 5,10 2.24,10 0,7.76 0,5 z" copytype="single_stretched" prop_scale="1" scale_y_rel="false" spacing="0" normal_offset="0" tang_offset="0" prop_units="false" vertical_pattern="false" fuse_tolerance="0"/>
    <inkscape:path-effect effect="skeletal" id="path-effect4016" is_visible="true" pattern="M 0,5 C 0,2.24 2.24,0 5,0 7.76,0 10,2.24 10,5 10,7.76 7.76,10 5,10 2.24,10 0,7.76 0,5 z" copytype="single_stretched" prop_scale="1" scale_y_rel="false" spacing="0" normal_offset="0" tang_offset="0" prop_units="false" vertical_pattern="false" fuse_tolerance="0"/>
    <inkscape:path-effect effect="skeletal" id="path-effect4003" is_visible="true" pattern="M 0,5 C 0,2.24 2.24,0 5,0 7.76,0 10,2.24 10,5 10,7.76 7.76,10 5,10 2.24,10 0,7.76 0,5 z" copytype="single_stretched" prop_scale="1" scale_y_rel="false" spacing="0" normal_offset="0" tang_offset="0" prop_units="false" vertical_pattern="false" fuse_tolerance="0"/>
    <inkscape:path-effect effect="skeletal" id="path-effect3992" is_visible="true" pattern="M 0,5 C 0,2.24 2.24,0 5,0 7.76,0 10,2.24 10,5 10,7.76 7.76,10 5,10 2.24,10 0,7.76 0,5 z" copytype="single_stretched" prop_scale="1" scale_y_rel="false" spacing="0" normal_offset="0" tang_offset="0" prop_units="false" vertical_pattern="false" fuse_tolerance="0"/>
    <inkscape:path-effect effect="skeletal" id="path-effect3988" is_visible="true" pattern="M 0,5 C 0,2.24 2.24,0 5,0 7.76,0 10,2.24 10,5 10,7.76 7.76,10 5,10 2.24,10 0,7.76 0,5 z" copytype="single_stretched" prop_scale="1" scale_y_rel="false" spacing="0" normal_offset="0" tang_offset="0" prop_units="false" vertical_pattern="false" fuse_tolerance="0"/>
    <inkscape:path-effect effect="skeletal" id="path-effect3984" is_visible="true" pattern="M 0,5 C 0,2.24 2.24,0 5,0 7.76,0 10,2.24 10,5 10,7.76 7.76,10 5,10 2.24,10 0,7.76 0,5 z" copytype="single_stretched" prop_scale="1" scale_y_rel="false" spacing="0" normal_offset="0" tang_offset="0" prop_units="false" vertical_pattern="false" fuse_tolerance="0"/>
    <inkscape:path-effect effect="skeletal" id="path-effect3980" is_visible="true" pattern="M 0,5 C 0,2.24 2.24,0 5,0 7.76,0 10,2.24 10,5 10,7.76 7.76,10 5,10 2.24,10 0,7.76 0,5 z" copytype="single_stretched" prop_scale="1" scale_y_rel="false" spacing="0" normal_offset="0" tang_offset="0" prop_units="false" vertical_pattern="false" fuse_tolerance="0"/>
    <inkscape:path-effect effect="skeletal" id="path-effect3976" is_visible="true" pattern="M 0,5 C 0,2.24 2.24,0 5,0 7.76,0 10,2.24 10,5 10,7.76 7.76,10 5,10 2.24,10 0,7.76 0,5 z" copytype="single_stretched" prop_scale="1" scale_y_rel="false" spacing="0" normal_offset="0" tang_offset="0" prop_units="false" vertical_pattern="false" fuse_tolerance="0"/>
    <inkscape:path-effect effect="skeletal" id="path-effect3972" is_visible="true" pattern="M 0,5 C 0,2.24 2.24,0 5,0 7.76,0 10,2.24 10,5 10,7.76 7.76,10 5,10 2.24,10 0,7.76 0,5 z" copytype="single_stretched" prop_scale="1" scale_y_rel="false" spacing="0" normal_offset="0" tang_offset="0" prop_units="false" vertical_pattern="false" fuse_tolerance="0"/>
    <inkscape:path-effect effect="skeletal" id="path-effect3942" is_visible="true" pattern="M 0,5 C 0,2.24 2.24,0 5,0 7.76,0 10,2.24 10,5 10,7.76 7.76,10 5,10 2.24,10 0,7.76 0,5 z" copytype="single_stretched" prop_scale="1" scale_y_rel="false" spacing="0" normal_offset="0" tang_offset="0" prop_units="false" vertical_pattern="false" fuse_tolerance="0"/>
    <inkscape:path-effect effect="skeletal" id="path-effect3938" is_visible="true" pattern="M 0,5 C 0,2.24 2.24,0 5,0 7.76,0 10,2.24 10,5 10,7.76 7.76,10 5,10 2.24,10 0,7.76 0,5 z" copytype="single_stretched" prop_scale="1" scale_y_rel="false" spacing="0" normal_offset="0" tang_offset="0" prop_units="false" vertical_pattern="false" fuse_tolerance="0"/>
    <inkscape:path-effect effect="skeletal" id="path-effect3934" is_visible="true" pattern="M 0,5 C 0,2.24 2.24,0 5,0 7.76,0 10,2.24 10,5 10,7.76 7.76,10 5,10 2.24,10 0,7.76 0,5 z" copytype="single_stretched" prop_scale="1" scale_y_rel="false" spacing="0" normal_offset="0" tang_offset="0" prop_units="false" vertical_pattern="false" fuse_tolerance="0"/>
    <inkscape:path-effect effect="skeletal" id="path-effect3930" is_visible="true" pattern="M 0,5 C 0,2.24 2.24,0 5,0 7.76,0 10,2.24 10,5 10,7.76 7.76,10 5,10 2.24,10 0,7.76 0,5 z" copytype="single_stretched" prop_scale="1" scale_y_rel="false" spacing="0" normal_offset="0" tang_offset="0" prop_units="false" vertical_pattern="false" fuse_tolerance="0"/>
    <inkscape:path-effect effect="skeletal" id="path-effect3926" is_visible="true" pattern="M 0,5 C 0,2.24 2.24,0 5,0 7.76,0 10,2.24 10,5 10,7.76 7.76,10 5,10 2.24,10 0,7.76 0,5 z" copytype="single_stretched" prop_scale="1" scale_y_rel="false" spacing="0" normal_offset="0" tang_offset="0" prop_units="false" vertical_pattern="false" fuse_tolerance="0"/>
    <inkscape:path-effect effect="skeletal" id="path-effect3922" is_visible="true" pattern="M 0,5 C 0,2.24 2.24,0 5,0 7.76,0 10,2.24 10,5 10,7.76 7.76,10 5,10 2.24,10 0,7.76 0,5 z" copytype="single_stretched" prop_scale="1" scale_y_rel="false" spacing="0" normal_offset="0" tang_offset="0" prop_units="false" vertical_pattern="false" fuse_tolerance="0"/>
    <inkscape:path-effect effect="skeletal" id="path-effect3918" is_visible="true" pattern="M 0,5 C 0,2.24 2.24,0 5,0 7.76,0 10,2.24 10,5 10,7.76 7.76,10 5,10 2.24,10 0,7.76 0,5 z" copytype="single_stretched" prop_scale="1" scale_y_rel="false" spacing="0" normal_offset="0" tang_offset="0" prop_units="false" vertical_pattern="false" fuse_tolerance="0"/>
    <inkscape:path-effect effect="skeletal" id="path-effect3914" is_visible="true" pattern="M 0,0 0,10 10,5 z" copytype="single_stretched" prop_scale="1" scale_y_rel="false" spacing="0" normal_offset="0" tang_offset="0" prop_units="false" vertical_pattern="false" fuse_tolerance="0"/>
    <inkscape:path-effect effect="skeletal" id="path-effect3910" is_visible="true" pattern="M 0,0 0,10 10,5 z" copytype="single_stretched" prop_scale="1" scale_y_rel="false" spacing="0" normal_offset="0" tang_offset="0" prop_units="false" vertical_pattern="false" fuse_tolerance="0"/>
    <inkscape:path-effect effect="skeletal" id="path-effect3906" is_visible="true" pattern="M 0,0 0,10 10,5 z" copytype="single_stretched" prop_scale="1" scale_y_rel="false" spacing="0" normal_offset="0" tang_offset="0" prop_units="false" vertical_pattern="false" fuse_tolerance="0"/>
    <inkscape:path-effect effect="skeletal" id="path-effect3902" is_visible="true" pattern="M 0,5 10,10 10,0 z" copytype="single_stretched" prop_scale="1" scale_y_rel="false" spacing="0" normal_offset="0" tang_offset="0" prop_units="false" vertical_pattern="false" fuse_tolerance="0"/>
    <inkscape:path-effect effect="skeletal" id="path-effect3898" is_visible="true" pattern="M 0,5 C 0,2.24 2.24,0 5,0 7.76,0 10,2.24 10,5 10,7.76 7.76,10 5,10 2.24,10 0,7.76 0,5 z" copytype="single_stretched" prop_scale="1" scale_y_rel="false" spacing="0" normal_offset="0" tang_offset="0" prop_units="false" vertical_pattern="false" fuse_tolerance="0"/>
    <inkscape:perspective sodipodi:type="inkscape:persp3d" inkscape:vp_x="0 : 526.18109 : 1" inkscape:vp_y="0 : 1000 : 0" inkscape:vp_z="744.09448 : 526.18109 : 1" inkscape:persp3d-origin="372.04724 : 350.78739 : 1" id="perspective3894"/>
  </defs>
  <sodipodi:namedview id="base" pagecolor="#ffffff" bordercolor="#666666" borderopacity="1.0" inkscape:pageopacity="0.0" inkscape:pageshadow="2" inkscape:zoom="0.087499999" inkscape:cx="682.40583" inkscape:cy="1109.2942" inkscape:document-units="px" inkscape:current-layer="layer1" showgrid="false" inkscape:window-width="1152" inkscape:window-height="804" inkscape:window-x="-4" inkscape:window-y="-4" inkscape:window-maximized="1"/>
  <g inkscape:label="Layer 1" inkscape:groupmode="layer" id="layer1" transform="translate(769.74469,3817.0988)">
    <g id="g9816" transform="translate(-11.428572,2.8571429)">
      <path sodipodi:nodetypes="csssssc" id="path4020" d="M -336.98958,-888.88577 C -497.97023,-1952.3828 370.66935,-2321.3517 1365.0134,-1563.3826 c 263.429,200.8068 532.6213,348.1043 877.9794,413.2154 240.216,45.2884 532.827,183.94663 830.7943,109.9996 127.8312,-31.7241 -809.667,-1192.1463 -859.9662,-1071.4643 -141.3085,339.039 158.1841,1015.5198 -188.3958,1289.7289 -732.0293,579.171 -2245.97311,570.937 -2362.41468,-66.98277 z" style="fill:#98c9ff;fill-opacity:1;stroke:none"/>
      <path transform="matrix(1.5867829,0,0,1.4713808,-374.95274,-7871.0221)" d="m 356.58384,4397.4438 c 0,15.3421 -11.53265,27.7792 -25.75889,27.7792 -14.22624,0 -25.75889,-12.4371 -25.75889,-27.7792 0,-15.342 11.53265,-27.7791 25.75889,-27.7791 14.22624,0 25.75889,12.4371 25.75889,27.7791 z" sodipodi:ry="27.779196" sodipodi:rx="25.758888" sodipodi:cy="4397.4438" sodipodi:cx="330.82495" id="path4538" style="color:#000000;fill:#000000;fill-opacity:1;fill-rule:nonzero;stroke:none;stroke-width:10;marker:none;visibility:visible;display:inline;overflow:visible;enable-background:accumulate" sodipodi:type="arc"/>
      <path sodipodi:nodetypes="cc" inkscape:original-d="m -339.52905,-968.98278 c 30.49213,183.88102 198.44837,27.20013 187.34161,-61.19642" inkscape:path-effect="#path-effect4705" id="path4703" d="m -339.52905,-968.98278 c 0.3745,-0.0621 0.95622,1.23649 1.76733,3.73492 0.81111,2.49842 1.84861,6.20155 3.25171,10.89847 1.4031,4.69693 3.16688,10.39277 5.611,16.7487 2.44412,6.35594 5.56509,13.37489 9.92863,20.52806 3.22023,5.28898 7.10923,10.61774 12.00878,15.27963 0,0 0,0 10e-6,10e-6 3.78699,3.60619 8.18475,6.83883 13.14097,9.17445 4.31018,2.04465 9.09696,3.43633 14.09415,4.02045 4.83638,0.57314 9.92125,0.37946 15.04105,-0.45784 5.14974,-0.82983 10.30273,-2.32609 15.40678,-4.36047 5.10405,-2.03437 10.1591,-4.60636 15.10592,-7.54145 0.43527,-0.25826 0.86874,-0.51873 1.30037,-0.78125 11.67552,-7.14155 21.90074,-15.92243 30.84561,-25.08502 10.42898,-10.69973 19.02678,-21.95318 25.90451,-32.84123 4.06268,-6.44219 7.53477,-12.74575 10.40539,-18.76579 2.87062,-6.02004 5.14151,-11.75658 6.90579,-17.0703 1.72162,-5.21476 2.97181,-10.01916 3.83316,-14.25766 0.86134,-4.2385 1.34073,-7.9137 1.63495,-10.9264 0.29422,-3.0126 0.41093,-5.365 0.55089,-6.9757 0.13996,-1.6107 0.30999,-2.481 0.60461,-2.518 0.29462,-0.037 0.70234,0.7627 1.12709,2.3645 0.42475,1.6018 0.86018,4.0082 1.09367,7.1625 0.23349,3.1542 0.25748,7.059 -0.15107,11.5964 -0.40855,4.5374 -1.25676,9.70964 -2.66673,15.30086 -1.42815,5.70221 -3.42186,11.87952 -6.08251,18.35577 -2.66065,6.47625 -5.99006,13.25092 -9.98267,20.13113 -6.74695,11.64537 -15.44103,23.69729 -26.20896,35.1204 -9.21536,9.79094 -20.01906,19.2082 -32.58636,26.93294 -0.46315,0.28618 -0.92916,0.57005 -1.39802,0.85142 -5.32852,3.19781 -10.89056,5.99004 -16.60473,8.20049 -5.71417,2.21046 -11.58026,3.83865 -17.51603,4.75685 -5.94604,0.90762 -11.95413,1.01319 -17.76903,0.22138 -6.02981,-0.82897 -11.75797,-2.65689 -16.90892,-5.2752 -5.89951,-3.01467 -10.93931,-6.96616 -15.12778,-11.29387 0,-10e-6 0,-10e-6 -10e-6,-10e-6 -5.39123,-5.57529 -9.43873,-11.65345 -12.5983,-17.55915 -4.23931,-7.94231 -7.05013,-15.54274 -9.06608,-22.34385 -2.01595,-6.80111 -3.23464,-12.80723 -4.03053,-17.74451 -0.7959,-4.93727 -1.16432,-8.81117 -1.27608,-11.45575 -0.11176,-2.64458 0.0369,-4.06378 0.41144,-4.12588 z" style="fill:#333333;fill-opacity:1;fill-rule:evenodd;stroke:#333333;stroke-width:3.22329307;stroke-opacity:1"/>
      <path sodipodi:nodetypes="cc" inkscape:original-d="M 172.74771,-1318.6835 C 18.854197,-1360.57 98.473362,-1523.972 219.49131,-1453.2696" inkscape:path-effect="#path-effect4737" id="path4735" d="m 172.74771,-1318.6835 c -0.0987,0.3626 -1.40543,0.3967 -3.79671,0.07 -2.39129,-0.3269 -5.86946,-1.0149 -10.26436,-2.2091 -4.39491,-1.1943 -9.70986,-2.8945 -15.6836,-5.3623 -5.97374,-2.4679 -12.60874,-5.704 -19.50776,-10.0867 -5.10915,-3.243 -10.35146,-7.1578 -15.37387,-11.8892 -5.02241,-4.7314 -9.824417,-10.2802 -13.932248,-16.7693 -2.955062,-4.6835 -5.49056,-9.8492 -7.408648,-15.3976 -1.918089,-5.5484 -3.218297,-11.4793 -3.691066,-17.6473 -0.693815,-9.2962 0.530606,-18.9912 3.797346,-28.2169 0.473723,-1.3379 0.987263,-2.6575 1.539241,-3.9566 4.443074,-10.4376 11.276942,-19.4172 19.318265,-26.3209 9.29148,-7.9652 20.03498,-13.1102 30.56815,-15.8065 7.05498,-1.7971 13.96727,-2.5343 20.48404,-2.556 6.51678,-0.022 12.63842,0.6712 18.21449,1.7726 0,0 0,0 0,0 7.24659,1.4336 13.57512,3.4949 18.96624,5.6642 5.39112,2.1693 9.84735,4.4477 13.38014,6.4797 3.53279,2.0321 6.14479,3.8197 7.83915,5.1466 1.69437,1.3268 2.47327,2.1939 2.2948,2.4994 -0.17847,0.3055 -1.30558,0.035 -3.30083,-0.695 -1.99526,-0.7303 -4.86141,-1.9214 -8.55714,-3.3548 -3.69573,-1.4333 -8.22353,-3.1107 -13.54116,-4.6883 -5.31764,-1.5775 -11.42684,-3.0565 -18.25241,-3.9407 0,0 0,0 -10e-6,0 -5.23854,-0.6797 -10.90638,-1.0049 -16.83825,-0.7142 -5.93188,0.2906 -12.12789,1.1976 -18.33016,3.022 -9.25577,2.7093 -18.60271,7.4665 -26.53118,14.5094 -6.87427,6.0961 -12.72782,13.9241 -16.510781,22.8852 -0.470925,1.1131 -0.910051,2.2443 -1.316213,3.3915 -2.800846,7.9109 -3.909818,16.238 -3.403298,24.1961 0.646768,10.553 4.164713,20.5244 9.119802,28.9367 3.44103,5.8637 7.59717,11.0062 12.01233,15.5111 4.41516,4.505 9.08885,8.3726 13.67936,11.6976 6.22,4.5005 12.29827,8.0186 17.80956,10.8802 5.5113,2.8615 10.45747,5.0661 14.54392,6.8304 4.08644,1.7643 7.31627,3.0878 9.48687,4.0856 2.17061,0.9979 3.28467,1.6707 3.18599,2.0333 z" style="fill:#000000;fill-rule:evenodd;stroke:none"/>
      <path sodipodi:nodetypes="cc" inkscape:original-d="m 167.59054,-1461.4422 c 105.84408,17.4816 50.86875,171.3321 -40.281,109.0547" inkscape:path-effect="#path-effect4745" id="path4743" d="m 167.59054,-1461.4422 c 0.0572,-0.3462 0.93963,-0.5571 2.58198,-0.5839 1.64235,-0.027 4.04716,0.1308 7.11185,0.6282 3.06468,0.4975 6.79285,1.335 10.99662,2.7734 4.20378,1.4384 8.88617,3.4786 13.7231,6.4825 0,0 0,0 0,0 3.75282,2.3421 7.54515,5.2881 11.10221,8.9099 3.55706,3.6218 6.87838,7.9204 9.61614,12.8976 2.15334,3.94 3.92414,8.253 5.21201,12.8437 1.28788,4.5907 2.09257,9.4588 2.3303,14.4659 0.42481,8.8591 -0.86603,18.1445 -4.00409,27.0597 -0.078,0.2216 -0.15702,0.4427 -0.23706,0.6632 -3.25449,9.0025 -8.25322,17.1226 -14.43275,23.6912 -3.3456,3.5576 -7.05217,6.6319 -10.95758,9.1619 -3.9054,2.53 -8.00927,4.5157 -12.16684,5.943 -5.30173,1.7948 -10.57955,2.641 -15.5698,2.8142 -4.99025,0.1733 -9.6933,-0.3254 -13.95401,-1.2351 -1e-5,0 -1e-5,0 -1e-5,0 -5.64311,-1.2165 -10.4839,-3.0389 -14.55436,-4.9584 -4.07046,-1.9194 -7.37301,-3.9381 -9.95729,-5.7321 -2.58428,-1.794 -4.45259,-3.3665 -5.63631,-4.537 -1.18372,-1.1706 -1.68452,-1.9413 -1.48511,-2.2332 0.19941,-0.2919 1.08968,-0.092 2.61319,0.5029 1.52351,0.5944 3.68291,1.5848 6.45489,2.7848 2.77198,1.1999 6.15865,2.6127 10.1348,3.9239 3.97616,1.3111 8.54307,2.5231 13.6481,3.1507 1e-5,0 1e-5,0 1e-5,0 3.81777,0.4764 7.94733,0.6106 12.22687,0.2033 4.27953,-0.4073 8.7092,-1.3565 13.02931,-3.0636 3.41382,-1.3282 6.78015,-3.1243 9.99118,-5.3624 3.21104,-2.238 6.26664,-4.9178 9.03896,-7.9726 5.14885,-5.6756 9.34693,-12.7027 12.175,-20.488 0.0691,-0.1909 0.13727,-0.3823 0.20465,-0.5742 2.71111,-7.7184 3.91685,-15.729 3.69379,-23.3593 -0.12779,-4.2959 -0.70638,-8.4848 -1.67856,-12.4457 -0.97219,-3.9609 -2.33797,-7.6937 -4.02909,-11.117 -2.11591,-4.319 -4.77268,-8.1609 -7.66909,-11.4966 -2.89641,-3.3358 -6.03241,-6.1657 -9.17343,-8.5222 0,0 0,0 0,0 -4.05995,-3.0601 -8.12603,-5.3497 -11.83932,-7.1584 -3.71329,-1.8086 -7.07626,-3.136 -9.86002,-4.1864 -2.78376,-1.0505 -4.9918,-1.824 -6.47949,-2.443 -1.48769,-0.619 -2.25793,-1.0847 -2.20075,-1.4309 z" style="fill:#000000;fill-rule:evenodd;stroke:#000000"/>
      <path inkscape:transform-center-x="14.18826" inkscape:transform-center-y="9.2212913" transform="matrix(0.44160706,0.17840008,-0.77428043,0.42965635,2483.7371,-3043.1893)" d="m 1876.1027,2594.2856 c 0,4.765 -41.7475,8.6278 -93.2455,8.6278 -51.4981,0 -93.2455,-3.8628 -93.2455,-8.6278 0,-4.7649 41.7474,-8.6277 93.2455,-8.6277 51.498,0 93.2455,3.8628 93.2455,8.6277 z" sodipodi:ry="8.6277847" sodipodi:rx="93.245476" sodipodi:cy="2594.2856" sodipodi:cx="1782.8572" id="path5129" style="color:#000000;fill:#b6c7e2;fill-opacity:1;fill-rule:nonzero;stroke:none;stroke-width:32;marker:none;visibility:visible;display:inline;overflow:visible;enable-background:accumulate" sodipodi:type="arc"/>
      <g id="g9807">
        <path style="fill:#98c9ff;fill-opacity:1;stroke:#98c9ff;stroke-width:7.74151325;stroke-opacity:1" d="m 801.34551,-1905.5326 c -0.66086,-0.01 -1.03622,-20.1396 -1.19104,-56.6899 -0.0774,-18.2751 -0.10169,-40.6545 -0.177,-66.6716 -0.0753,-26.0171 -0.19795,-55.6719 -0.61633,-88.4959 -0.39114,-30.6636 -1.02213,-64.0978 -2.27401,-99.8926 -1.25187,-35.7947 -3.12474,-73.9498 -6.18281,-114.0332 -1.67908,-21.9973 -2.90911,-44.6631 -3.39217,-67.8989 -0.48307,-23.2359 -0.21875,-47.0418 1.14008,-71.3051 1.94378,-34.7945 6.09948,-70.6523 14.85226,-106.4484 6.36943,-26.0908 15.26596,-52.2944 28.69833,-76.7833 5.00975,-9.1439 10.70952,-18.0458 17.1907,-26.4252 6.64164,-8.5867 14.04356,-16.543 22.25793,-23.6009 7.03078,-6.0276 14.64745,-11.3483 22.74399,-15.7685 7.68671,-4.1942 15.78735,-7.5545 24.12524,-10.0008 16.47414,-4.8181 33.6864,-5.988 50.302,-4.1437 17.51657,1.9479 34.31992,7.0584 49.83382,14.1688 16.8155,7.7006 32.2016,17.6956 45.9972,29.072 14.8006,12.1992 27.8235,26.0073 38.9459,40.7867 11.7105,15.5552 21.3255,32.2227 28.6163,49.4418 7.612,17.9714 12.6561,36.5718 14.9004,55.0582 2.3901,19.7018 1.5247,39.2268 -2.2999,57.5313 -4.3729,20.8787 -12.5539,40.0021 -22.9294,56.6292 -6.6256,10.6088 -14.0937,20.2027 -21.9998,28.8804 -7.9061,8.6776 -16.2506,16.4391 -24.7109,23.3865 0,0 0,0 0,0 -12.5134,10.2767 -25.2427,18.8365 -37.6465,26.1392 -12.4038,7.3027 -24.4841,13.3476 -35.874,18.4845 -15.81935,7.1367 -30.33343,12.5563 -43.1015,16.8409 -12.76807,4.2845 -23.79403,7.4305 -32.78079,9.7922 -8.98675,2.3616 -15.93777,3.936 -20.64346,4.9001 -4.70569,0.9641 -7.16806,1.3166 -7.2229,1.0914 -0.0548,-0.2252 2.29959,-1.0213 6.88641,-2.4167 4.58682,-1.3953 11.40827,-3.3889 20.23983,-6.1494 8.83157,-2.7606 19.67682,-6.2851 32.21905,-10.9142 12.54223,-4.6292 26.78532,-10.3593 42.26376,-17.753 11.1419,-5.3238 22.9343,-11.5152 34.9965,-18.9012 12.0621,-7.386 24.3959,-15.9658 36.4448,-26.1726 0,0 10e-5,0 10e-5,0 8.1396,-6.8959 16.1441,-14.5477 23.692,-23.0415 7.5479,-8.4937 14.6393,-17.8294 20.8715,-28.0889 9.763,-16.0581 17.4005,-34.4283 21.3654,-54.3283 3.4861,-17.4505 4.1417,-36.0732 1.7241,-54.8471 -2.2687,-17.6302 -7.2337,-35.4004 -14.6384,-52.6013 -7.099,-16.4849 -16.438,-32.4506 -27.7768,-47.3594 -10.7756,-14.1631 -23.351,-27.3768 -37.5931,-39.0164 -13.2804,-10.8482 -27.9984,-20.3471 -43.9795,-27.5937 -14.73948,-6.6778 -30.56026,-11.4668 -46.87225,-13.2198 -15.43538,-1.6622 -31.35502,-0.5715 -46.42508,3.8843 -7.64335,2.2521 -15.08465,5.3504 -22.14982,9.213 -7.44573,4.0683 -14.48674,9.0002 -21.02071,14.6019 -7.65482,6.547 -14.58491,14.0119 -20.84661,22.129 -6.11041,7.921 -11.53023,16.3894 -16.34892,25.1248 -12.91659,23.4436 -21.53388,48.8334 -27.84186,74.332 -8.64123,34.9871 -12.81107,70.2505 -14.87564,104.6417 -1.43604,23.9773 -1.79979,47.5426 -1.43611,70.5794 0.36368,23.0368 1.45437,45.5452 2.97672,67.4212 2.80467,40.2612 4.3765,78.5485 5.28608,114.4404 0.90957,35.8919 1.15702,69.3886 1.12981,100.0926 -0.0288,32.8698 -0.39187,62.5469 -0.83489,88.5746 -0.44302,26.0276 -0.96968,48.406 -1.46993,66.6768 -1.00048,36.5415 -1.88722,56.6544 -2.54808,56.6466 z" id="path5159" inkscape:path-effect="#path-effect5161" inkscape:original-d="m 801.34551,-1905.5326 c 1.61817,-136.7757 4.20723,-286.1958 -6.00209,-426.1071 -60.77096,-832.8222 736.67528,-124.2257 102.56373,30.1523" sodipodi:nodetypes="csc"/>
        <path style="fill:#98c9ff;fill-opacity:1;stroke:#98c9ff;stroke-width:10;stroke-opacity:1" d="m 804.20036,-1926.518 c -0.52688,-0.028 -0.0989,-16.5061 0.8771,-47.0316 0.488,-15.2627 1.10456,-34.038 1.74493,-56.026 0.64038,-21.9881 1.30489,-47.189 1.84795,-75.2992 0.54307,-28.1102 0.96489,-59.1298 1.07521,-92.749 0.11032,-33.6192 -0.0909,-69.8381 -0.83972,-108.3387 -1.49763,-77.0011 -5.15196,-163.1377 -13.33399,-255.762 -3.23099,-36.5792 -7.19778,-74.159 -12.22226,-112.502 -5.02447,-38.3429 -11.10752,-77.4488 -18.61288,-117.0618 -8.3805,-44.2234 -18.49549,-89.0944 -31.37028,-133.9024 -4.22973,-14.7207 -8.71448,-29.2802 -13.47369,-43.658 -7.60284,-22.9612 -15.8918,-45.4668 -25.06279,-67.2888 -9.17099,-21.822 -19.2243,-42.9602 -30.31587,-63.2185 -8.89505,-16.2379 -18.44781,-31.9228 -28.79279,-46.7553 -10.34499,-14.8325 -21.4823,-28.8125 -33.51793,-41.685 -9.77475,-10.4487 -20.1492,-20.1695 -31.09189,-28.8518 -10.94268,-8.6823 -22.4536,-16.3261 -34.49757,-22.6668 -20.76606,-10.9407 -43.12426,-17.9076 -65.44585,-19.9558 -21.34125,-1.9769 -42.61711,0.4917 -62.28935,6.4295 -20.56048,6.1996 -39.4197,16.1107 -56.01037,28.0973 -18.04402,13.0398 -33.4438,28.5428 -46.21672,45.0961 -14.02696,18.1839 -24.88884,37.6585 -32.79321,57.2557 -8.76408,21.7351 -13.87883,43.6317 -15.80512,64.5042 -1.1129,12.0575 -1.16058,23.7868 -0.32049,34.9916 0.8401,11.2048 2.56766,21.8858 4.99295,31.9217 3.16358,13.1039 7.51893,25.0926 12.47434,35.8796 4.95541,10.7871 10.51188,20.3753 16.19664,28.8041 7.2847,10.8057 14.74517,19.717 21.59937,27.0907 6.8542,7.3737 13.10923,13.212 18.28282,17.7986 5.17358,4.5866 9.27132,7.9238 12.0141,10.1855 2.74278,2.2617 4.13343,3.4501 4.03123,3.5928 -0.1022,0.1427 -1.695,-0.7638 -4.65341,-2.7596 -2.95842,-1.9958 -7.28533,-5.083 -12.71467,-9.4528 -5.42934,-4.3698 -11.96675,-10.0244 -19.13973,-17.2736 -7.17298,-7.2493 -14.98866,-16.0957 -22.67119,-26.9331 -5.99337,-8.4581 -11.87229,-18.1306 -17.15033,-29.0721 -5.27803,-10.9415 -9.95616,-23.155 -13.42322,-36.5715 -2.65237,-10.2729 -4.59244,-21.2257 -5.61819,-32.7355 -1.02575,-11.5099 -1.13686,-23.5774 -0.14185,-36.0038 1.72192,-21.5024 6.72389,-44.0964 15.52444,-66.5588 7.932,-20.2515 18.9324,-40.4171 33.24847,-59.3025 13.03202,-17.1965 28.84156,-33.3551 47.48699,-47.0421 17.14908,-12.5916 36.75997,-23.0503 58.30559,-29.706 20.64209,-6.3705 43.01511,-9.0889 65.58874,-7.1237 23.60557,2.0745 47.14765,9.2613 68.94446,20.6563 12.6154,6.5998 24.64149,14.5119 36.03302,23.4705 11.39153,8.9586 22.1485,18.9637 32.23008,29.7034 12.41077,13.2139 23.87764,27.5188 34.49891,42.6542 10.62127,15.1354 20.39704,31.1012 29.45516,47.5934 11.30409,20.5709 21.53901,42.0011 30.85628,64.0889 9.31728,22.0877 17.71717,44.8327 25.39217,68.0023 4.80773,14.5092 9.33453,29.1954 13.59951,44.0376 12.98209,45.1778 23.13755,90.3573 31.49596,134.8262 7.48899,39.8356 13.52331,79.1394 18.46886,117.655 4.94554,38.5157 8.80323,76.243 11.89781,112.9462 7.83424,92.926 10.99723,179.2868 11.88817,256.4408 0.44547,38.577 0.31457,74.8549 -0.15307,108.5184 -0.46765,33.6635 -1.27197,64.7128 -2.21922,92.841 -0.94725,28.1282 -2.0376,53.3356 -3.12214,75.3215 -1.08455,21.986 -2.1636,40.7508 -3.12928,55.9973 -1.93136,30.493 -3.37531,46.9159 -3.90219,46.8874 z" id="path5163" inkscape:path-effect="#path-effect5165" inkscape:original-d="M 804.20036,-1926.518 C 914.04616,-3959.8047 -40.37581,-3145.387 347.32423,-2867.6233" sodipodi:nodetypes="cc"/>
        <path style="fill:#98c9ff;fill-opacity:1;stroke:#98c9ff;stroke-width:10;stroke-opacity:1" d="m 804.60647,-1931.3215 c -0.43682,0.045 -2.34693,-13.9275 -5.2291,-40.2492 -2.88216,-26.3217 -6.72978,-64.9981 -10.49829,-114.3804 -3.7685,-49.3823 -7.45414,-109.4757 -9.53857,-178.568 -2.08443,-69.0924 -2.5603,-147.1869 0.48588,-232.4426 2.98929,-83.6909 9.40481,-174.3351 21.41614,-269.6497 12.01133,-95.3146 29.63927,-195.2919 55.09865,-297.2894 8.36287,-33.5091 17.7351,-67.2294 28.63363,-100.8284 6.80913,-20.9918 14.13417,-41.6815 22.06032,-61.9998 15.93317,-40.8613 34.34736,-80.3479 56.98749,-116.6157 17.34495,-27.8117 37.34678,-53.8745 61.28048,-75.4019 9.8535,-8.8554 20.4062,-16.8961 31.6605,-23.7349 10.1335,-6.1576 20.8473,-11.3101 31.9909,-15.1492 10.3927,-3.5781 21.1382,-5.9814 31.9752,-7.0868 10.5572,-1.0737 21.1597,-0.9098 31.5463,0.3971 10.544,1.3287 20.8377,3.8135 30.7131,7.2148 10.3273,3.5572 20.1956,8.0911 29.5469,13.321 20.5363,11.495 38.6161,26.1816 54.5514,42.1946 18.0825,18.1594 33.5349,38.074 46.8959,58.5965 14.8194,22.7558 27.1039,46.3206 37.2451,69.9904 10.9217,25.4864 19.3635,51.1371 25.4919,76.4358 6.423,26.5062 10.2965,52.6644 11.5673,77.9375 1.3103,25.9883 -0.1735,51.0816 -4.5879,74.4818 -2.2831,12.1127 -5.3717,23.7831 -9.2292,34.8312 -3.8574,11.0481 -8.4835,21.4743 -13.8101,31.1606 -5.9262,10.7707 -12.7447,20.5692 -20.1344,29.2949 -7.3896,8.7258 -15.3507,16.3797 -23.609,22.9507 -9.8965,7.8698 -20.1471,14.1964 -30.2457,19.269 -12.4789,6.2674 -24.6997,10.6439 -36.1037,13.8114 -14.2489,3.9543 -27.1914,6.0669 -38.4553,7.3113 -11.2639,1.2444 -20.8566,1.612 -28.5957,1.6812 -7.7392,0.069 -13.6308,-0.1664 -17.5807,-0.4084 -3.9499,-0.2419 -5.9616,-0.4933 -5.9557,-0.6594 0.01,-0.1661 2.0294,-0.2434 5.9755,-0.3263 3.9461,-0.083 9.8189,-0.1687 17.5039,-0.551 7.6851,-0.3823 17.1888,-1.0548 28.2999,-2.583 11.1111,-1.5283 23.8373,-3.9038 37.7659,-8.0772 11.1453,-3.3367 23.0447,-7.8388 35.1195,-14.1532 9.7707,-5.1089 19.655,-11.4168 29.148,-19.1874 7.9182,-6.4777 15.5343,-13.9986 22.5875,-22.5444 7.0531,-8.5457 13.5437,-18.1172 19.1662,-28.6061 5.0644,-9.4418 9.4432,-19.609 13.0794,-30.3891 3.6361,-10.7802 6.5294,-22.1737 8.6547,-34.0065 4.1045,-22.8719 5.332,-47.4258 3.8578,-72.9133 -1.437,-24.7862 -5.433,-50.4496 -11.9187,-76.4814 -6.192,-24.8442 -14.6503,-50.0205 -25.5301,-75.0235 -10.1059,-23.22 -22.2859,-46.2966 -36.9165,-68.5254 -13.1977,-20.0458 -28.3625,-39.4274 -46.0095,-56.9921 -15.5601,-15.4779 -33.0353,-29.5942 -52.7019,-40.4833 -8.9444,-4.9567 -18.3275,-9.2351 -28.0864,-12.5564 -9.3277,-3.1748 -19.0044,-5.4837 -28.8586,-6.691 -9.7024,-1.1907 -19.5944,-1.3169 -29.4144,-0.2892 -10.081,1.0518 -20.1086,3.3258 -29.825,6.6945 -10.4255,3.6121 -20.5065,8.498 -30.0992,14.3476 -10.6596,6.5 -20.7131,14.2038 -30.1701,22.7253 -23.0226,20.7273 -42.38378,46.1136 -59.40408,73.4007 -22.18262,35.5978 -40.28136,74.5413 -56.06492,115.0163 -7.84381,20.1231 -15.09951,40.6311 -21.85312,61.4565 -10.80968,33.3325 -20.13027,66.8303 -28.47722,100.1604 -25.42654,101.5463 -43.15658,201.1071 -55.38914,296.0674 -12.23255,94.9603 -18.98793,185.3117 -22.4111,268.7765 -3.48622,85.0267 -3.53849,162.9576 -2.05178,231.9447 1.4867,68.987 4.50517,129.0331 7.55417,178.4108 3.049,49.3777 6.12483,88.0922 8.19734,114.476 2.07251,26.3838 3.13504,40.4424 2.69822,40.4871 z" id="path5167" inkscape:path-effect="#path-effect5169" inkscape:original-d="m 804.60647,-1931.3215 c -37.8116,-369.5191 -35.9486,-761.3023 56.5685,-1131.3709 249.45303,-997.812 849.28733,197.3737 299.00523,177.7869" sodipodi:nodetypes="ccc"/>
        <path style="fill:#98c9ff;fill-opacity:1;fill-rule:evenodd;stroke:#98c9ff;stroke-opacity:1" d="m 1977.1429,1497.1429 c 0.8323,0.3254 0.34,3.7705 -0.9509,9.5476 -0.6455,2.8885 -1.483,6.3617 -2.385,10.3301 -0.9021,3.9684 -1.8686,8.4317 -2.7205,13.3089 -0.5377,3.1318 -1.0583,6.4051 -1.4013,9.7614 -0.3431,3.3562 -0.5079,6.7949 -0.2754,10.2578 0.1399,1.9972 0.3611,3.8948 0.8745,5.5766 0.3921,1.1498 0.7153,2.085 1.1676,2.5534 0.2822,0.2256 0.3634,0.4024 0.171,0.2291 -0.1561,0.01 -0.2031,-0.016 -0.1811,-0.037 0.016,-0.015 0.067,-0.029 0.1372,-0.032 0.3583,-0.071 0.8611,-0.53 1.5243,-1.1192 0.8436,-0.8161 1.5873,-1.9145 2.3132,-3.1422 2.1281,-3.6179 3.264,-7.8759 4.0546,-12.1115 1.1516,-6.2315 1.2398,-12.2 0.9095,-17.5949 -0.3303,-5.395 -1.0767,-10.2153 -1.7741,-14.2351 -0.6974,-4.0199 -1.3481,-7.2427 -1.6637,-9.5097 -0.3157,-2.2669 -0.2982,-3.5845 0.2001,-3.783 0.4983,-0.1985 1.4433,0.7366 2.6937,2.7156 1.2505,1.9789 2.8089,5.0075 4.3508,9.0215 1.5419,4.014 3.0681,9.0199 4.0398,14.8833 0.9717,5.8633 1.3839,12.5883 0.5123,19.8881 -0.5852,4.9653 -1.8918,10.3478 -4.6852,15.5471 -0.9601,1.7929 -2.2077,3.6136 -3.8436,5.3165 -1.2001,1.3038 -2.8561,2.5374 -5.009,3.4424 -0.7612,0.3206 -1.5862,0.5379 -2.46,0.6393 -1.2212,0.1418 -2.5302,0.056 -3.8825,-0.2818 -2.3984,-0.8079 -4.1729,-2.1513 -5.2822,-3.7162 -1.5094,-2.0557 -2.3751,-4.1322 -2.829,-6.0018 -0.7263,-2.7438 -1.0011,-5.3804 -1.0543,-7.8259 -0.1002,-4.191 0.258,-8.1618 0.8444,-11.8816 0.5864,-3.7197 1.4002,-7.1889 2.2684,-10.3962 1.35,-5.0512 2.8776,-9.5671 4.3911,-13.4945 1.5134,-3.9274 3.0127,-7.267 4.3604,-9.9623 2.6953,-5.3907 4.7526,-8.2189 5.5849,-7.8935 z" id="path5171" inkscape:path-effect="#path-effect5173" inkscape:original-d="m 1977.1429,1497.1429 c -39.7652,101.7203 29.7585,74.6931 0,0 z" transform="translate(-927.54775,-4376.774)"/>
        <path style="fill:#98c9ff;fill-opacity:1;fill-rule:evenodd;stroke:#98c9ff;stroke-width:8;stroke-opacity:1" d="m 479.09019,-2595.6546 c 0.31529,0.3137 -1.11316,2.3515 -4.04363,5.9164 -2.93047,3.565 -7.36405,8.6571 -12.99864,15.1316 -5.63458,6.4744 -12.47141,14.3307 -20.12867,23.4795 -7.65725,9.1487 -16.13483,19.59 -24.96163,31.293 -5.80847,7.709 -11.80697,15.9301 -17.63573,24.7284 -5.82876,8.7982 -11.48632,18.1741 -16.50479,28.2412 -2.95328,5.931 -5.66828,12.0248 -7.62972,18.36 -1.29233,4.2719 -2.34578,8.4644 -2.3528,12.4876 -7.7e-4,1.3865 0.076,2.6622 0.35956,3.7574 0.23515,0.8525 0.48378,1.5707 0.83095,2.0169 0.25956,0.362 0.57522,0.6747 0.88321,0.8287 0.0869,0.058 0.19015,0.1087 0.30724,0.1537 0.3085,0.1185 0.7119,0.196 1.16125,0.2543 0.77471,0.095 1.71436,-0.024 2.7602,-0.2251 0,0 10e-6,0 10e-6,0 1.28896,-0.2634 2.62464,-0.7491 4.00266,-1.3449 3.72513,-1.611 7.22964,-4.0412 10.66043,-6.7278 4.68383,-3.6986 8.95312,-7.9071 12.97024,-12.302 5.23925,-5.7399 9.95604,-11.7879 14.29872,-17.9039 6.36782,-8.9663 11.89112,-18.0366 16.7652,-26.9171 4.87409,-8.8805 9.09948,-17.5707 12.83232,-25.8303 0,0 0,0 0,0 5.0205,-11.1146 9.12095,-21.4619 12.53011,-30.6839 3.40917,-9.2221 6.12809,-17.3193 8.32446,-23.9848 2.19636,-6.6654 3.87107,-11.9001 5.11652,-15.4384 1.24545,-3.5383 2.06321,-5.381 2.45253,-5.2905 0.38932,0.09 0.32902,2.1096 -0.19584,5.8401 -0.52485,3.7305 -1.51569,9.1732 -3.08295,16.0787 -1.56725,6.9055 -3.71193,15.2749 -6.62256,24.8134 -2.91064,9.5386 -6.58854,20.2469 -11.2835,31.7718 0,0 0,10e-5 0,10e-5 -3.48528,8.5605 -7.53098,17.5892 -12.31226,26.8527 -4.78128,9.2635 -10.29897,18.7613 -16.76205,28.1995 -4.4127,6.4427 -9.2941,12.8682 -14.80513,19.0405 -4.20948,4.7209 -8.83114,9.3325 -14.04248,13.5163 -3.75708,3.0393 -7.97013,5.9246 -12.80882,8.0975 -1.81719,0.816 -3.80044,1.5159 -5.94928,1.9871 -1e-5,0 -2e-5,0 -2e-5,0 -1.74328,0.3947 -3.68192,0.5753 -5.7613,0.4085 -1.2946,-0.1016 -2.62633,-0.4063 -3.94674,-0.9373 -0.50115,-0.2015 -1.00011,-0.4354 -1.49423,-0.7029 -1.73719,-0.9911 -3.16823,-2.3234 -4.23268,-3.8844 -1.17776,-1.7687 -1.91768,-3.5952 -2.30984,-5.3446 -0.50539,-2.1772 -0.66958,-4.2773 -0.62457,-6.2359 0.12375,-5.5317 1.35308,-10.6593 2.87504,-15.3277 2.2529,-7.0527 5.22496,-13.612 8.40321,-19.7827 5.38299,-10.4618 11.389,-20.0874 17.55116,-29.0093 6.16216,-8.922 12.47924,-17.1413 18.59875,-24.7556 9.30851,-11.5948 18.28856,-21.8139 26.46557,-30.6498 8.17701,-8.8359 15.55121,-16.2893 21.74133,-22.2975 6.19011,-6.0081 11.19752,-10.5708 14.72073,-13.5669 3.5232,-2.996 5.56317,-4.4253 5.87846,-4.1116 z" id="path5175" inkscape:path-effect="#path-effect5177" inkscape:original-d="m 479.09019,-2595.6546 c -220.18087,221.2628 -54.93858,236.4103 0,0 z"/>
        <path style="fill:#98c9ff;fill-opacity:1;fill-rule:evenodd;stroke:#98c9ff" d="m 1255.25,-2471.766 c 0.4568,-0.1512 1.5398,1.6512 3.174,5.1377 1.6342,3.4865 3.8182,8.6582 6.5284,15.2218 2.7102,6.5636 5.945,14.5199 9.7578,23.5361 3.8128,9.0163 8.2035,19.092 13.3164,29.8513 3.5908,7.5548 7.5195,15.4196 12.0702,23.2837 2.9961,5.1656 6.1791,10.2984 9.9044,15.0274 2.3559,2.9291 4.6474,5.6528 7.2941,7.4391 0.8337,0.552 1.5483,0.9937 2.1593,1.1669 0.4353,0.099 0.7062,0.19 0.725,0.1332 -0.035,0.019 0.01,-0.01 0.031,-0.024 0.1123,-0.032 0.2906,-0.3204 0.5732,-0.7351 0,-0 0,-0 0,-0.01 0.8719,-1.3085 1.1795,-3.3726 1.5257,-5.7404 0.3828,-3.3054 0.254,-6.7611 -0.058,-10.2729 -0.414,-4.5021 -1.2198,-8.9499 -2.2381,-13.3107 -2.6754,-11.4405 -6.8105,-22.0137 -11.5317,-31.4801 -3.2157,-6.4349 -6.7219,-12.3444 -10.3564,-17.6721 -3.6345,-5.3278 -7.3967,-10.0745 -11.1147,-14.2472 0,0 0,0 0,0 -4.2659,-4.787 -8.4803,-8.8148 -12.3513,-12.1608 -3.871,-3.3461 -7.3985,-6.0145 -10.3389,-8.1348 -2.9404,-2.1203 -5.2935,-3.6976 -6.8629,-4.8428 -1.5694,-1.1452 -2.3543,-1.8632 -2.211,-2.1699 0.1433,-0.3067 1.2098,-0.1876 3.098,0.4029 1.8882,0.5904 4.598,1.657 7.9518,3.3388 3.3539,1.6818 7.3518,3.9841 11.7407,7.0641 4.389,3.08 9.1686,6.9423 14.0115,11.6894 0,0 0,0 0,0 4.2138,4.1294 8.4832,8.9136 12.6062,14.3583 4.1231,5.4447 8.099,11.5508 11.7312,18.2543 5.3386,9.8344 10.0216,21.013 13.1028,33.3012 1.1771,4.6882 2.1164,9.5792 2.6339,14.6487 0.4104,3.9152 0.5598,8.0477 0.1139,12.3193 -0.2342,2.9389 -0.9607,6.3058 -2.8036,9.6746 -0,0.01 -0.01,0.012 -0.01,0.018 -0.7021,1.2767 -1.7596,2.5517 -3.2039,3.6916 -1.3904,1.0479 -3.0294,1.7173 -4.8113,1.9531 -1.9586,0.1887 -3.6999,-0.055 -5.1435,-0.5885 -1.863,-0.6602 -3.425,-1.5395 -4.711,-2.4803 -3.9316,-2.8465 -6.8925,-6.2601 -9.3525,-9.5365 -4.1033,-5.3583 -7.4588,-10.9274 -10.4521,-16.3647 -4.5848,-8.3084 -8.4134,-16.5143 -11.7982,-24.335 -4.8173,-11.1287 -8.7827,-21.5427 -12.0666,-30.8748 -3.2838,-9.3321 -5.8864,-17.5829 -7.889,-24.4347 -2.0026,-6.8518 -3.4039,-12.3058 -4.2049,-16.0798 -0.8011,-3.774 -1.0003,-5.8688 -0.5435,-6.02 z" id="path5179" inkscape:path-effect="#path-effect5181" inkscape:original-d="m 1255.25,-2471.766 c 84.7742,256.0737 107.297,50.1507 0,0 z"/>
        <path style="fill:#98c9ff;fill-opacity:1;fill-rule:evenodd;stroke:#98c9ff;stroke-width:6;stroke-opacity:1" d="m 726.36813,-3293.6663 c -0.38459,0.2291 -2.45587,-2.3811 -5.95208,-7.5192 -3.4962,-5.138 -8.41935,-12.804 -14.39789,-22.7447 -5.97854,-9.9408 -13.0151,-22.1565 -20.58965,-36.4517 -7.57454,-14.2951 -15.68734,-30.6707 -23.64588,-48.9807 -6.00076,-13.8066 -11.90832,-28.7427 -17.02922,-44.8113 -10e-6,0 -10e-6,0 -10e-6,0 -3.63254,-11.3894 -6.89344,-23.3955 -9.09928,-36.0223 -1.54964,-8.8151 -2.60352,-18.0511 -2.31422,-27.5789 0.1533,-6.3568 1.00666,-13.1271 3.64423,-19.7033 0.97286,-2.4111 2.29429,-4.8164 4.064,-7.0541 1.51064,-1.91 3.40954,-3.6195 5.67473,-4.9589 2.14913,-1.2433 4.51076,-2.0416 6.94788,-2.3621 0.43577,-0.054 0.86985,-0.095 1.30173,-0.1229 2.1265,-0.1366 4.19116,0.044 6.13437,0.4673 5.82572,1.3132 10.78534,4.1524 14.90172,7.3794 5.76685,4.4261 10.57167,9.6523 14.73539,15.0468 5.52965,7.1346 10.11784,14.7055 14.06855,22.3389 5.04541,9.7377 9.10407,19.6463 12.46412,29.4437 4.82402,14.0724 8.26287,27.9373 10.73802,41.2535 2.47514,13.3161 3.98785,26.0832 4.89462,38.0425 0,0 0,1e-4 0,1e-4 1.21573,15.9985 1.34016,30.5863 0.93424,43.4181 -0.40591,12.8319 -1.34066,23.9097 -2.36925,32.9554 -1.0286,9.0458 -2.15017,16.0619 -3.07263,20.8037 -0.92246,4.7417 -1.64405,7.2113 -2.03349,7.1607 -0.38944,-0.051 -0.42611,-2.6182 -0.23483,-7.4253 0.19127,-4.8071 0.60857,-11.856 0.97164,-20.8757 0.36306,-9.0197 0.67104,-20.0126 0.50698,-32.6779 -0.16406,-12.6653 -0.80145,-27.0045 -2.45117,-42.6576 0,0 0,0 0,0 -1.23562,-11.7052 -3.01946,-24.1518 -5.68752,-37.0695 -2.66805,-12.9177 -6.22129,-26.3059 -11.06434,-39.8206 -3.36838,-9.4037 -7.34909,-18.845 -12.2171,-28.0362 -3.82317,-7.2103 -8.14523,-14.258 -13.25579,-20.7627 -3.88486,-4.9226 -8.10787,-9.5352 -12.96994,-13.1995 -3.55166,-2.6097 -7.1944,-4.8329 -10.92244,-5.5345 -1.18598,-0.2362 -2.34658,-0.3541 -3.42083,-0.2819 -0.21817,0.015 -0.4326,0.037 -0.6428,0.068 -1.14728,0.1528 -2.27067,0.5263 -3.23325,1.0917 -1.05085,0.5879 -2.02795,1.4995 -2.90504,2.5665 -1.05218,1.2804 -1.89779,2.8693 -2.63164,4.6025 -2.06849,4.8512 -2.70278,10.479 -2.96359,16.2423 -0.32887,8.565 0.61993,17.1545 2.00771,25.6074 1.99484,12.0674 5.02626,23.7034 8.41453,34.8817 0,0 0,0 0,0 4.77964,15.7555 10.3226,30.5284 15.93861,44.2874 7.45132,18.2565 15.01146,34.6973 21.99649,49.1508 6.98503,14.4535 13.39499,26.9198 18.71498,37.1728 5.31998,10.2531 9.5525,18.2928 12.33046,23.8397 2.77797,5.5469 4.10347,8.6014 3.71888,8.8305 z" id="path5193" inkscape:path-effect="#path-effect5195" inkscape:original-d="m 726.36813,-3293.6663 c -217.08139,-364.4079 40.30032,-310.1285 0,0 z"/>
      </g>
    </g>
  </g>
  <metadata>
    <rdf:RDF>
      <cc:Work>
        <dc:format>image/svg+xml</dc:format>
        <dc:type rdf:resource="http://purl.org/dc/dcmitype/StillImage"/>
        <cc:license rdf:resource="http://creativecommons.org/licenses/publicdomain/"/>
        <dc:publisher>
          <cc:Agent rdf:about="http://openclipart.org/">
            <dc:title>Open Clip Art Library</dc:title>
          </cc:Agent>
        </dc:publisher>
        <dc:title>Whale</dc:title>
        <dc:date>2011-02-18T20:34:41</dc:date>
        <dc:description>A blue whale spouting water.</dc:description>
        <dc:source>http://openclipart.org/detail/120715/whale-by-cgillis73</dc:source>
        <dc:creator>
          <cc:Agent>
            <dc:title>cgillis73</dc:title>
          </cc:Agent>
        </dc:creator>
        <dc:subject>
          <rdf:Bag>
            <rdf:li>baby whale</rdf:li>
            <rdf:li>blue</rdf:li>
            <rdf:li>cartoon</rdf:li>
            <rdf:li>clip art</rdf:li>
            <rdf:li>clipart</rdf:li>
            <rdf:li>image</rdf:li>
            <rdf:li>png</rdf:li>
            <rdf:li>svg</rdf:li>
            <rdf:li>whale</rdf:li>
          </rdf:Bag>
        </dc:subject>
      </cc:Work>
      <cc:License rdf:about="http://creativecommons.org/licenses/publicdomain/">
        <cc:permits rdf:resource="http://creativecommons.org/ns#Reproduction"/>
        <cc:permits rdf:resource="http://creativecommons.org/ns#Distribution"/>
        <cc:permits rdf:resource="http://creativecommons.org/ns#DerivativeWorks"/>
      </cc:License>
    </rdf:RDF>
  </metadata>
</svg>