<?xml version="1.0" encoding="UTF-8" standalone="no"?>
<!-- Created with Inkscape (http://www.inkscape.org/) -->

<svg
   xmlns:dc="http://purl.org/dc/elements/1.1/"
   xmlns:cc="http://creativecommons.org/ns#"
   xmlns:rdf="http://www.w3.org/1999/02/22-rdf-syntax-ns#"
   xmlns:svg="http://www.w3.org/2000/svg"
   xmlns="http://www.w3.org/2000/svg"
   xmlns:sodipodi="http://sodipodi.sourceforge.net/DTD/sodipodi-0.dtd"
   xmlns:inkscape="http://www.inkscape.org/namespaces/inkscape"
   version="1.0"
   width="620"
   height="480"
   id="svg2"
   inkscape:version="0.48.4 r9939"
   sodipodi:docname="bakgrund.svg">
  <metadata
     id="metadata4956">
    <rdf:RDF>
      <cc:Work
         rdf:about="">
        <dc:format>image/svg+xml</dc:format>
        <dc:type
           rdf:resource="http://purl.org/dc/dcmitype/StillImage" />
        <dc:title></dc:title>
      </cc:Work>
    </rdf:RDF>
  </metadata>
  <sodipodi:namedview
     pagecolor="#ffffff"
     bordercolor="#666666"
     borderopacity="1"
     objecttolerance="10"
     gridtolerance="10"
     guidetolerance="10"
     inkscape:pageopacity="0"
     inkscape:pageshadow="2"
     inkscape:window-width="1366"
     inkscape:window-height="706"
     id="namedview4954"
     showgrid="false"
     inkscape:zoom="0.80555556"
     inkscape:cx="276.66888"
     inkscape:cy="274.25884"
     inkscape:window-x="-8"
     inkscape:window-y="-8"
     inkscape:window-maximized="1"
     inkscape:current-layer="svg2" />
  <defs
     id="defs4">
    <filter
       id="filter3443"
       x="-0.12513924"
       width="1.2502785"
       y="-0.32663372"
       height="1.6532674"
       color-interpolation-filters="sRGB">
      <feGaussianBlur
         inkscape:collect="always"
         stdDeviation="1.9634296"
         id="feGaussianBlur3445" />
    </filter>
  </defs>
  <g
     id="layer1"
     style="display:inline"
     transform="matrix(0.85689656,0,0,0.78534483,2.4827589,1.2413793)">
    <rect
       width="720"
       height="300"
       x="0"
       y="180"
       id="rect2383"
       style="fill:#008000" />
    <rect
       width="720"
       height="180"
       x="0"
       y="0"
       id="rect2385"
       style="fill:#00ffff" />
  </g>
  <g
     id="layer3"
     style="display:inline"
     transform="translate(109.24138,-47.172414)">
    <g
       transform="translate(275.85402,238.18978)"
       id="g3365"
       style="display:inline">
      <g
         transform="translate(50.314786,-48.03655)"
         id="g3585">
        <path
           d="m 8.834607,155.98332 c -1.872014,0.60541 -6.113586,-0.63889 -8.895066,-1.33426 -2.356492,-0.58912 -4.727362,1.16934 -5.781793,2.22377 -1.413308,1.41331 -1.725394,4.21725 -1.334259,5.78179 0.831941,3.32777 5.382349,3.10421 7.560806,2.66852 2.007768,-0.40155 4.244285,1.28345 6.226546,1.77901 2.276326,0.56909 4.262917,0.88951 7.116053,0.88951 2.899809,0 4.683953,1.43843 7.560806,0 2.231088,-1.11554 4.290711,-0.77189 6.22655,-2.22377 1.51236,-1.13427 2.2264,-3.12383 2.66852,-4.89228 0.78383,-3.13533 -1.87663,-3.60684 -3.558031,-4.44753 -2.160997,-1.0805 -5.906368,-0.41361 -7.560806,0 -1.77328,0.44332 -3.316026,-2.22377 -5.781793,-2.22377 -1.999348,0 -1.059415,1.77901 -4.447533,1.77901 z"
           transform="matrix(1.0228021,0,0,1.0831048,-0.6864793,-13.604815)"
           id="path3480"
           style="fill:#000000;fill-opacity:0.72839505;fill-rule:evenodd;stroke:none;filter:url(#filter3443)"
           inkscape:connector-curvature="0" />
        <path
           d="m 7.8044813,155.70705 c -2.9481606,0.5798 -6.5230326,0.86912 -9.0260554,2.69077 -0.557138,0.66786 -0.6202455,1.04722 -0.5807012,1.86969 0.2202862,0.70976 1.00439599,1.05137 1.18674759,1.78129 2.55483391,0.23874 4.84679711,1.41656 7.51483531,0.55689 2.8023011,0.0358 5.6347254,-0.32737 7.9550054,-2.01603 0.53609,-1.58808 -0.03933,-3.74131 -0.164104,-5.50133 -2.584416,0.81271 -4.284788,1.29976 -6.8857277,0.61872 z"
           id="path3482"
           style="fill:#e6e6e6;fill-rule:evenodd;stroke:#333333;stroke-width:1px;stroke-linecap:butt;stroke-linejoin:miter;stroke-opacity:1"
           inkscape:connector-curvature="0" />
        <path
           d="m -1.2342461,160.82971 c 3.0183198,-0.51671 6.1237135,0.84661 9.2664293,0.4255 2.9183688,-0.0966 4.4327758,-1.51192 6.5759738,-1.65086"
           id="path3484"
           style="fill:none;stroke:#333333;stroke-width:1px;stroke-linecap:butt;stroke-linejoin:miter;stroke-opacity:1"
           inkscape:connector-curvature="0" />
        <path
           d="m 17.606387,156.55326 c -2.349144,1.25604 -6.503607,0.92665 -8.8239337,2.88687 -0.3963206,0.8351 -0.3802561,1.80053 -0.4923129,2.70961 0.1337951,1.20189 0.6637487,1.07796 1.5463179,1.82573 2.3826457,0.92235 5.2163227,1.08679 7.6435237,0.63756 2.130148,-0.0748 4.642061,-0.56347 6.125761,-2.18879 2.292778,-2.14574 1.554755,-3.03408 1.315639,-6.02263 -2.762277,0.20946 -4.545422,0.15165 -7.314995,0.15165 z"
           id="path3486"
           style="fill:#e6e6e6;fill-rule:evenodd;stroke:#333333;stroke-width:1px;stroke-linecap:butt;stroke-linejoin:miter;stroke-opacity:1"
           inkscape:connector-curvature="0" />
        <path
           d="m 0.69971972,118.38158 c -0.70688991,1.10315 0.11398009,3.47567 0.17876435,4.73361 -0.27134253,2.59122 1.09682213,5.79288 0.29457853,8.29782 -0.58593471,3.55978 -2.3929078,2.76899 -3.6868248,3.66222 -1.4069725,0.0624 -2.3058984,-0.16233 -2.6599426,1.03655 0.8224326,0.8308 2.1855265,0.35886 3.3205605,0.27698 0.3374747,1.26389 -2.1927652,3.03612 -2.3120499,4.53757 0.8996663,0.72293 3.0309914,-1.2933 3.1330604,-2.78689 0.19620946,1.43692 -0.6059208,3.77477 -0.4641571,4.76093 1.0277869,0.65865 2.26374024,-3.35209 2.3028641,-4.97507 -0.0373999,1.76828 -0.66837196,4.10255 1.4103927,4.04611 0.5515201,-0.1765 0.336641,-2.44727 0.5264321,-4.08231 0.5607194,-2.57711 2.3532924,-5.58049 2.6066284,-8.22643 -0.2807139,-3.88415 1.5815355,-8.70829 -0.1160393,-12.30875 -2.4970844,-1.2533 -2.679374,0.008 -4.53426738,1.02766 z"
           id="path3488"
           style="fill:#ffe6d5;fill-opacity:1;fill-rule:evenodd;stroke:#3f2d10;stroke-width:1px;stroke-linecap:butt;stroke-linejoin:miter;stroke-opacity:1"
           inkscape:connector-curvature="0" />
        <path
           d="m 6.2130959,104.52991 c -2.5054634,2.59689 -3.9863975,4.92319 -5.0638379,8.31491 -1.34529812,2.39334 -1.9734158,3.64878 -2.2718521,6.43192 3.6826317,0.69537 6.3485126,0.0273 10.0004635,0.52941 1.6715486,-4.44121 1.5108436,-7.87668 1.6019386,-12.55541"
           id="path3490"
           style="fill:#ff9fec;fill-opacity:1;fill-rule:evenodd;stroke:#42002a;stroke-width:1px;stroke-linecap:butt;stroke-linejoin:miter;stroke-opacity:1"
           inkscape:connector-curvature="0" />
        <path
           d="m 16.837915,135.0042 c 0.10287,2.21845 0.365883,4.23586 0.381204,6.44207 0.481506,2.3645 0.116512,4.71675 -0.04987,7.0556 0.478164,2.05185 -0.480388,6.9727 0.92288,8.41436 2.441459,1.84656 5.303144,1.40667 6.658668,-0.93415 -0.23232,-0.92992 0.386401,-2.72187 -0.02222,-3.67597 -1.193886,-2.54456 -0.628441,-5.44753 -0.232081,-8.12841 0.05358,-3.52163 0.71241,-6.92638 0.580199,-10.45083 -2.012001,-0.74397 -6.968781,-0.20538 -8.238788,1.27733 z"
           id="path3492"
           style="fill:#00325c;fill-opacity:1;fill-rule:evenodd;stroke:#00192e;stroke-width:1px;stroke-linecap:butt;stroke-linejoin:miter;stroke-opacity:1"
           inkscape:connector-curvature="0" />
        <path
           d="m 7.2175259,134.7113 c -0.1347578,0.72369 -0.3839117,2.60282 -0.1382547,3.83196 0.8758246,2.59652 1.2621941,5.46404 0.613283,8.10589 0.014786,2.59149 -1.4284126,7.71586 0.425635,9.62063 2.6415858,1.04695 4.2365908,1.97935 6.4818928,-0.31543 -1.156244,-3.57816 -0.982043,-8.16615 -0.431071,-11.89278 0.02681,-3.53049 0.713322,-6.90196 0.580197,-10.45082 -2.012002,-0.74397 -6.2616749,-0.38216 -7.5316821,1.10055 z"
           id="path3494"
           style="fill:#00325c;fill-opacity:1;fill-rule:evenodd;stroke:#00192e;stroke-width:1px;stroke-linecap:butt;stroke-linejoin:miter;stroke-opacity:1"
           inkscape:connector-curvature="0" />
        <path
           d="m 29.259355,136.43189 c -2.604024,-3.21537 -0.435363,-6.5311 -0.103231,-10.21347 -1.14009,-4.60491 1.821121,-9.51944 0.843847,-14.12282 -0.432381,-2.88514 -1.389166,-5.48288 -2.837838,-7.99862 -1.656363,-2.24165 -3.868483,-3.51709 -6.680208,-3.66091 -3.607383,0.52875 -7.248814,0.0415 -10.8308853,0.82109 -2.6431834,1.15088 -4.4648673,3.05726 -4.759025,5.91187 1.3846224,2.40885 -1.7169551,7.48365 -4.39873031,9.97563 -0.14971882,1.72264 1.72541341,3.72798 3.44357311,3.86461 1.0054682,2.09214 0.5683951,3.07163 0.9076965,5.49102 0.8303483,4.82445 -1.113631,6.55468 -0.5794818,11.36628 4.1605919,-2.38353 7.1780388,0.20941 11.9020748,-0.31979 3.962167,-1.41743 10.634059,1.8916 13.092208,-1.11489 z"
           id="path3496"
           style="fill:#ff9fec;fill-opacity:1;fill-rule:evenodd;stroke:#42002a;stroke-width:1px;stroke-linecap:butt;stroke-linejoin:miter;stroke-opacity:1"
           inkscape:connector-curvature="0" />
        <path
           d="m 31.120381,127.9475 c -0.361679,2.96705 -1.602808,5.72122 -2.178314,9.03962 -1.511904,2.40611 -3.932997,-0.24756 -4.561602,0.92008 0.301862,1.31157 1.693371,1.77226 2.909945,2.09905 -0.539314,1.60371 -1.305121,2.55509 -0.937275,4.98429 1.123808,-0.57703 2.147771,-2.99927 2.454746,-4.14413 0.127244,1.33456 -0.123207,4.48569 1.258511,4.02801 0.0297,-0.53794 0.68655,-2.43507 0.758736,-3.78723 0.973374,1.50515 0.641684,4.70544 1.927864,2.0987 0.129295,-1.16879 0.128364,-2.73138 -0.481854,-3.653 -0.158779,-1.17808 -0.549499,-1.6004 -0.348343,-2.78723 1.479269,-2.50275 2.710819,-6.1018 3.133286,-8.94092 -1.247082,-3.58993 -2.279378,-7.47358 -3.347443,-10.46858 -8.592024,-1.49522 -3.676349,-1.42412 -4.855503,1.00103 0.310885,2.71933 1.959533,7.73487 4.267246,9.61031 z"
           id="path3498"
           style="fill:#ffe6d5;fill-opacity:1;fill-rule:evenodd;stroke:#3f2d10;stroke-width:1px;stroke-linecap:butt;stroke-linejoin:miter;stroke-opacity:1"
           inkscape:connector-curvature="0" />
        <path
           d="m 22.102654,108.27018 c 0.119439,2.3603 0.900818,4.46202 1.664438,6.67047 0.616848,2.26193 0.671104,3.13065 0.695522,5.45969 3.903042,-0.41473 6.205725,-1.49306 10.104607,-2.72187 -0.782149,-3.7048 -3.302564,-6.86311 -5.149726,-10.11297 -1.371148,-1.91937 -3.297805,-2.13855 -5.642049,-1.44735"
           id="path3500"
           style="fill:#ff9fec;fill-opacity:1;fill-rule:evenodd;stroke:#42002a;stroke-width:1px;stroke-linecap:butt;stroke-linejoin:miter;stroke-opacity:1"
           inkscape:connector-curvature="0" />
        <path
           d="m 9.0118026,103.20376 c 1.6140704,4.25882 9.6100204,2.85491 12.4443584,-1.19763 -3.424158,-1.61341 -2.732273,-5.594249 -5.204988,-6.800822 -2.104267,-0.240416 -2.025268,-0.362014 -4.028761,0.221855 -1.325131,1.295367 -0.509282,6.541837 -3.2106094,7.776597 z"
           id="path3508"
           style="fill:#ffe6d5;fill-opacity:1;fill-rule:evenodd;stroke:#3f2d10;stroke-width:1px;stroke-linecap:butt;stroke-linejoin:miter;stroke-opacity:1"
           inkscape:connector-curvature="0" />
        <path
           d="M 15.285281,60.185934 C 5.1597882,60.12662 0.44718812,66.27855 0.31207812,74.970131 c 0,1.818204 1.81247518,6.103711 2.26293018,7.905948 -0.2096822,3.548645 -1.3538448,6.053363 -0.3067244,9.517279 1.2177546,4.900528 4.5086526,7.509042 9.2489191,8.565802 4.208001,-0.0827 7.211669,-2.042411 10.365341,-4.984547 4.515534,-3.695742 6.935675,-9.42074 8.596818,-14.888117 0.590448,-5.222458 -2.914993,-10.293037 -4.397806,-15.164203 -2.06494,-5.330417 -5.747141,-6.482432 -10.796275,-5.736359 z"
           id="path3502"
           style="fill:#ffe6d5;fill-opacity:1;fill-rule:evenodd;stroke:#3f2d10;stroke-width:0.99999994px;stroke-linecap:butt;stroke-linejoin:miter;stroke-opacity:1"
           inkscape:connector-curvature="0" />
        <path
           d="m 9.834921,77.384705 c -1.1166512,2.418263 -0.2526336,3.836187 2.138685,3.486662 0.73458,0.319058 2.265047,-1.448696 1.913768,-2.621112 0.262888,-3.14868 -2.503924,-3.217026 -4.052453,-0.86555 z"
           id="path3512"
           style="fill:#ffffff;fill-rule:evenodd;stroke:#333333;stroke-width:0.99999994px;stroke-linecap:butt;stroke-linejoin:miter;stroke-opacity:1"
           inkscape:connector-curvature="0" />
        <path
           d="M 3.4653789,76.243446 C 1.541203,76.669742 0.6381858,78.11957 1.0128674,80.275925 3.2343188,84.322859 7.4589258,78.500179 3.4653789,76.243446 z"
           id="path3514"
           style="fill:#ffffff;fill-rule:evenodd;stroke:#333333;stroke-width:0.99999994px;stroke-linecap:butt;stroke-linejoin:miter;stroke-opacity:1"
           inkscape:connector-curvature="0" />
        <path
           d="m 6.1082759,80.932584 c -0.4026443,2.336108 -1.9134297,2.42362 -3.1255396,3.603273 0.8021802,1.703116 3.4593126,2.193788 3.8133097,1.523168"
           id="path3516"
           style="fill:#ffe6d5;fill-opacity:1;fill-rule:evenodd;stroke:#3f2d10;stroke-width:0.99999994px;stroke-linecap:butt;stroke-linejoin:miter;stroke-opacity:1"
           inkscape:connector-curvature="0" />
        <path
           d="m 11.132236,77.679977 c 0.315995,-0.287636 -1.5344607,-0.824375 -1.4306313,0.806496 0.080477,1.26406 1.6291783,1.565036 2.1459473,1.209744 1.037912,-0.713593 -0.214695,-2.268434 -0.715316,-2.01624 z"
           id="path3524"
           style="fill:#000000;fill-rule:evenodd;stroke:#000000;stroke-width:0.99999994px;stroke-linecap:butt;stroke-linejoin:miter;stroke-opacity:1"
           inkscape:connector-curvature="0" />
        <path
           d="M 2.3340493,78.127247 C 2.7079265,77.362116 0.55420941,77.9759 1.1077936,79.740239 1.489845,80.957882 2.8447415,80.208761 2.9471772,80.143487 4.320868,79.268146 3.2100095,77.036668 2.3340493,78.127247 z"
           id="path3526"
           style="fill:#000000;fill-rule:evenodd;stroke:#000000;stroke-width:0.99999994px;stroke-linecap:butt;stroke-linejoin:miter;stroke-opacity:1"
           inkscape:connector-curvature="0" />
        <path
           d="m 8.8581696,162.16279 c 2.9040544,0.6232 6.2322844,1.5643 8.4839524,0.67265 2.706517,-0.35849 5.208922,-1.00853 7.699331,-3.67303"
           id="path3536"
           style="fill:none;stroke:#333333;stroke-width:1px;stroke-linecap:butt;stroke-linejoin:miter;stroke-opacity:1"
           inkscape:connector-curvature="0" />
        <path
           d="M 4.8247475,73.638487 C 9.168229,73.25401 15.536302,73.09031 19.369611,73.019769 c 0.186138,-0.744551 0.704668,-1.758011 0.883884,-2.474874 -0.530853,3.705589 0.65188,7.242861 1.414213,10.783379 0.737923,3.599287 -0.914884,6.884956 -2.588388,11.091436 2.951134,1.295532 10.545615,0.972601 14.933505,-0.381282 C 30.950606,86.629631 32.208256,82.632501 32.804641,79.030177 34.209052,68.851603 31.351344,63.398951 23.435475,56.93309 19.075089,55.6224 15.766197,55.086245 11.326272,55.960818 4.2989312,57.133002 1.0099856,59.940174 -1.1364854,66.479031 c -1.0599131,2.917936 -0.8838835,5.87257 -0.8838835,8.838835 2.53823505,-1.122516 4.156587,-0.808332 6.8451164,-1.679379 z"
           id="path3567"
           style="fill:#300000;fill-opacity:1;fill-rule:evenodd;stroke:#000000;stroke-width:1px;stroke-linecap:butt;stroke-linejoin:miter;stroke-opacity:1"
           inkscape:connector-curvature="0" />
        <path
           d="m 4.5203689,93.967807 c 0.4122402,-0.04631 0.9496371,-0.977393 1.4142136,-1.325825 0.6086756,-0.09638 1.3593545,2.053617 2.6516504,0.176777 0.9538031,0.897807 1.8557171,1.323937 3.0935921,1.237437 -1.011371,2.248582 -6.8808771,1.769078 -7.1594561,-0.08839 z"
           id="path3571"
           style="fill:#d40000;fill-opacity:1;fill-rule:evenodd;stroke:#560505;stroke-width:1px;stroke-linecap:butt;stroke-linejoin:miter;stroke-opacity:1"
           inkscape:connector-curvature="0" />
        <path
           d="m 10.119329,122.01426 c -2.3027569,-0.19839 -9.57033581,-2.70887 -6.5182127,-5.8324 2.4182775,-1.46963 8.0374967,1.54118 8.2558177,2.72177 0.218306,1.18056 -1.62743,3.16965 -1.737605,3.11063 z"
           id="path3201"
           style="fill:#ffffff;fill-rule:evenodd;stroke:#808080;stroke-width:1px;stroke-linecap:butt;stroke-linejoin:miter;stroke-opacity:1"
           inkscape:connector-curvature="0" />
        <path
           d="m 3.875,121 c 4.4516073,0.85893 4.6197394,-2.19739 4.625,-2.25"
           id="path3573"
           style="fill:none;stroke:#42002a;stroke-width:1px;stroke-linecap:butt;stroke-linejoin:miter;stroke-opacity:1"
           inkscape:connector-curvature="0" />
        <path
           d="m 10.618353,119.2182 c -0.16879,-2.30512 1.159096,-9.87854 4.72656,-7.35959 1.834036,2.15502 -0.248909,8.18013 -1.380007,8.58266 -1.131098,0.40252 -3.387395,-1.10493 -3.346553,-1.22307 z"
           id="path3193"
           style="fill:#ffffff;fill-rule:evenodd;stroke:#808080;stroke-width:1px;stroke-linecap:butt;stroke-linejoin:miter;stroke-opacity:1"
           inkscape:connector-curvature="0" />
        <path
           d="m 13.214599,119.60109 c 1.627687,-1.64094 8.211525,-5.61249 8.654276,-1.26785 -0.421016,2.79832 -6.332915,5.18371 -7.379225,4.59494 -1.046309,-0.58877 -1.39097,-3.28032 -1.275051,-3.32709 z"
           id="path3195"
           style="fill:#ffffff;fill-rule:evenodd;stroke:#808080;stroke-width:1px;stroke-linecap:butt;stroke-linejoin:miter;stroke-opacity:1"
           inkscape:connector-curvature="0" />
        <path
           d="m 14.631494,122.35822 c 2.067945,1.03231 7.900647,6.04227 3.912882,7.82262 -2.789494,0.476 -6.905421,-4.39224 -6.673721,-5.57027 0.231698,-1.17801 2.680135,-2.34779 2.760839,-2.25235 z"
           id="path3197"
           style="fill:#ffffff;fill-rule:evenodd;stroke:#808080;stroke-width:1px;stroke-linecap:butt;stroke-linejoin:miter;stroke-opacity:1"
           inkscape:connector-curvature="0" />
        <path
           d="m 12.658185,123.31855 c -0.81271,2.16369 -5.1920133,8.48365 -7.3755752,4.70159 -0.7621848,-2.72524 3.6538634,-7.32297 4.8495492,-7.21446 1.195665,0.10852 2.6126,2.42272 2.526026,2.51287 z"
           id="path3199"
           style="fill:#ffffff;fill-rule:evenodd;stroke:#808080;stroke-width:1px;stroke-linecap:butt;stroke-linejoin:miter;stroke-opacity:1"
           inkscape:connector-curvature="0" />
        <path
           d="m 12.253882,118.22405 c 0,0 -1.139496,-1.125 -2.4800799,0.6875 -1.3405836,1.8125 1.0724669,6.75 3.2174009,5.9375 2.144934,-0.8125 3.28443,-6.25 -0.737321,-6.625 z"
           id="path3191"
           style="fill:#ffff00;fill-rule:evenodd;stroke:#d07f1d;stroke-width:1px;stroke-linecap:butt;stroke-linejoin:miter;stroke-opacity:1"
           inkscape:connector-curvature="0" />
        <path
           d="m 13.125,121.875 c 1.362264,2.55895 7.669428,3.36917 9.265165,-0.83211"
           id="path3575"
           style="fill:none;stroke:#42002a;stroke-width:1px;stroke-linecap:butt;stroke-linejoin:miter;stroke-opacity:1"
           inkscape:connector-curvature="0" />
        <path
           d="M 15.536612,77.579505 C 15.134649,84.830852 8.5053734,83.018546 7.75,79.25 7.75,78.379398 7.1042954,78.713388 6.3232233,78.713388 6.5476528,84.413249 -0.84446958,84.103245 -0.875,78.875 -1.130185,74.44484 6.4550692,73.707747 6.4053301,78.539214 7.277681,79.369923 6.9444848,79.14695 7.8295049,78.554379 8.4741749,73.139907 14.547756,72.970341 15.5,77.375 17.036645,77.44726 18.528579,77.086141 20,76.75"
           id="path3583"
           style="fill:none;stroke:#000000;stroke-width:1px;stroke-linecap:butt;stroke-linejoin:miter;stroke-opacity:1"
           inkscape:connector-curvature="0" />
      </g>
    </g>
  </g>
  <g
     id="layer2"
     style="display:inline">
    <g
       transform="translate(83.211679,2.6277372)"
       id="g3190">
      <path
         d="m 591.48388,68.516129 a 27.870968,28.258064 0 1 1 -55.74193,0 27.870968,28.258064 0 1 1 55.74193,0 z"
         id="path2392"
         style="fill:#ffff00"
         inkscape:connector-curvature="0" />
      <path
         d="m 529.54838,69.677419 c -33.29032,0 -37.93548,0.774194 -37.93548,0.774194"
         id="path2398"
         style="fill:#ffff00;fill-rule:evenodd;stroke:#ffff00;stroke-width:2.95700002;stroke-linecap:butt;stroke-linejoin:miter;stroke-miterlimit:4;stroke-opacity:1;stroke-dasharray:5.91400003, 2.95700002;stroke-dashoffset:14.78500009"
         inkscape:connector-curvature="0" />
      <path
         d="m 635.22581,67.741939 c -33.29032,0 -37.93548,0.77419 -37.93548,0.77419"
         id="path3176"
         style="fill:#ffff00;fill-rule:evenodd;stroke:#ffff00;stroke-width:2.95700002;stroke-linecap:butt;stroke-linejoin:miter;stroke-miterlimit:4;stroke-opacity:1;stroke-dasharray:5.91400003, 2.95700002;stroke-dashoffset:14.78500009"
         inkscape:connector-curvature="0" />
      <path
         d="m 563.99999,139.74192 c 0,-33.29032 -0.77418,-37.93547 -0.77418,-37.93547"
         id="path3178"
         style="fill:#ffff00;fill-rule:evenodd;stroke:#ffff00;stroke-width:2.95700002;stroke-linecap:butt;stroke-linejoin:miter;stroke-miterlimit:4;stroke-opacity:1;stroke-dasharray:5.91400003, 2.95700002;stroke-dashoffset:14.78500009"
         inkscape:connector-curvature="0" />
      <path
         d="M 564.77418,37.548384 C 564.77418,4.2580602 564,-0.38708981 564,-0.38708981"
         id="path3180"
         style="fill:#ffff00;fill-rule:evenodd;stroke:#ffff00;stroke-width:2.95700002;stroke-linecap:butt;stroke-linejoin:miter;stroke-miterlimit:4;stroke-opacity:1;stroke-dasharray:5.91400003, 2.95700002;stroke-dashoffset:14.78500009"
         inkscape:connector-curvature="0" />
      <path
         d="M 614.46012,119.20302 C 590.92031,95.663204 587.08826,92.926015 587.08826,92.926015"
         id="path3182"
         style="fill:#ffff00;fill-rule:evenodd;stroke:#ffff00;stroke-width:2.95700002;stroke-linecap:butt;stroke-linejoin:miter;stroke-miterlimit:4;stroke-opacity:1;stroke-dasharray:5.91400003, 2.95700002;stroke-dashoffset:14.78500009"
         inkscape:connector-curvature="0" />
      <path
         d="M 536.26658,44.106248 C 512.72677,20.566428 508.89472,17.829238 508.89472,17.829238"
         id="path3184"
         style="fill:#ffff00;fill-rule:evenodd;stroke:#ffff00;stroke-width:2.95700002;stroke-linecap:butt;stroke-linejoin:miter;stroke-miterlimit:4;stroke-opacity:1;stroke-dasharray:5.91400003, 2.95700002;stroke-dashoffset:14.78500009"
         inkscape:connector-curvature="0" />
      <path
         d="m 512.53892,122.07302 c 23.53982,-23.539808 26.277,-27.371858 26.277,-27.371858"
         id="path3186"
         style="fill:#ffff00;fill-rule:evenodd;stroke:#ffff00;stroke-width:2.95700002;stroke-linecap:butt;stroke-linejoin:miter;stroke-miterlimit:4;stroke-opacity:1;stroke-dasharray:5.91400003, 2.95700002;stroke-dashoffset:14.78500009"
         inkscape:connector-curvature="0" />
      <path
         d="m 590.73247,43.879481 c 23.53982,-23.53981 26.277,-27.371862 26.277,-27.371862"
         id="path3188"
         style="fill:#ffff00;fill-rule:evenodd;stroke:#ffff00;stroke-width:2.95700002;stroke-linecap:butt;stroke-linejoin:miter;stroke-miterlimit:4;stroke-opacity:1;stroke-dasharray:5.91400003, 2.95700002;stroke-dashoffset:14.78500009"
         inkscape:connector-curvature="0" />
    </g>
  </g>
</svg>
