<?xml version="1.0" encoding="UTF-8" standalone="no"?>
<!-- Created with Inkscape (http://www.inkscape.org/) -->

<svg
   xmlns:dc="http://purl.org/dc/elements/1.1/"
   xmlns:cc="http://creativecommons.org/ns#"
   xmlns:rdf="http://www.w3.org/1999/02/22-rdf-syntax-ns#"
   xmlns:svg="http://www.w3.org/2000/svg"
   xmlns="http://www.w3.org/2000/svg"
   xmlns:xlink="http://www.w3.org/1999/xlink"
   xmlns:inkscape="http://www.inkscape.org/namespaces/inkscape"
   version="1.1"
   width="707"
   height="480"
   id="svg3489">
  <defs
     id="defs3491">
    <inkscape:path-effect
       effect="spiro"
       id="path-effect6404" />
    <inkscape:path-effect
       effect="spiro"
       id="path-effect6402" />
    <inkscape:path-effect
       effect="spiro"
       id="path-effect6400" />
    <linearGradient
       x1="17"
       y1="-50.403683"
       x2="50.519222"
       y2="-48.038208"
       id="linearGradient3522"
       xlink:href="#linearGradient3381"
       gradientUnits="userSpaceOnUse"
       gradientTransform="matrix(0.9971146,0.07591112,-0.07591112,0.9971146,201.38464,352.47066)" />
    <linearGradient
       x1="17"
       y1="-50.403683"
       x2="50.519222"
       y2="-48.038208"
       id="linearGradient3518"
       xlink:href="#linearGradient3381"
       gradientUnits="userSpaceOnUse"
       gradientTransform="translate(205.80837,355.41632)" />
    <linearGradient
       x1="225.29135"
       y1="383.70978"
       x2="263.27386"
       y2="378.70978"
       id="linearGradient3508"
       xlink:href="#linearGradient3381"
       gradientUnits="userSpaceOnUse" />
    <filter
       color-interpolation-filters="sRGB"
       id="filter3415">
      <feGaussianBlur
         id="feGaussianBlur3417"
         stdDeviation="1.9184293" />
    </filter>
    <linearGradient
       x1="226.09561"
       y1="441.87811"
       x2="357.44601"
       y2="441.87811"
       id="linearGradient3413"
       xlink:href="#linearGradient3218"
       gradientUnits="userSpaceOnUse" />
    <linearGradient
       x1="225.29135"
       y1="383.70978"
       x2="263.27386"
       y2="378.70978"
       id="linearGradient3387"
       xlink:href="#linearGradient3381"
       gradientUnits="userSpaceOnUse" />
    <linearGradient
       x1="228.16414"
       y1="607.72748"
       x2="299.36841"
       y2="626.80658"
       id="linearGradient3342"
       xlink:href="#linearGradient3250"
       gradientUnits="userSpaceOnUse" />
    <radialGradient
       cx="436.7251"
       cy="537.52686"
       r="212.51822"
       fx="436.7251"
       fy="537.52686"
       id="radialGradient3340"
       xlink:href="#linearGradient3218"
       gradientUnits="userSpaceOnUse"
       gradientTransform="matrix(1.2278704e-7,0.1787238,-0.9956213,6.8401294e-7,909.93971,480.92498)" />
    <radialGradient
       cx="397.00232"
       cy="684.27368"
       r="12.253048"
       fx="397.00232"
       fy="684.27368"
       id="radialGradient3338"
       xlink:href="#linearGradient3314"
       gradientUnits="userSpaceOnUse"
       gradientTransform="matrix(0.9832762,0,1.1864469e-6,1,7.0246567,-1.9124984e-6)" />
    <linearGradient
       x1="397.94601"
       y1="654.96045"
       x2="347.55688"
       y2="705.34955"
       id="linearGradient3328"
       xlink:href="#linearGradient3314"
       gradientUnits="userSpaceOnUse" />
    <linearGradient
       x1="402.24475"
       y1="659.02386"
       x2="339.53275"
       y2="721.73584"
       id="linearGradient3320"
       xlink:href="#linearGradient3314"
       gradientUnits="userSpaceOnUse" />
    <radialGradient
       cx="276.81726"
       cy="314.04971"
       r="212.51822"
       fx="276.81726"
       fy="314.04971"
       id="radialGradient3268"
       xlink:href="#linearGradient3260"
       gradientUnits="userSpaceOnUse"
       gradientTransform="matrix(0,0.8812229,-1.8233522,0,869.21706,136.14504)" />
    <linearGradient
       x1="500.1911"
       y1="634.13623"
       x2="437.5"
       y2="651.36218"
       id="linearGradient3258"
       xlink:href="#linearGradient3250"
       gradientUnits="userSpaceOnUse" />
    <linearGradient
       x1="447"
       y1="600.11218"
       x2="467.01007"
       y2="600.11218"
       id="linearGradient3238"
       xlink:href="#linearGradient3250"
       gradientUnits="userSpaceOnUse" />
    <linearGradient
       x1="356.49265"
       y1="633.76166"
       x2="400.55402"
       y2="632.59076"
       id="linearGradient3200"
       xlink:href="#linearGradient3194"
       gradientUnits="userSpaceOnUse" />
    <linearGradient
       id="linearGradient3194">
      <stop
         id="stop3196"
         style="stop-color:#aca793;stop-opacity:1"
         offset="0" />
      <stop
         id="stop3198"
         style="stop-color:#aca793;stop-opacity:0"
         offset="1" />
    </linearGradient>
    <linearGradient
       id="linearGradient3218">
      <stop
         id="stop3220"
         style="stop-color:#000000;stop-opacity:1"
         offset="0" />
      <stop
         id="stop3222"
         style="stop-color:#000000;stop-opacity:0"
         offset="1" />
    </linearGradient>
    <linearGradient
       id="linearGradient3250">
      <stop
         id="stop3252"
         style="stop-color:#76705a;stop-opacity:1"
         offset="0" />
      <stop
         id="stop3254"
         style="stop-color:#c8c4b7;stop-opacity:0"
         offset="1" />
    </linearGradient>
    <linearGradient
       id="linearGradient3260">
      <stop
         id="stop3262"
         style="stop-color:#f56060;stop-opacity:1"
         offset="0" />
      <stop
         id="stop3264"
         style="stop-color:#960d0d;stop-opacity:1"
         offset="1" />
    </linearGradient>
    <linearGradient
       id="linearGradient3314">
      <stop
         id="stop3316"
         style="stop-color:#784421;stop-opacity:1"
         offset="0" />
      <stop
         id="stop3318"
         style="stop-color:#4d2c15;stop-opacity:1"
         offset="1" />
    </linearGradient>
    <linearGradient
       id="linearGradient3381">
      <stop
         id="stop3383"
         style="stop-color:#d3d3d3;stop-opacity:1"
         offset="0" />
      <stop
         id="stop3385"
         style="stop-color:#757575;stop-opacity:1"
         offset="1" />
    </linearGradient>
    <clipPath
       id="clipPath4575">
      <rect
         width="278.8895"
         height="254.51448"
         ry="2.1741755"
         x="-298.3425"
         y="-555.68359"
         transform="matrix(-0.9999331,0.01156285,0.1279598,0.9917794,0,0)"
         id="rect4577"
         style="fill:none;stroke:#8b4512;stroke-width:15.05131721;stroke-linecap:butt;stroke-linejoin:miter;stroke-miterlimit:4;stroke-opacity:1;stroke-dasharray:none;stroke-dashoffset:0" />
    </clipPath>
    <radialGradient
       cx="-95.370361"
       cy="-282.82303"
       r="98.518517"
       fx="-95.370361"
       fy="-282.82303"
       id="radialGradient3610"
       xlink:href="#linearGradient3587"
       gradientUnits="userSpaceOnUse"
       gradientTransform="matrix(0.7368421,-1.3763778e-7,6.5658825e-8,0.3515037,-25.097449,-183.40968)" />
    <clipPath
       id="clipPath3579">
      <path
         d="m 229.34114,-343.93784 -88.23109,144.14148 c -6.4e-4,0.88546 -0.71595,1.6115 -1.60383,1.62791 l -184.406775,3.40915 c -0.887876,0.0164 -1.602144,-0.6832 -1.601501,-1.56866 l 88.23109,-144.14148 c 6.43e-4,-0.88546 0.715945,-1.6115 1.603821,-1.62792 l 184.406775,-3.40914 c 0.88788,-0.0164 1.60215,0.6832 1.60151,1.56866 z"
         id="path3581"
         style="fill:none;stroke:#8b4512;stroke-width:11.13263798;stroke-linecap:butt;stroke-linejoin:miter;stroke-miterlimit:4;stroke-opacity:1;stroke-dasharray:none;stroke-dashoffset:0" />
    </clipPath>
    <clipPath
       id="clipPath3189">
      <rect
         width="480.48779"
         height="73.170731"
         ry="0"
         x="93.902435"
         y="-402.51587"
         id="rect3191"
         style="fill:#d2691e;fill-opacity:1;fill-rule:nonzero;stroke:#8b4513;stroke-width:15;stroke-linecap:butt;stroke-linejoin:miter;stroke-miterlimit:4;stroke-opacity:1;stroke-dasharray:none;stroke-dashoffset:0" />
    </clipPath>
    <clipPath
       id="clipPath3177">
      <rect
         width="279.26828"
         height="252.43904"
         ry="2.156446"
         x="377.40759"
         y="-148.74834"
         transform="matrix(0.7581939,0.6520292,-0.6520292,0.7581939,0,0)"
         id="rect3179"
         style="fill:none;stroke:#000000;stroke-width:15;stroke-linecap:butt;stroke-linejoin:miter;stroke-miterlimit:4;stroke-opacity:1;stroke-dasharray:none;stroke-dashoffset:0" />
    </clipPath>
    <linearGradient
       id="linearGradient3587">
      <stop
         id="stop3589"
         style="stop-color:#d3d3d3;stop-opacity:1"
         offset="0" />
      <stop
         id="stop3591"
         style="stop-color:#adadad;stop-opacity:1"
         offset="1" />
    </linearGradient>
    <linearGradient
       x1="273.75134"
       y1="168.4787"
       x2="273.75134"
       y2="241.2728"
       id="linearGradient4010-7"
       xlink:href="#linearGradient4004-9"
       gradientUnits="userSpaceOnUse" />
    <linearGradient
       id="linearGradient4004-9">
      <stop
         id="stop4006-3"
         style="stop-color:#ffffff;stop-opacity:1"
         offset="0" />
      <stop
         id="stop4008-1"
         style="stop-color:#ffffff;stop-opacity:0"
         offset="1" />
    </linearGradient>
  </defs>
  <metadata
     id="metadata3494">
    <rdf:RDF>
      <cc:Work
         rdf:about="">
        <dc:format>image/svg+xml</dc:format>
        <dc:type
           rdf:resource="http://purl.org/dc/dcmitype/StillImage" />
        <dc:title></dc:title>
      </cc:Work>
    </rdf:RDF>
  </metadata>
  <g
     id="layer4">
    <rect
       width="707"
       height="480"
       x="-1.2907802"
       y="1.1205645"
       id="rect8811"
       style="fill:#000000;fill-opacity:1;fill-rule:nonzero;stroke:#000000;stroke-width:1.28499997;stroke-miterlimit:4;stroke-opacity:1;stroke-dasharray:none;stroke-dashoffset:0" />
  </g>
  <g
     id="layer6">
    <path
       d="m 249.12057,196.67375 a 112.94326,112.94326 0 1 1 -225.886523,0 112.94326,112.94326 0 1 1 225.886523,0 z"
       transform="translate(35.333333,61.538462)"
       id="path9087"
       style="fill:#ffff00;fill-opacity:1;fill-rule:nonzero;stroke:#000000;stroke-width:1.28499997;stroke-miterlimit:4;stroke-opacity:1;stroke-dasharray:none;stroke-dashoffset:0" />
  </g>
  <g
     id="layer5">
    <g
       transform="matrix(0.45918301,0,0,0.45918301,144.13415,64.041739)"
       id="g9033">
      <path
         d="m 63,269 1,0 2,0 1,0 2,-1 1,0 2,0 1,0 1,0 2,0 1,0 2,0 1,0 2,-1 1,0 2,0 1,0 1,0 1,0 1,-1 1,0 1,0 1,0 2,0 1,-1 1,0 1,0 1,0 1,-1 1,0 1,-1 1,-1 1,0 1,0 1,-1 1,0 1,-2 -1,-2 -1,-1 -1,-1 -1,-1 -1,-1 -1,-1 -1,-1 -1,-1 -1,-1 -2,-1 -1,-1 -1,0 -2,-1 -1,0 -2,-1 -2,-1 -1,0 -2,-1 -1,-1 -1,-1 -1,0 0,-1 0,-1 1,-1 0,-1 0,-2 1,-2 0,-2 1,-1 0,-2 1,-1 0,-2 1,-2 11,-4 2,-1 2,-1 2,-1 2,-1 2,-2 1,-1 2,-2 1,-2 2,-2 1,-2 1,-2 1,-2 1,-2 0,-3 1,-2 0,-2 1,-3 0,-2 0,-3 0,-3 0,-2 -1,-2 0,-3 -1,-2 -1,-2 -1,-1 -1,-2 0,-1 -1,-2 -1,-1 -1,-2 -1,-1 -1,-1 -1,-2 -1,-2 -1,-1 -1,-2 -1,-2 -1,-1 -1,-2 -1,-2 0,-2 -1,-2 0,-2 -1,-2 0,-2 0,-2 0,-2 0,-1 0,-1 0,-1 0,-1 0,-1 0,-1 1,-1 0,-1 1,0 1,0 0,-1 -1,0 0,-1 0,-4 0,-1 0,-1 0,-1 0,-1 -1,-1 0,-1 -2,-1 -2,0 -2,-1 -2,0 -2,-1 -2,-1 -2,-1 -1,-1 -1,-1 0,-1 0,-1 -1,-1 0,-1 -1,-1 1,-1 0,-1 1,0 1,-1 1,-1 1,0 1,-1 1,-1 1,-1 1,0 1,-1 1,-2 1,-1 2,-2 1,-1 1,-2 1,-1 1,-2 0,-2 1,-2 0,-1 1,-2 0,-2 0,-2 0,-2 -1,-2 0,-1 0,-1 -1,-1 0,-1 0,-1 -1,-1 -1,-2 -1,-2 -1,-2 -1,-1 -1,-2 -2,-2 -1,-1 -1,-1 -1,-1 -1,0 0,-1 -1,0 -1,-1 0,-1 -1,0 0,-1 L 79,34 76,10 76,9 75,8 75,7 74,6 73,5 72,5 72,4 70,4 69,3 68,2 66,2 65,1 l -1,0 -2,0 -1,0 -1,0 -1,0 -1,0 0,1 -1,0 -1,0 0,1 -2,1 -1,1 -2,2 -1,1 -2,2 -1,2 -1,1 -1,2 0,2 -1,1 0,1 -1,1 0,2 -1,1 0,1 -1,1 0,1 0,1 -1,1 0,1 -1,0 0,1 -1,1 0,1 -1,1 -1,0 0,1 -1,1 -1,1 -1,1 -1,0 -1,1 -1,1 -1,1 0,1 -3,1 -2,2 -2,1 -2,2 -2,2 -1,2 -2,2 -1,2 -2,2 -1,2 -1,3 0,2 -1,3 0,2 0,3 1,3 1,1 0,1 0,2 1,1 0,1 1,1 1,1 0,1 1,1 0,1 1,1 0,1 1,1 0,1 1,1 1,1 3,4 2,1 1,1 1,1 1,0 2,1 1,0 2,1 1,0 0,1 0,1 0,1 0,1 -1,0 0,1 0,1 -1,0 -1,0 0,1 -1,0 -1,0 0,1 -1,0 -1,1 -1,0 -1,0 -1,1 -1,0 -1,1 -1,1 0,1 -1,1 0,1 -1,1 0,1 0,1 0,1 0,1 1,0 0,1 1,0 5,1 -2,7 -1,2 0,1 -1,1 0,1 -1,1 0,1 -1,1 0,1 -1,1 0,2 -1,1 -1,2 -1,1 -1,2 -1,1 -1,1 -1,2 -1,1 -1,2 -1,2 -1,2 -1,1 -1,2 -1,2 -1,2 0,2 -1,2 0,3 -1,2 0,2 -1,2 0,2 0,2 0,1 0,1 0,2 1,1 0,1 0,1 0,1 1,1 0,1 0,1 1,1 0,1 1,1 0,1 1,1 0,1 1,2 1,2 2,1 1,2 2,1 2,1 1,1 2,1 1,1 1,0 1,0 1,1 1,0 1,1 1,0 1,0 1,1 1,0 1,0 1,1 1,0 0,1 1,0 0,1 0,1 1,1 0,1 1,1 1,1 0,1 0,1 1,1 0,1 1,2 0,1 0,1 0,1 1,1 0,2 0,1 0,1 0,1 0,1 0,2 -1,1 -2,0 -1,0 -1,1 -1,1 -2,0 -1,1 -1,1 -1,1 -1,0 -1,1 -1,1 -1,1 -1,1 -1,0 -1,1 -2,1 -1,1 -1,1 -1,1 -1,0 -1,1 -1,1 0,1 4,2 6,2 2,1 1,0 2,1 1,0 2,0 1,1 2,0 2,1 1,0 1,0 2,0 1,0 1,0 1,0 1,0 1,1 2,0 1,0 1,0 1,0 1,0 1,0 2,0 1,0 1,0 1,1 1,0 1,0 2,0 1,0 1,0 1,0 1,0 z"
         id="path8925"
         style="fill:#000000" />
      <path
         d="m 58,264 22,-1 1,0 0,-1 -1,-1 0,-1 1,0 1,0 0,-1 1,0 1,0 8,-3 0,-1 0,-1 1,0 1,0 0,-1 -1,0 -2,0 -1,1 -1,0 -1,1 -1,0 -1,0 -1,0 -1,1 -1,0 -1,-1 0,-1 0,-1 3,-1 1,-1 2,-1 -1,0 -1,0 -1,0 0,1 -1,0 -1,0 -1,1 -2,-1 -1,0 0,-1 1,-2 4,-1 -1,0 -1,-1 -1,-1 -2,-1 -1,0 -2,0 -1,0 -2,0 -1,0 -1,-1 -1,0 -1,0 -1,0 -1,0 -1,-1 0,-1 1,-1 7,-1 0,-2 1,0 1,-1 0,-1 1,-1 1,-1 0,-1 1,-2 0,-1 -1,0 1,-4 -1,0 0,-1 -1,0 -1,0 -1,-1 0,-1 4,-1 1,0 1,0 0,-1 1,0 1,0 1,0 1,0 1,-1 1,0 1,0 1,0 1,-1 1,0 1,0 2,-1 1,0 1,0 1,-1 1,0 0,-1 1,0 1,-1 1,0 2,-1 1,-1 1,-1 1,-1 1,0 0,-1 2,-2 1,-2 1,-1 1,-2 1,-2 1,-3 0,-2 1,-2 0,-2 0,-2 0,-3 0,-2 0,-2 0,-2 0,-3 -1,-2 0,-1 -1,-2 -1,-2 0,-2 -1,-1 -1,-2 0,-1 -1,-2 0,-1 -1,0 0,-1 -2,-1 -1,-2 -1,-2 -1,-2 -1,-2 -1,-1 -1,-2 0,-2 -1,-2 -1,-1 0,-1 0,-1 0,-1 0,-1 -1,-1 0,-1 0,-1 0,-1 0,-1 0,-1 0,-1 0,-1 0,-1 0,-2 -1,0 1,-1 0,-1 0,-1 0,-1 -1,0 0,3 0,2 0,3 0,2 1,3 0,3 1,2 0,3 1,2 1,2 1,3 1,2 1,2 1,2 1,3 2,2 0,1 1,1 0,1 1,1 0,1 1,1 0,1 1,2 0,1 1,1 0,1 0,1 0,1 1,1 0,1 0,1 1,1 0,1 0,1 0,1 0,2 0,1 0,1 -1,2 0,1 -1,1 0,1 -1,2 -1,1 0,1 -1,1 -1,1 0,1 -1,1 -1,1 -6,8 -1,1 -1,0 -1,1 -1,0 0,1 -1,0 -1,1 -1,0 -1,1 -1,0 -1,0 -1,0 -1,1 -1,0 -1,0 -1,1 -1,0 -2,0 -1,0 -1,0 -1,0 -1,0 -1,0 -1,0 -1,0 -1,0 -2,0 -1,0 -1,0 -1,0 -1,0 -1,0 -18,-1 -16,-4 -1,1 0,-1 -1,0 -1,0 -1,-1 -1,0 -1,0 0,-1 -1,0 -1,0 -1,0 0,-1 -1,0 -1,-1 0,-1 -1,0 -2,-2 -2,-1 -2,-2 -2,-1 -2,-2 -2,-2 -1,-2 -1,-2 0,-2 0,-2 0,-1 0,-2 0,-1 0,-2 -1,-1 0,-2 1,-2 0,-2 0,-2 1,-3 0,-2 1,-2 0,-2 1,-2 1,-2 1,-2 1,-2 1,-2 1,-2 1,-2 1,-1 1,-2 1,-2 1,-2 2,-2 1,-2 1,-1 1,-2 1,-2 2,-2 0,-1 0,-1 1,-1 0,-1 0,-1 0,-1 1,-1 -1,-1 -1,0 -1,1 0,1 0,1 -1,1 0,1 -1,1 0,1 0,1 -1,2 -1,1 0,1 -1,2 0,1 -1,1 -1,1 0,2 -1,1 -1,1 -1,1 0,1 -1,2 -1,1 0,1 -1,1 -1,1 -1,1 0,2 -1,1 0,1 0,2 -1,1 -1,1 0,1 -1,2 0,1 -1,1 0,2 -1,1 0,2 -1,1 0,2 -1,2 0,2 -1,2 0,2 0,1 1,2 0,2 0,2 1,2 0,1 1,2 1,2 1,1 1,2 1,1 0,1 1,0 0,1 1,0 0,1 1,0 0,1 1,0 0,1 1,0 1,0 1,1 1,0 1,1 1,0 1,1 1,0 2,0 1,1 2,0 1,1 1,1 1,0 1,1 1,1 2,1 1,1 1,0 1,1 1,1 1,1 2,0 0,1 1,0 1,0 1,0 1,1 3,0 0,1 0,1 -1,1 -6,-1 0,1 1,0 0,1 0,1 0,3 3,2 1,0 0,1 -1,0 0,1 -2,0 0,1 1,0 3,0 0,1 0,1 -3,1 0,1 10,0 7,0 0,1 0,1 -1,0 -2,0 -2,1 -1,0 -2,0 -2,0 -2,0 -1,0 0,1 -1,0 -2,0 -2,0 -1,0 -2,0 -2,1 -1,0 -2,1 -1,0 -1,1 -1,0 0,1 -1,0 3,1 1,1 1,0 1,0 1,1 -1,1 -1,0 -2,0 -1,0 -1,0 -1,0 -1,0 -2,0 -1,1 1,1 1,0 1,1 1,0 1,0 1,1 1,0 1,0 2,0 1,0 1,0 1,0 1,0 1,0 1,0 1,0 2,0 2,0 1,0 2,1 1,0 2,0 1,0 1,0 1,0 1,0 1,0 1,0 0,1 -1,1 -2,1 -2,0 -1,0 -2,0 -2,0 -2,0 -1,0 -2,0 -1,0 -1,0 -1,0 -1,0 -1,0 -1,0 -1,0 -1,0 -1,0 -2,0 -1,0 -1,0 -1,0 -1,0 -1,0 1,0 1,0 1,1 1,0 1,0 2,1 1,0 1,1 1,0 1,0 2,0 1,1 1,0 1,0 1,0 1,0 1,1 10,0 z"
         id="path8927"
         style="fill:#ffff47" />
      <ellipse
         cx="91"
         cy="260"
         rx="9"
         ry="3"
         id="ellipse8929"
         style="fill:#ffffff" />
      <path
         d="m 65,213 2,0 1,0 2,0 1,0 2,0 2,0 1,0 2,0 1,0 2,0 1,0 2,-1 1,0 2,-1 1,0 1,-1 2,-1 1,0 2,-1 1,-1 1,-1 1,-1 1,-1 1,-2 1,0 1,-1 0,-1 1,-1 1,-1 0,-1 1,0 0,-1 1,-2 1,-1 1,-2 0,-1 1,-2 0,-1 1,-2 0,-2 0,-2 0,-1 0,-2 0,-2 -1,-1 0,-2 -1,-2 0,-1 -1,-1 0,-1 -1,-1 -1,-1 0,-1 -1,-1 0,-1 -1,-1 -2,-1 0,-1 -1,-2 -1,-1 -1,-2 0,-1 -1,-2 0,-2 -1,-1 0,-2 -1,-2 0,-1 -1,-2 0,-2 0,-2 -1,-1 0,-2 0,-2 0,-1 0,-2 -1,-2 0,-1 1,-2 -1,0 -2,0 -1,1 -1,0 -1,0 -1,0 -1,1 -1,0 -2,0 -1,0 -1,0 -2,0 -1,0 -1,0 -1,0 -2,1 0,1 1,2 0,1 0,2 0,2 0,1 1,2 0,1 1,3 1,2 2,2 2,2 1,2 2,2 2,2 3,1 2,2 2,2 1,2 2,2 2,2 1,2 1,3 1,3 0,1 0,1 0,2 0,1 0,1 0,2 0,1 0,1 0,1 0,2 0,1 -1,1 0,2 -1,1 0,1 -1,1 0,3 -1,2 -2,2 -1,1 -2,2 -2,1 -2,2 -2,1 -1,1 -1,0 -2,1 -1,0 -2,0 -1,1 -2,0 -2,0 -1,0 -1,0 -1,1 -1,0 -1,0 -1,0 -1,0 -2,0 -1,0 -1,0 -1,0 -1,0 -1,0 -1,0 -1,0 -1,0 0,1 9,0 z"
         id="path8931"
         style="fill:#ffffff" />
      <ellipse
         cx="41"
         cy="208"
         rx="14"
         ry="4"
         id="ellipse8933"
         style="fill:#ffffff" />
      <ellipse
         cx="64"
         cy="205"
         rx="15"
         ry="3"
         id="ellipse8935"
         style="fill:#000000" />
      <path
         d="m 82,202 -1,3 3,-1 0,-1 1,0 0,-1 1,0 -4,0 z"
         id="path8937"
         style="fill:#000000" />
      <path
         d="m 41,202 1,0 1,1 0,-1 -2,0 z"
         id="path8939"
         style="fill:#000000" />
      <ellipse
         cx="68"
         cy="202"
         rx="21"
         ry="4"
         id="ellipse8941"
         style="fill:#0d0d0d" />
      <path
         d="m 39,198 0,2 0,1 1,0 0,1 1,0 1,0 1,1 0,-5 -4,0 z"
         id="path8943"
         style="fill:#0d0d0d" />
      <ellipse
         cx="64"
         cy="198"
         rx="27"
         ry="4"
         id="ellipse8945"
         style="fill:#191919" />
      <path
         d="m 25,194 1,1 1,0 0,1 1,1 0,-1 -1,-1 0,-1 -2,0 z"
         id="path8947"
         style="fill:#191919" />
      <path
         d="m 32,194 1,1 1,0 0,-1 -2,0 z"
         id="path8949"
         style="fill:#191919" />
      <ellipse
         cx="65"
         cy="194"
         rx="28"
         ry="4"
         id="ellipse8951"
         style="fill:#292929" />
      <circle
         cx="26"
         cy="193"
         r="2"
         id="circle8953"
         style="fill:#292929" />
      <path
         d="m 31,190 0,1 0,1 0,1 1,0 0,1 1,1 1,0 1,-5 -4,0 z"
         id="path8955"
         style="fill:#292929" />
      <ellipse
         cx="62"
         cy="190"
         rx="31"
         ry="4"
         id="ellipse8957"
         style="fill:#363636" />
      <path
         d="m 19,186 0,1 0,-1 z"
         id="path8959"
         style="fill:#363636" />
      <ellipse
         cx="25"
         cy="190"
         rx="2"
         ry="4"
         id="ellipse8961"
         style="fill:#363636" />
      <ellipse
         cx="62"
         cy="186"
         rx="31"
         ry="4"
         id="ellipse8963"
         style="fill:#424242" />
      <path
         d="m 18,182 0,1 0,1 1,1 0,1 0,1 1,-5 -2,0 z"
         id="path8965"
         style="fill:#424242" />
      <circle
         cx="26"
         cy="186"
         r="3"
         id="circle8967"
         style="fill:#424242" />
      <ellipse
         cx="63"
         cy="182"
         rx="32"
         ry="4"
         id="ellipse8969"
         style="fill:#4f4f4f" />
      <path
         d="m 19,186 0,-1 -1,-1 0,-1 0,-1 0,-1 0,-1 0,-1 0,-1 3,0 -2,8 z"
         id="path8971"
         style="fill:#4f4f4f" />
      <circle
         cx="26"
         cy="182"
         r="3"
         id="circle8973"
         style="fill:#4f4f4f" />
      <ellipse
         cx="59"
         cy="178"
         rx="35"
         ry="3"
         id="ellipse8975"
         style="fill:#5c5c5c" />
      <circle
         cx="20"
         cy="178"
         r="2"
         id="circle8977"
         style="fill:#5c5c5c" />
      <ellipse
         cx="60"
         cy="174"
         rx="35"
         ry="3"
         id="ellipse8979"
         style="fill:#6b6b6b" />
      <circle
         cx="22"
         cy="174"
         r="4"
         id="circle8981"
         style="fill:#6b6b6b" />
      <ellipse
         cx="57"
         cy="171"
         rx="38"
         ry="4"
         id="ellipse8983"
         style="fill:#787878" />
      <ellipse
         cx="57"
         cy="167"
         rx="37"
         ry="4"
         id="ellipse8985"
         style="fill:#878787" />
      <ellipse
         cx="57"
         cy="163"
         rx="35"
         ry="4"
         id="ellipse8987"
         style="fill:#949494" />
      <ellipse
         cx="83"
         cy="159"
         rx="7"
         ry="4"
         id="ellipse8989"
         style="fill:#a1a1a1" />
      <ellipse
         cx="52"
         cy="159"
         rx="27"
         ry="4"
         id="ellipse8991"
         style="fill:#a1a1a1" />
      <ellipse
         cx="81"
         cy="156"
         rx="6"
         ry="3"
         id="ellipse8993"
         style="fill:#adadad" />
      <ellipse
         cx="52"
         cy="155"
         rx="22"
         ry="4"
         id="ellipse8995"
         style="fill:#adadad" />
      <path
         d="m 78,155 -1,0 0,-1 -1,0 0,-1 -1,0 0,1 1,1 2,0 z"
         id="path8997"
         style="fill:#bababa" />
      <ellipse
         cx="53"
         cy="151"
         rx="17"
         ry="4"
         id="ellipse8999"
         style="fill:#bababa" />
      <ellipse
         cx="54"
         cy="147"
         rx="14"
         ry="4"
         id="ellipse9001"
         style="fill:#c9c9c9" />
      <path
         d="m 68,147 -1,-1 0,-1 0,-1 -1,3 2,0 z"
         id="path9003"
         style="fill:#d6d6d6" />
      <path
         d="m 64,147 -1,0 0,-1 0,-1 -1,-1 -1,3 3,0 z"
         id="path9005"
         style="fill:#d6d6d6" />
      <path
         d="m 58,139 0,8 -15,0 0,-1 1,-1 1,-1 0,-1 1,-1 0,-1 1,-1 0,-1 11,0 z"
         id="path9007"
         style="fill:#d6d6d6" />
      <ellipse
         cx="51"
         cy="139"
         rx="6"
         ry="3"
         id="ellipse9009"
         style="fill:#e3e3e3" />
      <ellipse
         cx="52"
         cy="136"
         rx="5"
         ry="3"
         id="ellipse9011"
         style="fill:#f2f2f2" />
      <ellipse
         cx="54"
         cy="134"
         rx="4"
         ry="1"
         id="ellipse9013"
         style="fill:#ffffff" />
      <path
         d="m 24,204 2,0 -2,-1 -1,-2 -1,-1 -1,-1 -1,-1 -1,-2 -1,-1 0,-1 -1,-2 -1,-1 0,-2 -1,-1 0,-2 0,-2 0,-1 0,-2 0,-1 0,-2 0,-1 0,-1 1,-1 0,-1 0,-1 0,-2 1,-1 0,-1 1,-1 0,-1 1,-1 0,-1 1,-1 1,-1 2,-3 1,-1 1,0 1,-1 1,-1 1,-1 1,0 1,-1 1,-1 2,-1 2,-2 2,-1 2,-2 1,-2 1,-2 2,-2 1,-2 0,-1 0,-1 1,-2 0,-1 0,-1 0,-1 0,-1 0,-1 0,-1 1,-1 0,-1 -1,0 -11,-2 0,1 0,1 -1,1 0,1 0,1 -1,1 0,1 0,1 -2,3 -2,3 -3,3 -2,3 -2,3 -2,4 -2,3 -2,4 -1,3 -2,4 -1,3 0,4 -1,4 0,4 1,4 0,4 1,1 0,1 1,1 0,1 1,1 0,1 1,0 0,1 1,0 0,1 1,0 0,1 1,1 6,4 z"
         id="path9015"
         style="fill:#ffffff" />
      <path
         d="m 59,199 1,0 1,0 0,-1 1,0 1,0 1,0 1,0 1,0 1,0 1,-1 1,0 1,0 1,-1 1,-1 0,-2 0,-2 0,-2 0,-1 0,-2 -1,-2 0,-2 -2,-1 -1,-1 0,-1 -1,0 -1,0 -1,-1 -1,0 -1,0 0,-1 -1,0 0,-1 -1,-1 0,-1 0,-1 0,-1 0,-1 0,-1 0,-1 -1,0 0,-1 -1,0 0,1 0,1 0,1 0,1 -1,0 0,1 -1,0 0,1 -1,0 0,-1 -1,1 -1,1 -1,1 -2,2 -1,1 -1,2 0,1 -1,2 1,2 -1,1 0,1 -1,1 0,1 0,1 0,1 1,1 0,1 1,1 1,0 0,1 1,0 1,0 1,1 1,1 5,1 z"
         id="path9017"
         style="fill:#000000" />
      <path
         d="m 58,198 1,-1 1,0 1,0 1,0 1,-1 1,0 1,0 1,1 1,-1 1,0 1,0 0,-1 1,0 0,-1 0,-1 1,0 0,-1 0,-1 0,-1 0,-2 0,-1 -1,-1 0,-1 -1,-1 0,-1 -1,-1 -1,-1 -6,-2 -2,-5 0,1 -1,0 -1,0 -1,0 0,1 -1,0 0,1 -1,0 0,1 -1,0 0,1 -1,0 0,1 -1,1 0,1 0,1 0,1 0,1 0,1 0,1 -1,0 0,1 -1,0 0,1 0,1 0,1 0,1 1,1 0,1 8,4 z"
         id="path9019"
         style="fill:#ffff47" />
      <path
         d="m 55,126 19,-2 1,0 1,0 1,0 1,0 1,0 1,0 1,0 1,0 1,0 1,0 1,0 1,-1 1,0 1,0 1,0 1,-1 7,-2 1,0 0,-1 -1,0 1,-1 0,-1 0,-3 -1,1 -2,0 -1,0 -2,0 -1,1 -2,0 -1,0 -2,0 -1,0 -2,1 -2,0 -1,0 -2,0 -1,0 -2,0 -2,0 0,1 -1,0 -1,0 -1,-1 -1,0 0,-1 1,0 2,-1 1,0 2,0 1,-1 2,0 2,0 1,0 2,0 2,-1 1,0 2,0 1,0 2,-1 2,0 1,-1 -7,-2 -1,1 -2,0 -1,0 -1,1 -2,0 -1,0 -1,0 -2,1 -1,0 -1,0 -2,0 -1,0 -1,0 -2,0 -1,0 -1,1 -1,0 -2,0 -1,0 -1,0 -1,0 -2,0 -1,0 -1,0 -1,0 -1,0 -1,0 0,-1 -1,0 0,-1 1,-1 9,0 1,0 1,0 1,-1 1,0 2,0 1,0 1,0 1,0 1,-1 1,0 2,0 1,-1 1,0 1,0 1,-1 1,0 2,-2 -2,-3 -1,-1 -2,2 -1,0 -2,0 -1,0 -2,0 -1,0 -1,0 -2,1 -1,1 -1,-1 -1,0 -1,0 -1,0 -1,0 -2,0 -1,0 -1,0 -1,0 -1,0 -1,0 -1,-1 0,-1 1,-1 1,0 1,0 1,0 2,0 1,0 1,0 1,0 2,0 1,0 1,0 2,0 1,0 1,-1 1,0 2,0 0,-3 -2,-5 -1,0 0,-1 -1,0 -1,-1 -1,0 -1,-1 -1,0 -1,0 -1,0 -1,0 -1,0 -1,0 -1,0 -1,0 -1,0 -2,0 0,1 -2,0 -1,0 -1,1 -1,0 -1,1 -2,0 -1,1 -1,1 -1,1 -2,1 -1,1 0,1 0,1 3,1 1,0 0,1 0,1 -1,0 -1,0 -1,0 -1,0 -1,0 0,-1 -1,0 -1,1 -2,5 1,0 1,1 1,0 1,0 1,1 1,0 1,0 0,1 1,0 0,1 -1,0 -1,0 0,1 -1,0 -1,0 0,-1 -1,0 -1,0 -1,0 -1,0 -1,0 -1,-1 -5,3 1,1 1,0 1,0 1,0 1,0 1,0 1,1 1,0 1,0 1,0 1,0 1,0 1,1 0,1 -1,0 0,1 -10,-1 -1,0 -1,-1 -2,0 -1,0 -1,-1 -1,0 -1,0 0,1 -2,3 1,1 1,1 2,1 1,0 2,1 2,0 1,0 2,1 2,0 1,0 2,1 2,0 1,0 2,0 2,1 1,0 2,0 7,1 z"
         id="path9021"
         style="fill:#ffff47" />
      <path
         d="m 32,99 2,0 0,-1 1,0 -1,-1 -1,0 -1,-1 -2,-1 -1,0 -1,-1 -1,0 0,-1 -2,-1 -1,-2 -1,-1 -1,-2 -1,-1 -1,-2 0,-1 -1,-2 0,-1 -1,-2 0,-2 0,-2 -1,-1 0,-2 0,-2 0,-1 1,-2 0,-2 0,-1 1,-2 0,-1 1,-1 1,-2 1,-1 1,-1 1,0 0,-1 1,0 0,-1 1,0 1,0 1,-1 1,-1 1,-1 1,-1 2,-1 1,-1 1,-1 1,-1 2,-1 1,-2 1,-1 1,-1 1,-1 0,-1 0,-1 1,0 0,-1 0,-1 1,-1 1,-2 1,-2 1,-1 0,-2 1,-1 1,-2 1,-2 0,-1 1,-2 1,-1 1,-1 1,-2 1,-1 2,-1 1,-1 2,0 1,0 1,0 1,0 1,0 1,1 1,0 1,1 2,1 0,2 1,1 0,1 1,2 0,2 0,1 0,2 -1,2 0,1 0,2 0,2 0,2 0,1 1,2 0,1 1,1 0,1 1,1 1,0 1,0 0,1 1,1 2,1 1,1 1,1 1,0 2,1 1,1 1,1 1,0 1,1 1,1 1,1 1,1 1,1 0,2 1,1 1,1 0,1 1,2 0,1 0,2 0,1 0,1 0,2 0,1 0,2 -1,2 0,2 -1,1 -1,2 -1,1 -1,2 0,1 -1,2 -2,1 -1,1 -1,2 -2,1 -1,1 -1,1 -2,1 0,1 1,0 2,-1 2,-1 1,0 1,-1 2,-1 1,-1 1,-1 1,-1 1,-1 0,-1 1,-1 1,-1 1,-2 1,-1 0,-2 1,-1 0,-2 1,-1 0,-2 0,-2 1,-1 0,-2 0,-2 -1,-1 0,-2 0,-1 -1,-2 0,-1 -1,-2 -1,-2 -1,-1 -1,-1 -1,-2 -1,-1 -1,-1 -2,-1 0,-1 -1,-1 -1,0 -1,-1 -1,-1 -1,0 0,-1 -1,0 0,-1 -1,0 0,-1 -1,0 0,-1 -1,-2 -1,-1 0,-2 -1,-1 0,-2 -1,-2 0,-1 0,-1 0,-1 0,-1 0,-1 0,-1 0,-1 0,-1 0,-1 -1,-2 0,-1 0,-2 -1,-2 0,-1 -1,-1 0,-2 -1,0 0,-1 -1,0 -1,-1 -1,0 -1,-1 -1,0 -2,-1 -1,0 -1,0 -2,0 -1,1 -1,0 0,1 -1,0 -1,1 -1,1 -1,1 -1,0 -1,1 0,1 -1,1 -1,1 0,1 -1,1 0,1 -1,1 0,1 -1,1 0,1 -1,2 -1,1 -1,2 0,1 -1,2 -1,1 -1,2 0,1 -1,1 -1,1 -1,1 -1,1 -1,1 -2,1 -1,1 -1,1 -1,1 -1,1 -1,1 -1,1 -1,1 -1,1 -1,0 -1,1 -1,0 0,1 -1,1 -5,5 -1,0 -2,6 -1,2 0,1 -1,0 0,1 0,1 0,1 0,1 0,1 0,1 0,1 0,1 1,1 0,1 0,1 1,1 0,1 1,2 0,1 0,1 1,1 0,1 1,2 1,1 0,1 1,2 1,1 1,1 1,1 1,1 1,1 1,1 1,1 1,1 2,0 1,1 1,0 1,1 z"
         id="path9023"
         style="fill:#ffff47" />
      <path
         d="m 36,94 1,0 1,-1 1,-1 0,-1 1,-1 1,-1 1,-1 1,0 1,-1 2,-1 1,0 1,-1 1,0 2,-1 1,0 1,-1 2,0 1,0 2,0 1,0 2,0 2,0 1,0 1,1 2,0 1,0 1,1 2,1 1,0 1,1 1,1 1,1 1,1 1,-1 1,0 1,-1 1,-1 0,-1 1,-1 1,-1 1,-1 1,-1 1,-1 1,-1 0,-1 1,-2 0,-1 0,-1 1,-2 0,-1 0,-1 0,-2 0,-1 0,-1 0,-2 0,-1 0,-2 -1,-2 -1,-2 -2,-2 -1,-1 -2,-2 -2,-1 -2,-2 -2,-2 -1,0 -1,-1 -1,-1 -1,-1 -1,-1 -1,0 -1,-1 0,-1 -1,-1 0,-1 -1,-1 0,-2 0,-1 0,-1 0,-1 0,-1 0,-1 0,-1 0,-2 0,-1 0,-1 0,-1 0,-1 0,-1 0,-2 0,-1 0,-1 -1,-1 0,-1 -1,-1 -1,0 0,-1 -1,0 -2,0 -2,1 -2,1 -1,2 -1,1 -1,2 -1,2 -1,2 -1,2 0,2 -1,2 -1,1 0,2 -1,1 -1,2 -1,2 -1,1 -2,2 -2,1 -1,2 -2,1 -2,2 -2,1 -1,1 -2,2 -2,1 -1,2 -1,2 -2,1 -1,2 -1,2 0,2 -1,3 0,1 0,2 0,1 1,1 0,2 0,1 0,2 1,1 0,1 1,1 0,2 1,1 1,1 0,1 1,1 1,1 0,1 1,0 0,1 1,0 6,3 z"
         id="path9025"
         style="fill:#ffffff" />
    </g>
  </g>
  <g
     transform="translate(0,-3.095424)"
     id="layer7"
     style="display:inline">
    <g
       transform="matrix(0.24919265,0,0,0.24919265,119.85236,149.6766)"
       id="layer1-8">
      <g
         transform="matrix(1.9924326,0,0,1.9924326,-1746.372,173.1057)"
         id="g8628">
        <path
           d="m 1060.9937,231.37859 -4.6502,17.17013 c 0,0 -0.7154,15.38156 -0.7154,18.24324 0,2.86167 1.0731,8.2273 1.0731,8.2273 l 25.7552,1.43084 0.7154,-18.6009 c 0,0 15.7392,3.21941 17.1701,1.43084 1.4308,-1.78857 2.1462,20.74719 2.1462,20.74719 l 21.4627,-2.1463 c 0,0 6.7965,-13.23527 5.7233,-19.31635 -1.0731,-6.08108 -5.0079,-23.96659 -5.0079,-23.96659 l -6.4388,-8.2273 z"
           id="path5994"
           style="opacity:0.98000004;fill:#2e41ff;fill-opacity:1;stroke:#000000;stroke-width:1.52192521;stroke-linecap:butt;stroke-linejoin:miter;stroke-miterlimit:4;stroke-opacity:1;stroke-dasharray:none" />
        <path
           d="m 1121.5835,289.86952 c 0,0 7.8526,-6.54382 12.1061,-7.52539 4.2535,-0.98156 13.742,1.30871 16.6867,4.58062 2.9447,3.27191 9.8157,15.05077 3.2719,17.66833 -6.5438,2.61748 -21.5946,3.27191 -31.7375,1.3087 -10.1429,-1.96313 -23.2305,-2.61748 -21.5945,-11.77878 1.6359,-9.16139 1.6359,-17.99548 7.5253,-19.30426 5.8895,-1.30878 16.0324,-3.59912 18.3227,-1.30878 2.2903,2.29035 8.1798,6.87104 7.1982,8.17974 -0.9816,1.30878 -0.9816,1.30878 -0.9816,1.30878"
           id="path5996"
           style="opacity:0.98000004;fill:#662f1f;fill-opacity:1;stroke:#000000;stroke-width:1.52192521;stroke-linecap:butt;stroke-linejoin:round;stroke-miterlimit:4;stroke-opacity:1;stroke-dasharray:none;stroke-dashoffset:0;display:inline" />
        <path
           d="m 1064.1632,287.00548 c 0,0 -7.8525,-6.54382 -12.106,-7.52538 -4.2535,-0.98157 -13.742,1.30878 -16.6867,4.58069 -2.9447,3.27191 -9.8157,15.05077 -3.2719,17.66825 6.5438,2.61756 21.5945,3.27192 31.7375,1.30878 10.1429,-1.96313 23.2305,-2.61755 21.5945,-11.77886 -1.6359,-9.1613 -1.6359,-17.99547 -7.5254,-19.30425 -5.8894,-1.3087 -16.0323,-3.59905 -18.3226,-1.3087 -2.2904,2.29027 -8.1798,6.87096 -7.1982,8.17974 0.9816,1.30877 0.9816,1.30877 0.9816,1.30877"
           id="path5998"
           style="opacity:0.98000004;fill:#662f1f;fill-opacity:1;stroke:#000000;stroke-width:1.52192521;stroke-linecap:butt;stroke-linejoin:round;stroke-miterlimit:4;stroke-opacity:1;stroke-dasharray:none;stroke-dashoffset:0;display:inline" />
        <path
           d="m 1058.2231,231.37859 c 0,0 5.3657,9.30048 28.9746,7.15426 23.6089,-2.14629 35.4133,-2.14629 36.8441,-6.79654 1.4309,-4.65024 -0.3577,-39.70581 -0.3577,-39.70581 l 15.0239,3.21941 10.7313,-5.3657 -22.5358,-22.53576 -80.1271,2.86168 -4.6502,17.17013 -1.7886,10.3736 19.6741,13.23527 z"
           id="path6000"
           style="opacity:0.98000004;fill:#ff130f;fill-opacity:1;stroke:#000000;stroke-width:1.52192521;stroke-linecap:butt;stroke-linejoin:miter;stroke-miterlimit:4;stroke-opacity:1;stroke-dasharray:none" />
        <path
           d="m 1071.6783,21.710031 c 2.6996,-6.167641 6.8828,-11.679809 12.0966,-15.9394268 1.8052,-1.4748062 3.7433,-2.8081242 5.8678,-3.7672069 2.1246,-0.9590826 4.4466,-1.53592476 6.7765,-1.4631226 2.3299,0.0728022 4.6666,0.8222153 6.4779,2.2894011 1.8114,1.4671858 3.0535,3.6776989 3.161,6.0062379 0.08,1.7401483 -0.4501,3.4497243 -0.5584,5.1883583 -0.054,0.869317 3e-4,1.756694 0.2824,2.580741 0.2821,0.824048 0.8074,1.583356 1.5493,2.039708 0.6705,0.412431 1.4856,0.557469 2.2696,0.486365 0.7839,-0.0711 1.539,-0.348567 2.2294,-0.726745 1.3807,-0.756355 2.5044,-1.898842 3.7776,-2.824853 2.5034,-1.820719 5.575,-2.777393 8.6628,-2.995321 3.0877,-0.217927 6.1959,0.27666 9.1638,1.156151 1.7314,0.513075 3.4217,1.156048 5.0933,1.83917 3.9695,1.622179 7.9557,3.555186 10.8233,6.743574 0.9365,1.041273 1.7591,2.250951 2.0041,3.629821 0.1224,0.689435 0.094,1.411401 -0.1318,2.074346 -0.2254,0.662945 -0.6536,1.263385 -1.2357,1.652515 -0.3172,0.212005 -0.6725,0.35865 -1.0115,0.533586 -0.339,0.174936 -0.671,0.386211 -0.8985,0.692477 -0.307,0.413336 -0.3888,0.973219 -0.257,1.470948 0.1317,0.497728 0.4637,0.931126 0.8838,1.228746 0.4201,0.297621 0.9239,0.464977 1.4349,0.527885 0.511,0.06291 1.0303,0.02477 1.5378,-0.06209 1.015,-0.173709 1.9908,-0.540141 3.0093,-0.691896 0.5092,-0.07588 1.0303,-0.09717 1.5382,-0.01226 0.5078,0.08491 1.003,0.27978 1.403,0.603972 0.5836,0.473001 0.9213,1.175528 1.2733,1.83917 1.839,3.467452 4.5021,6.413707 6.8214,9.580032 2.3194,3.166325 4.3601,6.735641 4.6385,10.650691 0.1475,2.073822 -0.2202,4.19203 -1.1289,6.062004 -0.9087,1.869974 -2.3647,3.482126 -4.1721,4.509612 -1.8074,1.027486 -3.9634,1.454036 -6.0149,1.116959 -2.0516,-0.337077 -3.9792,-1.45059 -5.2373,-3.105754 -0.6948,-0.914048 -1.1896,-1.981882 -1.9896,-2.80538 -0.4001,-0.411748 -0.879,-0.758668 -1.4242,-0.938401 -0.5452,-0.179734 -1.161,-0.180925 -1.6795,0.06544 -0.3643,0.1731 -0.6693,0.462604 -0.8774,0.808159 -0.208,0.345555 -0.3206,0.745349 -0.3423,1.148113 -0.044,0.805527 0.2727,1.600129 0.748,2.251993 0.9504,1.303727 2.4647,2.0592 3.655,3.148341 1.9511,1.785236 2.9648,4.471579 2.9578,7.116139 -0.01,2.64456 -0.9747,5.234224 -2.4726,7.413702 -2.9957,4.358957 -7.8625,6.991229 -12.5818,9.379299 -5.9105,2.990818 -12.0182,5.895008 -18.589,6.733612 -3.2855,0.419302 -6.6611,0.304799 -9.8552,-0.571118 -3.1941,-0.875916 -6.202,-2.534157 -8.4822,-4.936355 -1.0869,-1.145058 -2.0002,-2.445059 -3.0831,-3.593941 -1.0828,-1.148882 -2.3852,-2.167475 -3.9202,-2.536601 -1.4233,-0.34227 -2.9507,-0.09071 -4.2754,0.532402 -1.3247,0.623108 -2.4596,1.598996 -3.4226,2.701531 -1.9261,2.205069 -3.1961,4.909922 -5.0352,7.187982 -3.4661,4.293292 -8.7469,6.788932 -14.1217,8.037252 -5.3747,1.24831 -10.9343,1.38076 -16.4382,1.77156 -2.7892,0.19804 -5.5805,0.46393 -8.3758,0.39153 -2.7953,-0.0724 -5.6165,-0.4947 -8.1774,-1.6176 -4.6765,-2.05056 -8.0833,-6.25169 -10.5583,-10.71804 -2.4751,-4.466353 -4.1983,-9.314904 -6.6316,-13.804129 -0.8024,-1.480375 -1.6944,-2.954628 -2.0198,-4.606747 -0.1627,-0.826059 -0.1766,-1.690135 0.04,-2.503673 0.2168,-0.813539 0.6742,-1.573947 1.343,-2.085432 0.6022,-0.460563 1.3542,-0.710493 1.91,-1.226063 0.4967,-0.460719 0.8005,-1.114692 0.8686,-1.788722 0.068,-0.674031 -0.094,-1.363797 -0.422,-1.956324 -0.3284,-0.592526 -0.819,-1.088889 -1.3881,-1.456516 -0.569,-0.367627 -1.2149,-0.608951 -1.8791,-0.742306 -1.3284,-0.26671 -2.7066,-0.105398 -4.0329,0.171608 -1.3263,0.277006 -2.6296,0.668746 -3.9698,0.86778 -4.0455,0.600794 -8.3188,-0.6698 -11.41904,-3.337295 -3.10023,-2.667495 -4.989,-6.675602 -5.1342,-10.762885 -0.0726,-2.044423 0.26754,-4.102401 0,-6.130543 -0.16284,-1.234459 -0.54886,-2.436287 -0.63666,-3.678341 -0.1264,-1.788087 0.38154,-3.588949 1.27124,-5.145117 0.8897,-1.556169 2.14757,-2.879501 3.54797,-3.998478 2.8008,-2.237956 6.14539,-3.672493 9.18739,-5.569693 1.9082,-1.190106 3.7414,-2.584483 5.8949,-3.232591 1.0768,-0.324054 2.2271,-0.450317 3.3325,-0.243906 1.1053,0.20641 2.1624,0.762777 2.8692,1.637326 0.4692,0.580556 0.7756,1.282858 1.2733,1.839171 0.6304,0.704633 1.5476,1.130597 2.4892,1.215865 0.9416,0.08527 1.9011,-0.159494 2.7185,-0.634669 0.8174,-0.475175 1.4951,-1.173589 1.9981,-1.974103 0.5031,-0.800514 0.8356,-1.701282 1.0342,-2.625648 0.3973,-1.848733 0.2653,-3.76588 0.1032,-5.649853 -0.1622,-1.883974 -0.3521,-3.78873 -0.067,-5.657987 0.5593,-3.6611003 2.976,-6.9078545 6.1294,-8.8500681 3.1535,-1.9422136 6.9741,-2.6481797 10.6681,-2.3833395 3.6941,0.2648402 7.2753,1.4561672 10.6076,3.0723891 3.3323,1.6162219 6.4398,3.654376 9.5213,5.7088165 2.1295,1.419706 4.2517,2.850188 6.3667,4.291372"
           id="path6002"
           style="opacity:0.98000004;fill:#ffff00;fill-opacity:1;stroke:#000000;stroke-width:1.5505389;stroke-linecap:butt;stroke-linejoin:miter;stroke-miterlimit:4;stroke-opacity:1;stroke-dasharray:none;display:inline" />
        <path
           d="m 1020.6683,146.2013 c 0,0 -2.2187,5.76879 -10.2063,1.77503 -7.9875,-3.99376 -17.30629,-16.86256 -16.41878,-24.85008 0.8875,-7.98759 6.21248,-18.63764 10.20628,-18.63764 3.9938,0 8.8751,6.21257 8.8751,6.21257 0,0 0.4437,-25.737656 10.65,-36.831425 10.2063,-11.093845 29.2876,-27.956396 47.4815,-30.175134 18.1938,-2.218739 41.8558,-0.785846 59.019,9.318748 10.3523,6.094853 17.1096,17.512945 22.1876,28.400189 3.0044,6.441472 3.9938,19.081292 4.4375,20.856312 0.4438,1.77502 0.4438,5.32506 0.4438,5.32506 0,0 9.7625,-9.318822 12.425,-0.88751 2.6625,8.43124 4.6409,18.05498 2.2188,26.62509 -1.6978,6.00712 -3.9938,14.64382 -11.0938,15.08761 -7.1001,0.44372 -7.9876,-2.66253 -7.9876,-2.66253 0,0 -8.5106,17.92614 -15.975,23.96256 -13.1137,10.605 -35.0564,18.63764 -47.0377,18.63764 -11.9814,0 -39.9377,-10.65005 -42.6002,-12.42507 -13.9104,-10.66223 -20.0595,-15.41725 -26.6252,-29.73142 z"
           id="path6004"
           style="opacity:0.98000004;fill:#f7ebe6;fill-opacity:1;stroke:#000000;stroke-width:1.52192521;stroke-linecap:butt;stroke-linejoin:miter;stroke-miterlimit:4;stroke-opacity:1;stroke-dasharray:none" />
        <path
           d="m 1086.2977,105.65303 c 0,0 -6.8379,-2.85064 -9.8031,-1.4004 -3.3808,1.6535 -5.8585,6.04829 -5.6017,9.80303 0.2611,3.81927 3.5678,7.41177 7.0022,9.10286 1.4658,0.72177 4.9015,0 4.9015,0"
           id="path6006"
           style="opacity:0.98000004;fill:#f7ebe6;fill-opacity:1;stroke:#000000;stroke-width:1.52192521;stroke-linecap:butt;stroke-linejoin:round;stroke-miterlimit:4;stroke-opacity:1;stroke-dasharray:none;stroke-dashoffset:0;display:inline" />
        <path
           d="m 1049.467,103.51275 c -5.6667,-6.057796 -5.2974,-17.31289 -1.773,-24.821992 4.634,-9.87311 15.9329,-21.355578 26.595,-19.059754 6.3422,1.365623 9.8875,10.357385 9.7515,16.843526 -0.2423,11.555978 -8.1248,24.40422 -18.6165,29.25445 -4.8744,2.25343 -12.2885,1.70547 -15.957,-2.21623 z"
           id="path6008"
           style="opacity:0.98000004;fill:#ffffff;fill-opacity:1;stroke:#000000;stroke-width:1.52192521;stroke-linecap:butt;stroke-linejoin:miter;stroke-miterlimit:4;stroke-opacity:1;stroke-dasharray:none" />
        <path
           d="m 1110.4402,111.89536 c -9.4778,-0.1337 -17.9595,-9.97668 -21.2897,-18.851098 -3.9002,-10.393912 -4.7283,-26.508664 4.2546,-33.031788 5.2495,-3.812042 14.2318,-0.650166 19.125,3.609474 9.6307,8.383677 15.6869,24.013696 12.2226,36.303242 -1.6874,5.98619 -8.0937,12.05791 -14.3125,11.97017 z"
           id="path6010"
           style="opacity:0.98000004;fill:#ffffff;fill-opacity:1;stroke:#000000;stroke-width:1.52192521;stroke-linecap:butt;stroke-linejoin:miter;stroke-miterlimit:4;stroke-opacity:1;stroke-dasharray:none" />
        <path
           d="m 1066.9886,158.65362 c 0,0 18.7633,3.86569 28.1439,2.89386 8.3554,-0.86567 24.0073,-7.6619 24.0073,-7.6619 l 4.8525,3.83091 c 0,0 -11.7482,19.41018 -20.6871,21.45337 -8.9389,2.04318 -14.3918,0.4635 -20.9426,-2.04319 -7.6625,-2.93206 -19.8344,-14.57365 -19.8344,-14.57365 z"
           id="path6012"
           style="opacity:0.98000004;fill:#000000;stroke:#000000;stroke-width:1.52192521;stroke-linecap:butt;stroke-linejoin:miter;stroke-miterlimit:4;stroke-opacity:1;stroke-dasharray:none" />
        <path
           d="m 1094.248,167.39639 c 0,0 4.1309,-3.35858 6.6305,-3.54928 3.8257,-0.29183 9.8332,1.53129 10.8548,3.82993 1.0216,2.29856 1.7877,3.83091 1.7877,3.83091 m -16.3453,-1.53235 0,0 c 0,0 -3.6695,-4.87396 -6.385,-5.10796 -5.808,-0.50041 -14.8124,7.91675 -14.8124,7.91675 0,0 4.1956,2.84357 6.5124,3.83122 2.6032,1.10971 5.3884,1.79146 8.1725,2.29833 2.4379,0.4438 4.9353,0.8223 7.4065,0.6386 2.9239,-0.21733 5.9822,-0.63745 8.5554,-2.04288 2.642,-1.44309 6.5124,-6.25739 6.5124,-6.25739"
           id="path6014"
           style="opacity:0.98000004;fill:#ff0000;fill-opacity:1;stroke:#000000;stroke-width:0.76096261;stroke-opacity:1" />
        <path
           d="m 1097.9269,166.83678 -2.8562,2.55174 0.8524,1.92615 11.5768,1.69101 3.9189,-1.01292 1.0572,-1.30079 -2.7648,-3.66982 z"
           id="path6016"
           style="opacity:0.98000004;fill:#ff0000;fill-opacity:1;stroke:#ff0000;stroke-width:0.76096261;stroke-opacity:1" />
        <path
           d="m 1001.6366,119.32974 c 0.7273,-0.91999 1.7801,-1.57722 2.926,-1.82665 1.1459,-0.24942 2.3766,-0.0892 3.4205,0.44524 1.0439,0.53447 1.8934,1.43931 2.3609,2.51483 0.4676,1.07552 0.5498,2.31389 0.2286,3.44179 -0.2436,0.85553 -0.7049,1.63114 -1.1839,2.38074 -0.4789,0.7496 -0.9837,1.49022 -1.3292,2.30991 -0.6386,1.51479 -0.6901,3.26841 -0.1415,4.81806 0.5485,1.54966 1.6918,2.88033 3.1412,3.65602"
           id="path6018"
           style="opacity:0.98000004;fill:#f7ebe6;fill-opacity:1;stroke:#000000;stroke-width:1.34173465;stroke-linecap:butt;stroke-linejoin:miter;stroke-miterlimit:4;stroke-opacity:1;stroke-dasharray:none;display:inline" />
        <path
           d="m 1163.2227,115.27099 c -0.6675,0.084 -1.3124,0.3406 -1.8552,0.73803 -0.5428,0.39744 -0.9821,0.93485 -1.2638,1.54579 -0.2816,0.61093 -0.4048,1.29406 -0.3545,1.96489 0.05,0.67083 0.2742,1.32791 0.6438,1.88998 0.5195,0.78997 1.2987,1.36657 2.0653,1.91995 0.7666,0.55337 1.5529,1.11609 2.0964,1.88973 0.435,0.61921 0.6953,1.35341 0.7921,2.10394 0.097,0.75054 0.033,1.51718 -0.1414,2.25346 -0.3497,1.47256 -1.131,2.80406 -1.9701,4.06364 -0.9124,1.36951 -1.906,2.68489 -2.9739,3.93691"
           id="path6020"
           style="opacity:0.98000004;fill:#f7ebe6;fill-opacity:1;stroke:#000000;stroke-width:1.52192521;stroke-linecap:butt;stroke-linejoin:miter;stroke-miterlimit:4;stroke-opacity:1;stroke-dasharray:none;display:inline" />
        <g
           transform="matrix(0.76096259,0,0,0.76096259,1009.5745,7.9147685)"
           id="g6022"
           style="opacity:0.98000004;fill:#f7ebe6;fill-opacity:1;stroke:#000000;stroke-opacity:1">
          <path
             d="m 50.524771,235.73647 c 0,0 3.939473,6.66679 4.24251,9.09108 0.303033,2.42429 0.60607,8.18199 0.60607,8.18199 0,0 6.060726,3.63643 6.060726,6.06072 0,2.42429 -0.574598,5.29602 -1.818215,7.57591 -1.539546,2.82239 -3.917075,5.30397 -6.666801,6.96983 -3.417762,2.07058 -11.515376,3.3334 -11.515376,3.3334 l -12.727527,1.51518 c -1.088702,0.59287 -2.26705,0.045 -4.242506,-1.21215 0,0 -4.84858,3.93948 -7.878946,5.15162 -3.03036,1.21215 -9.6971609,1.81822 -11.5153762,-0.30303 -1.8182202,-2.12126 -6.9698334,-19.39433 -6.9698334,-19.39433 l -1.8182202,-11.51537 c 0,0 0.3030375,-3.63644 1.8182202,-5.15162 1.51517776,-1.51518 3.9394681,-2.12125 3.9394681,-2.12125 0,0 2.7273278,-2.4243 2.7273278,-4.24251 0,-1.81822 0.6060751,-5.45466 2.4242903,-6.36376 1.8182202,-0.90911 3.9394734,0.30303 5.1516184,-1.21215 1.212145,-1.51518 2.42429,-6.6668 2.42429,-6.6668 0,0 0.60607,-3.3334 2.121253,-4.24251 1.515183,-0.9091 5.281563,-1.40201 7.878946,-0.9091 1.687095,0.32016 4.545543,2.42429 4.545543,2.42429 0,0 1.212145,-3.93948 4.545543,-5.45466 3.333398,-1.51518 6.363763,-3.63643 9.091086,-2.42429 2.727328,1.21215 6.418705,4.76392 7.878946,8.18198 1.438925,4.67813 0.532651,8.46552 -0.303037,12.72753 z"
             id="path6024"
             style="fill:#f7ebe6;fill-opacity:1;stroke:#000000;stroke-width:1.5;stroke-linecap:butt;stroke-linejoin:miter;stroke-miterlimit:4;stroke-opacity:1;stroke-dasharray:none" />
          <path
             d="m 5.0693298,246.64577 c 0,0 0.3030376,13.3336 0.9091077,16.667 0.9996674,4.52341 2.5394203,10.42876 6.6668005,13.03056 3.162843,1.99377 11.212339,0.30303 11.212339,0.30303"
             id="path6026-8"
             style="fill:#f7ebe6;fill-opacity:1;stroke:#000000;stroke-width:1.5;stroke-linecap:butt;stroke-linejoin:miter;stroke-miterlimit:4;stroke-opacity:1;stroke-dasharray:none" />
          <path
             d="m 24.76669,277.25243 c 0,0 -5.454656,-8.18197 -1.81822,-12.72752 3.636435,-4.54554 13.939671,-8.78805 17.273069,-9.09108 3.333398,-0.30304 14.242705,-2.42429 14.242705,-2.42429"
             id="path6028"
             style="fill:#f7ebe6;fill-opacity:1;stroke:#000000;stroke-width:1.5;stroke-linecap:butt;stroke-linejoin:miter;stroke-miterlimit:4;stroke-opacity:1;stroke-dasharray:none" />
          <path
             d="m 13.857383,237.55468 c -0.291046,6.69312 -0.574336,16.05591 2.121253,21.51558 0.198897,0.37961 -0.606075,-1.21214 0.909108,0.90911 1.515183,2.12125 4.24251,4.54554 4.24251,4.54554"
             id="path6030"
             style="fill:#f7ebe6;fill-opacity:1;stroke:#000000;stroke-width:1.5;stroke-linecap:butt;stroke-linejoin:miter;stroke-miterlimit:4;stroke-opacity:1;stroke-dasharray:none" />
          <path
             d="m 28.706158,222.40287 c 0,0 -2.859297,11.14827 -1.212145,16.36396 0.864687,2.73801 -0.909108,5.45465 5.454655,6.6668 6.363764,1.21214 10.207819,1.29886 13.939672,-1.51518 2.351394,-1.7731 3.333398,-8.18198 3.333398,-8.18198"
             id="path6032"
             style="fill:#f7ebe6;fill-opacity:1;stroke:#000000;stroke-width:1.5;stroke-linecap:butt;stroke-linejoin:miter;stroke-miterlimit:4;stroke-opacity:1;stroke-dasharray:none" />
          <path
             d="m 37.191174,246.64577 -0.60607,4.54555 c 0.950705,1.14444 1.282311,0.96333 1.81822,3.93946"
             id="path6034"
             style="fill:#f7ebe6;fill-opacity:1;stroke:#000000;stroke-width:1.5;stroke-linecap:butt;stroke-linejoin:miter;stroke-miterlimit:4;stroke-opacity:1;stroke-dasharray:none" />
          <path
             d="m 31.50418,237.3729 12.727527,0 c 0,0 0.303032,-6.96983 -2.424291,-7.27287 -2.727327,-0.30304 -4.545548,-1.21214 -6.363763,0.30304 -1.81822,1.51518 -3.939473,6.96983 -3.939473,6.96983 z"
             id="path6036"
             style="fill:#f7ebe6;fill-opacity:1;stroke:#000000;stroke-width:1.5;stroke-linecap:butt;stroke-linejoin:miter;stroke-miterlimit:4;stroke-opacity:1;stroke-dasharray:none" />
          <path
             d="m 24.534347,267.85831 3.03036,8.18198 c 0,0 6.969838,-1.81822 6.969838,-3.63644 0,-1.81821 0,-5.45465 -1.81822,-6.06072 -1.818215,-0.60607 -8.181978,1.51518 -8.181978,1.51518 z"
             id="path6038"
             style="fill:#f7ebe6;fill-opacity:1;stroke:#000000;stroke-width:1.5;stroke-linecap:butt;stroke-linejoin:miter;stroke-miterlimit:4;stroke-opacity:1;stroke-dasharray:none" />
          <path
             d="m 29.685965,251.49435 c 0,0 -8.181984,1.21215 -9.091091,2.72733 -0.909108,1.51518 -1.212146,1.81822 -1.212146,1.81822"
             id="path6040"
             style="fill:#f7ebe6;fill-opacity:1;stroke:#000000;stroke-width:1.5;stroke-linecap:butt;stroke-linejoin:miter;stroke-miterlimit:4;stroke-opacity:1;stroke-dasharray:none" />
          <path
             d="m 16.352368,264.82795 c 0,0 -0.909113,-0.30304 -2.42429,3.03036 -1.515183,3.3334 -1.212145,5.15162 -1.212145,5.15162"
             id="path6042"
             style="fill:#f7ebe6;fill-opacity:1;stroke:#000000;stroke-width:1.5;stroke-linecap:butt;stroke-linejoin:miter;stroke-miterlimit:4;stroke-opacity:1;stroke-dasharray:none" />
          <path
             d="m 8.7764596,276.34333 c 0,0 -2.7273279,0 -2.7273279,2.42429 0,2.42429 0,2.72732 0,2.72732"
             id="path6044"
             style="fill:#f7ebe6;fill-opacity:1;stroke:#000000;stroke-width:1.5;stroke-linecap:butt;stroke-linejoin:miter;stroke-miterlimit:4;stroke-opacity:1;stroke-dasharray:none" />
        </g>
        <g
           transform="matrix(0.76096259,0,0,0.76096259,1009.5745,7.9147685)"
           id="g6046"
           style="opacity:0.98000004;fill:#f7ebe6;fill-opacity:1;stroke:#000000;stroke-opacity:1">
          <path
             d="m 150.94372,243.15468 c 0,0 -2.41564,7.35733 -2.19092,9.79013 0.22473,2.4328 1.1654,8.12121 1.1654,8.12121 0,0 -5.13826,4.85329 -4.61757,7.221 0.52069,2.36772 1.69867,5.04901 3.40293,7.00859 2.10981,2.42586 4.96485,4.33888 8.0082,5.37528 3.78271,1.28819 11.96258,0.78235 11.96258,0.78235 l 12.75593,-1.2538 c 1.19063,0.3452 2.2238,-0.44299 3.88315,-2.09506 0,0 5.58154,2.80616 8.80153,3.33916 3.21999,0.533 9.86137,-0.30696 11.18155,-2.76923 1.32019,-2.46227 2.64168,-20.43869 2.64168,-20.43869 l -0.69748,-11.63715 c 0,0 -1.077,-3.48649 -2.88225,-4.64088 -1.80525,-1.15439 -4.30313,-1.22563 -4.30313,-1.22563 0,0 -3.18437,-1.78194 -3.57488,-3.55772 -0.39052,-1.77579 -1.76348,-5.19719 -3.73452,-5.69456 -1.97105,-0.49738 -3.78245,1.14208 -5.29174,-0.0774 -1.50929,-1.21948 -3.79961,-5.99053 -3.79961,-5.99053 0,0 -1.30787,-3.12543 -2.98295,-3.68789 -1.67508,-0.56246 -5.45943,-0.23492 -7.89033,0.80434 -1.57895,0.67505 -3.91877,3.34401 -3.91877,3.34401 0,0 -2.02997,-3.5872 -5.61101,-4.35107 -3.58103,-0.76388 -6.99628,-2.18477 -9.39961,-0.41514 -2.40334,1.76963 -5.24572,6.03134 -5.93775,9.68327 -0.40058,4.878 1.298,8.38235 3.02957,12.36541 z"
             id="path6048"
             style="fill:#f7ebe6;fill-opacity:1;stroke:#000000;stroke-width:1.5;stroke-linecap:butt;stroke-linejoin:miter;stroke-miterlimit:4;stroke-opacity:1;stroke-dasharray:none" />
          <path
             d="m 197.68145,244.0465 c 0,0 2.56781,13.08751 2.69183,16.47329 -0.005,4.63256 -0.24027,10.7308 -3.71251,14.15835 -2.66081,2.62656 -10.88559,2.70414 -10.88559,2.70414"
             id="path6050"
             style="fill:#f7ebe6;fill-opacity:1;stroke:#000000;stroke-width:1.5;stroke-linecap:butt;stroke-linejoin:miter;stroke-miterlimit:4;stroke-opacity:1;stroke-dasharray:none" />
          <path
             d="m 185.01745,278.16947 c 0,0 3.57004,-9.16258 -0.95782,-12.82101 -4.52786,-3.65843 -15.50185,-5.58901 -18.82254,-5.16903 -3.32069,0.41998 -14.431,0.69133 -14.431,0.69133"
             id="path6052"
             style="fill:#f7ebe6;fill-opacity:1;stroke:#000000;stroke-width:1.5;stroke-linecap:butt;stroke-linejoin:miter;stroke-miterlimit:4;stroke-opacity:1;stroke-dasharray:none" />
          <path
             d="m 187.1459,237.05506 c 1.7218,6.47441 4.00942,15.55785 2.54936,21.46907 -0.11272,0.41346 0.33159,-1.31403 -0.69263,1.08315 -1.02422,2.39718 -3.16722,5.35066 -3.16722,5.35066"
             id="path6054"
             style="fill:#f7ebe6;fill-opacity:1;stroke:#000000;stroke-width:1.5;stroke-linecap:butt;stroke-linejoin:miter;stroke-miterlimit:4;stroke-opacity:1;stroke-dasharray:none" />
          <path
             d="m 169.38936,225.44607 c 0,0 5.18699,10.27398 4.6985,15.72172 -0.25644,2.85983 2.05944,5.1321 -3.89546,7.68276 -5.95491,2.55066 -9.69063,3.46098 -13.93979,1.51413 -2.67734,-1.22668 -5.01293,-7.27508 -5.01293,-7.27508"
             id="path6056"
             style="fill:#f7ebe6;fill-opacity:1;stroke:#000000;stroke-width:1.5;stroke-linecap:butt;stroke-linejoin:miter;stroke-miterlimit:4;stroke-opacity:1;stroke-dasharray:none" />
          <path
             d="m 166.30924,250.94561 1.56822,4.30929 c -0.68271,1.32193 -1.04548,1.21627 -0.92967,4.23805"
             id="path6058"
             style="fill:#f7ebe6;fill-opacity:1;stroke:#000000;stroke-width:1.5;stroke-linecap:butt;stroke-linejoin:miter;stroke-miterlimit:4;stroke-opacity:1;stroke-dasharray:none" />
          <path
             d="m 169.66557,240.54699 -11.72627,4.94819 c 0,0 -2.98892,-6.30372 -0.59396,-7.64324 2.39495,-1.33952 3.7167,-2.88399 5.98094,-2.19489 2.26426,0.68909 6.33929,4.88994 6.33929,4.88994 z"
             id="path6060"
             style="fill:#f7ebe6;fill-opacity:1;stroke:#000000;stroke-width:1.5;stroke-linecap:butt;stroke-linejoin:miter;stroke-miterlimit:4;stroke-opacity:1;stroke-dasharray:none" />
          <path
             d="m 183.22671,268.94468 -1.20232,8.64189 c 0,0 -7.19769,-0.27881 -7.58821,-2.05459 -0.39052,-1.77579 -1.17155,-5.32736 0.47407,-6.3098 1.64561,-0.98245 8.31646,-0.2775 8.31646,-0.2775 z"
             id="path6062"
             style="fill:#f7ebe6;fill-opacity:1;stroke:#000000;stroke-width:1.5;stroke-linecap:butt;stroke-linejoin:miter;stroke-miterlimit:4;stroke-opacity:1;stroke-dasharray:none" />
          <path
             d="m 174.68068,254.06907 c 0,0 8.25138,-0.57346 9.4647,0.7111 1.21332,1.28456 1.57437,1.51544 1.57437,1.51544"
             id="path6064"
             style="fill:#f7ebe6;fill-opacity:1;stroke:#000000;stroke-width:1.5;stroke-linecap:butt;stroke-linejoin:miter;stroke-miterlimit:4;stroke-opacity:1;stroke-dasharray:none" />
          <path
             d="m 190.56688,264.22772 c 0,0 0.82281,-0.49123 3.01858,2.43895 2.19576,2.93017 2.29032,4.77105 2.29032,4.77105"
             id="path6066"
             style="fill:#f7ebe6;fill-opacity:1;stroke:#000000;stroke-width:1.5;stroke-linecap:butt;stroke-linejoin:miter;stroke-miterlimit:4;stroke-opacity:1;stroke-dasharray:none" />
          <path
             d="m 200.43926,273.8472 c 0,0 2.66368,-0.58577 3.18436,1.78194 0.52069,2.36772 0.58578,2.66368 0.58578,2.66368"
             id="path6068"
             style="fill:#f7ebe6;fill-opacity:1;stroke:#000000;stroke-width:1.5;stroke-linecap:butt;stroke-linejoin:miter;stroke-miterlimit:4;stroke-opacity:1;stroke-dasharray:none" />
        </g>
        <path
           d="m 1093.0254,168.4434 3.2382,-1.99265 3.4872,2.11722 -5.1063,1.7436 z"
           id="path6070"
           style="opacity:0.98000004;fill:#ff0000;fill-opacity:1;stroke:none" />
        <path
           d="m 1094.769,166.94887 c -2.5656,2.22407 -4.0733,5.2995 -2.3686,8.49828"
           id="path6072"
           style="opacity:0.98000004;fill:none;stroke:#000000;stroke-width:0.76096261px;stroke-linecap:butt;stroke-linejoin:miter;stroke-opacity:1" />
        <path
           d="m -133.40957,155.96983 a 3.7474597,4.4969516 0 1 1 -7.49492,0 3.7474597,4.4969516 0 1 1 7.49492,0 z"
           transform="matrix(1.0126333,0,0,0.90727462,1207.5913,-52.43687)"
           id="path6074"
           style="opacity:0.98000004;fill:#000000;stroke:#000000;stroke-width:2;stroke-linecap:butt;stroke-linejoin:round;stroke-miterlimit:4;stroke-opacity:1;stroke-dasharray:none;stroke-dashoffset:0;display:inline" />
        <path
           d="m -133.40957,155.96983 a 3.7474597,4.4969516 0 1 1 -7.49492,0 3.7474597,4.4969516 0 1 1 7.49492,0 z"
           transform="matrix(1.0126333,0,0,0.90727462,1240.7047,-51.875812)"
           id="path6076"
           style="opacity:0.98000004;fill:#000000;stroke:#000000;stroke-width:2;stroke-linecap:butt;stroke-linejoin:round;stroke-miterlimit:4;stroke-opacity:1;stroke-dasharray:none;stroke-dashoffset:0;display:inline" />
        <path
           d="m 1104.2403,45.195163 c 9.6069,5.539123 19.4757,11.448682 23.6668,18.783144 -3.8271,-12.958128 -13.5987,-21.26236 -22.9155,-25.920745 -0.5675,2.511862 -0.4434,4.674898 -0.7513,7.137601 z"
           id="path6078"
           style="opacity:0.98000004;fill:#ffff00;stroke:#000000;stroke-width:1.52192521;stroke-linecap:butt;stroke-linejoin:miter;stroke-miterlimit:4;stroke-opacity:1;stroke-dasharray:none" />
        <path
           d="m 1076.1979,44.57612 c -15.2304,1.726015 -25.2366,11.404318 -30.8044,22.539788 -6.138,-13.663084 16.0702,-25.419956 27.4234,-29.677389 2.9392,2.492305 2.7183,4.486711 3.381,7.137601 z"
           id="path6080"
           style="opacity:0.98000004;fill:#ffff00;stroke:#000000;stroke-width:1.52192521;stroke-linecap:butt;stroke-linejoin:miter;stroke-miterlimit:4;stroke-opacity:1;stroke-dasharray:none" />
      </g>
    </g>
  </g>
</svg>
