<?xml version="1.0" encoding="UTF-8" standalone="no"?>
<!-- Created with Inkscape (http://www.inkscape.org/) -->
<svg xmlns:rdf="http://www.w3.org/1999/02/22-rdf-syntax-ns#" xmlns="http://www.w3.org/2000/svg" height="480" width="707" version="1.1" xmlns:cc="http://creativecommons.org/ns#" xmlns:xlink="http://www.w3.org/1999/xlink" xmlns:dc="http://purl.org/dc/elements/1.1/">
<defs></defs>
<metadata>
<rdf:RDF>
<cc:Work rdf:about="">
<dc:format>image/svg+xml</dc:format>
<dc:type rdf:resource="http://purl.org/dc/dcmitype/StillImage"/>
<dc:title/>
</cc:Work>
</rdf:RDF>
</metadata>
<rect stroke-dasharray="none" fill-rule="nonzero" stroke-dashoffset="0" height="480" width="707" stroke="#000" stroke-miterlimit="4" y="1.12" x="-1.29" stroke-width="1.28" fill="#000"/>
<path d="m249,197a113,113,0,1,1,-226,0,113,113,0,1,1,226,0z" fill-rule="nonzero" stroke-dashoffset="0" transform="translate(35.333333,61.538462)" stroke="#000" stroke-miterlimit="4" stroke-dasharray="none" stroke-width="1.28499997" fill="#FF0"/>
<g transform="matrix(0.45918301,0,0,0.45918301,144.13415,64.041739)">
<path fill="#000" d="m63,269,1,0,2,0,1,0,2-1,1,0,2,0,1,0,1,0,2,0,1,0,2,0,1,0,2-1,1,0,2,0,1,0,1,0,1,0,1-1,1,0,1,0,1,0,2,0,1-1,1,0,1,0,1,0,1-1,1,0,1-1,1-1,1,0,1,0,1-1,1,0,1-2-1-2-1-1-1-1-1-1-1-1-1-1-1-1-1-1-1-1-2-1-1-1-1,0-2-1-1,0-2-1-2-1-1,0-2-1-1-1-1-1-1,0,0-1,0-1,1-1,0-1,0-2,1-2,0-2,1-1,0-2,1-1,0-2,1-2,11-4,2-1,2-1,2-1,2-1,2-2,1-1,2-2,1-2,2-2,1-2,1-2,1-2,1-2,0-3,1-2,0-2,1-3,0-2,0-3,0-3,0-2-1-2,0-3-1-2-1-2-1-1-1-2,0-1-1-2-1-1-1-2-1-1-1-1-1-2-1-2-1-1-1-2-1-2-1-1-1-2-1-2,0-2-1-2,0-2-1-2,0-2,0-2,0-2,0-1,0-1,0-1,0-1,0-1,0-1,1-1,0-1,1,0,1,0,0-1-1,0,0-1,0-4,0-1,0-1,0-1,0-1-1-1,0-1-2-1-2,0-2-1-2,0-2-1-2-1-2-1-1-1-1-1,0-1,0-1-1-1,0-1-1-1,1-1,0-1,1,0,1-1,1-1,1,0,1-1,1-1,1-1,1,0,1-1,1-2,1-1,2-2,1-1,1-2,1-1,1-2,0-2,1-2,0-1,1-2,0-2,0-2,0-2-1-2,0-1,0-1-1-1,0-1,0-1-1-1-1-2-1-2-1-2-1-1-1-2-2-2-1-1-1-1-1-1-1,0,0-1-1,0-1-1,0-1-1,0,0-1l-6-6-3-24v-1l-1-1v-1l-1-1-1-1h-1v-1h-2l-1-1-1-1h-2l-1-1h-1-2-1-1-1-1v1h-1-1v1l-2,1-1,1-2,2-1,1-2,2-1,2-1,1-1,2v2l-1,1v1l-1,1v2l-1,1v1l-1,1v1,1l-1,1v1h-1v1l-1,1v1l-1,1h-1v1l-1,1-1,1-1,1h-1l-1,1-1,1-1,1v1l-3,1-2,2-2,1-2,2-2,2-1,2-2,2-1,2-2,2-1,2-1,3v2l-1,3v2,3l1,3,1,1v1,2l1,1v1l1,1,1,1v1l1,1v1l1,1v1l1,1v1l1,1,1,1,3,4,2,1,1,1,1,1h1l2,1h1l2,1h1v1,1,1,1h-1v1,1h-1-1v1h-1-1v1h-1l-1,1h-1-1l-1,1h-1l-1,1-1,1v1l-1,1v1l-1,1v1,1,1,1h1v1h1l5,1-2,7-1,2v1l-1,1v1l-1,1v1l-1,1v1l-1,1v2l-1,1-1,2-1,1-1,2-1,1-1,1-1,2-1,1-1,2-1,2-1,2-1,1-1,2-1,2-1,2v2l-1,2v3l-1,2v2l-1,2v2,2,1,1,2l1,1v1,1,1l1,1v1,1l1,1v1l1,1v1l1,1v1l1,2,1,2,2,1,1,2,2,1,2,1,1,1,2,1,1,1h1,1l1,1h1l1,1h1,1l1,1h1,1l1,1h1v1h1v1,1l1,1v1l1,1,1,1v1,1l1,1v1l1,2v1,1,1l1,1v2,1,1,1,1,2l-1,1h-2-1l-1,1-1,1h-2l-1,1-1,1-1,1h-1l-1,1-1,1-1,1-1,1h-1l-1,1-2,1-1,1-1,1-1,1h-1l-1,1-1,1v1l4,2,6,2,2,1h1l2,1h1,2l1,1h2l2,1h1,1,2,1,1,1,1l1,1h2,1,1,1,1,1,2,1,1l1,1h1,1,2,1,1,1,1z"/>
<path fill="#ffff47" d="m58,264,22-1,1,0,0-1-1-1,0-1,1,0,1,0,0-1,1,0,1,0,8-3,0-1,0-1,1,0,1,0,0-1-1,0-2,0-1,1-1,0-1,1-1,0-1,0-1,0-1,1-1,0-1-1,0-1,0-1,3-1,1-1,2-1-1,0-1,0-1,0,0,1-1,0-1,0-1,1-2-1-1,0,0-1,1-2,4-1-1,0-1-1-1-1-2-1-1,0-2,0-1,0-2,0-1,0-1-1-1,0-1,0-1,0-1,0-1-1,0-1,1-1,7-1,0-2,1,0,1-1,0-1,1-1,1-1,0-1,1-2,0-1-1,0,1-4-1,0,0-1-1,0-1,0-1-1,0-1,4-1,1,0,1,0,0-1,1,0,1,0,1,0,1,0,1-1,1,0,1,0,1,0,1-1,1,0,1,0,2-1,1,0,1,0,1-1,1,0,0-1,1,0,1-1,1,0,2-1,1-1,1-1,1-1,1,0,0-1,2-2,1-2,1-1,1-2,1-2,1-3,0-2,1-2,0-2,0-2,0-3,0-2,0-2,0-2,0-3-1-2,0-1-1-2-1-2,0-2-1-1-1-2,0-1-1-2,0-1-1,0,0-1-2-1-1-2-1-2-1-2-1-2-1-1-1-2,0-2-1-2-1-1,0-1,0-1,0-1,0-1-1-1,0-1,0-1,0-1,0-1,0-1,0-1,0-1,0-1,0-2-1,0,1-1,0-1,0-1,0-1-1,0,0,3,0,2,0,3,0,2,1,3,0,3,1,2,0,3,1,2,1,2,1,3,1,2,1,2,1,2,1,3,2,2,0,1,1,1,0,1,1,1,0,1,1,1,0,1,1,2,0,1,1,1,0,1,0,1,0,1,1,1,0,1,0,1,1,1,0,1,0,1,0,1,0,2,0,1,0,1-1,2,0,1-1,1,0,1-1,2-1,1,0,1-1,1-1,1,0,1-1,1-1,1-6,8-1,1-1,0-1,1-1,0,0,1-1,0-1,1-1,0-1,1-1,0-1,0-1,0-1,1-1,0-1,0-1,1-1,0-2,0-1,0-1,0-1,0-1,0-1,0-1,0-1,0-1,0-2,0-1,0-1,0-1,0-1,0-1,0-18-1-16-4-1,1,0-1-1,0-1,0-1-1-1,0-1,0,0-1-1,0-1,0-1,0,0-1-1,0-1-1,0-1-1,0-2-2-2-1-2-2-2-1-2-2-2-2-1-2-1-2,0-2,0-2,0-1,0-2,0-1,0-2-1-1,0-2,1-2,0-2,0-2,1-3,0-2,1-2,0-2,1-2,1-2,1-2,1-2,1-2,1-2,1-2,1-1,1-2,1-2,1-2,2-2,1-2,1-1,1-2,1-2,2-2,0-1,0-1,1-1,0-1,0-1,0-1,1-1-1-1-1,0-1,1,0,1,0,1-1,1,0,1-1,1,0,1,0,1-1,2-1,1,0,1-1,2,0,1-1,1-1,1,0,2-1,1-1,1-1,1,0,1-1,2-1,1,0,1-1,1-1,1-1,1,0,2-1,1,0,1,0,2-1,1-1,1,0,1-1,2,0,1-1,1,0,2-1,1,0,2-1,1,0,2-1,2,0,2-1,2,0,2,0,1,1,2,0,2,0,2,1,2,0,1,1,2,1,2,1,1,1,2,1,1,0,1,1,0,0,1,1,0,0,1,1,0,0,1,1,0,0,1,1,0,1,0,1,1,1,0,1,1,1,0,1,1,1,0,2,0,1,1,2,0,1,1,1,1,1,0,1,1,1,1,2,1,1,1,1,0,1,1,1,1,1,1,2,0,0,1,1,0,1,0,1,0,1,1,3,0,0,1,0,1-1,1-6-1,0,1,1,0,0,1,0,1,0,3,3,2,1,0,0,1-1,0,0,1-2,0,0,1,1,0,3,0,0,1,0,1-3,1,0,1,10,0,7,0,0,1,0,1-1,0-2,0-2,1-1,0-2,0-2,0-2,0-1,0,0,1-1,0-2,0-2,0-1,0-2,0-2,1-1,0-2,1-1,0-1,1-1,0,0,1-1,0,3,1,1,1,1,0,1,0,1,1-1,1-1,0-2,0-1,0-1,0-1,0-1,0-2,0-1,1,1,1,1,0,1,1,1,0,1,0,1,1,1,0,1,0,2,0,1,0,1,0,1,0,1,0,1,0,1,0,1,0,2,0,2,0,1,0,2,1,1,0,2,0,1,0,1,0,1,0,1,0,1,0,1,0,0,1-1,1-2,1-2,0-1,0-2,0-2,0-2,0-1,0-2,0-1,0-1,0-1,0-1,0-1,0-1,0-1,0-1,0-1,0-2,0-1,0-1,0-1,0-1,0-1,0,1,0,1,0,1,1,1,0,1,0,2,1,1,0,1,1,1,0,1,0,2,0,1,1,1,0,1,0,1,0,1,0,1,1,10,0z"/>
<ellipse d="m 100,260 c 0,1.65685 -4.029437,3 -9,3 -4.970563,0 -9,-1.34315 -9,-3 0,-1.65685 4.029437,-3 9,-3 4.970563,0 9,1.34315 9,3 z" rx="9" ry="3" cy="260" cx="91" fill="#FFF"/>
<path fill="#FFF" d="m65,213,2,0,1,0,2,0,1,0,2,0,2,0,1,0,2,0,1,0,2,0,1,0,2-1,1,0,2-1,1,0,1-1,2-1,1,0,2-1,1-1,1-1,1-1,1-1,1-2,1,0,1-1,0-1,1-1,1-1,0-1,1,0,0-1,1-2,1-1,1-2,0-1,1-2,0-1,1-2,0-2,0-2,0-1,0-2,0-2-1-1,0-2-1-2,0-1-1-1,0-1-1-1-1-1,0-1-1-1,0-1-1-1-2-1,0-1-1-2-1-1-1-2,0-1-1-2,0-2-1-1,0-2-1-2,0-1-1-2,0-2,0-2-1-1,0-2,0-2,0-1,0-2-1-2,0-1,1-2-1,0-2,0-1,1-1,0-1,0-1,0-1,1-1,0-2,0-1,0-1,0-2,0-1,0-1,0-1,0-2,1,0,1,1,2,0,1,0,2,0,2,0,1,1,2,0,1,1,3,1,2,2,2,2,2,1,2,2,2,2,2,3,1,2,2,2,2,1,2,2,2,2,2,1,2,1,3,1,3,0,1,0,1,0,2,0,1,0,1,0,2,0,1,0,1,0,1,0,2,0,1-1,1,0,2-1,1,0,1-1,1,0,3-1,2-2,2-1,1-2,2-2,1-2,2-2,1-1,1-1,0-2,1-1,0-2,0-1,1-2,0-2,0-1,0-1,0-1,1-1,0-1,0-1,0-1,0-2,0-1,0-1,0-1,0-1,0-1,0-1,0-1,0-1,0,0,1,9,0z"/>
<ellipse d="m 55,208 c 0,2.20914 -6.268014,4 -14,4 -7.731986,0 -14,-1.79086 -14,-4 0,-2.20914 6.268014,-4 14,-4 7.731986,0 14,1.79086 14,4 z" rx="14" ry="4" cy="208" cx="41" fill="#FFF"/>
<ellipse d="m 79,205 c 0,1.65685 -6.715729,3 -15,3 -8.284271,0 -15,-1.34315 -15,-3 0,-1.65685 6.715729,-3 15,-3 8.284271,0 15,1.34315 15,3 z" rx="15" ry="3" cy="205" cx="64" fill="#000"/>
<path fill="#000" d="m82,202-1,3,3-1,0-1,1,0,0-1,1,0-4,0z"/>
<path fill="#000" d="m41,202,1,0,1,1,0-1-2,0z"/>
<ellipse d="m 89,202 c 0,2.20914 -9.40202,4 -21,4 -11.59798,0 -21,-1.79086 -21,-4 0,-2.20914 9.40202,-4 21,-4 11.59798,0 21,1.79086 21,4 z" rx="21" ry="4" cy="202" cx="68" fill="#0d0d0d"/>
<path fill="#0d0d0d" d="m39,198,0,2,0,1,1,0,0,1,1,0,1,0,1,1,0-5-4,0z"/>
<ellipse d="m 91,198 c 0,2.20914 -12.088312,4 -27,4 -14.911688,0 -27,-1.79086 -27,-4 0,-2.20914 12.088312,-4 27,-4 14.911688,0 27,1.79086 27,4 z" rx="27" ry="4" cy="198" cx="64" fill="#191919"/>
<path fill="#191919" d="m25,194,1,1,1,0,0,1,1,1,0-1-1-1,0-1-2,0z"/>
<path fill="#191919" d="m32,194,1,1,1,0,0-1-2,0z"/>
<ellipse d="m 93,194 c 0,2.20914 -12.536027,4 -28,4 -15.463973,0 -28,-1.79086 -28,-4 0,-2.20914 12.536027,-4 28,-4 15.463973,0 28,1.79086 28,4 z" rx="28" ry="4" cy="194" cx="65" fill="#292929"/>
<circle d="m 28,193 c 0,1.10457 -0.895431,2 -2,2 -1.104569,0 -2,-0.89543 -2,-2 0,-1.10457 0.895431,-2 2,-2 1.104569,0 2,0.89543 2,2 z" cy="193" cx="26" r="2" fill="#292929"/>
<path fill="#292929" d="m31,190,0,1,0,1,0,1,1,0,0,1,1,1,1,0,1-5-4,0z"/>
<ellipse d="m 93,190 c 0,2.20914 -13.879173,4 -31,4 -17.120827,0 -31,-1.79086 -31,-4 0,-2.20914 13.879173,-4 31,-4 17.120827,0 31,1.79086 31,4 z" rx="31" ry="4" cy="190" cx="62" fill="#363636"/>
<path fill="#363636" d="m19,186,0,1,0-1z"/>
<ellipse d="m 27,190 c 0,2.20914 -0.895431,4 -2,4 -1.104569,0 -2,-1.79086 -2,-4 0,-2.20914 0.895431,-4 2,-4 1.104569,0 2,1.79086 2,4 z" rx="2" ry="4" cy="190" cx="25" fill="#363636"/>
<ellipse d="m 93,186 c 0,2.20914 -13.879173,4 -31,4 -17.120827,0 -31,-1.79086 -31,-4 0,-2.20914 13.879173,-4 31,-4 17.120827,0 31,1.79086 31,4 z" rx="31" ry="4" cy="186" cx="62" fill="#424242"/>
<path fill="#424242" d="m18,182,0,1,0,1,1,1,0,1,0,1,1-5-2,0z"/>
<circle d="m 29,186 c 0,1.65685 -1.343146,3 -3,3 -1.656854,0 -3,-1.34315 -3,-3 0,-1.65685 1.343146,-3 3,-3 1.656854,0 3,1.34315 3,3 z" cy="186" cx="26" r="3" fill="#424242"/>
<ellipse d="m 95,182 c 0,2.20914 -14.326888,4 -32,4 -17.673112,0 -32,-1.79086 -32,-4 0,-2.20914 14.326888,-4 32,-4 17.673112,0 32,1.79086 32,4 z" rx="32" ry="4" cy="182" cx="63" fill="#4f4f4f"/>
<path fill="#4f4f4f" d="m19,186,0-1-1-1,0-1,0-1,0-1,0-1,0-1,0-1,3,0-2,8z"/>
<circle d="m 29,182 c 0,1.65685 -1.343146,3 -3,3 -1.656854,0 -3,-1.34315 -3,-3 0,-1.65685 1.343146,-3 3,-3 1.656854,0 3,1.34315 3,3 z" cy="182" cx="26" r="3" fill="#4f4f4f"/>
<ellipse d="m 94,178 c 0,1.65685 -15.670034,3 -35,3 -19.329966,0 -35,-1.34315 -35,-3 0,-1.65685 15.670034,-3 35,-3 19.329966,0 35,1.34315 35,3 z" rx="35" ry="3" cy="178" cx="59" fill="#5c5c5c"/>
<circle d="m 22,178 c 0,1.10457 -0.895431,2 -2,2 -1.104569,0 -2,-0.89543 -2,-2 0,-1.10457 0.895431,-2 2,-2 1.104569,0 2,0.89543 2,2 z" cy="178" cx="20" r="2" fill="#5c5c5c"/>
<ellipse d="m 95,174 c 0,1.65685 -15.670034,3 -35,3 -19.329966,0 -35,-1.34315 -35,-3 0,-1.65685 15.670034,-3 35,-3 19.329966,0 35,1.34315 35,3 z" rx="35" ry="3" cy="174" cx="60" fill="#6b6b6b"/>
<circle d="m 26,174 c 0,2.20914 -1.790861,4 -4,4 -2.209139,0 -4,-1.79086 -4,-4 0,-2.20914 1.790861,-4 4,-4 2.209139,0 4,1.79086 4,4 z" cy="174" cx="22" r="4" fill="#6b6b6b"/>
<ellipse d="m 95,171 c 0,2.20914 -17.01318,4 -38,4 -20.98682,0 -38,-1.79086 -38,-4 0,-2.20914 17.01318,-4 38,-4 20.98682,0 38,1.79086 38,4 z" rx="38" ry="4" cy="171" cx="57" fill="#787878"/>
<ellipse d="m 94,167 c 0,2.20914 -16.565464,4 -37,4 -20.434536,0 -37,-1.79086 -37,-4 0,-2.20914 16.565464,-4 37,-4 20.434536,0 37,1.79086 37,4 z" rx="37" ry="4" cy="167" cx="57" fill="#878787"/>
<ellipse d="m 92,163 c 0,2.20914 -15.670034,4 -35,4 -19.329966,0 -35,-1.79086 -35,-4 0,-2.20914 15.670034,-4 35,-4 19.329966,0 35,1.79086 35,4 z" rx="35" ry="4" cy="163" cx="57" fill="#949494"/>
<ellipse d="m 90,159 c 0,2.20914 -3.134007,4 -7,4 -3.865993,0 -7,-1.79086 -7,-4 0,-2.20914 3.134007,-4 7,-4 3.865993,0 7,1.79086 7,4 z" rx="7" ry="4" cy="159" cx="83" fill="#a1a1a1"/>
<ellipse d="m 79,159 c 0,2.20914 -12.088312,4 -27,4 -14.911688,0 -27,-1.79086 -27,-4 0,-2.20914 12.088312,-4 27,-4 14.911688,0 27,1.79086 27,4 z" rx="27" ry="4" cy="159" cx="52" fill="#a1a1a1"/>
<ellipse d="m 87,156 c 0,1.65685 -2.686292,3 -6,3 -3.313708,0 -6,-1.34315 -6,-3 0,-1.65685 2.686292,-3 6,-3 3.313708,0 6,1.34315 6,3 z" rx="6" ry="3" cy="156" cx="81" fill="#adadad"/>
<ellipse d="m 74,155 c 0,2.20914 -9.849736,4 -22,4 -12.150264,0 -22,-1.79086 -22,-4 0,-2.20914 9.849736,-4 22,-4 12.150264,0 22,1.79086 22,4 z" rx="22" ry="4" cy="155" cx="52" fill="#adadad"/>
<path fill="#bababa" d="m78,155-1,0,0-1-1,0,0-1-1,0,0,1,1,1,2,0z"/>
<ellipse d="m 70,151 c 0,2.20914 -7.611159,4 -17,4 -9.388841,0 -17,-1.79086 -17,-4 0,-2.20914 7.611159,-4 17,-4 9.388841,0 17,1.79086 17,4 z" rx="17" ry="4" cy="151" cx="53" fill="#bababa"/>
<ellipse d="m 68,147 c 0,2.20914 -6.268014,4 -14,4 -7.731986,0 -14,-1.79086 -14,-4 0,-2.20914 6.268014,-4 14,-4 7.731986,0 14,1.79086 14,4 z" rx="14" ry="4" cy="147" cx="54" fill="#c9c9c9"/>
<path fill="#d6d6d6" d="m68,147-1-1,0-1,0-1-1,3,2,0z"/>
<path fill="#d6d6d6" d="m64,147-1,0,0-1,0-1-1-1-1,3,3,0z"/>
<path fill="#d6d6d6" d="m58,139,0,8-15,0,0-1,1-1,1-1,0-1,1-1,0-1,1-1,0-1,11,0z"/>
<ellipse d="m 57,139 c 0,1.65685 -2.686292,3 -6,3 -3.313708,0 -6,-1.34315 -6,-3 0,-1.65685 2.686292,-3 6,-3 3.313708,0 6,1.34315 6,3 z" rx="6" ry="3" cy="139" cx="51" fill="#e3e3e3"/>
<ellipse d="m 57,136 c 0,1.65685 -2.238576,3 -5,3 -2.761424,0 -5,-1.34315 -5,-3 0,-1.65685 2.238576,-3 5,-3 2.761424,0 5,1.34315 5,3 z" rx="5" ry="3" cy="136" cx="52" fill="#f2f2f2"/>
<ellipse d="m 58,134 c 0,0.55228 -1.790861,1 -4,1 -2.209139,0 -4,-0.44772 -4,-1 0,-0.55228 1.790861,-1 4,-1 2.209139,0 4,0.44772 4,1 z" rx="4" ry="1" cy="134" cx="54" fill="#FFF"/>
<path fill="#FFF" d="m24,204,2,0-2-1-1-2-1-1-1-1-1-1-1-2-1-1,0-1-1-2-1-1,0-2-1-1,0-2,0-2,0-1,0-2,0-1,0-2,0-1,0-1,1-1,0-1,0-1,0-2,1-1,0-1,1-1,0-1,1-1,0-1,1-1,1-1,2-3,1-1,1,0,1-1,1-1,1-1,1,0,1-1,1-1,2-1,2-2,2-1,2-2,1-2,1-2,2-2,1-2,0-1,0-1,1-2,0-1,0-1,0-1,0-1,0-1,0-1,1-1,0-1-1,0-11-2,0,1,0,1-1,1,0,1,0,1-1,1,0,1,0,1-2,3-2,3-3,3-2,3-2,3-2,4-2,3-2,4-1,3-2,4-1,3,0,4-1,4,0,4,1,4,0,4,1,1,0,1,1,1,0,1,1,1,0,1,1,0,0,1,1,0,0,1,1,0,0,1,1,1,6,4z"/>
<path fill="#000" d="m59,199,1,0,1,0,0-1,1,0,1,0,1,0,1,0,1,0,1,0,1-1,1,0,1,0,1-1,1-1,0-2,0-2,0-2,0-1,0-2-1-2,0-2-2-1-1-1,0-1-1,0-1,0-1-1-1,0-1,0,0-1-1,0,0-1-1-1,0-1,0-1,0-1,0-1,0-1,0-1-1,0,0-1-1,0,0,1,0,1,0,1,0,1-1,0,0,1-1,0,0,1-1,0,0-1-1,1-1,1-1,1-2,2-1,1-1,2,0,1-1,2,1,2-1,1,0,1-1,1,0,1,0,1,0,1,1,1,0,1,1,1,1,0,0,1,1,0,1,0,1,1,1,1,5,1z"/>
<path fill="#ffff47" d="m58,198,1-1,1,0,1,0,1,0,1-1,1,0,1,0,1,1,1-1,1,0,1,0,0-1,1,0,0-1,0-1,1,0,0-1,0-1,0-1,0-2,0-1-1-1,0-1-1-1,0-1-1-1-1-1-6-2-2-5,0,1-1,0-1,0-1,0,0,1-1,0,0,1-1,0,0,1-1,0,0,1-1,0,0,1-1,1,0,1,0,1,0,1,0,1,0,1,0,1-1,0,0,1-1,0,0,1,0,1,0,1,0,1,1,1,0,1,8,4z"/>
<path fill="#ffff47" d="m55,126,19-2,1,0,1,0,1,0,1,0,1,0,1,0,1,0,1,0,1,0,1,0,1,0,1-1,1,0,1,0,1,0,1-1,7-2,1,0,0-1-1,0,1-1,0-1,0-3-1,1-2,0-1,0-2,0-1,1-2,0-1,0-2,0-1,0-2,1-2,0-1,0-2,0-1,0-2,0-2,0,0,1-1,0-1,0-1-1-1,0,0-1,1,0,2-1,1,0,2,0,1-1,2,0,2,0,1,0,2,0,2-1,1,0,2,0,1,0,2-1,2,0,1-1-7-2-1,1-2,0-1,0-1,1-2,0-1,0-1,0-2,1-1,0-1,0-2,0-1,0-1,0-2,0-1,0-1,1-1,0-2,0-1,0-1,0-1,0-2,0-1,0-1,0-1,0-1,0-1,0,0-1-1,0,0-1,1-1,9,0,1,0,1,0,1-1,1,0,2,0,1,0,1,0,1,0,1-1,1,0,2,0,1-1,1,0,1,0,1-1,1,0,2-2-2-3-1-1-2,2-1,0-2,0-1,0-2,0-1,0-1,0-2,1-1,1-1-1-1,0-1,0-1,0-1,0-2,0-1,0-1,0-1,0-1,0-1,0-1-1,0-1,1-1,1,0,1,0,1,0,2,0,1,0,1,0,1,0,2,0,1,0,1,0,2,0,1,0,1-1,1,0,2,0,0-3-2-5-1,0,0-1-1,0-1-1-1,0-1-1-1,0-1,0-1,0-1,0-1,0-1,0-1,0-1,0-1,0-2,0,0,1-2,0-1,0-1,1-1,0-1,1-2,0-1,1-1,1-1,1-2,1-1,1,0,1,0,1,3,1,1,0,0,1,0,1-1,0-1,0-1,0-1,0-1,0,0-1-1,0-1,1-2,5,1,0,1,1,1,0,1,0,1,1,1,0,1,0,0,1,1,0,0,1-1,0-1,0,0,1-1,0-1,0,0-1-1,0-1,0-1,0-1,0-1,0-1-1-5,3,1,1,1,0,1,0,1,0,1,0,1,0,1,1,1,0,1,0,1,0,1,0,1,0,1,1,0,1-1,0,0,1-10-1-1,0-1-1-2,0-1,0-1-1-1,0-1,0,0,1-2,3,1,1,1,1,2,1,1,0,2,1,2,0,1,0,2,1,2,0,1,0,2,1,2,0,1,0,2,0,2,1,1,0,2,0,7,1z"/>
<path fill="#ffff47" d="m32,99,2,0,0-1,1,0-1-1-1,0-1-1-2-1-1,0-1-1-1,0,0-1-2-1-1-2-1-1-1-2-1-1-1-2,0-1-1-2,0-1-1-2,0-2,0-2-1-1,0-2,0-2,0-1,1-2,0-2,0-1,1-2,0-1,1-1,1-2,1-1,1-1,1,0,0-1,1,0,0-1,1,0,1,0,1-1,1-1,1-1,1-1,2-1,1-1,1-1,1-1,2-1,1-2,1-1,1-1,1-1,0-1,0-1,1,0,0-1,0-1,1-1,1-2,1-2,1-1,0-2,1-1,1-2,1-2,0-1,1-2,1-1,1-1,1-2,1-1,2-1,1-1,2,0,1,0,1,0,1,0,1,0,1,1,1,0,1,1,2,1,0,2,1,1,0,1,1,2,0,2,0,1,0,2-1,2,0,1,0,2,0,2,0,2,0,1,1,2,0,1,1,1,0,1,1,1,1,0,1,0,0,1,1,1,2,1,1,1,1,1,1,0,2,1,1,1,1,1,1,0,1,1,1,1,1,1,1,1,1,1,0,2,1,1,1,1,0,1,1,2,0,1,0,2,0,1,0,1,0,2,0,1,0,2-1,2,0,2-1,1-1,2-1,1-1,2,0,1-1,2-2,1-1,1-1,2-2,1-1,1-1,1-2,1,0,1,1,0,2-1,2-1,1,0,1-1,2-1,1-1,1-1,1-1,1-1,0-1,1-1,1-1,1-2,1-1,0-2,1-1,0-2,1-1,0-2,0-2,1-1,0-2,0-2-1-1,0-2,0-1-1-2,0-1-1-2-1-2-1-1-1-1-1-2-1-1-1-1-2-1,0-1-1-1-1,0-1-1-1-1-1,0,0-1-1,0,0-1-1,0,0-1-1,0,0-1-1-2-1-1,0-2-1-1,0-2-1-2,0-1,0-1,0-1,0-1,0-1,0-1,0-1,0-1,0-1-1-2,0-1,0-2-1-2,0-1-1-1,0-2-1,0,0-1-1,0-1-1-1,0-1-1-1,0-2-1-1,0-1,0-2,0-1,1-1,0,0,1-1,0-1,1-1,1-1,1-1,0-1,1,0,1-1,1-1,1,0,1-1,1,0,1-1,1,0,1-1,1,0,1-1,2-1,1-1,2,0,1-1,2-1,1-1,2,0,1-1,1-1,1-1,1-1,1-1,1-2,1-1,1-1,1-1,1-1,1-1,1-1,1-1,1-1,1-1,0-1,1-1,0,0,1-1,1-5,5-1,0-2,6-1,2,0,1-1,0,0,1,0,1,0,1,0,1,0,1,0,1,0,1,0,1,1,1,0,1,0,1,1,1,0,1,1,2,0,1,0,1,1,1,0,1,1,2,1,1,0,1,1,2,1,1,1,1,1,1,1,1,1,1,1,1,1,1,1,1,2,0,1,1,1,0,1,1z"/>
<path fill="#FFF" d="m36,94,1,0,1-1,1-1,0-1,1-1,1-1,1-1,1,0,1-1,2-1,1,0,1-1,1,0,2-1,1,0,1-1,2,0,1,0,2,0,1,0,2,0,2,0,1,0,1,1,2,0,1,0,1,1,2,1,1,0,1,1,1,1,1,1,1,1,1-1,1,0,1-1,1-1,0-1,1-1,1-1,1-1,1-1,1-1,1-1,0-1,1-2,0-1,0-1,1-2,0-1,0-1,0-2,0-1,0-1,0-2,0-1,0-2-1-2-1-2-2-2-1-1-2-2-2-1-2-2-2-2-1,0-1-1-1-1-1-1-1-1-1,0-1-1,0-1-1-1,0-1-1-1,0-2,0-1,0-1,0-1,0-1,0-1,0-1,0-2,0-1,0-1,0-1,0-1,0-1,0-2,0-1,0-1-1-1,0-1-1-1-1,0,0-1-1,0-2,0-2,1-2,1-1,2-1,1-1,2-1,2-1,2-1,2,0,2-1,2-1,1,0,2-1,1-1,2-1,2-1,1-2,2-2,1-1,2-2,1-2,2-2,1-1,1-2,2-2,1-1,2-1,2-2,1-1,2-1,2,0,2-1,3,0,1,0,2,0,1,1,1,0,2,0,1,0,2,1,1,0,1,1,1,0,2,1,1,1,1,0,1,1,1,1,1,0,1,1,0,0,1,1,0,6,3z"/>
</g>
<g transform="translate(0,-3.095424)">
<g transform="matrix(0.24919265,0,0,0.24919265,119.85236,149.6766)">
<g transform="matrix(1.9924326,0,0,1.9924326,-1746.372,173.1057)">
<path opacity="0.98000004" stroke-linejoin="miter" d="m1060,231-4.65,17.2s-0.715,15.4-0.715,18.2c0,2.86,1.07,8.23,1.07,8.23l25.8,1.43,0.715-18.6s15.7,3.22,17.2,1.43c1.43-1.79,2.15,20.7,2.15,20.7l21.5-2.15s6.8-13.2,5.72-19.3c-1.07-6.08-5.01-24-5.01-24l-6.44-8.23z" stroke="#000" stroke-linecap="butt" stroke-miterlimit="4" stroke-dasharray="none" stroke-width="1.52192521" fill="#2e41ff"/>
<path opacity="0.98000004" stroke-linejoin="round" d="m1120,290s7.85-6.54,12.1-7.53c4.25-0.982,13.7,1.31,16.7,4.58,2.94,3.27,9.82,15.1,3.27,17.7-6.54,2.62-21.6,3.27-31.7,1.31s-23.2-2.62-21.6-11.8c1.64-9.16,1.64-18,7.53-19.3,5.89-1.31,16-3.6,18.3-1.31,2.29,2.29,8.18,6.87,7.2,8.18-0.982,1.31-0.982,1.31-0.982,1.31" stroke-dashoffset="0" stroke="#000" stroke-linecap="butt" stroke-miterlimit="4" stroke-dasharray="none" stroke-width="1.52192521" fill="#662f1f"/>
<path opacity="0.98000004" stroke-linejoin="round" d="m1060,287s-7.85-6.54-12.1-7.53c-4.25-0.982-13.7,1.31-16.7,4.58-2.94,3.27-9.82,15.1-3.27,17.7,6.54,2.62,21.6,3.27,31.7,1.31s23.2-2.62,21.6-11.8c-1.64-9.16-1.64-18-7.53-19.3-5.89-1.31-16-3.6-18.3-1.31-2.29,2.29-8.18,6.87-7.2,8.18,0.982,1.31,0.982,1.31,0.982,1.31" stroke-dashoffset="0" stroke="#000" stroke-linecap="butt" stroke-miterlimit="4" stroke-dasharray="none" stroke-width="1.52192521" fill="#662f1f"/>
<path opacity="0.98000004" stroke-linejoin="miter" d="m1060,231s5.37,9.3,29,7.15,35.4-2.15,36.8-6.8c1.43-4.65-0.358-39.7-0.358-39.7l15,3.22,10.7-5.37-22.5-22.5-80.1,2.86-4.65,17.2-1.79,10.4,19.7,13.2z" stroke="#000" stroke-linecap="butt" stroke-miterlimit="4" stroke-dasharray="none" stroke-width="1.52192521" fill="#ff130f"/>
<path opacity="0.98000004" stroke-linejoin="miter" d="m1070,21.7c2.7-6.17,6.88-11.7,12.1-15.9,1.81-1.47,3.74-2.81,5.87-3.77,2.12-0.959,4.45-1.54,6.78-1.46,2.33,0.0728,4.67,0.822,6.48,2.29s3.05,3.68,3.16,6.01c0.08,1.74-0.45,3.45-0.558,5.19-0.054,0.869,0.0003,1.76,0.282,2.58,0.282,0.824,0.807,1.58,1.55,2.04,0.67,0.412,1.49,0.557,2.27,0.486,0.784-0.0711,1.54-0.349,2.23-0.727,1.38-0.756,2.5-1.9,3.78-2.82,2.5-1.82,5.58-2.78,8.66-3,3.09-0.218,6.2,0.277,9.16,1.16,1.73,0.513,3.42,1.16,5.09,1.84,3.97,1.62,7.96,3.56,10.8,6.74,0.936,1.04,1.76,2.25,2,3.63,0.122,0.689,0.094,1.41-0.132,2.07-0.225,0.663-0.654,1.26-1.24,1.65-0.317,0.212-0.672,0.359-1.01,0.534-0.339,0.175-0.671,0.386-0.898,0.692-0.307,0.413-0.389,0.973-0.257,1.47,0.132,0.498,0.464,0.931,0.884,1.23,0.42,0.298,0.924,0.465,1.43,0.528,0.511,0.0629,1.03,0.0248,1.54-0.0621,1.02-0.174,1.99-0.54,3.01-0.692,0.509-0.0759,1.03-0.0972,1.54-0.0123,0.508,0.0849,1,0.28,1.4,0.604,0.584,0.473,0.921,1.18,1.27,1.84,1.84,3.47,4.5,6.41,6.82,9.58s4.36,6.74,4.64,10.7c0.148,2.07-0.22,4.19-1.13,6.06-0.909,1.87-2.36,3.48-4.17,4.51s-3.96,1.45-6.01,1.12c-2.05-0.337-3.98-1.45-5.24-3.11-0.695-0.914-1.19-1.98-1.99-2.81-0.4-0.412-0.879-0.759-1.42-0.938-0.545-0.18-1.16-0.181-1.68,0.0654-0.364,0.173-0.669,0.463-0.877,0.808-0.208,0.346-0.321,0.745-0.342,1.15-0.044,0.806,0.273,1.6,0.748,2.25,0.95,1.3,2.46,2.06,3.66,3.15,1.95,1.79,2.96,4.47,2.96,7.12-0.01,2.64-0.975,5.23-2.47,7.41-3,4.36-7.86,6.99-12.6,9.38-5.91,2.99-12,5.9-18.6,6.73-3.29,0.419-6.66,0.305-9.86-0.571-3.19-0.876-6.2-2.53-8.48-4.94-1.09-1.15-2-2.45-3.08-3.59-1.08-1.15-2.39-2.17-3.92-2.54-1.42-0.342-2.95-0.0907-4.28,0.532-1.32,0.623-2.46,1.6-3.42,2.7-1.93,2.21-3.2,4.91-5.04,7.19-3.47,4.29-8.75,6.79-14.1,8.04-5.37,1.25-10.9,1.38-16.4,1.77-2.79,0.198-5.58,0.464-8.38,0.392-2.8-0.0724-5.62-0.495-8.18-1.62-4.68-2.05-8.08-6.25-10.6-10.7-2.48-4.47-4.2-9.31-6.63-13.8-0.802-1.48-1.69-2.95-2.02-4.61-0.163-0.826-0.177-1.69,0.04-2.5,0.217-0.814,0.674-1.57,1.34-2.09,0.602-0.461,1.35-0.71,1.91-1.23,0.497-0.461,0.8-1.11,0.869-1.79,0.068-0.674-0.094-1.36-0.422-1.96-0.328-0.593-0.819-1.09-1.39-1.46-0.569-0.368-1.21-0.609-1.88-0.742-1.33-0.267-2.71-0.105-4.03,0.172-1.33,0.277-2.63,0.669-3.97,0.868-4.05,0.601-8.32-0.67-11.4-3.34-3.1-2.67-4.99-6.68-5.13-10.8-0.0726-2.04,0.268-4.1,0-6.13-0.163-1.23-0.549-2.44-0.637-3.68-0.126-1.79,0.382-3.59,1.27-5.15,0.89-1.56,2.15-2.88,3.55-4,2.8-2.24,6.15-3.67,9.19-5.57,1.91-1.19,3.74-2.58,5.89-3.23,1.08-0.324,2.23-0.45,3.33-0.244,1.11,0.206,2.16,0.763,2.87,1.64,0.469,0.581,0.776,1.28,1.27,1.84,0.63,0.705,1.55,1.13,2.49,1.22,0.942,0.0853,1.9-0.159,2.72-0.635,0.817-0.475,1.5-1.17,2-1.97,0.503-0.801,0.836-1.7,1.03-2.63,0.397-1.85,0.265-3.77,0.103-5.65s-0.352-3.79-0.067-5.66c0.559-3.66,2.98-6.91,6.13-8.85s6.97-2.65,10.7-2.38c3.69,0.265,7.28,1.46,10.6,3.07,3.33,1.62,6.44,3.65,9.52,5.71,2.13,1.42,4.25,2.85,6.37,4.29" stroke="#000" stroke-linecap="butt" stroke-miterlimit="4" stroke-dasharray="none" stroke-width="1.5505389" fill="#FF0"/>
<path opacity="0.98000004" stroke-linejoin="miter" d="m1020,146s-2.22,5.77-10.2,1.78c-7.99-3.99-17.3-16.9-16.4-24.9,0.888-7.99,6.21-18.6,10.2-18.6s8.88,6.21,8.88,6.21,0.444-25.7,10.6-36.8,29.3-28,47.5-30.2c18.2-2.22,41.9-0.786,59,9.32,10.4,6.09,17.1,17.5,22.2,28.4,3,6.44,3.99,19.1,4.44,20.9,0.444,1.78,0.444,5.33,0.444,5.33s9.76-9.32,12.4-0.888c2.66,8.43,4.64,18.1,2.22,26.6-1.7,6.01-3.99,14.6-11.1,15.1-7.1,0.444-7.99-2.66-7.99-2.66s-8.51,17.9-16,24c-13.1,10.6-35.1,18.6-47,18.6-12,0-39.9-10.7-42.6-12.4-13.9-10.7-20.1-15.4-26.6-29.7z" stroke="#000" stroke-linecap="butt" stroke-miterlimit="4" stroke-dasharray="none" stroke-width="1.52192521" fill="#f7ebe6"/>
<path opacity="0.98000004" stroke-linejoin="round" d="m1090,106s-6.84-2.85-9.8-1.4c-3.38,1.65-5.86,6.05-5.6,9.8,0.261,3.82,3.57,7.41,7,9.1,1.47,0.722,4.9,0,4.9,0" stroke-dashoffset="0" stroke="#000" stroke-linecap="butt" stroke-miterlimit="4" stroke-dasharray="none" stroke-width="1.52192521" fill="#f7ebe6"/>
<path opacity="0.98000004" stroke-linejoin="miter" d="m1050,104c-5.67-6.06-5.3-17.3-1.77-24.8,4.63-9.87,15.9-21.4,26.6-19.1,6.34,1.37,9.89,10.4,9.75,16.8-0.242,11.6-8.12,24.4-18.6,29.3-4.87,2.25-12.3,1.71-16-2.22z" stroke="#000" stroke-linecap="butt" stroke-miterlimit="4" stroke-dasharray="none" stroke-width="1.52192521" fill="#FFF"/>
<path opacity="0.98000004" stroke-linejoin="miter" d="m1110,112c-9.48-0.134-18-9.98-21.3-18.9-3.9-10.4-4.73-26.5,4.25-33,5.25-3.81,14.2-0.65,19.1,3.61,9.63,8.38,15.7,24,12.2,36.3-1.69,5.99-8.09,12.1-14.3,12z" stroke="#000" stroke-linecap="butt" stroke-miterlimit="4" stroke-dasharray="none" stroke-width="1.52192521" fill="#FFF"/>
<path opacity="0.98000004" stroke-linejoin="miter" d="m1070,159s18.8,3.87,28.1,2.89c8.36-0.866,24-7.66,24-7.66l4.85,3.83s-11.7,19.4-20.7,21.5c-8.94,2.04-14.4,0.464-20.9-2.04-7.66-2.93-19.8-14.6-19.8-14.6z" stroke="#000" stroke-linecap="butt" stroke-miterlimit="4" stroke-dasharray="none" stroke-width="1.52192521" fill="#000"/>
<path opacity="0.98000004" d="m1090,167s4.13-3.36,6.63-3.55c3.83-0.292,9.83,1.53,10.9,3.83,1.02,2.3,1.79,3.83,1.79,3.83m-16.3-1.53s-3.67-4.87-6.38-5.11c-5.81-0.5-14.8,7.92-14.8,7.92s4.2,2.84,6.51,3.83c2.6,1.11,5.39,1.79,8.17,2.3,2.44,0.444,4.94,0.822,7.41,0.639,2.92-0.217,5.98-0.637,8.56-2.04,2.64-1.44,6.51-6.26,6.51-6.26" stroke="#000" stroke-width="0.76096261" fill="#F00"/>
<path opacity="0.98000004" d="m1100,167-2.86,2.55,0.852,1.93,11.6,1.69,3.92-1.01,1.06-1.3-2.76-3.67z" stroke="#F00" stroke-width="0.76096261" fill="#F00"/>
<path opacity="0.98000004" stroke-linejoin="miter" d="m1000,119c0.727-0.92,1.78-1.58,2.93-1.83,1.15-0.249,2.38-0.0892,3.42,0.445s1.89,1.44,2.36,2.51c0.468,1.08,0.55,2.31,0.229,3.44-0.244,0.856-0.705,1.63-1.18,2.38-0.479,0.75-0.984,1.49-1.33,2.31-0.639,1.51-0.69,3.27-0.142,4.82s1.69,2.88,3.14,3.66" stroke="#000" stroke-linecap="butt" stroke-miterlimit="4" stroke-dasharray="none" stroke-width="1.34173465" fill="#f7ebe6"/>
<path opacity="0.98000004" stroke-linejoin="miter" d="m1160,115c-0.668,0.084-1.31,0.341-1.86,0.738-0.543,0.397-0.982,0.935-1.26,1.55-0.282,0.611-0.405,1.29-0.354,1.96,0.05,0.671,0.274,1.33,0.644,1.89,0.52,0.79,1.3,1.37,2.07,1.92,0.767,0.553,1.55,1.12,2.1,1.89,0.435,0.619,0.695,1.35,0.792,2.1,0.097,0.751,0.033,1.52-0.141,2.25-0.35,1.47-1.13,2.8-1.97,4.06-0.912,1.37-1.91,2.68-2.97,3.94" stroke="#000" stroke-linecap="butt" stroke-miterlimit="4" stroke-dasharray="none" stroke-width="1.52192521" fill="#f7ebe6"/>
<g opacity="0.98000004" stroke-linejoin="miter" transform="matrix(0.76096259,0,0,0.76096259,1009.5745,7.9147685)" stroke="#000" stroke-linecap="butt" stroke-dasharray="none" stroke-miterlimit="4" stroke-width="1.5" fill="#f7ebe6">
<path d="m50.5,236s3.94,6.67,4.24,9.09c0.303,2.42,0.606,8.18,0.606,8.18l6.06,6.06c0,2.42-0.575,5.3-1.82,7.58-1.54,2.82-3.92,5.3-6.67,6.97-3.42,2.07-11.5,3.33-11.5,3.33l-12.7,1.52c-1.09,0.593-2.27,0.045-4.24-1.21,0,0-4.85,3.94-7.88,5.15s-9.7,1.82-11.5-0.303c-1.82-2.12-6.97-19.4-6.97-19.4l-1.82-11.5s0.303-3.64,1.82-5.15c1.52-1.52,3.94-2.12,3.94-2.12s2.73-2.42,2.73-4.24,0.606-5.45,2.42-6.36c1.82-0.909,3.94,0.303,5.15-1.21,1.21-1.52,2.42-6.67,2.42-6.67s0.606-3.33,2.12-4.24c1.52-0.909,5.28-1.4,7.88-0.909,1.69,0.32,4.55,2.42,4.55,2.42s1.21-3.94,4.55-5.45c3.33-1.52,6.36-3.64,9.09-2.42,2.73,1.21,6.42,4.76,7.88,8.18,1.44,4.68,0.533,8.47-0.303,12.7z"/>
<path d="m5.07,247s0.303,13.3,0.909,16.7c1,4.52,2.54,10.4,6.67,13,3.16,1.99,11.2,0.303,11.2,0.303"/>
<path d="m24.8,277s-5.45-8.18-1.82-12.7c3.64-4.55,13.9-8.79,17.3-9.09,3.33-0.303,14.2-2.42,14.2-2.42"/>
<path d="m13.9,238c-0.291,6.69-0.574,16.1,2.12,21.5,0.199,0.38-0.606-1.21,0.909,0.909s4.24,4.55,4.24,4.55"/>
<path d="m28.7,222s-2.86,11.1-1.21,16.4c0.865,2.74-0.909,5.45,5.45,6.67,6.36,1.21,10.2,1.3,13.9-1.52,2.35-1.77,3.33-8.18,3.33-8.18"/>
<path d="m37.2,247-0.606,4.55c0.951,1.14,1.28,0.963,1.82,3.94"/>
<path d="m31.5,237,12.7,0s0.303-6.97-2.42-7.27c-2.73-0.303-4.55-1.21-6.36,0.303-1.82,1.52-3.94,6.97-3.94,6.97z"/>
<path d="m24.5,268,3.03,8.18s6.97-1.82,6.97-3.64,0-5.45-1.82-6.06c-1.82-0.606-8.18,1.52-8.18,1.52z"/>
<path d="m29.7,251s-8.18,1.21-9.09,2.73c-0.909,1.52-1.21,1.82-1.21,1.82"/>
<path d="m16.4,265s-0.909-0.303-2.42,3.03c-1.52,3.33-1.21,5.15-1.21,5.15"/>
<path d="m8.78,276l-2.73,2.42v2.73"/>
</g>
<g opacity="0.98000004" stroke-linejoin="miter" transform="matrix(0.76096259,0,0,0.76096259,1009.5745,7.9147685)" stroke="#000" stroke-linecap="butt" stroke-dasharray="none" stroke-miterlimit="4" stroke-width="1.5" fill="#f7ebe6">
<path d="m151,243s-2.42,7.36-2.19,9.79c0.225,2.43,1.17,8.12,1.17,8.12s-5.14,4.85-4.62,7.22c0.521,2.37,1.7,5.05,3.4,7.01,2.11,2.43,4.96,4.34,8.01,5.38,3.78,1.29,12,0.782,12,0.782l12.8-1.25c1.19,0.345,2.22-0.443,3.88-2.1,0,0,5.58,2.81,8.8,3.34,3.22,0.533,9.86-0.307,11.2-2.77,1.32-2.46,2.64-20.4,2.64-20.4l-0.697-11.6s-1.08-3.49-2.88-4.64c-1.81-1.15-4.3-1.23-4.3-1.23s-3.18-1.78-3.57-3.56c-0.391-1.78-1.76-5.2-3.73-5.69-1.97-0.497-3.78,1.14-5.29-0.0774s-3.8-5.99-3.8-5.99-1.31-3.13-2.98-3.69c-1.68-0.562-5.46-0.235-7.89,0.804-1.58,0.675-3.92,3.34-3.92,3.34s-2.03-3.59-5.61-4.35c-3.58-0.764-7-2.18-9.4-0.415-2.4,1.77-5.25,6.03-5.94,9.68-0.401,4.88,1.3,8.38,3.03,12.4z"/>
<path d="m198,244s2.57,13.1,2.69,16.5c-0.005,4.63-0.24,10.7-3.71,14.2-2.66,2.63-10.9,2.7-10.9,2.7"/>
<path d="m185,278s3.57-9.16-0.958-12.8c-4.53-3.66-15.5-5.59-18.8-5.17-3.32,0.42-14.4,0.691-14.4,0.691"/>
<path d="m187,237c1.72,6.47,4.01,15.6,2.55,21.5-0.113,0.413,0.332-1.31-0.693,1.08-1.02,2.4-3.17,5.35-3.17,5.35"/>
<path d="m169,225s5.19,10.3,4.7,15.7c-0.256,2.86,2.06,5.13-3.9,7.68-5.95,2.55-9.69,3.46-13.9,1.51-2.68-1.23-5.01-7.28-5.01-7.28"/>
<path d="m166,251,1.57,4.31c-0.683,1.32-1.05,1.22-0.93,4.24"/>
<path d="m170,241-11.7,4.95s-2.99-6.3-0.594-7.64c2.39-1.34,3.72-2.88,5.98-2.19,2.26,0.689,6.34,4.89,6.34,4.89z"/>
<path d="m183,269-1.2,8.64s-7.2-0.279-7.59-2.05c-0.391-1.78-1.17-5.33,0.474-6.31,1.65-0.982,8.32-0.278,8.32-0.278z"/>
<path d="m175,254s8.25-0.573,9.46,0.711,1.57,1.52,1.57,1.52"/>
<path d="m191,264s0.823-0.491,3.02,2.44,2.29,4.77,2.29,4.77"/>
<path d="m200,274s2.66-0.586,3.18,1.78c0.521,2.37,0.586,2.66,0.586,2.66"/>
</g>
<path opacity="0.98000004" fill="#F00" d="m1090,168,3.24-1.99,3.49,2.12-5.11,1.74z"/>
<path opacity="0.98000004" stroke-linejoin="miter" d="m1090,167c-2.57,2.22-4.07,5.3-2.37,8.5" stroke="#000" stroke-linecap="butt" stroke-width="0.76096261px" fill="none"/>
<path opacity="0.98000004" stroke-linejoin="round" d="m-133,156a3.75,4.5,0,1,1,-7.49,0,3.75,4.5,0,1,1,7.49,0z" transform="matrix(1.0126333,0,0,0.90727462,1207.5913,-52.43687)" stroke-dashoffset="0" stroke="#000" stroke-linecap="butt" stroke-miterlimit="4" stroke-dasharray="none" stroke-width="2" fill="#000"/>
<path opacity="0.98000004" stroke-linejoin="round" d="m-133,156a3.75,4.5,0,1,1,-7.49,0,3.75,4.5,0,1,1,7.49,0z" transform="matrix(1.0126333,0,0,0.90727462,1240.7047,-51.875812)" stroke-dashoffset="0" stroke="#000" stroke-linecap="butt" stroke-miterlimit="4" stroke-dasharray="none" stroke-width="2" fill="#000"/>
<path opacity="0.98000004" stroke-linejoin="miter" d="m1100,45.2c9.61,5.54,19.5,11.4,23.7,18.8-3.83-13-13.6-21.3-22.9-25.9-0.568,2.51-0.443,4.67-0.751,7.14z" stroke="#000" stroke-linecap="butt" stroke-miterlimit="4" stroke-dasharray="none" stroke-width="1.52192521" fill="#FF0"/>
<path opacity="0.98000004" stroke-linejoin="miter" d="m1080,44.6c-15.2,1.73-25.2,11.4-30.8,22.5-6.14-13.7,16.1-25.4,27.4-29.7,2.94,2.49,2.72,4.49,3.38,7.14z" stroke="#000" stroke-linecap="butt" stroke-miterlimit="4" stroke-dasharray="none" stroke-width="1.52192521" fill="#FF0"/>
</g>
</g>
</g>
<path fill="#000" d="m86.6,329c-0.0375-0.0452-0.0463-0.237-0.043-0.932,0.00081-0.153-0.015-0.237-0.0519-0.278-0.0419-0.0465-0.0489-0.107-0.0334-0.293,0.016-0.191,0.0074-0.257-0.0457-0.362-0.0828-0.162-0.0823-0.251,0.0025-0.409,0.0855-0.159,0.0896-0.341,0.0084-0.369-0.165-0.0586-0.224-0.204-0.132-0.329,0.0339-0.0464,0.0412-0.166,0.0296-0.488-0.0152-0.422-0.0143-0.428,0.0732-0.532,0.11-0.13,0.11-0.153,0.0025-0.27-0.0592-0.0639-0.0799-0.115-0.0656-0.162,0.0356-0.117,0.0868-0.46,0.116-0.778,0.0155-0.167,0.039-0.33,0.0523-0.362,0.0161-0.0391-0.0049-0.0928-0.0622-0.161-0.116-0.138-0.146-0.314-0.0825-0.487,0.0278-0.0756,0.0432-0.195,0.0346-0.267-0.0133-0.11-0.0336-0.138-0.131-0.178-0.0635-0.0265-0.124-0.0707-0.135-0.0981-0.0396-0.103,0.0278-0.299,0.139-0.402,0.0906-0.0842,0.121-0.15,0.165-0.357,0.0295-0.139,0.0676-0.309,0.0846-0.378,0.023-0.0927,0.0183-0.149-0.0181-0.219-0.0365-0.0705-0.044-0.163-0.0293-0.365,0.0108-0.149,0.0189-0.527,0.0181-0.84-0.0016-0.494-0.0098-0.582-0.0628-0.658-0.144-0.207-0.171-0.436-0.0897-0.743,0.0325-0.122,0.038-0.202,0.0164-0.243-0.0478-0.0893-0.0391-0.396,0.0372-1.31,0.04-0.48,0.0647-1.03,0.059-1.3-0.0074-0.345,0.0025-0.503,0.0368-0.584,0.0435-0.104,0.0412-0.117-0.034-0.197-0.0679-0.0723-0.0794-0.116-0.0732-0.277,0.0041-0.105,0.0065-0.449,0.0057-0.763-0.0016-0.495-0.0103-0.589-0.0661-0.698-0.0627-0.123-0.0645-0.266-0.0636-4.96,0.000819-4.55-0.0025-4.84-0.0574-4.88-0.0401-0.0293-0.207-0.0435-0.533-0.0451-0.261-0.002-0.608-0.0141-0.771-0.0283-0.372-0.0326-0.407-0.0657-0.373-0.357,0.0127-0.111,0.0196-0.288,0.0154-0.391-0.0082-0.2,0.054-0.404,0.182-0.596,0.0698-0.105,0.0708-0.119,0.0255-0.338-0.0382-0.184-0.0436-0.497-0.0278-1.61,0.0108-0.761,0.0232-1.43,0.0277-1.48l0.0082-0.0986-0.879,0.004c-0.527,0.002-0.916,0.0181-0.973,0.0395-0.141,0.0536-0.651,0.0455-0.741-0.0118-0.0563-0.0359-0.116-0.0405-0.244-0.0189-0.27,0.0459-0.476,0.0389-0.523-0.0179-0.0247-0.0299-0.0992-0.0508-0.181-0.0512-0.0766-0.00027-0.16-0.0138-0.186-0.0299-0.0589-0.0373-0.0774-0.365-0.0255-0.454,0.0292-0.0497,0.0281-0.0686-0.0049-0.0805-0.096-0.0347-0.143-0.121-0.143-0.264,0-0.114,0.0157-0.157,0.0675-0.184,0.0372-0.0199,0.0675-0.0693,0.0675-0.11,0-0.0405,0.0252-0.14,0.056-0.22,0.0435-0.114,0.077-0.151,0.15-0.165,0.123-0.0246,0.207-0.12,0.193-0.219-0.0155-0.109-0.192-0.125-0.345-0.0303-0.149,0.0918-0.337,0.0911-0.429-0.002-0.0569-0.0569-0.0678-0.0987-0.0535-0.205,0.0098-0.0735,0.0441-0.163,0.076-0.198,0.0755-0.0834,0.267-0.119,0.375-0.069,0.0726,0.0331,0.138,0.0193,0.445-0.0935,0.198-0.0728,0.466-0.19,0.596-0.26,0.13-0.0701,0.312-0.163,0.405-0.207,0.0928-0.0437,0.192-0.0943,0.219-0.112,0.0278-0.018,0.18-0.0998,0.338-0.182,0.158-0.082,0.369-0.22,0.469-0.306,0.1-0.0862,0.244-0.188,0.321-0.227,0.0762-0.0388,0.197-0.121,0.269-0.182,0.138-0.118,0.379-0.216,0.529-0.216,0.0499,0,0.238-0.0698,0.418-0.155,0.369-0.175,0.478-0.179,0.66-0.0258,0.0859,0.0723,0.126,0.0834,0.246,0.0684,0.248-0.0314,0.359-0.062,0.399-0.11,0.0214-0.0258,0.0746-0.047,0.118-0.047,0.0445,0,0.0948-0.0295,0.115-0.0675,0.02-0.0373,0.0706-0.0675,0.113-0.0675,0.0425,0,0.11-0.0352,0.151-0.0781,0.0598-0.0637,0.0734-0.119,0.0734-0.297,0-0.318,0.108-0.614,0.265-0.728,0.0678-0.0491,0.155-0.126,0.194-0.171,0.0895-0.103,0.468-0.229,0.888-0.298,0.175-0.0284,0.347-0.067,0.382-0.086,0.0652-0.0349,0.289-0.0992,0.642-0.185,0.249-0.0601,0.51-0.192,0.688-0.349,0.161-0.141,0.469-0.306,0.573-0.306,0.0386,0,0.0992-0.032,0.135-0.0711,0.0804-0.089,0.318-0.208,0.528-0.265,0.0882-0.0239,0.16-0.0623,0.16-0.0852,0-0.0921,0.144-0.217,0.313-0.271,0.173-0.0556,0.355-0.159,0.538-0.307,0.0862-0.0693,0.127-0.0735,0.753-0.0765,0.375-0.002,0.689-0.018,0.725-0.0373,0.0351-0.0188,0.0946-0.0341,0.132-0.0341,0.0377,0,0.0848-0.0304,0.105-0.0675,0.0204-0.038,0.0707-0.0675,0.115-0.0675,0.0435,0,0.098-0.0228,0.121-0.0506,0.0231-0.0278,0.0776-0.0506,0.121-0.0506,0.0445,0,0.0949-0.0295,0.115-0.0675,0.0203-0.038,0.0707-0.0675,0.115-0.0675,0.0435,0,0.098-0.0228,0.121-0.0506,0.0231-0.0278,0.0776-0.0507,0.121-0.0507,0.0445,0,0.0949-0.0295,0.115-0.0675,0.0199-0.0372,0.0656-0.0675,0.102-0.0675,0.0396,0,0.088-0.0433,0.123-0.11,0.0499-0.0956,0.058-0.249,0.0639-1.19,0.007-1.08,0.0251-1.33,0.131-1.81,0.0453-0.2,0.049-0.27,0.0176-0.338-0.139-0.301-0.172-0.726-0.0851-1.1,0.0443-0.188,0.0431-0.206-0.0187-0.285-0.0656-0.0834-0.19-0.172-0.384-0.272-0.101-0.0524-0.101-0.053-0.111-0.39-0.007-0.232,0.006-0.38,0.0391-0.473,0.0268-0.0743,0.0587-0.217,0.0706-0.317,0.0212-0.177,0.0998-0.369,0.222-0.543,0.0556-0.0788,0.061-0.212,0.069-1.71,0.007-1.27-0.00082-1.66-0.0373-1.81-0.0422-0.175-0.0408-0.198,0.0175-0.287,0.0553-0.0841,0.0622-0.152,0.054-0.535-0.008-0.362-0.0208-0.457-0.0741-0.544-0.0995-0.162-0.0856-0.377,0.036-0.556,0.106-0.156,0.125-0.262,0.0672-0.37-0.0529-0.0987-0.103-0.357-0.128-0.657-0.0243-0.292-0.0217-1.11,0.004-1.38,0.009-0.0928,0.0317-0.594,0.0507-1.11,0.019-0.52,0.0436-0.968,0.0549-0.996,0.0111-0.0282,0.0281-0.157,0.0377-0.287,0.0483-0.655,0.0526-0.98,0.0178-1.35-0.0408-0.433-0.029-0.557,0.0961-1.01,0.045-0.163,0.0761-0.381,0.0797-0.557,0.005-0.246-0.005-0.307-0.0694-0.41-0.114-0.184-0.154-0.409-0.16-0.909-0.003-0.251-0.0252-0.569-0.049-0.708-0.0386-0.225-0.0368-0.271,0.0164-0.428,0.0583-0.171,0.058-0.179-0.01-0.308-0.0614-0.118-0.0686-0.188-0.0638-0.618,0.005-0.458,0.0109-0.497,0.1-0.678,0.0905-0.184,0.0928-0.201,0.0555-0.405-0.0215-0.117-0.0602-0.263-0.0861-0.324-0.0626-0.147-0.0596-0.292,0.007-0.348,0.107-0.0888,0.114-0.182,0.0278-0.353-0.0923-0.182-0.0993-0.244-0.042-0.37,0.0331-0.0725,0.0297-0.105-0.0192-0.188-0.0522-0.0884-0.0587-0.194-0.0553-0.901,0.002-0.441,0.002-1.06,0.00009-1.37-0.002-0.316,0.0106-1.17,0.0282-1.91,0.0267-1.11,0.0413-1.36,0.088-1.47,0.0542-0.133,0.0532-0.146-0.0294-0.405-0.0995-0.311-0.107-0.463-0.0319-0.642,0.0299-0.0714,0.0682-0.228,0.0853-0.349,0.019-0.134,0.07-0.288,0.131-0.397,0.114-0.202,0.133-0.421,0.0477-0.543-0.0658-0.0939-0.114-0.343-0.139-0.72-0.0167-0.254-0.008-0.326,0.0688-0.563,0.0485-0.15,0.12-0.326,0.158-0.391,0.0598-0.101,0.0684-0.161,0.0573-0.399-0.0109-0.235-0.0343-0.329-0.146-0.584-0.131-0.298-0.133-0.311-0.133-0.71,0-0.37-0.007-0.414-0.076-0.502-0.0893-0.114-0.101-0.321-0.0255-0.437,0.0447-0.0683,0.0447-0.0988,0-0.271-0.0641-0.246-0.0638-0.56,0.0008-0.798,0.0619-0.228,0.129-0.734,0.127-0.962-0.002-0.255-0.0772-0.999-0.113-1.12-0.0426-0.139-0.0401-1.21,0.003-1.37,0.0401-0.144,0.0493-0.781,0.0164-1.13-0.016-0.17-0.007-0.321,0.0305-0.502,0.0669-0.324,0.0657-0.861-0.003-1.35-0.0289-0.204-0.0498-0.538-0.0464-0.743,0.004-0.264-0.009-0.414-0.0468-0.519-0.0378-0.106-0.0523-0.269-0.051-0.574,0.002-0.531,0.0753-1.31,0.128-1.36,0.0216-0.0216,0.0393-0.0875,0.0393-0.146,0-0.059,0.0202-0.166,0.0449-0.238,0.0295-0.0857,0.0405-0.241,0.0323-0.449-0.007-0.175-0.0282-0.729-0.0471-1.23-0.0188-0.503-0.0418-1.09-0.051-1.31-0.0124-0.291-0.003-0.445,0.0359-0.596,0.0661-0.255,0.0674-0.522,0.003-0.646-0.0584-0.113-0.239-0.272-0.309-0.272s-0.431-0.187-0.484-0.25c-0.0574-0.0692-0.0826-0.326-0.0385-0.391,0.0265-0.0392,0.109-0.0507,0.364-0.0507h0.33l0.0265-0.287c0.0349-0.377,0.0347-0.419-0.004-1.14-0.0296-0.547-0.0439-0.644-0.127-0.861-0.0517-0.135-0.129-0.297-0.172-0.362-0.134-0.203-0.0939-0.47,0.105-0.701,0.0359-0.0418,0.0859-0.076,0.111-0.076,0.0659,0,0.12-0.167,0.0982-0.303-0.0102-0.0644,0.004-0.206,0.0326-0.315,0.0282-0.109,0.0423-0.226,0.0315-0.26-0.0827-0.261-0.121-1.22-0.0598-1.49,0.162-0.702,0.194-1.39,0.0893-1.91-0.0366-0.181-0.0549-0.449-0.0554-0.81-0.002-0.959,0.0441-2.49,0.0774-2.62,0.0178-0.065,0.0324-0.288,0.0325-0.497,0.00014-0.404-0.00066-0.402,0.196-0.519l0.111-0.066-0.022-0.21c-0.0143-0.137-0.0696-0.315-0.158-0.51l-0.136-0.299-0.003-0.477c-0.002-0.262,0.0176-0.618,0.0427-0.791,0.043-0.296,0.0415-0.327-0.025-0.54-0.162-0.517-0.177-0.713-0.091-1.13,0.0277-0.134,0.0508-0.32,0.0513-0.412,0.002-0.337-0.0314-0.724-0.0684-0.793-0.0268-0.0502-0.0313-0.318-0.0155-0.921,0.0203-0.774,0.0283-0.859,0.0896-0.946,0.0557-0.0791,0.061-0.111,0.0303-0.186-0.0272-0.0661-0.0268-0.122,0.002-0.208,0.0446-0.136,0.0938-1,0.106-1.86,0.007-0.482-0.002-0.622-0.0489-0.76-0.0314-0.0928-0.0963-0.351-0.144-0.574-0.0478-0.223-0.119-0.475-0.158-0.561-0.0535-0.118-0.0655-0.192-0.0494-0.304,0.0117-0.081,0.0203-0.226,0.019-0.323-0.002-0.0972,0.021-0.221,0.0501-0.277,0.0402-0.0776,0.0525-0.213,0.0525-0.576,0-0.409,0.0622-1.04,0.117-1.19,0.009-0.0256,0.0305-0.144,0.0466-0.264,0.0264-0.196,0.0196-0.245-0.071-0.506-0.0552-0.159-0.112-0.304-0.127-0.323-0.0146-0.0186-0.0675-0.132-0.118-0.253-0.0501-0.121-0.118-0.25-0.15-0.287-0.115-0.131-0.148-0.278-0.127-0.554l0.0203-0.263-0.12-0.115c-0.179-0.172-0.215-0.265-0.215-0.558,0-0.233,0.0137-0.289,0.131-0.533,0.27-0.563,0.335-0.715,0.357-0.846,0.0128-0.0743,0.0915-0.289,0.175-0.477,0.142-0.319,0.151-0.357,0.135-0.563-0.009-0.122-0.0341-0.254-0.0555-0.294-0.123-0.229-0.169-0.674-0.0955-0.919,0.0336-0.112,0.031-0.147-0.0169-0.229-0.0846-0.143-0.0701-0.218,0.0754-0.386,0.17-0.197,0.193-0.303,0.106-0.495-0.0394-0.0867-0.0683-0.223-0.0688-0.323-0.002-0.473,0.248-1.23,0.532-1.61,0.22-0.293,0.26-0.41,0.208-0.603-0.0215-0.0801-0.0616-0.189-0.0889-0.242-0.0452-0.0874-0.0611-0.0941-0.174-0.0732-0.0682,0.0127-0.244,0.0306-0.391,0.0399-0.321,0.0202-0.542-0.0324-0.617-0.146-0.0783-0.12-0.0388-0.332,0.0859-0.462,0.17-0.178,0.343-0.468,0.343-0.577,0.00027-0.0562,0.0231-0.186,0.0508-0.288s0.0574-0.309,0.066-0.46c0.009-0.151,0.032-0.341,0.0522-0.422,0.039-0.157,0.109-1.21,0.112-1.68,0.00082-0.158-0.0141-0.363-0.0337-0.456-0.0196-0.0928-0.0557-0.262-0.0802-0.377-0.042-0.196-0.0391-0.229,0.0488-0.574,0.0514-0.201,0.114-0.472,0.139-0.602,0.0253-0.13,0.0941-0.441,0.153-0.692,0.0588-0.251,0.118-0.512,0.132-0.581,0.035-0.175,0.115-0.285,0.227-0.309,0.188-0.041,4.57-0.0644,4.91-0.0261,0.284,0.0324,0.352,0.029,0.591-0.0296,0.232-0.0571,0.39-0.0664,1.13-0.0667l0.864-0.0004,0.166-0.0928,0.166-0.0928,3.75-0.0246c2.06-0.0135,3.91-0.0273,4.12-0.0305,0.204-0.003,0.598,0.0133,0.874,0.0366,0.495,0.0418,0.505,0.0412,0.665-0.0334,0.215-0.1,0.365-0.0768,0.514,0.0807,0.13,0.138,0.278,0.175,0.557,0.142,0.507-0.0609,0.526-0.061,0.636-0.002,0.103,0.0553,0.116,0.0552,0.271-0.003,0.0897-0.0337,0.209-0.0885,0.264-0.122,0.0901-0.0539,0.193-0.0606,0.936-0.0607,0.775-0.00012,0.843-0.005,0.945-0.0675,0.106-0.0646,0.171-0.0674,1.57-0.0675,1.4-0.00012,1.46,0.002,1.54,0.0674,0.0841,0.0661,0.137,0.0675,2.64,0.0675,2.47,0,2.56,0.002,2.73,0.0675,0.136,0.0517,0.26,0.0676,0.532,0.0681,0.195,0.00027,0.461,0.0232,0.591,0.0507,0.459,0.0971,1,0.0469,1.27-0.117,0.072-0.0439,0.171-0.0685,0.276-0.0686,0.112-0.00009,0.19-0.0213,0.249-0.0676,0.0721-0.0567,0.137-0.0675,0.405-0.0675s0.333-0.0108,0.405-0.0675c0.077-0.0606,0.137-0.0675,0.583-0.0675s0.506,0.007,0.583,0.0675c0.0472,0.0372,0.118,0.0675,0.157,0.0675s0.103,0.0368,0.142,0.0819c0.0694,0.0798,0.0803,0.0814,0.44,0.0624,0.335-0.0177,0.378-0.0131,0.461,0.0485,0.0505,0.0373,0.124,0.0783,0.164,0.0908,0.0397,0.0126,0.0907,0.0451,0.113,0.0723,0.0347,0.0418,0.256,0.0493,1.46,0.0493,1.33,0,1.42-0.004,1.52-0.0634,0.0779-0.0468,0.198-0.0682,0.46-0.0818,0.412-0.0214,0.518,0.0119,0.681,0.215,0.0562,0.07,0.135,0.136,0.175,0.146,0.0399,0.0103,0.105,0.0761,0.145,0.146,0.04,0.0701,0.159,0.222,0.264,0.338,0.189,0.208,0.355,0.532,0.356,0.692,0.00012,0.0422,0.0307,0.122,0.068,0.178,0.0373,0.0557,0.0971,0.192,0.133,0.304,0.18,0.559,0.355,0.9,0.572,1.11,0.129,0.128,0.171,0.194,0.171,0.27,0.00067,0.114-0.108,0.313-0.188,0.343-0.0291,0.0112-0.07,0.0601-0.0907,0.109-0.0397,0.0929-0.0838,0.915-0.105,1.96-0.007,0.343-0.0275,0.875-0.0455,1.18-0.0213,0.362-0.0211,0.561,0.00026,0.57,0.0591,0.0227,0.16,0.138,0.16,0.183,0,0.113-0.0946,0.169-0.358,0.211-0.147,0.0233-0.362,0.0618-0.478,0.0855-0.186,0.0379-0.226,0.0363-0.33-0.0136-0.13-0.062-0.407-0.0745-0.57-0.0255-0.309,0.0929-0.529,0.103-2.35,0.108l-1.91,0.005-0.0175,0.156c-0.01,0.0856-0.004,0.181,0.013,0.213,0.0378,0.0707,0.0389,0.232,0.002,0.291-0.0152,0.024-0.072,0.0555-0.126,0.07-0.0914,0.0245-0.0986,0.0382-0.101,0.193-0.00082,0.0915-0.0199,0.219-0.0414,0.284-0.108,0.325-0.124,1.06-0.0366,1.62,0.0505,0.325,0.048,0.453-0.0212,1.05-0.0314,0.269-0.0523,0.588-0.0465,0.709,0.0138,0.29,0.009,0.94-0.007,1.05-0.012,0.0771-0.004,0.0835,0.097,0.0737,0.135-0.013,0.459,0.128,0.52,0.227,0.0554,0.0887,0.109,0.0882,0.335-0.003,0.232-0.0937,0.266-0.121,0.266-0.211,0-0.0995,0.106-0.207,0.252-0.255,0.0659-0.0218,0.12-0.0529,0.12-0.0693,0-0.0449,0.283-0.201,0.364-0.201,0.0393,0,0.106-0.0135,0.149-0.03,0.0427-0.0164,0.161-0.0488,0.263-0.0717,0.102-0.023,0.21-0.0633,0.241-0.0896,0.0302-0.0264,0.114-0.0571,0.186-0.0683s0.211-0.0556,0.309-0.0986c0.0982-0.043,0.235-0.0879,0.304-0.1,0.0689-0.012,0.163-0.0468,0.21-0.0773,0.0607-0.0398,0.207-0.0623,0.523-0.0804,0.241-0.0138,0.583-0.0401,0.76-0.0584,0.176-0.0182,0.473-0.0468,0.658-0.0634,0.186-0.0166,0.426-0.0548,0.533-0.0851,0.158-0.0444,0.366-0.0549,1.08-0.0549,0.978,0,1.07,0.0147,1.4,0.234,0.137,0.0907,0.187,0.104,0.396,0.106,0.311,0.002,0.517,0.0807,0.617,0.235,0.114,0.176,0.286,0.336,0.381,0.355,0.0464,0.009,0.183,0.0463,0.304,0.0823,0.121,0.0361,0.254,0.0751,0.297,0.0867,0.0701,0.0189,0.135,0.12,0.189,0.295,0.0102,0.0329,0.0379,0.0653,0.0616,0.072,0.289,0.0817,0.36,0.112,0.443,0.186,0.0527,0.0478,0.139,0.181,0.191,0.296,0.083,0.182,0.117,0.22,0.266,0.295,0.2,0.101,0.222,0.136,0.274,0.42,0.0683,0.377,0.308,0.929,0.574,1.32,0.0314,0.0464,0.131,0.206,0.22,0.354,0.182,0.301,0.331,0.5,0.545,0.726,0.0792,0.0836,0.167,0.208,0.196,0.277,0.0907,0.218,0.0567,1.06-0.0668,1.66-0.0286,0.138-0.0662,0.451-0.0837,0.695-0.0193,0.27-0.0518,0.483-0.0833,0.547-0.0284,0.0569-0.0516,0.137-0.0516,0.177,0,0.0407-0.0313,0.164-0.0694,0.273-0.0382,0.11-0.0901,0.309-0.115,0.444-0.106,0.564-0.325,1.06-0.657,1.47-0.062,0.0779-0.104,0.17-0.104,0.228,0,0.0539-0.0607,0.274-0.135,0.49-0.0743,0.215-0.135,0.436-0.135,0.49s-0.0456,0.199-0.101,0.322c-0.0575,0.127-0.101,0.281-0.101,0.356,0,0.172-0.0408,0.243-0.209,0.365-0.179,0.13-0.326,0.132-0.46,0.007-0.19-0.176-0.208-0.273-0.208-1.15v-0.792l-0.209-0.218c-0.115-0.12-0.275-0.247-0.356-0.283-0.21-0.0929-0.236-0.181-0.24-0.802-0.002-0.283-0.0188-0.544-0.0379-0.58-0.0191-0.0358-0.0348-0.134-0.0348-0.217,0-0.0837-0.0141-0.161-0.0313-0.171-0.0172-0.0106-0.105,0.0237-0.194,0.0761l-0.163,0.0955-0.0184,0.217c-0.0221,0.261-0.0928,0.434-0.218,0.532-0.0837,0.0658-0.134,0.0732-0.498,0.0732h-0.405l-0.125,0.113c-0.0991,0.0896-0.165,0.117-0.317,0.135-0.106,0.0124-0.23,0.0132-0.276,0.002-0.0717-0.018-0.0893-0.006-0.121,0.0853-0.0504,0.145-0.302,0.272-0.536,0.272-0.151,0-0.174,0.01-0.203,0.0849-0.0444,0.117-0.168,0.279-0.233,0.306-0.0296,0.0123-0.164,0.0338-0.3,0.0479-0.271,0.0281-0.346,0.0742-0.448,0.273-0.0595,0.117-0.219,0.243-0.414,0.328-0.12,0.0522-0.374,0.0526-0.597,0.00082-0.173-0.0399-0.174-0.0395-0.274,0.0675-0.0953,0.102-0.113,0.108-0.347,0.108-0.196,0-0.265-0.014-0.333-0.0675-0.107-0.084-0.119-0.0839-0.207,0.002-0.313,0.309-0.553,0.352-0.834,0.15-0.145-0.104-0.241-0.113-0.182-0.0173,0.0363,0.0586-0.0529,0.276-0.213,0.518-0.142,0.215-0.152,0.246-0.146,0.431,0.004,0.109,0.0363,0.286,0.072,0.392,0.0357,0.107,0.0653,0.279,0.0657,0.383,0.00068,0.145,0.0164,0.203,0.0684,0.25,0.0372,0.0336,0.0679,0.0929,0.0683,0.132,0.0004,0.0389,0.0309,0.16,0.0675,0.27,0.0367,0.11,0.0667,0.254,0.0667,0.322,0,0.118,0.115,0.388,0.252,0.589,0.0494,0.0731,0.0682,0.165,0.0745,0.368,0.005,0.149,0.0312,0.371,0.0589,0.493,0.0278,0.123,0.0752,0.44,0.105,0.706,0.03,0.266,0.0756,0.533,0.101,0.595,0.0257,0.0616,0.0572,0.217,0.0699,0.344,0.0127,0.128,0.0363,0.268,0.0526,0.312,0.0203,0.0549,0.0135,0.112-0.0217,0.182-0.0749,0.15-0.063,0.276,0.0375,0.395,0.0583,0.0693,0.0945,0.16,0.106,0.264,0.009,0.0873,0.0383,0.183,0.0645,0.214,0.0262,0.0301,0.061,0.129,0.0772,0.219,0.0271,0.151,0.14,0.485,0.552,1.63,0.0833,0.232,0.171,0.506,0.196,0.608,0.0243,0.102,0.079,0.242,0.122,0.312,0.0426,0.0693,0.0774,0.146,0.0774,0.17,0,0.0241,0.0242,0.0783,0.0538,0.121,0.0409,0.0584,0.057,0.187,0.0671,0.539,0.0225,0.783,0.127,1.28,0.346,1.66,0.0372,0.064,0.0846,0.215,0.106,0.336,0.0659,0.38,0.0746,0.405,0.17,0.473,0.254,0.181,0.407,0.916,0.23,1.1-0.0419,0.0446-0.0918,0.117-0.111,0.161-0.0558,0.128-0.339,0.324-0.828,0.572-0.474,0.241-0.596,0.325-0.643,0.446-0.0152,0.0395-0.134,0.142-0.264,0.229-0.13,0.0864-0.249,0.193-0.264,0.236-0.0153,0.0434-0.0619,0.123-0.104,0.176-0.069,0.0888-0.133,0.206-0.463,0.848-0.0595,0.116-0.128,0.298-0.153,0.405-0.062,0.271-0.0961,1.28-0.0464,1.37,0.0249,0.0464,0.0278,0.107,0.008,0.175-0.0164,0.057-0.0297,0.234-0.0297,0.394,0,0.285-0.0379,0.47-0.117,0.571-0.0293,0.0373-0.032,0.157-0.0101,0.456,0.0163,0.223,0.0328,0.506,0.0367,0.63,0.006,0.194,0.0193,0.237,0.094,0.306,0.0929,0.0861,0.104,0.146,0.152,0.836,0.0123,0.176,0.0358,0.338,0.0523,0.359,0.0398,0.0505,0.102,0.295,0.232,0.908,0.0894,0.423,0.107,0.583,0.109,0.978,0.002,0.427-0.008,0.515-0.108,0.911-0.0917,0.365-0.116,0.541-0.142,1.05-0.0173,0.334-0.0272,0.835-0.022,1.11,0.008,0.459,0.002,0.525-0.0679,0.71-0.0425,0.112-0.153,0.302-0.246,0.422-0.0925,0.12-0.252,0.342-0.355,0.493-0.25,0.368-0.266,0.381-0.506,0.385-0.329,0.006-0.557,0.0657-0.591,0.154-0.0468,0.123-0.147,0.159-0.22,0.0777-0.0381-0.0421-0.0944-0.0642-0.148-0.058-0.0688,0.008-0.0844,0.0264-0.0772,0.0911,0.005,0.0446-0.0141,0.116-0.0422,0.159-0.0282,0.0429-0.0512,0.113-0.0512,0.156,0,0.0429-0.0231,0.111-0.0513,0.151-0.0364,0.052-0.0449,0.113-0.0294,0.211,0.015,0.0939,0.004,0.185-0.0355,0.288-0.0333,0.0872-0.0458,0.169-0.0297,0.194,0.0153,0.0237,0.0301,0.453,0.0329,0.954,0.002,0.501,0.008,0.995,0.0126,1.1,0.004,0.102,0.00082,0.338-0.007,0.523-0.0102,0.236-0.00082,0.365,0.0296,0.429,0.0541,0.112,0.057,0.299,0.007,0.411-0.0302,0.0662-0.0268,0.0987,0.0169,0.161,0.0706,0.101,0.0734,0.493,0.005,0.657-0.034,0.0813-0.0439,0.181-0.0311,0.311,0.0113,0.116-0.003,0.312-0.0371,0.496-0.0307,0.167-0.0845,0.585-0.12,0.928-0.0351,0.343-0.0786,0.738-0.0967,0.878-0.0181,0.139-0.0555,0.451-0.0832,0.692-0.0782,0.683-0.159,1.27-0.192,1.4-0.0169,0.0666-0.0688,0.165-0.115,0.219-0.0466,0.0542-0.0847,0.122-0.0847,0.151-0.00003,0.029-0.0452,0.096-0.1,0.149-0.108,0.104-0.215,0.373-0.197,0.498,0.01,0.0677,0.0354,0.0791,0.219,0.0966,0.114,0.011,0.251,0.0366,0.304,0.0569,0.147,0.0569,0.437,0.109,0.606,0.109,0.193,0,0.271,0.0423,0.329,0.178,0.0305,0.0719,0.11,0.147,0.236,0.222,0.184,0.11,0.197,0.113,0.44,0.0903,0.226-0.0212,0.265-0.0154,0.419,0.0624,0.19,0.0965,0.311,0.229,0.311,0.342,0,0.129-0.121,0.183-0.591,0.266-0.498,0.0877-0.746,0.213-0.932,0.47-0.0857,0.118-0.0977,0.164-0.098,0.374-0.00053,0.315-0.061,0.53-0.249,0.883-0.192,0.361-0.247,0.543-0.277,0.918-0.0134,0.167-0.0594,0.398-0.106,0.531-0.0683,0.196-0.085,0.32-0.0977,0.726-0.021,0.673-0.0405,0.733-0.339,1.06-0.252,0.274-0.585,0.833-0.585,0.984,0,0.113-0.2,0.759-0.287,0.929-0.0431,0.0836-0.0876,0.243-0.0991,0.354s-0.0523,0.354-0.0907,0.54c-0.0591,0.286-0.0642,0.368-0.033,0.54,0.0202,0.111,0.032,0.423,0.0262,0.692-0.0114,0.529-0.0174,0.551-0.245,0.895-0.152,0.23-0.216,0.533-0.254,1.2-0.0363,0.633-0.0249,0.812,0.0715,1.12,0.0579,0.187,0.0974,0.247,0.262,0.398,0.171,0.156,0.301,0.23,0.739,0.42,0.0763,0.033,0.13,0.0973,0.192,0.228,0.0473,0.1,0.184,0.318,0.304,0.483,0.313,0.432,0.359,0.487,0.407,0.487,0.0586,0,0.155,0.111,0.155,0.179,0,0.0306,0.0418,0.0816,0.0928,0.113,0.13,0.0806,0.209,0.184,0.21,0.273,0.00054,0.0508,0.0443,0.103,0.133,0.159,0.0729,0.0461,0.16,0.124,0.194,0.174,0.0338,0.0496,0.118,0.149,0.188,0.222,0.0696,0.0724,0.127,0.154,0.127,0.182,0,0.0279,0.0607,0.108,0.135,0.179,0.0751,0.0714,0.135,0.16,0.135,0.2,0,0.0459,0.0371,0.091,0.103,0.125,0.0565,0.0292,0.129,0.0969,0.162,0.15,0.0707,0.116,0.347,0.308,0.56,0.39,0.155,0.0593,0.215,0.0589,0.803-0.005,0.164-0.0179,0.221-0.008,0.371,0.0639,0.0977,0.0467,0.254,0.118,0.346,0.158,0.0928,0.0399,0.222,0.115,0.287,0.167s0.194,0.132,0.287,0.179c0.384,0.191,0.794,0.435,1.08,0.641,0.298,0.215,0.305,0.222,0.351,0.414,0.0392,0.163,0.0397,0.235,0.003,0.436-0.0631,0.347-0.0627,0.347-0.333,0.373-0.198,0.0196-0.243,0.036-0.289,0.106-0.0696,0.106-0.131,0.104-0.234-0.007l-0.0828-0.0893-0.619-0.003c-0.46-0.002-0.648,0.009-0.73,0.0435-0.0881,0.0372-0.127,0.0385-0.187,0.007-0.0836-0.0447-0.521-0.0328-1.33,0.0359-0.475,0.0406-0.647,0.0279-0.965-0.0717-0.0511-0.016-0.0928-0.0161-0.0928-0.0004,0,0.0829,0.0711,0.195,0.134,0.211,0.0552,0.0144,0.0694,0.0406,0.0616,0.113-0.009,0.084,0.002,0.0965,0.108,0.115,0.155,0.0274,0.427,0.215,0.491,0.339,0.028,0.0542,0.0666,0.0985,0.0857,0.0985,0.0192,0,0.0757,0.0443,0.126,0.0984,0.05,0.0541,0.228,0.173,0.395,0.264,0.287,0.156,0.545,0.319,0.957,0.605,0.252,0.175,0.47,0.508,0.519,0.794,0.0473,0.276,0.0268,0.35-0.162,0.579-0.171,0.208-0.24,0.24-0.622,0.293-0.139,0.0191-0.423,0.0664-0.631,0.105-0.339,0.0634-0.414,0.0666-0.735,0.032-0.197-0.0212-0.373-0.0292-0.391-0.0178-0.0184,0.0114-0.113,0.006-0.21-0.0133-0.471-0.0906-0.728-0.113-0.847-0.0734-0.122,0.0401-0.241,0.009-0.298-0.0779-0.0127-0.0195-0.21-0.0548-0.439-0.0785-0.549-0.0569-0.581-0.0617-0.637-0.0969-0.0266-0.0165-0.124-0.0404-0.217-0.053-0.296-0.0401-0.675-0.153-0.82-0.245-0.0775-0.0489-0.32-0.135-0.538-0.192-0.385-0.0996-0.402-0.108-0.549-0.27-0.095-0.104-0.205-0.185-0.293-0.215-0.231-0.0797-0.317-0.155-0.506-0.449-0.127-0.197-0.242-0.327-0.39-0.44-0.401-0.306-1.03-0.916-1.14-1.1-0.147-0.256-0.22-0.307-0.59-0.407-0.372-0.101-0.513-0.19-0.671-0.423-0.0577-0.085-0.165-0.223-0.238-0.306-0.181-0.206-0.23-0.336-0.261-0.692-0.0145-0.167-0.052-0.418-0.0833-0.557-0.0431-0.191-0.0532-0.356-0.0418-0.675,0.0173-0.479,0.104-0.824,0.33-1.32,0.17-0.37,0.182-0.444,0.131-0.819-0.0476-0.351-0.076-0.421-0.287-0.708-0.139-0.188-0.149-0.217-0.149-0.413,0-0.157,0.0212-0.252,0.0842-0.376,0.126-0.249,0.114-0.309-0.106-0.501-0.238-0.209-0.282-0.315-0.282-0.673,0-0.211-0.013-0.295-0.0505-0.326-0.072-0.0597-0.186-0.451-0.185-0.637,0.00026-0.0862,0.0244-0.225,0.0537-0.309,0.0584-0.167,0.0508-0.286-0.0378-0.591-0.0469-0.161-0.0922-0.233-0.223-0.354-0.15-0.139-0.166-0.17-0.197-0.371-0.0185-0.121-0.0623-0.326-0.0974-0.456-0.035-0.13-0.0969-0.388-0.137-0.574-0.074-0.34-0.172-0.72-0.198-0.77-0.0301-0.0578-0.109,0.0578-0.109,0.16,0,0.061-0.0431,0.175-0.0998,0.265-0.0788,0.124-0.15,0.182-0.337,0.277-0.373,0.188-0.652,0.153-0.794-0.1-0.0716-0.128-0.0851-0.135-0.309-0.17-0.352-0.0543-0.457-0.15-0.381-0.348,0.0425-0.112,0.0864-0.139,0.222-0.14,0.134-0.00067,0.272-0.127,0.204-0.187-0.0234-0.0207-0.131-0.0643-0.239-0.097-0.26-0.0783-0.327-0.148-0.327-0.343,0-0.217,0.0713-0.33,0.295-0.465,0.107-0.0651,0.23-0.156,0.273-0.202l0.0786-0.0836-0.0675-0.248c-0.0715-0.262-0.0841-0.774-0.0215-0.873,0.0177-0.0278,0.0411-0.165,0.0522-0.304,0.0122-0.154,0.0498-0.318,0.096-0.418,0.0418-0.0904,0.0884-0.28,0.104-0.422,0.0152-0.142,0.0581-0.356,0.0953-0.477,0.0869-0.282,0.168-1.45,0.111-1.6-0.0464-0.119-0.0472-0.327-0.002-0.57,0.0228-0.124,0.0237-0.238,0.002-0.333-0.0524-0.233,0.0357-0.322,0.392-0.398,0.0969-0.0205,0.287-0.0768,0.422-0.125,0.135-0.0483,0.376-0.123,0.535-0.167,0.428-0.117,0.637-0.221,0.799-0.399,0.0789-0.086,0.143-0.18,0.143-0.209,0-0.0291,0.0273-0.11,0.0607-0.179,0.05-0.104,0.0624-0.23,0.0701-0.714,0.005-0.324,0.0208-0.612,0.035-0.641,0.0141-0.0287,0.0448-0.143,0.0682-0.255,0.0234-0.111,0.0563-0.237,0.0731-0.28,0.0168-0.0427,0.0308-0.119,0.031-0.169,0.00053-0.0959,0.074-0.339,0.144-0.476,0.0586-0.115,0.0342-2.15-0.0276-2.29-0.0867-0.204-0.0973-0.416-0.0754-1.51,0.004-0.192-0.0167-0.349-0.0707-0.54-0.0839-0.298-0.133-0.594-0.172-1.03-0.024-0.271-0.0683-0.426-0.333-1.16-0.0466-0.13-0.113-0.274-0.149-0.319-0.051-0.0661-0.0626-0.131-0.057-0.321,0.004-0.131,0.0223-0.299,0.0409-0.374,0.0316-0.128,0.0258-0.148-0.0884-0.314-0.0672-0.0977-0.131-0.234-0.142-0.302-0.024-0.148-0.0747-0.406-0.119-0.606-0.0175-0.0792-0.0318-0.204-0.0318-0.278,0-0.0751-0.0164-0.135-0.037-0.135-0.0898,0-0.4,0.109-0.437,0.153-0.0241,0.0291-0.1,0.049-0.187,0.049-0.13,0-0.158-0.0148-0.257-0.139-0.0614-0.0764-0.203-0.236-0.314-0.356-0.181-0.194-0.238-0.231-0.534-0.349-0.182-0.0727-0.406-0.178-0.498-0.234-0.0913-0.0562-0.375-0.172-0.631-0.258-0.256-0.0858-0.499-0.178-0.541-0.204-0.0801-0.0504-0.102-0.161-0.0387-0.2,0.0205-0.0127,0.0735-0.101,0.118-0.196,0.0906-0.195,0.0863-0.423-0.0117-0.617-0.0514-0.102-0.0492-0.118,0.0503-0.388l0.104-0.282-0.007-0.692-0.007-0.692-0.0928-0.138c-0.0516-0.0766-0.106-0.219-0.123-0.321-0.0165-0.1-0.0538-0.251-0.083-0.335-0.0292-0.0836-0.0533-0.177-0.0535-0.207-0.00027-0.0304-0.0385-0.0801-0.0849-0.11-0.0768-0.0503-0.0844-0.0767-0.0844-0.293,0-0.131-0.0242-0.344-0.0539-0.475-0.0428-0.188-0.0463-0.268-0.0169-0.385,0.0549-0.218,0.0484-0.554-0.0112-0.577-0.0888-0.0341-0.481,0.287-0.823,0.672-0.292,0.329-0.346,0.36-0.629,0.361-0.129,0.00012-0.283-0.0175-0.343-0.0392-0.104-0.0374-0.117-0.0323-0.272,0.105-0.0899,0.0796-0.194,0.159-0.231,0.177-0.0372,0.0179-0.141,0.131-0.23,0.251-0.164,0.22-0.326,0.35-0.439,0.35-0.0336,0.00006-0.102-0.0449-0.152-0.0998-0.114-0.125-0.332-0.204-0.562-0.204-0.222,0-0.284-0.0618-0.319-0.319-0.0213-0.157-0.0489-0.214-0.158-0.329-0.0726-0.0763-0.159-0.167-0.191-0.201-0.0481-0.0508-0.0591-0.125-0.0591-0.398v-0.336l0.177-0.21c0.178-0.211,0.276-0.309,0.773-0.772,0.214-0.199,0.3-0.309,0.405-0.517,0.123-0.244,0.267-0.468,0.557-0.871,0.0621-0.086,0.113-0.186,0.113-0.223,0-0.0786,0.21-0.363,0.305-0.414,0.107-0.0571,0.0781-0.111-0.111-0.21-0.185-0.0965-0.261-0.115-0.261-0.0619,0,0.0621-0.509,0.57-0.592,0.591-0.108,0.0271-0.297-0.0597-0.369-0.169-0.0293-0.0448-0.144-0.127-0.254-0.183-0.248-0.125-0.557-0.138-0.846-0.036-0.156,0.0552-0.195,0.0585-0.252,0.0213-0.103-0.0671-0.0999-0.146,0.009-0.248,0.101-0.0949,0.177-0.212,0.177-0.275,0-0.0199-0.0647-0.0359-0.144-0.0359-0.29,0-0.316-0.0657-0.35-0.861-0.0195-0.462,0.007-0.593,0.172-0.844,0.061-0.0928,0.152-0.242,0.202-0.33,0.05-0.0889,0.136-0.212,0.19-0.275,0.0545-0.062,0.0991-0.124,0.0991-0.137,0-0.122,0.569-0.726,0.683-0.726,0.02,0,0.114-0.0588,0.208-0.131,0.0946-0.072,0.351-0.249,0.569-0.393,0.384-0.253,0.532-0.393,0.641-0.608,0.0542-0.107,0.174-0.503,0.205-0.676,0.0547-0.309,0.414-0.941,0.729-1.28,0.0717-0.0778,0.21-0.261,0.306-0.408,0.0968-0.146,0.235-0.326,0.307-0.4,0.0723-0.0733,0.131-0.144,0.131-0.157,0-0.0129,0.0797-0.0736,0.177-0.135,0.0975-0.0611,0.264-0.192,0.369-0.291,0.106-0.0987,0.259-0.208,0.342-0.244,0.102-0.0439,0.182-0.113,0.253-0.217,0.135-0.2,0.116-0.218-0.364-0.322-0.331-0.0723-0.499-0.31-0.514-0.727-0.009-0.23-0.0106-0.235-0.112-0.261-0.127-0.0327-0.218-0.204-0.218-0.409-0.00011-0.0783-0.025-0.188-0.0553-0.244-0.0848-0.156-0.121-0.368-0.137-0.808-0.0112-0.31-0.002-0.435,0.0376-0.54,0.0427-0.112,0.0467-0.199,0.0221-0.481-0.019-0.218-0.0498-0.372-0.0838-0.421-0.0352-0.0503-0.0538-0.149-0.0538-0.286,0-0.293,0.154-0.586,0.62-1.17,0.0602-0.0761,0.176-0.283,0.258-0.459,0.341-0.736,0.657-1.22,0.801-1.22,0.0245,0,0.0602-0.0417,0.0795-0.0928,0.0478-0.127,0.181-0.261,0.402-0.407,0.211-0.139,0.186-0.116,0.458-0.429,0.113-0.13,0.255-0.327,0.317-0.438,0.0619-0.111,0.147-0.241,0.189-0.287,0.0421-0.0464,0.103-0.176,0.134-0.287,0.0318-0.111,0.151-0.384,0.264-0.606,0.163-0.318,0.259-0.46,0.455-0.666,0.226-0.238,0.657-0.556,0.858-0.632,0.24-0.0911,0.775-0.499,1.37-1.04,0.155-0.142,0.307-0.272,0.338-0.289,0.0302-0.0169,0.138-0.101,0.241-0.188,0.102-0.0864,0.235-0.192,0.296-0.234,0.151-0.105,0.46-0.499,0.51-0.65,0.0225-0.0681,0.0629-0.142,0.0898-0.164,0.0268-0.0223,0.0489-0.0581,0.0489-0.0795,0-0.07,0.308-0.539,0.479-0.729,0.0918-0.102,0.258-0.297,0.37-0.432,0.112-0.136,0.256-0.28,0.319-0.321,0.0637-0.0408,0.124-0.112,0.134-0.159,0.0102-0.0464,0.0327-0.119,0.0499-0.162,0.0432-0.107,0.0395-0.435-0.006-0.52-0.117-0.218-0.482-0.629-0.799-0.9-0.0947-0.0807-0.204-0.21-0.244-0.287-0.258-0.506-0.396-0.707-0.755-1.1-0.133-0.146-0.34-0.387-0.461-0.536s-0.307-0.333-0.413-0.409c-0.2-0.142-0.253-0.237-0.215-0.388,0.0142-0.0565,0.0512-0.0899,0.113-0.102,0.0507-0.0101,0.192-0.0484,0.314-0.0849,0.239-0.0718,0.699-0.0907,0.807-0.0332,0.0453,0.0242,0.104,0.0148,0.217-0.035,0.148-0.0654,0.202-0.0675,1.26-0.0503,0.608,0.01,1.39,0.0264,1.74,0.0365,0.66,0.0193,0.768,0.003,0.768-0.116,0-0.124-0.102-0.301-0.227-0.396-0.234-0.178-0.498-0.341-0.585-0.361-0.134-0.031-0.365-0.214-0.389-0.309-0.0397-0.158,0.009-0.248,0.155-0.287,0.163-0.0438,0.566-0.39,0.629-0.54,0.0576-0.137,0.221-0.202,0.506-0.202,0.226,0,0.227,0.00035,0.372,0.157,0.165,0.177,0.182,0.273,0.0779,0.444l-0.0677,0.111,0.0932,0.082c0.0512,0.0451,0.11,0.0825,0.131,0.0831,0.0942,0.002,0.114-0.318,0.114-1.88,0.0004-1.71,0.00004-1.7,0.191-2.09,0.0793-0.162,0.0855-0.197,0.0508-0.293-0.0216-0.0598-0.0394-0.177-0.0394-0.261,0-0.137-0.0136-0.163-0.133-0.259-0.0733-0.0589-0.158-0.149-0.188-0.2l-0.0548-0.0927-1.46,0.009c-1.35,0.008-1.48,0.0142-1.73,0.0788-0.216,0.0548-0.33,0.0652-0.523,0.0481-0.136-0.012-0.84-0.034-1.56-0.0488-0.724-0.0148-1.37-0.0382-1.42-0.0521-0.0593-0.0138-0.234-0.007-0.388,0.015-0.154,0.0221-0.387,0.0518-0.517,0.0661-0.275,0.0301-0.69,0.22-0.78,0.358-0.073,0.111-0.748,0.702-0.876,0.766-0.0547,0.0276-0.137,0.0593-0.184,0.0706-0.0511,0.0124-0.164,0.121-0.287,0.275-0.111,0.14-0.256,0.291-0.322,0.335-0.173,0.115-0.46,0.257-0.521,0.257-0.0289,0-0.117,0.0583-0.195,0.13-0.0785,0.0713-0.236,0.192-0.35,0.269-0.151,0.101-0.235,0.189-0.31,0.322-0.0812,0.144-0.145,0.206-0.299,0.293-0.108,0.0609-0.212,0.13-0.23,0.154-0.0509,0.0656-0.433,0.338-0.58,0.414-0.0711,0.0367-0.182,0.123-0.247,0.191-0.0712,0.075-0.278,0.205-0.522,0.327-0.222,0.112-0.717,0.412-1.1,0.668s-0.733,0.476-0.778,0.489c-0.0443,0.0134-0.119,0.0606-0.167,0.105-0.101,0.0941-0.504,0.359-1.03,0.675-0.204,0.123-0.422,0.283-0.484,0.355-0.0618,0.0719-0.128,0.131-0.147,0.131-0.0192,0-0.198,0.121-0.398,0.268s-0.498,0.347-0.663,0.443c-0.165,0.0964-0.346,0.217-0.401,0.269-0.0557,0.0514-0.195,0.14-0.31,0.197-0.118,0.0589-0.218,0.133-0.23,0.171-0.0356,0.112-0.454,0.469-0.681,0.581-0.117,0.0578-0.23,0.125-0.25,0.149-0.0202,0.0244-0.115,0.0938-0.211,0.154-0.0961,0.0604-0.223,0.151-0.282,0.201-0.0589,0.0503-0.154,0.102-0.211,0.114-0.0571,0.0125-0.123,0.049-0.146,0.081-0.0423,0.0583-0.433,0.359-0.751,0.578-0.0928,0.0639-0.347,0.208-0.564,0.321-0.292,0.151-0.416,0.235-0.473,0.321-0.077,0.115-0.453,0.399-0.718,0.542-0.13,0.0704-0.258,0.168-0.473,0.362-0.0557,0.0504-0.223,0.162-0.371,0.247-0.149,0.0858-0.414,0.273-0.591,0.416-0.176,0.143-0.393,0.295-0.482,0.337-0.0885,0.042-0.242,0.15-0.341,0.241-0.0992,0.0906-0.279,0.243-0.4,0.338l-0.219,0.174-0.0251,0.333c-0.0138,0.183-0.0224,0.464-0.0191,0.626,0.003,0.176-0.0151,0.376-0.0472,0.501-0.0701,0.274-0.0672,0.39,0.0163,0.647,0.0993,0.306,0.121,0.732,0.0529,1.03-0.07,0.308-0.0698,0.513,0.00054,0.613,0.0485,0.0693,0.0525,0.15,0.0322,0.64-0.0128,0.309-0.031,1.11-0.0404,1.78-0.0104,0.735-0.0331,1.3-0.0576,1.42-0.0273,0.137-0.0365,0.498-0.0285,1.12,0.0105,0.81,0.005,0.939-0.048,1.1-0.0515,0.154-0.0603,0.314-0.0625,1.12-0.002,0.816-0.0111,0.975-0.0655,1.16-0.0753,0.261-0.0809,0.386-0.0299,0.676,0.0212,0.121,0.0476,0.605,0.0588,1.08,0.0129,0.544,0.0382,0.943,0.0693,1.09,0.0651,0.309,0.0623,0.37-0.0242,0.536-0.0702,0.135-0.0716,0.155-0.0326,0.482,0.0288,0.241,0.0305,0.376,0.006,0.459-0.0526,0.177-0.0426,0.34,0.0367,0.596,0.0596,0.193,0.068,0.279,0.0499,0.518-0.0119,0.158-0.0426,0.357-0.0684,0.442-0.0257,0.0851-0.0571,0.253-0.07,0.372-0.0208,0.194-0.014,0.235,0.0643,0.382,0.105,0.198,0.107,0.237,0.0189,0.409l-0.0686,0.134,0.0835,0.0675c0.205,0.166,0.282,0.578,0.155,0.828-0.0643,0.126-0.0652,0.146-0.0192,0.395,0.0267,0.144,0.0724,0.337,0.102,0.428,0.0656,0.205,0.0671,0.352,0.005,0.517-0.101,0.269-0.133,0.806-0.0564,0.949,0.0486,0.0909,0.0478,0.943-0.00082,1.08-0.0312,0.0894-0.0274,0.128,0.0213,0.218,0.0517,0.0962,0.0542,0.135,0.0194,0.31-0.09,0.453-0.107,0.616-0.085,0.825,0.022,0.211,0.025,0.538,0.0127,1.4-0.004,0.309,0.007,0.435,0.0487,0.531,0.0649,0.149,0.0705,0.34,0.0129,0.442-0.0498,0.0884-0.0629,0.264-0.053,0.715,0.004,0.186,0.004,0.398-0.00027,0.473-0.004,0.0743-0.0126,0.34-0.0187,0.591-0.007,0.251-0.0225,0.618-0.0363,0.816-0.018,0.259-0.0133,0.393,0.0171,0.477,0.0315,0.0871,0.0335,0.17,0.008,0.329-0.0222,0.138-0.0228,0.255-0.002,0.333,0.0178,0.0664,0.0301,0.265,0.0273,0.441-0.002,0.176-0.008,0.65-0.0123,1.05-0.007,0.677-0.0121,0.737-0.0743,0.805-0.062,0.0685-0.0665,0.116-0.0593,0.619,0.005,0.354-0.0101,0.666-0.0437,0.892-0.0284,0.191-0.0438,0.36-0.0343,0.375,0.009,0.0154,0.0255,0.414,0.0356,0.885,0.0101,0.472,0.0264,0.971,0.0363,1.11,0.01,0.139,0.006,0.77-0.009,1.4-0.0212,0.889-0.0175,1.2,0.0161,1.38,0.0316,0.172,0.0385,0.467,0.0253,1.08-0.01,0.464-0.0175,1.11-0.0168,1.44,0.0008,0.373-0.0126,0.626-0.0357,0.669-0.0273,0.0509-0.0224,0.267,0.0181,0.819,0.0413,0.562,0.0458,0.774,0.0178,0.848-0.0556,0.146-0.0583,4.64-0.003,4.84,0.0254,0.0912,0.0394,0.354,0.0366,0.692-0.002,0.3,0.009,0.598,0.0257,0.663,0.0436,0.172,0.0504,0.933,0.009,1.01-0.0306,0.0572-0.0365,0.665-0.0207,2.13,0.002,0.139-0.011,0.466-0.0277,0.726-0.0362,0.563-0.0351,4.82,0.002,5.52,0.0141,0.269,0.027,0.801,0.0287,1.18,0.002,0.381,0.0204,1.07,0.0414,1.54,0.031,0.685,0.0526,2.11,0.0394,2.6-0.002,0.0557,0.0133,0.17,0.0328,0.253,0.053,0.226,0.0457,0.715-0.0149,0.981-0.0402,0.177-0.0454,0.274-0.021,0.395,0.0204,0.101,0.0211,0.775,0.002,1.83-0.0381,2.1-0.037,1.89-0.0146,2.92l0.0191,0.878,0.346,0.0212c0.19,0.0116,0.364,0.023,0.386,0.0253,0.0218,0.002,0.0825,0.0403,0.135,0.0844l0.0954,0.0802,1.67,0.0555c0.919,0.0305,1.82,0.0699,1.99,0.0875,0.176,0.0176,1.19,0.0392,2.24,0.048,1.54,0.0129,1.98,0.0265,2.21,0.0685,0.238,0.0435,0.621,0.0525,2.24,0.0529,1.65,0.0004,1.98,0.008,2.13,0.0517,0.148,0.0449,0.847,0.0512,5.69,0.0505,3.46-0.0004,5.58,0.0115,5.67,0.0322,0.0836,0.0181,0.357,0.0485,0.608,0.0675s0.608,0.0575,0.793,0.0856c0.27,0.0408,0.998,0.0578,3.65,0.0848,5.4,0.0551,6.69,0.0822,6.89,0.145,0.314,0.0999,0.771,0.123,2.43,0.124,1.38,0.00067,1.69,0.01,1.89,0.0541,0.13,0.0293,0.374,0.065,0.543,0.0795,0.171,0.0147,0.343,0.0488,0.388,0.0772,0.0448,0.028,0.122,0.0603,0.172,0.0718,0.0641,0.0148,0.0999,0.0526,0.124,0.131,0.0184,0.0603,0.0431,0.626,0.0549,1.26,0.0212,1.14,0.0209,1.15-0.0535,1.28-0.0589,0.106-0.0792,0.214-0.0961,0.507-0.0162,0.283-0.0392,0.409-0.0957,0.525-0.0409,0.0844-0.0743,0.171-0.0743,0.193,0,0.0215-0.0794,0.102-0.176,0.179-0.097,0.0767-0.201,0.18-0.231,0.229-0.03,0.0493-0.111,0.135-0.18,0.19-0.0692,0.0555-0.17,0.141-0.225,0.191l-0.0991,0.0902v0.554c0,0.42-0.0131,0.592-0.0544,0.713-0.0856,0.251-0.0523,0.807,0.0691,1.15,0.052,0.147,0.123,0.314,0.158,0.371,0.114,0.187,0.0625,0.526-0.109,0.721-0.118,0.135-0.22,0.329-0.263,0.502-0.0825,0.329-0.15,0.577-0.182,0.666-0.0465,0.129-0.178,0.282-0.294,0.342-0.0517,0.0267-0.131,0.116-0.177,0.198-0.0779,0.139-0.0829,0.177-0.0748,0.566,0.005,0.229,0.027,0.466,0.0494,0.526,0.0305,0.0817,0.035,0.35,0.0177,1.06-0.0128,0.525-0.021,1.18-0.0183,1.46,0.01,1,0.0124,1.45,0.0105,1.62-0.00082,0.0928-0.00014,0.29,0.002,0.439,0.002,0.149-0.0157,0.38-0.0399,0.515-0.0346,0.193-0.0354,0.271-0.003,0.368,0.0272,0.0824,0.0333,0.225,0.0185,0.43-0.0124,0.172-0.007,0.374,0.0115,0.459,0.0185,0.0835,0.0548,0.251,0.0805,0.371,0.0258,0.121,0.0814,0.277,0.124,0.348,0.0769,0.129,0.0769,0.129,0.0184,0.377-0.0431,0.183-0.0829,0.27-0.151,0.331-0.0908,0.081-0.0929,0.0915-0.114,0.591-0.024,0.555-0.008,0.713,0.0749,0.739,0.283,0.0877,0.34,0.148,0.341,0.358,0.0004,0.0714,0.0289,0.111,0.119,0.164,0.0651,0.0384,0.128,0.107,0.139,0.153,0.0278,0.111-0.002,0.323-0.0637,0.44-0.185,0.355-0.275,0.509-0.335,0.573-0.0742,0.0794-0.0587,0.146,0.0341,0.146,0.229,0,0.279,0.294,0.103,0.608-0.143,0.255-0.197,0.474-0.198,0.801-0.00027,0.226-0.0185,0.323-0.0977,0.523-0.151,0.381-0.182,0.572-0.161,0.988,0.0345,0.677,0.084,1.28,0.117,1.43,0.0182,0.0835,0.0319,0.542,0.0305,1.02-0.002,0.653,0.008,0.88,0.0401,0.919,0.0316,0.0381,0.0368,0.133,0.0198,0.365-0.0126,0.172-0.0195,0.488-0.0152,0.701,0.037,1.87,0.0393,1.74-0.0347,1.86-0.0458,0.0752-0.0688,0.171-0.0688,0.289-0.00011,0.161-0.0133,0.191-0.152,0.347-0.0833,0.0938-0.159,0.204-0.169,0.246-0.01,0.0415-0.0215,0.394-0.0258,0.784l-0.008,0.709-0.123,0.0103c-0.193,0.0161-0.23-0.0657-0.235-0.516-0.002-0.205-0.0134-0.463-0.0253-0.575-0.0191-0.178-0.031-0.204-0.0997-0.214-0.0429-0.006-0.152,0.0154-0.241,0.0476-0.139,0.0501-0.179,0.0523-0.268,0.0152-0.062-0.0257-0.113-0.0763-0.125-0.124-0.0262-0.104-0.0598-0.101-0.11,0.01-0.0224,0.0493-0.0921,0.167-0.155,0.262-0.0895,0.135-0.288,0.582-0.288,0.649,0,0.007,0.0498,0.0129,0.111,0.0129,0.18,0,0.261,0.0796,0.261,0.257,0,0.159-0.142,0.513-0.225,0.563-0.0774,0.0463-0.0495,0.127,0.0569,0.164,0.107,0.0372,0.168,0.117,0.168,0.22,0.00054,0.108-0.29,0.791-0.507,1.19-0.0151,0.0278-0.0733,0.172-0.129,0.321-0.136,0.361-0.365,0.814-0.453,0.896-0.1,0.0932-0.338,0.0905-0.433-0.005-0.0647-0.0647-0.069-0.0945-0.0478-0.329,0.0137-0.152,0.0465-0.291,0.0796-0.339,0.0947-0.136,0.103-0.15,0.178-0.317,0.0642-0.143,0.0668-0.167,0.0219-0.203-0.028-0.0224-0.0665-0.0704-0.0856-0.107-0.0279-0.0531-0.0644-0.0643-0.185-0.0568-0.185,0.0114-0.261-0.0531-0.261-0.221,0-0.101-0.009-0.115-0.059-0.0931-0.0325,0.0144-0.124,0.0328-0.203,0.0408-0.138,0.014-0.146,0.01-0.195-0.107-0.0379-0.0908-0.0709-0.122-0.13-0.122-0.0679,0-0.0823,0.0208-0.0985,0.142-0.0104,0.0779-0.007,0.165,0.009,0.194,0.0299,0.0564,0.0685,0.693,0.0853,1.4,0.006,0.241,0.0284,0.538,0.0506,0.658,0.0221,0.121,0.0412,0.402,0.0423,0.625,0.002,0.347-0.008,0.424-0.068,0.54-0.0386,0.0743-0.0922,0.182-0.119,0.239-0.0948,0.201-0.274,0.286-0.483,0.23-0.124-0.0332-0.145-0.142-0.117-0.608,0.0211-0.362,0.0166-0.449-0.0277-0.535-0.042-0.0814-0.0535-0.228-0.0558-0.71-0.002-0.515-0.012-0.625-0.0634-0.724-0.0531-0.102-0.0573-0.162-0.0335-0.489,0.0149-0.205,0.0243-0.419,0.0209-0.474-0.009-0.14,0.00008-0.714,0.0133-0.878,0.006-0.0742,0.0197-0.424,0.0303-0.776,0.0107-0.353,0.034-0.679,0.0517-0.726,0.0178-0.0464,0.0388-0.381,0.0467-0.743,0.0488-2.23,0.063-2.66,0.0916-2.8,0.018-0.0819,0.03-0.87,0.0275-1.81-0.002-1.04,0.008-1.7,0.0296-1.77,0.0191-0.0593,0.0281-0.309,0.0205-0.57-0.0108-0.369-0.0273-0.495-0.0808-0.616-0.037-0.0836-0.0673-0.208-0.0673-0.275,0-0.0814-0.0229-0.143-0.0675-0.181-0.085-0.0728-0.0858-0.153-0.002-0.242,0.054-0.0579,0.0667-0.13,0.0751-0.424,0.0179-0.627-0.0913-1.93-0.153-1.83-0.0156,0.0251-0.0183,0.15-0.006,0.277,0.0264,0.268-0.003,0.347-0.149,0.398-0.129,0.0451-0.13,0.116-0.00067,0.208,0.13,0.0927,0.134,0.226,0.0113,0.372l-0.09,0.107,0.0381,0.326c0.021,0.179,0.0549,0.417,0.0756,0.529,0.025,0.135,0.0305,0.468,0.0163,0.996-0.0357,1.33-0.0473,1.51-0.101,1.62-0.0756,0.146-0.0825,1.24-0.009,1.47,0.0454,0.147,0.0484,0.25,0.02,0.709-0.0234,0.378-0.0224,0.573,0.003,0.66,0.0264,0.0885,0.0264,0.193,0.00027,0.371-0.02,0.136-0.0417,0.78-0.048,1.43-0.007,0.768-0.026,1.25-0.053,1.37-0.0293,0.131-0.0348,0.353-0.0187,0.76,0.0133,0.335,0.007,0.771-0.0139,1.05-0.0202,0.26-0.0425,0.837-0.0496,1.28-0.0111,0.7-0.006,0.821,0.0417,0.901,0.047,0.0796,0.0483,0.106,0.009,0.187-0.0334,0.0696-0.0469,0.3-0.0512,0.871-0.006,0.768-0.005,0.777,0.0729,0.872,0.0966,0.117,0.1,0.223,0.0111,0.336-0.0614,0.078-0.0632,0.0949-0.0195,0.182,0.0637,0.127,0.133,0.528,0.106,0.614-0.0332,0.105-0.278,0.309-0.371,0.309-0.138,0-0.249-0.0597-0.302-0.161-0.0435-0.0841-0.0651-0.0944-0.172-0.082-0.0909,0.0106-0.134,0.0377-0.17,0.107-0.0264,0.051-0.0904,0.108-0.142,0.127-0.36,0.132-0.513,0.138-0.564,0.0234-0.0268-0.0609-0.0566-0.0687-0.236-0.0614l-0.206,0.008-0.0101,0.168c-0.006,0.0926-0.0309,0.186-0.0562,0.207-0.0264,0.0219-0.131,0.0339-0.243,0.0281-0.175-0.009-0.198-0.0188-0.208-0.0862-0.009-0.0638-0.0317-0.076-0.141-0.076-0.22,0-0.235-0.0382-0.245-0.618-0.005-0.282-0.005-0.623-0.0004-0.757,0.007-0.225-0.0205-0.3-0.0775-0.208-0.0214,0.0347-0.041,0.515-0.0507,1.25-0.002,0.176-0.0199,0.34-0.039,0.363-0.0235,0.0286-0.143,0.0422-0.369,0.0422-0.334,0-0.334,0-0.37-0.0928-0.0195-0.0511-0.0327-0.199-0.0293-0.329,0.008-0.311,0.009-0.307-0.0686-0.236-0.0371,0.0337-0.0675,0.103-0.0675,0.155,0,0.158-0.0836,0.209-0.301,0.184-0.213-0.0249-0.352-0.107-0.368-0.218-0.006-0.041-0.0333-0.0832-0.0605-0.0936-0.0272-0.0105-0.0801-0.079-0.118-0.152-0.0863-0.169-0.049-0.222,0.166-0.236,0.115-0.007,0.16-0.0253,0.168-0.067,0.0151-0.0793-0.113-0.139-0.314-0.146-0.142-0.005-0.176-0.019-0.211-0.0873-0.0503-0.0985-0.0557-0.289-0.009-0.318,0.0186-0.0115,0.0337-0.0415,0.0337-0.0666,0-0.0315-0.0454-0.0458-0.146-0.0458-0.163,0-0.573-0.202-0.631-0.311-0.0546-0.102-0.0378-0.288,0.0344-0.379,0.0893-0.113,0.0871-0.121-0.05-0.178-0.145-0.0605-0.169-0.141-0.138-0.465,0.0126-0.133,0.0211-0.265,0.019-0.293-0.04-0.519-0.0346-0.767,0.0185-0.866,0.0528-0.0987,0.053-0.113,0.002-0.185-0.057-0.0814-0.071-0.221-0.0286-0.287,0.0136-0.0213,0.0779-0.0612,0.143-0.0888,0.104-0.044,0.11-0.0529,0.0507-0.0738-0.239-0.0839-0.219-0.0265-0.219-0.635,0-0.335,0.0137-0.565,0.035-0.586,0.0241-0.0242,0.0241-0.0635,0-0.127-0.051-0.134-0.0429-0.402,0.0146-0.478,0.0349-0.0461,0.0498-0.156,0.0506-0.371,0.00067-0.174,0.0169-0.321,0.038-0.342,0.0267-0.0267,0.0265-0.0562-0.00053-0.107-0.0259-0.0484-0.0366-0.506-0.0347-1.48,0.002-1.15,0.0115-1.42,0.0512-1.5,0.0267-0.0516,0.0485-0.152,0.0485-0.224,0-0.0716,0.0223-0.16,0.0495-0.196,0.0378-0.05,0.0499-0.175,0.0507-0.529l0.00082-0.464-0.134-0.0884c-0.15-0.0992-0.222-0.26-0.188-0.417,0.0226-0.103-0.0244-0.206-0.17-0.373-0.11-0.127-0.12-0.189-0.0454-0.284l0.0679-0.0863-0.0782-0.0319c-0.043-0.0175-0.134-0.041-0.203-0.0521-0.0968-0.0157-0.159-0.0602-0.276-0.197-0.083-0.0971-0.161-0.218-0.174-0.269-0.0128-0.0509-0.071-0.126-0.129-0.167-0.146-0.103-0.217-0.188-0.293-0.351-0.0359-0.0767-0.107-0.167-0.158-0.2-0.111-0.0723-0.105-0.065-0.375-0.423-0.118-0.156-0.226-0.292-0.24-0.301-0.0275-0.0183-0.418-0.49-0.794-0.959-0.13-0.162-0.318-0.396-0.419-0.52-0.1-0.124-0.203-0.275-0.228-0.335-0.0254-0.0603-0.0618-0.11-0.081-0.11-0.0506,0-0.148-0.112-0.724-0.827-0.284-0.353-0.597-0.74-0.695-0.861-0.0983-0.121-0.281-0.349-0.407-0.506-0.389-0.489-0.514-0.644-0.638-0.788-0.0661-0.0769-0.157-0.187-0.203-0.245-0.0454-0.0578-0.197-0.248-0.338-0.422-0.14-0.174-0.292-0.37-0.337-0.435-0.118-0.17-0.173-0.237-0.265-0.317-0.0448-0.0391-0.112-0.105-0.15-0.147-0.0375-0.0417-0.0875-0.076-0.111-0.076-0.0659,0-0.316-0.252-0.316-0.318,0-0.0322-0.09-0.149-0.2-0.258l-0.2-0.2-6.76,0.009-6.76,0.009-0.0169,0.203c-0.0155,0.187-0.0294,0.215-0.181,0.371l-0.164,0.169,0.0208,0.827c0.0339,1.35,0.0801,8.14,0.0599,8.81-0.002,0.065,0.002,0.376,0.0106,0.692,0.0424,1.72,0.0531,3.32,0.0228,3.39-0.022,0.0574-0.0214,0.138,0.002,0.24,0.0337,0.147,0.0295,0.162-0.109,0.395-0.155,0.26-0.242,0.314-0.395,0.244-0.0787-0.0359-0.0982-0.026-0.247,0.125-0.202,0.205-0.199,0.187-0.23,1.67l-0.023,1.11-0.0974,0.0776c-0.0903,0.072-0.0946,0.0856-0.0591,0.187,0.0507,0.145,0.0503,1.02-0.0004,1.13-0.0319,0.0698-0.0258,0.116,0.0337,0.259,0.086,0.207,0.0914,0.377,0.0196,0.624l-0.0528,0.182-0.22,0.0679c-0.121,0.0374-0.261,0.0904-0.31,0.118-0.15,0.0827-0.351,0.16-0.512,0.196-0.209,0.0467-3.32,0.0719-3.48,0.0281-0.065-0.0186-0.156-0.0415-0.203-0.0511-0.0464-0.009-0.136-0.0642-0.198-0.121l-0.114-0.104,0.0237-0.317,0.0237-0.317-0.0959-0.0496c-0.157-0.0812-0.223-0.179-0.24-0.357-0.012-0.125,0.00082-0.198,0.0538-0.296,0.102-0.19,0.151-1.09,0.154-2.86,0.002-1.08,0.0146-1.49,0.0476-1.62,0.054-0.205,0.063-1.58,0.0116-1.75-0.0335-0.108-0.0826-1.23-0.0772-1.76,0.01-0.984,0.0313-1.46,0.069-1.55,0.0314-0.0757,0.0365-0.284,0.0206-0.828-0.015-0.511-0.01-0.776,0.0186-0.895,0.0592-0.249,0.0422-2.15-0.0215-2.39-0.0262-0.0985-0.0479-0.318-0.0481-0.487-0.0004-0.277-0.0105-0.326-0.103-0.499l-0.102-0.192,0.0122-1.26c0.009-0.946,0.024-1.3,0.0598-1.42,0.0359-0.128,0.0476-0.412,0.0479-1.16l0.0004-0.996-2.03-0.009-2.03-0.009-0.0587,0.0762c-0.0323,0.0419-0.0591,0.107-0.0596,0.144-0.00053,0.0372-0.137,0.25-0.303,0.473s-0.344,0.462-0.396,0.532c-0.052,0.0701-0.144,0.189-0.204,0.265-0.0603,0.0756-0.11,0.15-0.11,0.165,0,0.0151-0.076,0.082-0.169,0.149-0.121,0.0871-0.169,0.144-0.169,0.202,0,0.0442-0.0238,0.1-0.0529,0.124-0.0291,0.0242-0.118,0.144-0.198,0.266-0.22,0.337-0.524,0.645-0.941,0.956-0.464,0.344-0.641,0.465-0.686,0.465-0.0616,0-0.802,0.863-0.97,1.13-0.125,0.2-1.11,1.13-1.31,1.23-0.107,0.0571-0.194,0.119-0.194,0.138,0,0.0189-0.156,0.192-0.346,0.385-0.41,0.416-0.376,0.383-0.563,0.548-0.14,0.124-0.149,0.142-0.143,0.295,0.005,0.126-0.0138,0.193-0.0823,0.297-0.112,0.17-0.16,0.427-0.153,0.833,0.007,0.405,0.0135,3.94,0.008,4.05-0.002,0.0464,0.005,0.164,0.0163,0.261,0.0143,0.125,0.003,0.224-0.0377,0.338-0.0319,0.0883-0.0733,0.237-0.0919,0.329-0.05,0.249-0.0788,1.65-0.056,2.72l0.02,0.935,0.107,0.121c0.0586,0.0668,0.107,0.15,0.107,0.186,0,0.12-0.0661,0.238-0.151,0.271-0.0644,0.0245-0.085,0.0566-0.085,0.132,0,0.115-0.0762,0.206-0.172,0.206-0.0382,0-0.0787,0.0335-0.0963,0.0797-0.0218,0.0573-0.0735,0.0906-0.184,0.118-0.0896,0.0226-0.168,0.0663-0.189,0.105-0.047,0.0878-0.155,0.145-0.32,0.167-0.109,0.0152-0.141,0.0367-0.167,0.113-0.0235,0.0669-0.0213,0.114,0.007,0.16,0.0556,0.089,0.0515,0.252-0.007,0.301-0.0419,0.0348-0.0419,0.0582,0,0.177,0.0538,0.152,0.0639,0.49,0.017,0.565-0.0192,0.0303-0.081,0.0458-0.168,0.0424l-0.138-0.005v0.234c0,0.26,0.02,0.289,0.203,0.289h0.118l0.0102,0.197c0.0111,0.216-0.0264,0.293-0.143,0.293-0.1,0-0.155,0.0623-0.155,0.177,0,0.153,0.0873,0.289,0.194,0.302,0.0805,0.009,0.0945,0.0275,0.103,0.134,0.0102,0.122-0.007,0.15-0.143,0.244-0.062,0.0428-0.0605,0.047,0.0337,0.0921,0.084,0.0403,0.0987,0.0668,0.0987,0.178,0,0.137-0.0192,0.157-0.203,0.211-0.0782,0.0231-0.104,0.0524-0.113,0.129-0.0132,0.115,0.0622,0.187,0.197,0.187,0.0485,0,0.106,0.0183,0.129,0.0405,0.049,0.049,0.0537,0.217,0.007,0.246-0.0688,0.0426-0.0304,0.0844,0.0776,0.0844,0.188,0,0.251,0.138,0.137,0.301-0.0505,0.072-0.0729,0.0775-0.245,0.0595-0.122-0.0128-0.22-0.005-0.274,0.0221l-0.0839,0.042v0.927c0,1.14,0.0151,1.09-0.349,1.07-0.142-0.0107-0.274-0.0178-0.292-0.0157-0.0186,0.002-1.12,0.01-2.45,0.0169-2.07,0.0112-2.42,0.006-2.46-0.0355zm47.3-23.9c0-0.475-0.0131-0.797-0.0328-0.81-0.0181-0.0111-0.049-0.0804-0.0688-0.154-0.0337-0.125-0.0437-0.134-0.162-0.134-0.0694,0-0.159-0.0232-0.2-0.0515-0.06-0.0421-0.174-0.0498-0.624-0.0422l-0.55,0.009-0.0108,0.0941c-0.007,0.0669,0.0191,0.128,0.0928,0.212,0.057,0.0649,0.104,0.134,0.104,0.155,0,0.0201,0.0456,0.0885,0.101,0.152,0.0557,0.0634,0.101,0.138,0.101,0.165,0,0.0955,0.399,0.843,0.502,0.941,0.0982,0.0931,0.111,0.0963,0.236,0.0588,0.164-0.0492,0.226-0.0269,0.269,0.096,0.0307,0.0879,0.143,0.145,0.216,0.109,0.0139-0.007,0.0253-0.367,0.0253-0.801zm-40-0.782c0.155-0.105,0.319-0.225,0.366-0.266,0.0464-0.0414,0.122-0.0863,0.169-0.0999,0.0464-0.0135,0.13-0.0585,0.186-0.1,0.0557-0.0415,0.154-0.103,0.219-0.136,0.217-0.111,0.638-0.438,0.66-0.513,0.0318-0.11,0.00067-0.137-0.243-0.212-0.185-0.0573-0.314-0.0684-0.791-0.0684-0.529,0-0.572,0.005-0.604,0.0656-0.0246,0.0459-0.0781,0.0687-0.178,0.076l-0.143,0.0104-0.009,0.717c-0.007,0.606-0.002,0.717,0.0395,0.717,0.0268,0,0.175-0.0859,0.33-0.191zm10.8-102c0-0.0272,0.185-0.112,0.354-0.163,0.0913-0.0273,0.126-0.0711,0.218-0.274,0.0115-0.0257,0.119-0.105,0.239-0.176,0.12-0.0714,0.307-0.195,0.416-0.274,0.262-0.191,0.488-0.33,0.807-0.497,0.144-0.0756,0.368-0.206,0.498-0.289,0.13-0.0833,0.256-0.151,0.28-0.151,0.0623,0,0.125-0.0708,0.125-0.142,0-0.0823,0.204-0.302,0.343-0.368,0.245-0.117,0.59-0.265,0.67-0.287,0.0464-0.0126,0.153-0.0796,0.236-0.149,0.0836-0.0693,0.22-0.161,0.304-0.203,0.0835-0.0423,0.167-0.0953,0.186-0.118,0.0187-0.0224,0.0946-0.0845,0.169-0.138,0.0742-0.0535,0.217-0.178,0.317-0.276,0.114-0.112,0.282-0.228,0.451-0.31,0.163-0.0792,0.285-0.162,0.308-0.209,0.0215-0.0431,0.138-0.136,0.258-0.206,0.12-0.0699,0.224-0.142,0.23-0.161,0.0146-0.0435-0.946-0.0455-1.09-0.002-0.152,0.0461-0.719,0.166-0.914,0.193-0.265,0.0371-1.08,0.025-1.42-0.0209-0.357-0.049-3.05-0.0854-3.1-0.0417-0.0159,0.0159-0.0434,0.118-0.0611,0.227-0.0178,0.109-0.0857,0.311-0.151,0.448-0.0654,0.138-0.12,0.291-0.121,0.34-0.002,0.0491-0.0147,0.12-0.0297,0.157-0.0186,0.0458-0.01,0.0876,0.0277,0.13,0.0809,0.0918,0.0982,0.807,0.0247,1.02-0.0521,0.153-0.0516,0.157,0.0329,0.257,0.0833,0.099,0.0853,0.113,0.0685,0.477-0.009,0.206-0.0328,0.519-0.0519,0.696-0.0978,0.905-0.109,0.86,0.166,0.673,0.112-0.0763,0.203-0.15,0.203-0.164z"/>
</svg>
