<?xml version="1.0" encoding="UTF-8" standalone="no"?>
<!-- Created with Inkscape (http://www.inkscape.org/) -->
<svg xmlns:dc="http://purl.org/dc/elements/1.1/" xmlns:cc="http://creativecommons.org/ns#" xmlns:rdf="http://www.w3.org/1999/02/22-rdf-syntax-ns#" xmlns:svg="http://www.w3.org/2000/svg" xmlns="http://www.w3.org/2000/svg" xmlns:sodipodi="http://sodipodi.sourceforge.net/DTD/sodipodi-0.dtd" xmlns:inkscape="http://www.inkscape.org/namespaces/inkscape" width="726.75824" height="424.22443" id="svg15214" version="1.1" inkscape:version="0.48.0 r9654" sodipodi:docname="thai decoration style.svg">
  <defs id="defs15216">
    <clipPath clipPathUnits="userSpaceOnUse" id="clipPath12121">
      <path inkscape:connector-curvature="0" d="m 123.602,487.826 80.576,0 0,-37.62 -80.576,0 0,37.62 z" id="path12123"/>
    </clipPath>
    <clipPath clipPathUnits="userSpaceOnUse" id="clipPath12137">
      <path inkscape:connector-curvature="0" d="m 218.603,487.826 80.575,0 0,-37.62 -80.575,0 0,37.62 z" id="path12139"/>
    </clipPath>
    <clipPath clipPathUnits="userSpaceOnUse" id="clipPath11747">
      <path inkscape:connector-curvature="0" d="m 105.205,366.183 4.31,0 0,-4.67 -4.31,0 0,4.67 z" id="path11749"/>
    </clipPath>
    <clipPath clipPathUnits="userSpaceOnUse" id="clipPath11731">
      <path inkscape:connector-curvature="0" d="m 85.2046,366.183 4.3105,0 0,-4.67 -4.3105,0 0,4.67 z" id="path11733"/>
    </clipPath>
    <clipPath clipPathUnits="userSpaceOnUse" id="clipPath11715">
      <path inkscape:connector-curvature="0" d="m 65.2046,366.183 4.3105,0 0,-4.67 -4.3105,0 0,4.67 z" id="path11717"/>
    </clipPath>
    <clipPath clipPathUnits="userSpaceOnUse" id="clipPath11699">
      <path inkscape:connector-curvature="0" d="m 45.2046,366.183 4.3105,0 0,-4.67 -4.3105,0 0,4.67 z" id="path11701"/>
    </clipPath>
    <clipPath clipPathUnits="userSpaceOnUse" id="clipPath11683">
      <path inkscape:connector-curvature="0" d="m 25.2046,366.183 4.3105,0 0,-4.67 -4.3105,0 0,4.67 z" id="path11685"/>
    </clipPath>
    <clipPath clipPathUnits="userSpaceOnUse" id="clipPath12369">
      <path inkscape:connector-curvature="0" d="m 30.4229,527.497 5.9765,0 0,-4.407 -5.9765,0 0,4.407 z" id="path12371"/>
    </clipPath>
    <clipPath clipPathUnits="userSpaceOnUse" id="clipPath12281">
      <path inkscape:connector-curvature="0" d="m 97.4873,550.507 6.2497,0 0,-6.25 -6.2497,0 0,6.25 z" id="path12283"/>
    </clipPath>
    <clipPath clipPathUnits="userSpaceOnUse" id="clipPath12265">
      <path inkscape:connector-curvature="0" d="m 88.5806,575.191 3.9619,0 0,-3.962 -3.9619,0 0,3.962 z" id="path12267"/>
    </clipPath>
    <clipPath clipPathUnits="userSpaceOnUse" id="clipPath12249">
      <path inkscape:connector-curvature="0" d="m 27.7373,560.469 3.9619,0 0,-3.962 -3.9619,0 0,3.962 z" id="path12251"/>
    </clipPath>
    <clipPath clipPathUnits="userSpaceOnUse" id="clipPath12233">
      <path inkscape:connector-curvature="0" d="m 28.2373,554.757 6.25,0 0,-6.25 -6.25,0 0,6.25 z" id="path12235"/>
    </clipPath>
    <clipPath clipPathUnits="userSpaceOnUse" id="clipPath12185">
      <path inkscape:connector-curvature="0" d="m 77.2139,489.496 3.3437,0 0,-3.344 -3.3437,0 0,3.344 z" id="path12187"/>
    </clipPath>
    <clipPath clipPathUnits="userSpaceOnUse" id="clipPath12169">
      <path inkscape:connector-curvature="0" d="m 92.918,510.974 5.2744,0 0,-5.274 -5.2744,0 0,5.274 z" id="path12171"/>
    </clipPath>
    <clipPath clipPathUnits="userSpaceOnUse" id="clipPath13907">
      <path inkscape:connector-curvature="0" d="m 527.404,557.039 8.662,0 0,-12.799 -8.662,0 0,12.799 z" id="path13909"/>
    </clipPath>
    <clipPath clipPathUnits="userSpaceOnUse" id="clipPath13879">
      <path inkscape:connector-curvature="0" d="m 522.042,558.903 4.999,0 0,-17.037 -4.999,0 0,17.037 z" id="path13881"/>
    </clipPath>
    <clipPath clipPathUnits="userSpaceOnUse" id="clipPath13855">
      <path inkscape:connector-curvature="0" d="m 542.802,545.095 5.141,0 0,-10.018 -5.141,0 0,10.018 z" id="path13857"/>
    </clipPath>
    <clipPath clipPathUnits="userSpaceOnUse" id="clipPath13839">
      <path inkscape:connector-curvature="0" d="m 553.929,540.343 11.418,0 0,-3.931 -11.418,0 0,3.931 z" id="path13841"/>
    </clipPath>
    <clipPath clipPathUnits="userSpaceOnUse" id="clipPath13823">
      <path inkscape:connector-curvature="0" d="m 564.791,550.542 8.264,0 0,-5.706 -8.264,0 0,5.706 z" id="path13825"/>
    </clipPath>
    <clipPath clipPathUnits="userSpaceOnUse" id="clipPath13807">
      <path inkscape:connector-curvature="0" d="m 569.454,564.391 3.52,0 0,-11.373 -3.52,0 0,11.373 z" id="path13809"/>
    </clipPath>
    <clipPath clipPathUnits="userSpaceOnUse" id="clipPath13791">
      <path inkscape:connector-curvature="0" d="m 545.078,541.807 27.396,0 0,-10.646 -27.396,0 0,10.646 z" id="path13793"/>
    </clipPath>
    <clipPath clipPathUnits="userSpaceOnUse" id="clipPath13775">
      <path inkscape:connector-curvature="0" d="m 559.543,576.651 2.562,0 0,-4.582 -2.562,0 0,4.582 z" id="path13777"/>
    </clipPath>
    <clipPath clipPathUnits="userSpaceOnUse" id="clipPath13759">
      <path inkscape:connector-curvature="0" d="m 522.265,558.438 8.571,0 0,-26.49 -8.571,0 0,26.49 z" id="path13761"/>
    </clipPath>
    <clipPath clipPathUnits="userSpaceOnUse" id="clipPath13743">
      <path inkscape:connector-curvature="0" d="m 525.129,558.611 30.755,0 0,-18.552 -30.755,0 0,18.552 z" id="path13745"/>
    </clipPath>
    <clipPath clipPathUnits="userSpaceOnUse" id="clipPath13727">
      <path inkscape:connector-curvature="0" d="m 559.27,573.312 1.869,0 0,-1.332 -1.869,0 0,1.332 z" id="path13729"/>
    </clipPath>
    <clipPath clipPathUnits="userSpaceOnUse" id="clipPath13711">
      <path inkscape:connector-curvature="0" d="m 571.862,606.194 7.28,0 0,-18.595 -7.28,0 0,18.595 z" id="path13713"/>
    </clipPath>
    <clipPath clipPathUnits="userSpaceOnUse" id="clipPath13687">
      <path inkscape:connector-curvature="0" d="m 556.165,596.359 7.485,0 0,-19.153 -7.485,0 0,19.153 z" id="path13689"/>
    </clipPath>
    <clipPath clipPathUnits="userSpaceOnUse" id="clipPath13659">
      <path inkscape:connector-curvature="0" d="m 570.175,606.194 8.967,0 0,-57.08 -8.967,0 0,57.08 z" id="path13661"/>
    </clipPath>
    <clipPath clipPathUnits="userSpaceOnUse" id="clipPath13643">
      <path inkscape:connector-curvature="0" d="m 555.108,577.236 6.997,0 0,-5.167 -6.997,0 0,5.167 z" id="path13645"/>
    </clipPath>
    <clipPath clipPathUnits="userSpaceOnUse" id="clipPath13627">
      <path inkscape:connector-curvature="0" d="m 549.079,587.093 12.121,0 0,-23.163 -12.121,0 0,23.163 z" id="path13629"/>
    </clipPath>
    <clipPath clipPathUnits="userSpaceOnUse" id="clipPath13607">
      <path inkscape:connector-curvature="0" d="m 502.773,557.039 8.663,0 0,-12.799 -8.663,0 0,12.799 z" id="path13609"/>
    </clipPath>
    <clipPath clipPathUnits="userSpaceOnUse" id="clipPath13579">
      <path inkscape:connector-curvature="0" d="m 511.799,558.903 4.999,0 0,-17.037 -4.999,0 0,17.037 z" id="path13581"/>
    </clipPath>
    <clipPath clipPathUnits="userSpaceOnUse" id="clipPath13555">
      <path inkscape:connector-curvature="0" d="m 490.896,545.095 5.142,0 0,-10.018 -5.142,0 0,10.018 z" id="path13557"/>
    </clipPath>
    <clipPath clipPathUnits="userSpaceOnUse" id="clipPath13539">
      <path inkscape:connector-curvature="0" d="m 473.493,540.343 11.418,0 0,-3.931 -11.418,0 0,3.931 z" id="path13541"/>
    </clipPath>
    <clipPath clipPathUnits="userSpaceOnUse" id="clipPath13523">
      <path inkscape:connector-curvature="0" d="m 465.785,550.542 8.264,0 0,-5.706 -8.264,0 0,5.706 z" id="path13525"/>
    </clipPath>
    <clipPath clipPathUnits="userSpaceOnUse" id="clipPath13507">
      <path inkscape:connector-curvature="0" d="m 465.866,564.391 3.52,0 0,-11.373 -3.52,0 0,11.373 z" id="path13509"/>
    </clipPath>
    <clipPath clipPathUnits="userSpaceOnUse" id="clipPath13491">
      <path inkscape:connector-curvature="0" d="m 466.366,541.807 27.396,0 0,-10.646 -27.396,0 0,10.646 z" id="path13493"/>
    </clipPath>
    <clipPath clipPathUnits="userSpaceOnUse" id="clipPath13475">
      <path inkscape:connector-curvature="0" d="m 476.734,576.651 2.563,0 0,-4.582 -2.563,0 0,4.582 z" id="path13477"/>
    </clipPath>
    <clipPath clipPathUnits="userSpaceOnUse" id="clipPath13459">
      <path inkscape:connector-curvature="0" d="m 508.004,558.438 8.57,0 0,-26.49 -8.57,0 0,26.49 z" id="path13461"/>
    </clipPath>
    <clipPath clipPathUnits="userSpaceOnUse" id="clipPath13443">
      <path inkscape:connector-curvature="0" d="m 482.956,558.611 30.755,0 0,-18.552 -30.755,0 0,18.552 z" id="path13445"/>
    </clipPath>
    <clipPath clipPathUnits="userSpaceOnUse" id="clipPath13427">
      <path inkscape:connector-curvature="0" d="m 477.701,573.312 1.869,0 0,-1.332 -1.869,0 0,1.332 z" id="path13429"/>
    </clipPath>
    <clipPath clipPathUnits="userSpaceOnUse" id="clipPath13411">
      <path inkscape:connector-curvature="0" d="m 459.698,606.194 7.28,0 0,-18.595 -7.28,0 0,18.595 z" id="path13413"/>
    </clipPath>
    <clipPath clipPathUnits="userSpaceOnUse" id="clipPath13387">
      <path inkscape:connector-curvature="0" d="m 475.189,596.359 7.486,0 0,-19.153 -7.486,0 0,19.153 z" id="path13389"/>
    </clipPath>
    <clipPath clipPathUnits="userSpaceOnUse" id="clipPath13359">
      <path inkscape:connector-curvature="0" d="m 459.698,606.194 8.967,0 0,-57.08 -8.967,0 0,57.08 z" id="path13361"/>
    </clipPath>
    <clipPath clipPathUnits="userSpaceOnUse" id="clipPath13343">
      <path inkscape:connector-curvature="0" d="m 476.734,577.236 6.997,0 0,-5.167 -6.997,0 0,5.167 z" id="path13345"/>
    </clipPath>
    <clipPath clipPathUnits="userSpaceOnUse" id="clipPath13327">
      <path inkscape:connector-curvature="0" d="m 477.64,587.093 12.121,0 0,-23.163 -12.121,0 0,23.163 z" id="path13329"/>
    </clipPath>
  </defs>
  <sodipodi:namedview id="base" pagecolor="#ffffff" bordercolor="#666666" borderopacity="1.0" inkscape:pageopacity="0.0" inkscape:pageshadow="2" inkscape:zoom="0.49497475" inkscape:cx="463.35321" inkscape:cy="38.28649" inkscape:document-units="px" inkscape:current-layer="layer1" showgrid="false" fit-margin-top="0" fit-margin-left="0" fit-margin-right="0" fit-margin-bottom="0" inkscape:window-width="1366" inkscape:window-height="706" inkscape:window-x="-8" inkscape:window-y="-8" inkscape:window-maximized="1"/>
  <g inkscape:label="Layer 1" inkscape:groupmode="layer" id="layer1" transform="translate(-327.53029,-706.11812)">
    <g id="g11323" transform="matrix(1.25,0,0,-1.25,662.18104,812.67024)">
      <path inkscape:connector-curvature="0" d="m 0,0 19.134,0 c 0,0 -7.734,-67.64 -7.734,-171.698 l -4.854,0 c 0,0 4.532,101.086 -6.546,171.698" style="fill:#d69a61;fill-opacity:1;fill-rule:nonzero;stroke:none" id="path11325"/>
    </g>
    <g id="g11327" transform="matrix(1.25,0,0,-1.25,594.04317,861.02727)">
      <path inkscape:connector-curvature="0" d="m 0,0 14.823,0 c 0,0 -5.991,-52.398 -5.991,-133.013 l -3.761,0 c 0,0 3.511,78.31 -5.071,133.013" style="fill:#d69a61;fill-opacity:1;fill-rule:nonzero;stroke:none" id="path11329"/>
    </g>
    <g id="g11331" transform="matrix(1.25,0,0,-1.25,789.89029,940.16297)">
      <path inkscape:connector-curvature="0" d="m 0,0 c 0,0 -78.897,-18.879 -11.007,-54.559 0,0 -76.81,22.299 -36.67,62.439 0,0 22.232,21.665 47.043,21.665 L 0,0 z" style="fill:#3169b1;fill-opacity:1;fill-rule:nonzero;stroke:none" id="path11333"/>
    </g>
    <g id="g11335" transform="matrix(1.25,0,0,-1.25,877.23292,945.91247)">
      <path inkscape:connector-curvature="0" d="m 0,0 c 0,0 55.201,-13.21 7.7,-38.173 0,0 53.741,15.603 25.657,43.687 0,0 -15.553,15.157 -32.914,15.157 L 0,0 z" style="fill:#3169b1;fill-opacity:1;fill-rule:nonzero;stroke:none" id="path11337"/>
    </g>
    <g id="g11339" transform="matrix(1.25,0,0,-1.25,865.36642,1023.2282)">
      <path inkscape:connector-curvature="0" d="M 0,0 C 0,0 -22.08,3.717 22.767,48.563 42.361,68.157 20.963,86.585 3.34,95.3 c -10.986,5.43 -22.743,8.646 -35.054,8.198 -8.756,-0.319 -22.548,-1.07 -29.301,-7.501 -11.904,-11.338 2.281,-31.731 7.327,-42.955 2.952,-6.562 4.523,-13.551 5.131,-20.712 C -48.301,29.307 -48.588,0.952 -51.07,1.001 -51.048,1.001 0,0 0,0" style="fill:#25a3c7;fill-opacity:1;fill-rule:nonzero;stroke:none" id="path11341"/>
    </g>
    <g id="g11343" transform="matrix(1.25,0,0,-1.25,639.16092,972.94857)">
      <path inkscape:connector-curvature="0" d="m 0,0 c 0,23.578 -22.437,42.692 -50.116,42.692 -27.678,0 -50.116,-19.114 -50.116,-42.692 0,-0.625 0.019,-1.248 0.05,-1.866 -0.116,-10.327 1.227,-29.525 11.705,-40.825 l 76.103,0 c 0,0 12.499,23.202 12.371,42.47 C -0.002,-0.146 0,-0.073 0,0" style="fill:#efb3d1;fill-opacity:1;fill-rule:nonzero;stroke:none" id="path11345"/>
    </g>
    <g id="g11347" transform="matrix(1.25,0,0,-1.25,608.81554,998.72127)">
      <path inkscape:connector-curvature="0" d="m 0,0 c 0,12.191 -11.602,22.075 -25.913,22.075 -14.311,0 -25.913,-9.884 -25.913,-22.075 0,-0.323 0.01,-0.645 0.026,-0.964 -0.06,-5.34 0.635,-15.266 6.052,-21.109 l 39.35,0 c 0,0 6.463,11.997 6.396,21.96 C -0.001,-0.074 0,-0.037 0,0" style="fill:#d969a8;fill-opacity:1;fill-rule:nonzero;stroke:none" id="path11349"/>
    </g>
    <g id="g11351" transform="matrix(1.25,0,0,-1.25,579.06204,905.01647)">
      <path inkscape:connector-curvature="0" d="m 0,0 c -1.167,2.088 -19.006,-5.654 -39.846,-17.293 -20.839,-11.641 -36.787,-22.769 -35.621,-24.856 1.167,-2.089 19.007,5.654 39.845,17.293 C -14.782,-13.217 1.166,-2.089 0,0" style="fill:#d969a8;fill-opacity:1;fill-rule:nonzero;stroke:none" id="path11353"/>
    </g>
    <g id="g11355" transform="matrix(1.25,0,0,-1.25,565.93591,905.01647)">
      <path inkscape:connector-curvature="0" d="M 0,0 C 1.166,2.088 19.005,-5.654 39.845,-17.293 60.685,-28.934 76.633,-40.062 75.467,-42.149 74.3,-44.238 56.461,-36.495 35.622,-24.856 14.782,-13.217 -1.167,-2.089 0,0" style="fill:#d969a8;fill-opacity:1;fill-rule:nonzero;stroke:none" id="path11357"/>
    </g>
    <g id="g11359" transform="matrix(1.25,0,0,-1.25,602.48979,991.06387)">
      <path inkscape:connector-curvature="0" d="m 0,0 c 0,-2.674 -2.167,-4.841 -4.84,-4.841 -2.674,0 -4.841,2.167 -4.841,4.841 0,2.673 2.167,4.84 4.841,4.84 C -2.167,4.84 0,2.673 0,0" style="fill:#ffffff;fill-opacity:1;fill-rule:nonzero;stroke:none" id="path11361"/>
    </g>
    <g id="g11363" transform="matrix(1.25,0,0,-1.25,563.43341,991.06387)">
      <path inkscape:connector-curvature="0" d="m 0,0 c 0,-2.674 -2.167,-4.841 -4.84,-4.841 -2.674,0 -4.841,2.167 -4.841,4.841 0,2.673 2.167,4.84 4.841,4.84 C -2.167,4.84 0,2.673 0,0" style="fill:#ffffff;fill-opacity:1;fill-rule:nonzero;stroke:none" id="path11365"/>
    </g>
    <g id="g11367" transform="matrix(1.25,0,0,-1.25,528.79841,946.49477)">
      <path inkscape:connector-curvature="0" d="m 0,0 5.954,-4.162 6.802,2.545 -2.118,-6.947 4.522,-5.684 -7.261,-0.133 -4.008,-6.057 -2.37,6.866 -6.999,1.939 5.797,4.376 L 0,0 z" style="fill:#d969a8;fill-opacity:1;fill-rule:nonzero;stroke:none" id="path11369"/>
    </g>
    <g id="g11371" transform="matrix(1.25,0,0,-1.25,558.00004,954.93227)">
      <path inkscape:connector-curvature="0" d="m 0,0 2.923,-2.042 3.34,1.249 -1.041,-3.411 2.22,-2.79 L 3.878,-7.06 1.91,-10.033 0.746,-6.662 -2.69,-5.71 0.156,-3.562 0,0 z" style="fill:#d969a8;fill-opacity:1;fill-rule:nonzero;stroke:none" id="path11373"/>
    </g>
    <g id="g11375" transform="matrix(1.25,0,0,-1.25,614.23904,1009.4513)">
      <path inkscape:connector-curvature="0" d="m 0,0 2.923,-2.043 3.34,1.25 -1.04,-3.411 2.22,-2.791 L 3.878,-7.06 1.91,-10.033 0.747,-6.663 -2.689,-5.711 0.156,-3.563 0,0 z" style="fill:#d969a8;fill-opacity:1;fill-rule:nonzero;stroke:none" id="path11377"/>
    </g>
    <g id="g11379" transform="matrix(1.25,0,0,-1.25,812.45379,1021.5265)">
      <path inkscape:connector-curvature="0" d="m 0,0 c 0,0 8.057,31.04 1.089,42.108 0,0 22.665,-14.38 36.47,-10.804 0.256,0.066 0.508,0.138 0.759,0.217 C 52.033,35.853 18.507,5.534 33.31,-0.723 L 0,0 z" style="fill:#3169b1;fill-opacity:1;fill-rule:nonzero;stroke:none" id="path11381"/>
    </g>
    <g id="g11383" transform="matrix(1.25,0,0,-1.25,854.16892,990.72687)">
      <path inkscape:connector-curvature="0" d="m 0,0 c 0,-1.579 -1.281,-2.86 -2.86,-2.86 -1.581,0 -2.863,1.281 -2.863,2.86 0,1.581 1.282,2.862 2.863,2.862 C -1.281,2.862 0,1.581 0,0" style="fill:#ffffff;fill-opacity:1;fill-rule:nonzero;stroke:none" id="path11385"/>
    </g>
    <g id="g11387" transform="matrix(1.25,0,0,-1.25,829.92816,903.83847)">
      <path inkscape:connector-curvature="0" d="m 0,0 1.56,-13.333 11.866,-6.274 -12.199,-5.603 -2.301,-13.226 -9.098,9.871 -13.288,-1.899 6.576,11.703 -5.913,12.052 L -9.634,-9.347 0,0 z" style="fill:#ffffff;fill-opacity:1;fill-rule:nonzero;stroke:none" id="path11389"/>
    </g>
    <g id="g11391" transform="matrix(1.25,0,0,-1.25,876.24654,923.21837)">
      <path inkscape:connector-curvature="0" d="m 0,0 1.182,-10.106 8.995,-4.756 -9.246,-4.247 -1.744,-10.024 -6.897,7.481 -10.072,-1.44 4.984,8.871 -4.481,9.135 9.977,-1.999 L 0,0 z" style="fill:#ffffff;fill-opacity:1;fill-rule:nonzero;stroke:none" id="path11393"/>
    </g>
    <g id="g11395" transform="matrix(1.25,0,0,-1.25,845.83879,907.43957)">
      <path inkscape:connector-curvature="0" d="m 0,0 c 0,0 -37.165,23.043 -71.356,23.043 l 2.973,17.838 c 0,0 52.911,-17.976 68.383,-40.881" style="fill:#3169b1;fill-opacity:1;fill-rule:nonzero;stroke:none" id="path11397"/>
    </g>
    <g id="g11399" transform="matrix(1.25,0,0,-1.25,769.34829,768.22812)">
      <path inkscape:connector-curvature="0" d="m 0,0 c 0,-27.441 -31.78,-49.688 -70.983,-49.688 -39.204,0 -70.984,22.247 -70.984,49.688 0,27.442 31.78,49.688 70.984,49.688 C -31.78,49.688 0,27.442 0,0" style="fill:#2a7245;fill-opacity:1;fill-rule:nonzero;stroke:none" id="path11401"/>
    </g>
    <g id="g11403" transform="matrix(1.25,0,0,-1.25,946.75554,841.85127)">
      <path inkscape:connector-curvature="0" d="m 0,0 -16.531,0 c 0,0 6.681,-58.442 6.681,-148.354 l 4.195,0 c 0,0 -3.917,87.342 5.655,148.354" style="fill:#d69a61;fill-opacity:1;fill-rule:nonzero;stroke:none" id="path11405"/>
    </g>
    <g id="g11407" transform="matrix(1.25,0,0,-1.25,1005.63,883.63337)">
      <path inkscape:connector-curvature="0" d="m 0,0 -12.809,0 c 0,0 5.177,-45.274 5.177,-114.928 l 3.251,0 c 0,0 -3.036,67.662 4.381,114.928" style="fill:#d69a61;fill-opacity:1;fill-rule:nonzero;stroke:none" id="path11409"/>
    </g>
    <g id="g11411" transform="matrix(1.25,0,0,-1.25,854.16042,803.45149)">
      <path inkscape:connector-curvature="0" d="m 0,0 c 0,-23.71 27.458,-42.933 61.331,-42.933 33.873,0 61.334,19.223 61.334,42.933 0,23.711 -27.461,42.933 -61.334,42.933 C 27.458,42.933 0,23.711 0,0" style="fill:#2a7245;fill-opacity:1;fill-rule:nonzero;stroke:none" id="path11413"/>
    </g>
    <g id="g11415" transform="matrix(1.25,0,0,-1.25,943.50479,868.93617)">
      <path inkscape:connector-curvature="0" d="m 0,0 c 0,-17.131 19.84,-31.019 44.313,-31.019 24.475,0 44.314,13.888 44.314,31.019 0,17.131 -19.839,31.02 -44.314,31.02 C 19.84,31.02 0,17.131 0,0" style="fill:#2aa654;fill-opacity:1;fill-rule:nonzero;stroke:none" id="path11417"/>
    </g>
    <g id="g11419" transform="matrix(1.25,0,0,-1.25,665.94316,844.01677)">
      <path inkscape:connector-curvature="0" d="m 0,0 c 0,-19.827 -22.961,-35.9 -51.286,-35.9 -28.325,0 -51.287,16.073 -51.287,35.9 0,19.826 22.962,35.9 51.287,35.9 C -22.961,35.9 0,19.826 0,0" style="fill:#2aa654;fill-opacity:1;fill-rule:nonzero;stroke:none" id="path11421"/>
    </g>
    <g id="g11423" transform="matrix(1.25,0,0,-1.25,448.11604,926.09797)">
      <path inkscape:connector-curvature="0" d="m 0,0 9.022,0 c 0,0 -3.647,-31.893 -3.647,-80.956 l -2.289,0 c 0,0 2.137,47.662 -3.086,80.956" style="fill:#d69a61;fill-opacity:1;fill-rule:nonzero;stroke:none" id="path11425"/>
    </g>
    <g id="g11427" transform="matrix(1.25,0,0,-1.25,491.87704,915.74397)">
      <path inkscape:connector-curvature="0" d="m 0,0 c 0,-12.067 -13.976,-21.851 -31.214,-21.851 -17.241,0 -31.216,9.784 -31.216,21.851 0,12.067 13.975,21.85 31.216,21.85 C -13.976,21.85 0,12.067 0,0" style="fill:#2a7245;fill-opacity:1;fill-rule:nonzero;stroke:none" id="path11429"/>
    </g>
    <g id="g11431" transform="matrix(1.25,0,0,-1.25,865.58854,913.77497)">
      <path inkscape:connector-curvature="0" d="m 0,0 c 0,0 32.912,9.026 58.502,1.465 l 1.721,14.009 C 60.223,15.474 16.645,13.721 0,0" style="fill:#3169b1;fill-opacity:1;fill-rule:nonzero;stroke:none" id="path11433"/>
    </g>
    <g id="g11435" transform="matrix(1.25,0,0,-1.25,753.90154,775.91125)">
      <path inkscape:connector-curvature="0" d="m 0,0 c 0,-3.802 -3.083,-6.884 -6.885,-6.884 -3.802,0 -6.885,3.082 -6.885,6.884 0,3.802 3.083,6.884 6.885,6.884 C -3.083,6.884 0,3.802 0,0" style="fill:#f05137;fill-opacity:1;fill-rule:nonzero;stroke:none" id="path11437"/>
    </g>
    <g id="g11439" transform="matrix(1.25,0,0,-1.25,631.69641,744.35237)">
      <path inkscape:connector-curvature="0" d="m 0,0 c 0,-3.801 -3.082,-6.884 -6.884,-6.884 -3.802,0 -6.884,3.083 -6.884,6.884 0,3.802 3.082,6.884 6.884,6.884 C -3.082,6.884 0,3.802 0,0" style="fill:#f05137;fill-opacity:1;fill-rule:nonzero;stroke:none" id="path11441"/>
    </g>
    <g id="g11443" transform="matrix(1.25,0,0,-1.25,649.09691,778.07062)">
      <path inkscape:connector-curvature="0" d="m 0,0 c 0,-3.802 -3.082,-6.884 -6.884,-6.884 -3.802,0 -6.884,3.082 -6.884,6.884 0,3.802 3.082,6.884 6.884,6.884 C -3.082,6.884 0,3.802 0,0" style="fill:#f05137;fill-opacity:1;fill-rule:nonzero;stroke:none" id="path11445"/>
    </g>
    <g id="g11447" transform="matrix(1.25,0,0,-1.25,676.24904,804.45012)">
      <path inkscape:connector-curvature="0" d="m 0,0 c 0,-3.803 -3.082,-6.885 -6.884,-6.885 -3.802,0 -6.884,3.082 -6.884,6.885 0,3.801 3.082,6.884 6.884,6.884 C -3.082,6.884 0,3.801 0,0" style="fill:#f05137;fill-opacity:1;fill-rule:nonzero;stroke:none" id="path11449"/>
    </g>
    <g id="g11451" transform="matrix(1.25,0,0,-1.25,703.86129,772.95837)">
      <path inkscape:connector-curvature="0" d="m 0,0 c 0,-3.802 -3.082,-6.884 -6.884,-6.884 -3.801,0 -6.884,3.082 -6.884,6.884 0,3.802 3.083,6.884 6.884,6.884 C -3.082,6.884 0,3.802 0,0" style="fill:#f05137;fill-opacity:1;fill-rule:nonzero;stroke:none" id="path11453"/>
    </g>
    <g id="g11455" transform="matrix(1.25,0,0,-1.25,986.05243,803.94837)">
      <path inkscape:connector-curvature="0" d="m 0,0 c 0,-3.802 -3.081,-6.884 -6.884,-6.884 -3.801,0 -6.883,3.082 -6.883,6.884 0,3.802 3.082,6.885 6.883,6.885 C -3.081,6.885 0,3.802 0,0" style="fill:#fec02d;fill-opacity:1;fill-rule:nonzero;stroke:none" id="path11457"/>
    </g>
    <g id="g11459" transform="matrix(1.25,0,0,-1.25,939.42892,832.44199)">
      <path inkscape:connector-curvature="0" d="m 0,0 c 0,-3.802 -3.081,-6.884 -6.884,-6.884 -3.802,0 -6.884,3.082 -6.884,6.884 0,3.802 3.082,6.884 6.884,6.884 C -3.081,6.884 0,3.802 0,0" style="fill:#fec02d;fill-opacity:1;fill-rule:nonzero;stroke:none" id="path11461"/>
    </g>
    <g id="g11463" transform="matrix(1.25,0,0,-1.25,897.39029,820.75624)">
      <path inkscape:connector-curvature="0" d="m 0,0 c 0,-3.802 -3.081,-6.884 -6.884,-6.884 -3.802,0 -6.884,3.082 -6.884,6.884 0,3.802 3.082,6.884 6.884,6.884 C -3.081,6.884 0,3.802 0,0" style="fill:#fec02d;fill-opacity:1;fill-rule:nonzero;stroke:none" id="path11465"/>
    </g>
    <g id="g11467" transform="matrix(1.25,0,0,-1.25,939.43016,792.79849)">
      <path inkscape:connector-curvature="0" d="m 0,0 c 0,-3.802 -3.082,-6.884 -6.884,-6.884 -3.801,0 -6.884,3.082 -6.884,6.884 0,3.802 3.083,6.885 6.884,6.885 C -3.082,6.885 0,3.802 0,0" style="fill:#fec02d;fill-opacity:1;fill-rule:nonzero;stroke:none" id="path11469"/>
    </g>
    <g id="g11471" transform="matrix(1.25,0,0,-1.25,436.41504,1017.0307)">
      <path inkscape:connector-curvature="0" d="M 0,0 17.117,7.961 20.699,-3.582 0,-7.563 0,0 z" style="fill:#af7f54;fill-opacity:1;fill-rule:nonzero;stroke:none" id="path11473"/>
    </g>
    <g id="g11475" transform="matrix(1.25,0,0,-1.25,409.07979,1000.3375)">
      <path inkscape:connector-curvature="0" d="m 0,0 22.268,-3.912 0,-6.319 L -1.504,-9.63 0,0 z" style="fill:#af7f54;fill-opacity:1;fill-rule:nonzero;stroke:none" id="path11477"/>
    </g>
    <g id="g11479" transform="matrix(1.25,0,0,-1.25,491.63904,1016.9587)">
      <path inkscape:connector-curvature="0" d="M 0,0 -22.402,3.051 -22.645,9.365 1.133,9.68 0,0 z" style="fill:#af7f54;fill-opacity:1;fill-rule:nonzero;stroke:none" id="path11481"/>
    </g>
    <g id="g11483" transform="matrix(1.25,0,0,-1.25,359.42891,994.31947)">
      <path inkscape:connector-curvature="0" d="M 0,0 33.401,-1.204 35.508,-9.629 0.301,-5.416 0,0 z" style="fill:#af7f54;fill-opacity:1;fill-rule:nonzero;stroke:none" id="path11485"/>
    </g>
    <g id="g11487" transform="matrix(1.25,0,0,-1.25,359.42891,1020.0335)">
      <path inkscape:connector-curvature="0" d="M 0,0 33.401,0.748 35.508,5.985 0.301,3.367 0,0 z" style="fill:#af7f54;fill-opacity:1;fill-rule:nonzero;stroke:none" id="path11489"/>
    </g>
    <g id="g11491" transform="matrix(1.25,0,0,-1.25,533.89479,1028.0865)">
      <path inkscape:connector-curvature="0" d="M 0,0 -33.401,1.204 -35.507,9.63 -0.301,5.416 0,0 z" style="fill:#af7f54;fill-opacity:1;fill-rule:nonzero;stroke:none" id="path11493"/>
    </g>
    <g id="g11495" transform="matrix(1.25,0,0,-1.25,533.89479,1002.3724)">
      <path inkscape:connector-curvature="0" d="M 0,0 -33.401,-0.748 -35.507,-5.986 -0.301,-3.367 0,0 z" style="fill:#af7f54;fill-opacity:1;fill-rule:nonzero;stroke:none" id="path11497"/>
    </g>
    <g id="g11499" transform="matrix(1.25,0,0,-1.25,368.60554,1040.1715)">
      <path inkscape:connector-curvature="0" d="M 0,0 -2.973,35.061 1.734,51.785 12.513,54.139 15.734,28.742 11.521,0 0,0 z" style="fill:#634b34;fill-opacity:1;fill-rule:nonzero;stroke:none" id="path11501"/>
    </g>
    <g id="g11503" transform="matrix(1.25,0,0,-1.25,400.71367,1040.1715)">
      <path inkscape:connector-curvature="0" d="m 0,0 -4.956,36.964 3.634,15.73 7.929,0 4.625,-6.922 L 7.268,0 0,0 z" style="fill:#634b34;fill-opacity:1;fill-rule:nonzero;stroke:none" id="path11505"/>
    </g>
    <g id="g11507" transform="matrix(1.25,0,0,-1.25,432.09792,970.17517)">
      <path inkscape:connector-curvature="0" d="m 0,0 -6.607,-15.857 2.973,-40.14 9.25,0 L 7.929,-26.43 9.581,-8.259 0,0 z" style="fill:#634b34;fill-opacity:1;fill-rule:nonzero;stroke:none" id="path11509"/>
    </g>
    <g id="g11511" transform="matrix(1.25,0,0,-1.25,455.32616,1040.1715)">
      <path inkscape:connector-curvature="0" d="M 0,0 -2.973,31.852 1.735,47.046 12.513,49.185 15.734,26.111 11.522,0 0,0 z" style="fill:#634b34;fill-opacity:1;fill-rule:nonzero;stroke:none" id="path11513"/>
    </g>
    <g id="g11515" transform="matrix(1.25,0,0,-1.25,487.43491,1040.1715)">
      <path inkscape:connector-curvature="0" d="m 0,0 -4.956,38.818 3.634,16.519 7.929,0 4.625,-7.269 L 7.268,0 0,0 z" style="fill:#634b34;fill-opacity:1;fill-rule:nonzero;stroke:none" id="path11517"/>
    </g>
    <g id="g11519" transform="matrix(1.25,0,0,-1.25,518.81791,965.22037)">
      <path inkscape:connector-curvature="0" d="m 0,0 -6.606,-16.98 2.973,-42.981 9.25,0 2.312,31.66 L 9.581,-8.843 0,0 z" style="fill:#634b34;fill-opacity:1;fill-rule:nonzero;stroke:none" id="path11521"/>
    </g>
    <g id="g11523" transform="matrix(1.25,0,0,-1.25,696.57854,1017.0307)">
      <path inkscape:connector-curvature="0" d="M 0,0 17.116,7.961 20.699,-3.582 0,-7.563 0,0 z" style="fill:#af7f54;fill-opacity:1;fill-rule:nonzero;stroke:none" id="path11525"/>
    </g>
    <g id="g11527" transform="matrix(1.25,0,0,-1.25,669.24341,1000.3375)">
      <path inkscape:connector-curvature="0" d="m 0,0 22.268,-3.912 0,-6.319 L -1.505,-9.63 0,0 z" style="fill:#af7f54;fill-opacity:1;fill-rule:nonzero;stroke:none" id="path11529"/>
    </g>
    <g id="g11531" transform="matrix(1.25,0,0,-1.25,751.80316,1016.9587)">
      <path inkscape:connector-curvature="0" d="M 0,0 -22.402,3.051 -22.646,9.365 1.133,9.68 0,0 z" style="fill:#af7f54;fill-opacity:1;fill-rule:nonzero;stroke:none" id="path11533"/>
    </g>
    <g id="g11535" transform="matrix(1.25,0,0,-1.25,619.59191,994.31947)">
      <path inkscape:connector-curvature="0" d="M 0,0 33.402,-1.204 35.508,-9.629 0.301,-5.416 0,0 z" style="fill:#af7f54;fill-opacity:1;fill-rule:nonzero;stroke:none" id="path11537"/>
    </g>
    <g id="g11539" transform="matrix(1.25,0,0,-1.25,619.59191,1020.0335)">
      <path inkscape:connector-curvature="0" d="M 0,0 33.402,0.748 35.508,5.985 0.301,3.367 0,0 z" style="fill:#af7f54;fill-opacity:1;fill-rule:nonzero;stroke:none" id="path11541"/>
    </g>
    <g id="g11543" transform="matrix(1.25,0,0,-1.25,794.05904,1028.0865)">
      <path inkscape:connector-curvature="0" d="M 0,0 -33.401,1.204 -35.508,9.63 -0.301,5.416 0,0 z" style="fill:#af7f54;fill-opacity:1;fill-rule:nonzero;stroke:none" id="path11545"/>
    </g>
    <g id="g11547" transform="matrix(1.25,0,0,-1.25,794.05904,1002.3724)">
      <path inkscape:connector-curvature="0" d="M 0,0 -33.401,-0.748 -35.508,-5.986 -0.301,-3.367 0,0 z" style="fill:#af7f54;fill-opacity:1;fill-rule:nonzero;stroke:none" id="path11549"/>
    </g>
    <g id="g11551" transform="matrix(1.25,0,0,-1.25,628.76854,1040.1715)">
      <path inkscape:connector-curvature="0" d="M 0,0 -2.973,35.061 1.735,51.785 12.513,54.139 15.734,28.742 11.522,0 0,0 z" style="fill:#634b34;fill-opacity:1;fill-rule:nonzero;stroke:none" id="path11553"/>
    </g>
    <g id="g11555" transform="matrix(1.25,0,0,-1.25,660.87667,1040.1715)">
      <path inkscape:connector-curvature="0" d="m 0,0 -4.956,36.964 3.634,15.73 7.929,0 4.625,-6.922 L 7.268,0 0,0 z" style="fill:#634b34;fill-opacity:1;fill-rule:nonzero;stroke:none" id="path11557"/>
    </g>
    <g id="g11559" transform="matrix(1.25,0,0,-1.25,692.26091,970.17517)">
      <path inkscape:connector-curvature="0" d="m 0,0 -6.607,-15.857 2.973,-40.14 9.25,0 L 7.929,-26.43 9.581,-8.259 0,0 z" style="fill:#634b34;fill-opacity:1;fill-rule:nonzero;stroke:none" id="path11561"/>
    </g>
    <g id="g11563" transform="matrix(1.25,0,0,-1.25,715.48967,1040.1715)">
      <path inkscape:connector-curvature="0" d="M 0,0 -2.974,31.852 1.734,47.046 12.513,49.185 15.733,26.111 11.521,0 0,0 z" style="fill:#634b34;fill-opacity:1;fill-rule:nonzero;stroke:none" id="path11565"/>
    </g>
    <g id="g11567" transform="matrix(1.25,0,0,-1.25,747.59792,1040.1715)">
      <path inkscape:connector-curvature="0" d="m 0,0 -4.956,38.818 3.635,16.519 7.928,0 4.626,-7.269 L 7.268,0 0,0 z" style="fill:#634b34;fill-opacity:1;fill-rule:nonzero;stroke:none" id="path11569"/>
    </g>
    <g id="g11571" transform="matrix(1.25,0,0,-1.25,778.98091,965.22037)">
      <path inkscape:connector-curvature="0" d="m 0,0 -6.606,-16.98 2.973,-42.981 9.249,0 2.313,31.66 L 9.582,-8.843 0,0 z" style="fill:#634b34;fill-opacity:1;fill-rule:nonzero;stroke:none" id="path11573"/>
    </g>
    <g id="g11575" transform="matrix(1.25,0,0,-1.25,950.54704,1017.0307)">
      <path inkscape:connector-curvature="0" d="M 0,0 17.117,7.961 20.699,-3.582 0,-7.563 0,0 z" style="fill:#af7f54;fill-opacity:1;fill-rule:nonzero;stroke:none" id="path11577"/>
    </g>
    <g id="g11579" transform="matrix(1.25,0,0,-1.25,923.21192,1000.3375)">
      <path inkscape:connector-curvature="0" d="m 0,0 22.268,-3.912 0,-6.319 L -1.505,-9.63 0,0 z" style="fill:#af7f54;fill-opacity:1;fill-rule:nonzero;stroke:none" id="path11581"/>
    </g>
    <g id="g11583" transform="matrix(1.25,0,0,-1.25,1005.7704,1016.9587)">
      <path inkscape:connector-curvature="0" d="M 0,0 -22.402,3.051 -22.645,9.365 1.134,9.68 0,0 z" style="fill:#af7f54;fill-opacity:1;fill-rule:nonzero;stroke:none" id="path11585"/>
    </g>
    <g id="g11587" transform="matrix(1.25,0,0,-1.25,873.56104,994.31947)">
      <path inkscape:connector-curvature="0" d="M 0,0 33.401,-1.204 35.508,-9.629 0.301,-5.416 0,0 z" style="fill:#af7f54;fill-opacity:1;fill-rule:nonzero;stroke:none" id="path11589"/>
    </g>
    <g id="g11591" transform="matrix(1.25,0,0,-1.25,873.56104,1020.0335)">
      <path inkscape:connector-curvature="0" d="M 0,0 33.401,0.748 35.508,5.985 0.301,3.367 0,0 z" style="fill:#af7f54;fill-opacity:1;fill-rule:nonzero;stroke:none" id="path11593"/>
    </g>
    <g id="g11595" transform="matrix(1.25,0,0,-1.25,1048.0275,1028.0865)">
      <path inkscape:connector-curvature="0" d="M 0,0 -33.402,1.204 -35.508,9.63 -0.301,5.416 0,0 z" style="fill:#af7f54;fill-opacity:1;fill-rule:nonzero;stroke:none" id="path11597"/>
    </g>
    <g id="g11599" transform="matrix(1.25,0,0,-1.25,1048.0275,1002.3724)">
      <path inkscape:connector-curvature="0" d="M 0,0 -33.402,-0.748 -35.508,-5.986 -0.301,-3.367 0,0 z" style="fill:#af7f54;fill-opacity:1;fill-rule:nonzero;stroke:none" id="path11601"/>
    </g>
    <g id="g11603" transform="matrix(1.25,0,0,-1.25,882.73829,1040.1715)">
      <path inkscape:connector-curvature="0" d="M 0,0 -2.974,35.061 1.734,51.785 12.512,54.139 15.733,28.742 11.521,0 0,0 z" style="fill:#634b34;fill-opacity:1;fill-rule:nonzero;stroke:none" id="path11605"/>
    </g>
    <g id="g11607" transform="matrix(1.25,0,0,-1.25,914.84517,1040.1715)">
      <path inkscape:connector-curvature="0" d="m 0,0 -4.955,36.964 3.634,15.73 7.928,0 4.625,-6.922 L 7.268,0 0,0 z" style="fill:#634b34;fill-opacity:1;fill-rule:nonzero;stroke:none" id="path11609"/>
    </g>
    <g id="g11611" transform="matrix(1.25,0,0,-1.25,946.22941,970.17517)">
      <path inkscape:connector-curvature="0" d="m 0,0 -6.607,-15.857 2.973,-40.14 9.251,0 L 7.929,-26.43 9.581,-8.259 0,0 z" style="fill:#634b34;fill-opacity:1;fill-rule:nonzero;stroke:none" id="path11613"/>
    </g>
    <g id="g11615" transform="matrix(1.25,0,0,-1.25,969.45813,1040.1715)">
      <path inkscape:connector-curvature="0" d="M 0,0 -2.973,31.852 1.734,47.046 12.513,49.185 15.733,26.111 11.522,0 0,0 z" style="fill:#634b34;fill-opacity:1;fill-rule:nonzero;stroke:none" id="path11617"/>
    </g>
    <g id="g11619" transform="matrix(1.25,0,0,-1.25,1001.5675,1040.1715)">
      <path inkscape:connector-curvature="0" d="m 0,0 -4.957,38.818 3.635,16.519 7.927,0 L 11.23,48.068 7.268,0 0,0 z" style="fill:#634b34;fill-opacity:1;fill-rule:nonzero;stroke:none" id="path11621"/>
    </g>
    <g id="g11623" transform="matrix(1.25,0,0,-1.25,1032.9494,965.22037)">
      <path inkscape:connector-curvature="0" d="m 0,0 -6.605,-16.98 2.973,-42.981 9.249,0 2.312,31.66 L 9.581,-8.843 0,0 z" style="fill:#634b34;fill-opacity:1;fill-rule:nonzero;stroke:none" id="path11625"/>
    </g>
    <g id="g11627" transform="matrix(1.25,0,0,-1.25,346.11529,1048.5688)">
      <path inkscape:connector-curvature="0" d="m 0,0 c 0,0 246.808,-20.816 564.981,0 0,0 -20.814,-44.604 0,-65.419 0,0 -541.192,31.223 -579.849,10.407 C -14.868,-55.012 0,-37.17 0,0" style="fill:#e4bd9a;fill-opacity:1;fill-rule:nonzero;stroke:none" id="path11629"/>
    </g>
    <g id="g11639" transform="matrix(1.25,0,0,-1.25,702.39279,1014.1693)">
      <path inkscape:connector-curvature="0" d="M 0,0 8.261,-3.66 -0.247,-3.485 0,0 z" style="fill:#4c4c4c;fill-opacity:1;fill-rule:nonzero;stroke:none" id="path11641"/>
    </g>
    <g id="g11647" transform="matrix(1.25,0,0,-1.25,687.86879,1037.1136)">
      <path inkscape:connector-curvature="0" d="M 0,0 5.883,1.063 0.212,-1.275 0,0 z" style="fill:#4c4c4c;fill-opacity:1;fill-rule:nonzero;stroke:none" id="path11649"/>
    </g>
    <g id="g18709" transform="translate(-300,0)">
      <g transform="matrix(1.25,0,0,-1.25,677.18279,1022.243)" id="g11631">
        <path id="path11633" style="fill:#22a3c7;fill-opacity:1;fill-rule:nonzero;stroke:none" d="m 0,0 7.288,-38.343 23.106,0.02 L 40.635,-7.599 0,0 z" inkscape:connector-curvature="0"/>
      </g>
      <g transform="matrix(1.25,0,0,-1.25,686.44429,1023.9753)" id="g11635">
        <path id="path11637" style="fill:#3169b1;fill-opacity:1;fill-rule:nonzero;stroke:none" d="M 0,0 2.134,4.983 12.937,4.762 31.656,4.376 28.853,-5.396 0,0 z" inkscape:connector-curvature="0"/>
      </g>
      <g transform="matrix(1.25,0,0,-1.25,684.37029,1032.4848)" id="g11643">
        <path id="path11645" style="fill:#ffffff;fill-opacity:1;fill-rule:nonzero;stroke:none" d="M 0,0 29.438,-3.248 25.58,-12.587 1.827,-11.369 0,0 z" inkscape:connector-curvature="0"/>
      </g>
      <g transform="matrix(1.25,0,0,-1.25,690.34929,1044.6454)" id="g11651">
        <path id="path11653" style="fill:#4c4c4c;fill-opacity:1;fill-rule:nonzero;stroke:none" d="M 0,0 0.652,5.75 1.276,0.283 0,0 z" inkscape:connector-curvature="0"/>
      </g>
    </g>
  </g>
  <metadata>
    <rdf:RDF>
      <cc:Work>
        <dc:format>image/svg+xml</dc:format>
        <dc:type rdf:resource="http://purl.org/dc/dcmitype/StillImage"/>
        <cc:license rdf:resource="http://creativecommons.org/licenses/publicdomain/"/>
        <dc:publisher>
          <cc:Agent rdf:about="http://openclipart.org/">
            <dc:title>Open Clip Art Library</dc:title>
          </cc:Agent>
        </dc:publisher>
        <dc:title>Cartoon village</dc:title>
        <dc:date>2010-11-21T01:47:17</dc:date>
        <dc:description>Cartoon village</dc:description>
        <dc:source>http://openclipart.org/detail/97435/cartoon-village-by-dcatcherex</dc:source>
        <dc:creator>
          <cc:Agent>
            <dc:title>dcatcherex</dc:title>
          </cc:Agent>
        </dc:creator>
        <dc:subject>
          <rdf:Bag>
            <rdf:li>animal</rdf:li>
            <rdf:li>anime</rdf:li>
            <rdf:li>cartoon</rdf:li>
            <rdf:li>clip art</rdf:li>
            <rdf:li>clipart</rdf:li>
            <rdf:li>country side</rdf:li>
            <rdf:li>home</rdf:li>
            <rdf:li>house</rdf:li>
            <rdf:li>road</rdf:li>
            <rdf:li>suburb</rdf:li>
            <rdf:li>tree</rdf:li>
            <rdf:li>village</rdf:li>
          </rdf:Bag>
        </dc:subject>
      </cc:Work>
      <cc:License rdf:about="http://creativecommons.org/licenses/publicdomain/">
        <cc:permits rdf:resource="http://creativecommons.org/ns#Reproduction"/>
        <cc:permits rdf:resource="http://creativecommons.org/ns#Distribution"/>
        <cc:permits rdf:resource="http://creativecommons.org/ns#DerivativeWorks"/>
      </cc:License>
    </rdf:RDF>
  </metadata>
</svg>