<?xml version="1.0" encoding="UTF-8" standalone="no"?>
<!-- Created with Inkscape (http://www.inkscape.org/) -->
<svg
   xmlns:svg="http://www.w3.org/2000/svg"
   xmlns="http://www.w3.org/2000/svg"
   version="1.0"
   width="170.66499"
   height="328.02899"
   viewBox="0 0 170.665 328.029"
   id="pumpkin_boy_xA0_Image_1_"
   xml:space="preserve"><defs
   id="defs16" />
<path
   d="M 55.304401,296.78452 C 54.803152,296.11619 53.633573,292.77454 53.633573,292.77454 L 53.299407,284.75456 L 56.808146,287.2608 L 60.316884,295.94911 L 61.152298,290.26829 L 59.147305,283.08373 L 57.142311,277.57 L 58.980222,278.07125 L 63.157291,280.74458 L 72.179762,280.74458 L 74.518921,279.24083 L 75.521417,275.39793 L 76.690997,273.56002 L 77.025162,278.23833 L 77.860576,279.40791 L 84.042639,277.06875 L 83.541391,279.24083 L 79.531404,283.91915 L 75.855583,292.1062 L 75.187252,303.802 L 62.48896,312.99155 L 49.122338,321.51277 L 44.276937,322.68235 L 33.583639,320.34319 L 29.907818,319.84195 L 23.391589,317.00154 L 18.880354,316.50029 L 10.19205,317.00154 L 2.0049934,320.00903 L 1.8379106,318.3382 L 9.189553,314.16113 L 19.21452,312.4903 L 26.231997,314.82946 L 32.581142,315.49779 L 39.097371,314.82946 L 43.27444,311.65489 L 49.122338,308.31323 L 50.793166,306.14116 L 53.299407,300.46034 L 55.304401,298.28827 L 55.304401,296.78452 z "
   style="fill:#008000;fill-opacity:1;fill-rule:evenodd;stroke:#000000;stroke-width:0;stroke-linecap:butt;stroke-linejoin:miter;stroke-miterlimit:4;stroke-dasharray:none;stroke-opacity:1"
   id="path12904" /><path
   d="M 84.878053,286.75956 L 90.558868,290.60246 L 93.065109,294.77953 L 94.568854,302.7995 L 95.571351,308.98157 C 95.571351,308.98157 97.91051,311.98906 99.080089,311.48781 C 100.24967,310.98656 101.9205,308.6474 101.9205,308.6474 L 99.915503,303.63492 L 98.913007,298.12118 L 99.247172,294.1112 L 101.08508,294.94661 L 101.08508,292.27329 L 106.59881,287.59497 L 108.43673,287.2608 L 107.60131,292.60745 L 104.25966,299.62493 L 110.10755,307.14365 L 117.29211,314.4953 L 126.48167,316.66737 L 131.66123,316.83446 L 139.68121,314.16113 L 147.86826,312.15614 L 155.2199,309.6499 L 162.0703,310.15114 L 166.41445,311.65489 L 167.9182,313.99405 L 164.07529,313.82697 L 156.2224,313.65988 L 141.35203,319.67486 L 128.48666,324.68735 L 122.80584,325.85693 L 121.46918,327.19359 L 116.79086,327.36067 L 110.6088,326.02401 L 104.25966,323.01652 L 99.748421,320.34319 L 93.900523,318.50528 C 93.900523,318.50528 89.222205,318.00404 89.055123,317.16862 C 88.88804,316.33321 88.720957,307.31074 88.720957,307.31074 L 90.224702,300.96159 L 88.720957,296.11619 L 85.212219,287.59497 L 84.878053,286.75956 z "
   style="fill:#008000;fill-opacity:1;fill-rule:evenodd;stroke:#000000;stroke-width:0;stroke-linecap:butt;stroke-linejoin:miter;stroke-miterlimit:4;stroke-dasharray:none;stroke-opacity:1"
   id="path13875" /><path
   d="M 55.805649,202.21567 L 60.149801,198.87401 L 67.000195,192.35778 L 70.843099,187.3453 L 73.516424,186.00864 C 73.516424,186.00864 86.883046,188.3478 87.885543,188.3478 C 88.88804,188.3478 98.077593,195.19819 98.077593,195.19819 L 100.75092,198.70693 L 101.75341,214.41271 L 99.414255,237.30305 L 101.25217,242.98387 L 100.24967,249.33301 L 100.24967,269.21586 L 99.915503,280.74458 L 100.918,294.27828 L 99.414255,296.11619 L 99.581338,300.96159 L 99.581338,304.13616 L 101.58633,307.14365 L 100.918,310.65239 L 98.411758,311.32072 L 95.905517,308.98157 L 94.067606,302.29825 L 92.898027,294.77953 L 89.389288,289.43288 L 89.055123,278.40542 L 86.883046,270.38544 L 83.040142,261.36297 L 83.207225,255.68216 L 84.71097,243.31803 L 83.207225,236.8018 L 81.870563,233.9614 L 80.700983,223.43518 L 79.364321,218.75686 L 77.025162,225.10601 L 76.189748,231.28807 L 75.020169,234.62973 L 74.017672,241.31304 L 73.015176,244.82178 L 74.017672,256.18341 L 71.845596,266.54254 L 71.177265,272.89168 L 72.179762,280.57749 L 72.68101,283.08373 L 73.683507,285.08873 L 71.845596,292.1062 L 69.840603,296.61744 L 64.326871,303.13367 L 61.820629,300.46034 L 60.483967,295.28078 L 61.987712,288.59747 L 63.992705,283.4179 L 62.823126,274.72959 L 58.311891,263.70213 L 58.646056,258.85673 L 57.64356,254.17841 L 58.646056,246.99385 L 60.818132,235.96639 L 59.314387,228.44766 L 57.64356,219.42519 L 56.47398,208.06357 L 55.805649,202.21567 z "
   style="fill:#d45500;fill-opacity:1;fill-rule:evenodd;stroke:#000000;stroke-width:0;stroke-linecap:butt;stroke-linejoin:miter;stroke-miterlimit:4;stroke-dasharray:none;stroke-opacity:1"
   id="path9991" /><path
   d="M 44.778185,105.14057 L 58.478974,99.292674 L 87.050129,100.46225 L 106.26465,96.285184 L 114.95295,100.12809 L 119.46419,105.97599 L 122.13751,108.81639 L 119.96544,109.98597 L 115.12004,110.48722 L 109.94047,114.49721 L 107.60131,117.5047 L 106.59881,120.3451 L 106.59881,123.01843 L 103.59132,125.52467 L 101.41925,126.69425 L 99.247172,132.37507 L 99.414255,140.89629 L 100.75092,154.42999 L 100.918,156.43499 L 102.25466,156.2679 L 104.59382,156.60207 L 109.10506,157.60457 L 112.94796,157.60457 L 117.4592,157.10332 L 116.62378,159.60956 L 113.61629,162.28288 L 109.94047,165.79162 L 114.28462,168.13078 L 117.96044,169.96869 L 126.81583,169.13328 L 129.15499,170.46994 L 128.48666,172.8091 L 123.47418,173.97868 L 117.96044,175.48242 L 111.77838,177.48742 L 115.78837,180.16074 L 119.63127,181.16324 L 124.14251,182.66698 L 121.3021,186.00864 L 116.28962,187.17822 L 111.27713,186.50989 L 104.92799,186.3428 L 106.59881,191.02112 L 111.77838,196.0336 L 108.10256,196.0336 L 100.75092,196.0336 L 100.41675,197.87152 L 98.578841,197.70443 L 95.571351,199.37526 L 92.062613,197.70443 L 88.386791,193.86153 L 83.541391,190.85404 L 79.364321,197.87152 L 76.356831,195.36527 L 71.845596,189.35029 L 72.346844,187.17822 L 71.511431,186.50989 L 68.838106,190.01862 L 55.137318,202.884 L 56.975229,196.36777 L 54.970235,196.36777 L 53.967738,190.51987 L 47.785676,194.52986 L 38.763205,196.36777 L 39.932785,192.35778 L 46.616096,186.84405 L 49.456503,183.66948 L 55.137318,176.652 L 52.129828,176.31784 L 47.952758,179.65949 L 42.940275,180.99615 L 36.591129,182.83407 L 28.069907,179.99366 L 31.745728,178.657 L 37.760709,175.81659 L 41.603613,171.97368 L 49.623586,167.12828 L 43.942772,165.45746 L 40.099868,165.12329 L 39.097371,159.10831 L 43.27444,160.44497 L 49.456503,160.11081 L 55.137318,157.93873 L 59.314387,157.43748 L 57.810642,149.25043 L 57.64356,138.39005 L 56.139815,132.87631 L 53.633573,128.53216 L 52.965242,123.68676 L 50.459,122.18302 L 49.122338,124.18801 L 49.623586,126.193 L 48.621089,129.36758 L 45.780682,123.18551 L 42.439027,118.50719 L 37.25946,115.4997 L 34.25197,118.34011 L 33.750722,115.83387 L 35.588632,113.49471 L 38.42904,111.99097 L 41.43653,107.98098 L 44.778185,105.14057 z "
   style="fill:#803300;fill-opacity:1;fill-rule:evenodd;stroke:#000000;stroke-width:0;stroke-linecap:butt;stroke-linejoin:miter;stroke-miterlimit:4;stroke-dasharray:none;stroke-opacity:1"
   id="path2196" /><path
   d="M 75.187252,15.918366 L 72.012679,14.247539 L 69.339354,14.581704 L 62.823126,17.92336 L 55.638566,22.601678 L 51.795662,26.277499 L 47.45151,30.788734 L 43.27444,36.302466 L 39.932785,42.484529 L 36.591129,51.674082 L 36.089881,60.195303 L 37.426543,69.217774 L 39.765702,76.569416 L 43.942772,83.085645 L 48.788172,88.098128 L 53.800656,90.437287 L 59.48147,93.946025 L 65.997699,94.781439 L 73.015176,96.118102 L 81.369315,95.616853 L 89.890536,93.61186 L 97.91051,92.44228 L 104.59382,88.265211 L 110.77588,84.58939 L 114.78587,80.579403 L 117.62628,74.230257 L 119.79835,68.883608 L 122.63876,61.531966 L 123.97542,54.347406 L 122.47168,46.995764 L 118.62877,38.641625 L 114.28462,29.117906 L 107.93548,22.100429 L 103.25716,19.260022 L 96.573848,19.092939 L 91.89553,19.092939 L 93.065109,17.422111 L 91.561364,15.250035 L 88.553874,14.91587 L 84.042639,15.417118 L 84.543887,20.262519 L 84.878053,23.437092 L 81.202232,26.277499 L 77.526411,26.611664 L 74.017672,22.434595 L 74.853086,19.260022 L 75.187252,15.918366 z "
   style="fill:#ff7f2a;fill-opacity:1;fill-rule:evenodd;stroke:#000000;stroke-width:0;stroke-linecap:butt;stroke-linejoin:miter;stroke-miterlimit:4;stroke-dasharray:none;stroke-opacity:1"
   id="path2170" /><path
   d="M 53.967738,74.564423 L 60.985215,81.414817 L 68.002692,84.255224 L 75.855583,86.4273 L 88.88804,85.926052 L 93.232192,83.586893 L 99.247172,78.073161 L 97.576344,74.39734 L 84.878053,78.574409 L 75.187252,77.237747 L 66.331864,77.070664 L 54.803152,73.561926 L 53.967738,74.564423 z "
   style="fill:#ffeeaa;fill-opacity:1;fill-rule:evenodd;stroke:#000000;stroke-width:0;stroke-linecap:butt;stroke-linejoin:miter;stroke-miterlimit:4;stroke-dasharray:none;stroke-opacity:1"
   id="path2172" /><path
   d="M 74.518921,20.596684 L 75.6885,16.419615 L 79.030156,10.237552 L 81.870563,6.3946478 L 86.381798,2.7188266 L 90.72595,1.5492472 L 92.730944,1.7163299 L 92.730944,3.8884061 L 92.898027,6.5617306 L 89.723454,9.2350551 L 86.883046,11.240048 L 85.045136,13.412125 L 84.042639,16.419615 L 84.042639,20.763767 C 84.042639,20.763767 84.543887,22.434595 84.543887,23.270009 C 84.543887,24.105423 82.204729,25.107919 82.204729,25.107919 L 79.531404,26.94583 L 76.85808,26.110416 L 75.020169,23.93834 L 74.017672,22.434595 L 74.518921,20.596684 z "
   style="fill:#008000;fill-opacity:0.75;fill-rule:evenodd;stroke:#000000;stroke-width:1px;stroke-linecap:butt;stroke-linejoin:miter;stroke-opacity:1"
   id="path2174" /><path
   d="M 41.770695,81.247734 L 37.25946,79.743989 L 35.254467,78.073161 L 34.586136,81.748982 L 36.256964,85.424803 L 33.583639,85.257721 L 30.074901,84.756472 L 31.411563,90.103121 L 34.920301,96.452267 L 30.074901,97.287681 L 31.411563,99.793923 L 35.755715,103.30266 L 41.603613,103.46974 L 44.44402,102.13308 L 44.945268,106.14307 L 46.28193,109.15056 L 50.793166,106.47723 C 50.793166,106.47723 54.970235,103.13558 55.638566,103.13558 C 56.306897,103.13558 60.818132,100.62934 60.818132,100.62934 L 59.815636,104.13808 L 56.975229,109.31764 L 56.306897,110.48722 L 57.810642,111.15555 L 60.483967,109.48472 L 63.157291,108.98348 L 65.49645,109.65181 L 67.668527,113.49471 L 69.840603,109.81889 L 71.344348,107.14557 L 73.349341,105.47474 L 74.351838,109.65181 L 77.526411,113.99596 L 80.032652,110.82139 L 82.371811,108.31514 L 85.379301,109.98597 L 89.055123,111.15555 L 89.389288,107.98098 L 89.890536,104.30516 L 92.730944,105.30765 L 96.573848,107.98098 L 96.908013,103.97099 L 98.077593,103.46974 L 99.581338,102.30016 L 100.41675,100.46225 L 104.59382,100.62934 L 109.43922,99.793923 L 114.11754,99.292674 L 116.95795,98.791426 L 118.96294,97.120598 L 118.96294,95.616853 L 112.27963,94.948522 L 111.44422,94.280191 L 112.44671,92.44228 L 117.29211,90.103121 L 122.47168,87.763962 L 124.97792,86.093135 L 126.1475,84.088141 L 120.2996,83.753976 L 120.80085,82.584396 L 122.63876,81.080651 L 123.47418,78.574409 L 125.98042,75.232754 L 121.13502,76.068168 L 117.12503,76.068168 L 113.11504,82.584396 L 107.60131,86.928549 L 102.25466,89.100625 L 99.915503,91.606866 L 91.89553,94.280191 L 87.885543,93.444777 L 83.875556,95.44977 L 74.351838,96.118102 L 65.663533,95.115605 L 60.818132,93.946025 L 54.970235,91.606866 L 50.459,89.601873 L 46.950262,86.928549 L 44.109854,83.753976 L 41.770695,81.247734 z "
   style="opacity:1;fill:#008000;fill-opacity:1;fill-rule:evenodd;stroke:#000000;stroke-width:0;stroke-linecap:butt;stroke-linejoin:miter;stroke-miterlimit:4;stroke-dasharray:none;stroke-opacity:1"
   id="path2194" /><path
   d="M 106.7659,122.85135 L 108.43673,122.01593 L 112.27963,127.36258 L 119.96544,134.88131 L 124.14251,138.05588 L 123.14001,141.23045 L 126.64875,141.7317 L 127.48416,142.40003 L 124.47667,145.5746 L 120.80085,151.92375 L 116.79086,160.27789 L 109.43922,165.29037 L 117.29211,169.46744 L 122.3046,164.95621 L 125.31209,160.94622 L 132.49665,155.76665 L 135.67122,153.09333 L 137.50913,145.40752 L 140.51662,138.22296 L 140.01537,133.21048 L 134.16747,125.52467 L 127.48416,119.34261 L 120.46669,109.81889 L 116.12253,110.48722 L 111.27713,112.99346 L 108.26964,116.16804 L 107.26715,119.34261 L 106.43173,120.84635 L 106.7659,122.85135 z "
   style="fill:#deaa87;fill-opacity:1;fill-rule:evenodd;stroke:#000000;stroke-width:0;stroke-linecap:butt;stroke-linejoin:miter;stroke-miterlimit:4;stroke-dasharray:none;stroke-opacity:1"
   id="path10962" /><path
   d="M 36.591129,115.4997 L 29.907818,124.18801 L 23.391589,131.87382 L 16.875361,141.39754 L 22.723258,148.58209 L 25.897831,158.10581 L 32.915308,163.45246 L 40.099868,172.8091 L 48.788172,168.29786 L 49.289421,166.62704 L 39.765702,164.62204 L 38.596123,159.10831 L 44.276937,159.94372 L 37.927791,148.74918 L 35.755715,145.24044 L 35.588632,143.56961 L 32.915308,141.06337 L 35.922798,140.56212 L 38.763205,137.38755 L 41.603613,131.87382 L 46.449013,131.0384 L 48.454007,130.03591 L 47.117344,125.85884 L 42.606109,118.67428 L 38.596123,116.00095 L 36.591129,115.4997 z "
   style="fill:#deaa87;fill-opacity:1;fill-rule:evenodd;stroke:#000000;stroke-width:0;stroke-linecap:butt;stroke-linejoin:miter;stroke-miterlimit:4;stroke-dasharray:none;stroke-opacity:1"
   id="path11933" /><g
   id="g3">
	<path
   d="M 134.4,141.12 C 132.729,141.325 130.621,140.177 130.08,138.48 C 132.125,137.835 134.207,139.125 134.4,141.12 z "
   style="fill-rule:evenodd"
   id="path5" />
	<path
   d="M 23.52,140.64 C 25.509,141.534 29.792,139.848 29.76,142.32 C 29.749,143.209 27.571,144.499 26.16,144 C 26.105,143.145 26.505,142.745 27.36,142.8 C 26.39,142.052 23.327,143.118 23.52,140.64 z "
   style="fill-rule:evenodd"
   id="path7" />
	<path
   d="M 27.84,145.68 C 27.678,147.031 25.104,146.73 24,146.4 C 23.393,143.933 27.473,144.454 27.84,145.68 z "
   style="fill-rule:evenodd"
   id="path9" />
	<path
   d="M 37.44,155.52 C 35.007,155.187 32.585,157.822 30.72,155.76 C 31.057,155.057 32.062,155.022 33.12,155.04 C 34.41,154.229 37.141,152.892 37.44,155.52 z "
   style="fill-rule:evenodd"
   id="path11" />
	<path
   d="M 170.64,316.08 C 168.822,315.71 166.897,315.528 165.119,315.12 C 162.794,314.586 160.343,313.707 157.68,314.16 C 157.13,314.254 156.58,314.73 155.999,314.88 C 155.258,315.071 154.458,314.927 153.84,315.12 C 151.292,315.915 148.471,317.313 145.92,318.48 C 143.366,319.647 140.834,320.821 137.76,322.08 C 137.018,322.384 136.262,322.763 135.6,323.04 C 134.794,323.378 134.182,323.469 133.44,323.76 C 133.178,323.864 132.975,324.394 132.72,324.481 C 132.046,324.708 131.054,324.75 130.32,324.96 C 128.492,325.484 126.462,326.04 124.32,326.4 C 123.461,326.58 123.303,327.462 122.64,327.839 C 117.9,328.401 112.095,327.645 108.24,326.4 C 107.62,326.199 106.679,326.092 106.32,325.92 C 104.625,325.107 103.276,323.327 101.76,322.32 C 100.686,321.607 99.483,321.597 98.64,320.639 C 97.023,320.924 95.725,319.699 94.32,319.44 C 92.712,319.143 91.419,319.624 90,318.96 C 88.812,318.403 88.598,317.028 86.881,317.04 C 87.089,316.688 87.239,316.279 87.841,316.32 C 87.967,312.15 88.094,304.453 89.28,299.28 C 88.716,298.15 88.001,296.765 87.36,295.2 C 86.788,293.801 86.019,292.411 85.44,291.12 C 85.322,290.856 85.569,290.418 85.44,290.16 C 85.26,289.801 85.008,289.071 84.72,288 C 84.342,286.6 83.006,284.45 85.199,283.92 C 86.155,284.005 85.842,285.358 86.399,285.84 C 89.778,287.821 91.882,291.076 93.839,294.481 C 94.524,300.596 94.805,307.115 98.158,310.56 C 98.555,310.251 99.083,310.586 99.598,310.321 C 99.701,310.268 100.47,309.483 100.558,309.121 C 101.035,307.146 99.107,305.584 98.638,302.641 C 98.056,298.991 98.856,295.86 98.878,293.282 C 99.335,292.832 99.481,293.256 100.077,293.282 C 99.158,289.665 98.878,283.678 98.878,280.082 C 98.877,278.859 98.844,278.666 98.638,277.682 C 98.326,276.195 99.299,275.1 99.358,273.842 C 99.366,273.683 98.927,273.497 98.879,273.122 C 98.829,272.753 99.108,272.476 99.118,271.922 C 99.146,270.457 98.05,269.154 99.358,268.082 C 98.54,266.499 99.149,265.151 99.358,263.522 C 99.904,259.263 98.338,253.928 98.879,250.082 C 99.054,248.83 99.507,247.745 100.078,246.722 C 99.901,246.099 99.888,245.313 99.358,245.042 C 100.206,243.604 99.235,242.678 99.358,240.722 C 99.094,239.706 98.168,239.353 97.919,238.323 C 99.689,235.01 98.123,231.584 98.639,228.722 C 98.716,228.29 99.073,227.961 99.118,227.523 C 99.246,226.314 98.872,224.641 99.118,223.443 C 99.161,223.237 99.554,223.188 99.598,222.722 C 99.979,218.725 100.024,214.616 99.838,210.002 C 99.944,209.389 100.174,208.898 100.558,208.562 C 99.864,205.593 100.217,200.785 99.838,198.243 C 98.177,199.046 96.64,200.043 94.798,199.923 C 94.12,199.879 94.329,199.493 93.598,199.203 C 92.974,198.955 92.297,199.206 91.918,198.963 C 91.104,198.441 90.974,197.535 90.237,196.803 C 89.749,196.317 88.921,196.167 88.317,195.603 C 87.105,194.471 85.365,192.382 83.517,191.763 C 82.153,194.079 81.001,196.608 79.917,199.203 C 79.85,199.75 79.975,200.105 80.397,200.163 C 79.938,201.399 79.715,202.491 79.677,203.523 C 79.592,205.836 80.758,207.984 80.397,210.483 C 80.331,210.943 80.46,211.25 79.917,211.203 C 79.785,211.735 80.375,211.545 80.397,211.923 C 79.604,213.517 80.163,214.941 80.397,216.723 C 80.542,217.827 80.176,218.948 80.397,220.083 C 80.535,220.791 81.149,221.272 81.357,222.003 C 81.919,223.978 81.558,226.36 81.837,228.483 C 82.036,229.994 82.811,231.337 82.557,232.802 C 83.134,233.251 83.14,234.248 83.517,234.962 C 84.094,236.056 85.166,237.643 85.437,239.523 C 86.268,245.304 83.764,252.506 83.997,257.523 C 84.37,258.376 83.182,257.668 83.277,258.243 C 83.167,259.793 83.737,260.663 84.237,261.602 C 84.314,264.535 85.466,267.161 86.878,269.523 C 88.072,271.523 88.944,274.228 89.758,276.962 C 89.297,279.097 90.57,281.233 89.997,283.682 C 90.804,284.921 90.158,286.436 89.518,287.523 C 88.765,287.518 89.001,286.566 88.798,286.083 C 88.371,285.068 87.481,282.597 87.598,280.562 C 87.631,279.979 88.11,279.258 88.077,278.642 C 88.018,277.505 87.434,275.333 86.878,274.082 C 86.62,273.503 86.192,273.353 85.918,272.882 C 85.777,272.642 86.042,272.173 85.918,271.922 C 84.719,269.516 83.467,267.203 82.558,265.202 C 83.056,263.104 81.62,261.015 81.838,258.482 C 81.967,256.985 82.828,255.46 83.038,253.921 C 83.728,248.859 83.743,243.872 83.278,239.281 C 83.006,238.353 81.915,238.244 81.358,237.6 C 80.243,231.192 80.462,226.19 79.438,220.08 C 78.784,220.505 78.683,221.507 78.478,222.24 C 77.723,224.941 77.529,227.429 76.798,230.88 C 76.588,231.875 76.014,232.972 75.838,234 C 75.227,237.564 75.772,241.366 73.678,244.08 C 73.74,248.192 74.414,250.196 74.157,253.68 C 74.066,254.572 75.13,254.308 74.877,255.361 C 73.276,263.287 71.033,270.946 72.477,280.081 C 74.359,279.747 73.91,277.347 74.397,276.001 C 74.577,275.504 75.129,275.075 75.357,274.561 C 75.894,273.351 76.158,271.946 77.277,271.202 C 77.963,271.827 77.988,273.157 77.997,274.082 C 78.013,275.751 77.176,277.633 77.997,279.122 C 78.726,278.982 80.039,278.313 81.357,277.682 C 82.552,277.11 83.684,276.208 84.957,276.002 C 85.41,277.267 83.54,278.285 83.998,279.602 C 82.481,280.965 81.583,282.948 79.918,284.163 C 79.409,285.302 79.514,286.389 78.958,287.523 C 78.542,288.37 77.416,289.069 77.038,290.163 C 76.854,290.694 76.727,291.659 76.558,292.323 C 76.417,292.875 76.18,293.71 76.078,294.243 C 75.382,297.875 76.458,301.794 75.598,305.043 C 73.689,305.054 73.101,306.387 71.758,306.963 C 71.456,307.023 71.516,307.441 71.758,307.443 C 68.817,309.381 65.273,310.717 63.358,313.682 C 60.196,315.599 57.007,317.318 53.758,319.443 C 52.316,320.385 50.696,321.778 49.198,322.323 C 47.815,322.826 46.115,322.344 44.878,323.523 C 43.339,322.673 42.167,324.983 41.038,323.762 C 41.112,323.437 41.639,323.563 41.998,323.523 C 40.925,323.087 39.822,322.468 38.638,322.802 C 35.921,320.033 29.549,323.441 27.838,319.443 C 27.361,319.446 27.533,320.097 26.878,319.922 C 26.538,318.489 24.002,318.333 23.758,318.483 C 23.127,317.875 20.829,318.129 20.158,317.043 C 19.456,316.981 19.421,317.586 18.718,317.523 C 13.667,317.365 8.479,318.62 4.798,320.163 C 4.107,320.453 3.117,321.405 2.398,321.363 C 1.265,321.297 0.719,320.117 -0.002,319.443 C 1.861,315.465 7.242,315.006 10.798,312.722 C 13.162,312.205 15.7,311.865 17.998,311.283 C 18.834,311.353 17.978,311.932 18.478,312.003 C 19.923,311.039 22.224,312.507 24.238,312.483 C 25.047,312.553 24.934,313.546 25.678,313.682 C 27.873,313.352 29.244,314.769 31.198,313.922 C 31.796,314.255 31.768,314.602 31.918,314.882 C 32.922,314.95 34.14,313.96 34.558,314.882 C 35.839,313.335 38.278,314.708 39.118,312.483 C 39.759,312.482 39.639,313.241 40.318,313.203 C 40.088,312.332 41.781,310.739 43.678,310.562 C 45.126,309.238 46.545,306.783 48.958,307.203 C 49.772,306.203 50.34,304.411 50.158,303.123 C 50.621,302.625 51.162,302.207 51.838,301.923 C 51.25,299.935 53.679,298.993 54.478,297.603 C 54.242,296.067 53.138,295.434 52.798,294.484 C 52.712,294.243 53.27,294.087 53.278,294.004 C 53.34,293.396 52.43,292.606 52.318,292.084 C 52.153,291.438 52.814,291.62 53.038,291.364 C 52.651,289.381 52.28,285.5 53.038,282.964 C 54.764,284.856 57.53,285.973 58.558,288.724 C 59.182,290.394 58.615,292.475 59.998,294.004 C 60.178,293.555 60.473,292.788 60.478,292.324 C 60.483,291.875 60.109,291.944 59.998,291.364 C 59.905,290.881 60.31,290.673 60.238,290.404 C 59.964,289.378 59.4,288.224 59.038,287.044 C 58.672,285.85 58.443,284.609 58.078,283.444 C 57.193,280.62 55.09,277.604 56.158,274.563 C 57.044,274.478 57.161,275.161 57.358,275.763 C 59.704,276.778 60.947,278.894 63.118,280.083 C 62.996,278.403 62.56,277.617 62.638,276.243 C 61.746,275.227 61.5,274.203 60.958,272.403 C 60.57,271.116 59.464,269.965 59.038,268.802 C 58.874,268.354 59.127,267.774 59.038,267.363 C 58.722,265.902 57.222,265.122 57.118,263.043 C 57.047,261.63 58.139,260.09 57.598,258.483 C 55.311,253.851 58.146,246.023 59.278,241.203 C 59.414,240.626 59.596,240.09 59.758,239.523 C 60.074,238.419 60.431,237.008 60.238,235.203 C 60.127,234.161 59.543,232.425 59.038,230.883 C 58.607,229.568 57.978,227.122 57.598,225.363 C 57.351,224.222 57.566,222.964 57.358,222.003 C 57.066,220.655 56.352,219.54 56.158,218.163 C 55.993,216.986 56.158,215.993 55.918,214.803 C 55.332,211.897 54.988,208.288 55.438,204.243 C 55.269,203.685 54.312,204.857 53.998,204.243 C 54.227,201.512 55.332,199.657 55.918,197.283 C 55.548,196.623 55.52,198.303 54.478,197.762 C 54.177,195.598 53.761,194.616 53.998,191.523 C 52.825,191.71 52.104,192.349 51.598,193.203 C 49.54,193.701 47.375,195.033 45.598,196.323 C 45.001,196.756 42.973,196.562 41.758,196.802 C 39.961,197.158 38.427,198.352 36.478,198.242 C 38.595,189.317 48.244,185.848 52.798,178.561 C 52.217,177.997 51.657,179.489 51.118,179.761 C 49.434,179.855 47.848,181.321 46.078,181.681 C 44.339,182.036 42.603,181.612 41.038,182.161 C 40.576,182.323 40.192,182.916 39.598,183.121 C 38.419,183.528 35.501,184.154 34.798,184.081 C 33.833,183.98 32.24,182.782 31.198,182.401 C 29.442,181.758 27.024,181.359 26.878,178.8 C 27.527,177.642 28.568,178.454 29.518,178.321 C 33.297,177.787 36.965,175.718 39.358,173.521 C 37.988,172.043 36.79,170.665 35.518,168.721 C 34.552,167.244 33.608,165.355 32.398,163.921 C 30.082,161.175 27.282,159.877 24.238,157.681 C 24.205,157.234 24.08,156.879 23.758,156.721 C 24.683,154.382 22.343,153.001 21.838,150.721 C 21.496,149.174 22.067,148.663 21.118,147.601 C 19.622,145.927 15.752,143.029 15.598,141.601 C 15.51,140.79 16.092,140.132 16.558,139.441 C 17.505,138.036 18.326,137.23 19.438,135.601 C 22.69,130.837 27.696,126.16 30.718,120.961 C 31.73,120.693 32.242,119.925 32.878,119.281 C 32.479,116.746 33.565,115.727 33.598,114.241 C 34.704,113.588 35.324,112.447 36.958,112.321 C 39.084,109.808 40.599,106.682 43.918,105.361 C 43.95,104.354 43.481,104.021 43.918,103.201 C 41.922,103.09 39.549,105.19 36.718,104.641 C 35.443,104.393 33.29,102.054 32.398,101.281 C 31.213,100.254 28.544,98.29 28.558,97.441 C 28.6,95.013 31.425,96.448 33.358,96.001 C 32.204,93.494 30.743,90.24 29.518,87.361 C 29.026,86.205 28.255,84.666 29.038,83.521 C 31.014,83.578 32.605,85.189 34.558,84.481 C 33.701,81.924 33.844,78.583 34.798,77.041 C 37.141,77.498 37.558,79.881 40.318,79.921 C 40.001,77.704 37.98,75.178 36.958,72.721 C 36.665,72.016 37.19,71.089 36.238,70.801 C 35.995,68.892 35.846,66.95 35.758,64.801 C 35.731,64.133 35.101,63.462 35.038,62.881 C 34.838,61.044 34.515,58.845 34.798,57.121 C 34.915,56.411 34.988,56.15 35.518,55.681 C 34.715,52.808 36.507,50.641 36.478,47.761 C 38.815,43.298 40.837,38.521 43.438,34.321 C 44.148,33.591 45.049,33.052 45.118,31.681 C 46.579,31.223 47.05,29.773 47.758,28.561 C 49.724,28.527 49.371,26.174 51.358,26.161 C 51.469,25.392 52.272,25.315 52.318,24.481 C 55.169,22.788 58.654,19.95 61.918,17.761 C 63.878,16.447 65.713,15.519 68.158,14.401 C 71.336,12.948 72.393,13.213 74.878,15.361 C 75.906,15.029 76.19,13.954 76.318,12.721 C 78.827,8.59 81.694,4.817 85.438,1.921 C 85.838,1.921 86.238,1.921 86.638,1.921 C 87.331,1.734 87.522,1.045 88.077,0.721 C 89.726,0.926 90.327,0.087 91.68,1.8984814e-014 C 94.065,1.867 94.815,6.213 92.4,8.64 C 89.214,9.454 87.155,11.395 85.68,13.92 C 86.998,15.195 89.036,13.896 90.48,14.16 C 92.232,14.48 92.799,15.841 93.84,16.8 C 94.133,17.817 93.856,18.02 93.36,18.72 C 96.269,18.859 100.788,17.868 103.921,18.72 C 105.077,19.034 105.65,20.426 106.801,20.16 C 108.409,21.366 109.156,23.28 110.401,24.72 C 111.814,26.355 113.624,27.195 114.721,28.8 C 114.845,28.982 114.978,29.409 115.2,29.76 C 115.631,30.437 115.608,31.119 116.16,32.16 C 117.361,34.424 118.925,36.648 119.761,39.36 C 119.815,39.706 120.477,39.444 120.481,39.84 C 121.061,40.86 121.386,42.134 122.161,42.96 C 122.058,43.417 121.644,43.563 121.682,44.16 C 122.458,44.456 121.866,43.383 122.642,43.68 C 123.575,45.547 123.556,48.366 124.802,49.92 C 124.8,50.917 124.127,52.264 125.041,52.8 C 124.173,54.942 124.663,56.655 123.842,59.52 C 123.617,60.3 123.389,61.454 123.121,62.16 C 123.021,62.423 122.501,62.576 122.401,62.88 C 122.253,63.335 122.493,63.905 122.401,64.32 C 122.243,65.037 121.475,65.51 121.201,66.24 C 121.055,66.629 121.339,67.181 121.201,67.68 C 121.094,68.07 120.556,68.341 120.481,68.64 C 120.081,70.221 120.271,71.95 119.761,73.2 C 119.44,73.986 118.399,74.477 118.321,75.36 C 121.585,75.966 124.906,74.599 127.201,73.44 C 127.272,73.929 127.85,73.911 127.922,74.4 C 127.975,75.605 126.608,75.837 126.001,76.56 C 125.221,77.49 124.941,78.962 123.842,79.68 C 123.681,80.608 123.841,80.534 123.602,81.12 C 122.71,81.589 122.232,82.47 121.202,82.8 C 123.438,83.544 125.119,83.076 127.202,82.8 C 127.848,84.87 125.711,85.204 125.282,86.88 C 121.192,89.19 116.367,90.765 112.803,93.6 C 113.104,94.64 115.017,94.702 116.162,94.8 C 117.744,94.935 119.224,94.817 120.723,94.32 C 120.065,97.262 118.789,99.587 115.202,99.6 C 117.666,102.817 120.493,105.669 123.122,108.72 C 123.417,109.814 122.28,109.478 122.162,110.16 C 122.561,111.28 123.137,112.225 124.082,112.8 C 125.149,115.804 127.827,118.047 130.082,120.24 C 131.993,122.098 133.584,124.153 135.603,125.76 C 137.484,128.679 139.701,131.262 142.082,133.68 C 141.361,135.007 141.325,136.514 142.082,138 C 139.7,141.919 137.096,147.969 137.042,152.64 C 135.148,155.386 132.267,157.143 129.362,158.88 C 127.362,160.16 126.209,162.287 124.082,163.44 C 123.04,165.758 121.29,167.367 119.282,168.72 C 122.137,169.828 128.419,167.468 131.042,169.68 C 130.403,171.361 129.23,172.509 128.402,174 C 122.718,174.477 118.17,176.088 113.522,177.6 C 114.325,179.162 116.538,179.236 118.802,180 C 120.898,180.707 122.345,181.603 125.041,181.92 C 125.041,182.64 125.041,183.36 125.041,184.08 C 123.524,183.96 123.139,185.553 122.161,186.24 C 120.763,187.223 117.962,188.182 115.922,188.16 C 115.258,188.152 114.202,187.537 113.281,187.44 C 110.555,187.151 108.485,186.792 105.842,186.96 C 106.284,188.328 107.135,189.287 108.001,190.32 C 108.739,191.199 109.466,192.374 110.401,193.2 C 111.522,194.189 113.705,194.524 113.521,197.04 C 111.952,198.094 109.832,196.856 107.761,196.8 C 105.585,196.741 103.18,197.511 101.281,196.56 C 100.877,198.408 101.212,201.588 102.241,202.8 C 101.451,203.681 102.365,204.86 102.481,205.92 C 102.58,206.822 102.147,207.993 102.241,209.04 C 102.396,210.768 102.654,212.005 102.481,214.08 C 102.196,217.51 101.799,220.981 101.521,224.64 C 101.411,226.093 102.019,227.904 100.801,228.72 C 101.433,229.606 101.261,230.682 100.801,231.6 C 100.613,232.589 101.169,232.832 101.04,233.76 C 101.348,234.707 100.341,234.341 100.32,234.96 C 100.375,235.306 101.037,235.044 101.04,235.44 C 101.013,236.051 100.995,236.674 100.32,236.639 C 101.483,239.838 102.739,243.01 102.48,247.679 C 102.252,248.172 101.705,248.344 101.28,248.639 C 101.023,249.535 101.876,249.324 101.76,250.079 C 102.012,251.132 100.948,250.867 101.039,251.759 C 101.187,253.366 101.609,255.176 101.519,257.039 C 101.47,258.043 101.123,258.963 101.039,259.919 C 100.936,261.086 101.366,262.648 100.8,263.279 C 101.743,265.293 100.874,267.305 100.8,269.519 C 100.7,272.469 101.31,275.658 101.039,278.878 C 100.994,279.414 100.571,279.796 100.56,280.318 C 100.482,283.754 101.243,287.501 101.28,291.358 C 102.865,290.223 104.324,288.962 105.36,287.278 C 107.709,287.627 107.606,285.524 109.68,285.597 C 110.189,287.819 107.438,289.925 108.48,292.077 C 107.015,294.213 106.301,297.098 105.12,299.517 C 110.049,303.468 113.106,309.29 117.6,313.676 C 118.025,313.731 118.802,313.435 118.56,314.156 C 120.664,313.927 123.241,315.851 124.32,314.396 C 126.271,316.162 130.152,317.26 132,314.875 C 133.493,314.864 134.847,314.417 136.08,314.155 C 138.792,313.579 141.524,313.166 144,312.475 C 147.946,311.372 153.486,308.427 158.4,308.874 C 159.421,308.967 160.662,309.606 162.24,309.114 C 162.284,309.318 162.146,309.341 162,309.354 C 161.785,310.012 162.619,309.066 162.96,309.114 C 163.337,309.167 163.239,309.612 163.681,309.834 C 164.508,310.251 165.48,310.022 166.321,309.834 C 167.249,311.097 168.197,311.477 169.441,311.994 C 169.76,313.439 170.841,314.118 170.64,316.08 z M 90.72,6.72 C 89.944,6.376 89.003,6.197 88.56,5.52 C 88.785,4.705 88.881,3.761 89.039,2.88 C 87.035,3.605 84.74,5.018 83.039,6.24 C 81.394,7.422 80.603,9.191 79.439,11.04 C 77.927,13.441 76.474,15.331 76.319,18.72 C 76.245,19.286 75.486,19.166 75.599,19.92 C 75.882,21.446 75.724,21.996 75.119,23.04 C 76.805,23.553 76.827,25.461 78.719,25.68 C 80.578,25.895 82.109,24.333 83.519,23.28 C 83.489,20.701 82.769,16.838 83.519,14.4 C 83.84,13.357 85.093,12.817 84.958,11.76 C 86.916,10.198 88.456,8.218 91.198,7.44 C 91.365,6.647 91.868,6.19 92.398,5.76 C 92.392,4.246 92.336,2.783 91.198,2.4 C 88.849,2.686 91.266,6.008 90.72,6.72 z M 71.52,14.88 C 68.242,15.113 63.812,18.13 61.2,19.92 C 60.193,20.611 59.054,21.149 58.08,21.84 C 54.111,24.657 50.876,28.438 47.76,31.2 C 47.002,32.769 45.905,34.013 45.12,35.28 C 44.941,35.568 44.54,35.554 44.4,35.759 C 43.025,37.777 41.926,40.87 41.04,42.959 C 40.292,44.721 39.816,45.931 38.88,47.039 C 38.351,48.802 37.949,50.321 37.68,52.319 C 37.596,52.944 37.248,53.878 37.2,54.479 C 36.545,62.547 37.964,72.007 41.04,78.239 C 44.332,81.746 46.071,86.808 50.88,88.799 C 46.892,79.244 43.893,66.146 46.8,54.719 C 45.651,54.303 44.894,55.514 44.4,54.959 C 45.308,51.227 47.403,48.682 48.96,45.599 C 50.062,39.175 53.4,34.075 56.64,29.999 C 58.951,27.092 61.139,23.83 64.32,22.559 C 67.02,21.48 70.602,20.784 73.44,22.079 C 73.61,20.089 74.665,18.984 74.88,17.039 C 73.829,16.251 72.492,15.748 71.52,14.88 z M 90,15.6 C 87.769,15.456 86.472,16.163 84.721,16.32 C 84.825,18.077 84.754,20.539 85.441,22.32 C 88.232,22.047 89.848,19.446 92.161,18 C 91.805,16.835 90.742,16.378 90,15.6 z M 122.64,56.88 C 122.644,55.598 121.82,54.581 121.68,53.28 C 121.582,52.378 122.012,51.304 121.92,50.4 C 121.734,48.577 120.517,46.244 119.76,44.16 C 118.732,41.329 117.374,38.098 115.92,36.24 C 115.619,34.688 114.723,32.53 113.999,31.44 C 112.806,29.641 111.57,28.396 110.159,26.64 C 109.047,25.255 108.035,23.551 107.279,22.8 C 106.278,21.806 104.196,20.449 102.959,20.16 C 102.237,19.991 101.255,20.253 100.319,20.16 C 97.169,19.848 95.36,19.245 92.88,20.16 C 91.273,20.752 89.413,21.898 88.8,23.28 C 91.899,24.293 94.72,24.69 97.199,25.92 C 98.371,26.501 99.23,27.73 100.319,28.32 C 101.439,28.927 102.704,29.096 103.439,29.76 C 107.258,33.208 109.173,38.996 111.839,43.2 C 112.729,44.603 113.874,45.928 113.998,47.76 C 116.423,49.206 116.054,52.871 116.879,55.92 C 117.129,56.845 117.801,57.681 118.078,58.56 C 118.946,61.308 119.242,65.542 119.518,67.2 C 120.736,63.683 122.626,60.672 122.64,56.88 z M 79.44,35.76 C 77.724,39.061 78.727,46.169 77.28,48.96 C 77.972,50.108 77.817,52.104 78.24,53.52 C 79.242,54.306 79.966,55.216 80.88,56.16 C 81.736,57.044 83.013,57.838 83.76,58.8 C 84.066,59.195 84.129,59.836 84.48,60.24 C 86.009,62 88.413,63.133 89.28,65.52 C 88.189,67.865 82.75,66.919 79.44,67.44 C 79.765,70.395 80.111,73.329 80.88,75.84 C 83.375,76.37 85.946,74.869 88.32,74.16 C 94.324,72.367 98.614,70.107 103.68,67.44 C 105.385,66.542 107.629,64.805 108.72,65.04 C 109.769,65.266 110.346,66.515 110.159,67.68 C 109.928,69.129 107.697,69.755 106.8,70.32 C 103.345,74.546 100.037,78.918 95.52,82.08 C 95.796,82.752 95.796,83.328 95.52,84 C 92.261,85.7 88.869,87.149 85.2,87.84 C 85.435,91.939 89.547,92.948 92.64,92.64 C 94.623,92.443 96.104,91.182 97.68,90.24 C 100.887,88.323 101.107,87.627 102.24,84.24 C 102.737,82.754 103.243,81.052 103.44,79.92 C 103.606,78.963 102.809,77.382 104.16,76.8 C 105.384,78.393 104.627,80.843 104.16,82.8 C 103.685,84.793 102.599,86.729 102.24,88.32 C 106.427,86.979 110.018,83.991 112.56,81.12 C 112.995,80.628 113.794,80.237 113.999,79.92 C 114.253,79.529 114.164,78.664 114.479,78 C 114.871,77.176 115.871,76.529 116.159,75.84 C 116.397,75.272 116.207,74.368 116.399,73.68 C 116.824,72.164 117.724,70.932 117.839,69.84 C 118.164,66.754 117.408,63.467 116.879,60 C 115.398,58.079 115.352,55.109 114.479,52.8 C 112.745,48.214 109.921,44.75 108.479,40.08 C 106.695,38.462 106.499,36.115 105.119,34.32 C 104.78,33.879 103.972,33.653 103.439,33.12 C 102.916,32.597 102.746,31.85 102.239,31.44 C 100.351,29.911 97.392,28.253 95.279,27.36 C 92.326,26.112 89.028,25.607 85.679,24.48 C 84.666,25.628 82.668,25.789 82.079,27.36 C 83.576,29.056 85.798,31.808 87.599,33.84 C 89.126,35.565 91.166,37.285 92.399,38.88 C 93.197,39.913 93.628,41.336 94.799,41.76 C 96.777,42.476 99.281,41.083 101.759,42 C 102.504,42.987 102.97,44.167 103.679,45.12 C 105.096,47.026 107.471,48.505 107.759,51.12 C 106.478,52.9 102.749,52.328 100.319,52.32 C 100.273,53.455 101.604,54.055 102.239,54.96 C 103.911,57.345 105.064,60.281 105.599,63.6 C 105.029,63.989 105.217,65.138 103.919,64.8 C 102.47,60.329 100.529,56.349 98.639,52.32 C 92.227,51.754 89.04,52.803 84.958,54.48 C 83.875,51.7 86.45,50.064 87.358,48.72 C 87.823,48.032 87.835,47.074 88.318,46.32 C 88.399,46.195 88.926,46.227 89.038,46.08 C 89.253,45.798 89.057,45.36 89.278,45.12 C 90.118,44.211 91.582,43.812 92.158,42.72 C 90.562,39.539 86.776,36.514 84.238,33.36 C 83.652,32.631 83.148,31.422 82.318,30.48 C 81.081,29.075 80.119,27.851 78.238,27.84 C 76.677,29.96 74.737,31.699 72.718,33.36 C 72.719,34.161 71.937,34.179 71.998,35.04 C 70.09,36.312 69.054,38.323 67.918,40.32 C 66.773,42.332 65.985,44.64 64.318,46.08 C 63.514,44.642 64.656,42.775 65.278,41.52 C 67.433,37.169 71.048,33.895 73.678,30.48 C 74.804,29.446 76.243,28.726 77.038,27.36 C 75.932,26.306 74.643,25.435 74.398,23.52 C 69.87,23.321 66.059,22.894 62.638,24.96 C 60.409,27.844 57.716,30.204 55.678,33.36 C 53.699,36.425 52.232,40.136 51.118,44.16 C 54.437,44.204 58.541,45.099 61.438,46.32 C 62.49,48.228 63.913,49.765 64.318,52.32 C 64.628,53.211 65.827,53.211 65.758,54.48 C 64.947,55.676 63.088,55.593 62.158,55.44 C 60.223,55.121 58.671,53.56 56.638,53.04 C 56.18,52.923 55.782,52.626 55.438,52.56 C 52.215,51.941 50.951,54.758 47.518,54.48 C 47.43,55.309 47.968,55.626 47.998,56.88 C 48.019,57.774 47.587,58.698 47.518,59.52 C 47.388,61.077 47.858,62.887 47.758,64.56 C 47.717,65.24 47.285,65.829 47.278,66.48 C 47.241,69.902 48.26,72.16 48.718,74.88 C 49.173,77.579 49.11,78.492 49.918,80.88 C 50.379,82.242 50.689,83.896 51.118,84.96 C 51.682,86.36 52.511,86.808 53.278,87.84 C 53.774,88.507 54.021,89.308 54.478,89.76 C 55.37,90.641 56.801,90.678 57.358,92.16 C 58.896,92.302 59.962,92.916 60.958,93.6 C 63.902,93.429 66.297,94.908 69.118,94.08 C 68.751,92.38 66.982,91.703 66.238,90.24 C 65.51,88.809 65.388,87.198 64.798,85.44 C 64.668,84.59 65.648,84.85 65.518,84 C 61.193,83.365 58.471,81.127 55.438,79.2 C 53.846,77.057 52.053,75.554 50.398,73.68 C 49.666,72.85 48.531,71.921 48.718,70.56 C 50.176,69.482 51.787,70.87 53.278,71.28 C 55.585,71.915 58.09,72.22 60.238,72.96 C 58.586,70.024 57.753,64.158 58.078,59.76 C 58.2,58.114 58.417,55.596 60.238,55.2 C 60.271,60.165 59.293,68.054 61.678,72 C 61.852,72.734 61.264,72.706 61.438,73.44 C 66.262,75.123 74.019,75.794 78.958,75.84 C 78.266,73.439 77.983,69.801 77.998,67.44 C 75.154,66.279 71.536,68.334 68.638,68.16 C 67.959,68.119 66.395,68.135 66.238,66.96 C 69.796,64.615 70.515,61.095 72.478,56.64 C 73.455,54.423 75.187,52.521 75.598,51.12 C 76.024,49.667 76.118,47.194 76.318,45.36 C 76.553,43.205 76.701,41.311 76.318,39.6 C 77.789,36.27 77.804,31.485 80.158,29.04 C 80.318,29.04 80.478,29.04 80.638,29.04 C 80.545,31.585 79.076,32.756 79.44,35.76 z M 117.6,76.8 C 116.334,79.054 115.012,81.253 113.52,83.28 C 116.11,83.351 116.905,82.365 119.28,83.04 C 119.594,81.434 121.654,81.574 122.4,80.4 C 122.471,78.631 123.752,78.072 124.08,76.56 C 124.333,76.547 124.269,76.252 123.841,76.32 C 122.119,77.539 120.262,76.38 117.6,76.8 z M 57.84,77.52 C 57.943,77.143 58.595,77.315 58.32,76.56 C 58.16,76.56 58,76.56 57.84,76.56 C 57.694,76.574 57.556,76.596 57.6,76.8 C 58.45,76.827 57.09,77.593 57.84,77.52 z M 92.88,82.56 C 94.329,81.85 95.805,81.165 96.48,79.68 C 95.055,79.459 94.205,77.672 93.12,78.48 C 94.298,79.383 92.862,81.276 92.88,82.56 z M 60.72,80.16 C 61.875,80.351 63.202,81.427 64.08,81.12 C 64.238,80.242 63.56,80.199 63.6,79.44 C 62.691,79.309 62.1,78.859 60.96,78.96 C 61.058,79.538 60.521,79.481 60.72,80.16 z M 36.72,84.96 C 39.038,85.365 42.434,85.999 43.92,85.2 C 42.679,81.721 38.527,81.152 35.52,79.44 C 35.088,81.868 36.17,82.964 36.72,84.96 z M 74.4,84.96 C 75.72,84.84 77.545,85.225 78.48,84.72 C 78.448,83.632 77.893,83.067 77.76,82.08 C 76.252,81.828 76.371,79.949 75.12,79.44 C 74.879,81.279 74.17,82.65 74.4,84.96 z M 80.16,84.96 C 81.862,85.241 83.146,85.3 84.721,84.96 C 83.814,82.986 83.165,80.755 81.601,79.44 C 81.247,81.407 80.374,82.854 80.16,84.96 z M 68.4,82.8 C 69.673,83.047 70.541,83.699 71.76,84 C 72.221,82.523 70.615,81.186 70.32,79.68 C 68.506,79.546 68.445,81.165 68.4,82.8 z M 87.12,84.48 C 88.456,84.216 89.619,83.778 90.96,83.52 C 90.007,82.314 89.381,80.779 88.08,79.92 C 87.469,81.149 87.305,82.825 87.12,84.48 z M 115.2,84.48 C 114.004,84.486 113.093,85.001 112.08,84.48 C 110.037,86.116 108.256,88.016 105.12,88.56 C 104.886,89.766 103.663,89.983 103.681,91.44 C 106.375,91.148 108.043,93.408 110.401,93.12 C 111.444,92.993 112.51,91.665 113.761,90.96 C 114.354,90.626 115.054,90.604 115.681,90.24 C 116.278,89.893 116.804,89.33 117.361,89.04 C 120.111,87.605 123.359,87.233 125.041,84.96 C 121.643,84.758 118.143,84.465 115.2,84.48 z M 76.08,95.04 C 77.106,95.172 78.36,94.786 79.68,94.8 C 82.295,94.829 84.142,94.87 85.44,92.88 C 84.773,91.227 83.116,90.564 83.52,87.84 C 77.57,87.97 71.13,87.49 66.24,85.44 C 67.764,89.443 70.908,94.374 76.08,95.04 z M 33.6,92.88 C 36.913,93.214 40.694,93.327 43.2,94.8 C 44.357,94.677 44.677,93.717 46.08,93.84 C 46.083,94.317 46.735,94.145 46.56,94.8 C 44.795,97.152 40.154,96.41 36.72,96.48 C 35.712,97.712 33.532,97.772 31.2,97.68 C 31.623,98.41 32.419,98.961 33.12,99.6 C 34.419,100.784 36.34,102.992 38.16,103.2 C 38.558,103.245 39.32,102.819 39.84,102.72 C 43.566,102.011 45.417,100.893 47.52,98.88 C 48.37,99.3 48.11,98.72 48.96,98.64 C 49.161,97.56 49.955,97.075 50.4,96.24 C 50.432,94.911 50.474,93.594 51.6,93.36 C 52.268,94.934 51.709,96.946 50.88,98.4 C 50.732,98.66 50.169,98.788 49.92,99.12 C 49.674,99.448 49.636,100.052 49.44,100.32 C 48.123,102.116 46.598,103.268 45.36,104.64 C 45.584,105.856 46.217,106.662 46.56,107.76 C 47.448,107.672 47.855,106.787 48.48,106.32 C 50.504,104.805 52.656,103.637 54.96,102.72 C 56.752,102.006 58.579,101.603 60,100.32 C 60.831,98.617 60.507,97.185 61.68,96 C 61.964,96.356 62.586,96.374 62.88,96.72 C 63.01,97.97 62.419,98.499 62.4,99.6 C 61.767,99.767 61.893,100.692 61.2,100.8 C 60.72,104.64 58.654,106.894 57.6,110.16 C 60.043,109.804 61.084,108.044 63.84,108 C 64.641,105.441 65.983,103.423 66.48,100.56 C 67.645,100.125 67.09,97.97 69.12,98.4 C 67.813,101.894 66.362,105.242 65.04,108.72 C 66.248,109.592 66.837,111.082 68.16,111.84 C 69.229,109.149 70.763,106.922 72.48,104.88 C 72.561,102.801 72.105,100.185 73.68,99.6 C 74.419,101.713 73.615,104.69 74.159,107.52 C 75.481,109.078 76.711,110.728 77.519,112.8 C 79.227,111.788 79.954,109.795 81.119,108.24 C 79.862,105.226 78.275,102.75 78.719,98.88 C 80.032,99.23 79.612,101.005 79.919,102 C 81.31,106.502 83.457,109.369 88.559,109.92 C 88.373,108.468 89.713,105.71 88.799,104.4 C 87.446,104.008 87.941,105.462 86.639,105.12 C 87.136,101.581 84.928,99.473 85.679,96.48 C 86.533,96.931 87.021,98.469 87.359,99.6 C 87.75,100.907 87.797,102.333 88.079,103.2 C 91.501,103.539 93.905,104.894 96.239,106.32 C 96.426,104.744 96.402,102.588 97.199,101.04 C 95.933,99.025 93.428,98.251 93.119,95.28 C 91.264,95.864 89.394,94.749 87.599,95.04 C 86.645,95.194 85.979,95.954 85.199,96.24 C 84.358,96.549 83.235,96.867 82.319,96.96 C 80.721,97.121 78.94,96.479 77.999,96.48 C 76.498,96.482 74.975,97.175 73.199,96.96 C 71.753,96.785 70.368,96.031 68.879,96 C 65.849,95.938 63.164,96.401 60.959,95.76 C 59.064,95.209 57.927,93.684 56.399,92.88 C 54.977,93.049 54.588,92.714 53.759,92.4 C 52.76,92.022 51.786,91.851 51.119,91.44 C 50.972,91.349 51.072,90.828 50.879,90.72 C 50.407,90.456 49.594,90.501 49.199,90.24 C 48.324,89.66 47.834,88.604 47.039,88.08 C 45.317,86.944 43.82,86.999 41.759,87.12 C 38.518,87.309 33.533,86.229 30.959,85.68 C 31.198,88.722 33.143,90.058 33.6,92.88 z M 111.84,96.24 C 110.526,95.503 108.978,94.941 107.52,94.32 C 105.802,93.588 103.423,92.246 101.52,92.64 C 98.715,93.221 95.799,94.077 93.6,95.04 C 94.472,96.642 97.13,98.445 99.12,99.6 C 100.014,100.119 100.469,99.86 101.28,100.08 C 104.077,100.837 107.069,99.618 110.64,99.12 C 113.511,98.72 117.536,99.285 118.32,96.48 C 116.022,96.624 113.85,96.098 111.84,96.24 z M 34.8,94.56 C 34.951,95.457 37.626,95.083 38.16,94.8 C 37.167,94.664 35.861,93.862 34.8,94.56 z M 100.8,101.52 C 100.911,103.712 99.152,104.032 97.44,104.4 C 96.959,105.682 98,108.855 96.24,109.44 C 95.278,106.962 92.538,106.262 90.48,104.88 C 89.012,107.012 90.718,110.509 89.52,112.32 C 87.166,111.314 84.321,110.799 82.56,109.2 C 80.877,109.997 80.198,111.798 78.96,113.04 C 78.858,114.379 78.343,115.303 77.28,115.68 C 76.06,112.979 74.555,110.565 72.96,108.24 C 72.96,107.68 72.96,107.12 72.96,106.56 C 71.909,106.529 71.29,107.926 70.8,108.72 C 70.245,109.619 69.512,110.677 69.12,111.6 C 68.728,112.523 69.163,114.586 67.44,114.48 C 65.739,112.776 65.532,109.732 63.12,109.44 C 60.606,109.136 59.411,112.07 56.64,112.32 C 56.084,111.836 55.357,111.523 55.2,110.64 C 56.955,108.394 59.377,105.538 59.28,102.24 C 55.613,104.493 51.229,106.029 48.72,109.44 C 46.766,108.926 47.16,110.76 45.84,110.88 C 45.037,109.603 45.456,107.105 44.16,106.32 C 42.987,107.707 41.791,109.071 40.32,110.16 C 39.958,112.598 37.929,113.369 36.24,114.48 C 39.3,115.332 41.738,116.292 43.44,118.56 C 44.763,120.323 45.75,122.875 46.8,124.32 C 47.429,125.186 47.719,127.041 48.96,126.96 C 49.272,125.527 48.203,125.477 48.24,124.32 C 48.317,123.117 49.788,123.308 49.68,121.92 C 49.468,121.039 48.667,120.48 49.2,119.52 C 48.221,118.187 45.6,117.46 46.08,115.44 C 47.796,115.329 49.361,117.094 50.4,116.16 C 50.372,114.428 48.27,114.77 48.24,113.04 C 50.265,112.571 51.463,114.911 52.32,116.4 C 52.179,117.699 50.983,117.943 49.68,118.08 C 49.716,119.563 51.163,119.637 51.12,121.2 C 51.979,121.941 52.882,122.638 53.76,123.36 C 53.628,126.352 54.559,128.711 55.44,131.28 C 56.136,131.543 56.593,132.047 57.12,132.48 C 57.496,133.459 59.319,137.38 58.08,139.2 C 59.212,139.428 58.682,141.318 58.8,142.56 C 59.846,143.731 58.972,144.019 59.52,145.44 C 58.156,150.159 59.38,155.843 60.96,159.6 C 60.008,160.462 60.776,161.641 60,162.48 C 59.716,162.756 59.151,162.751 58.56,162.72 C 57.743,161.315 59.008,159.771 58.56,158.64 C 56.436,157.227 54.584,158.827 53.28,159.36 C 49.537,160.89 44.255,161.614 40.56,160.08 C 39.425,161.165 40.499,163.039 40.56,164.4 C 44.094,164.706 47.014,165.626 50.64,165.84 C 51.017,166.423 51.535,166.865 51.36,168 C 48.356,168.036 47.625,170.345 44.88,170.64 C 43.776,172.115 41.847,172.587 40.56,174 C 40.056,174.554 39.972,175.415 39.36,175.92 C 39.122,176.117 38.321,176.515 37.68,176.88 C 35.185,178.3 32.688,179.56 29.76,180 C 32.174,180.641 33.948,182.268 36.48,182.16 C 39.412,182.035 42.136,179.292 45.12,180 C 46.949,179.09 48.35,178.265 49.44,177.12 C 50.522,175.983 51.585,174.628 52.8,174 C 54.196,173.278 56.201,173.256 56.88,174.72 C 55.485,177.859 52.661,179.999 50.64,182.64 C 49.915,183.587 49.63,184.655 48.72,185.521 C 45.591,188.496 41.366,190.604 39.84,195.121 C 49.575,195.728 53.064,188.03 59.52,184.56 C 59.908,183.158 61.446,182.511 62.16,181.201 C 62.829,179.972 63.017,178.305 63.6,176.881 C 64.126,175.595 64.638,173.913 65.52,173.041 C 66.252,175.606 65.292,176.815 64.56,178.561 C 63.611,180.825 63.036,182.397 62.16,184.082 C 61.883,184.615 61.954,185.093 61.681,185.522 C 61.433,185.909 60.906,186.09 60.721,186.482 C 60.254,187.468 60.363,188.678 60.001,189.601 C 59.58,190.674 58.664,191.525 58.321,192.482 C 57.425,194.983 57.233,198.433 56.401,200.641 C 57.703,200.016 58.679,198.94 59.761,198.001 C 62.171,195.91 64.144,194.282 66.241,192.001 C 68.067,190.015 69.519,188.294 70.801,186.241 C 71.367,185.888 71.248,185.734 72.001,186.001 C 72.389,183.235 72.166,179.14 72.241,176.161 C 72.266,175.159 71.411,173.488 73.201,173.521 C 74.513,178.315 74.265,184.837 72.481,188.88 C 73.234,191.109 74.946,191.841 76.321,193.441 C 77.402,194.698 77.962,196.308 79.441,197.041 C 79.878,194.728 82.099,193.293 82.561,191.041 C 83.321,187.332 81.727,184.431 81.361,181.921 C 81.09,180.065 81.163,178.407 80.881,176.881 C 80.721,176.018 79.694,175.01 80.641,174.241 C 82.538,175.38 82.197,178.097 82.561,180.241 C 83.13,183.594 84.224,187.051 84.481,190.56 C 87.319,192.683 90.663,194.298 92.401,197.521 C 93.902,197.591 95.088,199.083 96.721,198.241 C 96.588,197.384 95.988,196.606 95.521,195.841 C 94.15,193.595 92.785,191.481 91.681,189.601 C 90.345,187.327 89.592,184.457 89.04,181.921 C 88.563,179.727 88.682,177.307 88.08,174.721 C 88.479,174.321 88.709,173.749 89.52,173.761 C 89.921,178.019 90.86,181.444 90.959,185.282 C 92.647,187.929 95.914,190.86 98.399,192.962 C 99.11,193.564 100.003,194.579 100.559,194.882 C 103.301,196.376 106.734,195.441 110.159,195.602 C 109.467,194.205 108.033,193.675 107.039,192.483 C 105.133,190.195 104.329,187.011 102.72,184.323 C 99.45,181.992 96.862,178.981 93.84,176.403 C 93.601,175.877 92.768,174.222 94.079,174.243 C 94.796,174.486 94.829,175.413 95.279,175.923 C 98.388,178.414 101.034,181.368 104.159,183.843 C 104.098,184.704 104.88,184.723 104.88,185.524 C 106.907,185.528 109.205,185.732 110.64,186.003 C 116.26,187.065 120.528,186.556 123.36,183.123 C 118.613,181.79 113.847,180.476 110.4,177.843 C 110.09,177.513 109.358,177.606 108.72,177.603 C 108.175,176.707 107.095,176.348 105.84,176.164 C 104.425,173.967 100.222,173.317 100.319,170.404 C 103.281,171.424 105.394,173.539 107.999,174.964 C 108.885,175.448 110.087,176.275 110.88,176.404 C 113.595,176.848 116.351,175.016 118.8,174.244 C 122.254,173.153 127.306,173.909 128.64,170.644 C 124.297,169.154 120.35,171.439 116.16,170.404 C 114.364,169.96 113.024,168.203 111.36,167.284 C 109.615,166.319 107.839,166.14 106.56,164.884 C 105.919,164.485 104.415,164.948 104.4,163.924 C 104.359,163.323 104.769,163.173 105.12,162.964 C 106.827,163.177 107.753,164.172 109.44,164.404 C 112.384,163.099 115.573,160.79 116.16,157.924 C 112.711,158.803 109.986,158.598 107.52,157.924 C 105.596,157.398 104.328,156.94 102.72,156.724 C 101.333,157.257 101.426,159.27 99.6,159.364 C 98.678,158.079 100.483,157.777 100.56,156.724 C 99.428,156.496 99.957,154.606 99.84,153.364 C 99.743,152.74 99.123,152.64 99.119,151.924 C 98.941,147.486 98.417,142.849 97.92,138.244 C 97.952,137.397 98.607,137.171 98.64,136.324 C 97.318,132.79 98.937,127.605 101.039,125.284 C 101.58,124.765 100.841,124.465 101.039,123.604 C 102.319,120.361 103.744,116.882 105.359,114.244 C 105.84,113.457 106.336,111.667 107.759,112.084 C 108.205,113.534 106.831,114.272 106.319,115.204 C 104.823,117.922 104.133,120.536 102.959,123.604 C 103.94,124.288 105.002,123.346 105.84,123.124 C 105.881,122.123 105.104,121.94 105.119,120.964 C 105.915,119.369 108.177,118.019 107.039,115.924 C 109.956,112.765 115.308,107.579 120.959,108.964 C 121.048,108.236 120.178,108.466 119.76,108.244 C 118.866,106.417 117.461,105.102 115.92,103.924 C 115.982,103.221 115.377,103.187 115.44,102.484 C 114.019,102.305 114.217,100.507 113.04,100.084 C 109.138,100.24 104.973,101.825 100.8,101.52 z M 97.68,102.96 C 98.455,102.776 98.936,102.296 99.119,101.52 C 98.694,101.305 98.813,100.546 97.92,100.8 C 98.108,101.789 97.551,102.032 97.68,102.96 z M 45.12,102.72 C 45.984,102.772 46.852,101.588 46.56,101.28 C 46.354,102.034 45.173,101.813 45.12,102.72 z M 111.36,114.24 C 110.339,116.99 106.91,118.574 107.28,121.92 C 108.223,122.143 107.885,121.086 108.96,121.44 C 114.095,126.386 117.621,132.94 123.841,136.8 C 125.809,136.123 129.898,133.228 131.28,136.32 C 130.783,137.903 129.347,138.547 127.921,139.2 C 127.511,138.602 127.083,138.022 127.441,137.28 C 128.303,137.262 129.395,137.474 129.601,136.8 C 128.739,135.411 127.704,136.735 126.96,137.04 C 126.001,137.435 125.241,138.154 124.32,138.24 C 124.925,139.594 123.984,139.91 123.841,141.12 C 124.851,141.746 128.274,140.038 128.16,142.32 C 127.893,143.334 126.54,143.259 126.24,144.24 C 126.887,144.792 128.151,144.729 128.4,145.68 C 127.654,146.725 126.022,145.838 125.04,145.68 C 121.939,149.779 120.047,155.086 117.601,159.84 C 115.543,161.783 113.106,163.345 111.121,165.36 C 113.613,166.064 114.871,168.187 117.121,168.48 C 117.615,168.414 117.348,167.586 117.842,167.52 C 118.077,167.908 118.482,168.072 118.802,167.76 C 118.855,167.573 119.002,167.481 119.281,167.52 C 123.157,161.716 128.428,157.307 134.401,153.6 C 135.505,151.879 135.354,150.083 135.841,148.08 C 136.547,145.174 138.301,142.104 139.2,139.44 C 139.796,137.675 138.927,135.907 139.44,134.16 C 136.293,130.267 133.669,125.851 129.36,123.12 C 127.946,120.692 125.657,118.92 124.08,116.64 C 122.606,114.509 121.434,112.376 120,110.4 C 115.771,110.331 114.017,112.737 111.36,114.24 z M 35.04,116.64 C 35.13,116.074 36.669,115.731 35.76,114.96 C 35.508,115.364 34.553,116.292 35.04,116.64 z M 42.72,121.68 C 42.199,118.601 39.584,117.617 37.44,116.16 C 37.2,116.16 36.96,116.16 36.72,116.16 C 34.722,119.681 32.301,122.781 29.52,125.52 C 29.718,126.198 29.182,126.142 29.28,126.72 C 26.568,128.968 25.176,132.535 22.08,134.4 C 22.011,136.053 19.989,136.62 20.64,138.24 C 19.209,138.65 19.32,140.599 18,141.12 C 18.638,142.499 19.805,144.025 21.36,143.76 C 21.54,144.58 20.385,144.065 20.64,144.96 C 23.98,146.58 23.927,151.593 25.92,154.56 C 25.804,157.526 28.206,157.711 29.76,158.88 C 31.48,160.173 32.226,162 33.84,162.72 C 35.83,165.818 38.013,169.917 40.8,171.84 C 42.958,170.158 45.685,169.045 48,167.52 C 45.734,166.106 41.863,166.297 39.12,165.36 C 38.366,163.074 38.294,160.106 37.2,158.16 C 37.543,158.102 37.605,157.764 37.92,157.68 C 39.676,157.879 41.141,159.531 42.72,159.12 C 40.181,154.619 37.583,150.177 35.04,145.68 C 35.04,145.12 35.04,144.56 35.04,144 C 33.598,143.63 30.817,141.756 32.88,140.16 C 33.277,139.833 34.28,140.356 35.28,140.16 C 37.032,138.327 39.572,136.221 39.36,133.2 C 40.203,131.94 41.818,131.099 42.96,129.84 C 43.771,128.946 44.245,126.578 46.08,127.44 C 46.237,128.797 45.001,128.762 44.88,129.84 C 45.553,130.127 46.536,130.104 47.52,130.08 C 47.03,126.17 44.345,124.455 42.72,121.68 z M 102,126.96 C 97.539,135.162 102.041,147.381 101.28,156 C 102.307,156.067 102.468,155.267 103.68,155.52 C 106.869,155.99 110.021,157.824 113.52,157.44 C 115.131,157.263 116.489,156.098 118.32,156.48 C 119.036,151.836 122.03,149.47 123.36,145.44 C 124.755,144.595 125.654,143.254 126.72,142.08 C 124.366,141.777 122.954,143.043 122.4,141.12 C 123.066,140.008 123.261,139.594 123.36,138.24 C 116.374,134.746 112.79,127.85 107.76,122.4 C 107.583,125.663 103.96,125.48 102,126.96 z M 56.88,144 C 56.245,140.596 56.856,138.012 56.4,134.64 C 53.567,132.393 51.987,128.443 52.32,124.32 C 51.59,124.09 51.834,122.886 50.64,123.12 C 50.77,123.97 49.79,123.71 49.92,124.56 C 51.35,126.868 48.93,128.197 49.2,130.8 C 48.059,132.299 44.459,131.339 42.72,132.24 C 39.873,135.313 39.338,140.697 34.32,141.6 C 34.579,142.701 36.446,142.194 36.48,143.52 C 36.48,144.16 36.48,144.8 36.48,145.44 C 37.625,146.284 38.254,148.033 38.88,149.04 C 39,149.232 39.283,149.373 39.36,149.52 C 40.161,151.049 40.564,153.046 41.52,154.56 C 42.034,155.373 44.469,158.376 45.12,158.88 C 46.751,160.143 47.733,159.367 49.68,158.88 C 50.708,158.623 51.829,158.673 52.56,158.4 C 53.566,158.025 54.214,157.222 55.2,156.96 C 56.221,156.689 57.112,156.852 58.32,156.72 C 57.255,152.999 57.543,147.556 56.88,144 z M 55.44,190.56 C 55.259,192.662 55.651,194.19 55.92,195.84 C 57.106,195.515 56.623,194.196 56.88,193.441 C 57.604,191.313 59.13,189.491 59.52,187.201 C 57.74,187.9 56.734,189.375 55.44,190.56 z M 56.64,202.56 C 57.865,204.946 56.454,209.319 57.84,211.92 C 57,217.498 59.663,221.823 60.24,226.32 C 60.356,227.22 60.07,228.083 60.24,228.96 C 60.385,229.705 60.975,230.351 61.2,231.12 C 61.612,232.527 62.025,234.399 62.16,235.68 C 62.348,237.468 61.327,238.338 60.96,239.76 C 60.707,240.742 60.931,241.959 60.72,242.88 C 60.505,243.82 59.992,244.547 59.76,245.521 C 59.348,247.25 59.217,249.704 58.8,251.041 C 58.554,251.831 58.236,253.619 58.32,254.641 C 58.407,255.696 59.052,256.468 59.28,257.522 C 59.458,258.341 59.561,259.767 59.52,260.641 C 59.478,261.541 58.945,262.368 59.04,263.282 C 59.16,264.446 60.024,265.337 60.48,266.402 C 61.563,268.932 61.86,272.068 63.6,274.082 C 63.933,277.669 64.725,280.797 64.8,284.642 C 62.755,287.317 61.895,291.177 61.2,295.203 C 63.197,296.565 61.988,301.136 64.08,302.403 C 65.545,301.173 66.826,299.635 67.92,298.323 C 69.16,296.835 69.819,295.395 70.56,293.283 C 71.572,290.398 72.153,288.093 72.96,285.123 C 72.5,284.455 71.884,283.834 71.52,282.963 C 70.942,281.581 71,279.753 70.56,278.163 C 70,276.141 68.348,274.178 69.36,272.642 C 69.898,272.904 69.782,273.821 70.32,274.082 C 71.024,271.585 70.025,267.387 71.52,265.682 C 70.592,265.554 71.025,264.785 71.04,264.483 C 71.102,263.249 72.053,262.358 72.48,261.123 C 73.552,258.024 73.63,255.472 72.96,252.723 C 72.453,250.642 72.454,248.694 71.52,246.963 C 71.337,247.854 70.436,248.546 70.08,249.603 C 69.739,250.617 70.271,252.219 69.12,252.723 C 67.354,251.527 69.317,249.297 69.12,247.444 C 70.7,245.343 71.4,242.364 73.44,240.723 C 73.044,239.068 73.932,238.376 74.16,237.603 C 74.59,236.15 74.437,234.306 74.88,232.563 C 75.005,232.074 75.478,231.665 75.6,231.124 C 76.649,226.475 76.934,220.486 79.2,217.444 C 78.233,216.743 78.093,215.1 78,213.843 C 77.911,212.642 78.241,211.367 78.24,210.003 C 78.237,205.991 77.412,201.776 78.24,198.963 C 76.217,195.467 73.011,193.152 71.04,189.603 C 71.18,189.009 71.909,187.771 71.28,187.204 C 67.529,193.449 61.638,197.558 56.64,202.56 z M 100.08,197.04 C 99.319,195.24 97.456,194.544 96.24,193.2 C 95.958,193.237 95.559,193.159 95.52,193.44 C 96.477,195.274 97.573,197.455 100.08,197.04 z M 100.56,236.4 C 101.252,235.01 99.967,235.769 100.56,236.4 L 100.56,236.4 z M 70.8,246 C 71.2,246 71.6,246 72,246 C 71.982,245.582 72.054,245.254 72.24,245.04 C 71.459,245.06 70.947,245.347 70.8,246 z M 74.88,279.12 C 74.38,280.198 73.348,280.812 73.2,281.52 C 73.042,282.275 73.897,283.018 73.2,283.679 C 74.862,282.941 76.143,281.822 77.28,280.559 C 75.776,279.291 76.991,276.703 76.32,274.799 C 75.383,275.85 75.631,277.497 74.88,279.12 z M 43.2,313.92 C 42.183,314.023 41.852,314.812 41.04,315.12 C 39.557,314.752 38.541,315.766 37.2,316.08 C 36.783,316.178 36.409,315.767 36,315.84 C 35.392,315.948 34.942,316.432 34.32,316.56 C 32.706,316.893 31.259,316.547 30,316.321 C 28.751,316.095 27.279,316.358 26.16,316.081 C 24.926,315.774 23.885,314.727 22.8,314.401 C 21.454,313.996 19.861,314.197 18.48,313.921 C 17.135,313.651 13.771,313.28 12.96,314.641 C 11.823,313.912 10.543,315.098 9.12,314.881 C 8.044,316.526 5.222,316.424 4.08,318.001 C 5.785,317.916 7.047,316.399 8.88,316.081 C 10.19,315.853 11.688,316.27 12.96,316.081 C 14.12,315.907 15.153,315.211 16.32,315.121 C 17.125,315.059 18.532,315.887 19.92,315.121 C 21.261,315.464 22.411,316.049 23.52,316.321 C 25.368,316.774 27.051,316.788 28.56,317.521 C 29.541,317.997 30.334,319.105 31.44,319.441 C 32.433,319.742 33.271,319.332 34.32,319.441 C 37.416,319.761 40.639,321.282 44.16,321.84 C 49.865,319.432 56.997,316.679 61.92,312.72 C 62.111,312.272 62.321,311.841 62.4,311.281 C 64.187,311.067 64.921,309.802 65.76,308.64 C 68.901,307.221 71.021,304.782 74.16,303.361 C 73.804,297.123 74.551,293.306 76.56,288.961 C 77.667,286.566 78.678,283.975 79.92,282.241 C 80.883,280.896 82.737,280.042 82.8,278.161 C 80.622,278.863 78.679,279.8 78,282.001 C 74.308,282.395 74.625,285.688 73.2,288.001 C 71.985,295.186 68.321,299.922 64.08,304.081 C 62.962,303.039 62.126,301.715 60.96,300.721 C 60.874,298.648 59.826,297.535 58.8,296.402 C 58.224,294.333 57.676,291.033 56.16,289.202 C 56.208,287.798 55.884,286.584 54.48,286.082 C 54.251,288.414 53.932,290.115 54.24,292.082 C 54.652,294.711 56.932,296.188 56.16,298.322 C 54.385,299.24 54.87,300.983 53.28,301.922 C 53.582,302.021 53.771,302.232 53.76,302.642 C 53.342,302.624 53.014,302.696 52.8,302.882 C 52.728,303.354 53.124,303.358 53.28,303.602 C 51.816,304.668 51.104,306.474 51.12,308.403 C 49.533,308.959 48.668,310.189 47.28,309.842 C 47.287,310.583 46.486,310.469 46.08,310.802 C 45.184,311.537 44.465,312.611 43.44,313.202 C 43.147,313.371 42.544,313.059 42.72,313.681 C 43.384,313.65 43.544,313.222 43.2,313.92 z M 59.52,282 C 60.092,284.197 59.496,287.008 61.2,288.24 C 61.987,286.462 63.05,284.891 62.64,282.96 C 62.266,281.199 59.239,279.303 58.08,278.4 C 58.277,279.598 59.152,280.588 59.52,282 z M 62.16,280.56 C 62.131,279.95 61.811,279.629 61.2,279.6 C 61.229,280.211 61.549,280.53 62.16,280.56 z M 107.04,288.48 C 104.041,289.895 101.491,292.884 101.761,296.16 C 102.564,296.957 103.13,297.99 104.16,298.559 C 105.734,295.494 106.306,291.425 107.761,288.24 C 107.734,287.947 107.689,287.672 107.281,287.76 C 107.267,288.066 106.972,288.093 107.04,288.48 z M 91.68,302.64 C 91.042,302.643 90.309,302.55 89.999,302.88 C 89.508,307.705 89.128,313.051 90.239,317.28 C 93.928,318.589 97.57,318.342 100.559,319.679 C 100.972,319.865 101.086,320.377 101.519,320.639 C 101.952,320.902 102.565,320.856 102.958,321.119 C 103.694,321.611 104.409,322.521 105.118,323.039 C 108.372,325.412 112.145,325.63 116.398,327.119 C 117.126,326.049 119.327,326.419 120.718,326.639 C 122.164,324.996 123.724,325.236 125.997,324.719 C 127.321,324.418 128.858,323.749 130.317,323.28 C 133.036,322.404 135.399,321.311 137.517,320.4 C 145.707,316.876 155.713,309.76 166.317,313.2 C 165.998,312.239 164.813,312.143 164.397,311.28 C 160.468,310.916 156.517,310.114 152.157,311.04 C 151.032,311.637 149.844,312.283 148.557,312.72 C 148.198,312.842 147.718,312.604 147.357,312.72 C 146.664,312.944 146.097,313.482 145.437,313.68 C 144.265,314.034 143.058,313.837 141.837,314.16 C 140.638,314.477 139.486,315.305 138.236,315.599 C 136.449,316.022 135.509,315.921 134.156,316.32 C 131.53,317.091 129.856,317.97 128.156,319.2 C 126.781,317.067 124.786,317.355 122.396,317.28 C 121.704,317.258 120.886,316.951 119.996,316.8 C 116.253,316.164 114.553,314.324 112.316,311.76 C 110.754,309.969 109.335,308.034 107.756,306 C 107.913,305.122 107.236,305.079 107.276,304.32 C 105.67,302.487 104.204,300.511 101.996,299.28 C 101.76,297.989 100.689,297.371 100.076,296.639 C 99.882,297.815 100.242,298.744 100.316,299.759 C 100.379,300.619 100.095,301.786 100.316,302.639 C 100.719,304.196 102.077,305.205 102.236,306.719 C 102.381,308.092 101.79,309.519 101.516,311.28 C 97.177,312.909 96.001,310.933 94.316,308.4 C 94.222,305.915 93.047,303.078 92.636,300 C 92.446,298.579 92.738,296.997 92.396,295.68 C 91.708,293.027 88.62,289.224 86.636,288.481 C 88.062,293.955 90.944,296.493 91.68,302.64 z "
   style="fill-rule:evenodd"
   id="path13" />
</g>
</svg>