<?xml version="1.0" encoding="UTF-8" standalone="no"?>
<!-- Created with Inkscape (http://www.inkscape.org/) -->
<svg
   xmlns:svg="http://www.w3.org/2000/svg"
   xmlns="http://www.w3.org/2000/svg"
   version="1.0"
   width="300"
   height="296"
   viewBox="0 0 245.295 251.91"
   id="Layer_1"
   xml:space="preserve"><defs
   id="defs308" />


<g
   id="g3">
	<path
   d="M 134.012,176.742 C 135.884,178.219 138.367,178.902 141.608,178.937 C 144.812,178.902 150.212,178.181 153.236,176.777 C 156.188,175.265 158.132,173.07 159.213,170.047 L 159.213,170.047 C 153.057,152.082 148.089,137.719 143.912,125.983 C 139.736,114.283 137.721,111.979 134.553,100.315 C 131.349,88.363 127.317,68.203 124.797,55.819 C 122.24,43.435 120.152,33.967 118.929,26.875 L 118.929,26.875 C 116.301,24.607 113.637,24.283 111.081,25.363 C 108.453,26.515 105.933,29.251 103.377,33.715 L 103.377,33.715 C 106.905,51.751 110.577,69.895 114.789,88.831 C 119.037,107.911 124.869,131.563 128.253,146.575 C 131.455,161.299 133.327,171.162 134.012,176.742 L 134.012,176.742 z "
   style="fill-rule:evenodd;stroke:#000000;stroke-width:0.036;stroke-miterlimit:10"
   id="path5" />
	<path
   d="M 157.231,169.182 C 149.779,149.707 143.299,130.59 137.647,111.258 C 131.887,91.819 126.883,67.339 123.463,53.658 C 120.114,40.014 118.099,32.202 117.559,29.826 L 117.559,29.826 C 115.291,32.094 113.095,33.606 111.115,34.218 C 109.135,34.83 107.227,34.686 105.535,33.642 L 105.535,33.642 C 108.271,52.47 111.691,71.19 115.939,90.378 C 120.223,109.53 127.063,133.578 130.627,148.086 C 133.975,162.486 135.774,171.559 136.026,176.131 L 136.026,176.131 C 141.102,177.643 145.242,177.822 148.842,176.67 C 152.336,175.445 155.18,172.998 157.231,169.182 L 157.231,169.182 z "
   style="fill:#a16121;fill-rule:evenodd;stroke:#000000;stroke-width:0.036;stroke-miterlimit:10"
   id="path7" />
	<path
   d="M 108.667,28.602 C 107.443,29.502 106.255,30.906 106.363,31.842 C 106.579,32.634 107.875,33.894 109.711,33.678 C 111.403,33.282 115.507,31.158 116.587,29.934 C 117.595,28.566 116.371,27.198 115.831,26.514 C 115.075,25.902 114.067,25.938 112.807,26.334 C 111.476,26.586 109.819,27.667 108.667,28.602 L 108.667,28.602 z "
   style="fill:#a16121;fill-rule:evenodd;stroke:#000000;stroke-width:0.036;stroke-miterlimit:10"
   id="path9" />
	<path
   d="M 109.459,30.438 C 109.351,30.438 110.575,31.626 111.583,31.518 C 112.519,31.338 114.967,30.438 115.579,29.79 C 116.011,29.07 115.183,27.486 115.039,27.522 C 114.895,27.486 115.111,29.106 114.715,29.754 C 114.103,30.33 112.483,30.798 111.655,31.014 C 110.755,31.086 109.423,30.294 109.459,30.438 L 109.459,30.438 z "
   style="fill-rule:evenodd;stroke:#000000;stroke-width:0.036;stroke-miterlimit:10"
   id="path11" />
	<path
   d="M 109.892,29.61 C 110.108,29.178 111.188,27.99 111.872,27.846 C 112.412,27.63 113.672,28.566 113.708,28.71 C 113.636,28.854 112.484,28.242 111.908,28.53 C 111.332,28.746 110.648,29.574 110.396,29.898 C 110,30.042 109.604,29.898 109.892,29.61 L 109.892,29.61 z "
   style="fill-rule:evenodd;stroke:#000000;stroke-width:0.036;stroke-miterlimit:10"
   id="path13" />
	<path
   d="M 148.016,164.791 C 148.304,165.078 139.88,138.258 136.495,126.666 C 132.968,115.002 128.432,96.282 127.891,95.778 C 127.458,95.274 130.483,112.265 133.903,123.858 C 137.252,135.414 147.512,164.143 148.016,164.791 L 148.016,164.791 z "
   style="fill-rule:evenodd;stroke:#000000;stroke-width:0.036;stroke-miterlimit:10"
   id="path15" />
	<path
   d="M 131.959,138.078 C 132.392,137.826 125.695,108.666 124.075,98.37 C 122.383,87.966 121.951,76.554 121.663,76.626 C 121.159,76.842 119.755,88.434 121.483,98.91 C 123.212,109.206 131.42,138.006 131.959,138.078 L 131.959,138.078 z "
   style="fill-rule:evenodd;stroke:#000000;stroke-width:0.036;stroke-miterlimit:10"
   id="path17" />
	<path
   d="M 119.071,51.03 C 118.387,54.09 115.651,69.894 115.579,71.082 C 115.291,72.09 117.595,60.894 118.207,57.762 C 118.819,54.702 119.251,53.694 119.503,52.65 C 119.611,51.498 119.611,47.862 119.071,51.03 L 119.071,51.03 z "
   style="fill-rule:evenodd;stroke:#000000;stroke-width:0.036;stroke-miterlimit:10"
   id="path19" />
	<path
   d="M 59.204,187.83 C 59.96,190.135 61.652,192.078 64.424,193.807 C 67.196,195.498 72.056,197.623 75.512,197.946 C 78.86,198.128 81.704,197.227 84.332,195.102 L 84.332,195.102 C 88.976,175.914 92.54,160.291 95.564,147.69 C 98.444,134.946 97.976,132.102 101.792,119.863 C 105.572,107.551 113.348,87.463 118.028,75.007 C 122.564,62.587 126.164,53.083 128.972,46.063 L 128.972,46.063 C 127.82,42.751 126.02,40.879 123.14,40.591 C 120.26,40.195 116.588,41.383 111.98,44.011 L 111.98,44.011 C 105.032,62.011 98.192,80.047 91.316,99.235 C 84.368,118.387 76.268,142.831 70.904,157.842 C 65.54,172.746 61.688,182.467 59.204,187.83 L 59.204,187.83 z "
   style="fill-rule:evenodd;stroke:#000000;stroke-width:0.036;stroke-miterlimit:10"
   id="path21" />
	<path
   d="M 83.107,193.266 C 87.463,171.811 92.503,151.651 98.371,131.274 C 104.167,110.863 113.383,86.419 118.099,72.379 C 122.707,58.375 125.407,50.419 126.199,47.971 L 126.199,47.971 C 122.959,48.763 120.367,48.943 118.279,48.511 C 116.191,47.971 114.715,46.819 113.851,45.055 L 113.851,45.055 C 105.751,63.379 98.407,81.775 91.423,101.215 C 84.331,120.583 77.203,145.712 72.127,160.471 C 67.015,175.014 63.523,184.159 61.255,188.334 L 61.255,188.334 C 64.639,192.33 68.167,194.635 71.839,195.535 C 75.476,196.326 79.184,195.57 83.107,193.266 L 83.107,193.266 z "
   style="fill:#a16121;fill-rule:evenodd;stroke:#000000;stroke-width:0.036;stroke-miterlimit:10"
   id="path23" />
	<path
   d="M 119.323,42.21 C 117.847,42.426 115.903,43.038 115.579,43.902 C 115.255,44.802 115.687,46.53 117.415,47.286 C 119.035,47.79 123.607,48.114 125.299,47.574 C 126.667,47.034 126.811,44.91 126.559,44.118 C 126.307,43.254 125.299,42.678 124.111,42.39 C 122.888,42.03 120.691,41.922 119.323,42.21 L 119.323,42.21 z "
   style="fill:#a16121;fill-rule:evenodd;stroke:#000000;stroke-width:0.036;stroke-miterlimit:10"
   id="path25" />
	<path
   d="M 118.963,44.262 C 118.855,44.298 119.215,45.882 120.187,46.386 C 121.087,46.818 123.607,47.142 124.542,46.926 C 125.263,46.458 125.479,44.766 125.335,44.622 C 125.118,44.442 124.614,46.206 123.822,46.458 C 123.03,46.638 121.23,46.278 120.51,45.954 C 119.54,45.486 119.071,44.226 118.963,44.262 L 118.963,44.262 z "
   style="fill-rule:evenodd;stroke:#000000;stroke-width:0.036;stroke-miterlimit:10"
   id="path27" />
	<path
   d="M 119.792,43.758 C 120.188,43.47 121.772,43.074 122.456,43.254 C 123.104,43.434 123.464,44.802 123.536,44.982 C 123.32,44.982 122.708,44.01 122.097,43.866 C 121.449,43.65 120.405,44.298 120.081,44.298 C 119.576,44.154 119.432,43.974 119.792,43.758 L 119.792,43.758 z "
   style="fill-rule:evenodd;stroke:#000000;stroke-width:0.036;stroke-miterlimit:10"
   id="path29" />
	<path
   d="M 77.671,184.518 C 77.887,184.952 85.195,156.582 88.903,144.414 C 92.431,132.174 98.587,113.059 98.623,112.338 C 98.443,111.762 91.747,128.287 88.255,140.526 C 84.655,152.693 77.563,183.654 77.671,184.518 L 77.671,184.518 z "
   style="fill-rule:evenodd;stroke:#000000;stroke-width:0.036;stroke-miterlimit:10"
   id="path31" />
	<path
   d="M 78.751,152.227 C 79.255,152.12 89.551,122.85 93.943,112.627 C 98.047,102.439 104.275,92.178 103.879,91.962 C 103.447,91.782 95.563,101.61 91.459,111.726 C 87.104,121.842 78.428,151.867 78.751,152.227 L 78.751,152.227 z "
   style="fill-rule:evenodd;stroke:#000000;stroke-width:0.036;stroke-miterlimit:10"
   id="path33" />
	<path
   d="M 115.795,67.698 C 113.455,70.002 102.475,82.818 101.755,83.79 C 101.035,84.582 108.991,75.762 111.331,73.314 C 113.491,70.794 114.535,70.362 115.291,69.39 C 115.976,68.274 117.991,65.394 115.795,67.698 L 115.795,67.698 z "
   style="fill-rule:evenodd;stroke:#000000;stroke-width:0.036;stroke-miterlimit:10"
   id="path35" />
	<path
   d="M 237.079,185.994 C 229.052,178.83 221.6,172.529 214.147,166.662 C 206.659,160.65 199.711,154.639 192.763,151.146 C 185.706,147.689 178.219,147.294 172.927,146.357 C 167.671,145.349 164.538,147.509 161.587,145.349 C 158.563,143.046 154.566,135.234 155.143,133.181 C 155.611,131.202 163.711,135.451 164.719,133.433 C 165.618,131.31 167.851,128.861 160.866,120.69 C 153.631,112.337 137.322,99.702 122.49,84.15 C 107.622,68.454 91.458,50.166 72.882,27.918 L 72.882,27.918 C 73.818,25.398 74.034,22.878 73.674,20.07 C 73.242,17.262 69.318,11.43 70.506,11.178 C 71.658,10.89 76.194,15.822 80.514,18.342 C 84.69,20.718 87.678,17.622 95.742,25.578 C 103.734,33.57 113.454,49.986 128.25,65.538 C 143.081,80.982 166.121,102.042 183.617,117.486 C 200.97,132.822 221.489,147.761 231.714,156.871 C 241.794,165.762 245.754,170.371 243.882,170.838 L 243.882,170.838 C 245.502,175.231 245.682,178.578 244.566,181.17 C 243.415,183.727 240.968,185.238 237.079,185.994 L 237.079,185.994 z "
   style="fill-rule:evenodd;stroke:#000000;stroke-width:0.036;stroke-miterlimit:10"
   id="path37" />
	<path
   d="M 236.827,183.258 C 233.947,179.442 229.628,175.194 223.723,170.227 C 217.746,165.223 208.423,157.7 201.439,153.631 C 194.347,149.563 188.047,147.113 181.855,145.746 C 175.591,144.269 169.867,143.945 164.287,144.773 L 164.287,144.773 C 164.611,143.55 164.611,142.039 163.999,140.634 C 163.459,139.193 162.308,137.466 160.831,135.845 L 160.831,135.845 C 162.415,135.017 164.756,134.837 167.563,134.909 C 170.443,135.089 177.535,136.997 177.859,136.6 C 177.895,135.989 169.435,133.469 168.427,131.957 C 167.419,130.443 174.366,130.84 171.775,127.312 C 168.823,123.568 161.336,118.671 152.083,109.996 C 142.867,101.212 129.979,89.08 117.164,75.4 C 104.24,61.612 90.596,46.132 75.404,28.132 L 75.404,28.132 C 77.6,28.636 79.688,28.42 81.38,27.484 C 83.036,26.404 84.584,24.784 85.736,22.228 L 85.736,22.228 C 87.932,21.976 91.028,24.028 95.312,28.672 C 99.632,33.244 105.248,42.496 111.044,49.624 C 116.732,56.716 118.46,60.208 129.152,70.936 C 139.808,81.664 160.616,100.816 174.512,113.272 C 188.228,125.511 200.216,134.943 211.304,144.339 C 222.392,153.663 231.86,161.835 240.392,169.144 L 240.392,169.144 C 240.32,171.556 240.392,173.464 241.004,174.869 C 241.436,176.164 244.172,175.877 243.524,177.316 C 242.731,178.686 240.644,180.666 236.827,183.258 L 236.827,183.258 z "
   style="fill:#a16121;fill-rule:evenodd;stroke:#000000;stroke-width:0.036;stroke-miterlimit:10"
   id="path39" />
	<path
   d="M 157.808,137.609 C 157.988,138.798 159.572,141.787 160.472,142.685 C 161.3,143.513 162.56,143.371 162.848,142.794 C 162.955,142.038 162.415,139.913 161.768,138.653 C 161.156,137.356 159.788,135.268 159.212,135.161 C 158.384,134.945 157.592,136.277 157.808,137.609 L 157.808,137.609 z "
   style="fill:#a16121;fill-rule:evenodd;stroke:#000000;stroke-width:0.036;stroke-miterlimit:10"
   id="path41" />
	<path
   d="M 208.1,151.109 C 203.816,147.654 197.984,141.857 192.548,136.925 C 186.896,131.886 176.024,122.562 175.34,121.589 C 174.655,120.726 181.676,125.081 188.768,131.165 C 195.824,137.177 214.328,153.52 217.64,157.013 C 220.771,160.219 212.275,154.459 208.1,151.109 L 208.1,151.109 z "
   style="fill-rule:evenodd;stroke:#000000;stroke-width:0.036;stroke-miterlimit:10"
   id="path43" />
	<path
   d="M 157.987,104.382 C 157.088,103.122 139.483,84.762 133.363,79.578 C 127.279,74.43 121.015,72.63 121.771,73.782 C 122.491,74.826 131.239,80.874 137.467,86.094 C 143.479,91.206 158.563,105.354 157.987,104.382 L 157.987,104.382 z "
   style="fill-rule:evenodd;stroke:#000000;stroke-width:0.036;stroke-miterlimit:10"
   id="path45" />
	<path
   d="M 184.699,141.102 C 187.363,142.327 194.887,147.368 195.067,147.762 C 195.031,147.942 188.983,144.522 184.843,143.19 C 180.523,141.788 170.983,140.491 169.975,139.987 C 169.003,139.376 176.599,139.987 179.155,140.167 C 181.64,140.203 181.964,139.914 184.699,141.102 L 184.699,141.102 z "
   style="fill-rule:evenodd;stroke:#000000;stroke-width:0.036;stroke-miterlimit:10"
   id="path47" />
	<path
   d="M 107.983,50.886 C 107.659,50.022 102.691,41.742 100.423,39.078 C 98.047,36.378 93.871,33.93 94.123,34.794 C 94.339,35.586 99.343,40.914 101.755,43.686 C 103.987,46.458 108.199,51.498 107.983,50.886 L 107.983,50.886 z "
   style="fill-rule:evenodd;stroke:#000000;stroke-width:0.036;stroke-miterlimit:10"
   id="path49" />
	<path
   d="M 76.087,26.802 C 75.223,26.082 76.303,23.418 76.015,21.582 C 75.655,19.638 73.855,16.182 74.359,15.93 C 74.791,15.75 77.203,19.674 78.823,20.61 C 80.479,21.474 83.359,20.466 83.863,21.33 C 84.151,22.194 81.955,24.354 80.731,25.434 C 79.363,26.37 76.843,27.342 76.087,26.802 L 76.087,26.802 z "
   style="fill:#a16121;fill-rule:evenodd;stroke:#000000;stroke-width:0.036;stroke-miterlimit:10"
   id="path51" />
	<path
   d="M 71.66,210.33 L 62.12,209.035 L 62.12,209.035 C 57.44,201.654 53.804,195.139 51.068,189.199 C 48.332,183.258 46.496,178.039 45.704,173.539 L 45.704,173.539 C 42.104,175.662 39.044,177.643 36.128,179.478 C 33.248,181.314 30.62,182.898 28.388,184.374 L 28.388,184.374 L 23.168,181.313 L 23.168,181.313 C 27.056,177.965 30.764,175.084 34.436,172.672 C 38.036,170.188 41.456,168.172 44.84,166.625 L 44.84,166.625 C 43.652,161.549 42.968,157.229 42.932,153.268 C 42.824,149.309 43.364,146.104 44.408,143.26 L 44.408,143.26 L 52.616,139.768 L 52.616,139.768 C 50.564,144.305 49.556,148.444 49.592,152.332 C 49.556,156.148 50.564,159.568 52.616,162.736 L 52.616,162.736 C 55.316,161.117 58.052,159.713 60.824,158.381 C 63.56,157.049 66.26,155.897 69.068,154.924 L 69.068,154.924 C 66.008,151.037 64.46,147.436 64.28,143.981 C 64.1,140.489 65.288,137.249 67.988,134.26 L 67.988,134.26 L 73.388,134.08 L 73.388,134.08 C 70.508,138.435 69.284,141.965 69.716,144.953 C 70.148,147.832 72.02,150.027 75.728,151.541 L 75.728,151.541 L 85.052,148.443 L 85.052,148.443 C 82.784,144.556 80.912,141.496 79.436,139.121 C 77.888,136.672 76.88,135.088 76.124,134.08 L 76.124,134.08 L 80.768,129.4 L 80.768,129.4 C 83.288,133.179 85.232,136.023 86.6,138.328 C 87.896,140.56 88.724,142 88.94,142.793 L 88.94,142.793 L 98.444,134.08 L 98.444,134.08 C 95.708,133.865 93.512,133.684 91.46,133.684 C 89.372,133.612 87.824,133.721 86.42,133.866 L 86.42,133.866 C 85.556,132.497 85.7,131.454 86.996,130.589 C 88.22,129.653 94.34,129.15 93.98,128.646 C 93.404,128.105 84.188,128.035 84.26,127.458 C 84.368,126.81 90.668,124.613 94.556,124.757 C 98.408,124.865 102.368,125.765 106.976,127.853 L 106.976,127.853 C 103.232,124.866 100.064,121.841 97.472,118.925 C 94.664,115.902 90.776,111.005 91.244,110.214 C 91.748,109.386 97.436,112.085 100.964,114.281 C 104.492,116.333 108.2,119.177 112.232,122.813 L 112.232,122.813 C 114.752,121.193 116.984,120.004 119.216,119.105 C 121.412,118.205 123.32,117.737 125.228,117.557 L 125.228,117.557 L 125.408,122.813 L 116.876,127.458 L 116.876,127.458 C 119.828,129.042 122.816,130.985 125.984,133.29 C 129.08,135.52 132.213,138.112 135.524,141.065 L 135.524,141.065 L 139.016,136.782 L 139.016,136.782 C 137.504,134.44 136.532,132.641 135.703,130.95 C 134.84,129.294 134.515,127.889 134.336,126.882 L 134.336,126.882 L 139.592,124.757 L 142.112,133.866 L 142.112,133.866 C 142.58,133.47 142.868,132.569 143.264,131.561 C 143.516,130.373 143.875,129.077 144.056,127.276 L 144.056,127.276 L 146.972,135.413 L 146.972,135.413 C 146.756,136.349 146.539,137.286 146.18,137.933 C 145.82,138.654 145.316,139.085 144.812,139.517 L 144.812,139.517 C 145.172,140.994 145.748,142.181 146.396,143.371 C 147.043,144.486 147.764,145.459 148.7,146.287 L 148.7,146.287 C 148.484,146.898 149.133,146.574 150.248,145.314 C 151.328,143.945 153.272,141.822 155.685,138.546 L 155.685,138.546 L 156.873,144.558 L 156.873,144.558 C 155.793,145.673 154.821,146.97 153.561,148.445 C 152.337,149.922 151.04,151.433 149.673,153.269 L 149.673,153.269 C 150.609,155.07 151.725,156.582 153.164,157.951 C 154.532,159.283 156.152,160.326 158.024,161.226 L 158.024,161.226 C 158.996,160.542 160.004,159.894 161.337,159.283 C 162.633,158.562 164,158.058 165.584,157.375 L 165.584,157.375 L 166.772,163.963 L 162.092,167.455 L 162.884,169.182 L 160.148,174.834 L 160.148,174.834 C 160.616,176.418 161.588,177.715 163.064,178.723 C 164.504,179.659 166.448,180.307 168.896,180.666 L 168.896,180.666 L 165.008,184.158 L 169.291,185.707 L 169.291,185.707 C 169.615,187.975 169.22,190.025 168.103,191.719 C 166.951,193.446 165.079,194.815 162.487,195.967 L 162.487,195.967 C 163.747,197.875 164.971,199.35 166.159,200.25 C 167.347,201.113 168.355,201.547 169.472,201.402 L 169.472,201.402 C 168.644,202.914 167.276,203.742 165.224,203.742 C 163.207,203.742 160.508,202.914 157.268,201.402 L 157.268,201.402 L 156.476,207.631 L 156.476,207.631 C 157.772,211.951 158.996,215.334 160.543,217.926 C 162.02,220.518 163.531,222.067 165.224,222.967 L 165.224,222.967 L 159.392,228.403 L 159.392,228.403 C 157.736,226.53 156.331,224.335 155.324,221.419 C 154.244,218.503 153.416,215.12 152.984,211.124 L 152.984,211.124 C 150.644,212.274 148.268,212.491 146,211.915 C 143.589,211.304 141.5,209.755 139.196,207.415 L 139.196,207.415 C 142.184,207.595 144.921,207.2 147.549,206.083 C 150.141,204.895 152.481,203.132 154.713,200.647 L 154.713,200.647 C 152.805,198.379 151.257,196.434 150.068,194.418 C 148.808,192.402 147.908,190.529 147.368,188.803 L 147.368,188.803 L 145.425,194.815 L 140.96,191.719 L 140.96,191.719 C 140.996,189.379 141.248,187.182 141.32,185.131 C 141.5,182.971 141.5,180.955 141.716,179.082 L 141.716,179.082 C 138.548,178.613 136.028,178.398 133.76,178.723 C 131.491,178.975 129.728,179.623 128.323,180.666 L 128.323,180.666 C 127.639,184.158 127.712,187.109 128.143,189.379 C 128.683,191.647 129.583,193.375 131.239,194.418 L 131.239,194.418 L 124.435,196.578 L 124.435,196.578 C 122.095,193.014 120.403,189.631 119.215,186.283 C 117.991,182.861 117.343,179.658 117.271,176.383 L 117.271,176.383 C 117.379,177.391 116.515,178.686 114.535,180.27 C 112.519,181.854 109.639,183.62 105.607,185.708 L 105.607,185.708 C 106.327,188.624 106.111,191.647 105.247,194.636 C 104.239,197.659 102.583,200.648 99.991,203.743 L 99.991,203.743 C 100.243,198.235 100.243,194.132 99.991,191.143 C 99.667,188.19 99.199,186.391 98.443,185.887 L 98.443,185.887 L 92.431,188.983 L 92.431,188.983 C 91.603,192.403 90.667,195.139 89.335,197.335 C 87.967,199.53 86.455,201.044 84.655,202.015 L 84.655,202.015 L 83.683,193.267 L 83.683,193.267 C 82.891,195.896 81.811,197.912 80.587,199.46 C 79.291,200.935 77.851,201.8 76.123,202.194 L 76.123,202.194 C 77.239,197.299 77.563,192.69 77.095,188.227 C 76.591,183.762 75.295,179.442 73.207,175.411 L 73.207,175.411 C 71.515,177.536 70.147,179.552 68.563,181.999 C 67.015,184.339 65.575,186.751 64.099,189.38 L 64.099,189.38 L 61.183,182.396 L 61.183,182.396 C 62.947,178.832 64.963,175.447 67.375,172.099 C 69.679,168.679 72.379,165.476 75.331,162.201 L 75.331,162.201 C 71.407,162.957 67.807,163.82 64.099,165.332 C 60.355,166.736 56.935,168.428 53.407,170.553 L 53.407,170.553 C 55.351,176.709 57.871,183.116 60.967,189.776 C 64.063,196.506 67.483,203.131 71.66,210.33 L 71.66,210.33 z "
   style="fill-rule:evenodd;stroke:#000000;stroke-width:0.036;stroke-miterlimit:10"
   id="path53" />
	<path
   d="M 45.056,144.162 L 49.736,142.615 L 49.736,142.613 C 48.116,145.746 47.396,149.525 47.972,154.638 C 48.548,159.714 50.528,165.941 52.652,172.493 C 54.596,178.901 57.26,187.108 59.816,193.085 C 62.3,198.989 65,203.849 67.772,207.81 L 67.772,207.81 L 62.732,207.234 L 62.732,207.234 C 58.196,200.142 54.848,193.806 52.256,187.83 C 49.7,181.711 48.548,176.598 47.396,171.521 C 45.992,166.482 45.092,162.017 44.696,157.554 C 44.299,152.945 44.372,148.482 45.056,144.162 L 45.056,144.162 z "
   style="fill:#a18f7b;fill-rule:evenodd;stroke:#000000;stroke-width:0.036;stroke-miterlimit:10"
   id="path55" />
	<path
   d="M 53.012,163.17 C 57.332,161.19 62.192,159.318 68.168,157.158 C 74.036,154.998 81.992,152.478 88.148,150.57 C 94.268,148.662 99.524,147.043 104.456,145.711 L 104.456,145.711 L 101.936,152.299 L 101.936,152.299 C 95.168,153.451 87.788,155.287 79.796,157.951 C 71.696,160.578 63.164,163.89 53.804,168.029 L 53.804,168.029 C 53.551,166.41 53.299,164.791 53.012,163.17 L 53.012,163.17 z "
   style="fill:#a18f7b;fill-rule:evenodd;stroke:#000000;stroke-width:0.036;stroke-miterlimit:10"
   id="path57" />
	<path
   d="M 26.443,180.451 C 31.231,177.029 34.975,174.367 38.071,172.314 C 41.095,170.298 43.183,168.894 44.479,168.246 L 44.479,168.246 L 44.479,172.494 L 44.479,172.494 C 39.907,175.338 36.235,177.605 33.607,179.299 C 30.871,180.918 29.179,182.106 28.387,182.574 L 28.387,182.574 C 27.739,181.891 27.091,181.17 26.443,180.451 L 26.443,180.451 z "
   style="fill:#a18f7b;fill-rule:evenodd;stroke:#000000;stroke-width:0.036;stroke-miterlimit:10"
   id="path59" />
	<path
   d="M 68.563,135.234 L 71.263,135.234 L 71.263,135.234 C 69.391,137.105 68.311,139.123 68.167,141.425 C 67.987,143.693 68.959,146.933 70.111,148.806 C 71.083,150.535 72.487,151.829 74.179,152.298 L 74.179,152.298 L 70.291,153.665 L 70.291,153.665 C 67.915,150.749 66.367,148.229 65.647,146.104 C 64.927,143.836 65.215,142.684 65.827,140.848 C 66.224,139.014 67.268,137.143 68.563,135.234 L 68.563,135.234 z "
   style="fill:#a18f7b;fill-rule:evenodd;stroke:#000000;stroke-width:0.036;stroke-miterlimit:10"
   id="path61" />
	<path
   d="M 77.852,134.838 C 79.904,137.322 81.56,139.518 83.108,141.822 C 84.584,144.054 85.808,146.142 86.78,148.23 L 86.78,148.23 L 89.696,146.861 L 89.696,146.861 C 88.004,143.261 86.348,140.273 84.872,137.754 C 83.36,135.234 81.884,133.182 80.588,131.742 L 80.588,131.742 C 79.688,132.75 78.788,133.795 77.852,134.838 L 77.852,134.838 z "
   style="fill:#a18f7b;fill-rule:evenodd;stroke:#000000;stroke-width:0.036;stroke-miterlimit:10"
   id="path63" />
	<path
   d="M 91.459,142.219 C 93.979,139.483 96.931,136.963 100.171,134.262 C 103.411,131.418 107.083,128.899 111.043,126.307 C 114.895,123.75 119.035,121.518 123.463,119.323 L 123.463,119.323 L 124.074,122.815 L 124.074,122.815 C 120.511,123.823 117.054,125.407 113.562,127.854 C 109.998,130.194 106.002,134.047 103.086,137.178 C 100.098,140.239 97.758,143.227 95.922,146.287 L 95.922,146.287 L 92.034,145.926 L 92.034,145.926 C 91.855,144.703 91.675,143.479 91.459,142.219 L 91.459,142.219 z "
   style="fill:#a18f7b;fill-rule:evenodd;stroke:#000000;stroke-width:0.036;stroke-miterlimit:10"
   id="path65" />
	<path
   d="M 103.879,127.459 C 102.007,126.486 99.883,125.91 97.651,125.73 C 95.239,125.478 90.667,125.945 90.307,126.306 C 89.983,126.593 94.735,126.917 95.527,127.673 C 96.139,128.394 94.915,129.761 94.375,130.374 C 93.835,130.806 93.007,130.374 92.035,130.589 C 90.739,130.698 88.327,130.95 87.571,131.345 C 86.815,131.669 86.923,132.066 87.751,132.534 L 87.751,132.534 L 98.839,132.893 L 98.839,132.893 C 100.171,131.741 101.215,130.661 102.115,129.797 C 102.943,128.898 103.483,128.07 103.879,127.459 L 103.879,127.459 z "
   style="fill:#a18f7b;fill-rule:evenodd;stroke:#000000;stroke-width:0.036;stroke-miterlimit:10"
   id="path67" />
	<path
   d="M 111.655,122.814 L 107.371,126.127 L 107.371,126.127 C 99.451,118.891 95.239,114.534 94.159,112.914 C 93.151,111.295 98.335,114.678 101.359,116.406 C 104.275,117.99 107.66,120.223 111.655,122.814 L 111.655,122.814 z "
   style="fill:#a18f7b;fill-rule:evenodd;stroke:#000000;stroke-width:0.036;stroke-miterlimit:10"
   id="path69" />
	
		<polygon
   points="135.884,128.25 139.592,136.207 141.319,134.441 139.195,126.883 135.884,128.25 "
   style="fill:#a18f7b;fill-rule:evenodd;stroke:#000000;stroke-width:0.036;stroke-miterlimit:10"
   id="polygon71" />
	<path
   d="M 144.235,132.535 C 143.515,134.119 142.615,135.666 141.535,137.178 C 140.42,138.69 139.771,139.555 137.647,141.426 C 135.199,143.227 131.239,146.143 128.143,147.655 C 125.119,148.987 122.383,149.743 119.791,149.778 L 119.791,149.778 L 120.763,152.911 L 120.763,152.911 C 124.471,152.12 127.783,151.075 130.843,149.778 C 133.795,148.411 136.171,147.258 138.799,144.956 C 141.355,142.651 143.767,139.556 146.179,135.811 L 146.179,135.811 C 145.531,134.73 144.884,133.65 144.235,132.535 L 144.235,132.535 z "
   style="fill:#a18f7b;fill-rule:evenodd;stroke:#000000;stroke-width:0.036;stroke-miterlimit:10"
   id="path73" />
	<path
   d="M 154.928,142.039 C 153.596,143.189 151.724,144.883 148.915,147.654 C 146.035,150.353 141.428,155.357 138.439,157.951 C 135.415,160.361 133.003,161.73 131.059,162.199 L 131.059,162.199 L 131.059,164.539 L 131.059,164.539 C 136.315,162.99 140.419,160.937 143.659,158.525 C 146.791,155.97 148.088,152.082 150.067,149.777 C 151.975,147.474 153.883,145.746 155.504,144.738 L 155.504,144.738 C 155.323,143.838 155.144,142.938 154.928,142.039 L 154.928,142.039 z "
   style="fill:#a18f7b;fill-rule:evenodd;stroke:#000000;stroke-width:0.036;stroke-miterlimit:10"
   id="path75" />
	<path
   d="M 143.264,143.01 L 145.028,148.807 L 142.508,152.694 L 142.508,152.694 C 141.823,151.723 141.464,150.464 141.14,149.204 C 140.78,147.907 140.744,146.323 140.744,144.739 L 140.744,144.739 C 141.571,144.162 142.399,143.586 143.264,143.01 L 143.264,143.01 z "
   style="fill:#a18f7b;fill-rule:evenodd;stroke:#000000;stroke-width:0.036;stroke-miterlimit:10"
   id="path77" />
	<path
   d="M 148.304,155.609 C 149.06,156.689 150.104,157.986 151.436,159.101 C 152.768,160.181 154.388,161.478 156.296,162.593 L 156.296,162.593 L 152.012,166.302 L 152.012,166.302 C 149.852,164.573 148.448,163.134 147.367,161.837 C 146.323,160.542 145.747,159.39 145.783,158.524 L 145.783,158.524 C 146.611,157.555 147.439,156.582 148.304,155.609 L 148.304,155.609 z "
   style="fill:#a18f7b;fill-rule:evenodd;stroke:#000000;stroke-width:0.036;stroke-miterlimit:10"
   id="path79" />
	<path
   d="M 164.611,159.678 C 162.415,160.795 160.219,162.307 157.628,164.358 C 154.928,166.411 151.724,169.254 149.275,171.919 C 146.791,174.296 144.631,176.239 143.479,179.3 C 142.327,182.359 142.003,185.995 142.507,190.351 L 142.507,190.351 L 144.235,192.296 L 144.235,192.296 C 145.135,189.308 146.431,186.319 148.123,183.187 C 149.815,179.984 152.264,176.095 154.352,173.468 C 156.296,170.804 158.492,169.075 160.364,167.456 C 162.236,165.69 163.928,164.468 165.584,163.388 L 165.584,163.388 C 165.26,162.162 164.936,160.938 164.611,159.678 L 164.611,159.678 z "
   style="fill:#a18f7b;fill-rule:evenodd;stroke:#000000;stroke-width:0.036;stroke-miterlimit:10"
   id="path81" />
	<path
   d="M 156.871,174.043 C 156.979,175.266 157.771,176.455 159.392,177.75 C 160.976,178.975 163.136,180.307 166.16,181.602 L 166.16,181.602 L 162.308,185.491 L 162.308,185.491 C 160.328,184.159 158.707,182.755 157.448,181.423 C 156.116,180.019 155.144,178.544 154.532,177.14 L 154.532,177.14 C 155.287,176.131 156.079,175.086 156.871,174.043 L 156.871,174.043 z "
   style="fill:#a18f7b;fill-rule:evenodd;stroke:#000000;stroke-width:0.036;stroke-miterlimit:10"
   id="path83" />
	<path
   d="M 151.615,181.422 C 152.371,185.238 153.811,188.623 156.079,192.113 C 158.275,195.535 161.191,198.521 164.827,201.619 L 164.827,201.619 C 162.163,201.474 160.039,200.826 158.023,199.674 C 156.115,198.414 154.387,196.686 152.983,194.635 C 151.435,192.582 149.959,190.135 148.699,187.434 L 148.699,187.434 C 149.095,185.563 149.599,184.194 150.067,183.186 C 150.571,182.143 151.039,181.602 151.615,181.422 L 151.615,181.422 z "
   style="fill:#a18f7b;fill-rule:evenodd;stroke:#000000;stroke-width:0.036;stroke-miterlimit:10"
   id="path85" />
	<path
   d="M 103.483,141.643 C 105.535,138.907 107.623,136.459 109.891,134.442 C 112.087,132.426 114.355,130.7 116.695,129.403 L 116.695,129.403 L 120.187,131.563 L 120.187,131.563 C 117.271,133.938 114.427,135.811 111.655,137.575 C 108.812,139.303 106.184,140.525 103.483,141.643 L 103.483,141.643 z "
   style="fill:#a18f7b;fill-rule:evenodd;stroke:#000000;stroke-width:0.036;stroke-miterlimit:10"
   id="path87" />
	<path
   d="M 112.231,138.727 C 111.115,139.411 109.747,141.03 108.127,143.586 C 106.507,146.142 104.635,149.525 102.511,153.883 L 102.511,153.883 L 98.839,154.459 L 100.387,157.375 L 100.387,157.375 C 102.511,156.078 104.851,153.99 107.947,150.967 C 110.935,147.871 114.319,144.018 118.243,139.123 L 118.243,139.123 C 116.264,139.014 114.248,138.871 112.231,138.727 L 112.231,138.727 z "
   style="fill:#a18f7b;fill-rule:evenodd;stroke:#000000;stroke-width:0.036;stroke-miterlimit:10"
   id="path89" />
	<path
   d="M 115.328,137.178 C 117.2,136.963 119.54,137.106 122.492,137.754 C 125.408,138.402 128.684,139.303 132.608,140.85 L 132.608,140.85 C 130.268,138.727 128,137.178 125.804,136.207 C 123.535,135.127 121.34,134.803 119.216,134.838 L 119.216,134.838 C 117.919,135.594 116.624,136.387 115.328,137.178 L 115.328,137.178 z "
   style="fill:#a18f7b;fill-rule:evenodd;stroke:#000000;stroke-width:0.036;stroke-miterlimit:10"
   id="path91" />
	<path
   d="M 165.008,185.887 C 164.36,187.578 163.424,188.875 162.487,190.17 C 161.515,191.322 160.256,192.295 158.995,193.086 L 158.995,193.086 L 160.544,194.815 L 160.543,194.815 C 163.531,193.59 165.655,192.295 166.772,190.926 C 167.924,189.451 168.068,187.903 167.348,186.283 L 167.348,186.283 C 166.592,186.174 165.8,186.029 165.008,185.887 L 165.008,185.887 z "
   style="fill:#a18f7b;fill-rule:evenodd;stroke:#000000;stroke-width:0.036;stroke-miterlimit:10"
   id="path93" />
	<path
   d="M 153.56,182.395 C 153.668,183.151 154.136,184.231 155.108,185.491 C 156.008,186.751 157.304,188.19 158.996,189.956 L 158.996,189.956 L 162.093,186.858 L 162.093,186.858 C 160.292,186.426 158.637,185.85 157.269,185.131 C 155.791,184.41 154.604,183.402 153.56,182.395 L 153.56,182.395 z "
   style="fill:#a18f7b;fill-rule:evenodd;stroke:#000000;stroke-width:0.036;stroke-miterlimit:10"
   id="path95" />
	<path
   d="M 154.712,201.402 C 154.459,203.382 153.487,204.894 151.796,206.082 C 149.995,207.27 147.476,207.846 144.235,208.207 L 144.235,208.207 C 144.703,208.711 145.567,209.035 146.971,209.178 C 148.267,209.358 151.003,209.43 152.407,208.998 C 153.775,208.314 154.676,206.982 155.107,205.685 C 155.504,204.354 155.323,203.021 154.712,201.402 L 154.712,201.402 z "
   style="fill:#a18f7b;fill-rule:evenodd;stroke:#000000;stroke-width:0.036;stroke-miterlimit:10"
   id="path97" />
	<path
   d="M 154.136,210.547 L 155.9,209.358 L 155.9,209.358 C 156.512,211.483 157.448,213.571 158.421,215.766 C 159.357,217.963 160.616,220.123 161.912,222.391 L 161.912,222.391 L 159.572,225.883 L 159.572,225.883 C 157.484,222.391 156.044,219.547 155.108,216.955 C 154.172,214.361 153.848,212.273 154.136,210.547 L 154.136,210.547 z "
   style="fill:#a18f7b;fill-rule:evenodd;stroke:#000000;stroke-width:0.036;stroke-miterlimit:10"
   id="path99" />
	<path
   d="M 147.151,165.906 C 142.939,169.722 139.123,172.494 135.703,174.619 C 132.212,176.67 129.224,177.787 126.596,178.109 L 126.596,178.109 L 125.228,174.619 L 125.228,174.619 C 131.096,172.674 135.596,170.803 139.016,169.002 C 142.364,167.059 143.984,164.287 145.424,163.746 C 146.72,163.207 147.296,163.926 147.151,165.906 L 147.151,165.906 z "
   style="fill:#a18f7b;fill-rule:evenodd;stroke:#000000;stroke-width:0.036;stroke-miterlimit:10"
   id="path101" />
	<path
   d="M 62.335,181.998 C 65.287,177.75 68.023,173.934 71.083,170.154 C 73.999,166.302 77.023,162.883 80.011,159.498 L 80.011,159.498 C 81.343,159.029 80.695,160.83 78.067,165.33 C 75.403,169.723 70.903,176.525 64.279,185.887 L 64.279,185.887 C 63.631,184.59 62.983,183.295 62.335,181.998 L 62.335,181.998 z "
   style="fill:#a18f7b;fill-rule:evenodd;stroke:#000000;stroke-width:0.036;stroke-miterlimit:10"
   id="path103" />
	<path
   d="M 74.576,175.014 C 76.772,177.391 78.032,180.559 78.644,184.914 C 79.22,189.234 78.86,194.346 77.852,200.646 L 77.852,200.646 C 80.588,198.486 82.424,195.894 83.504,192.474 C 84.584,189.054 85.16,183.941 84.26,180.451 C 83.144,176.849 80.948,173.791 77.276,171.127 L 77.276,171.127 C 76.375,172.422 75.476,173.719 74.576,175.014 L 74.576,175.014 z "
   style="fill:#a18f7b;fill-rule:evenodd;stroke:#000000;stroke-width:0.036;stroke-miterlimit:10"
   id="path105" />
	<path
   d="M 81.739,161.623 C 82.927,163.17 83.719,165.078 84.259,167.635 C 84.691,170.155 84.871,173.035 84.655,176.563 L 84.655,176.563 C 85.771,178.434 86.311,180.704 86.419,183.368 C 86.491,185.995 85.987,188.983 85.051,192.475 L 85.051,192.475 C 84.691,195.426 84.691,197.371 85.051,198.307 C 85.303,199.17 85.951,199.639 86.995,197.911 C 87.967,196.003 90.631,192.044 91.243,187.434 C 91.783,182.682 91.351,174.979 90.487,170.155 C 89.443,165.331 87.859,161.407 85.447,158.526 L 85.447,158.526 C 84.224,159.535 83,160.578 81.739,161.623 L 81.739,161.623 z "
   style="fill:#a18f7b;fill-rule:evenodd;stroke:#000000;stroke-width:0.036;stroke-miterlimit:10"
   id="path107" />
	<path
   d="M 92.215,156.582 C 93.367,158.635 94.555,161.658 95.923,166.086 C 97.327,170.441 99.163,176.777 100.171,182.574 C 100.999,188.226 101.323,194.058 101.143,200.07 L 101.143,200.07 C 102.943,197.693 103.915,194.959 104.455,191.718 C 104.851,188.513 104.707,185.345 103.879,180.665 C 102.979,175.661 100.855,167.31 99.595,162.989 C 98.371,158.776 97.291,156.257 96.499,155.428 L 96.499,155.428 C 95.096,155.791 93.655,156.186 92.215,156.582 L 92.215,156.582 z "
   style="fill:#a18f7b;fill-rule:evenodd;stroke:#000000;stroke-width:0.036;stroke-miterlimit:10"
   id="path109" />
	<path
   d="M 101.54,159.498 C 100.532,159.967 101.504,158.994 104.456,156.582 C 107.408,154.098 112.124,150.318 119,144.955 L 119,144.955 L 121.916,146.682 L 121.916,146.682 C 117.56,148.807 113.96,151.327 110.684,154.243 C 107.444,157.194 104.672,160.255 102.512,163.964 L 102.512,163.964 C 102.188,162.486 101.863,161.01 101.54,159.498 L 101.54,159.498 z "
   style="fill:#a18f7b;fill-rule:evenodd;stroke:#000000;stroke-width:0.036;stroke-miterlimit:10"
   id="path111" />
	<path
   d="M 91.244,165.113 L 97.292,182.97 L 93.8,186.283 L 93.8,186.283 C 94.196,184.951 94.196,182.646 93.8,179.082 C 93.295,175.482 92.576,170.875 91.244,165.113 L 91.244,165.113 z "
   style="fill:#a18f7b;fill-rule:evenodd;stroke:#000000;stroke-width:0.036;stroke-miterlimit:10"
   id="path113" />
	<path
   d="M 103.879,166.303 C 106.327,167.383 108.919,167.815 111.655,167.455 C 114.427,166.986 117.415,165.654 120.187,164.142 C 122.851,162.63 125.263,160.65 127.567,158.345 L 127.567,158.345 C 126.559,162.161 124.796,165.15 122.131,167.454 C 119.251,169.794 114.787,171.737 111.655,171.737 C 108.596,171.594 106.003,169.65 103.879,166.303 L 103.879,166.303 z "
   style="fill:#a18f7b;fill-rule:evenodd;stroke:#000000;stroke-width:0.036;stroke-miterlimit:10"
   id="path115" />
	<path
   d="M 127.567,193.086 C 126.631,190.025 125.659,186.787 124.651,182.791 C 123.643,178.758 122.599,174.547 121.519,169.578 L 121.519,169.578 L 117.271,171.918 L 117.271,171.918 C 118.063,176.67 118.999,180.811 120.367,184.734 C 121.699,188.55 123.211,191.97 125.047,194.994 L 125.047,194.994 C 125.875,194.383 126.703,193.734 127.567,193.086 L 127.567,193.086 z "
   style="fill:#a18f7b;fill-rule:evenodd;stroke:#000000;stroke-width:0.036;stroke-miterlimit:10"
   id="path117" />
	<path
   d="M 119,162.811 C 118.748,162.27 118.424,161.19 118.028,159.284 C 117.56,157.339 117.092,154.854 116.48,151.544 L 116.48,151.544 L 113.204,154.064 L 113.204,154.064 C 113.672,156.369 114.068,158.384 114.536,160.255 C 114.896,162.056 115.292,163.568 115.724,164.935 L 115.724,164.935 C 116.804,164.25 117.883,163.529 119,162.811 L 119,162.811 z "
   style="fill:#a18f7b;fill-rule:evenodd;stroke:#000000;stroke-width:0.036;stroke-miterlimit:10"
   id="path119" />
	<path
   d="M 111.835,158.346 L 112.015,163.567 L 106.003,162.811 L 106.003,162.811 C 106.075,161.372 106.543,160.219 107.551,159.498 C 108.487,158.777 109.963,158.346 111.835,158.346 L 111.835,158.346 z "
   style="fill:#a18f7b;fill-rule:evenodd;stroke:#000000;stroke-width:0.036;stroke-miterlimit:10"
   id="path121" />
	<path
   d="M 121.735,155.035 C 123.427,154.746 125.623,154.135 128.323,152.91 C 130.987,151.685 134.155,149.994 137.827,147.834 L 137.827,147.834 L 138.8,152.693 L 129.871,156.185 L 129.871,156.185 C 129.907,155.287 129.151,155.177 127.747,156.005 C 126.308,156.833 124.22,158.31 121.339,160.866 L 121.339,160.866 C 120.043,157.626 119.251,155.538 118.819,154.458 C 118.351,153.341 118.351,153.341 118.819,154.458 L 118.819,154.458 C 119.792,154.639 120.764,154.818 121.735,155.035 L 121.735,155.035 z "
   style="fill:#a18f7b;fill-rule:evenodd;stroke:#000000;stroke-width:0.036;stroke-miterlimit:10"
   id="path123" />
	<path
   d="M 141.716,162.811 C 139.232,164.215 136.856,165.51 134.155,166.303 C 131.455,167.059 128.719,167.707 125.803,167.85 L 125.803,167.85 L 125.803,171.342 L 125.803,171.342 C 129.547,170.766 132.534,169.795 135.307,168.426 C 137.972,166.951 140.06,165.078 141.716,162.811 L 141.716,162.811 z "
   style="fill:#a18f7b;fill-rule:evenodd;stroke:#000000;stroke-width:0.036;stroke-miterlimit:10"
   id="path125" />
	<path
   d="M 139.987,174.258 L 147.943,168.606 L 142.111,176.563 L 142.111,176.563 C 141.283,176.491 140.347,176.491 139.015,176.563 C 137.647,176.563 136.135,176.743 134.335,176.959 L 134.335,176.959 C 136.207,176.059 138.079,175.158 139.987,174.258 L 139.987,174.258 z "
   style="fill:#a18f7b;fill-rule:evenodd;stroke:#000000;stroke-width:0.036;stroke-miterlimit:10"
   id="path127" />
	<path
   d="M 118.64,141.066 C 117.992,141.822 118.712,142.398 120.944,142.795 C 123.104,143.19 126.776,143.19 131.816,143.19 L 131.816,143.19 C 130.124,142.544 128.18,141.93 125.984,141.643 C 123.787,141.318 121.339,141.029 118.64,141.066 L 118.64,141.066 z "
   style="fill:#a18f7b;fill-rule:evenodd;stroke:#000000;stroke-width:0.036;stroke-miterlimit:10"
   id="path129" />
	<path
   d="M 106.58,175.41 C 107.12,175.59 108.164,175.41 109.712,175.014 C 111.26,174.619 113.168,173.862 115.724,172.891 L 115.724,172.891 L 115.508,176.778 L 115.508,176.778 C 113.24,178.434 111.26,179.839 109.712,180.846 C 108.092,181.854 106.904,182.502 106.004,182.791 L 106.004,182.791 C 106.184,180.342 106.363,177.895 106.58,175.41 L 106.58,175.41 z "
   style="fill:#a18f7b;fill-rule:evenodd;stroke:#000000;stroke-width:0.036;stroke-miterlimit:10"
   id="path131" />
	<path
   d="M 80.191,164.934 C 80.983,165.151 81.667,165.907 81.955,167.059 C 82.315,168.284 82.279,169.723 82.135,171.918 L 82.135,171.918 L 79.615,168.605 L 79.615,168.605 C 79.795,167.383 79.976,166.158 80.191,164.934 L 80.191,164.934 z "
   style="fill:#a18f7b;fill-rule:evenodd;stroke:#000000;stroke-width:0.036;stroke-miterlimit:10"
   id="path133" />
	<path
   d="M 86.6,214.434 C 87.68,216.27 89.228,217.495 91.64,218.106 C 94.016,218.682 98.336,218.719 100.568,217.926 C 102.692,216.918 103.664,215.19 104.456,212.887 C 105.104,210.547 105.284,207.739 104.852,204.319 L 104.852,204.319 L 100.172,208.208 L 100.172,208.208 C 98.048,207.235 96.068,206.083 94.376,204.895 C 92.576,203.67 91.064,202.266 89.696,200.827 L 89.696,200.827 C 88.58,203.636 88.256,205.938 88.724,208.026 C 89.156,210.006 90.272,211.628 92.216,212.887 L 92.216,212.887 C 90.848,212.778 89.516,212.598 88.364,212.491 C 87.176,212.274 86.024,212.132 85.052,211.915 L 85.052,211.915 C 85.556,212.742 86.06,213.57 86.6,214.434 L 86.6,214.434 z "
   style="fill-rule:evenodd;stroke:#000000;stroke-width:0.036;stroke-miterlimit:10"
   id="path135" />
	<path
   d="M 94.556,211.303 C 92.828,211.231 91.604,210.475 90.884,209.178 C 90.164,207.739 89.804,205.975 90.092,203.346 L 90.092,203.346 C 91.028,204.426 92.216,205.471 93.8,206.479 C 95.312,207.415 97.112,208.422 99.2,209.358 L 99.2,209.358 C 97.651,210.006 96.104,210.654 94.556,211.303 L 94.556,211.303 z "
   style="fill:#a18f7b;fill-rule:evenodd;stroke:#000000;stroke-width:0.036;stroke-miterlimit:10"
   id="path137" />
	<path
   d="M 88.939,213.822 C 90.019,214.433 91.243,214.65 93.007,214.613 C 94.771,214.47 97.147,214.433 99.019,213.246 C 100.747,212.021 101.971,209.971 103.087,207.234 L 103.087,207.234 C 103.555,210.33 103.303,212.597 102.331,214.433 C 101.215,216.199 99.127,217.746 96.895,217.71 C 94.591,217.566 92.071,216.27 88.939,213.822 L 88.939,213.822 z "
   style="fill:#a18f7b;fill-rule:evenodd;stroke:#000000;stroke-width:0.036;stroke-miterlimit:10"
   id="path139" />
	<path
   d="M 7.219,203.742 C 12.367,203.597 17.371,202.806 22.375,201.222 C 27.379,199.638 33.355,197.37 37.099,194.417 C 40.771,191.286 43.075,187.722 44.299,183.185 L 44.299,183.185 C 46.279,188.693 45.523,193.734 42.175,198.306 C 38.791,202.806 29.899,209.574 24.103,210.546 C 18.235,211.445 12.655,209.178 7.219,203.742 L 7.219,203.742 z "
   style="fill-rule:evenodd;stroke:#000000;stroke-width:0.036;stroke-miterlimit:10"
   id="path141" />
	<path
   d="M 11.684,204.715 C 16.076,204.606 20.108,204.029 23.924,202.986 C 27.668,201.906 30.98,200.718 34.4,198.306 C 37.712,195.786 40.88,192.474 43.904,188.226 L 43.904,188.226 C 42.86,192.005 41.312,195.173 39.26,198.126 C 37.064,200.933 34.22,203.669 31.304,205.505 C 28.244,207.269 24.86,208.818 21.584,208.782 C 18.308,208.639 14.959,207.234 11.684,204.715 L 11.684,204.715 z "
   style="fill:#a18f7b;fill-rule:evenodd;stroke:#000000;stroke-width:0.036;stroke-miterlimit:10"
   id="path143" />
	<path
   d="M 33.031,200.754 C 34.471,203.563 36.163,206.082 38.395,208.459 C 40.519,210.834 43.327,213.426 45.991,214.83 C 48.655,216.055 51.211,216.342 54.091,215.838 L 54.091,215.838 C 51.463,218.322 48.619,219.295 45.163,218.609 C 41.707,217.89 35.659,214.795 33.679,211.841 C 31.664,208.783 31.447,205.182 33.031,200.754 L 33.031,200.754 z "
   style="fill-rule:evenodd;stroke:#000000;stroke-width:0.036;stroke-miterlimit:10"
   id="path145" />
	<path
   d="M 33.68,203.455 C 34.868,205.867 36.2,207.918 37.82,209.754 C 39.404,211.59 40.808,213.067 43.148,214.326 C 45.38,215.441 48.008,216.451 51.176,216.955 L 51.176,216.955 C 48.872,217.35 46.604,217.35 44.516,216.955 C 42.212,216.521 40.16,215.551 38.36,214.471 C 36.524,213.283 34.796,211.842 34.004,210.006 C 33.212,208.17 33.104,205.938 33.68,203.455 L 33.68,203.455 z "
   style="fill:#a18f7b;fill-rule:evenodd;stroke:#000000;stroke-width:0.036;stroke-miterlimit:10"
   id="path147" />
	<path
   d="M 107.191,197.623 C 108.523,200.43 110.395,202.951 112.519,205.326 C 114.643,207.703 117.451,210.295 120.115,211.699 C 122.779,212.887 125.336,213.283 128.216,212.742 L 128.216,212.742 C 125.588,215.226 122.744,216.199 119.288,215.513 C 115.76,214.794 109.856,211.699 107.84,208.745 C 105.823,205.65 105.607,202.123 107.191,197.623 L 107.191,197.623 z "
   style="fill-rule:evenodd;stroke:#000000;stroke-width:0.036;stroke-miterlimit:10"
   id="path149" />
	<path
   d="M 107.804,200.357 C 108.956,202.769 110.396,204.822 111.98,206.658 C 113.6,208.494 114.896,209.971 117.272,211.23 C 119.468,212.345 122.204,213.353 125.336,213.857 L 125.336,213.857 C 122.959,214.253 120.728,214.253 118.64,213.857 C 116.336,213.425 114.284,212.455 112.484,211.375 C 110.648,210.113 108.92,208.746 108.128,206.875 C 107.335,205.002 107.228,202.879 107.804,200.357 L 107.804,200.357 z "
   style="fill:#a18f7b;fill-rule:evenodd;stroke:#000000;stroke-width:0.036;stroke-miterlimit:10"
   id="path151" />
	<path
   d="M 116.12,197.189 C 119,198.269 122.096,199.025 125.264,199.314 C 128.539,199.638 132.212,199.638 135.163,198.918 C 137.972,198.09 140.059,196.471 141.823,194.203 L 141.823,194.203 C 141.643,197.73 140.023,200.467 137.107,202.266 C 133.975,204.102 127.639,205.651 124.075,204.967 C 120.583,204.029 117.883,201.582 116.12,197.189 L 116.12,197.189 z "
   style="fill-rule:evenodd;stroke:#000000;stroke-width:0.036;stroke-miterlimit:10"
   id="path153" />
	<path
   d="M 118.423,198.811 C 120.943,199.711 123.283,200.323 125.731,200.647 C 128.035,200.934 130.267,201.006 132.715,200.467 C 135.127,199.819 137.755,198.703 140.454,196.975 L 140.454,196.975 C 138.942,198.883 137.431,200.288 135.522,201.475 C 133.542,202.555 131.418,203.418 129.294,203.778 C 127.134,204.067 124.865,204.174 123.065,203.419 C 121.231,202.518 119.684,201.078 118.423,198.811 L 118.423,198.811 z "
   style="fill:#a18f7b;fill-rule:evenodd;stroke:#000000;stroke-width:0.036;stroke-miterlimit:10"
   id="path155" />
	<path
   d="M 107.804,201.295 L 98.192,200.971 L 98.192,200.971 C 92.828,194.094 88.544,187.975 85.196,182.323 C 81.848,176.598 79.58,171.739 78.248,167.311 L 78.248,167.311 C 74.936,169.868 72.02,172.026 69.356,174.186 C 66.656,176.274 64.244,178.11 62.12,179.838 L 62.12,179.838 L 56.648,177.354 L 56.648,177.354 C 60.248,173.61 63.56,170.407 66.98,167.598 C 70.292,164.719 73.532,162.487 76.7,160.506 L 76.7,160.506 C 75.008,155.647 73.929,151.291 73.46,147.438 C 72.992,143.514 73.136,140.239 73.892,137.323 L 73.892,137.323 L 81.74,133.04 L 81.74,133.04 C 80.228,137.755 79.508,141.968 79.976,145.819 C 80.408,149.671 81.632,152.876 84.044,155.862 L 84.044,155.862 C 86.564,154.026 89.192,152.262 91.784,150.716 C 94.34,149.167 97.004,147.691 99.632,146.431 L 99.632,146.431 C 96.212,142.831 94.304,139.411 93.764,136.027 C 93.296,132.607 94.016,129.259 96.464,125.984 L 96.464,125.984 L 101.828,125.263 L 101.828,125.263 C 99.452,129.943 98.552,133.435 99.272,136.423 C 99.92,139.194 102.188,141.319 105.932,142.4 L 105.932,142.4 L 114.896,138.369 L 114.896,138.369 C 112.268,134.805 110.036,131.851 108.344,129.656 C 106.508,127.388 105.428,125.877 104.564,124.976 L 104.564,124.976 L 108.704,119.864 L 108.704,119.864 C 111.548,123.32 113.78,126.092 115.4,128.179 C 117.02,130.304 117.812,131.599 118.172,132.355 L 118.172,132.355 L 126.74,122.708 L 126.74,122.708 C 124.005,122.744 121.808,122.852 119.756,123.032 C 117.704,123.14 116.084,123.428 114.752,123.752 L 114.752,123.752 C 113.672,122.492 113.888,121.376 115.004,120.404 C 116.156,119.36 122.204,118.208 121.772,117.776 C 121.124,117.308 111.98,118.172 111.98,117.595 C 111.944,116.875 118.136,114.103 121.952,113.851 C 125.732,113.528 129.908,114.14 134.623,115.687 L 134.623,115.687 C 130.592,113.024 127.136,110.431 124.256,107.767 C 121.195,105.103 116.768,100.424 117.199,99.704 C 117.739,98.912 123.464,100.856 127.279,102.764 C 131.023,104.492 134.911,106.94 139.34,110.108 L 139.34,110.108 C 141.68,108.271 143.732,106.868 145.892,105.752 C 147.908,104.636 149.852,103.916 151.724,103.592 L 151.724,103.592 L 152.444,108.776 L 144.416,114.284 L 144.416,114.284 C 147.584,115.616 150.681,117.2 154.101,119.18 C 157.449,121.124 160.725,123.321 164.325,125.912 L 164.325,125.912 L 167.386,121.34 L 167.386,121.34 C 165.766,119.18 164.434,117.452 163.533,115.868 C 162.597,114.284 161.949,113.024 161.733,111.944 L 161.733,111.944 L 166.737,109.28 L 170.193,118.099 L 170.193,118.099 C 170.589,117.667 170.841,116.732 171.093,115.687 C 171.309,114.536 171.381,113.095 171.452,111.368 L 171.452,111.368 L 175.16,119.18 L 175.16,119.18 C 175.016,120.188 174.98,121.053 174.656,121.772 C 174.332,122.42 173.936,123.069 173.468,123.428 L 173.468,123.428 C 173.936,124.868 174.619,126.057 175.375,127.137 C 176.132,128.18 176.959,129.116 178.004,129.801 L 178.004,129.801 C 177.859,130.485 178.472,130.016 179.443,128.684 C 180.523,127.209 181.964,124.869 184.159,121.376 L 184.159,121.376 L 185.924,127.244 L 185.924,127.244 C 185.06,128.396 184.052,129.836 183.043,131.42 C 181.964,132.932 180.884,134.733 179.659,136.676 L 179.659,136.676 C 180.739,138.332 182.107,139.701 183.619,140.924 C 185.096,142.041 186.859,142.977 188.767,143.733 L 188.767,143.733 C 189.667,142.94 190.603,142.184 191.863,141.465 C 193.088,140.637 194.347,139.844 195.931,139.088 L 195.931,139.088 L 197.731,145.568 L 193.447,149.492 L 194.42,151.148 L 192.26,157.015 L 192.26,157.015 C 192.871,158.564 194.024,159.751 195.572,160.579 C 197.12,161.335 199.064,161.839 201.549,161.946 L 201.549,161.946 L 198.057,165.8 L 202.449,166.915 L 202.449,166.915 C 202.989,169.22 202.809,171.128 201.909,173.036 C 200.901,174.907 199.174,176.384 196.725,177.858 L 196.725,177.858 C 198.164,179.624 199.533,180.956 200.829,181.712 C 202.09,182.468 203.17,182.792 204.214,182.54 L 204.214,182.54 C 203.566,184.194 202.234,185.06 200.218,185.274 C 198.13,185.456 195.466,184.952 192.081,183.762 L 192.081,183.762 L 191.937,190.026 L 191.937,190.026 C 193.593,194.239 195.285,197.372 197.013,199.854 C 198.777,202.194 200.361,203.708 202.16,204.391 L 202.16,204.391 L 196.904,210.403 L 196.904,210.403 C 195.068,208.784 193.484,206.551 192.152,203.85 C 190.784,201.043 189.669,197.766 188.804,193.879 L 188.804,193.879 C 186.499,195.211 184.304,195.75 181.928,195.354 C 179.516,194.922 177.212,193.663 174.728,191.575 L 174.728,191.575 C 177.68,191.54 180.344,190.675 182.864,189.38 C 185.312,187.903 187.472,185.995 189.488,183.259 L 189.488,183.259 C 187.364,181.279 185.6,179.372 184.196,177.536 C 182.757,175.7 181.676,173.934 180.956,172.243 L 180.956,172.243 L 179.624,178.399 L 174.872,175.77 L 174.872,175.77 C 174.765,173.43 174.62,171.235 174.584,169.182 C 174.477,167.022 174.404,165.006 174.368,163.135 L 174.368,163.135 C 171.272,162.918 168.572,163.063 166.412,163.567 C 164.181,164.036 162.488,164.862 161.192,166.051 L 161.192,166.051 C 160.868,169.578 161.192,172.53 161.876,174.762 C 162.524,176.994 163.82,178.506 165.477,179.442 L 165.477,179.442 L 158.96,182.251 L 158.96,182.251 C 156.297,178.938 154.208,175.843 152.696,172.567 C 151.112,169.292 150.176,166.124 149.744,162.919 L 149.744,162.919 C 149.925,163.964 149.204,165.296 147.44,167.06 C 145.568,168.824 142.94,170.876 139.124,173.359 L 139.124,173.359 C 140.024,176.275 140.24,179.121 139.629,182.289 C 138.944,185.348 137.612,188.553 135.345,191.9 L 135.345,191.9 C 134.985,186.392 134.553,182.252 134.049,179.336 C 133.437,176.385 132.753,174.691 131.996,174.26 L 131.996,174.26 L 126.308,177.969 L 126.308,177.969 C 125.804,181.461 125.192,184.233 124.076,186.573 C 122.925,188.841 121.664,190.497 119.9,191.684 L 119.9,191.684 L 118.064,183.118 L 118.064,183.116 C 117.56,185.78 116.696,187.94 115.616,189.596 C 114.536,191.217 113.096,192.225 111.44,192.764 L 111.44,192.764 C 112.016,187.76 111.908,183.188 110.972,178.76 C 110.036,174.297 108.272,170.229 105.824,166.412 L 105.824,166.412 C 104.384,168.607 103.16,170.947 101.864,173.432 C 100.568,175.881 99.38,178.473 98.156,181.209 L 98.156,181.209 L 94.556,174.549 L 94.556,174.549 C 95.924,170.877 97.688,167.313 99.704,163.713 C 101.756,160.149 103.916,156.549 106.616,153.057 L 106.616,153.057 C 102.8,154.172 99.308,155.397 95.744,157.268 C 92.18,159.032 88.94,161.084 85.628,163.569 L 85.628,163.569 C 88.22,169.508 91.388,175.63 95.132,181.928 C 98.839,188.299 103.016,194.563 107.804,201.295 L 107.804,201.295 z "
   style="fill-rule:evenodd;stroke:#000000;stroke-width:0.036;stroke-miterlimit:10"
   id="path157" />
	<path
   d="M 74.684,138.15 L 79.148,136.134 L 79.148,136.134 C 77.816,139.409 77.6,143.226 78.644,148.265 C 79.616,153.199 82.352,159.245 85.052,165.581 C 87.644,171.81 91.1,179.585 94.304,185.31 C 97.472,190.962 100.424,195.462 103.7,199.206 L 103.7,199.206 L 98.624,199.134 L 98.624,199.134 C 93.44,192.546 89.444,186.605 86.24,180.882 C 83.036,175.085 81.524,170.118 79.76,165.15 C 77.888,160.254 76.52,155.933 75.656,151.505 C 74.755,146.934 74.432,142.578 74.684,138.15 L 74.684,138.15 z "
   style="fill:#a18f7b;fill-rule:evenodd;stroke:#000000;stroke-width:0.036;stroke-miterlimit:10"
   id="path159" />
	<path
   d="M 84.512,156.258 C 88.544,153.918 93.26,151.471 98.948,148.77 C 104.636,146.036 112.16,142.651 118.172,140.166 C 124.04,137.539 129.188,135.559 133.904,133.686 L 133.904,133.686 L 132.068,140.526 L 132.068,140.526 C 125.337,142.255 118.46,144.956 110.612,148.339 C 102.8,151.831 94.664,155.862 85.772,161.011 L 85.772,161.011 C 85.375,159.426 84.943,157.842 84.512,156.258 L 84.512,156.258 z "
   style="fill:#a18f7b;fill-rule:evenodd;stroke:#000000;stroke-width:0.036;stroke-miterlimit:10"
   id="path161" />
	<path
   d="M 59.815,176.131 C 64.243,172.242 67.735,169.147 70.579,166.842 C 73.351,164.467 75.331,162.955 76.519,162.162 L 76.519,162.162 L 76.951,166.41 L 76.951,166.41 C 72.631,169.65 69.391,172.314 66.835,174.258 C 64.279,176.203 62.695,177.426 61.939,178.074 L 61.939,178.074 C 61.255,177.426 60.536,176.777 59.815,176.131 L 59.815,176.131 z "
   style="fill:#a18f7b;fill-rule:evenodd;stroke:#000000;stroke-width:0.036;stroke-miterlimit:10"
   id="path163" />
	<path
   d="M 97.147,126.883 L 99.847,126.631 L 99.847,126.631 C 98.119,128.647 97.291,130.807 97.363,133.11 C 97.327,135.415 98.875,138.403 100.063,140.274 C 101.287,141.967 102.655,142.938 104.455,143.335 L 104.455,143.335 L 100.747,145.064 L 100.747,145.064 C 98.011,142.363 96.355,140.06 95.347,138.007 C 94.303,135.884 94.699,134.659 94.987,132.788 C 95.239,130.842 95.959,129.006 97.147,126.883 L 97.147,126.883 z "
   style="fill:#a18f7b;fill-rule:evenodd;stroke:#000000;stroke-width:0.036;stroke-miterlimit:10"
   id="path165" />
	<path
   d="M 106.363,125.551 C 108.631,127.746 110.503,129.942 112.267,131.994 C 113.959,134.047 115.399,136.098 116.587,138.006 L 116.587,138.006 L 119.359,136.35 L 119.359,136.35 C 117.271,132.967 115.399,130.051 113.599,127.746 C 111.799,125.334 110.179,123.534 108.739,122.202 L 108.739,122.202 C 107.947,123.318 107.155,124.434 106.363,125.551 L 106.363,125.551 z "
   style="fill:#a18f7b;fill-rule:evenodd;stroke:#000000;stroke-width:0.036;stroke-miterlimit:10"
   id="path167" />
	<path
   d="M 120.62,131.525 C 122.959,128.574 125.408,125.693 128.504,122.742 C 131.455,119.646 134.84,116.586 138.512,113.706 C 142.112,110.719 145.999,108.162 150.176,105.498 L 150.176,105.498 L 151.112,108.918 L 151.112,108.918 C 147.62,110.215 144.452,112.194 141.176,115.002 C 137.827,117.846 134.3,121.807 131.707,125.334 C 129.008,128.754 127.063,131.887 125.479,135.127 L 125.479,135.127 L 121.591,135.127 L 121.591,135.127 C 121.268,133.938 120.943,132.75 120.62,131.525 L 120.62,131.525 z "
   style="fill:#a18f7b;fill-rule:evenodd;stroke:#000000;stroke-width:0.036;stroke-miterlimit:10"
   id="path169" />
	<path
   d="M 131.491,115.614 C 129.512,114.786 127.387,114.463 125.119,114.498 C 122.671,114.606 118.207,115.326 117.848,115.83 C 117.524,116.154 122.42,115.975 123.212,116.658 C 123.823,117.234 122.924,118.818 122.312,119.467 C 121.808,119.863 121.052,119.682 120.044,119.899 C 118.82,120.223 116.336,120.583 115.652,121.123 C 114.932,121.519 115.04,121.843 115.976,122.239 L 115.976,122.239 L 127.028,121.518 L 127.028,121.518 C 128.253,120.151 129.188,119.107 129.98,118.098 C 130.663,117.09 131.168,116.262 131.491,115.614 L 131.491,115.614 z "
   style="fill:#a18f7b;fill-rule:evenodd;stroke:#000000;stroke-width:0.036;stroke-miterlimit:10"
   id="path171" />
	<path
   d="M 138.728,110.178 L 134.84,113.887 L 134.84,113.887 C 126.308,107.514 121.484,103.591 120.368,102.115 C 119.288,100.639 124.652,103.447 127.856,104.851 C 130.88,106.11 134.552,108.018 138.728,110.178 L 138.728,110.178 z "
   style="fill:#a18f7b;fill-rule:evenodd;stroke:#000000;stroke-width:0.036;stroke-miterlimit:10"
   id="path173" />
	
		<polygon
   points="163.424,113.131 167.888,120.69 169.472,118.782 166.592,111.438 163.424,113.131 "
   style="fill:#a18f7b;fill-rule:evenodd;stroke:#000000;stroke-width:0.036;stroke-miterlimit:10"
   id="polygon175" />
	<path
   d="M 172.172,116.551 C 171.632,118.206 170.84,119.79 169.94,121.447 C 168.932,122.923 168.572,124.147 166.52,126.091 C 164.396,128.071 160.472,131.419 157.664,133.22 C 154.82,134.947 152.12,135.847 149.564,136.208 L 149.564,136.208 L 150.86,139.194 L 150.86,139.194 C 154.46,138.079 157.7,136.712 160.58,135.09 C 163.425,133.361 165.62,131.994 167.996,129.438 C 170.337,126.811 172.389,123.643 174.44,119.647 L 174.44,119.647 C 173.684,118.639 172.928,117.594 172.172,116.551 L 172.172,116.551 z "
   style="fill:#a18f7b;fill-rule:evenodd;stroke:#000000;stroke-width:0.036;stroke-miterlimit:10"
   id="path177" />
	<path
   d="M 183.728,124.938 C 182.54,126.162 180.74,128.177 178.328,131.13 C 175.772,134.009 171.669,139.626 168.932,142.433 C 166.16,145.206 163.856,146.681 162.02,147.402 L 162.02,147.402 L 162.272,149.742 L 162.272,149.742 C 167.384,147.619 171.236,145.242 174.224,142.471 C 177.068,139.555 177.968,135.703 179.696,133.147 C 181.425,130.663 183.009,128.754 184.592,127.567 L 184.592,127.567 C 184.304,126.703 184.016,125.838 183.728,124.938 L 183.728,124.938 z "
   style="fill:#a18f7b;fill-rule:evenodd;stroke:#000000;stroke-width:0.036;stroke-miterlimit:10"
   id="path179" />
	<path
   d="M 172.243,127.063 L 174.583,132.678 L 172.459,136.819 L 172.459,136.819 C 171.775,135.846 171.163,134.731 170.768,133.471 C 170.372,132.102 170.048,130.735 169.94,129.078 L 169.94,129.078 C 170.695,128.43 171.451,127.746 172.243,127.063 L 172.243,127.063 z "
   style="fill:#a18f7b;fill-rule:evenodd;stroke:#000000;stroke-width:0.036;stroke-miterlimit:10"
   id="path181" />
	<path
   d="M 178.543,139.123 C 179.407,140.238 180.56,141.139 181.999,142.254 C 183.439,143.227 185.168,144.27 187.184,145.242 L 187.184,145.242 L 183.296,149.346 L 183.296,149.346 C 181.027,147.907 179.336,146.539 178.22,145.387 C 177.104,144.162 176.348,143.119 176.348,142.254 L 176.348,142.254 C 177.067,141.211 177.787,140.166 178.543,139.123 L 178.543,139.123 z "
   style="fill:#a18f7b;fill-rule:evenodd;stroke:#000000;stroke-width:0.036;stroke-miterlimit:10"
   id="path183" />
	<path
   d="M 195.176,141.535 C 193.159,142.795 190.999,144.521 188.696,146.861 C 186.284,149.093 183.224,152.478 181.173,155.215 C 178.977,157.914 176.925,159.967 176.133,163.17 C 175.233,166.375 175.412,169.938 176.277,174.258 L 176.277,174.258 L 178.221,176.022 L 178.221,176.022 C 178.797,172.999 179.769,169.795 181.137,166.555 C 182.469,163.207 184.485,159.03 186.357,156.258 C 188.121,153.379 189.957,151.506 191.721,149.67 C 193.412,147.762 194.96,146.287 196.509,145.098 L 196.509,145.098 C 196.075,143.91 195.644,142.723 195.176,141.535 L 195.176,141.535 z "
   style="fill:#a18f7b;fill-rule:evenodd;stroke:#000000;stroke-width:0.036;stroke-miterlimit:10"
   id="path185" />
	<path
   d="M 188.911,156.582 C 189.092,157.807 190.099,158.85 191.791,160.002 C 193.447,161.082 195.787,162.09 198.955,163.17 L 198.955,163.17 L 195.464,167.418 L 195.464,167.418 C 193.375,166.266 191.684,165.078 190.243,163.854 C 188.767,162.594 187.651,161.334 186.895,159.93 L 186.895,159.93 C 187.543,158.814 188.228,157.699 188.911,156.582 L 188.911,156.582 z "
   style="fill:#a18f7b;fill-rule:evenodd;stroke:#000000;stroke-width:0.036;stroke-miterlimit:10"
   id="path187" />
	<path
   d="M 184.447,164.467 C 185.563,168.102 187.399,171.487 189.955,174.619 C 192.512,177.715 195.68,180.521 199.603,183.185 L 199.603,183.185 C 197.011,183.367 194.743,182.826 192.655,181.962 C 190.531,180.81 188.84,179.441 187.147,177.462 C 185.347,175.517 183.727,173.321 182.143,170.73 L 182.143,170.73 C 182.323,168.75 182.683,167.417 183.079,166.337 C 183.403,165.258 183.907,164.682 184.447,164.467 L 184.447,164.467 z "
   style="fill:#a18f7b;fill-rule:evenodd;stroke:#000000;stroke-width:0.036;stroke-miterlimit:10"
   id="path189" />
	<path
   d="M 132.535,129.727 C 134.336,126.774 136.172,124.182 138.187,121.951 C 140.131,119.682 142.219,117.775 144.451,116.227 L 144.451,116.227 L 148.123,118.027 L 148.123,118.027 C 145.352,120.655 142.903,122.887 140.239,124.867 C 137.611,126.773 135.092,128.395 132.535,129.727 L 132.535,129.727 z "
   style="fill:#a18f7b;fill-rule:evenodd;stroke:#000000;stroke-width:0.036;stroke-miterlimit:10"
   id="path191" />
	<path
   d="M 140.924,125.945 C 139.88,126.81 138.692,128.466 137.36,131.203 C 135.992,133.867 134.48,137.467 132.824,142.002 L 132.824,142.002 L 129.188,142.938 L 131.024,145.711 L 131.024,145.711 C 133.04,144.234 135.164,141.895 137.936,138.547 C 140.564,135.234 143.624,130.914 146.972,125.731 L 146.972,125.731 C 144.955,125.803 142.939,125.875 140.924,125.945 L 140.924,125.945 z "
   style="fill:#a18f7b;fill-rule:evenodd;stroke:#000000;stroke-width:0.036;stroke-miterlimit:10"
   id="path193" />
	<path
   d="M 143.875,124.11 C 145.712,123.677 148.159,123.677 151.075,123.966 C 154.027,124.253 157.34,124.938 161.407,126.017 L 161.407,126.017 C 158.924,124.146 156.475,122.886 154.207,122.093 C 151.831,121.23 149.636,121.121 147.476,121.373 L 147.476,121.373 C 146.287,122.274 145.1,123.174 143.875,124.11 L 143.875,124.11 z "
   style="fill:#a18f7b;fill-rule:evenodd;stroke:#000000;stroke-width:0.036;stroke-miterlimit:10"
   id="path195" />
	<path
   d="M 198.235,167.525 C 197.695,169.218 197.047,170.73 196.147,172.062 C 195.283,173.322 194.168,174.402 192.943,175.302 L 192.943,175.302 L 194.672,176.886 L 194.672,176.886 C 197.516,175.409 199.495,173.861 200.468,172.386 C 201.44,170.802 201.476,169.29 200.575,167.706 L 200.575,167.706 C 199.819,167.67 199.027,167.598 198.235,167.525 L 198.235,167.525 z "
   style="fill:#a18f7b;fill-rule:evenodd;stroke:#000000;stroke-width:0.036;stroke-miterlimit:10"
   id="path197" />
	<path
   d="M 186.464,165.223 C 186.68,166.014 187.256,166.952 188.336,168.174 C 189.415,169.326 190.712,170.623 192.655,172.207 L 192.655,172.207 L 195.427,168.787 L 195.427,168.787 C 193.519,168.535 191.899,168.174 190.423,167.562 C 188.875,166.986 187.651,166.158 186.464,165.223 L 186.464,165.223 z "
   style="fill:#a18f7b;fill-rule:evenodd;stroke:#000000;stroke-width:0.036;stroke-miterlimit:10"
   id="path199" />
	<path
   d="M 189.56,184.014 C 189.488,186.03 188.768,187.543 187.112,188.946 C 185.421,190.208 183.08,191.178 179.804,191.862 L 179.804,191.862 C 180.272,192.331 181.207,192.51 182.612,192.548 C 183.908,192.439 186.68,192.511 188.012,191.792 C 189.272,190.999 190.064,189.487 190.388,188.228 C 190.567,186.895 190.424,185.49 189.56,184.014 L 189.56,184.014 z "
   style="fill:#a18f7b;fill-rule:evenodd;stroke:#000000;stroke-width:0.036;stroke-miterlimit:10"
   id="path201" />
	<path
   d="M 189.884,193.158 L 191.504,191.826 L 191.504,191.826 C 192.331,193.806 193.483,195.894 194.672,197.945 C 195.823,199.963 197.3,202.086 198.812,204.174 L 198.812,204.174 L 196.868,207.883 L 196.868,207.883 C 194.456,204.678 192.62,201.906 191.505,199.422 C 190.279,196.938 189.739,194.85 189.884,193.158 L 189.884,193.158 z "
   style="fill:#a18f7b;fill-rule:evenodd;stroke:#000000;stroke-width:0.036;stroke-miterlimit:10"
   id="path203" />
	<path
   d="M 178.436,149.455 C 174.583,153.631 171.128,156.871 167.924,159.318 C 164.72,161.73 161.768,163.097 159.212,163.711 L 159.212,163.711 L 157.483,160.361 L 157.483,160.361 C 163.027,157.841 167.455,155.466 170.623,153.379 C 173.756,151.074 175.159,148.193 176.491,147.51 C 177.752,146.826 178.399,147.475 178.436,149.455 L 178.436,149.455 z "
   style="fill:#a18f7b;fill-rule:evenodd;stroke:#000000;stroke-width:0.036;stroke-miterlimit:10"
   id="path205" />
	<path
   d="M 95.671,174.043 C 98.047,169.543 100.639,165.475 103.159,161.406 C 105.643,157.375 108.343,153.486 110.971,149.886 L 110.971,149.886 C 112.195,149.165 111.799,151.253 109.639,155.861 C 107.407,160.578 103.663,167.67 98.011,177.715 L 98.011,177.715 C 97.255,176.49 96.463,175.266 95.671,174.043 L 95.671,174.043 z "
   style="fill:#a18f7b;fill-rule:evenodd;stroke:#000000;stroke-width:0.036;stroke-miterlimit:10"
   id="path207" />
	<path
   d="M 107.155,165.871 C 109.567,167.959 111.151,171.055 112.195,175.303 C 113.203,179.442 113.383,184.735 113.023,191.035 L 113.023,191.035 C 115.435,188.658 117.019,185.814 117.775,182.357 C 118.459,178.794 118.639,173.753 117.343,170.298 C 115.939,166.841 113.311,164.034 109.459,161.73 L 109.459,161.73 C 108.704,163.098 107.947,164.467 107.155,165.871 L 107.155,165.871 z "
   style="fill:#a18f7b;fill-rule:evenodd;stroke:#000000;stroke-width:0.036;stroke-miterlimit:10"
   id="path209" />
	<path
   d="M 112.916,151.83 C 114.248,153.162 115.292,155.07 116.048,157.555 C 116.768,159.93 117.2,162.883 117.344,166.41 L 117.344,166.41 C 118.604,168.211 119.36,170.262 119.756,172.963 C 120.08,175.59 119.936,178.613 119.324,182.178 L 119.324,182.178 C 119.36,185.131 119.432,187.11 119.936,187.975 C 120.26,188.838 121.016,189.2 121.808,187.399 C 122.708,185.383 124.796,181.208 125.012,176.526 C 124.976,171.846 124.004,164.071 122.491,159.426 C 121.015,154.711 118.999,151.074 116.299,148.375 L 116.299,148.375 C 115.184,149.525 114.067,150.678 112.916,151.83 L 112.916,151.83 z "
   style="fill:#a18f7b;fill-rule:evenodd;stroke:#000000;stroke-width:0.036;stroke-miterlimit:10"
   id="path211" />
	<path
   d="M 122.852,145.746 C 124.148,147.654 125.696,150.535 127.496,154.818 C 129.225,158.994 131.889,165.113 133.4,170.802 C 134.84,176.31 135.704,182.07 136.136,188.081 L 136.136,188.081 C 137.612,185.561 138.367,182.681 138.548,179.44 C 138.655,176.202 138.043,173.104 136.856,168.497 C 135.596,163.745 132.392,155.393 130.844,151.36 C 129.224,147.329 127.892,144.881 126.991,144.161 L 126.991,144.161 C 125.623,144.666 124.256,145.207 122.852,145.746 L 122.852,145.746 z "
   style="fill:#a18f7b;fill-rule:evenodd;stroke:#000000;stroke-width:0.036;stroke-miterlimit:10"
   id="path213" />
	<path
   d="M 132.428,147.689 C 131.491,148.23 132.356,147.222 135.02,144.521 C 137.648,141.714 142.076,137.501 148.304,131.455 L 148.304,131.455 L 151.4,132.894 L 151.4,132.894 C 147.296,135.486 143.948,138.33 140.96,141.57 C 138.009,144.81 135.633,148.158 133.832,152.047 L 133.832,152.047 C 133.363,150.605 132.896,149.166 132.428,147.689 L 132.428,147.689 z "
   style="fill:#a18f7b;fill-rule:evenodd;stroke:#000000;stroke-width:0.036;stroke-miterlimit:10"
   id="path215" />
	<path
   d="M 122.744,154.35 L 130.52,171.487 L 127.388,175.124 L 127.388,175.124 C 127.604,173.792 127.495,171.415 126.668,167.995 C 125.84,164.502 124.579,160.002 122.744,154.35 L 122.744,154.35 z "
   style="fill:#a18f7b;fill-rule:evenodd;stroke:#000000;stroke-width:0.036;stroke-miterlimit:10"
   id="path217" />
	<path
   d="M 135.415,154.207 C 138.008,155.143 140.527,155.143 143.264,154.602 C 145.928,153.918 148.844,152.262 151.436,150.463 C 153.92,148.699 156.116,146.467 158.168,143.91 L 158.168,143.91 C 157.52,147.799 156.115,151.002 153.668,153.521 C 151.147,155.97 146.72,158.669 143.695,158.849 C 140.6,158.959 137.936,157.41 135.415,154.207 L 135.415,154.207 z "
   style="fill:#a18f7b;fill-rule:evenodd;stroke:#000000;stroke-width:0.036;stroke-miterlimit:10"
   id="path219" />
	<path
   d="M 161.695,178.471 C 160.471,175.627 159.103,172.315 157.735,168.535 C 156.223,164.681 154.927,160.506 153.307,155.719 L 153.307,155.719 L 149.311,158.455 L 149.311,158.455 C 150.607,163.062 151.939,167.166 153.703,170.91 C 155.395,174.619 157.231,177.822 159.355,180.666 L 159.355,180.666 C 160.111,179.945 160.903,179.227 161.695,178.471 L 161.695,178.471 z "
   style="fill:#a18f7b;fill-rule:evenodd;stroke:#000000;stroke-width:0.036;stroke-miterlimit:10"
   id="path221" />
	<path
   d="M 150.104,149.203 C 149.816,148.769 149.384,147.654 148.808,145.853 C 148.232,144.017 147.404,141.535 146.468,138.257 L 146.468,138.257 L 143.444,141.101 L 143.444,141.101 C 144.092,143.371 144.848,145.386 145.424,147.15 C 145.999,148.914 146.539,150.425 147.043,151.685 L 147.043,151.685 C 148.052,150.857 149.06,150.029 150.104,149.203 L 150.104,149.203 z "
   style="fill:#a18f7b;fill-rule:evenodd;stroke:#000000;stroke-width:0.036;stroke-miterlimit:10"
   id="path223" />
	<path
   d="M 142.543,145.494 L 143.264,150.715 L 137.18,150.535 L 137.18,150.535 C 137.035,149.021 137.539,147.871 138.404,147.078 C 139.231,146.25 140.707,145.674 142.543,145.494 L 142.543,145.494 z "
   style="fill:#a18f7b;fill-rule:evenodd;stroke:#000000;stroke-width:0.036;stroke-miterlimit:10"
   id="path225" />
	<path
   d="M 152.048,141.211 C 153.776,140.742 155.756,139.951 158.384,138.438 C 160.904,136.926 163.892,134.983 167.348,132.463 L 167.348,132.463 L 168.787,137.178 L 160.256,141.535 L 160.256,141.535 C 160.184,140.67 159.428,140.635 158.132,141.57 C 156.8,142.506 154.783,144.234 152.228,147.043 L 152.228,147.043 C 150.608,143.91 149.564,141.967 149.096,140.922 C 148.52,139.879 148.52,139.879 149.096,140.922 L 149.096,140.922 C 150.067,140.994 151.039,141.102 152.048,141.211 L 152.048,141.211 z "
   style="fill:#a18f7b;fill-rule:evenodd;stroke:#000000;stroke-width:0.036;stroke-miterlimit:10"
   id="path227" />
	<path
   d="M 172.712,146.934 C 170.48,148.7 168.14,149.922 165.548,151.147 C 162.92,152.262 160.291,153.018 157.375,153.559 L 157.375,153.559 L 157.735,157.014 L 157.735,157.014 C 161.407,156.151 164.323,154.819 166.915,153.162 C 169.363,151.506 171.344,149.383 172.712,146.934 L 172.712,146.934 z "
   style="fill:#a18f7b;fill-rule:evenodd;stroke:#000000;stroke-width:0.036;stroke-miterlimit:10"
   id="path229" />
	<path
   d="M 172.136,158.49 L 179.48,152.082 L 174.476,160.578 L 174.476,160.578 C 173.648,160.543 172.676,160.65 171.415,160.902 C 170.083,161.047 168.644,161.334 166.808,161.765 L 166.808,161.765 C 168.571,160.686 170.336,159.605 172.136,158.49 L 172.136,158.49 z "
   style="fill:#a18f7b;fill-rule:evenodd;stroke:#000000;stroke-width:0.036;stroke-miterlimit:10"
   id="path231" />
	<path
   d="M 147.548,127.639 C 146.936,128.502 147.764,129.006 150.031,129.151 C 152.263,129.223 155.827,129.079 160.867,128.43 L 160.867,128.43 C 159.031,127.854 157.195,127.53 154.928,127.459 C 152.659,127.277 150.247,127.387 147.548,127.639 L 147.548,127.639 z "
   style="fill:#a18f7b;fill-rule:evenodd;stroke:#000000;stroke-width:0.036;stroke-miterlimit:10"
   id="path233" />
	<path
   d="M 139.052,163.025 C 139.556,163.025 140.564,162.918 142.075,162.306 C 143.515,161.693 145.495,160.794 147.871,159.605 L 147.871,159.605 L 148.052,163.459 L 148.052,163.459 C 145.856,165.367 144.199,166.914 142.688,168.102 C 141.176,169.291 140.06,170.01 139.196,170.407 L 139.196,170.407 C 139.159,167.959 139.123,165.51 139.052,163.025 L 139.052,163.025 z "
   style="fill:#a18f7b;fill-rule:evenodd;stroke:#000000;stroke-width:0.036;stroke-miterlimit:10"
   id="path235" />
	<path
   d="M 111.728,155.25 C 112.556,155.395 113.204,156.043 113.672,157.193 C 114.032,158.345 114.392,159.857 114.356,162.017 L 114.356,162.017 L 111.512,158.994 L 111.512,158.994 C 111.583,157.77 111.655,156.51 111.728,155.25 L 111.728,155.25 z "
   style="fill:#a18f7b;fill-rule:evenodd;stroke:#000000;stroke-width:0.036;stroke-miterlimit:10"
   id="path237" />
	<path
   d="M 123.104,203.85 C 124.292,205.651 126.092,206.659 128.504,207.018 C 130.844,207.342 135.235,207.018 137.359,205.903 C 139.375,204.678 140.168,202.88 140.707,200.503 C 141.14,198.163 141.031,195.319 140.239,191.972 L 140.239,191.972 L 135.991,196.292 L 135.991,196.292 C 133.723,195.536 131.779,194.636 129.871,193.591 C 127.999,192.548 126.308,191.359 124.796,190.027 L 124.796,190.027 C 124.004,192.943 123.932,195.213 124.579,197.263 C 125.227,199.208 126.451,200.648 128.539,201.728 L 128.539,201.728 C 127.1,201.728 125.804,201.835 124.651,201.763 C 123.391,201.763 122.275,201.583 121.303,201.511 L 121.303,201.511 C 121.879,202.266 122.491,203.059 123.104,203.85 L 123.104,203.85 z "
   style="fill-rule:evenodd;stroke:#000000;stroke-width:0.036;stroke-miterlimit:10"
   id="path239" />
	<path
   d="M 130.699,199.963 C 128.935,200.07 127.639,199.35 126.811,198.199 C 125.947,196.867 125.443,195.101 125.443,192.51 L 125.443,192.51 C 126.487,193.446 127.819,194.346 129.439,195.211 C 131.095,196.074 132.895,196.758 135.127,197.551 L 135.127,197.551 C 133.651,198.342 132.176,199.135 130.699,199.963 L 130.699,199.963 z "
   style="fill:#a18f7b;fill-rule:evenodd;stroke:#000000;stroke-width:0.036;stroke-miterlimit:10"
   id="path241" />
	<path
   d="M 125.371,203.021 C 126.487,203.525 127.712,203.707 129.475,203.417 C 131.131,203.165 133.687,202.733 135.343,201.437 C 136.963,199.998 137.935,197.91 138.799,195.029 L 138.799,195.029 C 139.627,198.054 139.555,200.322 138.727,202.265 C 137.755,204.066 135.919,205.937 133.651,206.081 C 131.348,206.189 128.72,205.219 125.371,203.021 L 125.371,203.021 z "
   style="fill:#a18f7b;fill-rule:evenodd;stroke:#000000;stroke-width:0.036;stroke-miterlimit:10"
   id="path243" />
	<path
   d="M 43.04,201.258 C 48.152,200.647 52.94,199.207 57.836,197.227 C 62.588,195.174 68.456,192.295 71.84,188.983 C 75.116,185.635 77.168,181.602 77.852,177.03 L 77.852,177.03 C 80.336,182.395 80.084,187.362 77.24,192.331 C 74.18,197.3 66.296,204.644 60.536,206.3 C 54.739,207.773 49.051,206.047 43.04,201.258 L 43.04,201.258 z "
   style="fill-rule:evenodd;stroke:#000000;stroke-width:0.036;stroke-miterlimit:10"
   id="path245" />
	<path
   d="M 47.576,201.762 C 51.86,201.186 55.856,200.25 59.564,198.811 C 63.236,197.262 66.368,195.823 69.536,193.086 C 72.596,190.207 75.404,186.678 77.96,182.106 L 77.96,182.106 C 77.276,185.887 76.16,189.27 74.324,192.403 C 72.416,195.499 69.896,198.415 67.16,200.575 C 64.316,202.663 61.076,204.536 57.836,204.823 C 54.56,204.967 51.14,203.994 47.576,201.762 L 47.576,201.762 z "
   style="fill:#a18f7b;fill-rule:evenodd;stroke:#000000;stroke-width:0.036;stroke-miterlimit:10"
   id="path247" />
	<path
   d="M 68.419,195.643 C 70.111,198.27 72.091,200.647 74.503,202.77 C 76.951,204.895 79.831,207.27 82.711,208.35 C 85.483,209.323 88.075,209.395 90.883,208.567 L 90.883,208.567 C 88.543,211.266 85.771,212.526 82.279,212.204 C 78.751,211.77 72.451,209.395 70.183,206.624 C 67.916,203.814 67.195,200.25 68.419,195.643 L 68.419,195.643 z "
   style="fill-rule:evenodd;stroke:#000000;stroke-width:0.036;stroke-miterlimit:10"
   id="path249" />
	<path
   d="M 69.319,198.307 C 70.795,200.61 72.343,202.375 74.107,204.139 C 75.835,205.723 77.419,207.2 79.831,208.17 C 82.207,209.07 84.835,209.754 88.111,209.934 L 88.111,209.934 C 85.771,210.582 83.647,210.762 81.451,210.62 C 79.147,210.368 76.987,209.755 75.115,208.784 C 73.171,207.739 71.299,206.442 70.327,204.751 C 69.319,203.021 69.031,200.826 69.319,198.307 L 69.319,198.307 z "
   style="fill:#a18f7b;fill-rule:evenodd;stroke:#000000;stroke-width:0.036;stroke-miterlimit:10"
   id="path251" />
	<path
   d="M 141.859,185.094 C 143.515,187.651 145.603,190.063 147.979,192.186 C 150.427,194.311 153.307,196.686 156.187,197.766 C 158.923,198.739 161.587,198.811 164.323,197.983 L 164.323,197.983 C 161.983,200.682 159.212,201.942 155.719,201.62 C 152.191,201.186 145.891,198.811 143.622,196.04 C 141.355,193.23 140.636,189.631 141.859,185.094 L 141.859,185.094 z "
   style="fill-rule:evenodd;stroke:#000000;stroke-width:0.036;stroke-miterlimit:10"
   id="path253" />
	<path
   d="M 142.76,187.723 C 144.236,190.026 145.783,191.791 147.548,193.555 C 149.276,195.139 150.86,196.614 153.272,197.586 C 155.648,198.486 158.276,199.17 161.552,199.35 L 161.552,199.35 C 159.283,199.998 157.123,200.178 154.928,200.036 C 152.659,199.784 150.392,199.171 148.556,198.2 C 146.612,197.155 144.74,195.858 143.768,194.167 C 142.76,192.438 142.472,190.242 142.76,187.723 L 142.76,187.723 z "
   style="fill:#a18f7b;fill-rule:evenodd;stroke:#000000;stroke-width:0.036;stroke-miterlimit:10"
   id="path255" />
	<path
   d="M 150.716,183.762 C 153.739,184.627 156.8,184.879 160.039,184.914 C 163.243,184.842 167.023,184.555 169.831,183.51 C 172.531,182.358 174.548,180.631 176.023,178.182 L 176.023,178.182 C 176.168,181.746 174.871,184.518 172.135,186.643 C 169.183,188.659 163.099,191.106 159.427,190.674 C 155.863,190.17 152.911,187.867 150.716,183.762 L 150.716,183.762 z "
   style="fill-rule:evenodd;stroke:#000000;stroke-width:0.036;stroke-miterlimit:10"
   id="path257" />
	<path
   d="M 153.163,185.094 C 155.791,185.815 158.096,186.139 160.615,186.211 C 162.92,186.211 165.187,186.139 167.563,185.311 C 169.939,184.411 172.387,183.043 174.907,181.063 L 174.907,181.063 C 173.611,183.006 172.172,184.663 170.443,186.03 C 168.535,187.327 166.555,188.407 164.504,188.983 C 162.451,189.415 160.039,189.811 158.239,189.2 C 156.296,188.514 154.604,187.146 153.163,185.094 L 153.163,185.094 z "
   style="fill:#a18f7b;fill-rule:evenodd;stroke:#000000;stroke-width:0.036;stroke-miterlimit:10"
   id="path259" />
	<path
   d="M 211.016,214.578 C 210.728,216.846 206.336,209.719 197.444,192.906 C 188.444,175.806 168.5,135.703 158.024,113.849 C 147.584,92.034 142.76,79.326 135.344,63.234 C 127.783,47.142 120.656,32.274 113.42,18.054 L 113.42,18.054 C 108.524,17.19 103.916,15.786 99.596,13.446 C 95.06,11.07 88.003,3.114 87.319,4.302 C 86.779,5.418 90.235,8.91 96.175,20.466 C 102.007,32.166 112.051,52.146 122.275,73.458 C 132.499,94.626 148.987,128.105 157.015,146.539 C 164.935,164.791 164.107,170.406 169.795,182.682 C 175.446,194.887 184.95,212.922 190.675,219.727 C 196.255,226.35 200.322,223.686 203.706,222.858 C 207.056,221.922 209.539,219.258 211.016,214.578 L 211.016,214.578 z "
   style="fill-rule:evenodd;stroke:#000000;stroke-width:0.036;stroke-miterlimit:10"
   id="path261" />
	<path
   d="M 208.424,215.047 C 201.692,203.707 193.915,189.414 184.411,171.199 C 174.907,152.982 161.623,126.773 152.048,106.722 C 142.363,86.526 134.048,65.898 127.243,51.353 C 120.475,36.881 115.435,26.621 111.835,20.285 L 111.835,20.285 C 108.379,20.177 105.211,19.529 102.187,17.945 C 99.019,16.397 92.719,7.505 93.583,11.141 C 94.519,14.705 101.611,27.125 107.659,39.257 C 113.743,51.317 121.015,66.509 129.33,83.429 C 137.538,100.421 149.958,125.333 156.475,140.093 C 162.775,154.638 163.891,161.55 167.454,170.55 C 170.91,179.478 173.826,185.454 177.858,193.482 C 181.962,201.546 187.686,213.39 191.718,218.177 C 195.57,222.822 198.234,221.741 201.114,221.31 C 203.852,220.77 206.336,218.682 208.424,215.047 L 208.424,215.047 z "
   style="fill:#a16121;fill-rule:evenodd;stroke:#000000;stroke-width:0.036;stroke-miterlimit:10"
   id="path263" />
	<path
   d="M 190.676,203.021 C 188.228,199.207 184.196,190.998 179.947,182.681 C 175.628,174.294 165.439,154.566 165.079,153.199 C 164.756,151.902 172.64,165.474 177.607,174.33 C 182.467,183.006 191.791,200.215 194.059,205.109 C 196.111,209.754 193.088,206.838 190.676,203.021 L 190.676,203.021 z "
   style="fill-rule:evenodd;stroke:#000000;stroke-width:0.036;stroke-miterlimit:10"
   id="path265" />
	<path
   d="M 167.959,150.318 C 171.884,157.734 185.743,182.105 186.752,183.185 C 187.508,183.906 177.104,163.242 173.18,155.79 C 169.184,148.374 164.396,139.985 163.532,139.085 C 162.596,138.15 164.071,142.867 167.959,150.318 L 167.959,150.318 z "
   style="fill-rule:evenodd;stroke:#000000;stroke-width:0.036;stroke-miterlimit:10"
   id="path267" />
	<path
   d="M 102.188,20.286 C 104.132,22.59 106.004,24.462 107.948,25.758 C 109.82,27.054 111.728,27.846 113.672,28.134 L 113.672,28.134 C 111.944,26.874 110.072,25.434 108.2,24.21 C 106.292,22.95 104.239,21.51 102.188,20.286 L 102.188,20.286 z "
   style="fill-rule:evenodd;stroke:#000000;stroke-width:0.036;stroke-miterlimit:10"
   id="path269" />
	<path
   d="M 102.188,24.714 C 102.188,25.074 105.176,30.69 107.408,32.814 C 109.568,34.902 114.86,37.53 114.968,37.242 C 114.86,36.702 109.568,32.274 107.408,30.222 C 105.175,28.026 102.188,24.246 102.188,24.714 L 102.188,24.714 z "
   style="fill-rule:evenodd;stroke:#000000;stroke-width:0.036;stroke-miterlimit:10"
   id="path271" />
	<path
   d="M 114.715,44.55 C 114.391,44.334 115.795,47.718 118.639,52.902 C 121.303,57.978 130.483,74.826 130.914,75.114 C 131.202,75.222 123.679,59.382 120.978,54.234 C 118.171,49.05 115.111,44.802 114.715,44.55 L 114.715,44.55 z "
   style="fill-rule:evenodd;stroke:#000000;stroke-width:0.036;stroke-miterlimit:10"
   id="path273" />
	<path
   d="M 0.02,198.414 C 6.932,190.207 12.98,182.574 18.704,174.941 C 24.356,167.273 30.26,160.146 33.644,153.127 C 36.704,146.07 37.1,138.402 37.892,133.182 C 38.576,127.963 36.488,124.723 38.576,121.807 C 40.772,118.639 48.368,114.643 50.528,115.075 C 52.4,115.579 48.476,123.571 50.564,124.615 C 52.652,125.443 55.064,127.602 63.2,120.403 C 71.228,112.951 83.468,96.319 98.66,81.055 C 113.888,65.827 131.78,49.051 153.452,29.899 L 153.452,29.899 C 155.9,30.763 158.528,30.907 161.337,30.475 C 164.145,29.827 169.725,25.939 170.156,27.019 C 170.372,28.135 165.62,32.887 163.28,37.243 C 160.94,41.491 164.036,44.407 156.44,52.651 C 148.592,60.751 132.392,71.119 117.416,86.239 C 102.332,101.431 81.884,125.191 67.052,143.083 C 52.147,160.867 37.711,181.746 29,192.258 C 20.288,202.59 15.896,206.731 15.392,204.822 L 15.392,204.822 C 11,206.478 7.688,206.838 5.06,205.758 C 2.503,204.57 0.775,202.303 0.02,198.414 L 0.02,198.414 z "
   style="fill-rule:evenodd;stroke:#000000;stroke-width:0.036;stroke-miterlimit:10"
   id="path275" />
	<path
   d="M 2.792,198.09 C 6.5,195.139 10.532,190.602 15.428,184.627 C 20.252,178.506 27.344,169.039 31.412,161.91 C 35.192,154.674 37.46,148.338 38.756,142.074 C 40.016,135.81 40.16,129.941 39.188,124.47 L 39.188,124.47 C 40.448,124.866 41.888,124.65 43.364,124.11 C 44.84,123.425 46.352,122.418 48.044,120.798 L 48.044,120.798 C 48.908,122.417 49.16,124.65 49.196,127.493 C 49.124,130.374 47.216,137.608 47.792,137.825 C 48.296,137.932 50.528,129.294 52.148,128.286 C 53.552,127.241 53.336,134.188 56.9,131.489 C 60.356,128.573 65.288,120.689 73.64,111.329 C 82.064,101.789 93.872,88.721 107.264,75.437 C 120.692,62.153 135.668,48.077 153.308,32.381 L 153.308,32.381 C 152.875,34.685 153.02,36.629 154.136,38.357 C 155.216,40.121 156.871,41.345 159.499,42.569 L 159.499,42.569 C 159.787,44.729 157.735,47.933 153.344,52.325 C 148.808,56.717 139.699,62.621 132.823,68.633 C 125.875,74.393 122.275,76.409 112.015,87.317 C 101.467,98.261 83.035,119.609 71.011,133.866 C 59.095,147.905 49.915,160.18 40.951,171.52 C 31.843,182.752 24.031,192.618 16.975,201.256 L 16.975,201.256 C 14.455,201.221 12.691,201.436 11.287,202.049 C 9.919,202.625 10.279,205.145 8.911,204.604 C 7.507,203.994 5.419,201.689 2.792,198.09 L 2.792,198.09 z "
   style="fill:#a16121;fill-rule:evenodd;stroke:#000000;stroke-width:0.036;stroke-miterlimit:10"
   id="path277" />
	<path
   d="M 46.171,117.811 C 44.911,117.955 41.959,119.719 41.203,120.619 C 40.375,121.447 40.411,122.707 41.167,122.995 C 41.851,123.067 43.903,122.491 45.235,121.843 C 46.459,121.087 48.475,119.864 48.655,119.144 C 48.728,118.422 47.396,117.522 46.171,117.811 L 46.171,117.811 z "
   style="fill:#a16121;fill-rule:evenodd;stroke:#000000;stroke-width:0.036;stroke-miterlimit:10"
   id="path279" />
	<path
   d="M 34.111,168.463 C 37.351,164.106 42.895,158.094 47.827,152.514 C 52.615,146.791 61.651,135.594 62.695,134.875 C 63.595,134.227 59.131,141.246 53.479,148.59 C 47.611,155.899 31.771,174.654 28.459,178.182 C 25.255,181.35 30.799,172.746 34.111,168.463 L 34.111,168.463 z "
   style="fill-rule:evenodd;stroke:#000000;stroke-width:0.036;stroke-miterlimit:10"
   id="path281" />
	<path
   d="M 79.399,117.09 C 80.551,116.262 98.443,97.974 103.519,91.782 C 108.343,85.554 110.071,79.218 108.991,80.01 C 107.803,80.694 102.079,89.838 97.111,96.066 C 92.036,102.258 78.355,117.738 79.399,117.09 L 79.399,117.09 z "
   style="fill-rule:evenodd;stroke:#000000;stroke-width:0.036;stroke-miterlimit:10"
   id="path283" />
	<path
   d="M 43.436,144.811 C 42.176,147.51 37.424,155.288 37.1,155.358 C 36.74,155.288 40.16,149.239 41.384,144.991 C 42.5,140.743 43.652,130.952 44.156,130.052 C 44.48,129.079 44.408,136.675 44.228,139.232 C 44.12,141.605 44.551,142.074 43.436,144.811 L 43.436,144.811 z "
   style="fill-rule:evenodd;stroke:#000000;stroke-width:0.036;stroke-miterlimit:10"
   id="path285" />
	<path
   d="M 131.491,65.61 C 132.319,65.214 140.347,60.174 143.083,57.726 C 145.64,55.242 147.943,51.066 147.224,51.318 C 146.287,51.606 141.247,56.646 138.512,59.202 C 135.812,61.578 130.735,65.79 131.491,65.61 L 131.491,65.61 z "
   style="fill-rule:evenodd;stroke:#000000;stroke-width:0.036;stroke-miterlimit:10"
   id="path287" />
	<path
   d="M 154.676,33.066 C 155.323,32.274 157.988,33.03 159.896,32.814 C 161.732,32.346 165.224,30.582 165.512,31.014 C 165.656,31.518 161.732,33.894 160.94,35.622 C 160.076,37.242 161.084,40.266 160.364,40.662 C 159.465,40.986 157.089,38.826 156.152,37.638 C 155.107,36.198 154.063,33.93 154.676,33.066 L 154.676,33.066 z "
   style="fill:#a16121;fill-rule:evenodd;stroke:#000000;stroke-width:0.036;stroke-miterlimit:10"
   id="path289" />
	<path
   d="M 111.043,239.311 C 112.447,242.731 114.751,245.43 117.955,247.555 C 121.159,249.571 126.631,252.127 130.087,251.875 C 133.471,251.551 135.883,249.535 137.862,245.826 L 137.862,245.826 C 136.674,215.299 135.667,190.566 134.839,170.513 C 133.83,150.497 132.607,145.783 132.679,126.378 C 132.715,106.649 134.37,74.177 135.271,54.089 C 136.027,34.109 136.747,18.809 137.431,7.361 L 137.431,7.361 C 135.379,2.357 132.931,0.053 130.087,0.017 C 127.171,0.053 123.895,2.357 120.114,7.361 L 120.114,7.361 C 118.566,36.449 117.27,65.645 116.226,96.497 C 115.11,127.276 114.426,166.733 113.634,190.852 C 112.735,214.758 111.872,230.635 111.043,239.311 L 111.043,239.311 z "
   style="fill-rule:evenodd;stroke:#000000;stroke-width:0.036;stroke-miterlimit:10"
   id="path291" />
	<path
   d="M 136.136,243.199 C 134.119,209.357 132.932,177.101 132.716,144.631 C 132.428,112.051 134.012,72.594 134.552,49.986 C 134.948,27.522 135.236,14.742 135.272,10.818 L 135.272,10.818 C 132.284,12.762 129.836,13.446 127.64,13.158 C 125.408,12.726 123.716,11.322 122.276,8.658 L 122.276,8.658 C 119.792,38.466 118.064,68.31 116.948,99.558 C 115.832,130.807 116.12,170.982 115.58,194.67 C 114.932,218.215 114.14,232.867 113.204,239.742 L 113.204,239.742 C 117.776,245.25 121.808,248.238 125.732,248.849 C 129.548,249.391 132.968,247.555 136.136,243.199 L 136.136,243.199 z "
   style="fill:#a16121;fill-rule:evenodd;stroke:#000000;stroke-width:0.036;stroke-miterlimit:10"
   id="path293" />
	<path
   d="M 126.775,3.222 C 125.443,3.87 123.607,5.022 123.607,6.534 C 123.535,7.866 124.471,10.746 126.415,11.43 C 128.216,11.97 132.823,11.43 134.264,10.35 C 135.596,9.09 134.875,6.138 134.48,4.806 C 133.904,3.438 132.824,2.826 131.528,2.574 C 130.123,2.286 128.071,2.502 126.775,3.222 L 126.775,3.222 z "
   style="fill:#a16121;fill-rule:evenodd;stroke:#000000;stroke-width:0.036;stroke-miterlimit:10"
   id="path295" />
	<path
   d="M 127.063,6.462 C 127.063,6.57 127.711,8.874 128.863,9.486 C 129.907,9.882 132.464,10.062 133.327,9.486 C 134.048,8.838 133.472,5.814 133.399,5.814 C 133.183,5.742 133.147,8.298 132.463,8.91 C 131.599,9.342 130.015,9.162 129.078,8.766 C 128.107,8.298 127.063,6.282 127.063,6.462 L 127.063,6.462 z "
   style="fill-rule:evenodd;stroke:#000000;stroke-width:0.036;stroke-miterlimit:10"
   id="path297" />
	<path
   d="M 127.712,5.526 C 128.035,5.166 129.367,3.942 130.159,4.23 C 130.735,4.446 131.779,6.426 131.743,6.678 C 131.636,6.822 130.555,5.274 130.015,5.238 C 129.367,5.094 128.467,6.246 128.143,6.318 C 127.747,6.246 127.279,5.886 127.712,5.526 L 127.712,5.526 z "
   style="fill-rule:evenodd;stroke:#000000;stroke-width:0.036;stroke-miterlimit:10"
   id="path299" />
	<path
   d="M 128.216,230.707 C 128.504,231.498 127.424,186.102 127.316,166.734 C 127.172,147.257 127.496,116.478 127.316,115.362 C 126.956,114.425 125.337,141.535 125.516,160.867 C 125.623,180.234 127.819,229.482 128.216,230.707 L 128.216,230.707 z "
   style="fill-rule:evenodd;stroke:#000000;stroke-width:0.036;stroke-miterlimit:10"
   id="path301" />
	<path
   d="M 119.647,180.703 C 120.079,180.631 121.591,133.146 122.815,116.694 C 123.895,100.206 126.811,83.106 126.415,82.89 C 125.875,82.71 121.231,99.414 120.115,115.795 C 119.036,132.174 119.071,180.379 119.647,180.703 L 119.647,180.703 z "
   style="fill-rule:evenodd;stroke:#000000;stroke-width:0.036;stroke-miterlimit:10"
   id="path303" />
	<path
   d="M 130.915,43.254 C 129.26,47.43 122.419,68.994 121.915,70.722 C 121.411,72.162 126.703,56.862 128.215,52.722 C 129.583,48.618 130.483,47.43 130.914,45.954 C 131.275,44.334 132.392,39.042 130.915,43.254 L 130.915,43.254 z "
   style="fill-rule:evenodd;stroke:#000000;stroke-width:0.036;stroke-miterlimit:10"
   id="path305" />
</g>
</svg>