<?xml version="1.0" encoding="UTF-8" standalone="no"?>
<!-- Created with Inkscape (http://www.inkscape.org/) -->
<svg
   xmlns:svg="http://www.w3.org/2000/svg"
   xmlns="http://www.w3.org/2000/svg"
   xmlns:xlink="http://www.w3.org/1999/xlink"
   version="1.0"
   width="369.43045"
   height="370.10245"
   id="svg2">
  <defs
     id="defs4">
    <linearGradient
       id="linearGradient2436">
      <stop
         id="stop2438"
         style="stop-color:#ffffff;stop-opacity:1"
         offset="0" />
      <stop
         id="stop2440"
         style="stop-color:#ffffff;stop-opacity:0"
         offset="1" />
    </linearGradient>
    <linearGradient
       id="linearGradient3233">
      <stop
         id="stop3235"
         style="stop-color:#ffffff;stop-opacity:1"
         offset="0" />
      <stop
         id="stop3237"
         style="stop-color:#ffffff;stop-opacity:0"
         offset="1" />
    </linearGradient>
    <linearGradient
       id="linearGradient4098">
      <stop
         id="stop4100"
         style="stop-color:#ffb142;stop-opacity:1"
         offset="0" />
      <stop
         id="stop4104"
         style="stop-color:#c87600;stop-opacity:1"
         offset="1" />
    </linearGradient>
    <linearGradient
       id="linearGradient3203">
      <stop
         id="stop3205"
         style="stop-color:#ffb142;stop-opacity:1"
         offset="0" />
      <stop
         id="stop4092"
         style="stop-color:#ffb141;stop-opacity:1"
         offset="0.88679248" />
      <stop
         id="stop3207"
         style="stop-color:#c87600;stop-opacity:1"
         offset="1" />
    </linearGradient>
    <linearGradient
       id="linearGradient3173">
      <stop
         id="stop3175"
         style="stop-color:#707070;stop-opacity:1"
         offset="0" />
      <stop
         id="stop3177"
         style="stop-color:#000000;stop-opacity:1"
         offset="1" />
    </linearGradient>
    <linearGradient
       x1="346.23685"
       y1="537.41357"
       x2="359.4718"
       y2="537.41357"
       id="linearGradient3211"
       xlink:href="#linearGradient4098"
       gradientUnits="userSpaceOnUse"
       gradientTransform="translate(0,-2)" />
    <radialGradient
       cx="488.9509"
       cy="582.84967"
       r="167.56416"
       fx="488.9509"
       fy="582.84967"
       id="radialGradient3475"
       xlink:href="#linearGradient3173"
       gradientUnits="userSpaceOnUse"
       gradientTransform="matrix(0,-1.4798236,1.3254777,-3.8490756e-6,-461.82595,1155.7364)" />
    <radialGradient
       cx="355.12189"
       cy="615.60382"
       r="59.254597"
       fx="355.12189"
       fy="615.60382"
       id="radialGradient3483"
       xlink:href="#linearGradient3173"
       gradientUnits="userSpaceOnUse"
       gradientTransform="matrix(-2.8421614e-8,-2.2818022,2.0267841,0,-1051.3358,1276.6775)" />
    <radialGradient
       cx="414.68207"
       cy="-8.8804731"
       r="123.54523"
       fx="414.68207"
       fy="-8.8804731"
       id="radialGradient4090"
       xlink:href="#linearGradient3203"
       gradientUnits="userSpaceOnUse"
       gradientTransform="matrix(-5.8290882e-6,0.8941855,-1.9479265,1.125115e-8,336.39141,255.17411)" />
    <radialGradient
       cx="347.67834"
       cy="652.27606"
       r="59.254597"
       fx="347.67834"
       fy="652.27606"
       id="radialGradient4126"
       xlink:href="#linearGradient3173"
       gradientUnits="userSpaceOnUse"
       gradientTransform="matrix(2.8421614e-8,-2.2818022,-2.0267841,0,1762.0945,1276.6775)" />
    <linearGradient
       x1="348.66412"
       y1="498.27917"
       x2="348.66412"
       y2="545.32019"
       id="linearGradient3262"
       xlink:href="#linearGradient3233"
       gradientUnits="userSpaceOnUse"
       gradientTransform="translate(0,-2)" />
    <linearGradient
       x1="215.66411"
       y1="477.26462"
       x2="196.24121"
       y2="549.75183"
       id="linearGradient3298"
       xlink:href="#linearGradient3233"
       gradientUnits="userSpaceOnUse" />
    <linearGradient
       x1="215.66411"
       y1="477.26462"
       x2="197.11185"
       y2="546.50262"
       id="linearGradient3302"
       xlink:href="#linearGradient3233"
       gradientUnits="userSpaceOnUse"
       gradientTransform="matrix(-1,0,0,1,711.10699,0)" />
    <linearGradient
       x1="332.66412"
       y1="697.36115"
       x2="332.66412"
       y2="733.46991"
       id="linearGradient3325"
       xlink:href="#linearGradient3233"
       gradientUnits="userSpaceOnUse" />
    <linearGradient
       x1="169"
       y1="13.46984"
       x2="169"
       y2="131.29173"
       id="linearGradient3335"
       xlink:href="#linearGradient3233"
       gradientUnits="userSpaceOnUse" />
    <radialGradient
       cx="327.35532"
       cy="536.19635"
       r="73.027054"
       fx="327.35532"
       fy="536.19635"
       id="radialGradient2442"
       xlink:href="#linearGradient2436"
       gradientUnits="userSpaceOnUse"
       gradientTransform="matrix(-4.2194592e-6,1.4924839,-1.8823917,6.5991583e-7,1357.2196,58.53056)" />
  </defs>
  <g
     transform="translate(-170.66411,-366.20177)"
     id="layer1">
    <path
       d="M 318.90625,673.34375 C 270.82299,678.29347 215.67344,717.20222 237.59375,725.6875 C 259.51405,734.1728 323.13543,737.71199 335.15625,727.8125 C 341.33329,722.72552 352.38503,709.98562 353.6875,698.03125 C 354.99173,709.98461 366.01106,722.72601 372.1875,727.8125 C 384.20832,737.71199 447.86094,734.1728 469.78125,725.6875 C 491.70156,717.20222 436.55202,678.29347 388.46875,673.34375 C 363.70896,675.73023 354.80325,684.04956 353.6875,693.59375 C 352.57175,684.04956 343.66604,675.73023 318.90625,673.34375 z"
       id="path3806"
       style="fill:url(#radialGradient4090);fill-opacity:1;fill-rule:evenodd;stroke:#000000;stroke-width:5;stroke-linecap:butt;stroke-linejoin:miter;stroke-miterlimit:4;stroke-dasharray:none;stroke-opacity:1" />
    <path
       d="M 148.25,307.15625 C 124.64955,309.5857 99.369018,320.19634 82.3125,331.375 C 108.14499,343.32183 139.73009,350.68433 173.96875,351.53125 C 178.35601,345.75887 182.28631,338.68101 183.03125,331.84375 C 183.77028,338.61702 187.60844,345.63178 191.9375,351.375 C 225.61361,349.94916 256.54407,342.22927 281.71875,330.0625 C 264.72342,319.37139 240.49647,309.49135 217.8125,307.15625 C 193.05271,309.54274 184.147,317.86206 183.03125,327.40625 C 181.9155,317.86207 173.00979,309.54273 148.25,307.15625 z"
       transform="translate(170.66411,366.20177)"
       id="path3194"
       style="fill:#000000;fill-opacity:0.31372549;fill-rule:evenodd;stroke:none;stroke-width:5;stroke-linecap:butt;stroke-linejoin:miter;stroke-miterlimit:4;stroke-dasharray:none;stroke-opacity:1" />
    <path
       d="M 516.8372,534.26593 A 165.56416,165.56416 0 1 1 185.70888,534.26593 A 165.56416,165.56416 0 1 1 516.8372,534.26593 z"
       id="path2385"
       style="opacity:1;fill:url(#radialGradient3475);fill-opacity:1;fill-rule:nonzero;stroke:#000000;stroke-width:5;stroke-linecap:round;stroke-linejoin:miter;stroke-miterlimit:4;stroke-dasharray:none;stroke-opacity:1" />
    <path
       d="M 317.28125,424.09375 C 294.34652,424.09375 275.71875,445.5278 275.71875,471.9375 C 275.71875,498.34719 294.34652,519.78125 317.28125,519.78125 C 330.75937,519.78125 342.71981,512.37074 350.3125,500.90625 C 357.90467,512.37906 369.89116,519.78125 383.375,519.78125 C 406.30973,519.78125 424.93749,498.34718 424.9375,471.9375 C 424.9375,445.52781 406.30973,424.09376 383.375,424.09375 C 369.89273,424.09375 357.90481,431.49822 350.3125,442.96875 C 342.71966,431.50674 330.75766,424.09376 317.28125,424.09375 z"
       id="path2387"
       style="opacity:1;fill:#ffffff;fill-opacity:1;fill-rule:nonzero;stroke:#000000;stroke-width:5;stroke-linecap:round;stroke-linejoin:miter;stroke-miterlimit:4;stroke-dasharray:none;stroke-opacity:1" />
    <path
       d="M 418.63184,583.05383 A 70.821175,70.821175 0 1 1 276.98949,583.05383 A 70.821175,70.821175 0 1 1 418.63184,583.05383 z"
       transform="matrix(1.1333333,0,0,1.1333333,-41.338584,-43.746347)"
       id="path3167"
       style="opacity:1;fill:url(#radialGradient2442);fill-opacity:1;fill-rule:nonzero;stroke:#000000;stroke-width:4.41176462;stroke-linecap:round;stroke-linejoin:miter;stroke-miterlimit:4;stroke-dasharray:none;stroke-opacity:1" />
    <path
       d="M 352.29932,506.61344 C 337.82032,506.61344 322.08228,519.7996 322.7118,528.12769 C 323.34132,536.45579 348.52219,571.15622 354.18788,571.15622 C 359.85358,571.15622 381.88683,537.1498 381.25731,527.43368 C 380.62779,517.71757 361.74214,505.91942 352.29932,506.61344 z"
       id="path3393"
       style="fill:#000000;fill-opacity:0.31372549;fill-rule:evenodd;stroke:none;stroke-width:5;stroke-linecap:butt;stroke-linejoin:miter;stroke-miterlimit:4;stroke-dasharray:none;stroke-opacity:1" />
    <path
       d="M 350.01399,498.27178 C 335.53499,498.27178 319.79695,510.23269 320.42647,517.78694 C 321.05599,525.3412 346.23686,556.81728 351.90255,556.81728 C 357.56825,556.81728 379.6015,525.97072 378.97198,517.15742 C 378.34246,508.34412 359.45681,497.64225 350.01399,498.27178 z"
       id="path2391"
       style="fill:url(#linearGradient3211);fill-opacity:1;fill-rule:evenodd;stroke:#000000;stroke-width:5;stroke-linecap:butt;stroke-linejoin:miter;stroke-miterlimit:4;stroke-dasharray:none;stroke-opacity:1" />
    <path
       d="M 340.57116,487.36658 A 10.387106,10.387106 0 1 1 319.79695,487.36658 A 10.387106,10.387106 0 1 1 340.57116,487.36658 z"
       transform="translate(2.4772587,-7)"
       id="path3163"
       style="opacity:1;fill:#000000;fill-opacity:1;fill-rule:nonzero;stroke:#000000;stroke-width:5;stroke-linecap:round;stroke-linejoin:miter;stroke-miterlimit:4;stroke-dasharray:none;stroke-opacity:1" />
    <path
       d="M 340.57116,487.36658 A 10.387106,10.387106 0 1 1 319.79695,487.36658 A 10.387106,10.387106 0 1 1 340.57116,487.36658 z"
       transform="translate(39.659858,-7)"
       id="path3165"
       style="opacity:1;fill:#000000;fill-opacity:1;fill-rule:nonzero;stroke:#000000;stroke-width:5;stroke-linecap:round;stroke-linejoin:miter;stroke-miterlimit:4;stroke-dasharray:none;stroke-opacity:1" />
    <path
       d="M 226.40068,497.24676 C 274.51188,514.54679 212.23725,591.38947 264.21982,658.43855 C 273.8282,670.83181 206.35186,660.52932 182.49704,591.8535 C 159.29873,525.06774 181.36468,484.31442 226.40068,497.24676 z"
       id="path3169"
       style="fill:#ffffff;fill-opacity:1;fill-rule:evenodd;stroke:#000000;stroke-width:5;stroke-linecap:butt;stroke-linejoin:miter;stroke-miterlimit:4;stroke-dasharray:none;stroke-opacity:1" />
    <path
       d="M 226.40068,497.24676 C 274.51188,514.54679 183.81231,599.37043 264.21982,658.43855 C 286.84629,675.06017 206.35186,660.52932 182.49704,591.8535 C 159.29873,525.06774 181.36468,484.31442 226.40068,497.24676 z"
       id="path3793"
       style="fill:url(#radialGradient3483);fill-opacity:1;fill-rule:evenodd;stroke:#000000;stroke-width:5;stroke-linecap:butt;stroke-linejoin:miter;stroke-miterlimit:4;stroke-dasharray:none;stroke-opacity:1" />
    <path
       d="M 484.35799,497.24676 C 436.24679,514.54679 498.52142,591.38947 446.53885,658.43855 C 436.93047,670.83181 504.40681,660.52932 528.26163,591.8535 C 551.45994,525.06774 529.39399,484.31442 484.35799,497.24676 z"
       id="path3800"
       style="fill:#ffffff;fill-opacity:1;fill-rule:evenodd;stroke:#000000;stroke-width:5;stroke-linecap:butt;stroke-linejoin:miter;stroke-miterlimit:4;stroke-dasharray:none;stroke-opacity:1" />
    <path
       d="M 484.35799,497.24676 C 436.24679,514.54679 526.94636,599.37043 446.53885,658.43855 C 423.91238,675.06017 504.40681,660.52932 528.26163,591.8535 C 551.45994,525.06774 529.39399,484.31442 484.35799,497.24676 z"
       id="path3802"
       style="fill:url(#radialGradient4126);fill-opacity:1;fill-rule:evenodd;stroke:#000000;stroke-width:5;stroke-linecap:butt;stroke-linejoin:miter;stroke-miterlimit:4;stroke-dasharray:none;stroke-opacity:1" />
    <path
       d="M 349.28125,502.34375 C 339.58418,503.14431 327.55814,507.67945 324.90625,517.9375 C 328.72165,529.24696 338.11558,537.3307 345.0625,546.625 C 347.45357,549.22035 351.79265,554.30789 354.78125,549.8125 C 363.60329,541.19578 370.44853,530.2565 374.65625,518.71875 C 373.35918,509.49816 363.08975,505.68645 355.375,503.0625 C 353.37278,502.57583 351.37468,502.20722 349.28125,502.34375 z"
       id="path3244"
       style="fill:url(#linearGradient3262);fill-opacity:1;fill-rule:evenodd;stroke:none;stroke-width:5;stroke-linecap:butt;stroke-linejoin:miter;stroke-miterlimit:4;stroke-dasharray:none;stroke-opacity:1" />
    <path
       d="M 207.28125,498.9375 C 189.40399,499.96425 177.60468,518.28942 177.75,535.09375 C 175.40801,564.45037 184.58587,594.18854 200.96875,618.40625 C 215.09758,637.81983 235.43254,653.11265 258.71875,659.53125 C 239.0705,644.59838 225.54149,621.20712 225.34869,596.1566 C 224.0865,570.16381 235.18447,545.7805 237.34375,520.25 C 238.38017,511.37298 232.80597,502.67082 224,500.65625 C 218.5921,499.00854 212.93207,498.76892 207.28125,498.9375 z"
       id="path3278"
       style="fill:url(#linearGradient3298);fill-opacity:1;fill-rule:evenodd;stroke:none;stroke-width:5;stroke-linecap:butt;stroke-linejoin:miter;stroke-miterlimit:4;stroke-dasharray:none;stroke-opacity:1" />
    <path
       d="M 503.82574,498.9375 C 521.703,499.96425 533.50231,518.28942 533.35699,535.09375 C 535.69898,564.45037 526.52112,594.18854 510.13824,618.40625 C 496.00941,637.81983 475.67445,653.11265 452.38824,659.53125 C 472.03649,644.59838 485.5655,621.20712 485.7583,596.1566 C 487.02049,570.16381 475.92252,545.7805 473.76324,520.25 C 472.72682,511.37298 478.30102,502.67082 487.10699,500.65625 C 492.51489,499.00854 498.17492,498.76892 503.82574,498.9375 z"
       id="path3300"
       style="fill:url(#linearGradient3302);fill-opacity:1;fill-rule:evenodd;stroke:none;stroke-width:5;stroke-linecap:butt;stroke-linejoin:miter;stroke-miterlimit:4;stroke-dasharray:none;stroke-opacity:1" />
    <path
       d="M 451.75,699.875 C 425.70733,712.10249 396.97845,718.31095 368.46875,720.375 C 378.48542,732.3355 395.56695,729.87304 409.5625,730.78125 C 430.00719,730.74992 451.00608,728.81214 470.25,722.1875 C 474.17546,718.48775 468.7051,713.80946 466.375,710.875 C 462.17246,706.68776 456.90541,702.37923 451.75,699.875 z M 252.15625,701.90625 C 245.89929,706.90372 236.45805,711.6573 236.0625,720.6875 C 240.60501,725.90865 248.48446,724.76275 254.54595,726.86866 C 279.46428,730.91425 305.85005,733.5147 330.53125,727.0625 C 333.61465,725.50382 336.28075,723.03837 338.53125,720.5 C 309.26045,719.16174 280.03947,713.01864 253.3125,701 L 252.52544,701.61688 L 252.15625,701.90625 z"
       id="path3306"
       style="fill:url(#linearGradient3325);fill-opacity:1;fill-rule:evenodd;stroke:none;stroke-width:5;stroke-linecap:butt;stroke-linejoin:miter;stroke-miterlimit:4;stroke-dasharray:none;stroke-opacity:1" />
    <path
       d="M 268,90.102448 A 93.5,58 0 1 1 81,90.102448 A 93.5,58 0 1 1 268,90.102448 z"
       transform="matrix(0.9963121,0,0,0.9963121,177.30767,341.53407)"
       id="path3327"
       style="opacity:1;fill:url(#linearGradient3335);fill-opacity:1;fill-rule:nonzero;stroke:none;stroke-width:4;stroke-linecap:round;stroke-linejoin:round;stroke-miterlimit:4;stroke-dasharray:none;stroke-opacity:1" />
  </g>
</svg>
