<?xml version="1.0" encoding="utf-8"?>
<!-- Generator: Adobe Illustrator 13.0.0, SVG Export Plug-In . SVG Version: 6.00 Build 14576)  -->
<!DOCTYPE svg PUBLIC "-//W3C//DTD SVG 1.1//EN" "http://www.w3.org/Graphics/SVG/1.1/DTD/svg11.dtd">
<svg version="1.1" id="Layer_1" xmlns="http://www.w3.org/2000/svg" xmlns:xlink="http://www.w3.org/1999/xlink" x="0px" y="0px"
	 width="108.429px" height="129.6px" viewBox="0 0 108.429 129.6" enable-background="new 0 0 108.429 129.6" xml:space="preserve">
<path fill-rule="evenodd" clip-rule="evenodd" d="M108.057,90.358c-1.132-5.847-5.88-11.787-10.319-13.92
	c-4.406-2.117-9.21-1.198-14.16,1.439c-1.092-1.148-2.609-1.871-3.84-2.88c0.003-6.435-8.169-13.552-1.681-18.24
	c1.617,0.097,2.827-0.214,4.08-0.479c0.777,4.097,7.986,3.528,7.92-0.48c-0.239-0.881-0.927-1.312-0.96-2.399
	c-1.218-0.097-2.264-1.278-3.84-1.681c-1.02-0.999-0.873-2.824-1.439-4.08c-1.635-3.624-4.662-6.231-6.96-9.12
	c-1.072-1.346-2.817-3.072-3.36-4.56c-1.537-4.21-2.436-9.194-4.8-13.68c-0.703-0.577-1.54-1.02-1.92-1.92
	c0.83,0.19,1.013-0.267,1.439-0.48c1.702-3.294,2.394-7.911,2.16-11.52c0.38-0.9,1.667-0.894,1.92-1.92
	c0.132-1.651-1.348-2.277-2.399-3.36c-2.766-0.529-6.283-1.652-10.08-0.72c-1.928,1.07-2.747,2.247-4.32,4.08
	c-1.138,1.325-2.32,2.096-2.4,3.12c-0.198,2.54,2.087,1.992,2.881,4.32c-0.159,0.058-0.307,0.13-0.464,0.192
	c0.012,0.043,0.023,0.086,0.023,0.138v0.24c0.1,0.541,0.119,1.094,0.232,1.627h-0.001c0.005,0.044,0.014,0.088,0.019,0.133
	c0.014,0.115-0.017,0.209-0.072,0.285c0.334,0.002,0.605,0.066,0.502,0.505c-0.265,0.003-0.543,0.022-0.786,0.004
	c-0.079,0.122-0.208,0.209-0.394,0.206c-1.604-0.027-3.123,0.266-4.543,0.799c-0.916,0.516-1.857,0.982-2.805,1.443
	c-0.312,0.208-0.611,0.437-0.91,0.667c-3.871,4.081-6.708,9.21-9.522,13.92c-2.553,4.273-5.019,8.729-6.72,13.68
	c-0.297,0.776,0.776,0.184,0.48,0.96c-1.902,3.167-2.891,7.02-2.4,12c0.814,0.781,0.719,1.939,1.2,2.641
	c2.782,4.059,7.991,3.147,12,4.56c-0.022,2.426,0.489,4.553,1.2,7.2c0.582,2.168,2.125,4.391,1.92,5.76
	c-0.327,2.172-3.628,3.441-6.24,4.32c0.054-0.454-0.271-0.529-0.24-0.96c-0.957-0.237-0.723,0.717-1.68,0.479
	c-4.918-4.297-12.275-3.414-18.24-2.88c-1.736,0.155-3.425,1.789-5.28,2.88c-1.197,0.704-2.718,1.151-3.6,1.92
	c-5.349,4.66-9.115,12.99-9.601,20.4c-0.425,6.493,1.578,11.231,4.08,15.12c3.562,5.535,11.803,10.312,19.681,9.359
	c1.669-0.201,3.975-1.598,5.52-0.96c0.983-1.096,2.56-1.601,4.32-1.92c3.475-1.885,5.46-5.26,7.68-8.399
	c0.731-4.227,4.188-9.016,4.08-13.44c1.022-0.018,1.679-0.401,2.88-0.24c-0.538,4.089,2.598,6.494,6.476,6.959
	c0.305-0.039,0.652,0.211,0.58,0.615c-0.027,0.154-0.043,0.31-0.06,0.464c0.401,0.039,0.8,0.306,1.119,0.59
	c0.199,0.08,0.4,0.156,0.603,0.226c3.561-0.376,7.13-0.054,10.704-0.066c0.028-0.241,0.212-0.487,0.485-0.513
	c1.465-0.136,2.916-0.217,4.367-0.482c0.098-0.018,0.183-0.004,0.262,0.023c0.19-0.062,0.379-0.129,0.571-0.189
	c0.068-0.021,0.133-0.027,0.192-0.021c0.327-0.424,0.625-0.872,0.86-1.364c2.415,4.188,7.621,8.017,12,8.16
	c10.62,0.349,17.295-6.545,20.4-14.64C108.187,100.812,108.917,94.797,108.057,90.358z M36.057,88.198
	c-2.785,4.895-6.323,9.036-9.6,13.439c-0.074-0.325-0.601-0.199-0.96-0.239c3.093-4.667,5.867-9.653,9.84-13.44
	C35.53,88.085,35.727,88.208,36.057,88.198z M40.377,110.278c-0.472,1.241-1.734,2.507-2.399,4.08
	c-1.169,2.76-1.765,5.262-3.841,6.96c-0.824-0.105-1.345,0.095-1.92,0.239c-4.044,3.196-10.84,3.082-14.88,2.4
	c-3.233-0.546-4.562-1.652-6.72-4.08c-3.174-3.571-6.296-8.03-6-14.16c0.364-7.539,4.517-13.732,9.12-18.24
	c0.758,0.376,1.054-0.132,1.92-0.239c4.644-3.563,12.931-5.475,18-0.721c-4.839,3.962-7.245,10.355-11.76,14.641
	c0.38,2.437-2.231,3.591-3.12,5.52c0.045,0.915,1.772,0.147,2.16,0.721c0.447,4.363,7.968,3.721,8.399-0.24
	c4.401-0.104,7.066-1.193,11.76-1.92C40.452,106.638,40.975,108.706,40.377,110.278z M30.057,104.758
	c-1.595-1.407-0.34-2.222,0.48-3.6c1.574-2.644,4.582-7.036,6.24-9.36c3.337,2.329,3.884,6.761,4.319,10.561
	C37.542,103.587,33.823,103.596,30.057,104.758z M85.018,93.478c-2.136-1.954-3.209-6.218-3.12-9.6
	C83.299,86.717,84.043,90.212,85.018,93.478z M76.377,74.278c-2.285,3.795-4.272,7.887-7.439,10.8
	c0.595-2.183,0.67-6.375,1.199-9.36c-0.086-0.873-1.036-0.883-1.439-1.439c0.103-0.377,0.755-0.205,0.479-0.96
	c1.918,0.451,3.853-0.871,5.28-1.681c0.306,0.055,0.314,0.717,0,0.721C75.169,72.927,76.206,73.169,76.377,74.278z M62.697,34.678
	c2.049,1.478,3.96,5.884,7.2,6.24c3.203,4.877,7.21,8.95,10.56,13.68c-3.247,0.056-5.579-0.607-9.84-0.239
	c0.026-0.775-0.512-1.495-0.96-2.4c-1.771-0.029-2.141-0.883-3.84-0.48c-0.265-2.08-0.768-4.471-1.681-7.199
	c-0.547-1.638-1.645-3.366-1.68-4.561C62.402,37.853,63.964,36.423,62.697,34.678z M43.978,67.318c1.862,0.32,3.863,2.519,5.52,3.84
	c-1.201,1.279-2.429,2.531-3.12,4.319C45.314,73.611,44.955,69.956,43.978,67.318z M48.297,91.318
	c-1.064,0.024-0.833-1.247-1.68-1.44c0.065-0.494,0.894-0.226,0.96-0.72C47.979,89.717,48.204,90.451,48.297,91.318z
	 M45.657,101.878c-0.144-1.424,0.421-2.139,0.24-3.6c1.957-0.139,2.841,2.034,4.56,0.72
	C50.471,100.888,48.297,102.417,45.657,101.878z M55.737,109.558c-0.254-0.894,0.505-0.774,0.72-1.199
	C57.007,108.618,56.549,109.866,55.737,109.558z M56.938,107.878c-0.449,0.423,0.242-1.716,0.479-2.16
	C57.884,106.123,56.981,107.189,56.938,107.878z M58.137,104.998c-0.525-1.014,0.49-2.545,0.721-3.6
	C59.664,102.692,58.095,103.67,58.137,104.998z M58.617,98.038c-0.512-0.934-3.007-1.146-3.84-0.96
	c-3.033-3.394-3.622-7.976-4.32-12.24c1.654-0.826,1.742-3.218,2.88-4.56c1.218,0.097,1.717-0.523,2.16-1.2
	c0.05-1.144-1.223-1.229-0.479-2.4c1.637,1.644,3.772,2.787,5.039,4.8C57.381,86.17,58.708,92.936,58.617,98.038z M53.817,51.238
	c-0.441-4.271,0.125-6.343,2.64-8.88c0.53,3.202,2.432,5.687,2.4,8.159c0.859,0.66,1.643,1.397,1.68,2.881
	c3.307,3.835,8.762,4.792,13.2,3.6c-0.383,2.17-1.968,3.683-2.4,6.479c1.635,1.736,2.034,3.573,2.88,5.761
	c-1.559,0.761-2.869,1.771-4.8,2.16C68.538,60.822,58.836,58.314,53.817,51.238z M73.978,110.278
	c-1.586-0.652-2.956-1.984-4.561-1.92c-1.3-1.021-2.084-2.556-3.12-3.841c0.291-4.005,1.18-8.042,1.681-12.96
	c3.085-4.354,6.217-8.662,8.88-13.439c0.625,0.369,0.697,2.417,1.439,3.359c-2.027,3.173-4.172,6.229-5.76,9.841
	C70.712,98.783,70.965,104.637,73.978,110.278z M101.817,105.718c-1.913,3.563-4.029,5.531-6.96,7.92
	c-3.791-0.02-9.122,1.126-13.44-0.72c-0.751-0.929-1.742-1.618-2.88-2.16c-4.291-5.912-3.707-17.354,0.72-23.76
	c1.839,3.007,1.919,6.339,3.12,9.84c1.139,0.382,1.994,1.046,3.12,1.44c2.358-1.203,6.284,1.709,8.16-0.721
	c-1.393-1.487-2.898-2.861-4.32-4.319c-0.968-4.473-3.555-7.325-4.56-11.761c3.915-3.602,9.32-2.898,13.439,0.24
	c3.899,2.972,5.652,8.557,6,13.92C104.484,99.767,103.585,102.424,101.817,105.718z"/>
</svg>
