<?xml version="1.0" encoding="UTF-8" standalone="no"?>
<!-- Created with Inkscape (http://www.inkscape.org/) -->
<svg xmlns:dc="http://purl.org/dc/elements/1.1/" xmlns:cc="http://creativecommons.org/ns#" xmlns:rdf="http://www.w3.org/1999/02/22-rdf-syntax-ns#" xmlns:svg="http://www.w3.org/2000/svg" xmlns="http://www.w3.org/2000/svg" xmlns:xlink="http://www.w3.org/1999/xlink" xmlns:sodipodi="http://sodipodi.sourceforge.net/DTD/sodipodi-0.dtd" xmlns:inkscape="http://www.inkscape.org/namespaces/inkscape" width="371.93961" height="513.62225" id="svg2" version="1.1" inkscape:version="0.48.2 r9819" sodipodi:docname="treeicon.svg">
  <defs id="defs4">
    <linearGradient inkscape:collect="always" id="linearGradient4004">
      <stop style="stop-color:#ffffff;stop-opacity:1;" offset="0" id="stop4006"/>
      <stop style="stop-color:#ffffff;stop-opacity:0;" offset="1" id="stop4008"/>
    </linearGradient>
    <linearGradient inkscape:collect="always" id="linearGradient3978">
      <stop style="stop-color:#ffffff;stop-opacity:1;" offset="0" id="stop3980"/>
      <stop style="stop-color:#ffffff;stop-opacity:0;" offset="1" id="stop3982"/>
    </linearGradient>
    <linearGradient inkscape:collect="always" id="linearGradient3186">
      <stop style="stop-color:#ffffff;stop-opacity:1;" offset="0" id="stop3188"/>
      <stop style="stop-color:#ffffff;stop-opacity:0;" offset="1" id="stop3190"/>
    </linearGradient>
    <linearGradient inkscape:collect="always" id="linearGradient3100">
      <stop style="stop-color:#743800;stop-opacity:1;" offset="0" id="stop3102"/>
      <stop style="stop-color:#985c00;stop-opacity:1" offset="1" id="stop3104"/>
    </linearGradient>
    <linearGradient id="linearGradient3090" inkscape:collect="always">
      <stop id="stop3092" offset="0" style="stop-color:#006400;stop-opacity:1"/>
      <stop id="stop3094" offset="1" style="stop-color:#00b800;stop-opacity:1"/>
    </linearGradient>
    <linearGradient inkscape:collect="always" id="linearGradient3075">
      <stop style="stop-color:#009400;stop-opacity:1" offset="0" id="stop3077"/>
      <stop style="stop-color:#00b800;stop-opacity:1" offset="1" id="stop3079"/>
    </linearGradient>
    <linearGradient inkscape:collect="always" id="linearGradient3067">
      <stop style="stop-color:#00b400;stop-opacity:1" offset="0" id="stop3069"/>
      <stop style="stop-color:#38d400;stop-opacity:1" offset="1" id="stop3071"/>
    </linearGradient>
    <linearGradient inkscape:collect="always" id="linearGradient3035">
      <stop style="stop-color:#00b400;stop-opacity:1;" offset="0" id="stop3037"/>
      <stop style="stop-color:#004400;stop-opacity:1" offset="1" id="stop3039"/>
    </linearGradient>
    <linearGradient inkscape:collect="always" id="linearGradient3027">
      <stop style="stop-color:#00b400;stop-opacity:1;" offset="0" id="stop3029"/>
      <stop style="stop-color:#009800;stop-opacity:1" offset="1" id="stop3031"/>
    </linearGradient>
    <linearGradient inkscape:collect="always" id="linearGradient3019">
      <stop style="stop-color:#00b400;stop-opacity:1;" offset="0" id="stop3021"/>
      <stop style="stop-color:#007800;stop-opacity:1" offset="1" id="stop3023"/>
    </linearGradient>
    <linearGradient inkscape:collect="always" id="linearGradient3011">
      <stop style="stop-color:#00b400;stop-opacity:1;" offset="0" id="stop3013"/>
      <stop style="stop-color:#48d800;stop-opacity:1" offset="1" id="stop3015"/>
    </linearGradient>
    <linearGradient inkscape:collect="always" id="linearGradient3003">
      <stop style="stop-color:#00b400;stop-opacity:1;" offset="0" id="stop3005"/>
      <stop style="stop-color:#24d000;stop-opacity:1" offset="1" id="stop3007"/>
    </linearGradient>
    <linearGradient inkscape:collect="always" xlink:href="#linearGradient3003" id="linearGradient3009" x1="177.69254" y1="341.17871" x2="176.26396" y2="444.03586" gradientUnits="userSpaceOnUse"/>
    <linearGradient inkscape:collect="always" xlink:href="#linearGradient3011" id="linearGradient3017" x1="394.87744" y1="333.93433" x2="397.73459" y2="448.22003" gradientUnits="userSpaceOnUse"/>
    <linearGradient inkscape:collect="always" xlink:href="#linearGradient3019" id="linearGradient3025" x1="191.42857" y1="238.07646" x2="194.28572" y2="328.07648" gradientUnits="userSpaceOnUse"/>
    <linearGradient inkscape:collect="always" xlink:href="#linearGradient3027" id="linearGradient3033" x1="321.42856" y1="205.21933" x2="321.42856" y2="300.93362" gradientUnits="userSpaceOnUse"/>
    <linearGradient inkscape:collect="always" xlink:href="#linearGradient3035" id="linearGradient3041" x1="358.57144" y1="255.21933" x2="361.42856" y2="339.50504" gradientUnits="userSpaceOnUse"/>
    <linearGradient inkscape:collect="always" xlink:href="#linearGradient3067" id="linearGradient3073" x1="258.57144" y1="196.6479" x2="257.14285" y2="149.50504" gradientUnits="userSpaceOnUse"/>
    <linearGradient inkscape:collect="always" xlink:href="#linearGradient3075" id="linearGradient3081" x1="271.24081" y1="462.95303" x2="271.24081" y2="358.88773" gradientUnits="userSpaceOnUse"/>
    <linearGradient inkscape:collect="always" xlink:href="#linearGradient3090" id="linearGradient3088" x1="296.98486" y1="381.62088" x2="294.96454" y2="310.91022" gradientUnits="userSpaceOnUse"/>
    <linearGradient inkscape:collect="always" xlink:href="#linearGradient3090" id="linearGradient3098" gradientUnits="userSpaceOnUse" x1="296.98486" y1="381.62088" x2="294.96454" y2="310.91022"/>
    <linearGradient inkscape:collect="always" xlink:href="#linearGradient3100" id="linearGradient3106" x1="307.08636" y1="522.0321" x2="243.44676" y2="524.05243" gradientUnits="userSpaceOnUse"/>
    <linearGradient inkscape:collect="always" xlink:href="#linearGradient3186" id="linearGradient3192" x1="236.3757" y1="171.50917" x2="220.21326" y2="430.10822" gradientUnits="userSpaceOnUse" gradientTransform="matrix(0.91762113,0,0,0.91762113,22.585143,24.776733)"/>
    <linearGradient inkscape:collect="always" xlink:href="#linearGradient3978" id="linearGradient3984" x1="328.29959" y1="552.33667" x2="289.91379" y2="551.32654" gradientUnits="userSpaceOnUse"/>
    <filter inkscape:collect="always" id="filter3998" x="-0.068035714" width="1.1360714" y="-0.50800002" height="2.016" color-interpolation-filters="sRGB">
      <feGaussianBlur inkscape:collect="always" stdDeviation="9.0714286" id="feGaussianBlur4000"/>
    </filter>
    <linearGradient inkscape:collect="always" xlink:href="#linearGradient4004" id="linearGradient4010" x1="273.75134" y1="168.4787" x2="273.75134" y2="241.2728" gradientUnits="userSpaceOnUse"/>
  </defs>
  <sodipodi:namedview id="base" pagecolor="#ffffff" bordercolor="#666666" borderopacity="1.0" inkscape:pageopacity="0.0" inkscape:pageshadow="2" inkscape:zoom="0.35" inkscape:cx="-121.20023" inkscape:cy="193.72051" inkscape:document-units="px" inkscape:current-layer="layer1" showgrid="false" inkscape:window-width="1366" inkscape:window-height="706" inkscape:window-x="-8" inkscape:window-y="-8" inkscape:window-maximized="1" fit-margin-top="0" fit-margin-left="0" fit-margin-right="0" fit-margin-bottom="0"/>
  <g inkscape:label="Layer 1" inkscape:groupmode="layer" id="layer1" transform="translate(-89.831794,-129.08276)">
    <path sodipodi:type="arc" style="fill:url(#linearGradient3025);fill-opacity:1;stroke:none" id="path2985" sodipodi:cx="204.05081" sodipodi:cy="278.58533" sodipodi:rx="72.73098" sodipodi:ry="72.73098" d="m 276.78179,278.58533 c 0,40.16821 -32.56277,72.73098 -72.73098,72.73098 -40.16821,0 -72.73098,-32.56277 -72.73098,-72.73098 0,-40.16821 32.56277,-72.73098 72.73098,-72.73098 40.16821,0 72.73098,32.56277 72.73098,72.73098 z"/>
    <path sodipodi:type="arc" style="fill:#00b400;fill-opacity:1;stroke:none" id="path3001" sodipodi:cx="219.20311" sodipodi:cy="211.91527" sodipodi:rx="28.284271" sodipodi:ry="28.284271" d="m 247.48738,211.91527 c 0,15.62097 -12.6633,28.28427 -28.28427,28.28427 -15.62097,0 -28.28427,-12.6633 -28.28427,-28.28427 0,-15.62097 12.6633,-28.28427 28.28427,-28.28427 15.62097,0 28.28427,12.6633 28.28427,28.28427 z"/>
    <path sodipodi:type="arc" style="fill:url(#linearGradient3073);fill-opacity:1;stroke:none" id="path2987" sodipodi:cx="263.64981" sodipodi:cy="186.66145" sodipodi:rx="57.578693" sodipodi:ry="57.578693" d="m 321.2285,186.66145 c 0,31.79984 -25.77885,57.5787 -57.57869,57.5787 -31.79983,0 -57.57869,-25.77886 -57.57869,-57.5787 0,-31.79983 25.77886,-57.57869 57.57869,-57.57869 31.79984,0 57.57869,25.77886 57.57869,57.57869 z"/>
    <path sodipodi:type="arc" style="fill:url(#linearGradient3033);fill-opacity:1;stroke:none" id="path2989" sodipodi:cx="310.11682" sodipodi:cy="255.35182" sodipodi:rx="65.659912" sodipodi:ry="65.659912" d="m 375.77673,255.35182 c 0,36.26297 -29.39694,65.65991 -65.65991,65.65991 -36.26297,0 -65.65991,-29.39694 -65.65991,-65.65991 0,-36.26297 29.39694,-65.65991 65.65991,-65.65991 36.26297,0 65.65991,29.39694 65.65991,65.65991 z"/>
    <path sodipodi:type="arc" style="fill:url(#linearGradient3041);fill-opacity:1;stroke:none" id="path2991" sodipodi:cx="360.62445" sodipodi:cy="303.83914" sodipodi:rx="59.598999" sodipodi:ry="59.598999" d="m 420.22345,303.83914 c 0,32.91562 -26.68338,59.599 -59.599,59.599 -32.91562,0 -59.599,-26.68338 -59.599,-59.599 0,-32.91562 26.68338,-59.599 59.599,-59.599 32.91562,0 59.599,26.68338 59.599,59.599 z"/>
    <path sodipodi:type="arc" style="fill:#00b400;fill-opacity:1;stroke:none" id="path2993" sodipodi:cx="277.79196" sodipodi:cy="336.16403" sodipodi:rx="73.741135" sodipodi:ry="73.741135" d="m 351.5331,336.16403 c 0,40.72611 -33.01503,73.74114 -73.74114,73.74114 -40.7261,0 -73.74113,-33.01503 -73.74113,-73.74114 0,-40.7261 33.01503,-73.74113 73.74113,-73.74113 40.72611,0 73.74114,33.01503 73.74114,73.74113 z"/>
    <path sodipodi:type="arc" style="opacity:0.62999998;fill:#743800;fill-opacity:1;stroke:none;filter:url(#filter3998)" id="path3986" sodipodi:cx="281.42856" sodipodi:cy="616.64789" sodipodi:rx="160" sodipodi:ry="21.428572" d="m 441.42856,616.64789 c 0,11.83467 -71.63444,21.42857 -160,21.42857 -88.36556,0 -160,-9.5939 -160,-21.42857 0,-11.83468 71.63444,-21.42857 160,-21.42857 88.36556,0 160,9.59389 160,21.42857 z" transform="translate(-1.4285714,-17.142857)"/>
    <path style="fill:url(#linearGradient3106);fill-opacity:1;stroke:none" d="m 234.86046,440.71481 41.16372,0 41.16371,0 c 0,0 0,30.65496 0,94.19672 0,63.54177 45.71428,94.19673 45.71428,94.19673 l -58.43899,-22.85714 -28.439,22.85714 -26.65329,-22.85714 -56.65328,22.85714 c 0,0 42.14285,-29.22639 42.14285,-94.19673 0,-64.97033 0,-94.19672 0,-94.19672 z" id="rect3083" inkscape:connector-curvature="0" sodipodi:nodetypes="ccczccccczc"/>
    <path transform="translate(-72.121831,-7.5910121)" d="m 343.45186,364.4483 c 0,30.12616 -24.42208,54.54824 -54.54823,54.54824 -30.12616,0 -54.54824,-24.42208 -54.54824,-54.54824 0,-30.12616 24.42208,-54.54823 54.54824,-54.54823 30.12615,0 54.54823,24.42207 54.54823,54.54823 z" sodipodi:ry="54.548237" sodipodi:rx="54.548237" sodipodi:cy="364.4483" sodipodi:cx="288.90363" id="path3096" style="fill:url(#linearGradient3098);fill-opacity:1;stroke:none" sodipodi:type="arc"/>
    <path sodipodi:type="arc" style="fill:url(#linearGradient3009);fill-opacity:1;stroke:none" id="path2995" sodipodi:cx="211.12189" sodipodi:cy="390.71228" sodipodi:rx="87.88327" sodipodi:ry="87.88327" d="m 299.00516,390.71228 c 0,48.53659 -39.34668,87.88327 -87.88327,87.88327 -48.53659,0 -87.88327,-39.34668 -87.88327,-87.88327 0,-48.53659 39.34668,-87.88327 87.88327,-87.88327 48.53659,0 87.88327,39.34668 87.88327,87.88327 z" transform="translate(-33.406823,5.4691816)"/>
    <path sodipodi:type="arc" style="fill:url(#linearGradient3088);fill-opacity:1;stroke:none" id="path3086" sodipodi:cx="288.90363" sodipodi:cy="364.4483" sodipodi:rx="54.548237" sodipodi:ry="54.548237" d="m 343.45186,364.4483 c 0,30.12616 -24.42208,54.54824 -54.54823,54.54824 -30.12616,0 -54.54824,-24.42208 -54.54824,-54.54824 0,-30.12616 24.42208,-54.54823 54.54824,-54.54823 30.12615,0 54.54823,24.42207 54.54823,54.54823 z" transform="translate(27.878169,-19.019584)"/>
    <path sodipodi:type="arc" style="fill:url(#linearGradient3017);fill-opacity:1;stroke:none" id="path2997" sodipodi:cx="364.66507" sodipodi:cy="380.61075" sodipodi:rx="93.944183" sodipodi:ry="93.944183" d="m 458.60925,380.61075 c 0,51.88394 -42.06024,93.94418 -93.94418,93.94418 -51.88394,0 -93.94418,-42.06024 -93.94418,-93.94418 0,-51.88394 42.06024,-93.94419 93.94418,-93.94419 51.88394,0 93.94418,42.06025 93.94418,93.94419 z" transform="translate(0.83683776,5.5707074)"/>
    <path sodipodi:type="arc" style="fill:url(#linearGradient3081);fill-opacity:1;stroke:none" id="path2999" sodipodi:cx="268.1955" sodipodi:cy="405.35947" sodipodi:rx="66.164993" sodipodi:ry="66.164993" d="m 334.36049,405.35947 c 0,36.54191 -29.62308,66.16499 -66.16499,66.16499 -36.54192,0 -66.165,-29.62308 -66.165,-66.16499 0,-36.54192 29.62308,-66.165 66.165,-66.165 36.54191,0 66.16499,29.62308 66.16499,66.165 z" transform="translate(8.5714286,8.5714286)"/>
    <path style="opacity:0.32039998;fill:url(#linearGradient3192);fill-opacity:1;stroke:none" d="m 264.52169,143.23589 c -29.1802,0 -52.84924,23.64037 -52.84924,52.82056 0,0.0575 -1.9e-4,0.11457 0,0.17206 -6.9821,3.66844 -12.06176,10.43856 -13.47756,18.46712 -31.31051,5.50647 -55.11462,32.83556 -55.11462,65.72461 0,12.55644 3.49054,24.29349 9.52032,34.32477 -28.04717,12.62628 -47.57292,40.82805 -47.57292,73.58174 0,29.93786 16.29843,56.05796 40.51871,69.96861 5.42371,-18.35079 27.36284,-78.84388 91.15992,-123.19063 63.22161,-43.94673 100.17066,-46.21202 139.07695,-81.46755 -2.87139,-1.2825 -5.86762,-2.32039 -8.97548,-3.09697 -3.68133,-25.92442 -23.86973,-46.51359 -49.58022,-50.84195 0.0816,-1.20132 0.11471,-2.41978 0.11471,-3.64181 0,-29.18019 -23.64037,-52.82056 -52.82057,-52.82056 z" id="path3150" inkscape:connector-curvature="0"/>
    <path style="opacity:0.3;fill:url(#linearGradient3984);fill-opacity:1;stroke:none" d="m 317.1879,465.46355 c 0,0 -5.05076,57.5787 -1.01015,88.89343 4.04061,31.31473 25.25381,52.52793 25.25381,52.52793 0,0 -40.02847,-8.91826 -47.47717,-58.58885 -7.4487,-49.67059 23.23351,-82.83251 23.23351,-82.83251 z" id="path3208" inkscape:connector-curvature="0" sodipodi:nodetypes="czczc"/>
    <path sodipodi:type="arc" style="opacity:0.13059998;fill:url(#linearGradient4010);fill-opacity:1;stroke:none" id="path4002" sodipodi:cx="274.76151" sodipodi:cy="203.83405" sodipodi:rx="41.416256" sodipodi:ry="41.416256" d="m 316.17776,203.83405 c 0,22.87356 -18.54269,41.41625 -41.41625,41.41625 -22.87357,0 -41.41626,-18.54269 -41.41626,-41.41625 0,-22.87357 18.54269,-41.41626 41.41626,-41.41626 22.87356,0 41.41625,18.54269 41.41625,41.41626 z" transform="translate(-10.101525,-10.101525)"/>
  </g>
  <metadata>
    <rdf:RDF>
      <cc:Work>
        <dc:format>image/svg+xml</dc:format>
        <dc:type rdf:resource="http://purl.org/dc/dcmitype/StillImage"/>
        <cc:license rdf:resource="http://creativecommons.org/licenses/publicdomain/"/>
        <dc:publisher>
          <cc:Agent rdf:about="http://openclipart.org/">
            <dc:title>Open Clip Art Library</dc:title>
          </cc:Agent>
        </dc:publisher>
        <dc:title>Tree</dc:title>
        <dc:date>2012-06-18T03:07:56</dc:date>
        <dc:description>tree icon</dc:description>
        <dc:source>http://openclipart.org/detail/170749/tree-by-diamonjohn-170749</dc:source>
        <dc:creator>
          <cc:Agent>
            <dc:title>diamonjohn</dc:title>
          </cc:Agent>
        </dc:creator>
        <dc:subject>
          <rdf:Bag>
            <rdf:li>clip art</rdf:li>
            <rdf:li>clipart</rdf:li>
            <rdf:li>earth</rdf:li>
            <rdf:li>eco</rdf:li>
            <rdf:li>forest</rdf:li>
            <rdf:li>green</rdf:li>
            <rdf:li>icon</rdf:li>
            <rdf:li>planet</rdf:li>
            <rdf:li>tree</rdf:li>
            <rdf:li>tree icon</rdf:li>
          </rdf:Bag>
        </dc:subject>
      </cc:Work>
      <cc:License rdf:about="http://creativecommons.org/licenses/publicdomain/">
        <cc:permits rdf:resource="http://creativecommons.org/ns#Reproduction"/>
        <cc:permits rdf:resource="http://creativecommons.org/ns#Distribution"/>
        <cc:permits rdf:resource="http://creativecommons.org/ns#DerivativeWorks"/>
      </cc:License>
    </rdf:RDF>
  </metadata>
</svg>