<?xml version="1.0" encoding="utf-8"?>
<!-- Generator: Adobe Illustrator 16.0.3, SVG Export Plug-In . SVG Version: 6.00 Build 0)  -->
<!DOCTYPE svg PUBLIC "-//W3C//DTD SVG 1.1//EN" "http://www.w3.org/Graphics/SVG/1.1/DTD/svg11.dtd">
<svg version="1.1"
	 id="svg2" xmlns:dc="http://purl.org/dc/elements/1.1/" xmlns:rdf="http://www.w3.org/1999/02/22-rdf-syntax-ns#" xmlns:cc="http://creativecommons.org/ns#" xmlns:svg="http://www.w3.org/2000/svg" xmlns:inkscape="http://www.inkscape.org/namespaces/inkscape" xmlns:sodipodi="http://sodipodi.sourceforge.net/DTD/sodipodi-0.dtd" sodipodi:docname="bakgrund.svg" inkscape:version="0.48.4 r9939"
	 xmlns="http://www.w3.org/2000/svg" xmlns:xlink="http://www.w3.org/1999/xlink" x="0px" y="0px" width="620px" height="480px"
	 viewBox="0 0 620 480" enable-background="new 0 0 620 480" xml:space="preserve">
<sodipodi:namedview  id="namedview4954" inkscape:window-maximized="1" pagecolor="#ffffff" inkscape:cy="274.25884" guidetolerance="10" inkscape:cx="276.66888" bordercolor="#666666" inkscape:zoom="0.80555556" gridtolerance="10" objecttolerance="10" showgrid="false" borderopacity="1" inkscape:window-y="-8" inkscape:window-x="-8" inkscape:window-height="706" inkscape:window-width="1366" inkscape:current-layer="svg2" inkscape:pageshadow="2" inkscape:pageopacity="0">
	</sodipodi:namedview>
<g id="layer1" transform="matrix(0.85689656,0,0,0.78534483,2.4827589,1.2413793)">
	<rect id="rect2383" x="-2.897" y="227.618" fill="#008000" width="723.541" height="381.998"/>
	<rect id="rect2385" x="-2.897" y="-1.581" fill="#00FFFF" width="723.541" height="229.199"/>
</g>
<g id="layer2">
	<g id="g3190" transform="translate(83.211679,2.6277372)">
		<path id="path2392" inkscape:connector-curvature="0" fill="#FFFF00" d="M487.125,73.517c0,15.606-12.479,28.258-27.871,28.258
			s-27.871-12.651-27.871-28.258s12.479-28.259,27.871-28.259S487.125,57.91,487.125,73.517z"/>
		
			<path id="path2398" inkscape:connector-curvature="0" fill="#FFFF00" stroke="#FFFF00" stroke-width="2.957" stroke-dasharray="5.914,2.957" stroke-dashoffset="14" d="
			M425.19,74.678c-33.29,0-37.936,0.774-37.936,0.774"/>
		
			<path id="path3176" inkscape:connector-curvature="0" fill="#FFFF00" stroke="#FFFF00" stroke-width="2.957" stroke-dasharray="5.914,2.957" stroke-dashoffset="14" d="
			M530.868,72.742c-33.291,0-37.936,0.774-37.936,0.774"/>
		
			<path id="path3178" inkscape:connector-curvature="0" fill="#FFFF00" stroke="#FFFF00" stroke-width="2.957" stroke-dasharray="5.914,2.957" stroke-dashoffset="14" d="
			M459.641,144.742c0-33.29-0.773-37.936-0.773-37.936"/>
		
			<path id="path3180" inkscape:connector-curvature="0" fill="#FFFF00" stroke="#FFFF00" stroke-width="2.957" stroke-dasharray="5.914,2.957" stroke-dashoffset="14" d="
			M460.416,42.549c0-33.291-0.774-37.936-0.774-37.936"/>
		
			<path id="path3182" inkscape:connector-curvature="0" fill="#FFFF00" stroke="#FFFF00" stroke-width="2.957" stroke-dasharray="5.914,2.957" stroke-dashoffset="14" d="
			M510.101,124.203c-23.539-23.54-27.371-26.277-27.371-26.277"/>
		
			<path id="path3184" inkscape:connector-curvature="0" fill="#FFFF00" stroke="#FFFF00" stroke-width="2.957" stroke-dasharray="5.914,2.957" stroke-dashoffset="14" d="
			M431.908,49.106c-23.54-23.54-27.372-26.277-27.372-26.277"/>
		
			<path id="path3186" inkscape:connector-curvature="0" fill="#FFFF00" stroke="#FFFF00" stroke-width="2.957" stroke-dasharray="5.914,2.957" stroke-dashoffset="14" d="
			M408.18,127.073c23.54-23.54,26.277-27.372,26.277-27.372"/>
		
			<path id="path3188" inkscape:connector-curvature="0" fill="#FFFF00" stroke="#FFFF00" stroke-width="2.957" stroke-dasharray="5.914,2.957" stroke-dashoffset="14" d="
			M486.374,48.88c23.54-23.54,26.277-27.372,26.277-27.372"/>
	</g>
</g>
</svg>
