<?xml version="1.0" encoding="UTF-8" standalone="no"?>
<!-- Created with Inkscape (http://www.inkscape.org/) -->

<svg
   xmlns:dc="http://purl.org/dc/elements/1.1/"
   xmlns:cc="http://creativecommons.org/ns#"
   xmlns:rdf="http://www.w3.org/1999/02/22-rdf-syntax-ns#"
   xmlns:svg="http://www.w3.org/2000/svg"
   xmlns="http://www.w3.org/2000/svg"
   xmlns:sodipodi="http://sodipodi.sourceforge.net/DTD/sodipodi-0.dtd"
   xmlns:inkscape="http://www.inkscape.org/namespaces/inkscape"
   width="640px"
   height="480px"
   id="svg3489"
   version="1.1"
   inkscape:version="0.48.4 r9939"
   sodipodi:docname="start640_480.svg">
  <defs
     id="defs3491"><inkscape:path-effect
   is_visible="true"
   id="path-effect6404"
   effect="spiro" />
<inkscape:path-effect
   is_visible="true"
   id="path-effect6402"
   effect="spiro" />
<inkscape:path-effect
   effect="spiro"
   id="path-effect6400"
   is_visible="true" />

<inkscape:perspective
   inkscape:vp_x="0 : 0.5 : 1"
   inkscape:vp_z="1 : 0.5 : 1"
   inkscape:vp_y="0 : 1000 : 0"
   inkscape:persp3d-origin="0.5 : 0.33333333 : 1"
   sodipodi:type="inkscape:persp3d"
   id="perspective2824">
		</inkscape:perspective>

	
		<inkscape:perspective
   inkscape:vp_x="0 : 526.18109 : 1"
   inkscape:vp_z="744.09448 : 526.18109 : 1"
   inkscape:vp_y="0 : 1000 : 0"
   inkscape:persp3d-origin="372.04724 : 350.78739 : 1"
   sodipodi:type="inkscape:persp3d"
   id="perspective10">
		</inkscape:perspective>

	
	
		</defs>
  <sodipodi:namedview
     id="base"
     pagecolor="#ffffff"
     bordercolor="#666666"
     borderopacity="1.0"
     inkscape:pageopacity="0.0"
     inkscape:pageshadow="2"
     inkscape:zoom="0.77472527"
     inkscape:cx="171.56028"
     inkscape:cy="291.63121"
     inkscape:current-layer="layer10"
     inkscape:document-units="px"
     showgrid="false"
     inkscape:window-width="1366"
     inkscape:window-height="706"
     inkscape:window-x="-8"
     inkscape:window-y="-8"
     inkscape:window-maximized="1" />
  <metadata
     id="metadata3494">
    <rdf:RDF>
      <cc:Work
         rdf:about="">
        <dc:format>image/svg+xml</dc:format>
        <dc:type
           rdf:resource="http://purl.org/dc/dcmitype/StillImage" />
        <dc:title></dc:title>
      </cc:Work>
    </rdf:RDF>
  </metadata>
  <g
     id="layer1"
     inkscape:label="Layer 1"
     inkscape:groupmode="layer"
     style="display:inline" />
  <g
     inkscape:groupmode="layer"
     id="layer6"
     inkscape:label="Sky"
     style="display:inline"
     sodipodi:insensitive="true">
    <rect
       style="fill:#00ffff;fill-opacity:1;fill-rule:nonzero;stroke:#000000;stroke-width:1.32390392;stroke-miterlimit:4;stroke-opacity:1;stroke-dasharray:none;stroke-dashoffset:0;display:inline"
       id="rect3143"
       width="818.95276"
       height="458.32632"
       x="-86.894798"
       y="-116.9362" />
  </g>
  <g
     inkscape:groupmode="layer"
     id="layer5"
     inkscape:label="Grass"
     style="display:inline">
    <rect
       style="fill:#008000;fill-opacity:1;fill-rule:nonzero;stroke:#000000;stroke-width:0.98737991;stroke-miterlimit:4;stroke-opacity:1;stroke-dasharray:none;stroke-dashoffset:0;display:inline"
       id="rect3136"
       width="819.17859"
       height="299.01263"
       x="-87.007736"
       y="275.23456" />
  </g>
  <g
     inkscape:groupmode="layer"
     id="layer10"
     inkscape:label="Sun">
    <g
       inkscape:label="Camada 1"
       transform="matrix(0.5364745,0,0,0.5364745,398.22138,-187.8003)"
       id="layer1-11">
	<g
   id="g3632">
		
			<path
   d="m 480,322.36218 c 0,45.76074 -42.53295,82.85714 -95,82.85714 -52.46705,0 -95,-37.0964 -95,-82.85714 0,-45.76073 42.53295,-82.85714 95,-82.85714 52.46705,0 95,37.09641 95,82.85714 z"
   sodipodi:ry="82.85714"
   sodipodi:rx="95"
   sodipodi:cy="322.36218"
   sodipodi:cx="385"
   sodipodi:type="arc"
   id="path2830"
   style="fill:#ffff00;stroke:#ff7b00;stroke-width:5" />

		<path
   d="m 310.384,263.064 -55.62,-101.938 80.043,83.969 -24.423,17.969 z"
   sodipodi:nodetypes="cccc"
   id="path2832"
   inkscape:connector-curvature="0"
   style="fill:#ffff00" />

		<path
   d="m 384.499,229.154 24.151,-94.855 9.208,96.762 -33.359,-1.907 z"
   sodipodi:nodetypes="cccc"
   id="path2834"
   inkscape:connector-curvature="0"
   style="fill:#ffff00" />

		<path
   d="m 465.357,258.077 15.714,28.571 118.572,-82.5 -134.286,53.929 0,0 z"
   id="path2836"
   inkscape:connector-curvature="0"
   style="fill:#ffff00" />

		<path
   d="m 487.641,333.363 -15.475,36.653 93.57,18.067 -78.095,-54.72 z"
   id="path2838"
   inkscape:connector-curvature="0"
   style="fill:#ffff00" />

		<path
   d="m 429.643,404.235 -43.571,12.143 52.143,91.071 -8.572,-103.214 0,0 z"
   sodipodi:nodetypes="cccc"
   id="path2840"
   inkscape:connector-curvature="0"
   style="fill:#ffff00" />

		<path
   d="m 302.566,387.882 26.595,19.299 -82.79,74.285 56.195,-93.584 0,0 z"
   sodipodi:nodetypes="cccc"
   id="path2842"
   inkscape:connector-curvature="0"
   style="fill:#ffff00" />

		<path
   d="m 283.153,306.979 v 39.644 l -90.715,-17.857 90.715,-21.787 z"
   sodipodi:nodetypes="cccc"
   id="path2844"
   inkscape:connector-curvature="0"
   style="fill:#ffff00" />

		<path
   d="M 285,293.791 299.643,271.648 259.287,262.004 285,293.791 z"
   id="path2846"
   inkscape:connector-curvature="0"
   style="fill:#ffff00;stroke:#ff7b00;stroke-width:5" />

		<path
   d="m 341.624,413.054 30.146,5.052 -24.612,35.267 -5.534,-40.319 0,0 z"
   id="path2848"
   inkscape:connector-curvature="0"
   style="fill:#ffff00;stroke:#ff7b00;stroke-width:5" />

		<path
   d="m 281.786,359.862 12.856,19.286 -47.5,14.643 34.644,-33.929 z"
   id="path2850"
   inkscape:connector-curvature="0"
   style="fill:#ffff00;stroke:#ff7b00;stroke-width:5" />

		<path
   d="m 463.944,380.805 -22.551,20.004 31.213,11.838 -8.662,-31.842 0,0 z"
   id="path2852"
   inkscape:connector-curvature="0"
   style="fill:#ffff00;stroke:#ff7b00;stroke-width:5" />

		<path
   d="m 347.196,236.476 24.875,-7.014 -23.291,-26.792 -1.584,33.806 z"
   id="path2854"
   inkscape:connector-curvature="0"
   style="fill:#ffff00;stroke:#ff7b00;stroke-width:5" />

		<path
   d="m 429.643,234.862 24.644,13.929 17.856,-45.357 -42.5,31.428 z"
   id="path2856"
   inkscape:connector-curvature="0"
   style="fill:#ffff00;stroke:#ff7b00;stroke-width:5" />

		<path
   d="m 487.241,296.904 1.988,24.466 55.191,-12.159 -57.179,-12.307 0,0 z"
   id="path2858"
   inkscape:connector-curvature="0"
   style="fill:#ffff00;stroke:#ff7b00;stroke-width:5" />

	</g>

</g>
  </g>
  <g
     inkscape:groupmode="layer"
     id="layer7"
     inkscape:label="Kid"
     style="display:inline">
    <g
       id="layer1-8"
       inkscape:label="Ebene 1"
       transform="matrix(0.49959362,0,0,0.49959362,79.493479,-47.363429)">
      <g
         id="g8628"
         transform="matrix(1.9924326,0,0,1.9924326,-1746.372,173.1057)">
        <path
           inkscape:connector-curvature="0"
           id="path5994"
           d="m 1060.9937,231.37859 -4.6502,17.17013 c 0,0 -0.7154,15.38156 -0.7154,18.24324 0,2.86167 1.0731,8.2273 1.0731,8.2273 l 25.7552,1.43084 0.7154,-18.6009 c 0,0 15.7392,3.21941 17.1701,1.43084 1.4308,-1.78857 2.1462,20.74719 2.1462,20.74719 l 21.4627,-2.1463 c 0,0 6.7965,-13.23527 5.7233,-19.31635 -1.0731,-6.08108 -5.0079,-23.96659 -5.0079,-23.96659 l -6.4388,-8.2273 z"
           style="opacity:0.98000004;fill:#2e41ff;fill-opacity:1;stroke:#000000;stroke-width:1.52192521;stroke-linecap:butt;stroke-linejoin:miter;stroke-miterlimit:4;stroke-opacity:1;stroke-dasharray:none" />
        <path
           inkscape:export-ydpi="90"
           inkscape:export-xdpi="90"
           inkscape:export-filename="\\fs-p-ntr001\HomeDir1$\k0918155\Desktop\Figuren\figuren.png"
           inkscape:connector-curvature="0"
           id="path5996"
           d="m 1121.5835,289.86952 c 0,0 7.8526,-6.54382 12.1061,-7.52539 4.2535,-0.98156 13.742,1.30871 16.6867,4.58062 2.9447,3.27191 9.8157,15.05077 3.2719,17.66833 -6.5438,2.61748 -21.5946,3.27191 -31.7375,1.3087 -10.1429,-1.96313 -23.2305,-2.61748 -21.5945,-11.77878 1.6359,-9.16139 1.6359,-17.99548 7.5253,-19.30426 5.8895,-1.30878 16.0324,-3.59912 18.3227,-1.30878 2.2903,2.29035 8.1798,6.87104 7.1982,8.17974 -0.9816,1.30878 -0.9816,1.30878 -0.9816,1.30878"
           style="opacity:0.98000004;fill:#662f1f;fill-opacity:1;stroke:#000000;stroke-width:1.52192521;stroke-linecap:butt;stroke-linejoin:round;stroke-miterlimit:4;stroke-opacity:1;stroke-dasharray:none;stroke-dashoffset:0;display:inline" />
        <path
           style="opacity:0.98000004;fill:#662f1f;fill-opacity:1;stroke:#000000;stroke-width:1.52192521;stroke-linecap:butt;stroke-linejoin:round;stroke-miterlimit:4;stroke-opacity:1;stroke-dasharray:none;stroke-dashoffset:0;display:inline"
           d="m 1064.1632,287.00548 c 0,0 -7.8525,-6.54382 -12.106,-7.52538 -4.2535,-0.98157 -13.742,1.30878 -16.6867,4.58069 -2.9447,3.27191 -9.8157,15.05077 -3.2719,17.66825 6.5438,2.61756 21.5945,3.27192 31.7375,1.30878 10.1429,-1.96313 23.2305,-2.61755 21.5945,-11.77886 -1.6359,-9.1613 -1.6359,-17.99547 -7.5254,-19.30425 -5.8894,-1.3087 -16.0323,-3.59905 -18.3226,-1.3087 -2.2904,2.29027 -8.1798,6.87096 -7.1982,8.17974 0.9816,1.30877 0.9816,1.30877 0.9816,1.30877"
           id="path5998"
           inkscape:connector-curvature="0"
           inkscape:export-filename="\\fs-p-ntr001\HomeDir1$\k0918155\Desktop\Figuren\figuren.png"
           inkscape:export-xdpi="90"
           inkscape:export-ydpi="90" />
        <path
           inkscape:connector-curvature="0"
           id="path6000"
           d="m 1058.2231,231.37859 c 0,0 5.3657,9.30048 28.9746,7.15426 23.6089,-2.14629 35.4133,-2.14629 36.8441,-6.79654 1.4309,-4.65024 -0.3577,-39.70581 -0.3577,-39.70581 l 15.0239,3.21941 10.7313,-5.3657 -22.5358,-22.53576 -80.1271,2.86168 -4.6502,17.17013 -1.7886,10.3736 19.6741,13.23527 z"
           style="opacity:0.98000004;fill:#ff130f;fill-opacity:1;stroke:#000000;stroke-width:1.52192521;stroke-linecap:butt;stroke-linejoin:miter;stroke-miterlimit:4;stroke-opacity:1;stroke-dasharray:none" />
        <path
           inkscape:export-ydpi="90"
           inkscape:export-xdpi="90"
           inkscape:export-filename="\\fs-p-ntr001\HomeDir1$\k0918155\Desktop\Figuren\figuren.png"
           sodipodi:nodetypes="csssssssssssssssssssssssssssssssssc"
           inkscape:connector-curvature="0"
           inkscape:original-d="m 1071.6783,21.710031 c -2.7087,-11.010976 1.5324,-12.5485775 12.0966,-15.9394268 6.3925,-2.0517834 18.6639,-0.4198231 22.2832,3.0653095 3.6768,3.5403783 1.3561,9.8884803 1.2733,9.8088073 -0.677,-0.651916 6.3101,-3.065233 8.2766,-3.065233 5.3688,0 12.3534,-3.595929 17.8266,-1.83917 1.6945,0.54386 3.3773,1.288385 5.0933,1.83917 7.2307,2.32086 6.7523,2.823552 10.8233,6.743574 0.4964,0.478037 1.0518,6.557063 0.6366,7.356682 -0.3422,0.658994 -2.5943,0.896567 -1.91,1.226063 2.5818,1.243033 6.5666,2.107714 9.55,3.06531 0.7313,0.234757 0.8833,1.463635 1.2733,1.83917 5.9154,5.696034 15.0623,9.824408 11.4599,20.230723 -1.4598,4.217103 -11.1313,15.543879 -16.5532,8.582821 -0.4765,-0.61189 -4.7907,-3.969713 -5.0933,-3.678341 -0.3218,0.309788 2.7272,6.478303 3.1833,7.356606 3.7276,7.178693 -3.8996,19.962636 -12.0966,23.90914 -12.5629,6.048588 -24.3636,7.274575 -36.9264,1.226139 -3.0323,-1.459982 -6.9218,-6.169808 -7.0033,-6.130542 -4.6557,2.241491 -8.2305,7.712051 -12.7332,10.421915 -12.788,7.696072 -15.781,8.227682 -30.5599,9.808812 -5.0144,0.53655 -12.0531,2.02385 -16.5532,-1.22607 -9.4079,-6.794328 -13.7044,-14.45334 -17.1899,-24.522169 -0.9466,-2.734519 -0.6366,-6.095615 -0.6366,-9.195852 0,-0.736764 2.6751,-1.226063 1.91,-1.226063 -4.9691,0 -7.204,-2.290574 -10.8233,-4.90448 -5.7752,-4.17076 -14.05554,-6.884961 -16.55324,-14.10018 -0.62013,-1.791459 0.38422,-4.280719 0,-6.130543 -0.36579,-1.761172 -1.07898,-1.548711 -0.63666,-3.678341 1.25592,-6.046761 7.80526,-13.220432 14.0066,-14.713288 2.6515,-0.638296 9.4025,-3.136231 12.0966,-1.839171 0.6844,0.329497 2.0385,1.839171 1.2733,1.839171 -3.5548,0 5.5883,-14.032074 8.2766,-15.326395 10.7247,-5.163436 25.8455,-7.7871589 36.9264,-2.452202 1.9424,0.935223 6.2312,4.226158 6.3667,4.291372"
           inkscape:path-effect="#path-effect6400"
           id="path6002"
           d="m 1071.6783,21.710031 c 2.6996,-6.167641 6.8828,-11.679809 12.0966,-15.9394268 1.8052,-1.4748062 3.7433,-2.8081242 5.8678,-3.7672069 2.1246,-0.9590826 4.4466,-1.53592476 6.7765,-1.4631226 2.3299,0.0728022 4.6666,0.8222153 6.4779,2.2894011 1.8114,1.4671858 3.0535,3.6776989 3.161,6.0062379 0.08,1.7401483 -0.4501,3.4497243 -0.5584,5.1883583 -0.054,0.869317 3e-4,1.756694 0.2824,2.580741 0.2821,0.824048 0.8074,1.583356 1.5493,2.039708 0.6705,0.412431 1.4856,0.557469 2.2696,0.486365 0.7839,-0.0711 1.539,-0.348567 2.2294,-0.726745 1.3807,-0.756355 2.5044,-1.898842 3.7776,-2.824853 2.5034,-1.820719 5.575,-2.777393 8.6628,-2.995321 3.0877,-0.217927 6.1959,0.27666 9.1638,1.156151 1.7314,0.513075 3.4217,1.156048 5.0933,1.83917 3.9695,1.622179 7.9557,3.555186 10.8233,6.743574 0.9365,1.041273 1.7591,2.250951 2.0041,3.629821 0.1224,0.689435 0.094,1.411401 -0.1318,2.074346 -0.2254,0.662945 -0.6536,1.263385 -1.2357,1.652515 -0.3172,0.212005 -0.6725,0.35865 -1.0115,0.533586 -0.339,0.174936 -0.671,0.386211 -0.8985,0.692477 -0.307,0.413336 -0.3888,0.973219 -0.257,1.470948 0.1317,0.497728 0.4637,0.931126 0.8838,1.228746 0.4201,0.297621 0.9239,0.464977 1.4349,0.527885 0.511,0.06291 1.0303,0.02477 1.5378,-0.06209 1.015,-0.173709 1.9908,-0.540141 3.0093,-0.691896 0.5092,-0.07588 1.0303,-0.09717 1.5382,-0.01226 0.5078,0.08491 1.003,0.27978 1.403,0.603972 0.5836,0.473001 0.9213,1.175528 1.2733,1.83917 1.839,3.467452 4.5021,6.413707 6.8214,9.580032 2.3194,3.166325 4.3601,6.735641 4.6385,10.650691 0.1475,2.073822 -0.2202,4.19203 -1.1289,6.062004 -0.9087,1.869974 -2.3647,3.482126 -4.1721,4.509612 -1.8074,1.027486 -3.9634,1.454036 -6.0149,1.116959 -2.0516,-0.337077 -3.9792,-1.45059 -5.2373,-3.105754 -0.6948,-0.914048 -1.1896,-1.981882 -1.9896,-2.80538 -0.4001,-0.411748 -0.879,-0.758668 -1.4242,-0.938401 -0.5452,-0.179734 -1.161,-0.180925 -1.6795,0.06544 -0.3643,0.1731 -0.6693,0.462604 -0.8774,0.808159 -0.208,0.345555 -0.3206,0.745349 -0.3423,1.148113 -0.044,0.805527 0.2727,1.600129 0.748,2.251993 0.9504,1.303727 2.4647,2.0592 3.655,3.148341 1.9511,1.785236 2.9648,4.471579 2.9578,7.116139 -0.01,2.64456 -0.9747,5.234224 -2.4726,7.413702 -2.9957,4.358957 -7.8625,6.991229 -12.5818,9.379299 -5.9105,2.990818 -12.0182,5.895008 -18.589,6.733612 -3.2855,0.419302 -6.6611,0.304799 -9.8552,-0.571118 -3.1941,-0.875916 -6.202,-2.534157 -8.4822,-4.936355 -1.0869,-1.145058 -2.0002,-2.445059 -3.0831,-3.593941 -1.0828,-1.148882 -2.3852,-2.167475 -3.9202,-2.536601 -1.4233,-0.34227 -2.9507,-0.09071 -4.2754,0.532402 -1.3247,0.623108 -2.4596,1.598996 -3.4226,2.701531 -1.9261,2.205069 -3.1961,4.909922 -5.0352,7.187982 -3.4661,4.293292 -8.7469,6.788932 -14.1217,8.037252 -5.3747,1.24831 -10.9343,1.38076 -16.4382,1.77156 -2.7892,0.19804 -5.5805,0.46393 -8.3758,0.39153 -2.7953,-0.0724 -5.6165,-0.4947 -8.1774,-1.6176 -4.6765,-2.05056 -8.0833,-6.25169 -10.5583,-10.71804 -2.4751,-4.466353 -4.1983,-9.314904 -6.6316,-13.804129 -0.8024,-1.480375 -1.6944,-2.954628 -2.0198,-4.606747 -0.1627,-0.826059 -0.1766,-1.690135 0.04,-2.503673 0.2168,-0.813539 0.6742,-1.573947 1.343,-2.085432 0.6022,-0.460563 1.3542,-0.710493 1.91,-1.226063 0.4967,-0.460719 0.8005,-1.114692 0.8686,-1.788722 0.068,-0.674031 -0.094,-1.363797 -0.422,-1.956324 -0.3284,-0.592526 -0.819,-1.088889 -1.3881,-1.456516 -0.569,-0.367627 -1.2149,-0.608951 -1.8791,-0.742306 -1.3284,-0.26671 -2.7066,-0.105398 -4.0329,0.171608 -1.3263,0.277006 -2.6296,0.668746 -3.9698,0.86778 -4.0455,0.600794 -8.3188,-0.6698 -11.41904,-3.337295 -3.10023,-2.667495 -4.989,-6.675602 -5.1342,-10.762885 -0.0726,-2.044423 0.26754,-4.102401 0,-6.130543 -0.16284,-1.234459 -0.54886,-2.436287 -0.63666,-3.678341 -0.1264,-1.788087 0.38154,-3.588949 1.27124,-5.145117 0.8897,-1.556169 2.14757,-2.879501 3.54797,-3.998478 2.8008,-2.237956 6.14539,-3.672493 9.18739,-5.569693 1.9082,-1.190106 3.7414,-2.584483 5.8949,-3.232591 1.0768,-0.324054 2.2271,-0.450317 3.3325,-0.243906 1.1053,0.20641 2.1624,0.762777 2.8692,1.637326 0.4692,0.580556 0.7756,1.282858 1.2733,1.839171 0.6304,0.704633 1.5476,1.130597 2.4892,1.215865 0.9416,0.08527 1.9011,-0.159494 2.7185,-0.634669 0.8174,-0.475175 1.4951,-1.173589 1.9981,-1.974103 0.5031,-0.800514 0.8356,-1.701282 1.0342,-2.625648 0.3973,-1.848733 0.2653,-3.76588 0.1032,-5.649853 -0.1622,-1.883974 -0.3521,-3.78873 -0.067,-5.657987 0.5593,-3.6611003 2.976,-6.9078545 6.1294,-8.8500681 3.1535,-1.9422136 6.9741,-2.6481797 10.6681,-2.3833395 3.6941,0.2648402 7.2753,1.4561672 10.6076,3.0723891 3.3323,1.6162219 6.4398,3.654376 9.5213,5.7088165 2.1295,1.419706 4.2517,2.850188 6.3667,4.291372"
           style="opacity:0.98000004;fill:#ffff00;fill-opacity:1;stroke:#000000;stroke-width:1.5505389;stroke-linecap:butt;stroke-linejoin:miter;stroke-miterlimit:4;stroke-opacity:1;stroke-dasharray:none;display:inline" />
        <path
           sodipodi:nodetypes="cssscssaascsascascc"
           inkscape:connector-curvature="0"
           id="path6004"
           d="m 1020.6683,146.2013 c 0,0 -2.2187,5.76879 -10.2063,1.77503 -7.9875,-3.99376 -17.30629,-16.86256 -16.41878,-24.85008 0.8875,-7.98759 6.21248,-18.63764 10.20628,-18.63764 3.9938,0 8.8751,6.21257 8.8751,6.21257 0,0 0.4437,-25.737656 10.65,-36.831425 10.2063,-11.093845 29.2876,-27.956396 47.4815,-30.175134 18.1938,-2.218739 41.8558,-0.785846 59.019,9.318748 10.3523,6.094853 17.1096,17.512945 22.1876,28.400189 3.0044,6.441472 3.9938,19.081292 4.4375,20.856312 0.4438,1.77502 0.4438,5.32506 0.4438,5.32506 0,0 9.7625,-9.318822 12.425,-0.88751 2.6625,8.43124 4.6409,18.05498 2.2188,26.62509 -1.6978,6.00712 -3.9938,14.64382 -11.0938,15.08761 -7.1001,0.44372 -7.9876,-2.66253 -7.9876,-2.66253 0,0 -8.5106,17.92614 -15.975,23.96256 -13.1137,10.605 -35.0564,18.63764 -47.0377,18.63764 -11.9814,0 -39.9377,-10.65005 -42.6002,-12.42507 -13.9104,-10.66223 -20.0595,-15.41725 -26.6252,-29.73142 z"
           style="opacity:0.98000004;fill:#f7ebe6;fill-opacity:1;stroke:#000000;stroke-width:1.52192521;stroke-linecap:butt;stroke-linejoin:miter;stroke-miterlimit:4;stroke-opacity:1;stroke-dasharray:none" />
        <path
           inkscape:export-ydpi="90"
           inkscape:export-xdpi="90"
           inkscape:export-filename="\\fs-p-ntr001\HomeDir1$\k0918155\Desktop\Figuren\figuren.png"
           style="opacity:0.98000004;fill:#f7ebe6;fill-opacity:1;stroke:#000000;stroke-width:1.52192521;stroke-linecap:butt;stroke-linejoin:round;stroke-miterlimit:4;stroke-opacity:1;stroke-dasharray:none;stroke-dashoffset:0;display:inline"
           d="m 1086.2977,105.65303 c 0,0 -6.8379,-2.85064 -9.8031,-1.4004 -3.3808,1.6535 -5.8585,6.04829 -5.6017,9.80303 0.2611,3.81927 3.5678,7.41177 7.0022,9.10286 1.4658,0.72177 4.9015,0 4.9015,0"
           id="path6006"
           inkscape:connector-curvature="0"
           sodipodi:nodetypes="caaac" />
        <path
           sodipodi:nodetypes="aaaaaa"
           inkscape:connector-curvature="0"
           id="path6008"
           d="m 1049.467,103.51275 c -5.6667,-6.057796 -5.2974,-17.31289 -1.773,-24.821992 4.634,-9.87311 15.9329,-21.355578 26.595,-19.059754 6.3422,1.365623 9.8875,10.357385 9.7515,16.843526 -0.2423,11.555978 -8.1248,24.40422 -18.6165,29.25445 -4.8744,2.25343 -12.2885,1.70547 -15.957,-2.21623 z"
           style="opacity:0.98000004;fill:#ffffff;fill-opacity:1;stroke:#000000;stroke-width:1.52192521;stroke-linecap:butt;stroke-linejoin:miter;stroke-miterlimit:4;stroke-opacity:1;stroke-dasharray:none" />
        <path
           style="opacity:0.98000004;fill:#ffffff;fill-opacity:1;stroke:#000000;stroke-width:1.52192521;stroke-linecap:butt;stroke-linejoin:miter;stroke-miterlimit:4;stroke-opacity:1;stroke-dasharray:none"
           d="m 1110.4402,111.89536 c -9.4778,-0.1337 -17.9595,-9.97668 -21.2897,-18.851098 -3.9002,-10.393912 -4.7283,-26.508664 4.2546,-33.031788 5.2495,-3.812042 14.2318,-0.650166 19.125,3.609474 9.6307,8.383677 15.6869,24.013696 12.2226,36.303242 -1.6874,5.98619 -8.0937,12.05791 -14.3125,11.97017 z"
           id="path6010"
           inkscape:connector-curvature="0"
           sodipodi:nodetypes="aaaaaa" />
        <path
           sodipodi:nodetypes="caccsacc"
           inkscape:connector-curvature="0"
           id="path6012"
           d="m 1066.9886,158.65362 c 0,0 18.7633,3.86569 28.1439,2.89386 8.3554,-0.86567 24.0073,-7.6619 24.0073,-7.6619 l 4.8525,3.83091 c 0,0 -11.7482,19.41018 -20.6871,21.45337 -8.9389,2.04318 -14.3918,0.4635 -20.9426,-2.04319 -7.6625,-2.93206 -19.8344,-14.57365 -19.8344,-14.57365 z"
           style="opacity:0.98000004;fill:#000000;stroke:#000000;stroke-width:1.52192521;stroke-linecap:butt;stroke-linejoin:miter;stroke-miterlimit:4;stroke-opacity:1;stroke-dasharray:none" />
        <path
           sodipodi:nodetypes="cascccscaaaac"
           inkscape:connector-curvature="0"
           d="m 1094.248,167.39639 c 0,0 4.1309,-3.35858 6.6305,-3.54928 3.8257,-0.29183 9.8332,1.53129 10.8548,3.82993 1.0216,2.29856 1.7877,3.83091 1.7877,3.83091 m -16.3453,-1.53235 0,0 c 0,0 -3.6695,-4.87396 -6.385,-5.10796 -5.808,-0.50041 -14.8124,7.91675 -14.8124,7.91675 0,0 4.1956,2.84357 6.5124,3.83122 2.6032,1.10971 5.3884,1.79146 8.1725,2.29833 2.4379,0.4438 4.9353,0.8223 7.4065,0.6386 2.9239,-0.21733 5.9822,-0.63745 8.5554,-2.04288 2.642,-1.44309 6.5124,-6.25739 6.5124,-6.25739"
           style="opacity:0.98000004;fill:#ff0000;fill-opacity:1;stroke:#000000;stroke-width:0.76096261;stroke-opacity:1"
           id="path6014" />
        <path
           sodipodi:nodetypes="cccccccc"
           inkscape:connector-curvature="0"
           id="path6016"
           d="m 1097.9269,166.83678 -2.8562,2.55174 0.8524,1.92615 11.5768,1.69101 3.9189,-1.01292 1.0572,-1.30079 -2.7648,-3.66982 z"
           style="opacity:0.98000004;fill:#ff0000;fill-opacity:1;stroke:#ff0000;stroke-width:0.76096261;stroke-opacity:1" />
        <path
           inkscape:export-ydpi="90"
           inkscape:export-xdpi="90"
           inkscape:export-filename="\\fs-p-ntr001\HomeDir1$\k0918155\Desktop\Figuren\figuren.png"
           style="opacity:0.98000004;fill:#f7ebe6;fill-opacity:1;stroke:#000000;stroke-width:1.34173465;stroke-linecap:butt;stroke-linejoin:miter;stroke-miterlimit:4;stroke-opacity:1;stroke-dasharray:none;display:inline"
           d="m 1001.6366,119.32974 c 0.7273,-0.91999 1.7801,-1.57722 2.926,-1.82665 1.1459,-0.24942 2.3766,-0.0892 3.4205,0.44524 1.0439,0.53447 1.8934,1.43931 2.3609,2.51483 0.4676,1.07552 0.5498,2.31389 0.2286,3.44179 -0.2436,0.85553 -0.7049,1.63114 -1.1839,2.38074 -0.4789,0.7496 -0.9837,1.49022 -1.3292,2.30991 -0.6386,1.51479 -0.6901,3.26841 -0.1415,4.81806 0.5485,1.54966 1.6918,2.88033 3.1412,3.65602"
           id="path6018"
           inkscape:path-effect="#path-effect6402"
           inkscape:original-d="m 1001.6366,119.32974 c -1.3334,-1.69284 10.4164,1.44849 8.936,4.57521 -1.006,2.12476 -2.1992,4.02777 -2.5131,4.69065 -1.4079,2.97361 11.0774,-0.62635 2.9997,8.47408"
           inkscape:connector-curvature="0" />
        <path
           inkscape:export-ydpi="90"
           inkscape:export-xdpi="90"
           inkscape:export-filename="\\fs-p-ntr001\HomeDir1$\k0918155\Desktop\Figuren\figuren.png"
           style="opacity:0.98000004;fill:#f7ebe6;fill-opacity:1;stroke:#000000;stroke-width:1.52192521;stroke-linecap:butt;stroke-linejoin:miter;stroke-miterlimit:4;stroke-opacity:1;stroke-dasharray:none;display:inline"
           d="m 1163.2227,115.27099 c -0.6675,0.084 -1.3124,0.3406 -1.8552,0.73803 -0.5428,0.39744 -0.9821,0.93485 -1.2638,1.54579 -0.2816,0.61093 -0.4048,1.29406 -0.3545,1.96489 0.05,0.67083 0.2742,1.32791 0.6438,1.88998 0.5195,0.78997 1.2987,1.36657 2.0653,1.91995 0.7666,0.55337 1.5529,1.11609 2.0964,1.88973 0.435,0.61921 0.6953,1.35341 0.7921,2.10394 0.097,0.75054 0.033,1.51718 -0.1414,2.25346 -0.3497,1.47256 -1.131,2.80406 -1.9701,4.06364 -0.9124,1.36951 -1.906,2.68489 -2.9739,3.93691"
           id="path6020"
           inkscape:path-effect="#path-effect6404"
           inkscape:original-d="m 1163.2227,115.27099 c 1.6034,6.67904 -1.0055,2.97164 -2.8297,6.13869 -1.7456,3.03045 3.7602,3.57835 4.1617,3.80968 6.637,3.82292 3.0002,4.58282 -1.3194,8.42104 -1.0562,0.93849 -2.0012,3.07261 -2.9739,3.93691"
           inkscape:connector-curvature="0" />
        <g
           id="g6022"
           transform="matrix(0.76096259,0,0,0.76096259,1009.5745,7.9147685)"
           style="opacity:0.98000004;fill:#f7ebe6;fill-opacity:1;stroke:#000000;stroke-opacity:1">
          <path
             style="fill:#f7ebe6;fill-opacity:1;stroke:#000000;stroke-width:1.5;stroke-linecap:butt;stroke-linejoin:miter;stroke-miterlimit:4;stroke-opacity:1;stroke-dasharray:none"
             d="m 50.524771,235.73647 c 0,0 3.939473,6.66679 4.24251,9.09108 0.303033,2.42429 0.60607,8.18199 0.60607,8.18199 0,0 6.060726,3.63643 6.060726,6.06072 0,2.42429 -0.574598,5.29602 -1.818215,7.57591 -1.539546,2.82239 -3.917075,5.30397 -6.666801,6.96983 -3.417762,2.07058 -11.515376,3.3334 -11.515376,3.3334 l -12.727527,1.51518 c -1.088702,0.59287 -2.26705,0.045 -4.242506,-1.21215 0,0 -4.84858,3.93948 -7.878946,5.15162 -3.03036,1.21215 -9.6971609,1.81822 -11.5153762,-0.30303 -1.8182202,-2.12126 -6.9698334,-19.39433 -6.9698334,-19.39433 l -1.8182202,-11.51537 c 0,0 0.3030375,-3.63644 1.8182202,-5.15162 1.51517776,-1.51518 3.9394681,-2.12125 3.9394681,-2.12125 0,0 2.7273278,-2.4243 2.7273278,-4.24251 0,-1.81822 0.6060751,-5.45466 2.4242903,-6.36376 1.8182202,-0.90911 3.9394734,0.30303 5.1516184,-1.21215 1.212145,-1.51518 2.42429,-6.6668 2.42429,-6.6668 0,0 0.60607,-3.3334 2.121253,-4.24251 1.515183,-0.9091 5.281563,-1.40201 7.878946,-0.9091 1.687095,0.32016 4.545543,2.42429 4.545543,2.42429 0,0 1.212145,-3.93948 4.545543,-5.45466 3.333398,-1.51518 6.363763,-3.63643 9.091086,-2.42429 2.727328,1.21215 6.418705,4.76392 7.878946,8.18198 1.438925,4.67813 0.532651,8.46552 -0.303037,12.72753 z"
             id="path6024"
             inkscape:connector-curvature="0"
             sodipodi:nodetypes="cscsaacccssccscssscsacsscc" />
          <path
             style="fill:#f7ebe6;fill-opacity:1;stroke:#000000;stroke-width:1.5;stroke-linecap:butt;stroke-linejoin:miter;stroke-miterlimit:4;stroke-opacity:1;stroke-dasharray:none"
             d="m 5.0693298,246.64577 c 0,0 0.3030376,13.3336 0.9091077,16.667 0.9996674,4.52341 2.5394203,10.42876 6.6668005,13.03056 3.162843,1.99377 11.212339,0.30303 11.212339,0.30303"
             id="path6026-8"
             inkscape:connector-curvature="0"
             sodipodi:nodetypes="ccac" />
          <path
             style="fill:#f7ebe6;fill-opacity:1;stroke:#000000;stroke-width:1.5;stroke-linecap:butt;stroke-linejoin:miter;stroke-miterlimit:4;stroke-opacity:1;stroke-dasharray:none"
             d="m 24.76669,277.25243 c 0,0 -5.454656,-8.18197 -1.81822,-12.72752 3.636435,-4.54554 13.939671,-8.78805 17.273069,-9.09108 3.333398,-0.30304 14.242705,-2.42429 14.242705,-2.42429"
             id="path6028"
             inkscape:connector-curvature="0" />
          <path
             style="fill:#f7ebe6;fill-opacity:1;stroke:#000000;stroke-width:1.5;stroke-linecap:butt;stroke-linejoin:miter;stroke-miterlimit:4;stroke-opacity:1;stroke-dasharray:none"
             d="m 13.857383,237.55468 c -0.291046,6.69312 -0.574336,16.05591 2.121253,21.51558 0.198897,0.37961 -0.606075,-1.21214 0.909108,0.90911 1.515183,2.12125 4.24251,4.54554 4.24251,4.54554"
             id="path6030"
             inkscape:connector-curvature="0"
             sodipodi:nodetypes="ccsc" />
          <path
             style="fill:#f7ebe6;fill-opacity:1;stroke:#000000;stroke-width:1.5;stroke-linecap:butt;stroke-linejoin:miter;stroke-miterlimit:4;stroke-opacity:1;stroke-dasharray:none"
             d="m 28.706158,222.40287 c 0,0 -2.859297,11.14827 -1.212145,16.36396 0.864687,2.73801 -0.909108,5.45465 5.454655,6.6668 6.363764,1.21214 10.207819,1.29886 13.939672,-1.51518 2.351394,-1.7731 3.333398,-8.18198 3.333398,-8.18198"
             id="path6032"
             inkscape:connector-curvature="0"
             sodipodi:nodetypes="casac" />
          <path
             style="fill:#f7ebe6;fill-opacity:1;stroke:#000000;stroke-width:1.5;stroke-linecap:butt;stroke-linejoin:miter;stroke-miterlimit:4;stroke-opacity:1;stroke-dasharray:none"
             d="m 37.191174,246.64577 -0.60607,4.54555 c 0.950705,1.14444 1.282311,0.96333 1.81822,3.93946"
             id="path6034"
             inkscape:connector-curvature="0"
             sodipodi:nodetypes="ccc" />
          <path
             style="fill:#f7ebe6;fill-opacity:1;stroke:#000000;stroke-width:1.5;stroke-linecap:butt;stroke-linejoin:miter;stroke-miterlimit:4;stroke-opacity:1;stroke-dasharray:none"
             d="m 31.50418,237.3729 12.727527,0 c 0,0 0.303032,-6.96983 -2.424291,-7.27287 -2.727327,-0.30304 -4.545548,-1.21214 -6.363763,0.30304 -1.81822,1.51518 -3.939473,6.96983 -3.939473,6.96983 z"
             id="path6036"
             inkscape:connector-curvature="0" />
          <path
             style="fill:#f7ebe6;fill-opacity:1;stroke:#000000;stroke-width:1.5;stroke-linecap:butt;stroke-linejoin:miter;stroke-miterlimit:4;stroke-opacity:1;stroke-dasharray:none"
             d="m 24.534347,267.85831 3.03036,8.18198 c 0,0 6.969838,-1.81822 6.969838,-3.63644 0,-1.81821 0,-5.45465 -1.81822,-6.06072 -1.818215,-0.60607 -8.181978,1.51518 -8.181978,1.51518 z"
             id="path6038"
             inkscape:connector-curvature="0" />
          <path
             style="fill:#f7ebe6;fill-opacity:1;stroke:#000000;stroke-width:1.5;stroke-linecap:butt;stroke-linejoin:miter;stroke-miterlimit:4;stroke-opacity:1;stroke-dasharray:none"
             d="m 29.685965,251.49435 c 0,0 -8.181984,1.21215 -9.091091,2.72733 -0.909108,1.51518 -1.212146,1.81822 -1.212146,1.81822"
             id="path6040"
             inkscape:connector-curvature="0" />
          <path
             style="fill:#f7ebe6;fill-opacity:1;stroke:#000000;stroke-width:1.5;stroke-linecap:butt;stroke-linejoin:miter;stroke-miterlimit:4;stroke-opacity:1;stroke-dasharray:none"
             d="m 16.352368,264.82795 c 0,0 -0.909113,-0.30304 -2.42429,3.03036 -1.515183,3.3334 -1.212145,5.15162 -1.212145,5.15162"
             id="path6042"
             inkscape:connector-curvature="0" />
          <path
             style="fill:#f7ebe6;fill-opacity:1;stroke:#000000;stroke-width:1.5;stroke-linecap:butt;stroke-linejoin:miter;stroke-miterlimit:4;stroke-opacity:1;stroke-dasharray:none"
             d="m 8.7764596,276.34333 c 0,0 -2.7273279,0 -2.7273279,2.42429 0,2.42429 0,2.72732 0,2.72732"
             id="path6044"
             inkscape:connector-curvature="0" />
        </g>
        <g
           id="g6046"
           transform="matrix(0.76096259,0,0,0.76096259,1009.5745,7.9147685)"
           style="opacity:0.98000004;fill:#f7ebe6;fill-opacity:1;stroke:#000000;stroke-opacity:1">
          <path
             sodipodi:nodetypes="cscsaacccssccscssscsacsscc"
             inkscape:connector-curvature="0"
             id="path6048"
             d="m 150.94372,243.15468 c 0,0 -2.41564,7.35733 -2.19092,9.79013 0.22473,2.4328 1.1654,8.12121 1.1654,8.12121 0,0 -5.13826,4.85329 -4.61757,7.221 0.52069,2.36772 1.69867,5.04901 3.40293,7.00859 2.10981,2.42586 4.96485,4.33888 8.0082,5.37528 3.78271,1.28819 11.96258,0.78235 11.96258,0.78235 l 12.75593,-1.2538 c 1.19063,0.3452 2.2238,-0.44299 3.88315,-2.09506 0,0 5.58154,2.80616 8.80153,3.33916 3.21999,0.533 9.86137,-0.30696 11.18155,-2.76923 1.32019,-2.46227 2.64168,-20.43869 2.64168,-20.43869 l -0.69748,-11.63715 c 0,0 -1.077,-3.48649 -2.88225,-4.64088 -1.80525,-1.15439 -4.30313,-1.22563 -4.30313,-1.22563 0,0 -3.18437,-1.78194 -3.57488,-3.55772 -0.39052,-1.77579 -1.76348,-5.19719 -3.73452,-5.69456 -1.97105,-0.49738 -3.78245,1.14208 -5.29174,-0.0774 -1.50929,-1.21948 -3.79961,-5.99053 -3.79961,-5.99053 0,0 -1.30787,-3.12543 -2.98295,-3.68789 -1.67508,-0.56246 -5.45943,-0.23492 -7.89033,0.80434 -1.57895,0.67505 -3.91877,3.34401 -3.91877,3.34401 0,0 -2.02997,-3.5872 -5.61101,-4.35107 -3.58103,-0.76388 -6.99628,-2.18477 -9.39961,-0.41514 -2.40334,1.76963 -5.24572,6.03134 -5.93775,9.68327 -0.40058,4.878 1.298,8.38235 3.02957,12.36541 z"
             style="fill:#f7ebe6;fill-opacity:1;stroke:#000000;stroke-width:1.5;stroke-linecap:butt;stroke-linejoin:miter;stroke-miterlimit:4;stroke-opacity:1;stroke-dasharray:none" />
          <path
             sodipodi:nodetypes="ccac"
             inkscape:connector-curvature="0"
             id="path6050"
             d="m 197.68145,244.0465 c 0,0 2.56781,13.08751 2.69183,16.47329 -0.005,4.63256 -0.24027,10.7308 -3.71251,14.15835 -2.66081,2.62656 -10.88559,2.70414 -10.88559,2.70414"
             style="fill:#f7ebe6;fill-opacity:1;stroke:#000000;stroke-width:1.5;stroke-linecap:butt;stroke-linejoin:miter;stroke-miterlimit:4;stroke-opacity:1;stroke-dasharray:none" />
          <path
             inkscape:connector-curvature="0"
             id="path6052"
             d="m 185.01745,278.16947 c 0,0 3.57004,-9.16258 -0.95782,-12.82101 -4.52786,-3.65843 -15.50185,-5.58901 -18.82254,-5.16903 -3.32069,0.41998 -14.431,0.69133 -14.431,0.69133"
             style="fill:#f7ebe6;fill-opacity:1;stroke:#000000;stroke-width:1.5;stroke-linecap:butt;stroke-linejoin:miter;stroke-miterlimit:4;stroke-opacity:1;stroke-dasharray:none" />
          <path
             sodipodi:nodetypes="ccsc"
             inkscape:connector-curvature="0"
             id="path6054"
             d="m 187.1459,237.05506 c 1.7218,6.47441 4.00942,15.55785 2.54936,21.46907 -0.11272,0.41346 0.33159,-1.31403 -0.69263,1.08315 -1.02422,2.39718 -3.16722,5.35066 -3.16722,5.35066"
             style="fill:#f7ebe6;fill-opacity:1;stroke:#000000;stroke-width:1.5;stroke-linecap:butt;stroke-linejoin:miter;stroke-miterlimit:4;stroke-opacity:1;stroke-dasharray:none" />
          <path
             sodipodi:nodetypes="casac"
             inkscape:connector-curvature="0"
             id="path6056"
             d="m 169.38936,225.44607 c 0,0 5.18699,10.27398 4.6985,15.72172 -0.25644,2.85983 2.05944,5.1321 -3.89546,7.68276 -5.95491,2.55066 -9.69063,3.46098 -13.93979,1.51413 -2.67734,-1.22668 -5.01293,-7.27508 -5.01293,-7.27508"
             style="fill:#f7ebe6;fill-opacity:1;stroke:#000000;stroke-width:1.5;stroke-linecap:butt;stroke-linejoin:miter;stroke-miterlimit:4;stroke-opacity:1;stroke-dasharray:none" />
          <path
             sodipodi:nodetypes="ccc"
             inkscape:connector-curvature="0"
             id="path6058"
             d="m 166.30924,250.94561 1.56822,4.30929 c -0.68271,1.32193 -1.04548,1.21627 -0.92967,4.23805"
             style="fill:#f7ebe6;fill-opacity:1;stroke:#000000;stroke-width:1.5;stroke-linecap:butt;stroke-linejoin:miter;stroke-miterlimit:4;stroke-opacity:1;stroke-dasharray:none" />
          <path
             inkscape:connector-curvature="0"
             id="path6060"
             d="m 169.66557,240.54699 -11.72627,4.94819 c 0,0 -2.98892,-6.30372 -0.59396,-7.64324 2.39495,-1.33952 3.7167,-2.88399 5.98094,-2.19489 2.26426,0.68909 6.33929,4.88994 6.33929,4.88994 z"
             style="fill:#f7ebe6;fill-opacity:1;stroke:#000000;stroke-width:1.5;stroke-linecap:butt;stroke-linejoin:miter;stroke-miterlimit:4;stroke-opacity:1;stroke-dasharray:none" />
          <path
             inkscape:connector-curvature="0"
             id="path6062"
             d="m 183.22671,268.94468 -1.20232,8.64189 c 0,0 -7.19769,-0.27881 -7.58821,-2.05459 -0.39052,-1.77579 -1.17155,-5.32736 0.47407,-6.3098 1.64561,-0.98245 8.31646,-0.2775 8.31646,-0.2775 z"
             style="fill:#f7ebe6;fill-opacity:1;stroke:#000000;stroke-width:1.5;stroke-linecap:butt;stroke-linejoin:miter;stroke-miterlimit:4;stroke-opacity:1;stroke-dasharray:none" />
          <path
             inkscape:connector-curvature="0"
             id="path6064"
             d="m 174.68068,254.06907 c 0,0 8.25138,-0.57346 9.4647,0.7111 1.21332,1.28456 1.57437,1.51544 1.57437,1.51544"
             style="fill:#f7ebe6;fill-opacity:1;stroke:#000000;stroke-width:1.5;stroke-linecap:butt;stroke-linejoin:miter;stroke-miterlimit:4;stroke-opacity:1;stroke-dasharray:none" />
          <path
             inkscape:connector-curvature="0"
             id="path6066"
             d="m 190.56688,264.22772 c 0,0 0.82281,-0.49123 3.01858,2.43895 2.19576,2.93017 2.29032,4.77105 2.29032,4.77105"
             style="fill:#f7ebe6;fill-opacity:1;stroke:#000000;stroke-width:1.5;stroke-linecap:butt;stroke-linejoin:miter;stroke-miterlimit:4;stroke-opacity:1;stroke-dasharray:none" />
          <path
             inkscape:connector-curvature="0"
             id="path6068"
             d="m 200.43926,273.8472 c 0,0 2.66368,-0.58577 3.18436,1.78194 0.52069,2.36772 0.58578,2.66368 0.58578,2.66368"
             style="fill:#f7ebe6;fill-opacity:1;stroke:#000000;stroke-width:1.5;stroke-linecap:butt;stroke-linejoin:miter;stroke-miterlimit:4;stroke-opacity:1;stroke-dasharray:none" />
        </g>
        <path
           style="opacity:0.98000004;fill:#ff0000;fill-opacity:1;stroke:none"
           d="m 1093.0254,168.4434 3.2382,-1.99265 3.4872,2.11722 -5.1063,1.7436 z"
           id="path6070"
           inkscape:connector-curvature="0" />
        <path
           style="opacity:0.98000004;fill:none;stroke:#000000;stroke-width:0.76096261px;stroke-linecap:butt;stroke-linejoin:miter;stroke-opacity:1"
           d="m 1094.769,166.94887 c -2.5656,2.22407 -4.0733,5.2995 -2.3686,8.49828"
           id="path6072"
           inkscape:connector-curvature="0"
           sodipodi:nodetypes="cc" />
        <path
           inkscape:export-ydpi="90"
           inkscape:export-xdpi="90"
           inkscape:export-filename="\\fs-p-ntr001\HomeDir1$\k0918155\Desktop\Figuren\figuren.png"
           sodipodi:type="arc"
           style="opacity:0.98000004;fill:#000000;stroke:#000000;stroke-width:2;stroke-linecap:butt;stroke-linejoin:round;stroke-miterlimit:4;stroke-opacity:1;stroke-dasharray:none;stroke-dashoffset:0;display:inline"
           id="path6074"
           sodipodi:cx="-137.15703"
           sodipodi:cy="155.96983"
           sodipodi:rx="3.7474597"
           sodipodi:ry="4.4969516"
           d="m -133.40957,155.96983 c 0,2.4836 -1.67779,4.49695 -3.74746,4.49695 -2.06966,0 -3.74746,-2.01335 -3.74746,-4.49695 0,-2.48359 1.6778,-4.49695 3.74746,-4.49695 2.06967,0 3.74746,2.01336 3.74746,4.49695 z"
           transform="matrix(1.0126333,0,0,0.90727462,1207.5913,-52.43687)" />
        <path
           inkscape:export-ydpi="90"
           inkscape:export-xdpi="90"
           inkscape:export-filename="\\fs-p-ntr001\HomeDir1$\k0918155\Desktop\Figuren\figuren.png"
           transform="matrix(1.0126333,0,0,0.90727462,1240.7047,-51.875812)"
           d="m -133.40957,155.96983 c 0,2.4836 -1.67779,4.49695 -3.74746,4.49695 -2.06966,0 -3.74746,-2.01335 -3.74746,-4.49695 0,-2.48359 1.6778,-4.49695 3.74746,-4.49695 2.06967,0 3.74746,2.01336 3.74746,4.49695 z"
           sodipodi:ry="4.4969516"
           sodipodi:rx="3.7474597"
           sodipodi:cy="155.96983"
           sodipodi:cx="-137.15703"
           id="path6076"
           style="opacity:0.98000004;fill:#000000;stroke:#000000;stroke-width:2;stroke-linecap:butt;stroke-linejoin:round;stroke-miterlimit:4;stroke-opacity:1;stroke-dasharray:none;stroke-dashoffset:0;display:inline"
           sodipodi:type="arc" />
        <path
           inkscape:connector-curvature="0"
           id="path6078"
           d="m 1104.2403,45.195163 c 9.6069,5.539123 19.4757,11.448682 23.6668,18.783144 -3.8271,-12.958128 -13.5987,-21.26236 -22.9155,-25.920745 -0.5675,2.511862 -0.4434,4.674898 -0.7513,7.137601 z"
           style="opacity:0.98000004;fill:#ffff00;stroke:#000000;stroke-width:1.52192521;stroke-linecap:butt;stroke-linejoin:miter;stroke-miterlimit:4;stroke-opacity:1;stroke-dasharray:none" />
        <path
           inkscape:connector-curvature="0"
           id="path6080"
           d="m 1076.1979,44.57612 c -15.2304,1.726015 -25.2366,11.404318 -30.8044,22.539788 -6.138,-13.663084 16.0702,-25.419956 27.4234,-29.677389 2.9392,2.492305 2.7183,4.486711 3.381,7.137601 z"
           style="opacity:0.98000004;fill:#ffff00;stroke:#000000;stroke-width:1.52192521;stroke-linecap:butt;stroke-linejoin:miter;stroke-miterlimit:4;stroke-opacity:1;stroke-dasharray:none" />
      </g>
    </g>
  </g>
  <g
     inkscape:groupmode="layer"
     id="layer9"
     inkscape:label="Key"
     style="display:inline">
    <g
       id="layer1-1"
       transform="matrix(0.90234502,0.64226978,-0.64226978,0.90234502,153.95107,-160.14711)">
      <g
         id="g2343"
         transform="matrix(-0.5748724,0.8182431,-0.8182431,-0.5748724,774.50592,393.01471)">
        <g
           style="fill:#000000"
           id="g2321"
           transform="matrix(1.0371991,0,0,1.0311723,-9.647093,-14.304703)">
          <path
             style="fill:#000000;stroke:none"
             id="path2323"
             d="m 255.35555,367.72533 c -2.26337,-0.24978 -2.02524,2.85571 -4.13065,2.76694 -2.81008,1.18187 -4.02821,5.04625 -1.27133,7.06642 1.78102,1.70854 3.30789,3.54437 3.88016,5.85914 2.75011,2.04688 3.78822,5.86059 6.40349,8.10319 2.21991,4.12477 5.5939,7.16392 7.80672,11.24563 2.68924,2.99077 4.65655,7.09076 7.45098,9.64477 0.98678,2.89029 3.39234,5.04193 4.90929,7.64182 2.67349,3.53901 5.4528,7.15987 7.77911,10.89668 1.72371,2.87499 4.50846,5.03536 5.75128,8.16247 2.1711,1.94831 3.48261,4.34301 4.86191,6.75924 2.32773,2.86211 4.27335,5.93663 6.44302,8.89374 0.99268,3.1823 4.66245,4.99393 5.59317,8.28106 1.81521,2.28127 4.08754,4.42243 5.03979,7.11499 1.87681,1.26592 2.60989,4.13269 4.50616,5.37577 0.37673,2.32551 2.78505,3.7678 3.77489,5.92916 1.26667,0.53975 1.28109,1.52994 1.81828,2.62859 1.67917,1.57979 2.78388,4.20605 4.54569,5.45482 1.12719,3.72352 4.7883,6.00954 6.30196,9.52321 1.82493,2.13772 3.59478,4.2373 4.68674,6.76222 1.77545,1.14154 1.54113,3.67621 3.75514,4.24923 0.62632,1.55517 1.56509,3.15415 2.82623,4.44686 0.0344,1.80481 2.19237,2.07088 2.37166,3.79466 1.5726,1.93905 4.97794,1.9596 6.14656,-0.25693 1.68812,-0.69965 2.85822,-2.23431 3.53773,-3.61678 2.04566,-0.47157 -1.16209,-1.29171 -0.61268,-2.64836 -4.57382,-6.84501 -9.47648,-13.59926 -14.2695,-20.25796 -0.24792,-2.23494 -2.85477,-3.26881 -3.6747,-5.4648 -2.64589,-3.4189 -4.95404,-7.60964 -7.78834,-10.58345 -0.95446,-3.51696 -4.64295,-5.506 -5.86987,-8.89374 -2.33404,-2.51814 -3.96729,-5.90379 -6.14656,-8.28106 0.0363,-1.71372 -2.19283,-1.79848 -2.25308,-3.45867 -2.541,-3.46658 -4.96593,-7.01589 -7.4905,-10.47485 -0.55266,-1.82408 -2.50402,-2.38424 -2.60883,-4.26899 -1.8832,-1.56958 -2.95793,-4.16583 -4.7038,-5.65246 0.15182,-1.86925 -2.36655,-1.98112 -2.21355,-3.85396 -2.15453,-2.54678 -3.93362,-5.41765 -5.65247,-8.16247 -2.37485,-2.2029 -3.74549,-5.71243 -6.0675,-7.72767 -0.97349,-3.38942 -4.46296,-5.57025 -5.53388,-8.99256 -2.71771,-2.117 -3.94151,-6.00488 -6.48255,-8.02412 -1.23036,-3.39616 -4.03614,-6.07936 -5.96869,-9.15067 -1.41579,-0.62877 -0.86958,-2.42683 -2.25308,-3.24128 -3.6412,-4.63331 -6.54104,-10.06873 -10.49461,-14.42761 -0.46641,-1.24822 -1.45834,-3.01323 -3.30056,-3.08317 -0.46309,-0.0777 -0.93356,-0.13663 -1.40323,-0.079 z"
             inkscape:connector-curvature="0" />
          <path
             style="fill:#000000;stroke:none"
             id="path2325"
             d="m 362.77213,429.86291 c -1.02828,1.03171 -1.34768,2.88895 -3.24128,2.98434 -1.26956,0.71625 -1.77876,2.1053 -3.37962,2.23332 -1.59399,1.1869 -3.03304,2.52709 -4.66427,3.43891 -0.77825,1.40073 -3.32835,1.30382 -3.87371,3.0634 -2.37921,0.86253 -3.9302,3.25982 -6.38373,4.03182 -1.53638,1.65709 -3.55752,2.69569 -5.39554,3.57726 -0.22475,4.46467 6.76841,6.59166 5.39554,11.20611 -1.08245,0.34488 -1.85116,0.83349 -2.5693,1.77875 -1.50684,1.73789 -3.6955,1.93622 -4.58522,-0.43481 -1.1075,-2.48866 -3.01837,-4.86585 -5.02002,-6.64065 -1.90955,0.29908 -6.16379,2.14493 -4.17017,4.62474 2.01345,2.20776 3.54286,5.12658 5.65246,7.03593 1.0153,3.69517 4.9948,5.91539 6.18609,9.50642 1.98879,0.55499 2.33062,2.49877 3.37962,3.9923 1.45773,1.33259 1.91054,3.8097 3.7749,5.00026 0.81987,2.12659 2.76634,3.2574 3.79466,5.41529 0.90219,1.31408 2.08107,1.7332 2.2926,3.35986 1.72073,2.8615 4.58272,5.05649 5.73152,8.16247 1.06199,0.44457 1.91645,1.30048 2.72742,1.75899 2.82086,-0.37339 4.26302,-3.98548 1.81827,-5.8501 -1.24041,-1.79766 -2.20523,-3.82523 -3.69584,-5.53389 1.71862,-1.56738 3.90492,-3.22789 6.16632,-3.59702 2.4999,2.06691 3.26035,6.55892 6.58137,7.49051 1.9916,-0.082 2.05261,-2.60496 4.01206,-2.47049 3.02564,-2.11549 6.04286,-4.5791 8.99256,-6.68018 1.90717,-0.32914 2.85,-2.51511 4.90144,-3.0634 2.80355,-1.95798 5.72681,-3.81434 8.12294,-6.18609 0.28349,-1.64985 -1.81864,-2.69666 -2.3519,-4.22946 -1.7109,-3.45846 -5.74106,-0.52471 -7.15451,1.60087 -0.91484,0.53874 -2.08805,0.56519 -2.47049,1.71945 -3.16136,2.39611 -6.42408,-1.75656 -6.48254,-4.7038 1.31329,-0.87184 3.03033,-1.27721 3.81442,-2.74717 2.3403,-0.48337 3.53524,-3.08581 5.81058,-3.69584 1.11827,-1.3812 -0.15165,-2.61214 -1.04749,-3.47844 -0.43321,-2.12492 -2.94494,-5.29753 -4.98049,-2.70765 -1.66466,1.60682 -3.49324,2.26598 -5.02002,3.83419 -2.58349,1.21915 -4.61191,3.15523 -6.68018,4.9212 -1.70656,0.32748 -4.57505,2.47928 -2.23332,4.01206 0.91048,2.24849 3.08273,3.80218 3.85395,6.04774 -0.60243,2.17053 -3.12347,2.78496 -4.66427,4.09112 -4.30396,0.3244 -4.85383,-6.2884 -8.71586,-6.91735 -1.19926,1.86606 -3.53687,3.72504 -5.92916,3.75513 -2.45961,-1.4568 -5.12748,-4.38025 -5.15837,-7.31262 2.22989,-0.44427 3.77542,-2.49848 5.94893,-3.0634 1.46607,-1.90551 -0.93725,-3.53579 -1.46253,-5.17813 -1.9829,-0.75976 -3.64334,-4.30166 -0.73126,-5.27695 1.38201,-0.49963 2.58202,-1.03483 3.39938,-2.29261 2.34544,-0.0158 3.99752,2.99675 5.03979,4.82238 0.72192,2.47806 4.28076,2.08384 5.09907,0.13835 1.59239,0.0728 1.77423,-1.98949 3.51797,-1.89733 1.31881,-0.60113 1.64874,-2.1276 3.20174,-2.25308 1.59995,-1.39424 3.01272,-2.86285 5.02002,-3.57726 1.0536,-0.99975 4.43035,-2.30124 2.17403,-3.93301 -1.46811,-1.51396 -1.97314,-5.01786 -4.46663,-5.05955 -1.1037,1.29341 -2.62812,1.9513 -4.05159,2.64836 -0.70278,1.50182 -3.38301,1.20834 -3.79467,3.18198 -2.78143,2.8044 -5.47846,-1.18762 -6.2849,-3.63655 -2.07313,-0.26827 0.22345,-3.35094 1.40323,-3.71561 1.39491,-0.59587 1.4137,-2.33041 3.10293,-2.15426 1.64027,-0.86464 2.80252,-2.40118 4.62474,-2.80647 0.51253,-3.00097 -2.43732,-5.74424 -4.03183,-8.06365 -0.22109,-0.19867 -0.5518,-0.33513 -0.84984,-0.27669 z"
             inkscape:connector-curvature="0" />
          <path
             style="fill:#000000;stroke:none"
             id="path2327"
             d="m 253.89302,360.78821 c -1.29983,0.22293 -1.44527,1.87404 -3.02387,1.9171 -1.77476,1.46328 -3.7767,2.53687 -5.6327,3.7749 -0.72394,1.19595 -3.01487,1.44025 -2.64836,3.51796 0.0883,3.66325 4.86616,1.8566 6.64066,0.55339 2.70741,-2.5375 7.11612,-3.75484 8.61704,-7.41145 -0.60808,-1.55844 -2.29849,-2.52035 -3.95277,-2.3519 z"
             inkscape:connector-curvature="0" />
          <path
             style="fill:#000000;stroke:none"
             id="path2329"
             d="m 245.77007,352.28975 c -2.30083,2.04882 -6.26388,3.10414 -8.00436,6.06751 0.27929,3.65447 4.14814,8.51865 8.22177,6.32443 2.31107,-1.78789 6.62955,-4.00731 4.76309,-7.56955 -1.23895,-1.75374 -2.77921,-4.29058 -4.9805,-4.82239 z"
             inkscape:connector-curvature="0" />
          <path
             style="fill:#000000;stroke:none"
             id="path2331"
             d="m 244.24826,344.95736 c -1.22157,0.58052 -1.5291,2.25398 -3.18199,2.17403 -1.6758,1.75967 -4.37832,2.84371 -5.73152,4.74332 -2.20533,-1.9e-4 -5.42973,3.30553 -2.52977,4.78286 4.44751,1.3228 8.24354,-3.23773 11.58162,-5.31648 2.16921,-0.58715 4.90842,-3.53768 1.99615,-5.1979 -0.61032,-0.49256 -1.30954,-1.17565 -2.13449,-1.18583 z"
             inkscape:connector-curvature="0" />
          <path
             style="fill:#000000;stroke:none"
             id="path2333"
             d="m 234.58373,331.85392 c 0.0449,1.48821 -2.08452,0.92365 -2.29261,2.29261 -2.25453,0.39738 -3.82456,2.4892 -5.96869,3.0634 -0.45704,1.41912 -3.06812,1.38508 -2.70764,3.37962 -0.48603,0.9036 -1.69222,1.53087 -0.79056,2.74718 1.60534,4.11522 6.01467,9.24918 10.85036,7.54979 1.02439,-1.81928 3.90281,-1.9347 5.11884,-3.87372 3.39234,-1.53507 5.5121,-6.13534 2.52977,-9.05184 -1.9856,-1.81025 -3.26689,-4.53251 -5.77104,-5.49436 -0.11945,-0.35826 -0.47984,-1.19519 -0.96843,-0.61268 z"
             inkscape:connector-curvature="0" />
          <path
             style="fill:#000000;stroke:none"
             id="path2335"
             d="m 230.84836,326.04335 c -1.44238,1.1901 -2.89919,1.94377 -4.52593,2.82623 -1.51395,1.84833 -4.29529,2.24684 -5.53388,4.03183 -3.55041,0.56271 -2.22866,7.18996 1.56135,4.72356 2.85778,-1.03436 4.74293,-3.70968 7.54979,-4.64451 1.40396,-1.63622 5.42906,-2.92182 3.08317,-5.55364 -0.40785,-0.76334 -1.18889,-1.55577 -2.1345,-1.38347 z"
             inkscape:connector-curvature="0" />
          <path
             style="fill:#000000;stroke:none"
             id="path2337"
             d="m 219.44461,317.2089 c -4.08971,0.16088 -4.80845,5.72159 -3.47844,8.67634 1.31353,0.43409 0.84992,2.88494 2.76694,2.88552 2.60852,0.55837 6.94453,0.96393 7.15452,-2.64836 1.71746,-0.80557 1.07728,-3.63356 -0.25693,-4.38757 0.1045,-3.05973 -3.52244,-4.7152 -6.18609,-4.52593 z"
             inkscape:connector-curvature="0" />
          <path
             style="fill:#000000;stroke:none"
             id="path2339"
             d="m 219.24697,276.29771 c -2.7878,0.19283 -6.06044,-0.23803 -8.26129,1.54158 -2.97488,0.22213 -5.56171,1.96065 -8.45893,2.29261 -0.89294,1.61693 -3.65692,1.16859 -4.50616,2.80647 -1.59239,-0.0728 -1.77424,1.98948 -3.51797,1.89733 -1.31956,0.70823 -1.75756,2.10836 -3.34009,2.37166 -4.09998,3.29054 -8.18026,7.18925 -10.88989,11.56186 -1.22905,0.39615 -0.5843,2.05356 -1.79851,2.47048 -0.49916,1.85393 -1.11073,3.56586 -2.11473,5.11884 -0.89639,2.89009 -0.21196,6.31563 -1.99615,8.6961 -0.31244,1.81995 1.61436,2.73299 1.22535,4.64451 0.18393,4.12607 1.19577,8.37582 3.08317,11.91761 1.45574,0.39734 1.35714,2.8337 2.83583,3.64807 4.37379,5.1821 10.97895,8.88288 17.9555,7.63929 4.05437,-0.33362 8.56661,0.36594 11.99691,-2.01811 4.1295,-1.35561 6.50043,-7.15145 4.72356,-10.98871 -1.1653,-0.33408 -0.61629,-2.34484 -2.11473,-2.58907 -0.86103,-1.4179 -1.86891,-3.04493 -3.95277,-2.58906 -2.29454,-0.30621 -5.85794,-0.0359 -5.43506,3.18198 -0.40718,2.0097 1.60303,3.5765 2.17402,4.96073 -3.40625,1.98394 -8.01376,2.03923 -11.83855,1.423 -3.74849,-0.86001 -6.83604,-3.87103 -8.59728,-6.97665 -1.20345,-0.28054 -0.32029,-2.44545 -1.73922,-2.88552 -0.64324,-4.51601 -0.89793,-9.64407 0.11858,-14.07187 1.51624,-1.44971 2.30134,-3.70041 4.30853,-4.94096 2.82452,-1.51801 5.36215,-3.84556 8.71586,-4.15041 2.18646,-1.61683 5.05775,-0.62993 7.39168,-1.89733 1.49865,-1.35478 0.90564,-4.01283 2.66812,-5.02002 1.46434,-3.29848 5.19964,-5.5114 8.18224,-7.41145 2.1,-1.49873 4.98214,-0.81365 6.97664,-2.11474 1.85878,-0.75209 5.00377,-1.04534 6.56161,0.55339 1.71081,0.38946 3.35542,0.77862 4.40734,2.05544 2.40288,0.69353 3.79998,3.71407 5.43506,5.43507 0.0875,1.55396 2.03377,2.16698 1.66016,3.9923 -0.20932,2.84137 2.79349,5.78198 1.00796,8.36011 -1.14129,2.72266 -1.45782,6.05408 -4.07136,8.00436 -1.29462,1.22166 -3.64347,3.17208 -5.356,2.27285 -0.2331,-2.03017 0.0381,-5.76652 -3.14246,-5.31648 -3.18082,-0.51951 -6.26082,3.45469 -4.07135,6.08727 0.70448,7.19655 9.95827,9.47729 15.43557,6.00821 1.61483,-0.4606 3.23287,-0.95782 3.71561,-2.76694 1.48594,-0.93576 2.77712,-2.1063 3.16222,-3.93301 2.34807,-2.04008 1.08896,-6.07027 2.86576,-8.51822 0.34293,-2.4761 0.70017,-5.63569 -0.88938,-7.56956 -0.0773,-3.68385 -1.93541,-7.24231 -3.91324,-10.05981 -2.83487,-3.72845 -6.39198,-7.4851 -10.5539,-9.76334 -2.14608,0.15019 -2.91297,-1.94817 -4.88168,-1.87757 -2.7651,-2.38557 -7.38298,-1.03041 -10.8305,-1.48644 l -0.33608,0.004 z"
             inkscape:connector-curvature="0" />
        </g>
        <path
           style="fill:#808000;fill-rule:evenodd;stroke:none"
           id="path2341"
           d="m 204.27926,321.78251 c 0,0 1.24958,-14.04506 9.93841,-13.93166 l 11.42914,0.14917 5.82753,7.87571 -0.94867,4.91038 0.48985,4.58627 6.28633,11.50524 7.77002,12.46988 9.06502,13.78249 4.53251,8.53203 -9.06501,5.25047 -10.36004,-15.09511 -17.15126,-21.04963 -8.4627,-13.00089 -4.81862,-2.7028 -4.53251,-3.28155 z"
           inkscape:connector-curvature="0" />
        <g
           style="fill:#ffff00"
           id="g2310"
           transform="matrix(1.0543679,0,0,1.0597469,-15.169887,-24.097019)">
          <path
             style="fill:#ffff00;stroke:none"
             id="path2292"
             d="m 255.35555,367.72533 c -2.26337,-0.24978 -2.02524,2.85571 -4.13065,2.76694 -2.81008,1.18187 -4.02821,5.04625 -1.27133,7.06642 1.78102,1.70854 3.30789,3.54437 3.88016,5.85914 2.75011,2.04688 3.78822,5.86059 6.40349,8.10319 2.21991,4.12477 5.5939,7.16392 7.80672,11.24563 2.68924,2.99077 4.65655,7.09076 7.45098,9.64477 0.98678,2.89029 3.39234,5.04193 4.90929,7.64182 2.67349,3.53901 5.4528,7.15987 7.77911,10.89668 1.72371,2.87499 4.50846,5.03536 5.75128,8.16247 2.1711,1.94831 3.48261,4.34301 4.86191,6.75924 2.32773,2.86211 4.27335,5.93663 6.44302,8.89374 0.99268,3.1823 4.66245,4.99393 5.59317,8.28106 1.81521,2.28127 4.08754,4.42243 5.03979,7.11499 1.87681,1.26592 2.60989,4.13269 4.50616,5.37577 0.37673,2.32551 2.78505,3.7678 3.77489,5.92916 1.26667,0.53975 1.28109,1.52994 1.81828,2.62859 1.67917,1.57979 2.78388,4.20605 4.54569,5.45482 1.12719,3.72352 4.7883,6.00954 6.30196,9.52321 1.82493,2.13772 3.59478,4.2373 4.68674,6.76222 1.77545,1.14154 1.54113,3.67621 3.75514,4.24923 0.62632,1.55517 1.56509,3.15415 2.82623,4.44686 0.0344,1.80481 2.19237,2.07088 2.37166,3.79466 1.5726,1.93905 4.97794,1.9596 6.14656,-0.25693 1.68812,-0.69965 2.85822,-2.23431 3.53773,-3.61678 2.04566,-0.47157 -1.16209,-1.29171 -0.61268,-2.64836 -4.57382,-6.84501 -9.47648,-13.59926 -14.2695,-20.25796 -0.24792,-2.23494 -2.85477,-3.26881 -3.6747,-5.4648 -2.64589,-3.4189 -4.95404,-7.60964 -7.78834,-10.58345 -0.95446,-3.51696 -4.64295,-5.506 -5.86987,-8.89374 -2.33404,-2.51814 -3.96729,-5.90379 -6.14656,-8.28106 0.0363,-1.71372 -2.19283,-1.79848 -2.25308,-3.45867 -2.541,-3.46658 -4.96593,-7.01589 -7.4905,-10.47485 -0.55266,-1.82408 -2.50402,-2.38424 -2.60883,-4.26899 -1.8832,-1.56958 -2.95793,-4.16583 -4.7038,-5.65246 0.15182,-1.86925 -2.36655,-1.98112 -2.21355,-3.85396 -2.15453,-2.54678 -3.93362,-5.41765 -5.65247,-8.16247 -2.37485,-2.2029 -3.74549,-5.71243 -6.0675,-7.72767 -0.97349,-3.38942 -4.46296,-5.57025 -5.53388,-8.99256 -2.71771,-2.117 -3.94151,-6.00488 -6.48255,-8.02412 -1.23036,-3.39616 -4.03614,-6.07936 -5.96869,-9.15067 -1.41579,-0.62877 -0.86958,-2.42683 -2.25308,-3.24128 -3.6412,-4.63331 -6.54104,-10.06873 -10.49461,-14.42761 -0.46641,-1.24822 -1.45834,-3.01323 -3.30056,-3.08317 -0.46309,-0.0777 -0.93356,-0.13663 -1.40323,-0.079 z"
             inkscape:connector-curvature="0" />
          <path
             style="fill:#ffff00;stroke:none"
             id="path2294"
             d="m 362.77213,429.86291 c -1.02828,1.03171 -1.34768,2.88895 -3.24128,2.98434 -1.26956,0.71625 -1.77876,2.1053 -3.37962,2.23332 -1.59399,1.1869 -3.03304,2.52709 -4.66427,3.43891 -0.77825,1.40073 -3.32835,1.30382 -3.87371,3.0634 -2.37921,0.86253 -3.9302,3.25982 -6.38373,4.03182 -1.53638,1.65709 -3.55752,2.69569 -5.39554,3.57726 -0.22475,4.46467 6.76841,6.59166 5.39554,11.20611 -1.08245,0.34488 -1.85116,0.83349 -2.5693,1.77875 -1.50684,1.73789 -3.6955,1.93622 -4.58522,-0.43481 -1.1075,-2.48866 -3.01837,-4.86585 -5.02002,-6.64065 -1.90955,0.29908 -6.16379,2.14493 -4.17017,4.62474 2.01345,2.20776 3.54286,5.12658 5.65246,7.03593 1.0153,3.69517 4.9948,5.91539 6.18609,9.50642 1.98879,0.55499 2.33062,2.49877 3.37962,3.9923 1.45773,1.33259 1.91054,3.8097 3.7749,5.00026 0.81987,2.12659 2.76634,3.2574 3.79466,5.41529 0.90219,1.31408 2.08107,1.7332 2.2926,3.35986 1.72073,2.8615 4.58272,5.05649 5.73152,8.16247 1.06199,0.44457 1.91645,1.30048 2.72742,1.75899 2.82086,-0.37339 4.26302,-3.98548 1.81827,-5.8501 -1.24041,-1.79766 -2.20523,-3.82523 -3.69584,-5.53389 1.71862,-1.56738 3.90492,-3.22789 6.16632,-3.59702 2.4999,2.06691 3.26035,6.55892 6.58137,7.49051 1.9916,-0.082 2.05261,-2.60496 4.01206,-2.47049 3.02564,-2.11549 6.04286,-4.5791 8.99256,-6.68018 1.90717,-0.32914 2.85,-2.51511 4.90144,-3.0634 2.80355,-1.95798 5.72681,-3.81434 8.12294,-6.18609 0.28349,-1.64985 -1.81864,-2.69666 -2.3519,-4.22946 -1.7109,-3.45846 -5.74106,-0.52471 -7.15451,1.60087 -0.91484,0.53874 -2.08805,0.56519 -2.47049,1.71945 -3.16136,2.39611 -6.42408,-1.75656 -6.48254,-4.7038 1.31329,-0.87184 3.03033,-1.27721 3.81442,-2.74717 2.3403,-0.48337 3.53524,-3.08581 5.81058,-3.69584 1.11827,-1.3812 -0.15165,-2.61214 -1.04749,-3.47844 -0.43321,-2.12492 -2.94494,-5.29753 -4.98049,-2.70765 -1.66466,1.60682 -3.49324,2.26598 -5.02002,3.83419 -2.58349,1.21915 -4.61191,3.15523 -6.68018,4.9212 -1.70656,0.32748 -4.57505,2.47928 -2.23332,4.01206 0.91048,2.24849 3.08273,3.80218 3.85395,6.04774 -0.60243,2.17053 -3.12347,2.78496 -4.66427,4.09112 -4.30396,0.3244 -4.85383,-6.2884 -8.71586,-6.91735 -1.19926,1.86606 -3.53687,3.72504 -5.92916,3.75513 -2.45961,-1.4568 -5.12748,-4.38025 -5.15837,-7.31262 2.22989,-0.44427 3.77542,-2.49848 5.94893,-3.0634 1.46607,-1.90551 -0.93725,-3.53579 -1.46253,-5.17813 -1.9829,-0.75976 -3.64334,-4.30166 -0.73126,-5.27695 1.38201,-0.49963 2.58202,-1.03483 3.39938,-2.29261 2.34544,-0.0158 3.99752,2.99675 5.03979,4.82238 0.72192,2.47806 4.28076,2.08384 5.09907,0.13835 1.59239,0.0728 1.77423,-1.98949 3.51797,-1.89733 1.31881,-0.60113 1.64874,-2.1276 3.20174,-2.25308 1.59995,-1.39424 3.01272,-2.86285 5.02002,-3.57726 1.0536,-0.99975 4.43035,-2.30124 2.17403,-3.93301 -1.46811,-1.51396 -1.97314,-5.01786 -4.46663,-5.05955 -1.1037,1.29341 -2.62812,1.9513 -4.05159,2.64836 -0.70278,1.50182 -3.38301,1.20834 -3.79467,3.18198 -2.78143,2.8044 -5.47846,-1.18762 -6.2849,-3.63655 -2.07313,-0.26827 0.22345,-3.35094 1.40323,-3.71561 1.39491,-0.59587 1.4137,-2.33041 3.10293,-2.15426 1.64027,-0.86464 2.80252,-2.40118 4.62474,-2.80647 0.51253,-3.00097 -2.43732,-5.74424 -4.03183,-8.06365 -0.22109,-0.19867 -0.5518,-0.33513 -0.84984,-0.27669 z"
             inkscape:connector-curvature="0" />
          <path
             style="fill:#ffff00;stroke:none"
             id="path2296"
             d="m 253.89302,360.78821 c -1.29983,0.22293 -1.44527,1.87404 -3.02387,1.9171 -1.77476,1.46328 -3.7767,2.53687 -5.6327,3.7749 -0.72394,1.19595 -3.01487,1.44025 -2.64836,3.51796 0.0883,3.66325 4.86616,1.8566 6.64066,0.55339 2.70741,-2.5375 7.11612,-3.75484 8.61704,-7.41145 -0.60808,-1.55844 -2.29849,-2.52035 -3.95277,-2.3519 z"
             inkscape:connector-curvature="0" />
          <path
             style="fill:#ffff00;stroke:none"
             id="path2298"
             d="m 245.77007,352.28975 c -2.30083,2.04882 -6.26388,3.10414 -8.00436,6.06751 0.27929,3.65447 4.14814,8.51865 8.22177,6.32443 2.31107,-1.78789 6.62955,-4.00731 4.76309,-7.56955 -1.23895,-1.75374 -2.77921,-4.29058 -4.9805,-4.82239 z"
             inkscape:connector-curvature="0" />
          <path
             style="fill:#ffff00;stroke:none"
             id="path2300"
             d="m 244.24826,344.95736 c -1.22157,0.58052 -1.5291,2.25398 -3.18199,2.17403 -1.6758,1.75967 -4.37832,2.84371 -5.73152,4.74332 -2.20533,-1.9e-4 -5.42973,3.30553 -2.52977,4.78286 4.44751,1.3228 8.24354,-3.23773 11.58162,-5.31648 2.16921,-0.58715 4.90842,-3.53768 1.99615,-5.1979 -0.61032,-0.49256 -1.30954,-1.17565 -2.13449,-1.18583 z"
             inkscape:connector-curvature="0" />
          <path
             style="fill:#ffff00;stroke:none"
             id="path2302"
             d="m 234.58373,331.85392 c 0.0449,1.48821 -2.08452,0.92365 -2.29261,2.29261 -2.25453,0.39738 -3.82456,2.4892 -5.96869,3.0634 -0.45704,1.41912 -3.06812,1.38508 -2.70764,3.37962 -0.48603,0.9036 -1.69222,1.53087 -0.79056,2.74718 1.60534,4.11522 6.01467,9.24918 10.85036,7.54979 1.02439,-1.81928 3.90281,-1.9347 5.11884,-3.87372 3.39234,-1.53507 5.5121,-6.13534 2.52977,-9.05184 -1.9856,-1.81025 -3.26689,-4.53251 -5.77104,-5.49436 -0.11945,-0.35826 -0.47984,-1.19519 -0.96843,-0.61268 z"
             inkscape:connector-curvature="0" />
          <path
             style="fill:#ffff00;stroke:none"
             id="path2304"
             d="m 230.84836,326.04335 c -1.44238,1.1901 -2.89919,1.94377 -4.52593,2.82623 -1.51395,1.84833 -4.29529,2.24684 -5.53388,4.03183 -3.55041,0.56271 -2.22866,7.18996 1.56135,4.72356 2.85778,-1.03436 4.74293,-3.70968 7.54979,-4.64451 1.40396,-1.63622 5.42906,-2.92182 3.08317,-5.55364 -0.40785,-0.76334 -1.18889,-1.55577 -2.1345,-1.38347 z"
             inkscape:connector-curvature="0" />
          <path
             style="fill:#ffff00;stroke:none"
             id="path2306"
             d="m 219.44461,317.2089 c -4.08971,0.16088 -4.80845,5.72159 -3.47844,8.67634 1.31353,0.43409 0.84992,2.88494 2.76694,2.88552 2.60852,0.55837 6.94453,0.96393 7.15452,-2.64836 1.71746,-0.80557 1.07728,-3.63356 -0.25693,-4.38757 0.1045,-3.05973 -3.52244,-4.7152 -6.18609,-4.52593 z"
             inkscape:connector-curvature="0" />
          <path
             style="fill:#ffff00;stroke:none"
             id="path2308"
             d="m 219.24697,276.29771 c -2.7878,0.19283 -6.06044,-0.23803 -8.26129,1.54158 -2.97488,0.22213 -5.56171,1.96065 -8.45893,2.29261 -0.89294,1.61693 -3.65692,1.16859 -4.50616,2.80647 -1.59239,-0.0728 -1.77424,1.98948 -3.51797,1.89733 -1.31956,0.70823 -1.75756,2.10836 -3.34009,2.37166 -4.09998,3.29054 -8.18026,7.18925 -10.88989,11.56186 -1.22905,0.39615 -0.5843,2.05356 -1.79851,2.47048 -0.49916,1.85393 -1.11073,3.56586 -2.11473,5.11884 -0.89639,2.89009 -0.21196,6.31563 -1.99615,8.6961 -0.31244,1.81995 1.61436,2.73299 1.22535,4.64451 0.18393,4.12607 1.19577,8.37582 3.08317,11.91761 1.45574,0.39734 1.35714,2.8337 2.83583,3.64807 4.37379,5.1821 10.97895,8.88288 17.9555,7.63929 4.05437,-0.33362 8.56661,0.36594 11.99691,-2.01811 4.1295,-1.35561 6.50043,-7.15145 4.72356,-10.98871 -1.1653,-0.33408 -0.61629,-2.34484 -2.11473,-2.58907 -0.86103,-1.4179 -1.86891,-3.04493 -3.95277,-2.58906 -2.29454,-0.30621 -5.85794,-0.0359 -5.43506,3.18198 -0.40718,2.0097 1.60303,3.5765 2.17402,4.96073 -3.40625,1.98394 -8.01376,2.03923 -11.83855,1.423 -3.74849,-0.86001 -6.83604,-3.87103 -8.59728,-6.97665 -1.20345,-0.28054 -0.32029,-2.44545 -1.73922,-2.88552 -0.64324,-4.51601 -0.89793,-9.64407 0.11858,-14.07187 1.51624,-1.44971 2.30134,-3.70041 4.30853,-4.94096 2.82452,-1.51801 5.36215,-3.84556 8.71586,-4.15041 2.18646,-1.61683 5.05775,-0.62993 7.39168,-1.89733 1.49865,-1.35478 0.90564,-4.01283 2.66812,-5.02002 1.46434,-3.29848 5.19964,-5.5114 8.18224,-7.41145 2.1,-1.49873 4.98214,-0.81365 6.97664,-2.11474 1.85878,-0.75209 5.00377,-1.04534 6.56161,0.55339 1.71081,0.38946 3.35542,0.77862 4.40734,2.05544 2.40288,0.69353 3.79998,3.71407 5.43506,5.43507 0.0875,1.55396 2.03377,2.16698 1.66016,3.9923 -0.20932,2.84137 2.79349,5.78198 1.00796,8.36011 -1.14129,2.72266 -1.45782,6.05408 -4.07136,8.00436 -1.29462,1.22166 -3.64347,3.17208 -5.356,2.27285 -0.2331,-2.03017 0.0381,-5.76652 -3.14246,-5.31648 -3.18082,-0.51951 -6.26082,3.45469 -4.07135,6.08727 0.70448,7.19655 9.95827,9.47729 15.43557,6.00821 1.61483,-0.4606 3.23287,-0.95782 3.71561,-2.76694 1.48594,-0.93576 2.77712,-2.1063 3.16222,-3.93301 2.34807,-2.04008 1.08896,-6.07027 2.86576,-8.51822 0.34293,-2.4761 0.70017,-5.63569 -0.88938,-7.56956 -0.0773,-3.68385 -1.93541,-7.24231 -3.91324,-10.05981 -2.83487,-3.72845 -6.39198,-7.4851 -10.5539,-9.76334 -2.14608,0.15019 -2.91297,-1.94817 -4.88168,-1.87757 -2.7651,-2.38557 -7.38298,-1.03041 -10.8305,-1.48644 l -0.33608,0.004 z"
             inkscape:connector-curvature="0" />
        </g>
      </g>
    </g>
  </g>
</svg>
